<svg width="219" height="303" viewBox="0 0 219 303" fill="none" xmlns="http://www.w3.org/2000/svg">
<g opacity="0.3">
<g opacity="0.3" clip-path="url(#clip0_50_1011)">
<path d="M0.666035 94.3899L4.10719 93.5436C4.31402 92.8913 4.5801 92.2587 4.90113 91.6536C4.38445 90.7936 3.29865 88.9834 3.29865 88.9834C3.09094 88.6376 3.1459 88.1946 3.43084 87.9097L5.9165 85.424C6.20145 85.1382 6.64348 85.0833 6.99023 85.2919L9.66475 86.8943C10.2664 86.5759 10.8956 86.3124 11.5436 86.1072L12.3898 82.6661C12.4877 82.2747 12.8388 82 13.2422 82H16.7578C17.1612 82 17.5131 82.2747 17.6101 82.666C17.6101 82.666 18.1963 85.0678 18.4556 86.1064C19.1465 86.3252 19.8142 86.6093 20.4503 86.9561L23.2235 85.2919C23.5702 85.0858 24.0114 85.1391 24.2972 85.424L26.7829 87.9097C27.0678 88.1946 27.1228 88.6376 26.915 88.9834L25.2001 91.8476C25.4765 92.3927 25.7082 92.96 25.8928 93.541L29.3339 94.3899C29.7253 94.4877 30 94.8388 30 95.2422V98.7578C30 99.1612 29.7253 99.5131 29.334 99.6101L25.8919 100.456C25.6833 101.118 25.4122 101.761 25.0834 102.378L26.618 104.936C26.8257 105.282 26.7708 105.725 26.4858 106.01L24.0002 108.495C23.7161 108.779 23.2732 108.833 22.9264 108.627C22.9264 108.627 21.2055 107.596 20.3627 107.091C19.7524 107.416 19.1139 107.685 18.4555 107.894L17.6101 111.334C17.5131 111.725 17.1612 112 16.7578 112H13.2422C12.8388 112 12.4877 111.725 12.3899 111.334L11.5444 107.894C10.8672 107.679 10.2149 107.402 9.59437 107.065C8.72836 107.585 6.99029 108.627 6.99029 108.627C6.64441 108.834 6.2015 108.781 5.91656 108.495L3.4309 106.01C3.14596 105.725 3.091 105.282 3.29871 104.936L4.87887 102.303C4.56732 101.712 4.30893 101.093 4.10724 100.456L0.666094 99.6101C0.27463 99.5123 0 99.1612 0 98.7578V95.2422C0 94.8388 0.27463 94.4877 0.666035 94.3899ZM15 103.152C18.3921 103.152 21.1523 100.392 21.1523 97C21.1523 93.6079 18.3921 90.8477 15 90.8477C11.608 90.8477 8.84766 93.6079 8.84766 97C8.84766 100.392 11.608 103.152 15 103.152Z" fill="#367AF5"/>
</g>
<g opacity="0.3" clip-path="url(#clip1_50_1011)">
<path d="M218.334 208.61L214.893 209.456C214.686 210.109 214.42 210.741 214.099 211.346C214.616 212.206 215.701 214.017 215.701 214.017C215.909 214.362 215.854 214.805 215.569 215.09L213.083 217.576C212.799 217.862 212.357 217.917 212.01 217.708L209.335 216.106C208.734 216.424 208.104 216.688 207.456 216.893L206.61 220.334C206.512 220.725 206.161 221 205.758 221H202.242C201.839 221 201.487 220.725 201.39 220.334C201.39 220.334 200.804 217.932 200.544 216.894C199.853 216.675 199.186 216.391 198.55 216.044L195.777 217.708C195.43 217.914 194.989 217.861 194.703 217.576L192.217 215.09C191.932 214.805 191.877 214.362 192.085 214.017L193.8 211.152C193.523 210.607 193.292 210.04 193.107 209.459L189.666 208.61C189.275 208.512 189 208.161 189 207.758V204.242C189 203.839 189.275 203.487 189.666 203.39L193.108 202.544C193.317 201.882 193.588 201.239 193.917 200.622L192.382 198.064C192.174 197.718 192.229 197.275 192.514 196.99L195 194.505C195.284 194.221 195.727 194.167 196.074 194.373C196.074 194.373 197.794 195.404 198.637 195.909C199.248 195.584 199.886 195.315 200.544 195.106L201.39 191.666C201.487 191.275 201.839 191 202.242 191H205.758C206.161 191 206.512 191.275 206.61 191.666L207.456 195.106C208.133 195.321 208.785 195.598 209.406 195.935C210.272 195.415 212.01 194.373 212.01 194.373C212.356 194.166 212.798 194.219 213.083 194.505L215.569 196.99C215.854 197.275 215.909 197.718 215.701 198.064L214.121 200.697C214.433 201.288 214.691 201.907 214.893 202.544L218.334 203.39C218.725 203.488 219 203.839 219 204.242V207.758C219 208.161 218.725 208.512 218.334 208.61ZM204 199.848C200.608 199.848 197.848 202.608 197.848 206C197.848 209.392 200.608 212.152 204 212.152C207.392 212.152 210.152 209.392 210.152 206C210.152 202.608 207.392 199.848 204 199.848Z" fill="#367AF5"/>
</g>
<g opacity="0.3" clip-path="url(#clip2_50_1011)">
<path d="M29.5097 28.0837L37.3096 26.1655C37.7785 24.6869 38.3816 23.2531 39.1092 21.8815C37.9381 19.9321 35.4769 15.8291 35.4769 15.8291C35.0061 15.0451 35.1307 14.0412 35.7766 13.3953L41.4107 7.76116C42.0566 7.1133 43.0585 6.98886 43.8445 7.46154L49.9068 11.0938C51.2706 10.372 52.6966 9.77473 54.1654 9.30976L56.0836 1.50981C56.3055 0.622625 57.1012 0 58.0156 0H65.9844C66.8988 0 67.6965 0.622625 67.9163 1.50968C67.9163 1.50968 69.2451 6.95366 69.8326 9.30777C71.3987 9.80382 72.9123 10.4478 74.354 11.2338L80.6398 7.46154C81.4258 6.99457 82.4258 7.1153 83.0736 7.76116L88.7078 13.3953C89.3537 14.0412 89.4782 15.0451 89.0074 15.8291L85.1203 22.3213C85.7467 23.5567 86.272 24.8426 86.6902 26.1597L94.4902 28.0837C95.3774 28.3055 96 29.1012 96 30.0156V37.9844C96 38.8988 95.3774 39.6965 94.4903 39.9163L86.6884 41.8345C86.2156 43.3345 85.6009 44.7917 84.8557 46.1905L88.3342 51.988C88.805 52.772 88.6804 53.7759 88.0346 54.4218L82.4004 60.056C81.7564 60.7 80.7526 60.8224 79.9666 60.3556C79.9666 60.3556 76.0659 58.0172 74.1554 56.8731C72.7722 57.6105 71.3248 58.2194 69.8325 58.6921L67.9161 66.4902C67.6965 67.3775 66.8988 68 65.9844 68H58.0156C57.1012 68 56.3055 67.3774 56.0837 66.4903L54.1674 58.6922C52.6323 58.2059 51.1539 57.5774 49.7472 56.8148C47.7843 57.9918 43.8447 60.3556 43.8447 60.3556C43.0607 60.8244 42.0567 60.7038 41.4109 60.056L35.7767 54.4218C35.1308 53.7759 35.0063 52.772 35.4771 51.988L39.0588 46.0211C38.3526 44.6806 37.7669 43.278 37.3098 41.8345L29.5098 39.9163C28.6225 39.6945 28 38.8988 28 37.9844V30.0156C28 29.1012 28.6225 28.3055 29.5097 28.0837ZM62 47.9453C69.6886 47.9453 75.9453 41.6886 75.9453 34C75.9453 26.3114 69.6886 20.0547 62 20.0547C54.3114 20.0547 48.0547 26.3114 48.0547 34C48.0547 41.6886 54.3114 47.9453 62 47.9453Z" fill="#367AF5"/>
</g>
<g opacity="0.3" clip-path="url(#clip3_50_1011)">
<path d="M189.49 274.916L181.69 276.834C181.222 278.313 180.618 279.747 179.891 281.118C181.062 283.068 183.523 287.171 183.523 287.171C183.994 287.955 183.869 288.959 183.223 289.605L177.589 295.239C176.943 295.887 175.941 296.011 175.155 295.538L169.093 291.906C167.729 292.628 166.303 293.225 164.835 293.69L162.916 301.49C162.694 302.377 161.899 303 160.984 303H153.016C152.101 303 151.304 302.377 151.084 301.49C151.084 301.49 149.755 296.046 149.167 293.692C147.601 293.196 146.088 292.552 144.646 291.766L138.36 295.538C137.574 296.005 136.574 295.885 135.926 295.239L130.292 289.605C129.646 288.959 129.522 287.955 129.993 287.171L133.88 280.679C133.253 279.443 132.728 278.157 132.31 276.84L124.51 274.916C123.623 274.694 123 273.899 123 272.984V265.016C123 264.101 123.623 263.304 124.51 263.084L132.312 261.166C132.784 259.666 133.399 258.208 134.144 256.81L130.666 251.012C130.195 250.228 130.32 249.224 130.965 248.578L136.6 242.944C137.244 242.3 138.247 242.178 139.033 242.644C139.033 242.644 142.934 244.983 144.845 246.127C146.228 245.39 147.675 244.781 149.168 244.308L151.084 236.51C151.304 235.622 152.101 235 153.016 235H160.984C161.899 235 162.694 235.623 162.916 236.51L164.833 244.308C166.368 244.794 167.846 245.423 169.253 246.185C171.216 245.008 175.155 242.644 175.155 242.644C175.939 242.176 176.943 242.296 177.589 242.944L183.223 248.578C183.869 249.224 183.994 250.228 183.523 251.012L179.941 256.979C180.647 258.319 181.233 259.722 181.69 261.166L189.49 263.084C190.378 263.306 191 264.101 191 265.016V272.984C191 273.899 190.378 274.694 189.49 274.916ZM157 255.055C149.311 255.055 143.055 261.311 143.055 269C143.055 276.689 149.311 282.945 157 282.945C164.689 282.945 170.945 276.689 170.945 269C170.945 261.311 164.689 255.055 157 255.055Z" fill="#367AF5"/>
</g>
<g opacity="0.3" clip-path="url(#clip4_50_1011)">
<path d="M30.6216 148.564L33.8334 147.774C34.0264 147.165 34.2748 146.575 34.5744 146.01C34.0922 145.207 33.0787 143.518 33.0787 143.518C32.8849 143.195 32.9362 142.782 33.2021 142.516L35.5221 140.196C35.788 139.929 36.2006 139.878 36.5242 140.072L39.0204 141.568C39.582 141.271 40.1692 141.025 40.774 140.833L41.5638 137.622C41.6552 137.256 41.9829 137 42.3594 137H45.6406C46.0171 137 46.3456 137.256 46.4361 137.622C46.4361 137.622 46.9833 139.863 47.2252 140.833C47.8701 141.037 48.4933 141.302 49.0869 141.626L51.6752 140.072C51.9989 139.88 52.4106 139.93 52.6774 140.196L54.9973 142.516C55.2633 142.782 55.3146 143.195 55.1207 143.518L53.5201 146.191C53.7781 146.7 53.9944 147.229 54.1666 147.772L57.3783 148.564C57.7436 148.655 58 148.983 58 149.359V152.641C58 153.017 57.7436 153.346 57.3784 153.436L54.1658 154.226C53.9711 154.844 53.718 155.444 53.4112 156.02L54.8435 158.407C55.0374 158.73 54.9861 159.143 54.7201 159.409L52.4002 161.729C52.135 161.994 51.7217 162.045 51.398 161.852C51.398 161.852 49.7918 160.889 49.0052 160.418C48.4356 160.722 47.8396 160.973 47.2251 161.167L46.4361 164.378C46.3456 164.744 46.0171 165 45.6406 165H42.3594C41.9829 165 41.6552 164.744 41.5639 164.378L40.7748 161.167C40.1427 160.967 39.5339 160.708 38.9548 160.394C38.1465 160.879 36.5243 161.852 36.5243 161.852C36.2015 162.045 35.7881 161.996 35.5221 161.729L33.2022 159.409C32.9362 159.143 32.8849 158.73 33.0788 158.407L34.5536 155.95C34.2628 155.398 34.0217 154.82 33.8334 154.226L30.6217 153.436C30.2563 153.345 30 153.017 30 152.641V149.359C30 148.983 30.2563 148.655 30.6216 148.564ZM44 156.742C47.1659 156.742 49.7422 154.166 49.7422 151C49.7422 147.834 47.1659 145.258 44 145.258C40.8341 145.258 38.2578 147.834 38.2578 151C38.2578 154.166 40.8341 156.742 44 156.742Z" fill="#367AF5"/>
</g>
</g>
<defs>
<clipPath id="clip0_50_1011">
<rect width="30" height="30" fill="white" transform="matrix(-1 0 0 1 30 82)"/>
</clipPath>
<clipPath id="clip1_50_1011">
<rect width="30" height="30" fill="white" transform="matrix(1 0 0 -1 189 221)"/>
</clipPath>
<clipPath id="clip2_50_1011">
<rect width="68" height="68" fill="white" transform="matrix(-1 0 0 1 96 0)"/>
</clipPath>
<clipPath id="clip3_50_1011">
<rect width="68" height="68" fill="white" transform="matrix(1 0 0 -1 123 303)"/>
</clipPath>
<clipPath id="clip4_50_1011">
<rect width="28" height="28" fill="white" transform="matrix(-1 0 0 1 58 137)"/>
</clipPath>
</defs>
</svg>
