<svg width="78" height="76" viewBox="0 0 78 76" fill="none" xmlns="http://www.w3.org/2000/svg">
<rect width="70" height="68" rx="15" fill="#D9D9D9"/>
<circle cx="66" cy="64" r="12" fill="#DC2745"/>
<path d="M65.25 65.7625C65.2562 66.1719 65.5906 66.5 66 66.5C66.4093 66.5 66.7437 66.1687 66.75 65.7625L67 59.025C67.0156 58.7688 66.9218 58.5188 66.7406 58.325C66.5468 58.1188 66.2781 58 66 58C65.7218 58 65.4531 58.1188 65.2593 58.325C65.0781 58.5188 64.9843 58.7688 65 59.025L65.25 65.7625Z" fill="#252525"/>
<path d="M66 70C66.5523 70 67 69.5523 67 69C67 68.4477 66.5523 68 66 68C65.4477 68 65 68.4477 65 69C65 69.5523 65.4477 70 66 70Z" fill="#252525"/>
</svg>
