<svg width="22" height="22" viewBox="0 0 22 22" fill="none" xmlns="http://www.w3.org/2000/svg">
<path fill-rule="evenodd" clip-rule="evenodd" d="M21.1694 6.79929C20.0542 4.1025 17.8975 1.94579 15.2007 0.83058C14.8602 1.4553 14.6668 2.17169 14.6668 2.93328C14.6668 5.36333 16.6367 7.33328 19.0668 7.33328C19.8283 7.33328 20.5447 7.13979 21.1694 6.79929ZM21.9228 9.68967C21.045 10.0612 20.0799 10.2666 19.0668 10.2666C15.0167 10.2666 11.7334 6.98336 11.7334 2.93328C11.7334 1.92015 11.9389 0.955007 12.3104 0.0772393C11.8807 0.0262356 11.4434 0 11 0C10.3805 0 9.77296 0.0512114 9.18139 0.149632C8.9325 1.03504 8.79937 1.9689 8.79937 2.93386C8.79937 8.60398 13.3959 13.2005 19.066 13.2005C20.031 13.2005 20.9649 13.0674 21.8504 12.8185C21.9488 12.2269 22 11.6195 22 11C22 10.5566 21.9738 10.1193 21.9228 9.68967ZM19.066 16.1339C19.65 16.1339 20.2251 16.0959 20.7891 16.0224C18.9643 19.5719 15.2657 22 11 22C4.92487 22 0 17.0751 0 11C0 6.73434 2.42804 3.03578 5.97746 1.21098C5.90395 1.77486 5.86604 2.34993 5.86604 2.93386C5.86604 10.224 11.7759 16.1339 19.066 16.1339Z" fill="#33C791"/>
</svg>
