<svg width="154" height="48" viewBox="0 0 154 48" fill="none" xmlns="http://www.w3.org/2000/svg">
<path fill-rule="evenodd" clip-rule="evenodd" d="M153.092 7.43692C151.872 4.48735 149.513 2.12845 146.564 0.908614C146.191 1.59185 145.98 2.37533 145.98 3.20823C145.98 5.8661 148.134 8.02073 150.792 8.02073C151.625 8.02073 152.408 7.80919 153.092 7.43692ZM153.916 10.5982C152.956 11.0044 151.9 11.2291 150.792 11.2291C146.362 11.2291 142.771 7.63801 142.771 3.20823C142.771 2.10016 142.996 1.04457 143.402 0.084537C142.932 0.0287146 142.454 0 141.969 0C141.291 0 140.627 0.0559654 139.98 0.163524C139.708 1.13176 139.563 2.15296 139.563 3.20816C139.563 9.40986 144.59 14.4373 150.792 14.4373C151.847 14.4373 152.868 14.2918 153.836 14.0197C153.944 13.3729 154 12.7086 154 12.0312C154 11.5463 153.971 11.0681 153.916 10.5982ZM150.792 17.6457C151.43 17.6457 152.059 17.6042 152.676 17.5239C150.68 21.4065 146.635 24.0625 141.969 24.0625C135.324 24.0625 129.938 18.6759 129.938 12.0312C129.938 7.3653 132.594 3.31972 136.476 1.32402C136.396 1.94069 136.354 2.56958 136.354 3.20816C136.354 11.1818 142.818 17.6457 150.792 17.6457Z" fill="#33C791"/>
<path d="M123.468 31.1657V27.4312H126.779V47.0662H123.468V43.3317C121.813 45.9497 119.079 47.5282 115.845 47.5282C113.035 47.5282 110.725 46.5657 108.838 44.6022C106.952 42.6387 106.028 40.1747 106.028 37.2487C106.028 34.3227 106.952 31.8972 108.838 29.9337C110.725 27.9702 113.035 26.9692 115.845 26.9692C119.079 26.9692 121.813 28.5477 123.468 31.1657ZM116.461 44.3327C118.463 44.3327 120.119 43.6782 121.466 42.3307C122.814 40.9832 123.468 39.2892 123.468 37.2487C123.468 35.2082 122.814 33.5527 121.466 32.2052C120.119 30.8577 118.463 30.1647 116.461 30.1647C114.421 30.1647 112.765 30.8577 111.418 32.2052C110.07 33.5527 109.416 35.2082 109.416 37.2487C109.416 39.2892 110.07 40.9832 111.418 42.3307C112.765 43.6782 114.421 44.3327 116.461 44.3327Z" fill="black"/>
<path d="M99.8988 27.431V30.973C101.4 28.3935 103.556 27.123 106.328 27.123V30.5495C102.324 30.5495 99.8988 33.1675 99.8988 37.21V47.066H96.5878V27.431H99.8988Z" fill="black"/>
<path d="M94.2738 37.2487C94.2738 37.6722 94.2353 38.1342 94.1968 38.6347H76.9488C77.2183 40.3672 77.9883 41.7917 79.2588 42.8697C80.5293 43.9477 82.0693 44.4867 83.8403 44.4867C86.7663 44.4867 89.1918 42.9852 90.2313 40.7907H93.8888C92.4643 44.8332 88.6143 47.5282 83.8403 47.5282C80.8758 47.5282 78.3733 46.5657 76.3713 44.6022C74.4078 42.6387 73.4068 40.1747 73.4068 37.2487C73.4068 34.3227 74.4078 31.8972 76.3713 29.9337C78.3733 27.9702 80.8758 26.9692 83.8403 26.9692C86.8048 26.9692 89.3073 27.9702 91.2708 29.9337C93.2728 31.8972 94.2738 34.3227 94.2738 37.2487ZM76.9873 35.6702H90.7318C90.1158 32.3207 87.3438 30.0107 83.8403 30.0107C80.3368 30.0107 77.6418 32.2822 76.9873 35.6702Z" fill="black"/>
<path d="M73.4772 27.4312V30.4342H67.9717V44.0247H73.4772V47.0662H64.6607V30.4342H60.8492V27.4312H64.6607V21.6562H67.9717V27.4312H73.4772Z" fill="black"/>
<path d="M52.6773 37.2102L60.2618 47.0662H56.1808L50.3673 39.4047L44.5923 47.0662H40.5498L48.1343 37.2102L40.6653 27.4312H44.7078L50.4058 34.9772L56.1038 27.4312H60.1463L52.6773 37.2102Z" fill="black"/>
<path d="M41.3953 37.2487C41.3953 37.6722 41.3568 38.1342 41.3183 38.6347H24.0703C24.3398 40.3672 25.1098 41.7917 26.3803 42.8697C27.6508 43.9477 29.1908 44.4867 30.9618 44.4867C33.8878 44.4867 36.3133 42.9852 37.3528 40.7907H41.0103C39.5858 44.8332 35.7358 47.5282 30.9618 47.5282C27.9973 47.5282 25.4948 46.5657 23.4928 44.6022C21.5293 42.6387 20.5283 40.1747 20.5283 37.2487C20.5283 34.3227 21.5293 31.8972 23.4928 29.9337C25.4948 27.9702 27.9973 26.9692 30.9618 26.9692C33.9263 26.9692 36.4288 27.9702 38.3923 29.9337C40.3943 31.8972 41.3953 34.3227 41.3953 37.2487ZM24.1088 35.6702H37.8533C37.2373 32.3207 34.4653 30.0107 30.9618 30.0107C27.4583 30.0107 24.7633 32.2822 24.1088 35.6702Z" fill="black"/>
<path d="M10.395 26.9692C12.782 26.9692 14.707 27.7007 16.17 29.1637C17.633 30.5882 18.3645 32.5132 18.3645 34.9387V47.0662H15.0535V35.9782C15.0535 32.4747 12.8205 30.1647 9.317 30.1647C5.7365 30.1647 3.311 32.5132 3.311 36.0552V47.0662H0V27.4312H3.311V30.5882C4.8895 28.1627 7.238 26.9692 10.395 26.9692Z" fill="black"/>
</svg>
