<svg width="1440" height="1015" viewBox="0 0 1440 1015" fill="none" xmlns="http://www.w3.org/2000/svg">
<g clip-path="url(#clip0_2012_6)">
<path fill-rule="evenodd" clip-rule="evenodd" d="M776.919 1260.24C921.085 1275.41 1067.46 1267.73 1185.27 1249.17C1297.3 1231.53 1338.19 1186.69 1425.32 1158.12C1505.99 1131.67 1617.16 1117.56 1682.28 1086.21C1753.57 1051.89 1834.48 1014.68 1821.86 967.225C1809.24 919.748 1706.69 337.502 1634.97 291.727C1566.1 247.772 1512.76 202.911 1425.32 161.957C1326.9 115.856 1238.73 54.8596 1089.4 36.1949C935.313 16.9358 823.271 69.0199 671.301 67.7114C525.518 66.4562 359.077 14.8798 228.97 28.7866C101.409 42.4213 85.8599 100.774 14.9683 137.865C-53.0529 173.455 -145.788 202.191 -183.195 244.436C-222.816 289.181 -274.999 877.837 -228.692 928.825C-182.523 979.661 -58.619 1022.73 51.6309 1064.73C153.614 1103.57 274.305 1133.71 393.618 1165.87C519.121 1199.7 633.179 1245.11 776.919 1260.24Z" fill="white"/>
<path fill-rule="evenodd" clip-rule="evenodd" d="M776.919 1237.24C921.085 1252.41 1067.46 1244.73 1185.27 1226.17C1297.3 1208.53 1338.19 1163.69 1425.32 1135.12C1505.99 1108.67 1617.16 1094.56 1682.28 1063.21C1753.57 1028.89 1834.48 991.676 1821.86 944.225C1809.24 896.748 1706.69 314.502 1634.97 268.727C1566.1 224.772 1512.76 179.911 1425.32 138.957C1326.9 92.8558 1238.73 31.8596 1089.4 13.1949C935.313 -6.06416 823.271 46.0199 671.301 44.7114C525.518 43.4562 359.077 -8.12023 228.97 5.78657C101.409 19.4213 85.8599 77.7741 14.9683 114.865C-53.0529 150.455 -145.788 179.191 -183.195 221.436C-222.816 266.181 -274.999 854.837 -228.692 905.825C-182.523 956.661 -58.619 999.731 51.6309 1041.73C153.614 1080.57 274.305 1110.71 393.618 1142.87C519.121 1176.7 633.179 1222.11 776.919 1237.24Z" fill="white"/>
</g>
<defs>
<clipPath id="clip0_2012_6">
<rect width="1440" height="1015" fill="white"/>
</clipPath>
</defs>
</svg>
