<svg width="392" height="420" viewBox="0 0 392 420" fill="none" xmlns="http://www.w3.org/2000/svg">
<path d="M0 24C0 10.7452 10.7452 0 24 0H368C381.255 0 392 10.7452 392 24V396C392 409.255 381.255 420 368 420H24C10.7452 420 0 409.255 0 396V24Z" fill="#33C791"/>
<mask id="mask0_370_261" style="mask-type:alpha" maskUnits="userSpaceOnUse" x="0" y="0" width="392" height="420">
<path d="M0 24C0 10.7452 10.7452 0 24 0H368C381.255 0 392 10.7452 392 24V396C392 409.255 381.255 420 368 420H24C10.7452 420 0 409.255 0 396V24Z" fill="#D9D9D9"/>
</mask>
<g mask="url(#mask0_370_261)">
<g opacity="0.9">
<g style="mix-blend-mode:plus-lighter" opacity="0.2" filter="url(#filter0_f_370_261)">
<path d="M262.962 547.888C246.327 542.14 234.49 505.98 196.01 492.018C157.736 477.907 92.8787 485.64 75.2995 469.407C57.7204 453.175 87.4795 412.624 115.375 385.19C143.125 357.551 169.011 343.028 193.009 350.318C216.802 357.758 238.5 387.159 258.356 389.978C278.358 393.003 296.165 369.39 314.511 363.992C333.063 358.445 351.595 371.204 354.321 387.232C357.048 403.259 343.762 422.702 335.778 442.995C327.795 463.288 324.967 484.226 312.763 506.924C300.765 529.474 279.538 553.989 262.962 547.888Z" fill="#71CDF4"/>
</g>
<g style="mix-blend-mode:plus-lighter" opacity="0.2" filter="url(#filter1_f_370_261)">
<path d="M27.837 485.857C38.6887 474.369 74.5863 471.959 100.274 445.505C126.019 419.234 141.843 369.027 162.236 358.713C182.628 348.399 207.878 378.086 222.253 404.013C236.86 429.867 240.592 451.96 225.817 468.713C210.984 485.284 177.585 496.332 168.183 510.77C158.55 525.282 173.087 542.928 171.432 557.707C169.835 572.667 152.162 584.323 137.13 583.494C122.097 582.666 109.648 569.171 94.6027 559.515C79.5574 549.859 62.1473 543.968 46.4608 530.703C30.8323 517.62 16.6961 497.237 27.837 485.857Z" fill="#71CDF4"/>
</g>
<g style="mix-blend-mode:plus-lighter" filter="url(#filter2_f_370_261)">
<path d="M-36 359C-36 359 43.6192 408.012 189.209 408.012C334.798 408.012 422 359 422 359V508.988C422 508.988 362.854 558 189.209 558C15.5629 558 -36 508.988 -36 508.988V359Z" fill="#ED6F2C"/>
</g>
</g>
</g>
<defs>
<filter id="filter0_f_370_261" x="-49.9685" y="228.448" width="524.652" height="440.387" filterUnits="userSpaceOnUse" color-interpolation-filters="sRGB">
<feFlood flood-opacity="0" result="BackgroundImageFix"/>
<feBlend mode="normal" in="SourceGraphic" in2="BackgroundImageFix" result="shape"/>
<feGaussianBlur stdDeviation="60" result="effect1_foregroundBlur_370_261"/>
</filter>
<filter id="filter1_f_370_261" x="-96.1508" y="236.613" width="451.372" height="466.923" filterUnits="userSpaceOnUse" color-interpolation-filters="sRGB">
<feFlood flood-opacity="0" result="BackgroundImageFix"/>
<feBlend mode="normal" in="SourceGraphic" in2="BackgroundImageFix" result="shape"/>
<feGaussianBlur stdDeviation="60" result="effect1_foregroundBlur_370_261"/>
</filter>
<filter id="filter2_f_370_261" x="-126" y="269" width="638" height="379" filterUnits="userSpaceOnUse" color-interpolation-filters="sRGB">
<feFlood flood-opacity="0" result="BackgroundImageFix"/>
<feBlend mode="normal" in="SourceGraphic" in2="BackgroundImageFix" result="shape"/>
<feGaussianBlur stdDeviation="45" result="effect1_foregroundBlur_370_261"/>
</filter>
</defs>
</svg>
