<svg width="26" height="26" viewBox="0 0 26 26" fill="none" xmlns="http://www.w3.org/2000/svg">
<path d="M13 24.25C19.2132 24.25 24.25 19.2132 24.25 13C24.25 6.7868 19.2132 1.75 13 1.75C6.7868 1.75 1.75 6.7868 1.75 13C1.75 19.2132 6.7868 24.25 13 24.25Z" stroke="white" stroke-width="1.875" stroke-linecap="round" stroke-linejoin="round"/>
<path d="M20.5 5.5L16.0938 9.90625M16.0938 9.90625C17.7788 11.5925 17.7788 14.4088 16.0938 16.0938M16.0938 9.90625C14.4088 8.22125 11.5925 8.22125 9.90625 9.90625M5.5 20.5L9.90625 16.0938M9.90625 16.0938C8.22125 14.4088 8.22125 11.5925 9.90625 9.90625M9.90625 16.0938C11.5912 17.7788 14.4075 17.7788 16.0938 16.0938M5.5 5.5L9.90625 9.90625M20.5 20.5L16.0938 16.0938" stroke="white" stroke-width="1.875" stroke-linecap="round" stroke-linejoin="round"/>
</svg>
