<svg width="20" height="24" viewBox="0 0 20 24" fill="none" xmlns="http://www.w3.org/2000/svg">
<path d="M11.8785 22.634C14.7109 20.1413 19.75 15.0485 19.75 10.375C19.75 7.78914 18.7228 5.30919 16.8943 3.48071C15.0658 1.65223 12.5859 0.625 10 0.625C7.41414 0.625 4.93419 1.65223 3.10571 3.48071C1.27723 5.30919 0.25 7.78914 0.25 10.375C0.25 15.0485 5.2875 20.1413 8.1215 22.634C8.63843 23.0954 9.3071 23.3504 10 23.3504C10.6929 23.3504 11.3616 23.0954 11.8785 22.634ZM6.75 10.375C6.75 9.51305 7.09241 8.6864 7.7019 8.0769C8.3114 7.46741 9.13805 7.125 10 7.125C10.862 7.125 11.6886 7.46741 12.2981 8.0769C12.9076 8.6864 13.25 9.51305 13.25 10.375C13.25 11.237 12.9076 12.0636 12.2981 12.6731C11.6886 13.2826 10.862 13.625 10 13.625C9.13805 13.625 8.3114 13.2826 7.7019 12.6731C7.09241 12.0636 6.75 11.237 6.75 10.375Z" fill="white" fill-opacity="0.34"/>
</svg>
