<svg width="22" height="18" viewBox="0 0 22 18" fill="none" xmlns="http://www.w3.org/2000/svg">
<path fill-rule="evenodd" clip-rule="evenodd" d="M3.41667 17.6668C2.55472 17.6668 1.72807 17.3244 1.11857 16.7149C0.509082 16.1054 0.166672 15.2788 0.166672 14.4168V3.5835C0.166672 2.72154 0.509082 1.89489 1.11857 1.2854C1.72807 0.675906 2.55472 0.333496 3.41667 0.333496H18.5833C19.4453 0.333496 20.2719 0.675906 20.8814 1.2854C21.4909 1.89489 21.8333 2.72154 21.8333 3.5835V14.4168C21.8333 15.2788 21.4909 16.1054 20.8814 16.7149C20.2719 17.3244 19.4453 17.6668 18.5833 17.6668H3.41667ZM6.26042 4.90516C6.15007 4.81093 6.02191 4.73983 5.88355 4.69608C5.74518 4.65233 5.59944 4.63683 5.45498 4.65049C5.31051 4.66415 5.17026 4.70669 5.04254 4.77559C4.91483 4.8445 4.80227 4.93835 4.71153 5.0516C4.62079 5.16484 4.55373 5.29516 4.51432 5.43482C4.47491 5.57448 4.46396 5.72063 4.48213 5.8646C4.50029 6.00857 4.54719 6.14743 4.62005 6.27293C4.69291 6.39842 4.79023 6.508 4.90626 6.59516L8.96876 9.84625C9.54518 10.3078 10.2616 10.5592 11 10.5592C11.7384 10.5592 12.4548 10.3078 13.0313 9.84625L17.0938 6.59625C17.2049 6.50733 17.2974 6.3974 17.366 6.27273C17.4346 6.14807 17.478 6.0111 17.4937 5.86966C17.5094 5.72823 17.4971 5.58508 17.4575 5.4484C17.4178 5.31172 17.3517 5.18419 17.2628 5.07308C17.1738 4.96197 17.0639 4.86946 16.9392 4.80084C16.8146 4.73221 16.6776 4.68881 16.5362 4.67312C16.3947 4.65743 16.2516 4.66975 16.1149 4.70938C15.9782 4.749 15.8507 4.81516 15.7396 4.90408L11.6771 8.15408C11.4849 8.30792 11.2461 8.39174 11 8.39174C10.7539 8.39174 10.5151 8.30792 10.3229 8.15408L6.26042 4.90516Z" fill="white" fill-opacity="0.34"/>
</svg>
