<svg width="21" height="21" viewBox="0 0 21 21" fill="none" xmlns="http://www.w3.org/2000/svg">
<path d="M1.25 8.32501C3.64982 13.551 7.91397 17.693 13.2075 19.94L14.0575 20.3188C14.9988 20.7379 16.0578 20.8114 17.048 20.5262C18.0381 20.2411 18.8958 19.6156 19.47 18.76L20.5813 17.105C20.7551 16.8455 20.8255 16.5302 20.7786 16.2213C20.7316 15.9125 20.5707 15.6324 20.3275 15.4363L16.5625 12.3988C16.4314 12.293 16.2803 12.2149 16.1182 12.1691C15.9561 12.1232 15.7865 12.1106 15.6194 12.132C15.4523 12.1533 15.2913 12.2083 15.146 12.2934C15.0007 12.3786 14.8741 12.4922 14.7738 12.6275L13.6088 14.1988C10.6183 12.7218 8.19766 10.3008 6.72125 7.31001L8.29125 6.14501C8.42656 6.04471 8.5402 5.9181 8.62536 5.77279C8.71051 5.62747 8.76542 5.46644 8.78678 5.29938C8.80815 5.13231 8.79553 4.96265 8.74968 4.80058C8.70384 4.63851 8.62572 4.48738 8.52 4.35626L5.4825 0.59126C5.28638 0.348077 5.00629 0.187152 4.69743 0.140186C4.38856 0.0932196 4.0733 0.163617 3.81375 0.33751L2.1475 1.45501C1.28675 2.03223 0.658866 2.89628 0.375694 3.89322C0.0925215 4.89016 0.172455 5.95525 0.601254 6.89876L1.25 8.32501Z" fill="white" fill-opacity="0.34"/>
</svg>
