<svg width="22" height="26" viewBox="0 0 22 26" fill="none" xmlns="http://www.w3.org/2000/svg">
<path d="M11 1.00012L11.3934 0.0801156C11.269 0.0269322 11.1352 -0.000488281 11 -0.000488281C10.8648 -0.000488281 10.731 0.0269322 10.6067 0.0801156L11 1.00012ZM11 25.0001L10.504 25.8681C10.6551 25.9544 10.826 25.9998 11 25.9998C11.174 25.9998 11.345 25.9544 11.496 25.8681L11 25.0001ZM10.6054 0.0814492L2.08269 3.73345L2.86669 5.57345L11.392 1.92012L10.6054 0.0814492ZM0.666687 5.87878V15.0254H2.66669V5.87878H0.666687ZM5.20135 22.8388L10.504 25.8681L11.496 24.1321L6.19335 21.1014L5.20135 22.8388ZM11.496 25.8681L16.7987 22.8388L15.8067 21.1014L10.504 24.1321L11.496 25.8681ZM21.3334 15.0241V5.88012H19.3334V15.0268L21.3334 15.0241ZM19.92 3.73478L11.3934 0.0814492L10.6067 1.91878L19.132 5.57345L19.92 3.73478ZM21.3334 5.88012C21.3334 4.94678 20.7774 4.10278 19.92 3.73478L19.132 5.57345C19.1919 5.59927 19.2429 5.64209 19.2787 5.69659C19.3145 5.7511 19.3335 5.81491 19.3334 5.88012H21.3334ZM16.7987 22.8388C18.1761 22.0517 19.321 20.9144 20.1174 19.5423C20.9137 18.1702 21.3332 16.6119 21.3334 15.0254H19.3334C19.3331 16.2592 19.0068 17.4709 18.3875 18.5379C17.7681 19.6049 16.8778 20.4893 15.8067 21.1014L16.7987 22.8388ZM0.666687 15.0254C0.666829 16.6119 1.08633 18.1702 1.88268 19.5423C2.67902 20.9144 3.82392 22.0517 5.20135 22.8388L6.19335 21.1014C5.12203 20.4892 4.23158 19.6046 3.61225 18.5373C2.99292 17.4701 2.66672 16.2581 2.66669 15.0241L0.666687 15.0254ZM2.08002 3.73345C1.66056 3.91341 1.3031 4.21245 1.05189 4.59354C0.800674 4.97462 0.666747 5.42235 0.666687 5.87878H2.66669C2.66669 5.74545 2.74669 5.62412 2.86935 5.57078L2.08002 3.73345Z" fill="white"/>
<path d="M15 10.3335L9.66667 15.6668L7 13.0002" stroke="white" stroke-width="2" stroke-linecap="round" stroke-linejoin="round"/>
</svg>
