<svg width="26" height="26" viewBox="0 0 26 26" fill="none" xmlns="http://www.w3.org/2000/svg">
<g opacity="0.2">
<path d="M3.25007 17.3333C2.67229 17.3333 2.16674 17.1167 1.7334 16.6833C1.30007 16.25 1.0834 15.7444 1.0834 15.1667V13C1.0834 12.8736 1.09677 12.7382 1.12349 12.5938C1.15021 12.4493 1.19102 12.3139 1.2459 12.1875L4.4959 4.55C4.6584 4.18889 4.92924 3.88194 5.3084 3.62917C5.68757 3.37639 6.08479 3.25 6.50007 3.25H15.1667C15.7626 3.25 16.2728 3.46197 16.6975 3.88592C17.1222 4.30986 17.3341 4.82011 17.3334 5.41667V16.4396C17.3334 16.7285 17.2749 17.004 17.1579 17.2662C17.0409 17.5283 16.8827 17.7584 16.6834 17.9563L10.8063 23.8063C10.5355 24.059 10.2152 24.2125 9.84541 24.2667C9.47563 24.3208 9.11885 24.2576 8.77507 24.0771C8.43202 23.8965 8.18393 23.6438 8.03082 23.3188C7.87771 22.9937 7.84593 22.6597 7.93549 22.3167L9.15424 17.3333H3.25007ZM21.6667 3.25C22.2626 3.25 22.7728 3.46233 23.1975 3.887C23.6222 4.31167 23.8341 4.82156 23.8334 5.41667V15.1667C23.8334 15.7625 23.6214 16.2728 23.1975 16.6974C22.7735 17.1221 22.2633 17.3341 21.6667 17.3333C21.0709 17.3333 20.561 17.1214 20.1371 16.6974C19.7131 16.2735 19.5008 15.7632 19.5001 15.1667V5.41667C19.5001 4.82083 19.7124 4.31094 20.1371 3.887C20.5617 3.46306 21.0716 3.25072 21.6667 3.25Z" fill="#2B2C31"/>
</g>
</svg>
