<svg width="1440" height="1043" viewBox="0 0 1440 1043" fill="none" xmlns="http://www.w3.org/2000/svg">
<g clip-path="url(#clip0_2012_8)">
<path fill-rule="evenodd" clip-rule="evenodd" d="M680.992 1287.71C487.545 1305.28 292.055 1299.44 135.195 1282.05C-13.9594 1265.52 -66.8815 1220.11 -182.307 1192.03C-289.158 1166.03 -437.31 1153.1 -523.18 1121.86C-617.177 1087.66 -723.937 1050.62 -705.181 1001.79C-686.416 952.929 -726.871 358.196 -629.114 310.258C-535.243 264.225 -462.122 217.48 -343.536 174.266C-210.046 125.622 111.012 58.0854 311.504 36.8669C518.38 14.9727 666.19 66.8228 869.526 63.3655C1064.58 60.049 1289.27 4.8429 1462.76 17.2925C1632.85 29.4986 1651.34 89.1201 1744.7 126.169C1834.28 161.717 1957.19 189.894 2005.55 232.693C2056.78 278.025 2103.26 880.938 2039.29 933.868C1975.52 986.64 1808.07 1032.53 1658.93 1077.13C1520.97 1118.39 1358.33 1150.97 1197.46 1185.61C1028.24 1222.05 873.867 1270.2 680.992 1287.71Z" fill="#D0EAF7"/>
</g>
<defs>
<clipPath id="clip0_2012_8">
<rect width="1440" height="1043" fill="white"/>
</clipPath>
</defs>
</svg>
