<svg width="55" height="60" viewBox="0 0 55 60" fill="none" xmlns="http://www.w3.org/2000/svg">
<path fill-rule="evenodd" clip-rule="evenodd" d="M36.2664 14.1201C36.7932 12.8883 37.0854 11.5291 37.0854 10.1005C37.0854 4.52214 32.6307 0 27.1356 0C21.6406 0 17.1859 4.52214 17.1859 10.1005C17.1859 11.5291 17.4781 12.8883 18.005 14.1201C16.1965 11.5929 13.2622 9.94974 9.94974 9.94974C4.45464 9.94974 0 14.4719 0 20.0503C0 25.0324 3.55329 29.172 8.22756 30C3.55329 30.828 0 34.9677 0 39.9498C0 45.528 4.45464 50.0502 9.94974 50.0502C13.2622 50.0502 16.1965 48.4071 18.005 45.8799C17.4781 47.1117 17.1859 48.471 17.1859 49.8996C17.1859 55.4778 21.6406 60 27.1356 60C32.6307 60 37.0854 55.4778 37.0854 49.8996C37.0854 48.471 36.7932 47.1117 36.2664 45.8799C38.0748 48.4071 41.0091 50.0502 44.3217 50.0502C49.8168 50.0502 54.2715 45.528 54.2715 39.9498C54.2715 34.9677 50.718 30.828 46.0437 30C50.718 29.172 54.2715 25.0324 54.2715 20.0503C54.2715 14.4719 49.8168 9.94974 44.3217 9.94974C41.0091 9.94974 38.0748 11.5929 36.2664 14.1201ZM35.1909 43.9695C34.6641 42.7377 34.3719 41.3784 34.3719 39.9498C34.3719 34.9677 37.9251 30.828 42.5994 30C37.9251 29.172 34.3719 25.0324 34.3719 20.0503C34.3719 18.6217 34.6641 17.2624 35.1909 16.0306C33.3825 18.5578 30.4482 20.201 27.1356 20.201C23.8233 20.201 20.8889 18.5578 19.0804 16.0306C19.6074 17.2624 19.8995 18.6217 19.8995 20.0503C19.8995 25.0324 16.3462 29.172 11.672 30C16.3462 30.828 19.8995 34.9677 19.8995 39.9498C19.8995 41.3784 19.6074 42.7377 19.0804 43.9695C20.8889 41.4423 23.8233 39.7989 27.1356 39.7989C30.4482 39.7989 33.3825 41.4423 35.1909 43.9695Z" fill="#E5EDF5"/>
</svg>
