<svg aria-hidden="true" xmlns="http://www.w3.org/2000/svg" xmlns:xlink="http://www.w3.org/1999/xlink"><symbol viewBox="0 0 126 33" fill="none" id="apple" xmlns="http://www.w3.org/2000/svg">
<path d="M20.5524 16.3909C20.518 12.7272 23.681 10.9448 23.8256 10.8618C22.0343 8.35755 19.2578 8.01539 18.2821 7.98811C15.9502 7.75281 13.6882 9.32605 12.5003 9.32605C11.2887 9.32605 9.45942 8.01085 7.48789 8.0495C4.95087 8.08701 2.57745 9.49543 1.27574 11.6825C-1.41066 16.1419 0.592876 22.6952 3.16665 26.2998C4.45413 28.0652 5.95856 30.0363 7.92772 29.967C9.8542 29.8908 10.5738 28.7893 12.8986 28.7893C15.2021 28.7893 15.8779 29.967 17.8861 29.9226C19.9537 29.8908 21.2554 28.1493 22.4978 26.368C23.9857 24.3446 24.5832 22.3519 24.6069 22.2496C24.5583 22.2337 20.5915 20.7821 20.5524 16.3909Z" fill="currentColor"/>
<path d="M16.7587 5.61688C17.7948 4.37442 18.5038 2.68409 18.307 0.96875C16.8073 1.03241 14.9318 1.9634 13.8518 3.17857C12.8963 4.24938 12.0427 6.0045 12.2632 7.65505C13.9478 7.77554 15.6775 6.84001 16.7587 5.61688Z" fill="currentColor"/>
<path fill-rule="evenodd" clip-rule="evenodd" d="M84.0895 20.2022C85.0249 19.3939 85.4908 18.347 85.4908 17.0602C85.4908 16.0144 85.1719 15.138 84.5329 14.4377C83.8916 13.7352 82.8945 13.1225 81.5371 12.5985C80.4274 12.179 79.6628 11.7903 79.2419 11.4311C78.7582 11.0423 78.5176 10.5478 78.5176 9.9499C78.5176 9.40995 78.7286 8.95412 79.1495 8.58013C79.6474 8.16181 80.3421 7.95151 81.2312 7.95151C82.3563 7.95151 83.3616 8.18341 84.2508 8.6472L84.8827 6.67154C83.9307 6.19298 82.738 5.95312 81.3024 5.95312C79.6924 5.95312 78.4049 6.34985 77.4399 7.14443C76.4714 7.93787 75.9877 8.95753 75.9877 10.2011C75.9877 12.104 77.3676 13.5511 80.1299 14.5389C81.1447 14.8993 81.8714 15.2892 82.3065 15.7086C82.744 16.1281 82.9621 16.6453 82.9621 17.2591C82.9621 17.948 82.6977 18.5005 82.1678 18.912C81.6355 19.3235 80.8945 19.5303 79.9426 19.5303C78.616 19.5303 77.3984 19.2075 76.2888 18.5641L75.7031 20.5841C76.7333 21.2127 78.0943 21.5265 79.792 21.5265C81.6308 21.5265 83.0617 21.0854 84.0895 20.2022ZM42.0255 21.2996H44.7178L39.6141 6.17188H36.4772L31.3984 21.2996H34.0196L35.4245 16.8561H40.5507L42.0255 21.2996ZM38.7724 11.0417L40.1061 14.9918H35.8702L37.1802 11.0417C37.524 9.78557 37.7742 8.83526 37.9295 8.19186H37.9769C38.367 9.68781 38.6313 10.6381 38.7724 11.0417ZM56.2151 20.1138C57.2607 19.0373 57.7836 17.5709 57.7836 15.7158C57.7836 14.055 57.3354 12.7159 56.4368 11.6974C55.5406 10.68 54.4202 10.1719 53.0782 10.1719C51.3616 10.1719 50.0824 10.8221 49.2395 12.1248H49.1921L49.051 10.3958H46.8281C46.8898 11.6235 46.9218 12.8205 46.9218 13.9868V25.7486H49.4493V20.0024H49.4967C50.1523 21.0346 51.2288 21.5506 52.7273 21.5506C54.1155 21.5506 55.2785 21.0721 56.2151 20.1138ZM54.4594 13.1786C54.9596 13.8674 55.2086 14.7427 55.2086 15.8044C55.2086 16.9571 54.943 17.8846 54.4119 18.5883C53.882 19.2908 53.141 19.6432 52.1891 19.6432C51.3782 19.6432 50.719 19.3704 50.2116 18.8236C49.7042 18.2768 49.4505 17.6073 49.4505 16.8138V14.9951C49.4505 14.8018 49.4896 14.5563 49.5679 14.2562C49.7232 13.6128 50.0551 13.0933 50.5625 12.6954C51.0687 12.301 51.6354 12.1009 52.259 12.1009C53.179 12.1009 53.9128 12.4601 54.4594 13.1786ZM70.8605 15.7158C70.8605 17.5709 70.3377 19.0373 69.2909 20.1138C68.3555 21.0721 67.1925 21.5506 65.8042 21.5506C64.3057 21.5506 63.2293 21.0346 62.5749 20.0024H62.5274V25.7486H59.9999V13.9868C59.9999 12.8205 59.9679 11.6235 59.9062 10.3958H62.1291L62.2702 12.1248H62.3176C63.1593 10.8221 64.4385 10.1719 66.1563 10.1719C67.4972 10.1719 68.6175 10.68 69.5161 11.6974C70.4112 12.7159 70.8605 14.055 70.8605 15.7158ZM68.2855 15.8044C68.2855 14.7427 68.0354 13.8674 67.5351 13.1786C66.9886 12.4601 66.2571 12.1009 65.336 12.1009C64.7112 12.1009 64.1457 12.301 63.6383 12.6954C63.1309 13.0933 62.8001 13.6128 62.6448 14.2562C62.5678 14.5563 62.5274 14.8018 62.5274 14.9951V16.8138C62.5274 17.6073 62.7811 18.2768 63.2862 18.8236C63.7936 19.3692 64.4527 19.6432 65.266 19.6432C66.218 19.6432 66.9589 19.2908 67.4889 18.5883C68.02 17.8846 68.2855 16.9571 68.2855 15.8044ZM93.8501 12.2086H91.0641V17.5047C91.0641 18.8517 91.5549 19.5247 92.5389 19.5247C92.9906 19.5247 93.3652 19.4871 93.6616 19.4121L93.7315 21.2525C93.2336 21.431 92.578 21.5208 91.7659 21.5208C90.7677 21.5208 89.9876 21.2286 89.4245 20.6455C88.8638 20.0612 88.5816 19.0813 88.5816 17.7047V12.2063H86.9219V10.3875H88.5816V8.39029L91.0641 7.67188V10.3875H93.8501V12.2086ZM104.918 19.8887C105.916 18.8122 106.416 17.4356 106.416 15.7589C106.416 14.1277 105.932 12.7966 104.963 11.7656C103.949 10.7027 102.606 10.1719 100.937 10.1719C99.2046 10.1719 97.8271 10.7107 96.8063 11.7883C95.7832 12.8648 95.2734 14.2494 95.2734 15.9397C95.2734 17.555 95.769 18.8952 96.7601 19.9569C97.7512 21.0186 99.0802 21.5495 100.749 21.5495C102.481 21.5495 103.871 20.997 104.918 19.8887ZM103.116 13.249C103.57 13.9686 103.794 14.8314 103.794 15.8374C103.794 16.8423 103.559 17.7141 103.093 18.4473C102.547 19.3317 101.789 19.775 100.824 19.775C99.8389 19.775 99.0754 19.3408 98.5289 18.4701C98.0748 17.7516 97.8508 16.8889 97.8508 15.8829C97.8508 14.8461 98.0748 13.9697 98.5289 13.249C99.0588 12.3794 99.8306 11.9441 100.847 11.9441C101.828 11.9441 102.586 12.3783 103.116 13.249ZM114.633 12.5272C114.383 12.4829 114.116 12.4601 113.837 12.4601C112.948 12.4601 112.26 12.7818 111.776 13.4264C111.355 13.9947 111.144 14.7131 111.144 15.5805V21.304H108.618L108.642 13.831C108.642 12.5738 108.61 11.4291 108.547 10.3969H110.748L110.841 12.484H110.911C111.178 11.7667 111.598 11.1893 112.175 10.7562C112.738 10.3663 113.346 10.1719 114.001 10.1719C114.235 10.1719 114.446 10.1878 114.633 10.2162V12.5272ZM125.854 16.4301C125.916 16.1311 125.946 15.7651 125.946 15.3308C125.946 13.9702 125.611 12.8243 124.943 11.8979C124.1 10.7316 122.859 10.1484 121.219 10.1484C119.55 10.1484 118.224 10.7316 117.242 11.8979C116.304 12.9903 115.836 14.3601 115.836 16.0049C115.836 17.6805 116.34 19.0161 117.345 20.0108C118.353 21.0054 119.737 21.5033 121.502 21.5033C122.968 21.5033 124.239 21.2794 125.315 20.8292L124.919 19.1469C123.998 19.4913 122.974 19.6629 121.851 19.6629C120.836 19.6629 120.01 19.4083 119.371 18.9002C118.667 18.3318 118.301 17.5077 118.271 16.4301H125.854ZM123.045 12.8391C123.388 13.3631 123.553 13.9838 123.536 14.7022V14.7011H118.271C118.348 13.969 118.598 13.3404 119.019 12.8164C119.532 12.1571 120.205 11.8285 121.031 11.8285C121.935 11.8285 122.608 12.165 123.045 12.8391Z" fill="currentColor"/>
</symbol><symbol viewBox="0 0 56 60" fill="none" id="fakel" xmlns="http://www.w3.org/2000/svg">
<g filter="url(#bfilter0_i_1_168)">
<path fill-rule="evenodd" clip-rule="evenodd" d="M45.553 26.4839C49.0374 26.4342 52.4404 27.7799 55.0007 30.3401C55.432 30.7714 55.608 31.3943 55.4684 31.9882C55.3288 32.5821 54.8915 33.0606 54.3134 33.2526C50.2105 34.6203 46.9879 36.7065 44.9665 40.943C42.0091 47.1456 34.9916 50.0969 28.9919 47.6654C28.1745 47.3334 27.4029 46.9195 26.6772 46.434L36.9798 37.5692C39.1368 35.7424 40.3889 33.1811 40.508 30.3537C40.7412 24.7062 35.7556 19.7255 30.1104 19.9611C27.2854 20.0775 24.7313 21.3225 22.9253 23.4564L14.1182 33.6921C11.4677 29.5289 11.1513 24.3237 13.5722 20.159C16.5101 15.1028 22.4905 12.6155 28.1125 14.1081C32.2275 15.2008 36.2181 11.8331 36.5716 7.61889L37.0805 1.58879C37.1375 0.905001 37.5858 0.341799 38.2282 0.107424C38.8719 -0.12824 39.5921 0.0309007 40.0767 0.51547L42.564 2.97922C48.9258 9.34096 49.9228 19.0681 45.553 26.4839ZM28.8839 8.47085C29.8553 8.47085 30.6427 7.68338 30.6427 6.71199C30.6427 5.74059 29.8553 4.95312 28.8839 4.95312C27.9125 4.95312 27.125 5.74059 27.125 6.71199C27.125 7.68338 27.9125 8.47085 28.8839 8.47085ZM51.2667 40.8068C52.2381 40.8068 53.0255 40.0193 53.0255 39.0479C53.0255 38.0765 52.2381 37.2891 51.2667 37.2891C50.2953 37.2891 49.5078 38.0765 49.5078 39.0479C49.5078 40.0193 50.2953 40.8068 51.2667 40.8068ZM49.299 45.2667C49.299 46.2381 48.5115 47.0255 47.5401 47.0255C46.5687 47.0255 45.7812 46.2381 45.7812 45.2667C45.7812 44.2953 46.5687 43.5078 47.5401 43.5078C48.5115 43.5078 49.299 44.2953 49.299 45.2667ZM21.4229 10.9552C22.3943 10.9552 23.1818 10.1678 23.1818 9.19636C23.1818 8.22497 22.3943 7.4375 21.4229 7.4375C20.4515 7.4375 19.6641 8.22497 19.6641 9.19636C19.6641 10.1678 20.4515 10.9552 21.4229 10.9552ZM23 38.0703L25.4078 42.8808L28.0589 40.5998L23 38.0703ZM19.7656 32.5229L21.8892 30.0547L33.5491 35.8843L30.954 38.1171L19.7656 32.5229ZM17.7524 35.444L17.396 35.2656L1.37283 53.6981C0.108026 55.1958 0.205643 57.4862 1.58904 58.8696C3.00642 60.287 5.22899 60.3792 6.77258 59.0761L22.658 45.2447L17.7524 35.444ZM25.5863 25.7498C26.762 24.3628 28.421 23.5515 30.2501 23.4738C33.9131 23.3232 37.1388 26.5515 36.9881 30.2096C36.9421 31.2989 36.6081 32.3111 36.0744 33.2148L24.25 27.3029L25.5863 25.7498Z" fill="currentColor"/>
</g>
<defs>
<filter id="bfilter0_i_1_168" x="0.484375" y="-7" width="55.031" height="66.9961" filterUnits="userSpaceOnUse" color-interpolation-filters="sRGB">
<feFlood flood-opacity="0" result="BackgroundImageFix"/>
<feBlend mode="normal" in="SourceGraphic" in2="BackgroundImageFix" result="shape"/>
<feColorMatrix in="SourceAlpha" type="matrix" values="0 0 0 0 0 0 0 0 0 0 0 0 0 0 0 0 0 0 127 0" result="hardAlpha"/>
<feOffset dy="-7"/>
<feGaussianBlur stdDeviation="4.5"/>
<feComposite in2="hardAlpha" operator="arithmetic" k2="-1" k3="1"/>
<feColorMatrix type="matrix" values="0 0 0 0 0.975 0 0 0 0 0.814287 0 0 0 0 0.625625 0 0 0 0.75 0"/>
<feBlend mode="normal" in2="shape" result="effect1_innerShadow_1_168"/>
</filter>
<linearGradient id="bpaint0_linear_1_168" x1="7.36326" y1="-4.5069e-07" x2="63.8399" y2="11.0817" gradientUnits="userSpaceOnUse">
<stop stop-color="#F9B58F"/>
<stop offset="0.315" stop-color="#F4954A"/>
<stop offset="0.665" stop-color="#F8B466"/>
<stop offset="1" stop-color="#ED8539"/>
</linearGradient>
</defs>
</symbol><symbol viewBox="0 0 41 55" fill="none" id="flash" xmlns="http://www.w3.org/2000/svg">
<path fill-rule="evenodd" clip-rule="evenodd" d="M40.1734 2.17156C40.4416 1.90344 40.5222 1.50031 40.3769 1.14969C40.2316 0.799062 39.8903 0.570312 39.5106 0.570312H14.2234C13.8531 0.570312 13.5184 0.787813 13.3675 1.12531L0.929693 28.9316C0.79938 29.2212 0.82563 29.5578 0.999067 29.8241C1.17157 30.0903 1.46782 30.2516 1.78563 30.2516H12.8725L3.36438 53.6553C3.19563 54.0706 3.34469 54.5478 3.71969 54.7925C4.09563 55.0381 4.59157 54.9837 4.90469 54.6622L36.5631 22.1525C36.8256 21.8834 36.9016 21.4831 36.7563 21.1362C36.61 20.7894 36.2716 20.5625 35.8956 20.5606L21.8275 20.4959L40.1734 2.17156Z" fill="currentColor"/>
<defs>
<linearGradient id="cpaint0_linear_1_152" x1="5.79774" y1="0.570312" x2="47.0032" y2="6.98992" gradientUnits="userSpaceOnUse">
<stop stop-color="#F9B58F"/>
<stop offset="0.315" stop-color="#F4954A"/>
<stop offset="0.665" stop-color="#F8B466"/>
<stop offset="1" stop-color="#ED8539"/>
</linearGradient>
</defs>
</symbol><symbol viewBox="0 0 123 24" fill="none" id="google" xmlns="http://www.w3.org/2000/svg">
<path d="M58.3192 7.56213C55.6241 7.56213 53.4905 9.69231 53.4905 12.6509C53.4905 15.4911 55.6241 17.7396 58.3192 17.7396C61.0142 17.7396 63.1478 15.6095 63.1478 12.6509C63.1478 9.57397 61.0142 7.56213 58.3192 7.56213ZM58.3192 15.6095C56.8593 15.6095 55.6241 14.3077 55.6241 12.5325C55.6241 10.7574 56.8593 9.45562 58.3192 9.45562C59.779 9.45562 61.0142 10.6391 61.0142 12.5325C61.0142 14.3077 59.779 15.6095 58.3192 15.6095ZM47.8759 7.56213C45.1809 7.56213 43.0473 9.69231 43.0473 12.6509C43.0473 15.4911 45.1809 17.7396 47.8759 17.7396C50.5709 17.7396 52.7045 15.6095 52.7045 12.6509C52.7045 9.57397 50.5709 7.56213 47.8759 7.56213ZM47.8759 15.6095C46.4161 15.6095 45.1809 14.3077 45.1809 12.5325C45.1809 10.7574 46.4161 9.45562 47.8759 9.45562C49.3357 9.45562 50.5709 10.6391 50.5709 12.5325C50.5709 14.3077 49.3357 15.6095 47.8759 15.6095ZM35.4114 9.10059V11.2308H40.24C40.1277 12.4142 39.6785 13.3609 39.117 13.9527C38.4433 14.6627 37.3203 15.4911 35.4114 15.4911C32.3794 15.4911 30.1336 13.0059 30.1336 9.81065C30.1336 6.61539 32.4917 4.13018 35.4114 4.13018C36.9835 4.13018 38.2187 4.84024 39.117 5.66864L40.5768 4.13018C39.3416 2.94674 37.7695 2 35.5236 2C31.4811 2 28 5.5503 28 9.81065C28 14.071 31.4811 17.6213 35.5236 17.6213C37.7695 17.6213 39.3416 16.9112 40.6891 15.3728C42.0366 13.9527 42.4858 11.9408 42.4858 10.4024C42.4858 9.92899 42.4858 9.45562 42.3735 9.10059H35.4114ZM86.3924 10.7574C85.9433 9.57396 84.8203 7.56213 82.3499 7.56213C79.8794 7.56213 77.8582 9.57397 77.8582 12.6509C77.8582 15.4911 79.8794 17.7396 82.5745 17.7396C84.708 17.7396 86.0556 16.3195 86.5047 15.4911L84.9326 14.3077C84.3712 15.1361 83.6974 15.7278 82.5745 15.7278C81.4515 15.7278 80.7778 15.2544 80.2163 14.1893L86.617 11.3491L86.3924 10.7574ZM79.8794 12.4142C79.8794 10.5207 81.3392 9.45562 82.3499 9.45562C83.1359 9.45562 83.922 9.92899 84.1466 10.5207L79.8794 12.4142ZM74.6017 17.2663H76.7352V2.47337H74.6017V17.2663ZM71.2329 8.62722C70.6714 8.0355 69.7731 7.44379 68.6501 7.44379C66.292 7.44379 64.0461 9.69231 64.0461 12.5325C64.0461 15.3728 66.1797 17.503 68.6501 17.503C69.7731 17.503 70.6714 16.9112 71.1206 16.3195H71.2329V17.0296C71.2329 18.9231 70.2222 19.9882 68.6501 19.9882C67.4149 19.9882 66.5165 19.0414 66.292 18.213L64.4953 19.0414C65.0567 20.3432 66.4043 22 68.7624 22C71.2329 22 73.2541 20.4615 73.2541 16.7929V7.79882H71.2329V8.62722ZM68.7624 15.6095C67.3026 15.6095 66.0674 14.3077 66.0674 12.5325C66.0674 10.7574 67.3026 9.45562 68.7624 9.45562C70.2222 9.45562 71.3452 10.7574 71.3452 12.5325C71.3452 14.3077 70.2222 15.6095 68.7624 15.6095ZM96.1619 2.47337H91.1088V17.2663H93.2423V11.7041H96.1619C98.5201 11.7041 100.766 9.92899 100.766 7.08876C100.766 4.24852 98.5201 2.47337 96.1619 2.47337ZM96.2742 9.57396H93.2423V4.48521H96.2742C97.8463 4.48521 98.7447 5.90532 98.7447 6.97041C98.6324 8.27219 97.734 9.57396 96.2742 9.57396ZM109.188 7.44379C107.616 7.44379 106.044 8.15385 105.482 9.69231L107.391 10.5207C107.84 9.69231 108.514 9.45562 109.3 9.45562C110.423 9.45562 111.434 10.1657 111.546 11.3491V11.4675C111.209 11.2308 110.311 10.8757 109.413 10.8757C107.391 10.8757 105.37 12.0592 105.37 14.1893C105.37 16.2012 107.054 17.503 108.851 17.503C110.311 17.503 110.985 16.7929 111.546 16.0828H111.658V17.2663H113.68V11.5858C113.455 8.98225 111.546 7.44379 109.188 7.44379ZM108.963 15.6095C108.29 15.6095 107.279 15.2544 107.279 14.3077C107.279 13.1243 108.514 12.7692 109.525 12.7692C110.423 12.7692 110.872 13.0059 111.434 13.2426C111.209 14.6627 110.086 15.6095 108.963 15.6095ZM120.754 7.79882L118.396 14.1893H118.284L115.813 7.79882H113.567L117.273 16.7929L115.139 21.7633H117.273L123 7.79882H120.754ZM101.889 17.2663H104.022V2.47337H101.889V17.2663Z" fill="currentColor"/>
<path d="M1.00088 1.2712C1.00088 0.525251 1.6972 0.112112 2.04448 0L14.1816 12.041L2.01539 24C1.58702 23.977 1.15954 23.1614 1 22.7553V1.27208L1.00088 1.2712ZM18.0765 8.14095L4.78215 0.677972L15.2534 10.9958L18.0765 8.14095ZM20.7102 9.75908L19.3749 8.96017L16.326 12.041L19.4277 15.0248L20.6423 14.3469C22.4219 13.3537 22.4598 10.8034 20.7102 9.75908ZM18.0765 15.8273L15.2542 13.066L4.78303 23.4174L18.0765 15.8273Z" fill="currentColor"/>
</symbol><symbol viewBox="0 0 25 25" fill="none" id="location" xmlns="http://www.w3.org/2000/svg">
<path d="M12.4826 0C7.43046 0 3.32031 4.11015 3.32031 9.16233C3.32031 11.4832 4.78268 14.7623 7.66697 18.9087C9.77516 21.9397 11.8486 24.2851 11.936 24.3835L12.4826 25L13.0295 24.3835C13.1166 24.2851 15.1901 21.9397 17.2985 18.9087C20.1826 14.7623 21.6452 11.4832 21.6452 9.16233C21.6452 4.11015 17.5348 0 12.4826 0ZM16.1066 18.0622C14.6816 20.1122 13.2414 21.8765 12.4826 22.7766C11.7258 21.879 10.2909 20.1214 8.86688 18.074C6.1945 14.2323 4.78191 11.1506 4.78191 9.16233C4.78191 4.91619 8.2365 1.4616 12.4826 1.4616C16.729 1.4616 20.1834 4.91619 20.1834 9.16233C20.1834 11.1485 18.7737 14.226 16.1066 18.0622Z" fill="currentColor"/>
<path d="M12.4827 3.38623C9.50096 3.38623 7.0752 5.812 7.0752 8.79375C7.0752 11.7755 9.50096 14.2015 12.4827 14.2015C15.4647 14.2015 17.8904 11.7755 17.8904 8.79375C17.8904 5.812 15.4647 3.38623 12.4827 3.38623ZM12.4827 12.7399C10.307 12.7399 8.5368 10.9697 8.5368 8.79375C8.5368 6.61804 10.307 4.84783 12.4827 4.84783C14.6586 4.84783 16.4288 6.61804 16.4288 8.79375C16.4288 10.9697 14.6586 12.7399 12.4827 12.7399Z" fill="currentColor"/>
</symbol><symbol viewBox="0 0 60 60" fill="none" id="logo" xmlns="http://www.w3.org/2000/svg">
<mask id="fpath-1-inside-1_1_86" fill="currentColor">
<path fill-rule="evenodd" clip-rule="evenodd" d="M0.385848 25.2095C2.24009 13.3019 11.6761 3.61605 23.6316 1.3486C41.1234 -1.96942 57.3375 8.90754 59.6904 25.5369C60.3509 30.2047 59.8933 36.836 58.8902 37.1341C58.5359 37.2395 57.4543 37.5007 56.4864 37.715C52.5872 38.5782 47.9807 45.7723 47.9807 50.9982C47.9807 53.6961 46.9536 54.9926 43.678 56.4262C34.5775 60.41 23.1365 60.1629 15.1247 55.8095C12.3976 54.328 12.3489 54.2512 11.9899 50.819C11.2491 43.7467 7.53355 38.4019 2.83666 37.6524L0.544816 37.2864L0.128918 33.4085C-0.113934 31.1475 -0.0065866 27.7288 0.385848 25.2095ZM8.34951 19.5626C11.3652 13.4149 18.0741 7.91729 24.3678 6.43689C28.0956 5.55966 33.0424 5.74822 36.7819 6.91064C46.7113 9.99559 52.9914 17.8432 53.6918 28.0403C54 32.5019 53.5 33.5019 53.5 33.5019C53.5 33.5019 53.4284 33.6035 52.7685 36.0677C51.7508 39.8665 49.5663 43.3198 46.1828 46.4791C34.5018 57.3866 15.699 53.7986 8.54778 39.2967C6.74516 35.6408 6.6255 35.0154 6.6255 29.2373C6.6255 23.6079 6.77449 22.7728 8.34951 19.5626ZM21.3051 17.869C18.3311 15.9236 19.1095 11.575 22.7575 9.75491C27.0555 7.61044 36.5373 8.94151 41.6771 12.41C51.986 19.367 53.7176 35.7064 45.0418 44.1631L42.8638 46.2865L42.4813 43.8972C42.2297 42.3255 41.365 40.6981 39.956 39.1404C37.4108 36.3283 37.0911 33.7253 39.092 32.1079C39.7953 31.5393 40.664 30.9765 41.023 30.8571C42.2262 30.4565 40.9257 27.0296 38.5453 24.3299C35.976 21.416 33.3855 20.3274 26.659 19.3359C24.4499 19.0103 22.0407 18.3504 21.3051 17.869ZM9.60835 28.3466C9.606 23.4445 11.1822 19.2873 14.3973 15.7175L17.1004 12.7163L17.7937 15.4417C18.2067 17.0667 19.2696 18.9729 20.4264 20.1646C22.7828 22.5919 23.0514 25.3395 21.0869 26.9277C20.3836 27.4963 19.5148 28.0591 19.1558 28.1785C17.9691 28.5732 19.2802 32.1969 21.4981 34.6506C24.1143 37.5452 26.2924 38.4962 32.6581 39.5251C38.208 40.4217 40.0381 41.354 40.5942 43.5669C41.9622 49.0078 34.2736 51.8479 24.7866 49.4071C15.5306 47.0255 9.61304 38.8148 9.60835 28.3466ZM23.9302 29.1957C23.9302 27.8658 24.5074 26.7748 25.9997 25.2851C27.8703 23.4176 28.3015 23.2501 30.4889 23.5429C33.6348 23.9645 35.6521 25.9784 36.0745 29.119C36.3678 31.3027 36.2 31.7331 34.3294 33.6006C32.8646 35.0628 31.736 35.6666 30.469 35.6666C26.5423 35.6666 23.9302 33.0818 23.9302 29.1957Z"/>
</mask>
<path fill-rule="evenodd" clip-rule="evenodd" d="M0.385848 25.2095C2.24009 13.3019 11.6761 3.61605 23.6316 1.3486C41.1234 -1.96942 57.3375 8.90754 59.6904 25.5369C60.3509 30.2047 59.8933 36.836 58.8902 37.1341C58.5359 37.2395 57.4543 37.5007 56.4864 37.715C52.5872 38.5782 47.9807 45.7723 47.9807 50.9982C47.9807 53.6961 46.9536 54.9926 43.678 56.4262C34.5775 60.41 23.1365 60.1629 15.1247 55.8095C12.3976 54.328 12.3489 54.2512 11.9899 50.819C11.2491 43.7467 7.53355 38.4019 2.83666 37.6524L0.544816 37.2864L0.128918 33.4085C-0.113934 31.1475 -0.0065866 27.7288 0.385848 25.2095ZM8.34951 19.5626C11.3652 13.4149 18.0741 7.91729 24.3678 6.43689C28.0956 5.55966 33.0424 5.74822 36.7819 6.91064C46.7113 9.99559 52.9914 17.8432 53.6918 28.0403C54 32.5019 53.5 33.5019 53.5 33.5019C53.5 33.5019 53.4284 33.6035 52.7685 36.0677C51.7508 39.8665 49.5663 43.3198 46.1828 46.4791C34.5018 57.3866 15.699 53.7986 8.54778 39.2967C6.74516 35.6408 6.6255 35.0154 6.6255 29.2373C6.6255 23.6079 6.77449 22.7728 8.34951 19.5626ZM21.3051 17.869C18.3311 15.9236 19.1095 11.575 22.7575 9.75491C27.0555 7.61044 36.5373 8.94151 41.6771 12.41C51.986 19.367 53.7176 35.7064 45.0418 44.1631L42.8638 46.2865L42.4813 43.8972C42.2297 42.3255 41.365 40.6981 39.956 39.1404C37.4108 36.3283 37.0911 33.7253 39.092 32.1079C39.7953 31.5393 40.664 30.9765 41.023 30.8571C42.2262 30.4565 40.9257 27.0296 38.5453 24.3299C35.976 21.416 33.3855 20.3274 26.659 19.3359C24.4499 19.0103 22.0407 18.3504 21.3051 17.869ZM9.60835 28.3466C9.606 23.4445 11.1822 19.2873 14.3973 15.7175L17.1004 12.7163L17.7937 15.4417C18.2067 17.0667 19.2696 18.9729 20.4264 20.1646C22.7828 22.5919 23.0514 25.3395 21.0869 26.9277C20.3836 27.4963 19.5148 28.0591 19.1558 28.1785C17.9691 28.5732 19.2802 32.1969 21.4981 34.6506C24.1143 37.5452 26.2924 38.4962 32.6581 39.5251C38.208 40.4217 40.0381 41.354 40.5942 43.5669C41.9622 49.0078 34.2736 51.8479 24.7866 49.4071C15.5306 47.0255 9.61304 38.8148 9.60835 28.3466ZM23.9302 29.1957C23.9302 27.8658 24.5074 26.7748 25.9997 25.2851C27.8703 23.4176 28.3015 23.2501 30.4889 23.5429C33.6348 23.9645 35.6521 25.9784 36.0745 29.119C36.3678 31.3027 36.2 31.7331 34.3294 33.6006C32.8646 35.0628 31.736 35.6666 30.469 35.6666C26.5423 35.6666 23.9302 33.0818 23.9302 29.1957Z" fill="currentColor"/>
<path d="M23.6316 1.3486L23.7247 1.83984L23.7248 1.83984L23.6316 1.3486ZM0.385848 25.2095L0.87989 25.2865L0.879894 25.2864L0.385848 25.2095ZM59.6904 25.5369L59.1953 25.6069V25.6069L59.6904 25.5369ZM58.8902 37.1341L58.7478 36.6548L58.7477 36.6549L58.8902 37.1341ZM56.4864 37.715L56.5944 38.2032L56.5945 38.2032L56.4864 37.715ZM43.678 56.4262L43.4775 55.9681L43.4775 55.9681L43.678 56.4262ZM15.1247 55.8095L15.3634 55.3702L15.3634 55.3702L15.1247 55.8095ZM11.9899 50.819L12.4872 50.767L12.4872 50.7669L11.9899 50.819ZM2.83666 37.6524L2.75781 38.1461L2.75786 38.1461L2.83666 37.6524ZM0.544816 37.2864L0.0476673 37.3397L0.0884365 37.7198L0.465967 37.7801L0.544816 37.2864ZM0.128918 33.4085L0.626067 33.3552L0.626058 33.3551L0.128918 33.4085ZM24.3678 6.43689L24.4822 6.92361L24.4823 6.9236L24.3678 6.43689ZM8.34951 19.5626L8.79839 19.7828L8.79841 19.7828L8.34951 19.5626ZM36.7819 6.91064L36.6335 7.38811L36.6336 7.38813L36.7819 6.91064ZM53.6918 28.0403L53.193 28.0746L53.193 28.0748L53.6918 28.0403ZM53.5 33.5019L53.9088 33.7898L53.9304 33.7591L53.9472 33.7255L53.5 33.5019ZM52.7685 36.0677L53.2515 36.1971L53.2515 36.1971L52.7685 36.0677ZM46.1828 46.4791L45.8415 46.1137L45.8415 46.1137L46.1828 46.4791ZM8.54778 39.2967L8.09933 39.5179L8.09934 39.5179L8.54778 39.2967ZM22.7575 9.75491L22.9808 10.2023L22.9808 10.2023L22.7575 9.75491ZM21.3051 17.869L21.5789 17.4506L21.5788 17.4506L21.3051 17.869ZM41.6771 12.41L41.9568 11.9956L41.9568 11.9956L41.6771 12.41ZM45.0418 44.1631L44.6928 43.805L44.6928 43.8051L45.0418 44.1631ZM42.8638 46.2865L42.3701 46.3655L42.5225 47.3175L43.2128 46.6445L42.8638 46.2865ZM42.4813 43.8972L42.975 43.8182V43.8182L42.4813 43.8972ZM39.956 39.1404L40.3268 38.805L40.3267 38.8049L39.956 39.1404ZM39.092 32.1079L39.4063 32.4967L39.4063 32.4967L39.092 32.1079ZM41.023 30.8571L41.1809 31.3315L41.181 31.3315L41.023 30.8571ZM38.5453 24.3299L38.1702 24.6606L38.1702 24.6606L38.5453 24.3299ZM26.659 19.3359L26.7319 18.8413L26.659 19.3359ZM14.3973 15.7175L14.0258 15.3829L14.0258 15.3829L14.3973 15.7175ZM9.60835 28.3466L10.1083 28.3464V28.3463L9.60835 28.3466ZM17.1004 12.7163L17.5849 12.593L17.3545 11.6871L16.7289 12.3817L17.1004 12.7163ZM17.7937 15.4417L18.2783 15.3185L18.2783 15.3184L17.7937 15.4417ZM20.4264 20.1646L20.0676 20.5128L20.0676 20.5128L20.4264 20.1646ZM21.0869 26.9277L20.7726 26.5388L20.7726 26.5388L21.0869 26.9277ZM19.1558 28.1785L19.3136 28.653L19.3137 28.6529L19.1558 28.1785ZM21.4981 34.6506L21.8691 34.3153L21.869 34.3153L21.4981 34.6506ZM32.6581 39.5251L32.5784 40.0187L32.5784 40.0187L32.6581 39.5251ZM40.5942 43.5669L40.1093 43.6888L40.1093 43.6889L40.5942 43.5669ZM24.7866 49.4071L24.662 49.8914L24.662 49.8914L24.7866 49.4071ZM25.9997 25.2851L26.3529 25.6389L25.9997 25.2851ZM30.4889 23.5429L30.5553 23.0473L30.5552 23.0473L30.4889 23.5429ZM36.0745 29.119L36.5701 29.0524L36.57 29.0523L36.0745 29.119ZM34.3294 33.6006L34.6826 33.9545L34.3294 33.6006ZM23.5384 0.857356C11.3779 3.1637 1.77901 13.0132 -0.108198 25.1326L0.879894 25.2864C2.70116 13.5906 11.9743 4.0684 23.7247 1.83984L23.5384 0.857356ZM60.1854 25.4668C57.7885 8.52621 41.2811 -2.50827 23.5384 0.857359L23.7248 1.83984C40.9656 -1.43057 56.8865 9.28888 59.1953 25.6069L60.1854 25.4668ZM59.0327 37.6134C59.3765 37.5112 59.5743 37.1952 59.6888 36.9616C59.8195 36.6945 59.9274 36.3519 60.018 35.9674C60.2004 35.1937 60.3335 34.161 60.413 33.0086C60.5721 30.7015 60.5214 27.8411 60.1854 25.4668L59.1953 25.6069C59.5198 27.9005 59.5706 30.6897 59.4153 32.9397C59.3376 34.0659 59.2095 35.0386 59.0447 35.738C58.9617 36.0901 58.8743 36.3509 58.7907 36.5218C58.6906 36.726 58.6547 36.6825 58.7478 36.6548L59.0327 37.6134ZM56.5945 38.2032C57.5607 37.9892 58.659 37.7246 59.0328 37.6134L58.7477 36.6549C58.4129 36.7545 57.3478 37.0122 56.3783 37.2269L56.5945 38.2032ZM48.4807 50.9982C48.4807 48.5118 49.5852 45.5002 51.1924 42.9902C51.9926 41.7407 52.9057 40.634 53.8459 39.7923C54.7912 38.946 55.7348 38.3935 56.5944 38.2032L56.3783 37.2269C55.2884 37.4681 54.194 38.1386 53.1789 39.0473C52.1587 39.9606 51.1892 41.1409 50.3503 42.451C48.6794 45.0603 47.4807 48.2587 47.4807 50.9982H48.4807ZM43.8785 56.8842C45.536 56.1588 46.705 55.4362 47.4495 54.4969C48.21 53.5375 48.4807 52.4136 48.4807 50.9982H47.4807C47.4807 52.2807 47.2378 53.1541 46.6658 53.8757C46.0778 54.6176 45.0955 55.26 43.4775 55.9681L43.8785 56.8842ZM14.886 56.2489C23.0468 60.6832 34.6511 60.9236 43.8785 56.8842L43.4775 55.9681C34.5039 59.8964 23.2262 59.6426 15.3634 55.3702L14.886 56.2489ZM11.4927 50.871C11.5817 51.7228 11.6541 52.394 11.7565 52.9319C11.8598 53.4747 12.0002 53.9207 12.2459 54.3118C12.4938 54.7064 12.8256 55.0081 13.2527 55.3001C13.6718 55.5867 14.2109 55.8821 14.886 56.2489L15.3634 55.3702C14.675 54.9962 14.1854 54.7264 13.8171 54.4746C13.4569 54.2283 13.2427 54.0186 13.0927 53.7798C12.9405 53.5375 12.8309 53.2282 12.7389 52.7449C12.646 52.2568 12.5776 51.6314 12.4872 50.767L11.4927 50.871ZM2.75786 38.1461C4.93725 38.4939 6.93262 39.9152 8.48626 42.1501C10.0391 44.3838 11.1295 47.4044 11.4927 50.8711L12.4872 50.7669C12.1095 47.1614 10.9717 43.9734 9.30735 41.5793C7.64379 39.1863 5.43296 37.5604 2.91545 37.1586L2.75786 38.1461ZM0.465967 37.7801L2.75781 38.1461L2.91551 37.1586L0.623666 36.7926L0.465967 37.7801ZM-0.368231 33.4618L0.0476673 37.3397L1.04197 37.2331L0.626067 33.3552L-0.368231 33.4618ZM-0.108194 25.1326C-0.50654 27.6898 -0.616265 31.1526 -0.368223 33.4619L0.626058 33.3551C0.388397 31.1424 0.493367 27.7678 0.87989 25.2865L-0.108194 25.1326ZM24.2533 5.95017C17.8043 7.46712 10.9778 13.0694 7.90061 19.3424L8.79841 19.7828C11.7526 13.7604 18.344 8.36746 24.4822 6.92361L24.2533 5.95017ZM36.9304 6.43318C33.1075 5.24488 28.07 5.05203 24.2532 5.95018L24.4823 6.9236C28.1212 6.06729 32.9772 6.25157 36.6335 7.38811L36.9304 6.43318ZM54.1906 28.0061C53.4758 17.5984 47.0522 9.57794 36.9303 6.43316L36.6336 7.38813C46.3704 10.4132 52.507 18.0881 53.193 28.0746L54.1906 28.0061ZM53.5 33.5019C53.9472 33.7255 53.9474 33.7251 53.9477 33.7246C53.9477 33.7244 53.948 33.724 53.9481 33.7237C53.9484 33.7231 53.9487 33.7224 53.949 33.7218C53.9497 33.7205 53.9503 33.7191 53.951 33.7177C53.9524 33.7149 53.9538 33.7118 53.9553 33.7085C53.9584 33.7019 53.9618 33.6943 53.9655 33.6857C53.9728 33.6684 53.9814 33.6469 53.9909 33.6206C54.01 33.5681 54.0329 33.4962 54.0575 33.4005C54.1067 33.2095 54.1633 32.9207 54.2086 32.4974C54.2991 31.6521 54.346 30.2558 54.1906 28.0059L53.193 28.0748C53.3458 30.2864 53.2968 31.6209 53.2143 32.391C53.1731 32.7754 53.124 33.0155 53.0891 33.1513C53.0716 33.2191 53.0579 33.2602 53.0508 33.2798C53.0473 33.2896 53.0454 33.2939 53.0456 33.2935C53.0457 33.2933 53.0463 33.2918 53.0475 33.2893C53.0481 33.288 53.0488 33.2864 53.0497 33.2846C53.0501 33.2837 53.0506 33.2827 53.0511 33.2816C53.0514 33.2811 53.0516 33.2806 53.0519 33.28C53.0521 33.2797 53.0523 33.2793 53.0523 33.2792C53.0526 33.2787 53.0528 33.2783 53.5 33.5019ZM53.2515 36.1971C53.581 34.9666 53.7623 34.3309 53.8605 34.0049C53.9097 33.8413 53.9367 33.7603 53.9498 33.7233C53.9564 33.7045 53.9579 33.7018 53.9554 33.7076C53.9541 33.7107 53.9504 33.7191 53.9446 33.7305C53.9416 33.7364 53.9374 33.7443 53.932 33.7536C53.9293 33.7583 53.926 33.7637 53.9223 33.7696C53.9204 33.7726 53.9183 33.7758 53.9161 33.7791C53.915 33.7808 53.9138 33.7825 53.9126 33.7843C53.912 33.7852 53.9111 33.7865 53.9108 33.787C53.9098 33.7884 53.9088 33.7898 53.5 33.5019C53.0912 33.214 53.0902 33.2154 53.0892 33.2168C53.0889 33.2173 53.088 33.2186 53.0874 33.2195C53.0861 33.2213 53.085 33.223 53.0838 33.2247C53.0816 33.2281 53.0795 33.2313 53.0776 33.2343C53.0738 33.2404 53.0704 33.2459 53.0675 33.2509C53.0618 33.2607 53.0571 33.2696 53.0534 33.2768C53.0463 33.2909 53.0404 33.3039 53.0359 33.3145C53.0269 33.3356 53.0176 33.36 53.0072 33.3893C52.9863 33.4483 52.9541 33.5467 52.9029 33.7166C52.8003 34.0574 52.6159 34.7047 52.2855 35.9384L53.2515 36.1971ZM46.524 46.8446C49.9636 43.6329 52.2055 40.1013 53.2515 36.1971L52.2855 35.9383C51.296 39.6318 49.1689 43.0068 45.8415 46.1137L46.524 46.8446ZM8.09934 39.5179C15.395 54.3125 34.5917 57.9868 46.524 46.8446L45.8415 46.1137C34.412 56.7863 16.003 53.2846 8.99622 39.0756L8.09934 39.5179ZM6.1255 29.2373C6.1255 32.1135 6.15365 33.7653 6.41954 35.1567C6.68886 36.5659 7.19841 37.6907 8.09933 39.5179L8.99623 39.0756C8.09453 37.2469 7.64294 36.231 7.40177 34.969C7.15718 33.6891 7.1255 32.1392 7.1255 29.2373H6.1255ZM7.90062 19.3423C7.10918 20.9555 6.65164 22.019 6.40463 23.405C6.16133 24.7702 6.1255 26.4322 6.1255 29.2373H7.1255C7.1255 26.4129 7.16416 24.8427 7.38911 23.5805C7.61035 22.3391 8.01482 21.3799 8.79839 19.7828L7.90062 19.3423ZM22.5343 9.3075C20.5813 10.2819 19.3649 11.9503 19.0559 13.6769C18.7447 15.415 19.3625 17.1958 21.0314 18.2874L21.5788 17.4506C20.2737 16.5969 19.7936 15.2306 20.0402 13.8531C20.2889 12.4639 21.2857 11.048 22.9808 10.2023L22.5343 9.3075ZM41.9568 11.9956C39.3058 10.2066 35.5716 8.98777 31.9712 8.48245C28.3866 7.97935 24.8191 8.16752 22.5343 9.30751L22.9808 10.2023C24.994 9.19783 28.3164 8.97929 31.8322 9.47274C35.3321 9.96396 38.9086 11.1449 41.3974 12.8245L41.9568 11.9956ZM45.3908 44.5211C49.8585 40.1663 51.6259 33.8052 50.9759 27.6715C50.3259 21.5372 47.2523 15.5692 41.9568 11.9956L41.3974 12.8245C46.4108 16.2077 49.3575 21.888 49.9815 27.7768C50.6056 33.6663 48.9009 39.7033 44.6928 43.805L45.3908 44.5211ZM43.2128 46.6445L45.3909 44.5211L44.6928 43.8051L42.5148 45.9285L43.2128 46.6445ZM41.9876 43.9763L42.3701 46.3655L43.3575 46.2074L42.975 43.8182L41.9876 43.9763ZM39.5852 39.4758C40.9498 40.9844 41.7555 42.5263 41.9876 43.9763L42.975 43.8182C42.7039 42.1246 41.7803 40.4118 40.3268 38.805L39.5852 39.4758ZM38.7776 31.7191C37.6461 32.6337 37.1534 33.8574 37.3229 35.2371C37.4883 36.5834 38.2763 38.0297 39.5853 39.4759L40.3267 38.8049C39.0905 37.439 38.446 36.1777 38.3155 35.1152C38.189 34.086 38.5369 33.1995 39.4063 32.4967L38.7776 31.7191ZM40.8652 30.3826C40.6184 30.4647 40.2634 30.6686 39.9148 30.8944C39.5506 31.1303 39.1433 31.4234 38.7776 31.7191L39.4063 32.4967C39.7439 32.2238 40.1227 31.9512 40.4585 31.7337C40.8098 31.5061 41.0687 31.3688 41.1809 31.3315L40.8652 30.3826ZM38.1702 24.6606C39.3261 25.9715 40.2123 27.4522 40.6605 28.6331C40.8868 29.2294 40.9862 29.7096 40.9783 30.0358C40.9704 30.3671 40.8704 30.3809 40.8651 30.3827L41.181 31.3315C41.7772 31.1329 41.9659 30.5682 41.9781 30.0598C41.9904 29.5466 41.8414 28.9262 41.5954 28.2782C41.0991 26.9706 40.1449 25.388 38.9203 23.9993L38.1702 24.6606ZM26.5861 19.8306C29.941 20.3251 32.2185 20.8381 33.9674 21.573C35.6976 22.2999 36.9278 23.2515 38.1702 24.6606L38.9203 23.9993C37.5934 22.4944 36.2438 21.4447 34.3548 20.651C32.4846 19.8652 30.1036 19.3382 26.7319 18.8413L26.5861 19.8306ZM21.0313 18.2874C21.4731 18.5765 22.3314 18.8785 23.2974 19.1431C24.287 19.4143 25.4614 19.6648 26.5861 19.8306L26.7319 18.8413C25.6475 18.6814 24.5127 18.4392 23.5616 18.1786C22.5868 17.9116 21.8727 17.6429 21.5789 17.4506L21.0313 18.2874ZM14.0258 15.3829C10.726 19.0467 9.10594 23.3239 9.10835 28.3468L10.1083 28.3463C10.1061 23.5651 11.6383 19.528 14.7689 16.0521L14.0258 15.3829ZM16.7289 12.3817L14.0258 15.3829L14.7689 16.0521L17.4719 13.0509L16.7289 12.3817ZM18.2783 15.3184L17.5849 12.593L16.6158 12.8396L17.3092 15.565L18.2783 15.3184ZM20.7852 19.8163C19.6898 18.6879 18.67 16.8596 18.2783 15.3185L17.3091 15.5648C17.7435 17.2739 18.8494 19.2578 20.0676 20.5128L20.7852 19.8163ZM21.4012 27.3165C22.5173 26.4143 23.0067 25.1645 22.8746 23.8122C22.7444 22.4795 22.0173 21.0856 20.7852 19.8163L20.0676 20.5128C21.1918 21.6709 21.7773 22.8644 21.8794 23.9094C21.9795 24.9348 21.621 25.8529 20.7726 26.5388L21.4012 27.3165ZM19.3137 28.6529C19.5605 28.5708 19.9154 28.367 20.2641 28.1412C20.6283 27.9053 21.0355 27.6122 21.4013 27.3165L20.7726 26.5388C20.435 26.8118 20.0562 27.0844 19.7204 27.3019C19.3691 27.5294 19.1102 27.6667 18.998 27.7041L19.3137 28.6529ZM21.869 34.3153C20.803 33.136 19.9547 31.6726 19.5204 30.4723C19.3015 29.8673 19.2017 29.3673 19.2092 29.022C19.2128 28.8503 19.2425 28.7499 19.2687 28.6993C19.2885 28.6611 19.3013 28.6571 19.3136 28.653L18.998 27.7041C18.3929 27.9053 18.2202 28.4979 18.2094 29.0005C18.1982 29.5223 18.3423 30.1556 18.5801 30.8126C19.0591 32.1362 19.9753 33.7115 21.1272 34.9859L21.869 34.3153ZM32.7379 39.0315C29.5604 38.518 27.4778 38.0306 25.8722 37.3293C24.2862 36.6366 23.1431 35.725 21.8691 34.3153L21.1272 34.9858C22.4693 36.4708 23.7234 37.482 25.4719 38.2457C27.2008 39.0008 29.3901 39.5034 32.5784 40.0187L32.7379 39.0315ZM41.0792 43.4451C40.9257 42.8345 40.6785 42.2913 40.2875 41.8119C39.8977 41.3339 39.3833 40.9417 38.7258 40.6068C37.4285 39.9461 35.5137 39.48 32.7379 39.0315L32.5784 40.0187C35.3524 40.4669 37.1276 40.9151 38.2719 41.4979C38.8352 41.7848 39.2294 42.0967 39.5126 42.4439C39.7946 42.7897 39.9847 43.1929 40.1093 43.6888L41.0792 43.4451ZM24.662 49.8914C29.4698 51.1283 33.8733 51.0425 36.9343 49.9117C38.4665 49.3456 39.6961 48.5044 40.4487 47.3996C41.2109 46.2808 41.4537 44.9348 41.0791 43.445L40.1093 43.6889C40.4187 44.9195 40.2135 45.9688 39.6223 46.8365C39.0216 47.7182 37.9925 48.4547 36.5878 48.9736C33.7747 50.0129 29.5904 50.1268 24.9112 48.9229L24.662 49.8914ZM9.10835 28.3468C9.11313 39.0127 15.1571 47.4457 24.662 49.8914L24.9112 48.9229C15.9042 46.6053 10.113 38.6169 10.1083 28.3464L9.10835 28.3468ZM25.6464 24.9312C24.1133 26.4617 23.4302 27.6732 23.4302 29.1957H24.4302C24.4302 28.0584 24.9014 27.0879 26.3529 25.6389L25.6464 24.9312ZM30.5552 23.0473C29.4677 22.9017 28.6932 22.8472 27.9446 23.1377C27.2154 23.4208 26.5685 24.0107 25.6464 24.9312L26.3529 25.6389C27.3015 24.6919 27.8055 24.2644 28.3064 24.07C28.7879 23.8831 29.3227 23.8913 30.4226 24.0385L30.5552 23.0473ZM36.57 29.0523C36.3465 27.3898 35.6953 25.9947 34.6563 24.9575C33.6173 23.9203 32.2202 23.2705 30.5553 23.0473L30.4225 24.0385C31.9035 24.237 33.088 24.8049 33.9498 25.6652C34.8115 26.5254 35.3802 27.7076 35.579 29.1856L36.57 29.0523ZM34.6826 33.9545C35.6046 33.0341 36.1957 32.3881 36.4793 31.6598C36.7706 30.9119 36.7159 30.1381 36.5701 29.0524L35.5789 29.1855C35.7264 30.2836 35.7345 30.8168 35.5475 31.2969C35.3529 31.7966 34.9248 32.2996 33.9761 33.2467L34.6826 33.9545ZM30.469 36.1666C31.9313 36.1666 33.1807 35.4538 34.6826 33.9545L33.9761 33.2467C32.5486 34.6719 31.5407 35.1666 30.469 35.1666V36.1666ZM23.4302 29.1957C23.4302 31.2537 24.1241 33.0056 25.3753 34.2438C26.6261 35.4816 28.3938 36.1666 30.469 36.1666V35.1666C28.6174 35.1666 27.1157 34.5592 26.0787 33.533C25.0422 32.5073 24.4302 31.0238 24.4302 29.1957H23.4302Z" fill="currentColor" mask="url(#fpath-1-inside-1_1_86)"/>
<defs>
<linearGradient id="fpaint0_linear_1_86" x1="-8.00024" y1="-3.50122" x2="63.1806" y2="4.3484" gradientUnits="userSpaceOnUse">
<stop stop-color="#F9B58F"/>
<stop offset="0.315" stop-color="#FCC499"/>
<stop offset="0.665" stop-color="#F8B466"/>
<stop offset="1" stop-color="#F7B78A"/>
</linearGradient>
<linearGradient id="fpaint1_linear_1_86" x1="7.49976" y1="0.752685" x2="68.5097" y2="14.1386" gradientUnits="userSpaceOnUse">
<stop stop-color="#F9B58F"/>
<stop offset="0.315" stop-color="#F8C39B"/>
<stop offset="0.665" stop-color="#F8B466"/>
<stop offset="1" stop-color="#FCE0CD"/>
</linearGradient>
</defs>
</symbol><symbol viewBox="0 0 51 32" fill="none" id="mastercard" xmlns="http://www.w3.org/2000/svg">
<g clip-path="url(#gclip0_1_121)">
<path d="M32.3194 3.35156H18.7969V27.9981H32.3194V3.35156Z" fill="currentColor"/>
<path d="M19.6539 15.6734C19.6519 13.302 20.1819 10.9609 21.204 8.82674C22.2261 6.69247 23.7136 4.8207 25.5544 3.35236C23.6119 1.80733 21.3323 0.754715 18.9058 0.282363C16.4792 -0.189984 13.9762 -0.0683626 11.6056 0.637077C9.23501 1.34252 7.06557 2.61132 5.27839 4.33757C3.49121 6.06384 2.13809 8.19745 1.33199 10.5604C0.525878 12.9234 0.29016 15.4472 0.644505 17.921C0.998849 20.3949 1.93298 22.7472 3.36892 24.7815C4.80488 26.8158 6.70102 28.4732 8.89905 29.6153C11.0971 30.7575 13.5333 31.3512 16.0043 31.3469C19.4704 31.3515 22.8361 30.17 25.5544 27.9945C23.7136 26.5262 22.2261 24.6544 21.204 22.5202C20.1819 20.386 19.6519 18.045 19.6539 15.6734Z" fill="currentColor"/>
<path d="M50.5555 15.6737C50.5652 18.6111 49.7561 21.4917 48.221 23.9849C46.6859 26.4782 44.487 28.4831 41.8766 29.7695C39.2663 31.056 36.3502 31.5719 33.4632 31.258C30.5762 30.9441 27.8352 29.8131 25.5547 27.9948C27.3943 26.5253 28.8809 24.6533 29.903 22.5193C30.9251 20.3854 31.4561 18.0449 31.4561 15.6737C31.4561 13.3025 30.9251 10.9621 29.903 8.82815C28.8809 6.6942 27.3943 4.82218 25.5547 3.35263C27.8352 1.53437 30.5762 0.403389 33.4632 0.0894727C36.3502 -0.224443 39.2663 0.291429 41.8766 1.57789C44.487 2.86435 46.6859 4.86926 48.221 7.36255C49.7561 9.8558 50.5652 12.7364 50.5555 15.6737Z" fill="currentColor"/>
</g>
<defs>
<clipPath id="gclip0_1_121">
<rect width="51" height="32" fill="currentColor"/>
</clipPath>
</defs>
</symbol><symbol viewBox="0 0 24 24" fill="none" id="star" xmlns="http://www.w3.org/2000/svg">
<g filter="url(#hfilter0_di_1_262)">
<path d="M23.3631 8.58125L15.9851 7.45425L12.6781 0.410247C12.4311 -0.115753 11.5681 -0.115753 11.3211 0.410247L8.01515 7.45425L0.637149 8.58125C0.0311492 8.67425 -0.210851 9.41125 0.214149 9.84625L5.57415 15.3402L4.30715 23.1072C4.20615 23.7242 4.86515 24.1872 5.41015 23.8842L12.0001 20.2422L18.5901 23.8852C19.1301 24.1852 19.7951 23.7312 19.6931 23.1082L18.4261 15.3412L23.7861 9.84725C24.2111 9.41125 23.9681 8.67425 23.3631 8.58125Z" fill="currentColor"/>
<path d="M15.6459 7.90823L15.5325 7.66673L12.2256 0.622772C12.2045 0.577923 12.1354 0.515747 11.9996 0.515747C11.8639 0.515747 11.7948 0.577923 11.7737 0.622773L8.46778 7.66668L8.35441 7.90822L8.09065 7.94851L0.712994 9.07546C0.511666 9.10636 0.42949 9.35118 0.57179 9.49683L0.57204 9.49708L5.93204 14.9911L6.10825 15.1717L6.06763 15.4207L4.80063 23.1877L4.80058 23.188C4.76702 23.3931 4.98814 23.5468 5.16719 23.4472L5.1683 23.4466L11.7583 19.8046L12.0002 19.671L12.2421 19.8047L18.832 23.4477L18.833 23.4482C19.014 23.5487 19.233 23.3923 19.1997 23.189L19.1997 23.1887L17.9327 15.4217L17.892 15.1727L18.0683 14.9921L23.4281 9.49824L15.6459 7.90823ZM15.6459 7.90823L15.9096 7.94851M15.6459 7.90823L15.9096 7.94851M15.9096 7.94851L23.2872 9.07544M15.9096 7.94851L23.2872 9.07544M23.2872 9.07544C23.2872 9.07545 23.2873 9.07545 23.2873 9.07546M23.2872 9.07544L23.2873 9.07546M23.2873 9.07546C23.4876 9.10634 23.571 9.35139 23.4283 9.49809L23.2873 9.07546Z" stroke="currentColor"/>
</g>
<defs>
<filter id="hfilter0_di_1_262" x="-8" y="-3.98425" width="40" height="39.9642" filterUnits="userSpaceOnUse" color-interpolation-filters="sRGB">
<feFlood flood-opacity="0" result="BackgroundImageFix"/>
<feColorMatrix in="SourceAlpha" type="matrix" values="0 0 0 0 0 0 0 0 0 0 0 0 0 0 0 0 0 0 127 0" result="hardAlpha"/>
<feOffset dy="4"/>
<feGaussianBlur stdDeviation="4"/>
<feComposite in2="hardAlpha" operator="out"/>
<feColorMatrix type="matrix" values="0 0 0 0 1 0 0 0 0 0.839999 0 0 0 0 0.75 0 0 0 0.24 0"/>
<feBlend mode="normal" in2="BackgroundImageFix" result="effect1_dropShadow_1_262"/>
<feBlend mode="normal" in="SourceGraphic" in2="effect1_dropShadow_1_262" result="shape"/>
<feColorMatrix in="SourceAlpha" type="matrix" values="0 0 0 0 0 0 0 0 0 0 0 0 0 0 0 0 0 0 127 0" result="hardAlpha"/>
<feOffset dy="4"/>
<feGaussianBlur stdDeviation="4"/>
<feComposite in2="hardAlpha" operator="arithmetic" k2="-1" k3="1"/>
<feColorMatrix type="matrix" values="0 0 0 0 0.975 0 0 0 0 0.814287 0 0 0 0 0.625625 0 0 0 0.75 0"/>
<feBlend mode="normal" in2="shape" result="effect2_innerShadow_1_262"/>
</filter>
<linearGradient id="hpaint0_linear_1_262" x1="3.00001" y1="0.0157469" x2="27.4563" y2="5.25527" gradientUnits="userSpaceOnUse">
<stop stop-color="#F9B58F"/>
<stop offset="0.315" stop-color="#F4954A"/>
<stop offset="0.665" stop-color="#F8B466"/>
<stop offset="1" stop-color="#ED8539"/>
</linearGradient>
<linearGradient id="hpaint1_linear_1_262" x1="9.19447" y1="0.0157475" x2="22.5521" y2="10.3788" gradientUnits="userSpaceOnUse">
<stop stop-color="#FFD7BA"/>
<stop offset="1" stop-color="#F5AA74"/>
</linearGradient>
</defs>
</symbol><symbol viewBox="0 0 24 24" fill="none" id="star4" xmlns="http://www.w3.org/2000/svg">
<path d="M15.7588 7.56049L15.8155 7.68124L15.9474 7.70138L23.3252 8.82834C23.7279 8.89024 23.8911 9.3813 23.6072 9.67267C23.6072 9.67269 23.6072 9.67272 23.6071 9.67274L18.2472 15.1667L18.1591 15.257L18.1794 15.3815L19.4464 23.1485L19.4464 23.1486C19.5141 23.5618 19.0721 23.867 18.7116 23.6667L18.7111 23.6665L12.1211 20.0235L12.0002 19.9566L11.8792 20.0234L5.28922 23.6654L5.28867 23.6657C4.92665 23.867 4.48658 23.5587 4.55387 23.1476L4.55389 23.1475L5.82089 15.3805L5.8412 15.256L5.75309 15.1657L0.393095 9.67167L0.392969 9.67154C0.109319 9.38121 0.271408 8.8903 0.675072 8.82835L8.0529 7.70138L8.18478 7.68124L8.24146 7.56046L11.5474 0.51651C11.6197 0.362585 11.793 0.265747 11.9996 0.265747C12.2063 0.265747 12.3796 0.362585 12.4519 0.51651L15.7588 7.56049Z" stroke="currentColor" stroke-width="0.5"/>
</symbol><symbol viewBox="0 0 42 56" fill="none" id="time" xmlns="http://www.w3.org/2000/svg">
<path d="M39.6667 11.2645V6.35097C41.0548 5.5417 42 4.05333 42 2.3333V1.1667C42 0.521828 41.4782 0 40.8333 0H1.1667C0.521828 0 0 0.521828 0 1.1667V2.33341C0 4.05333 0.945219 5.5417 2.3333 6.35108V11.2645C2.3333 15.8879 4.30434 20.313 7.74058 23.4052L12.8459 28L7.74058 32.5948C4.30434 35.687 2.3333 40.1121 2.3333 44.7355V49.6489C0.945219 50.4583 0 51.9467 0 53.6667V54.8334C0 55.4782 0.521828 56 1.1667 56H40.8334C41.4783 56 42.0001 55.4782 42.0001 54.8333V53.6666C42.0001 51.9467 41.0549 50.4583 39.6668 49.6489V44.7355C39.6668 40.1121 37.6958 35.687 34.2595 32.5948L29.1541 28L34.2594 23.4052C37.6957 20.313 39.6667 15.8878 39.6667 11.2645ZM31.1378 19.937L24.1058 26.266C23.6136 26.7081 23.3333 27.3381 23.3333 28C23.3333 28.6619 23.6136 29.292 24.1058 29.734L31.1378 36.063C33.5918 38.2722 35 41.4338 35 44.7355V49H32.0828L21.9331 35.4671C21.4933 34.8792 20.5066 34.8792 20.0668 35.4671L9.91725 49H7V44.7355C7 41.4337 8.4082 38.2721 10.8624 36.0629L17.8943 29.7339C18.3865 29.2918 18.6668 28.6618 18.6668 27.9999C18.6668 27.338 18.3865 26.7078 17.8943 26.2659L10.8624 19.9369C8.4082 17.7278 7 14.5662 7 11.2645V7H35V11.2645C35 14.5662 33.5918 17.7278 31.1378 19.937Z" fill="currentColor"/>
<defs>
<linearGradient id="jpaint0_linear_1_161" x1="5.25002" y1="-4.20671e-07" x2="48.8896" y2="7.00158" gradientUnits="userSpaceOnUse">
<stop stop-color="#F9B58F"/>
<stop offset="0.315" stop-color="#F4954A"/>
<stop offset="0.665" stop-color="#F8B466"/>
<stop offset="1" stop-color="#ED8539"/>
</linearGradient>
</defs>
</symbol><symbol viewBox="0 0 73 24" fill="none" id="visa" xmlns="http://www.w3.org/2000/svg">
<path fill-rule="evenodd" clip-rule="evenodd" d="M18.2644 23.8114H11.9853L7.27667 5.1929C7.0532 4.33644 6.57865 3.57928 5.88063 3.22243C4.13862 2.32563 2.21907 1.61193 0.125 1.25197V0.535155H10.2402C11.6363 0.535155 12.6833 1.61192 12.8578 2.86247L15.3009 16.2927L21.5769 0.535155H27.6816L18.2644 23.8114ZM31.1717 23.8114H25.2415L30.1246 0.535155H36.0548L31.1717 23.8114ZM43.7271 6.98505C43.9016 5.7314 44.9486 5.0146 46.1702 5.0146C48.0897 4.83461 50.1807 5.19455 51.9257 6.08825L52.973 1.07677C51.228 0.359958 49.3082 0 47.5662 0C41.8106 0 37.6225 3.2241 37.6225 7.69875C37.6225 11.1028 40.5891 12.8902 42.6831 13.967C44.9486 15.0407 45.8212 15.7575 45.6467 16.8312C45.6467 18.4417 43.9016 19.1584 42.1596 19.1584C40.0655 19.1584 37.9715 18.6216 36.055 17.7248L35.0079 22.7394C37.102 23.6331 39.3675 23.993 41.4616 23.993C47.9152 24.17 51.9257 20.9489 51.9257 16.1143C51.9257 10.026 43.7271 9.6692 43.7271 6.98505ZM72.6796 23.8114L67.9708 0.535155H62.9129C61.8661 0.535155 60.8193 1.25197 60.4702 2.32563L51.7509 23.8114H57.8556L59.0742 20.4104H66.5749L67.2726 23.8114H72.6796ZM63.7855 6.80275L65.5275 15.5751H60.6445L63.7855 6.80275Z" fill="currentColor"/>
</symbol></svg>