<svg width="60" height="60" viewBox="0 0 60 60" fill="none" xmlns="http://www.w3.org/2000/svg">
<path d="M59.1842 20.2415C58.1162 19.4223 56.5114 18.3992 54.4738 17.7115C53.2431 17.2958 51.9942 17.0521 50.7381 16.9776C50.5956 16.9617 50.4509 16.9523 50.3033 16.9523C50.2671 16.9523 50.2316 16.9538 50.1962 16.9552C49.3337 16.9379 48.4691 17.0015 47.6051 17.1454C45.2413 17.5394 42.8868 18.5416 40.5859 20.1287C41.4875 15.8316 45.3093 12.5938 49.8735 12.5938C54.4377 12.5938 58.326 15.888 59.1842 20.2408V20.2415Z" fill="url(#paint0_linear_137_347)"/>
<path d="M53.7328 19.0703C53.8 19.0913 53.8681 19.1115 53.9354 19.1339C56.7869 20.0819 58.7477 21.7991 59.3642 22.3891C59.3389 23.1679 59.2202 23.9235 59.0169 24.6443C58.035 24.2568 56.2073 23.6415 53.8181 23.3132C53.6322 23.2879 53.439 23.264 53.2422 23.2416C53.8015 22.5764 54.1401 21.7189 54.1401 20.7832C54.1401 20.1679 53.9932 19.5859 53.7335 19.0703H53.7328Z" fill="url(#paint1_linear_137_347)"/>
<path d="M47.0329 18.8047C46.6812 19.3831 46.4786 20.0614 46.4786 20.7859C46.4786 21.7584 46.844 22.647 47.4438 23.3223C45.4143 23.6079 43.2074 24.2023 40.9449 25.2804C40.5947 24.3057 40.4 23.2587 40.3906 22.1676C42.5938 20.4475 44.813 19.3246 47.0329 18.8047Z" fill="url(#paint2_linear_137_347)"/>
<path d="M53.5502 24.8117C55.8337 25.1198 57.5891 25.7185 58.4841 26.072C56.9741 29.3128 53.6833 31.5658 49.8767 31.5658C46.3052 31.5658 43.1889 29.5839 41.5703 26.6635C46.2206 24.4401 50.622 24.417 53.5509 24.8117H53.5502Z" fill="url(#paint3_linear_137_347)"/>
<path d="M1.51562 26.072C2.41066 25.7178 4.166 25.1191 6.44954 24.8118C9.37849 24.417 13.7799 24.4401 18.4301 26.6628C16.8108 29.5832 13.6945 31.5658 10.1237 31.5658C6.31641 31.5658 3.02641 29.3135 1.51635 26.072H1.51562Z" fill="url(#paint4_linear_137_347)"/>
<path d="M42.1268 26.9234C42.9876 26.4925 44.684 25.7431 46.9321 25.2379C49.8155 24.5894 54.2021 24.2288 59.0284 26.0377C57.6698 29.0882 54.7381 31.3349 51.181 31.6461C47.3881 31.9779 43.9143 30.0209 42.1275 26.9234L42.1268 26.9234Z" fill="url(#paint5_linear_137_347)"/>
<path d="M0.640625 22.3891C1.25709 21.7991 3.21792 20.0819 6.06945 19.1339C6.13674 19.1115 6.20403 19.0913 6.27205 19.0703C6.01229 19.5859 5.86541 20.1679 5.86541 20.7832C5.86541 21.7189 6.20331 22.5764 6.76334 23.2416C6.56653 23.264 6.37334 23.2872 6.18739 23.3132C3.79749 23.6415 1.96979 24.2568 0.988654 24.6443C0.786059 23.9235 0.666673 23.1679 0.641349 22.3891H0.640625Z" fill="url(#paint6_linear_137_347)"/>
<path d="M19.0615 25.2804C16.7982 24.2023 14.5921 23.6087 12.5625 23.3223C13.1623 22.6463 13.5277 21.7584 13.5277 20.7859C13.5277 20.0614 13.3251 19.3831 12.9735 18.8047C15.1941 19.3238 17.4125 20.4467 19.6157 22.1676C19.6063 23.2587 19.4117 24.3064 19.0615 25.2804Z" fill="url(#paint7_linear_137_347)"/>
<path d="M12.3923 17.1447C11.5283 17.0008 10.6637 16.9371 9.80121 16.9545C9.76504 16.9538 9.72958 16.9516 9.6934 16.9516C9.54652 16.9516 9.40181 16.961 9.25855 16.9769C8.00246 17.0514 6.7536 17.2951 5.52284 17.7108C3.48531 18.3984 1.88047 19.4216 0.8125 20.2408C1.67064 15.8873 5.5185 12.5938 10.1232 12.5938C14.7279 12.5938 18.5092 15.8309 19.4107 20.128C17.1098 18.5409 14.7554 17.5387 12.3915 17.1447H12.3923Z" fill="url(#paint8_linear_137_347)"/>
<path d="M58.8466 31.4224C58.4515 30.6899 58.0268 30.1505 57.7091 29.8006C55.7114 31.8244 52.9373 33.0811 49.8752 33.0811C43.8046 33.0811 38.8663 28.1462 38.8663 22.0798C38.8663 16.0133 43.8046 11.0785 49.8752 11.0785C52.7904 11.0785 55.4444 12.2173 57.4161 14.0719C57.6751 13.4197 57.966 12.4704 58.0282 11.3822C58.1816 8.71916 56.9429 6.47479 54.3468 4.71343C48.1409 0.502356 39.6847 5.161 36.501 6.91441C36.3599 6.9925 36.2297 7.06408 36.111 7.12844L35.8346 7.27956C33.2212 8.70542 32.5186 9.08864 29.9999 9.08864C27.4812 9.08864 26.7779 8.70542 24.1652 7.27956L23.8888 7.12916C23.7701 7.06481 23.6399 6.99323 23.4988 6.91514C20.3151 5.16173 11.8582 0.503079 5.65303 4.71415C3.05692 6.47552 1.81819 8.71988 1.97159 11.3829C2.03454 12.4711 2.32468 13.4212 2.58371 14.0727C4.5554 12.2173 7.2094 11.0792 10.1246 11.0792C16.1952 11.0792 21.1335 16.0141 21.1335 22.0805C21.1335 28.1469 16.1952 33.0818 10.1246 33.0818C7.06179 33.0818 4.28841 31.8251 2.29068 29.8013C1.97303 30.1512 1.54831 30.6906 1.15325 31.4231C0.140272 33.3009 -0.207757 35.4925 0.118566 37.9378C0.771212 42.8271 3.99392 45.6427 10.2621 46.7982C16.934 48.0281 20.2319 50.0056 22.8816 51.5942C25.2114 52.9911 26.8951 54.0005 29.9999 54.0005C33.1047 54.0005 34.7884 52.9911 37.1182 51.5942C39.7679 50.0056 43.0658 48.0281 49.7377 46.7982C56.0059 45.6427 59.2293 42.8271 59.8812 37.9378C60.2076 35.4925 59.8595 33.3009 58.8473 31.4231L58.8466 31.4224ZM33.9845 36.1143L35.6451 34.9263C36.051 34.6356 36.6161 34.7289 36.907 35.1353C37.1978 35.5409 37.1045 36.1056 36.6978 36.3963L35.0373 37.5843C34.8781 37.6985 34.6936 37.7535 34.5113 37.7535C34.2291 37.7535 33.952 37.6226 33.7754 37.376C33.4845 36.9704 33.5779 36.4057 33.9845 36.115V36.1143ZM23.0914 35.1345C23.3823 34.7289 23.9474 34.6349 24.3533 34.9256L26.0138 36.1136C26.4198 36.4042 26.5138 36.9689 26.223 37.3746C26.0464 37.6211 25.7686 37.752 25.4871 37.752C25.3048 37.752 25.121 37.6971 24.9611 37.5828L23.3005 36.3948C22.8946 36.1042 22.8005 35.5395 23.0914 35.1338V35.1345ZM5.01775 34.0521C5.37446 33.7036 5.94607 33.7094 6.29555 34.0651C6.31364 34.0832 8.14423 35.9133 11.961 37.7195C15.4869 39.3883 21.4793 41.3774 29.9999 41.3774C38.5205 41.3774 44.5122 39.3883 48.0388 37.7195C51.8556 35.9133 53.6862 34.0832 53.7043 34.0651C54.0545 33.7101 54.6268 33.7051 54.9828 34.0543C55.3388 34.4035 55.3453 34.974 54.9965 35.3305C54.9162 35.4122 52.9829 37.363 48.9143 39.3059C46.5498 40.4345 43.9377 41.334 41.152 41.9775C37.6833 42.7794 33.9317 43.1858 30.0006 43.1858C26.0696 43.1858 22.3187 42.7794 18.8492 41.9775C16.0635 41.334 13.4515 40.4353 11.0869 39.3059C7.01838 37.3637 5.08504 35.4129 5.00473 35.3305C4.65525 34.9733 4.66176 34.4014 5.0192 34.0521H5.01775ZM57.351 37.8626C57.2772 37.9559 55.4878 40.1793 51.1863 42.3803C48.6958 43.6543 45.8588 44.6688 42.7533 45.394C38.8931 46.2956 34.6024 46.7533 29.9992 46.7533C25.3959 46.7533 21.1053 46.2956 17.2451 45.394C14.1396 44.668 11.3025 43.6543 8.81207 42.3803C4.51054 40.1793 2.72119 37.9566 2.64739 37.8626C2.33771 37.4707 2.40355 36.9024 2.79572 36.593C3.18644 36.2835 3.75442 36.3493 4.06483 36.739C4.0945 36.7759 5.77169 38.8171 9.75992 40.8337C13.4703 42.71 19.9939 44.9457 29.9999 44.9457C40.0059 44.9457 46.5295 42.7093 50.2399 40.8337C54.244 38.8091 55.9183 36.7593 55.935 36.739C56.2468 36.3507 56.8155 36.2864 57.2048 36.5966C57.5941 36.9068 57.6607 37.4722 57.3517 37.8626H57.351Z" fill="url(#paint9_linear_137_347)"/>
<defs>
<linearGradient id="paint0_linear_137_347" x1="49.8851" y1="54.1622" x2="49.8851" y2="6.8469" gradientUnits="userSpaceOnUse">
<stop stop-color="#C15AF4"/>
<stop offset="1" stop-color="#00EAD3"/>
</linearGradient>
<linearGradient id="paint1_linear_137_347" x1="56.3028" y1="54.1653" x2="56.3028" y2="6.84995" gradientUnits="userSpaceOnUse">
<stop stop-color="#C15AF4"/>
<stop offset="1" stop-color="#00EAD3"/>
</linearGradient>
<linearGradient id="paint2_linear_137_347" x1="43.9172" y1="54.1679" x2="43.9172" y2="6.85258" gradientUnits="userSpaceOnUse">
<stop stop-color="#C15AF4"/>
<stop offset="1" stop-color="#00EAD3"/>
</linearGradient>
<linearGradient id="paint3_linear_137_347" x1="50.0272" y1="3.00295" x2="50.0272" y2="3.00295" gradientUnits="userSpaceOnUse">
<stop stop-color="#C15AF4"/>
<stop offset="1" stop-color="#00EAD3"/>
</linearGradient>
<linearGradient id="paint4_linear_137_347" x1="9.97325" y1="54.1671" x2="9.97325" y2="6.85179" gradientUnits="userSpaceOnUse">
<stop stop-color="#C15AF4"/>
<stop offset="1" stop-color="#00EAD3"/>
</linearGradient>
<linearGradient id="paint5_linear_137_347" x1="53.0009" y1="54.1745" x2="48.8771" y2="7.03919" gradientUnits="userSpaceOnUse">
<stop stop-color="#C15AF4"/>
<stop offset="1" stop-color="#00EAD3"/>
</linearGradient>
<linearGradient id="paint6_linear_137_347" x1="3.70198" y1="54.1653" x2="3.70198" y2="6.84995" gradientUnits="userSpaceOnUse">
<stop stop-color="#C15AF4"/>
<stop offset="1" stop-color="#00EAD3"/>
</linearGradient>
<linearGradient id="paint7_linear_137_347" x1="16.0891" y1="54.1679" x2="16.0891" y2="6.85258" gradientUnits="userSpaceOnUse">
<stop stop-color="#C15AF4"/>
<stop offset="1" stop-color="#00EAD3"/>
</linearGradient>
<linearGradient id="paint8_linear_137_347" x1="10.1123" y1="54.1615" x2="10.1123" y2="6.84618" gradientUnits="userSpaceOnUse">
<stop stop-color="#C15AF4"/>
<stop offset="1" stop-color="#00EAD3"/>
</linearGradient>
<linearGradient id="paint9_linear_137_347" x1="29.9992" y1="54.1646" x2="29.9992" y2="6.84934" gradientUnits="userSpaceOnUse">
<stop stop-color="#C15AF4"/>
<stop offset="1" stop-color="#00EAD3"/>
</linearGradient>
</defs>
</svg>
