<svg width="791" height="634" viewBox="0 0 791 634" fill="none" xmlns="http://www.w3.org/2000/svg">
<g clip-path="url(#clip0_0_247)">
<path d="M-196.907 556.983C-154.5 552.264 -112.603 546.449 -72.171 532.25C-35.9503 519.527 -1.52524 501.657 29.7367 479.382C62.3688 456.131 91.1956 428.105 115.765 396.474C143.821 360.35 166.621 320.544 189.042 280.785C229.028 209.891 269.994 136.136 335.608 85.4496C367.002 61.2015 402.934 44.4378 442.059 37.4178C483.02 30.0623 524.86 31.6493 566.274 31.768C657.864 32.0392 749.472 27.0508 840.497 16.8745C851.954 15.5912 863.398 14.2231 874.832 12.7835C876.744 12.5413 876.543 9.54634 874.617 9.79314C783.428 21.2811 691.615 27.6171 599.713 28.6408C557.127 29.1165 514.261 26.826 471.784 30.53C432.601 33.9457 394.994 44.2058 361.06 64.4342C293.772 104.551 248.231 171.672 209.822 238.105C165.139 315.394 124.636 396.762 55.4239 455.596C25.3936 481.127 -8.38566 502.266 -44.4804 518.115C-82.2067 534.677 -121.821 544.531 -162.595 549.918C-174.091 551.438 -185.602 552.717 -197.126 554.001C-199.039 554.199 -198.838 557.194 -196.907 556.983Z" fill="url(#paint0_linear_0_247)" fill-opacity="0.3"/>
<path d="M-192.887 544.185C-152.968 539.994 -113.418 534.809 -75.1063 522.366C-39.5522 510.82 -5.58632 494.361 25.5261 473.639C59.7671 450.833 90.1546 422.804 116 390.82C142.498 358.03 164.467 321.893 185.418 285.401C227.143 212.731 267.26 135.373 334.549 82.6355C366.297 57.7587 402.711 40.8974 442.388 33.5022C483.489 25.8371 525.576 26.7872 567.196 25.7595C652.319 23.6589 737.352 17.8381 821.968 8.34867C832.447 7.17552 842.912 5.93984 853.376 4.65947C855.284 4.42622 855.083 1.43128 853.162 1.6691C768.315 12.0815 683.03 18.8479 597.596 21.8541C555.112 23.3488 512.25 22.163 469.926 26.5545C431.968 30.4934 395.311 40.5407 362.284 60.011C291.542 101.719 245.918 173.433 206.119 242.994C184.379 281.003 163.349 319.517 138.473 355.609C114.34 390.617 86.4561 422.804 53.2863 449.557C22.7884 474.156 -11.334 494.247 -47.5883 509.081C-84.3018 524.102 -122.623 532.842 -161.916 537.708C-172.295 538.997 -182.703 540.093 -193.106 541.181C-195.019 541.401 -194.813 544.387 -192.887 544.185Z" fill="url(#paint1_linear_0_247)" fill-opacity="0.3"/>
<path d="M-188.868 531.387C-150.126 527.576 -111.687 522.726 -74.3794 511.193C-39.5842 500.444 -6.19173 485.063 24.5539 465.543C57.9525 444.339 87.9606 418.218 113.696 388.185C140.366 357.062 162.615 322.465 183.32 287.178C225.053 216.061 262.653 139.517 326.675 85.198C356.376 59.9964 390.797 41.5668 428.652 32.1412C468.333 22.2638 509.479 21.7719 550.091 19.893C634.065 16.0031 717.906 9.3637 801.451 0.0610694C811.617 -1.06505 821.774 -2.24031 831.926 -3.4513C833.834 -3.68455 833.628 -6.6705 831.711 -6.44166C748.185 3.50486 664.348 10.815 580.357 15.3759C539.274 17.6026 497.64 17.4318 456.889 23.5649C419.498 29.1856 383.887 41.4837 352.194 62.3216C284.963 106.521 242.616 177.438 203.663 245.798C182.581 282.783 161.563 319.911 136.505 354.398C112.43 387.541 84.607 417.697 52.0592 442.683C21.8906 465.84 -11.6019 484.625 -47.0138 498.469C-83.1972 512.614 -120.86 520.763 -159.382 525.283C-169.266 526.447 -179.174 527.433 -189.077 528.41C-191.004 528.589 -190.789 531.58 -188.868 531.387Z" fill="url(#paint2_linear_0_247)" fill-opacity="0.3"/>
<path d="M-184.852 518.598C-147.007 515.138 -109.433 510.554 -72.8852 499.774C-38.604 489.663 -5.60774 475.135 24.9258 456.569C57.4761 436.775 86.9866 412.304 112.529 384.048C138.985 354.769 161.261 322.001 181.57 288.247C223.144 219.156 258.223 144.004 318.389 88.4615C346.36 62.6332 379.14 42.4402 415.558 31.0172C453.034 19.2554 492.315 17.0241 531.244 14.3079C614.313 8.51502 697.263 1.01464 780.035 -8.12131C790.188 -9.24286 800.34 -10.3868 810.484 -11.5575C812.396 -11.7773 812.195 -14.7722 810.269 -14.5478C727.46 -5.01804 644.469 2.90752 561.344 9.13015C521.773 12.0881 481.516 13.0163 442.541 21.0011C406.911 28.2993 373.402 42.487 343.855 63.7653C279.577 110.05 240.04 180.418 201.634 247.821C181.316 283.477 160.473 318.908 135.536 351.583C111.595 382.954 84.0141 411.302 52.1746 434.708C22.199 456.745 -10.8763 474.499 -45.7127 487.533C-81.3029 500.856 -118.259 508.517 -155.969 512.722C-165.657 513.805 -175.359 514.713 -185.067 515.607C-186.988 515.778 -186.774 518.768 -184.852 518.598Z" fill="url(#paint3_linear_0_247)" fill-opacity="0.3"/>
<path d="M-180.823 505.804C-143.36 502.647 -106.148 498.231 -69.8959 487.918C-36.6742 478.468 -4.57389 464.949 25.2932 447.581C57.7387 428.728 87.3281 405.253 113.079 377.957C139.366 350.088 161.675 318.729 181.684 286.131C222.755 219.244 255.673 145.727 312.335 89.9016C338.997 63.6312 370.364 42.1875 405.549 29.101C441.567 15.6997 479.672 12.1668 517.623 8.44708C598.114 0.553397 678.595 -7.59065 758.999 -16.3513C769.014 -17.4405 779.023 -18.5431 789.038 -19.6547C790.946 -19.8656 790.745 -22.8605 788.823 -22.6451C708.326 -13.7183 627.77 -5.44397 547.185 2.52644C509.159 6.28692 470.336 8.28675 433.137 17.4883C398.045 26.1645 365.417 42.1435 336.905 64.3533C275.955 111.825 238.982 180.779 201.437 246.633C181.689 281.265 160.979 315.402 136.139 346.677C112.11 376.935 84.4303 404.076 52.8108 426.376C23.1043 447.32 -9.47751 464.068 -43.6756 476.347C-78.6587 488.908 -114.906 496.171 -151.809 500.093C-161.538 501.122 -171.285 501.986 -181.038 502.814C-182.964 502.971 -182.75 505.961 -180.823 505.804Z" fill="url(#paint4_linear_0_247)" fill-opacity="0.3"/>
<path d="M-176.803 493.006C-140.496 490.229 -104.395 486.125 -69.1425 476.692C-36.1622 467.87 -4.22155 455.129 25.6606 438.594C57.5203 420.957 86.7982 398.911 112.475 373.082C138.675 346.73 161.093 316.873 180.879 285.479C221.927 220.364 252.791 147.877 306.354 91.3994C331.533 64.8582 361.299 42.2277 394.91 27.4668C429.053 12.4873 465.603 7.44526 502.286 2.81367C580.754 -7.10887 659.342 -16.0931 737.968 -24.5902C747.84 -25.6605 757.702 -26.7128 767.578 -27.7697C769.495 -27.9762 769.29 -30.9621 767.364 -30.76C688.607 -22.3604 609.897 -13.5362 531.298 -3.82293C494.538 0.715318 456.801 3.74915 421.219 14.5577C387.601 24.7704 356.792 42.355 329.982 64.977C271.95 113.948 237.418 182.172 200.388 246.954C181.182 280.548 160.526 313.331 135.692 343.094C111.679 371.889 84.0819 397.478 52.9309 418.415C-7.24406 458.859 -76.6644 480.374 -148.414 487.546C-157.937 488.497 -167.479 489.283 -177.027 490.011C-178.949 490.16 -178.734 493.15 -176.803 493.006Z" fill="url(#paint5_linear_0_247)" fill-opacity="0.3"/>
<path d="M-172.783 480.208C-137.265 477.767 -101.913 473.919 -67.3314 465.171C-34.9636 456.985 -3.52622 445.133 26.0413 429.602C89.9254 396.035 141.006 344.977 180.082 284.743C221.44 220.993 250.46 148.972 301.513 91.7526C325.296 65.1055 353.419 41.6463 385.356 25.3951C418.251 8.66724 454.081 2.41404 490.189 -3.22404C565.696 -15.012 641.518 -24.7406 717.509 -32.8827C727.045 -33.9058 736.591 -34.9021 746.136 -35.8761C748.049 -36.0736 747.848 -39.0685 745.922 -38.8664C669.776 -31.0898 593.794 -21.8073 518.091 -10.5054C482.442 -5.18822 445.616 -1.1504 411.47 10.9311C379.34 22.309 350.418 41.0648 325.143 63.7605C268.906 114.248 236.376 182.753 199.353 247.203C180.658 279.756 160.054 311.161 135.249 339.434C111.248 366.799 83.7289 390.866 53.0421 410.471C-6.62695 448.568 -74.91 468.447 -145.005 474.994C-154.323 475.868 -163.656 476.567 -172.998 477.218C-174.924 477.353 -174.719 480.339 -172.783 480.208Z" fill="url(#paint6_linear_0_247)" fill-opacity="0.3"/>
<path d="M-168.764 467.41C-133.873 465.296 -99.1596 461.658 -65.1007 453.545C-33.2563 445.948 -2.24238 434.891 27.0637 420.278C89.5969 389.101 141.138 341.121 179.789 283.162C221.539 220.563 248.822 148.792 297.683 90.8641C320.399 63.9387 347.263 39.5497 377.961 22.033C409.429 4.08136 444.331 -3.07284 479.56 -9.64359C551.589 -23.0829 624.182 -33.4495 697.045 -41.1884C706.26 -42.1689 715.475 -43.1046 724.69 -43.9956C726.607 -44.1797 726.397 -47.179 724.475 -46.986C651.17 -39.8431 578.111 -30.1394 505.58 -17.3806C471.211 -11.335 435.483 -6.33482 402.896 6.67883C371.611 19.173 344.029 39.4439 319.907 62.7169C266.056 114.653 235.599 182.861 198.777 246.698C180.438 278.479 159.745 308.77 134.793 335.757C110.816 361.686 83.3893 384.249 53.1533 402.527C-5.97864 438.26 -73.1289 456.511 -141.6 462.451C-150.722 463.243 -159.841 463.869 -168.978 464.42C-170.905 464.532 -170.695 467.532 -168.764 467.41Z" fill="url(#paint7_linear_0_247)" fill-opacity="0.3"/>
<path d="M-164.744 454.612C-130.495 452.829 -96.3968 449.424 -62.8879 441.931C-30.9595 434.799 0.259972 424.322 29.7843 410.196C91.3598 380.742 143.455 335.129 181.543 278.542C222.4 217.833 247.88 147.761 293.567 90.1475C314.955 63.1827 340.145 37.9608 369.134 19.2045C398.657 0.108909 432.062 -8.14782 465.992 -15.6123C535.458 -30.8887 605.818 -42.0394 676.541 -49.4807C685.434 -50.4185 694.327 -51.2892 703.23 -52.1109C705.152 -52.2816 704.942 -55.2809 703.016 -55.1012C632.241 -48.554 561.78 -38.3999 492.131 -24.1821C458.841 -17.3842 424.033 -11.3979 392.912 2.75871C362.87 16.4199 337.073 38.0685 314.377 61.7514C289.919 87.2764 269.91 116.244 252.291 146.808C233.878 178.764 217.84 212.031 199.445 243.996C181.527 275.125 160.903 304.482 135.92 330.373C111.94 355.219 84.5268 376.598 54.5871 393.818C-4.30802 427.706 -70.8246 444.553 -138.195 449.908C-147.108 450.613 -156.035 451.166 -164.963 451.63C-166.889 451.721 -166.675 454.711 -164.744 454.612Z" fill="url(#paint8_linear_0_247)" fill-opacity="0.3"/>
<path d="M-160.715 441.818C-94.6448 438.978 -29.0724 428.117 31.5521 400.693C92.4753 373.136 145.361 329.793 183.029 274.426C223.351 215.17 247.018 146.158 290 88.5418C310.353 61.2582 334.143 34.8928 361.938 15.0049C389.378 -4.63434 421.31 -13.6807 453.611 -21.8443C520.302 -38.7057 588.228 -50.6836 656.641 -57.7993C665.011 -58.6706 673.386 -59.4615 681.775 -60.1899C683.697 -60.3606 683.482 -63.351 681.561 -63.1802C613.72 -57.2987 546.294 -46.6796 479.95 -31.2966C448.05 -23.9052 414.618 -16.9765 385.083 -2.42013C355.749 12.0453 331.474 35.1093 309.941 59.3515C286.744 85.4621 267.656 114.458 250.896 145.043C233.581 176.646 218.366 209.371 200.476 240.67C183.014 271.21 162.554 299.711 137.581 324.56C113.612 348.409 86.2034 368.665 56.5605 384.895C-2.2576 417.105 -68.3864 432.572 -134.889 437.361C-143.561 437.984 -152.247 438.455 -160.929 438.828C-162.865 438.914 -162.651 441.904 -160.715 441.818Z" fill="url(#paint9_linear_0_247)" fill-opacity="0.3"/>
<path d="M-156.699 429.029C-91.5503 426.839 -26.3611 416.76 33.909 391.01C93.448 365.57 146.525 325.107 183.581 271.711C223.854 213.668 245.673 145.153 286.054 87.1396C295.958 72.9072 306.711 59.2813 318.099 46.2007C328.942 33.7548 340.409 21.7381 353.316 11.3967C379.382 -9.4846 410.713 -19.4389 442.349 -28.5636C505.689 -46.8358 570.686 -59.3824 636.266 -66.1059C644.279 -66.9299 652.301 -67.66 660.338 -68.3053C662.264 -68.4627 662.05 -71.453 660.123 -71.2956C594.836 -66.0099 530.043 -55.0122 466.691 -38.3723C450.966 -34.2489 435.31 -29.813 419.805 -24.9131C404.809 -20.1645 389.906 -14.8352 376.031 -7.35341C347.392 8.07736 324.833 32.685 304.552 57.6425C282.663 84.5842 264.543 113.855 248.648 144.674C232.507 175.974 218.125 208.205 200.673 238.817C183.745 268.495 163.509 295.858 138.706 319.431C114.729 342.207 87.3249 361.251 57.9737 376.41C-0.595055 406.659 -66.0551 420.627 -131.48 424.831C-139.946 425.377 -148.423 425.761 -156.909 426.052C-158.845 426.093 -158.631 429.084 -156.699 429.029Z" fill="url(#paint10_linear_0_247)" fill-opacity="0.3"/>
<path d="M-152.679 416.231C-90.2218 414.759 -27.2457 405.988 31.308 383.396C87.195 361.833 139.113 327.317 176.159 279.776C219.323 224.377 239.311 155.665 275.44 96.0999C284.825 80.6326 295.149 65.7486 306.062 51.321C315.943 38.2694 326.201 25.4253 337.86 13.9036C349.666 2.21977 362.921 -7.583 377.776 -15.0407C392.654 -22.4986 408.486 -27.951 424.238 -33.2195C486.057 -53.9089 550.155 -67.7101 615.016 -74.3075C622.966 -75.1176 630.926 -75.8115 638.883 -76.407C640.804 -76.5554 640.599 -79.5413 638.668 -79.3974C574.348 -74.5838 510.567 -62.7887 448.79 -44.1836C433.248 -39.5026 417.789 -34.4688 402.567 -28.8286C387.63 -23.2933 372.861 -16.8962 359.586 -7.98323C332.484 10.2179 312.036 37.3099 293.317 63.6021C272.979 92.1736 256.469 122.725 241.511 154.383C226.522 186.103 212.436 218.39 194.107 248.382C160.797 302.881 111.21 344.089 53.4463 370.768C-3.87127 397.242 -66.906 408.969 -129.645 412.353C-137.401 412.769 -145.158 413.049 -152.916 413.241C-154.83 413.282 -154.607 416.277 -152.679 416.231Z" fill="url(#paint11_linear_0_247)" fill-opacity="0.3"/>
</g>
<defs>
<linearGradient id="paint0_linear_0_247" x1="457.253" y1="-96.0134" x2="295.173" y2="777.612" gradientUnits="userSpaceOnUse">
<stop stop-color="#74F0C3" stop-opacity="0"/>
<stop offset="0.387057" stop-color="#74F0C3"/>
<stop offset="0.588542" stop-color="#74F0C3" stop-opacity="0.880673"/>
<stop offset="0.984375" stop-color="#74F0C3" stop-opacity="0"/>
</linearGradient>
<linearGradient id="paint1_linear_0_247" x1="447.331" y1="-100.062" x2="290.906" y2="759.295" gradientUnits="userSpaceOnUse">
<stop stop-color="#74F0C3" stop-opacity="0"/>
<stop offset="0.387057" stop-color="#74F0C3"/>
<stop offset="0.588542" stop-color="#74F0C3" stop-opacity="0.880673"/>
<stop offset="0.984375" stop-color="#74F0C3" stop-opacity="0"/>
</linearGradient>
<linearGradient id="paint2_linear_0_247" x1="437.413" y1="-104.1" x2="286.714" y2="740.951" gradientUnits="userSpaceOnUse">
<stop stop-color="#74F0C3" stop-opacity="0"/>
<stop offset="0.387057" stop-color="#74F0C3"/>
<stop offset="0.588542" stop-color="#74F0C3" stop-opacity="0.880673"/>
<stop offset="0.984375" stop-color="#74F0C3" stop-opacity="0"/>
</linearGradient>
<linearGradient id="paint3_linear_0_247" x1="427.495" y1="-108.139" x2="282.596" y2="722.581" gradientUnits="userSpaceOnUse">
<stop stop-color="#74F0C3" stop-opacity="0"/>
<stop offset="0.387057" stop-color="#74F0C3"/>
<stop offset="0.588542" stop-color="#74F0C3" stop-opacity="0.880673"/>
<stop offset="0.984375" stop-color="#74F0C3" stop-opacity="0"/>
</linearGradient>
<linearGradient id="paint4_linear_0_247" x1="417.576" y1="-112.166" x2="278.57" y2="704.169" gradientUnits="userSpaceOnUse">
<stop stop-color="#74F0C3" stop-opacity="0"/>
<stop offset="0.387057" stop-color="#74F0C3"/>
<stop offset="0.588542" stop-color="#74F0C3" stop-opacity="0.880673"/>
<stop offset="0.984375" stop-color="#74F0C3" stop-opacity="0"/>
</linearGradient>
<linearGradient id="paint5_linear_0_247" x1="407.65" y1="-116.207" x2="274.634" y2="685.71" gradientUnits="userSpaceOnUse">
<stop stop-color="#74F0C3" stop-opacity="0"/>
<stop offset="0.387057" stop-color="#74F0C3"/>
<stop offset="0.588542" stop-color="#74F0C3" stop-opacity="0.880673"/>
<stop offset="0.984375" stop-color="#74F0C3" stop-opacity="0"/>
</linearGradient>
<linearGradient id="paint6_linear_0_247" x1="397.736" y1="-120.246" x2="270.815" y2="667.21" gradientUnits="userSpaceOnUse">
<stop stop-color="#74F0C3" stop-opacity="0"/>
<stop offset="0.387057" stop-color="#74F0C3"/>
<stop offset="0.588542" stop-color="#74F0C3" stop-opacity="0.880673"/>
<stop offset="0.984375" stop-color="#74F0C3" stop-opacity="0"/>
</linearGradient>
<linearGradient id="paint7_linear_0_247" x1="387.819" y1="-124.292" x2="267.111" y2="648.653" gradientUnits="userSpaceOnUse">
<stop stop-color="#74F0C3" stop-opacity="0"/>
<stop offset="0.387057" stop-color="#74F0C3"/>
<stop offset="0.588542" stop-color="#74F0C3" stop-opacity="0.880673"/>
<stop offset="0.984375" stop-color="#74F0C3" stop-opacity="0"/>
</linearGradient>
<linearGradient id="paint8_linear_0_247" x1="377.894" y1="-128.332" x2="263.526" y2="630.03" gradientUnits="userSpaceOnUse">
<stop stop-color="#74F0C3" stop-opacity="0"/>
<stop offset="0.387057" stop-color="#74F0C3"/>
<stop offset="0.588542" stop-color="#74F0C3" stop-opacity="0.880673"/>
<stop offset="0.984375" stop-color="#74F0C3" stop-opacity="0"/>
</linearGradient>
<linearGradient id="paint9_linear_0_247" x1="367.968" y1="-132.343" x2="260.075" y2="611.344" gradientUnits="userSpaceOnUse">
<stop stop-color="#74F0C3" stop-opacity="0"/>
<stop offset="0.387057" stop-color="#74F0C3"/>
<stop offset="0.588542" stop-color="#74F0C3" stop-opacity="0.880673"/>
<stop offset="0.984375" stop-color="#74F0C3" stop-opacity="0"/>
</linearGradient>
<linearGradient id="paint10_linear_0_247" x1="358.056" y1="-136.387" x2="256.793" y2="592.582" gradientUnits="userSpaceOnUse">
<stop stop-color="#74F0C3" stop-opacity="0"/>
<stop offset="0.387057" stop-color="#74F0C3"/>
<stop offset="0.588542" stop-color="#74F0C3" stop-opacity="0.880673"/>
<stop offset="0.984375" stop-color="#74F0C3" stop-opacity="0"/>
</linearGradient>
<linearGradient id="paint11_linear_0_247" x1="348.126" y1="-140.42" x2="253.661" y2="573.718" gradientUnits="userSpaceOnUse">
<stop stop-color="#74F0C3" stop-opacity="0"/>
<stop offset="0.387057" stop-color="#74F0C3"/>
<stop offset="0.588542" stop-color="#74F0C3" stop-opacity="0.880673"/>
<stop offset="0.984375" stop-color="#74F0C3" stop-opacity="0"/>
</linearGradient>
<clipPath id="clip0_0_247">
<rect width="791" height="634" fill="white"/>
</clipPath>
</defs>
</svg>
