<svg aria-hidden="true" xmlns="http://www.w3.org/2000/svg" xmlns:xlink="http://www.w3.org/1999/xlink"><symbol viewBox="0 0 24 24" fill="none" id="copy" xmlns="http://www.w3.org/2000/svg">
<path fill-rule="evenodd" clip-rule="evenodd" d="M17.176 14.248C17.176 15.8651 15.8651 17.176 14.248 17.176H6.928C5.31091 17.176 4 15.8651 4 14.248V6.928C4 5.31091 5.31091 4 6.928 4H14.248C15.8651 4 17.176 5.31091 17.176 6.928V14.248Z" stroke="currentColor" stroke-width="1.5" stroke-linecap="round" stroke-linejoin="round"/>
<path d="M9.75195 20H17.072C18.689 20 20 18.6891 20 17.072V9.752" stroke="currentColor" stroke-width="1.5" stroke-linecap="round" stroke-linejoin="round"/>
</symbol><symbol viewBox="0 0 26 26" fill="none" id="discord" xmlns="http://www.w3.org/2000/svg">
<path d="M22.0102 4.72874C20.353 3.96839 18.576 3.40817 16.7179 3.08728C16.6841 3.08109 16.6503 3.09658 16.6329 3.1275C16.4043 3.53401 16.1512 4.06426 15.9739 4.48108C13.9755 4.18187 11.9873 4.18187 10.0299 4.48108C9.85257 4.05502 9.59023 3.53401 9.36065 3.1275C9.34323 3.09759 9.30941 3.0821 9.27559 3.08728C7.41862 3.4071 5.64158 3.96732 3.98337 4.72874C3.969 4.73493 3.95671 4.74524 3.94853 4.75865C0.577878 9.79437 -0.345528 14.7063 0.107441 19.5574C0.109472 19.5811 0.122827 19.6038 0.141261 19.6182C2.36512 21.2514 4.51937 22.2428 6.63354 22.9C6.66736 22.9104 6.70321 22.898 6.72475 22.8701C7.22484 22.1872 7.67065 21.467 8.05288 20.7097C8.07542 20.6654 8.05389 20.6128 8.00778 20.5952C7.30065 20.327 6.62735 19.9999 5.97963 19.6286C5.92839 19.5987 5.92428 19.5254 5.97146 19.4903C6.10775 19.3882 6.2441 19.2819 6.37425 19.1746C6.39782 19.155 6.43062 19.1509 6.4583 19.1632C10.7134 21.1059 15.32 21.1059 19.5248 19.1632C19.5525 19.1498 19.5853 19.154 19.6099 19.1735C19.7401 19.2808 19.8764 19.3881 20.0137 19.4902C20.0608 19.5253 20.0577 19.5986 20.0065 19.6285C19.3588 20.0071 18.6855 20.327 17.9774 20.5942C17.9313 20.6117 17.9107 20.6654 17.9333 20.7097C18.3238 21.4659 18.7696 22.1861 19.2605 22.8691C19.281 22.898 19.3178 22.9104 19.3517 22.9C21.4761 22.2428 23.6303 21.2513 25.8542 19.6182C25.8737 19.6037 25.886 19.582 25.888 19.5583C26.4302 13.95 24.98 9.0783 22.0439 4.75961C22.0368 4.74524 22.0245 4.73493 22.0102 4.72874ZM8.6884 16.6036C7.40735 16.6036 6.35176 15.4275 6.35176 13.9831C6.35176 12.5386 7.38683 11.3625 8.6884 11.3625C10.0001 11.3625 11.0455 12.549 11.025 13.9831C11.025 15.4275 9.98988 16.6036 8.6884 16.6036ZM17.3277 16.6036C16.0467 16.6036 14.9911 15.4275 14.9911 13.9831C14.9911 12.5386 16.0261 11.3625 17.3277 11.3625C18.6394 11.3625 19.6848 12.549 19.6643 13.9831C19.6643 15.4275 18.6395 16.6036 17.3277 16.6036Z" fill="currentColor"/>
</symbol><symbol viewBox="0 0 26 26" fill="none" id="medium" xmlns="http://www.w3.org/2000/svg">
<g clip-path="url(#cclip0_1_303)">
<path d="M14.6654 13C14.6654 17.0775 11.3825 20.383 7.33271 20.383C3.28296 20.383 0 17.0775 0 13C0 8.92245 3.28296 5.61694 7.33271 5.61694C11.3824 5.61694 14.6654 8.92245 14.6654 13Z" fill="currentColor"/>
<path d="M22.7077 12.9965C22.7077 16.8348 21.0662 19.9463 19.0414 19.9463C17.0165 19.9463 15.375 16.8348 15.375 12.9965C15.375 9.15815 17.0165 6.04663 19.0414 6.04663C21.0663 6.04663 22.7077 9.15815 22.7077 12.9965Z" fill="currentColor"/>
<path d="M26.0008 12.9999C26.0008 16.4389 25.4235 19.2267 24.7113 19.2267C23.9991 19.2267 23.4219 16.4389 23.4219 12.9999C23.4219 9.56098 23.9991 6.77319 24.7113 6.77319C25.4235 6.77319 26.0008 9.56098 26.0008 12.9999Z" fill="currentColor"/>
</g>
<defs>
<clipPath id="cclip0_1_303">
<rect width="26" height="26" fill="currentColor"/>
</clipPath>
</defs>
</symbol><symbol viewBox="0 0 16 16" fill="none" id="return" xmlns="http://www.w3.org/2000/svg">
<path d="M13.5689 6.205C13.6829 6.60322 14.0981 6.83363 14.4964 6.71964C14.8946 6.60565 15.125 6.19042 15.011 5.7922L13.5689 6.205ZM12.59 3.0486L13.1301 2.52824L13.1295 2.52764L12.59 3.0486ZM9.11096 1.1336L9.2625 0.399071L9.2611 0.398784L9.11096 1.1336ZM5.18996 1.5336L4.89453 0.844239L4.89379 0.844557L5.18996 1.5336ZM2.14396 4.1096L1.51365 3.70314L1.51364 3.70315L2.14396 4.1096ZM2.98796 12.9486L3.53029 12.4306L3.52996 12.4302L2.98796 12.9486ZM11.557 13.8196L11.984 14.4362L11.9841 14.4361L11.557 13.8196ZM14.7536 10.9554C14.907 10.5706 14.7195 10.1343 14.3347 9.98094C13.95 9.82753 13.5137 10.0151 13.3603 10.3998L14.7536 10.9554ZM13.5675 5.80898C13.4634 6.20988 13.7039 6.61933 14.1048 6.72351C14.5057 6.8277 14.9151 6.58717 15.0193 6.18627L13.5675 5.80898ZM15.7293 3.45427C15.8335 3.05337 15.593 2.64392 15.1921 2.53974C14.7912 2.43555 14.3817 2.67608 14.2775 3.07698L15.7293 3.45427ZM14.0899 6.72172C14.4891 6.83205 14.9022 6.59783 15.0125 6.19857C15.1229 5.79932 14.8886 5.38623 14.4894 5.27591L14.0899 6.72172ZM11.8404 4.54391C11.4411 4.43358 11.028 4.6678 10.9177 5.06705C10.8074 5.4663 11.0416 5.8794 11.4409 5.98972L11.8404 4.54391ZM15.011 5.7922C14.6602 4.56683 14.0144 3.44613 13.1301 2.52824L12.0498 3.56897C12.764 4.31028 13.2856 5.21537 13.5689 6.205L15.011 5.7922ZM13.1295 2.52764C12.0842 1.44503 10.7364 0.703154 9.2625 0.399073L8.95941 1.86813C10.1375 2.11119 11.2148 2.7042 12.0504 3.56956L13.1295 2.52764ZM9.2611 0.398784C7.79418 0.0990591 6.27071 0.254476 4.89453 0.844239L5.48538 2.22297C6.58071 1.75356 7.79327 1.62986 8.96082 1.86842L9.2611 0.398784ZM4.89379 0.844557C3.50796 1.44022 2.33115 2.43545 1.51365 3.70314L2.77426 4.51607C3.43013 3.49901 4.37429 2.70054 5.48613 2.22265L4.89379 0.844557ZM1.51364 3.70315C-0.471459 6.78162 -0.0858661 10.8198 2.44595 13.467L3.52996 12.4302C1.47778 10.2845 1.16523 7.01133 2.77427 4.51605L1.51364 3.70315ZM2.44562 13.4666C4.95364 16.0923 8.99893 16.5035 11.984 14.4362L11.13 13.203C8.75163 14.8501 5.52855 14.5225 3.53029 12.4306L2.44562 13.4666ZM11.9841 14.4361C13.2293 13.5732 14.1926 12.3625 14.7536 10.9554L13.3603 10.3998C12.9084 11.5332 12.1326 12.5082 11.1298 13.2032L11.9841 14.4361ZM15.0193 6.18627L15.7293 3.45427L14.2775 3.07698L13.5675 5.80898L15.0193 6.18627ZM14.4894 5.27591L11.8404 4.54391L11.4409 5.98972L14.0899 6.72172L14.4894 5.27591Z" fill="currentColor"/>
</symbol><symbol viewBox="0 0 24 24" fill="none" id="settings" xmlns="http://www.w3.org/2000/svg">
<path fill-rule="evenodd" clip-rule="evenodd" d="M11.5688 9.8895C12.2514 8.90124 12.1158 7.5637 11.2488 6.7325C10.3697 5.88806 9.02522 5.75928 8.00181 6.4215C7.58166 6.69308 7.25196 7.0837 7.05481 7.5435C6.8605 7.99881 6.80957 8.50252 6.90881 8.9875C7.00848 9.47472 7.25237 9.92071 7.60881 10.2675C7.97204 10.6186 8.42969 10.8563 8.92581 10.9515C9.42536 11.049 9.94245 11.0001 10.4148 10.8105C10.8817 10.6237 11.2831 10.3033 11.5688 9.8895Z" stroke="currentColor" stroke-width="1.5" stroke-linecap="round" stroke-linejoin="round"/>
<path fill-rule="evenodd" clip-rule="evenodd" d="M12.4336 17.8895C11.751 16.9012 11.8866 15.5637 12.7536 14.7325C13.6327 13.8881 14.9772 13.7593 16.0006 14.4215C16.4208 14.6931 16.7505 15.0837 16.9476 15.5435C17.1419 15.9988 17.1929 16.5025 17.0936 16.9875C16.9939 17.4747 16.75 17.9207 16.3936 18.2675C16.0304 18.6186 15.5727 18.8563 15.0766 18.9515C14.5779 19.0481 14.062 18.9988 13.5906 18.8095C13.1228 18.6234 12.7203 18.3034 12.4336 17.8895V17.8895Z" stroke="currentColor" stroke-width="1.5" stroke-linecap="round" stroke-linejoin="round"/>
<path d="M12 7.75C11.5858 7.75 11.25 8.08579 11.25 8.5C11.25 8.91421 11.5858 9.25 12 9.25V7.75ZM19 9.25C19.4142 9.25 19.75 8.91421 19.75 8.5C19.75 8.08579 19.4142 7.75 19 7.75V9.25ZM6.857 9.25C7.27121 9.25 7.607 8.91421 7.607 8.5C7.607 8.08579 7.27121 7.75 6.857 7.75V9.25ZM5 7.75C4.58579 7.75 4.25 8.08579 4.25 8.5C4.25 8.91421 4.58579 9.25 5 9.25V7.75ZM12 17.25C12.4142 17.25 12.75 16.9142 12.75 16.5C12.75 16.0858 12.4142 15.75 12 15.75V17.25ZM5 15.75C4.58579 15.75 4.25 16.0858 4.25 16.5C4.25 16.9142 4.58579 17.25 5 17.25V15.75ZM17.1406 15.75C16.7264 15.75 16.3906 16.0858 16.3906 16.5C16.3906 16.9142 16.7264 17.25 17.1406 17.25V15.75ZM18.9976 17.25C19.4118 17.25 19.7476 16.9142 19.7476 16.5C19.7476 16.0858 19.4118 15.75 18.9976 15.75V17.25ZM12 9.25H19V7.75H12V9.25ZM6.857 7.75H5V9.25H6.857V7.75ZM12 15.75H5V17.25H12V15.75ZM17.1406 17.25H18.9976V15.75H17.1406V17.25Z" fill="currentColor"/>
</symbol><symbol viewBox="0 0 24 22" fill="none" id="tg" xmlns="http://www.w3.org/2000/svg">
<path d="M0.423911 10.5742L5.95399 12.6382L8.09447 19.522C8.23143 19.9629 8.77055 20.1258 9.12839 19.8333L12.2109 17.3203C12.5341 17.057 12.9943 17.0439 13.332 17.289L18.8918 21.3256C19.2746 21.6038 19.8169 21.3941 19.9129 20.9315L23.9858 1.34024C24.0906 0.834964 23.5941 0.413445 23.113 0.599525L0.417431 9.3548C-0.142649 9.5708 -0.137769 10.3638 0.423911 10.5742ZM7.74951 11.5395L18.5573 4.88296C18.7516 4.76368 18.9514 5.02633 18.7846 5.18105L9.86503 13.4722C9.55151 13.7641 9.34927 14.1546 9.29199 14.5786L8.98815 16.8302C8.94791 17.1309 8.52559 17.1607 8.44263 16.8698L7.27407 12.7638C7.14023 12.2954 7.33527 11.7952 7.74951 11.5395Z" fill="currentColor"/>
</symbol><symbol viewBox="0 0 24 24" fill="none" id="x" xmlns="http://www.w3.org/2000/svg">
<path d="M13.9027 13.5314L21.3482 22H19.5838L13.119 14.6468L7.95547 22H2L9.8082 10.8807L2 2H3.76443L10.5915 9.76522L16.0445 2H22L13.9023 13.5314H13.9027ZM11.4861 10.7827L10.695 11.8899L4.40018 20.7003H7.11025L12.1902 13.5901L12.9813 12.4828L19.5847 3.24057H16.8746L11.4861 10.7823V10.7827Z" fill="currentColor"/>
</symbol></svg>