<svg width="157" height="51" viewBox="0 0 157 51" fill="none" xmlns="http://www.w3.org/2000/svg">
<g clip-path="url(#clip0_1_146)">
<path d="M33.6876 11.8872C33.6876 11.6571 33.4526 11.5804 33.2959 11.5037C33.1392 11.5037 29.7705 11.2737 29.7705 11.2737C29.7705 11.2737 27.4202 8.97292 27.1851 8.74284C26.9501 8.51276 26.4017 8.58946 26.245 8.58946C26.245 8.58946 25.6966 8.74284 24.9132 8.97292C24.1297 6.74885 22.7979 4.75487 20.3693 4.75487H20.1342C19.4291 3.83457 18.5674 3.45111 17.8623 3.45111C12.2216 3.45111 9.55788 10.3534 8.69611 13.8812C6.5025 14.5714 4.93563 15.0316 4.77894 15.0316C3.60379 15.415 3.52545 15.415 3.36876 16.5654C3.21208 17.5624 0 41.8737 0 41.8737L24.9915 46.4752L38.5449 43.6376C38.4666 43.5609 33.766 12.1173 33.6876 11.8872ZM23.5813 9.43307C22.9546 9.66314 22.2495 9.81652 21.4661 10.0466V9.58645C21.4661 8.206 21.231 7.13231 20.9177 6.21201C22.1712 6.51878 23.0329 7.89923 23.5813 9.43307ZM19.4291 6.59547C19.7425 7.43908 19.9775 8.66615 19.9775 10.2767V10.5067C18.6457 10.8902 17.0788 11.3504 15.5903 11.8105C16.4521 8.74284 18.019 7.13231 19.4291 6.59547ZM17.7056 5.06164C17.9406 5.06164 18.1756 5.13833 18.4107 5.29171C16.6088 6.13532 14.6502 8.206 13.8668 12.424C12.6916 12.8075 11.5165 13.1143 10.4197 13.4977C11.4381 10.2767 13.7101 5.06164 17.7056 5.06164Z" fill="#B4A6A2"/>
<path d="M33.3743 11.5804C33.2176 11.5804 29.8488 11.3503 29.8488 11.3503C29.8488 11.3503 27.4985 9.0496 27.2635 8.81952C27.1852 8.74283 27.0285 8.66614 26.8718 8.66614L24.9915 46.4752L38.5449 43.6376C38.5449 43.6376 33.766 12.194 33.766 11.9639C33.6877 11.6571 33.531 11.5804 33.3743 11.5804Z" fill="#B4A6A2"/>
<path d="M20.3693 18.8662L18.7241 23.6978C18.7241 23.6978 17.2355 22.9309 15.4336 22.9309C12.77 22.9309 12.6916 24.5414 12.6916 24.9248C12.6916 27.1489 18.5674 27.9925 18.5674 33.2075C18.5674 37.2722 15.9037 39.9564 12.3783 39.9564C8.06938 39.9564 5.87576 37.3489 5.87576 37.3489L7.05091 33.6677C7.05091 33.6677 9.32287 35.585 11.2031 35.585C12.4566 35.585 12.9267 34.588 12.9267 33.8978C12.9267 30.9835 8.06938 30.8301 8.06938 26.0752C8.06938 22.0872 11.0464 18.176 16.9222 18.176C19.2725 18.2527 20.3693 18.8662 20.3693 18.8662Z" fill="white"/>
<path d="M54.2919 27.9925C52.9601 27.3023 52.255 26.6887 52.255 25.8451C52.255 24.7714 53.1951 24.0812 54.762 24.0812C56.4855 24.0812 58.0524 24.7714 58.0524 24.7714L59.3059 21.0902C59.3059 21.0902 58.1308 20.2466 54.8403 20.2466C50.2181 20.2466 46.9277 22.8542 46.9277 26.5354C46.9277 28.606 48.4162 30.2166 50.4531 31.3669C52.0983 32.2872 52.6467 32.9008 52.6467 33.8978C52.6467 34.8948 51.8633 35.6617 50.2964 35.6617C48.0245 35.6617 45.9092 34.5113 45.9092 34.5113L44.6557 38.1158C44.6557 38.1158 46.6143 39.4196 49.9047 39.4196C54.6836 39.4196 58.1307 37.1188 58.1307 32.9775C58.1307 30.7534 56.4072 29.1429 54.2919 27.9925ZM73.3294 20.2466C70.9791 20.2466 69.0988 21.3203 67.6886 23.0075H67.6103L69.6472 12.5775H64.3199L59.1492 39.1128H64.4766L66.2785 29.9865C66.9835 26.5354 68.7854 24.388 70.509 24.388C71.6841 24.388 72.1542 25.1549 72.1542 26.3053C72.1542 26.9955 72.0759 27.9158 71.9192 28.606L69.8822 39.0361H75.2096L77.3249 28.2993C77.5599 27.1489 77.7166 25.7684 77.7166 24.9248C77.6382 22.0105 76.0714 20.2466 73.3294 20.2466ZM89.7031 20.2466C83.279 20.2466 79.0484 25.9218 79.0484 32.2105C79.0484 36.2752 81.6338 39.4963 86.4127 39.4963C92.6802 39.4963 96.9107 33.9745 96.9107 27.5323C96.9107 23.7745 94.7171 20.2466 89.7031 20.2466ZM87.1178 35.4316C85.3159 35.4316 84.5325 33.8978 84.5325 32.0572C84.5325 29.0662 86.0993 24.1579 88.998 24.1579C90.8783 24.1579 91.505 25.7684 91.505 27.3023C91.505 30.5233 89.9381 35.4316 87.1178 35.4316ZM110.542 20.2466C106.939 20.2466 104.902 23.3143 104.902 23.3143H104.823L105.137 20.5534H100.436C100.201 22.4707 99.8094 25.3083 99.3393 27.4557L95.6572 46.5519H100.985L102.473 38.806H102.551C102.551 38.806 103.648 39.4963 105.685 39.4963C111.953 39.4963 116.026 33.2075 116.026 26.9188C116.026 23.3143 114.46 20.2466 110.542 20.2466ZM105.45 35.5083C104.04 35.5083 103.257 34.7414 103.257 34.7414L104.118 29.8331C104.745 26.612 106.469 24.388 108.349 24.388C109.994 24.388 110.464 25.8451 110.464 27.2256C110.464 30.7534 108.427 35.5083 105.45 35.5083ZM123.626 12.7308C121.902 12.7308 120.57 14.0346 120.57 15.7218C120.57 17.2557 121.589 18.3293 123.077 18.3293H123.156C124.801 18.3293 126.211 17.2557 126.289 15.3384C126.289 13.8045 125.271 12.7308 123.626 12.7308ZM116.183 39.0361H121.511L125.114 20.5534H119.787L116.183 39.0361ZM138.668 20.6301H134.986L135.142 19.7865C135.456 18.0226 136.552 16.412 138.276 16.412C139.216 16.412 140 16.6421 140 16.6421L141.018 12.5775C141.018 12.5775 140.078 12.1173 138.119 12.1173C136.239 12.1173 134.359 12.6542 132.87 13.8812C131.068 15.4151 130.207 17.5624 129.815 19.7865L129.658 20.6301H127.151L126.368 24.5414H128.875L126.054 39.1128H131.382L134.202 24.5414H137.884L138.668 20.6301ZM151.438 20.6301C151.438 20.6301 148.069 28.8361 146.58 33.2842H146.502C146.424 31.8271 145.17 20.6301 145.17 20.6301H139.529L142.742 37.579C142.82 37.9624 142.742 38.1925 142.663 38.4226C142.036 39.5729 141.018 40.7233 139.764 41.5669C138.746 42.2572 137.649 42.7173 136.787 43.0241L138.276 47.4722C139.373 47.2421 141.566 46.3985 143.525 44.6346C145.954 42.4105 148.226 38.9594 150.498 34.2812L157 20.6301H151.438Z" fill="#B4A6A2"/>
</g>
<defs>
<clipPath id="clip0_1_146">
<rect width="157" height="51" fill="white"/>
</clipPath>
</defs>
</svg>
