<svg width="157" height="51" viewBox="0 0 157 51" fill="none" xmlns="http://www.w3.org/2000/svg">
<g clip-path="url(#clip0_1_137)">
<path d="M38.7799 17.7925H20.4476V23.0842H33.4526C32.8258 30.5233 26.48 33.7444 20.4476 33.7444C12.77 33.7444 6.11078 27.8391 6.11078 19.5564C6.18912 11.5038 12.5349 5.36843 20.5259 5.36843C26.7151 5.36843 30.3189 9.20302 30.3189 9.20302L34.1577 5.36843C34.1577 5.36843 29.3004 0.0767011 20.3693 0.0767011C8.93114 9.39518e-06 0.235031 9.3564 0.235031 19.4797C0.235031 29.3729 8.46108 39.0361 20.6043 39.0361C31.259 39.0361 39.0933 31.9038 39.0933 21.3203C39.0933 19.0962 38.7799 17.7925 38.7799 17.7925Z" fill="#B4A6A2"/>
<path d="M53.7435 13.9579C46.2226 13.9579 40.8169 19.7098 40.8169 26.3819C40.8169 33.2075 46.0659 39.0361 53.8219 39.0361C60.8727 39.0361 66.5918 33.7443 66.5918 26.5353C66.5918 18.1759 59.9326 13.9579 53.7435 13.9579ZM53.8219 18.8662C57.504 18.8662 61.0294 21.7804 61.0294 26.4586C61.0294 31.0601 57.5823 34.0511 53.8219 34.0511C49.748 34.0511 46.5359 30.8301 46.5359 26.3819C46.4576 22.0872 49.6697 18.8662 53.8219 18.8662Z" fill="#B4A6A2"/>
<path d="M81.7904 13.9579C74.2695 13.9579 68.8638 19.7098 68.8638 26.3819C68.8638 33.2075 74.1128 39.0361 81.8688 39.0361C88.9197 39.0361 94.6387 33.7443 94.6387 26.5353C94.6387 18.1759 87.9795 13.9579 81.7904 13.9579ZM81.8688 18.8662C85.5509 18.8662 89.0763 21.7804 89.0763 26.4586C89.0763 31.0601 85.6292 34.0511 81.8688 34.0511C77.7949 34.0511 74.5828 30.8301 74.5828 26.3819C74.5045 22.0872 77.7166 18.8662 81.8688 18.8662Z" fill="#B4A6A2"/>
<path d="M109.289 13.9579C102.395 13.9579 96.989 19.8631 96.989 26.5353C96.989 34.0511 103.256 39.1128 109.211 39.1128C112.893 39.1128 114.773 37.6556 116.261 36.0451V38.4992C116.261 42.794 113.598 45.4015 109.524 45.4015C105.607 45.4015 103.648 42.5639 102.943 40.9534L97.9291 42.9474C99.6527 46.5519 103.178 50.3098 109.446 50.3098C116.261 50.3098 121.51 46.0917 121.51 37.1955V14.7248H116.105V16.8722C114.538 15.1083 112.266 13.9579 109.289 13.9579ZM109.759 18.8662C113.128 18.8662 116.575 21.7037 116.575 26.5353C116.575 31.4436 113.128 34.1278 109.681 34.1278C105.998 34.1278 102.551 31.2135 102.551 26.5353C102.63 21.7037 106.155 18.8662 109.759 18.8662Z" fill="#B4A6A2"/>
<path d="M145.484 13.8812C138.981 13.8812 133.497 18.9428 133.497 26.3819C133.497 34.2812 139.608 38.9594 146.11 38.9594C151.516 38.9594 154.885 36.0451 156.843 33.4376L152.378 30.5233C151.203 32.2872 149.322 33.9744 146.11 33.9744C142.506 33.9744 140.861 32.0571 139.843 30.1398L157 23.1609L156.138 21.0902C154.415 17.2556 150.576 13.8812 145.484 13.8812ZM145.64 18.7127C147.991 18.7127 149.636 19.9398 150.419 21.397L138.903 26.0751C138.433 22.4706 141.958 18.7127 145.64 18.7127Z" fill="#B4A6A2"/>
<path d="M125.271 38.2692H130.912V1.30377H125.271V38.2692Z" fill="#B4A6A2"/>
</g>
<defs>
<clipPath id="clip0_1_137">
<rect width="157" height="51" fill="white"/>
</clipPath>
</defs>
</svg>
