<svg width="157" height="38" viewBox="0 0 157 38" fill="none" xmlns="http://www.w3.org/2000/svg">
<path d="M147.599 23.4466V13.2466H144.073V9.87219H147.599V3.89024H151.359V9.87219H156.217V13.2466H151.359V23.2166C151.359 25.4406 152.299 26.3609 154.023 26.3609C154.728 26.3609 155.198 26.2842 155.747 26.0541L157.078 29.1985C156.217 29.582 155.355 29.7353 154.101 29.7353C149.792 29.7353 147.599 27.4346 147.599 23.4466ZM123.469 19.6887C123.469 14.1669 127.386 9.33535 133.184 9.33535C139.138 9.33535 142.898 13.4 142.898 19.6887C142.898 19.9955 142.82 20.379 142.82 20.379H127.073C127.308 24.5203 130.285 26.7444 133.419 26.7444C135.612 26.7444 137.806 25.9008 138.824 23.3699L142.115 24.7504C140.94 27.5113 138.041 30.0421 133.419 30.0421C127.543 30.0421 123.469 25.5173 123.469 19.6887ZM133.184 12.6331C130.442 12.6331 128.248 14.4737 127.465 17.3113H138.981C138.903 15.6241 137.414 12.6331 133.184 12.6331ZM105.215 26.6677H105.058V29.3519H101.455V0.975952H105.215V9.94888L105.058 12.6331H105.215C106.39 10.8692 108.819 9.25866 112.031 9.25866C117.045 9.25866 121.51 13.7068 121.51 19.612C121.51 25.5173 117.123 29.9654 112.031 29.9654C108.819 30.0421 106.312 28.5083 105.215 26.6677ZM117.672 19.6887C117.672 15.3173 114.695 12.6331 111.326 12.6331C108.035 12.6331 104.98 15.2406 104.98 19.6887C104.98 24.1369 107.957 26.7444 111.326 26.7444C114.695 26.6677 117.672 24.0602 117.672 19.6887ZM79.9885 23.5233C79.9885 19.0752 84.0624 16.6978 88.6846 16.6978C91.3483 16.6978 93.3069 17.4647 94.0903 17.9248V17.388C94.0903 14.4737 91.6617 12.6331 88.9197 12.6331C86.8827 12.6331 84.8458 13.6301 84.1407 15.4707L80.6936 14.0135C81.3987 12.2496 83.749 9.25866 88.763 9.25866C93.6203 9.25866 97.6158 12.0963 97.6158 17.6181V29.3519H94.012V26.6677H93.8553C92.7585 28.2782 90.7216 30.0421 87.3528 30.0421C83.3573 30.0421 79.9885 27.588 79.9885 23.5233ZM94.0903 20.9925C94.0903 20.9925 92.5235 19.6887 89.3114 19.6887C85.3942 19.6887 83.8274 21.7594 83.8274 23.5233C83.8274 25.594 86.021 26.591 87.9796 26.591C90.9566 26.6677 94.0903 24.2135 94.0903 20.9925ZM62.988 9.94888L62.8313 12.6331H62.988C64.0065 10.8692 66.5918 9.25866 69.2555 9.25866C74.3478 9.25866 76.8548 12.6331 76.8548 17.4647V29.3519H73.0943V18.0015C73.0943 13.9369 71.0574 12.6331 68.1587 12.6331C64.9466 12.6331 62.9097 15.6241 62.9097 18.6151V29.3519H59.1492V0.975952H62.9097L62.988 9.94888ZM40.2685 26.6677H40.1118L40.2685 29.3519V37.9414H36.508V9.94888H40.1118V12.6331H40.2685C41.4436 10.8692 43.8723 9.25866 47.0843 9.25866C52.0983 9.25866 56.5639 13.7068 56.5639 19.612C56.5639 25.5173 52.0983 30.0421 47.006 30.0421C43.8723 30.0421 41.3653 28.5083 40.2685 26.6677ZM52.7251 19.6887C52.7251 15.3173 49.748 12.6331 46.3792 12.6331C43.0888 12.6331 40.0334 15.2406 40.0334 19.6887C40.0334 24.1369 43.0105 26.7444 46.3792 26.7444C49.748 26.6677 52.7251 24.0602 52.7251 19.6887ZM28.8303 29.4286H32.5908V0.975952H28.8303V29.4286ZM11.5165 0.975952L0.548401 29.4286H4.7006L7.52096 21.6827H19.7425L22.5629 29.4286H26.6367L15.6687 0.975952H11.5165ZM13.475 5.42407H13.6317L18.4107 18.3083H8.77445L13.475 5.42407Z" fill="#B4A6A2"/>
</svg>
