<svg width="156" height="51" viewBox="0 0 156 51" fill="none" xmlns="http://www.w3.org/2000/svg">
<path d="M94.1137 36.5053C84.6946 40.4166 74.497 42.3339 65.2335 42.3339C51.4551 42.3339 38.1437 38.6526 27.3233 32.4406C26.3892 31.9038 25.6886 32.9008 26.4671 33.591C36.4311 42.4105 49.6647 47.779 64.3772 47.779C74.8084 47.779 86.9521 44.4812 95.3593 38.4226C96.6826 37.4256 95.4371 35.8917 94.1137 36.5053Z" fill="#B4A6A2"/>
<path d="M88.8203 33.0541C88.1197 33.591 88.2754 34.2812 89.0539 34.2045C91.7006 33.8978 97.7724 33.2075 98.8622 34.588C99.9521 35.9684 97.6946 41.4902 96.6826 44.0211C96.3712 44.788 97.0718 45.0947 97.6946 44.5579C102.21 40.8767 103.377 33.0541 102.365 31.9805C101.431 30.6767 93.5688 29.7564 88.8203 33.0541Z" fill="#B4A6A2"/>
<path d="M105.168 23.6211C102.599 22.1639 99.5628 21.7805 96.7605 21.8572L104.389 11.1203C105.09 10.2 105.479 9.58648 105.479 9.12633V6.36543C105.479 5.82859 105.09 5.59851 104.623 5.59851H89.9102C89.4431 5.59851 89.1317 5.98197 89.1317 6.36543V9.58648C89.1317 10.1233 89.5209 10.3534 89.988 10.3534H97.6946L88.8203 22.7775C88.2754 23.5444 88.2754 24.4647 88.2754 25.0015V28.2993C88.2754 28.8361 88.8203 29.2963 89.2874 28.9895C94.2694 26.382 100.263 26.612 104.778 28.9895C105.323 29.2963 105.868 28.6827 105.868 28.2993V24.9248C105.868 24.388 105.713 24.0045 105.168 23.6211Z" fill="#B4A6A2"/>
<path d="M31.2155 29.7564H35.7305C36.2754 29.7564 36.5868 29.3729 36.5868 28.9895V17.0256C36.5868 14.418 36.4311 10.8135 39.7006 10.8135C42.8922 10.8135 42.4251 14.4947 42.4251 17.0256V28.9895C42.4251 29.4496 42.8144 29.7564 43.2036 29.7564H47.7185C48.2635 29.7564 48.5748 29.3729 48.5748 28.9895V17.0256C48.5748 15.7218 48.497 13.8045 49.0419 12.6541C49.509 11.5038 50.5988 10.8135 51.6886 10.8135C53.012 10.8135 54.0239 11.2737 54.2575 12.7308C54.491 13.6511 54.4132 16.0286 54.4132 16.9489V28.9128C54.4132 29.3729 54.8024 29.6797 55.1916 29.6797H59.7066C60.2515 29.6797 60.5629 29.2962 60.5629 28.9128V14.6481C60.5629 12.194 60.8742 9.43307 59.3952 7.59247C58.1497 5.90525 56.0479 5.06165 54.2575 5.06165C51.6886 5.06165 49.1976 6.4421 48.1078 9.27969C46.8623 6.4421 45.1497 5.06165 42.3473 5.06165C39.6227 5.06165 37.5988 6.4421 36.509 9.27969H36.4311V6.36541C36.4311 5.90525 36.0419 5.67518 35.6527 5.59849H31.5269C30.982 5.59849 30.6706 5.98195 30.6706 6.36541V28.9128C30.4371 29.3729 30.7485 29.6797 31.2155 29.7564Z" fill="#B4A6A2"/>
<path d="M118.09 5.13831C111.629 5.13831 108.048 10.6601 108.048 17.6391C108.048 24.618 111.629 30.2165 118.09 30.2165C124.317 30.2165 128.287 24.6947 128.287 17.8691C128.365 10.8135 124.784 5.13831 118.09 5.13831ZM118.09 25.5383C114.587 25.5383 114.587 19.633 114.587 16.8721C114.587 14.1112 114.82 9.73981 118.09 9.73981C119.569 9.73981 120.503 10.3533 120.97 11.9639C121.515 13.7278 121.593 16.0285 121.593 17.9458C121.748 20.8601 121.593 25.5383 118.09 25.5383Z" fill="#B4A6A2"/>
<path d="M143.623 5.13831C140.509 5.13831 138.796 6.67214 137.551 9.73981H137.473V6.28868C137.395 5.90522 137.006 5.67515 136.695 5.67515H132.569C132.102 5.67515 131.79 6.05861 131.713 6.36537V28.9127C131.713 29.3729 132.102 29.6797 132.491 29.6797H136.928C137.473 29.6797 137.784 29.2962 137.784 28.9127V16.7954C137.784 15.2616 137.862 13.8812 138.485 12.5007C139.03 11.427 140.042 10.7368 141.054 10.7368C144.168 10.7368 143.856 14.3413 143.856 16.7954V29.0661C143.934 29.4496 144.245 29.7563 144.635 29.7563H149.15C149.617 29.7563 149.928 29.4496 150.006 29.0661V14.8782C150.006 12.6541 150.006 9.66312 148.838 7.89921C147.593 5.82853 145.647 5.13831 143.623 5.13831Z" fill="#B4A6A2"/>
<path d="M77.5329 14.4947C74.9641 14.8015 71.6168 15.0316 69.1257 16.0286C66.3233 17.2556 64.3772 19.6331 64.3772 23.2376C64.3772 27.8391 67.2575 30.0632 71.0718 30.0632C74.2635 30.0632 75.976 29.3729 78.4671 26.8421C79.2455 27.9925 79.5569 28.5293 81.0359 29.7564C81.4251 29.9098 81.7365 29.9098 82.1257 29.6797C82.982 28.9128 84.6946 27.5323 85.5509 26.7654C85.9401 26.4586 85.8623 25.9985 85.5509 25.615C84.7724 24.4647 83.9162 23.621 83.9162 21.5504V14.7248C83.9162 11.8105 84.1497 9.12631 81.97 7.13232C80.3353 5.5218 77.3772 4.90826 75.1976 4.90826C70.9161 4.90826 66.2455 6.4421 65.2335 11.5804C65.1557 12.1173 65.5449 12.4241 65.8563 12.5007L70.0599 13.0376C70.5269 13.0376 70.7605 12.5774 70.8383 12.2707C71.2275 10.5068 72.7066 9.66315 74.4191 9.66315C75.3533 9.66315 76.3653 10.0466 76.988 10.8135C77.6108 11.7338 77.5329 12.9609 77.5329 14.0346V14.4947ZM76.5988 23.621C75.8982 24.8481 74.8084 25.615 73.485 25.615C71.7724 25.615 70.7605 24.3113 70.7605 22.394C70.7605 18.6361 74.1856 17.9459 77.4551 17.9459V18.8662C77.5329 20.7068 77.5329 22.1639 76.5988 23.621Z" fill="#B4A6A2"/>
<path d="M26.9341 25.615C26.1557 24.4647 25.2994 23.621 25.2994 21.5504V14.7248C25.2994 11.8105 25.5329 9.12631 23.3533 7.13232C21.6407 5.5218 18.7605 4.90826 16.5808 4.90826C12.2994 4.90826 7.62873 6.4421 6.61675 11.5804C6.53891 12.1173 6.92813 12.4241 7.23951 12.5007L11.5988 12.9609C12.0659 12.9609 12.2994 12.5007 12.3772 12.194C12.7665 10.4301 14.2455 9.58646 16.0359 9.58646C16.97 9.58646 17.982 9.96992 18.6048 10.7368C19.2275 11.6571 19.1497 12.8842 19.1497 13.9579V14.4947C16.503 14.8015 13.1557 15.0316 10.6647 16.0286C7.86226 17.2556 5.91615 19.6331 5.91615 23.2376C5.91615 27.8391 8.79639 30.0632 12.6108 30.0632C15.8024 30.0632 17.515 29.3729 20.006 26.8421C20.7844 27.9925 21.0958 28.5293 22.5748 29.7564C22.9641 29.9098 23.2754 29.9098 23.6647 29.6797C24.5209 28.9128 26.2335 27.5323 27.0898 26.7654C27.3233 26.4586 27.2455 25.9985 26.9341 25.615ZM18.2156 23.621C17.515 24.8481 16.4251 25.615 15.1018 25.615C13.3892 25.615 12.4551 24.3113 12.4551 22.394C12.4551 18.6361 15.8802 17.9459 19.1497 17.9459V18.8662C18.994 20.7068 19.0718 22.1639 18.2156 23.621Z" fill="#B4A6A2"/>
</svg>
