<svg width="60" height="60" viewBox="0 0 60 60" fill="none" xmlns="http://www.w3.org/2000/svg">
<mask id="mask0_914_1068" style="mask-type:luminance" maskUnits="userSpaceOnUse" x="0" y="0" width="60" height="60">
<path d="M60 0H0V60H60V0Z" fill="white"/>
</mask>
<g mask="url(#mask0_914_1068)">
<path fill-rule="evenodd" clip-rule="evenodd" d="M43.9113 10.3766C44.2887 9.46689 44.4816 8.49138 44.4795 7.50654C44.4801 6.02493 44.0418 4.57635 43.2198 3.34365C42.3978 2.11094 41.2293 1.14941 39.8613 0.58041C38.4933 0.0114159 36.9873 -0.139523 35.5335 0.14665C34.08 0.432822 32.7435 1.14328 31.6932 2.18832L30.0012 3.76413L28.3206 2.19349C26.9132 0.787812 25.0051 -0.00121077 23.0159 1.39462e-06C21.0268 0.00121356 19.1196 0.792561 17.714 2.19995C16.3083 3.60735 15.5192 5.5155 15.5204 7.50465C15.5217 9.49377 16.313 11.401 17.7204 12.8066L29.2643 24.5212C29.3605 24.6189 29.4752 24.6965 29.6018 24.7495C29.7282 24.8024 29.864 24.8297 30.0012 24.8297C30.1383 24.8297 30.2742 24.8024 30.4005 24.7495C30.5271 24.6965 30.6417 24.6189 30.738 24.5212L42.282 12.8066C42.9804 12.1123 43.5342 11.2864 43.9113 10.3766ZM16.0886 49.6233C15.7114 50.5332 15.5183 51.5085 15.5205 52.4934C15.5198 53.9751 15.9581 55.4238 16.7801 56.6565C17.6021 57.8892 18.7708 58.8507 20.1388 59.4195C21.5068 59.9886 23.0127 60.1395 24.4664 59.8533C25.9201 59.5671 27.2564 58.8567 28.3067 57.8118L29.9988 56.2359L31.6794 57.8064C33.0867 59.2122 34.995 60.0012 36.984 60C38.9733 59.9988 40.8804 59.2074 42.2862 57.8001C43.6917 56.3928 44.4807 54.4845 44.4795 52.4955C44.4783 50.5062 43.6869 48.5991 42.2796 47.1933L30.7356 35.4789C30.6396 35.3811 30.5247 35.3034 30.3981 35.2506C30.2718 35.1975 30.1359 35.1702 29.9988 35.1702C29.8617 35.1702 29.7259 35.1975 29.5994 35.2506C29.4729 35.3034 29.3582 35.3811 29.262 35.4789L17.7181 47.1933C17.0196 47.8878 16.4658 48.7137 16.0886 49.6233ZM52.4934 44.4798C51.5085 44.4819 50.5332 44.2887 49.6233 43.9116C48.7137 43.5345 47.8878 42.9804 47.1933 42.282L35.4789 30.7383C35.3811 30.642 35.3034 30.5271 35.2506 30.4008C35.1975 30.2742 35.1702 30.1386 35.1702 30.0012C35.1702 29.8642 35.1975 29.7284 35.2506 29.6019C35.3034 29.4754 35.3811 29.3607 35.4789 29.2645L47.1933 17.7206C48.5991 16.3132 50.5062 15.5218 52.4955 15.5206C54.4845 15.5194 56.3928 16.3084 57.8001 17.7141C59.2074 19.1198 59.9988 21.027 60 23.0161C60.0012 25.0053 59.2122 26.9134 57.8064 28.3208L56.2359 30.0012L57.8118 31.6935C58.8567 32.7438 59.5671 34.08 59.8533 35.5338C60.1395 36.9876 59.9886 38.4933 59.4195 39.8613C58.8507 41.2293 57.8892 42.3981 56.6565 43.2201C55.4238 44.0421 53.9751 44.4804 52.4934 44.4798ZM10.3766 16.0884C9.46689 15.7112 8.49138 15.5181 7.50654 15.5203C6.02493 15.5196 4.57632 15.958 3.34365 16.7799C2.11094 17.6019 1.1494 18.7706 0.58041 20.1386C0.0114157 21.5066 -0.139523 23.0125 0.146649 24.4662C0.432822 25.9199 1.14327 27.2563 2.18832 28.3065L3.76413 29.9987L2.19349 31.6791C0.787809 33.0867 -0.0012108 34.9947 1.39468e-06 36.984C0.00121359 38.973 0.792558 40.8801 2.19995 42.2859C3.60735 43.6917 5.5155 44.4807 7.50465 44.4795C9.49377 44.4783 11.401 43.6869 12.8066 42.2793L24.5212 30.7356C24.6189 30.6393 24.6965 30.5247 24.7495 30.3981C24.8024 30.2715 24.8297 30.1359 24.8297 29.9987C24.8297 29.8615 24.8024 29.7257 24.7495 29.5993C24.6965 29.4728 24.6189 29.3581 24.5212 29.2618L12.8066 17.7179C12.1123 17.0195 11.2864 16.4656 10.3766 16.0884Z" fill="#4886FF"/>
</g>
</svg>
