<svg width="119" height="19" viewBox="0 0 119 19" fill="none" xmlns="http://www.w3.org/2000/svg">
<path d="M50.8396 17.2662L45.663 2.54092C45.6012 2.33468 45.498 2.06658 45.498 1.83972C45.498 1.20038 46.0343 0.602295 46.7767 0.602295C47.4367 0.602295 47.8698 1.03539 48.0554 1.67473L52.3451 14.3789L56.6761 1.6541C56.8823 1.05602 57.2742 0.622919 57.9341 0.622919H58.0579C58.7591 0.622919 59.1715 1.05602 59.3778 1.6541L63.6675 14.3789L68.0191 1.61285C68.1841 1.07664 68.5553 0.602295 69.2359 0.602295C69.9577 0.602295 70.4939 1.17976 70.4939 1.81909C70.4939 2.04595 70.3908 2.31406 70.3289 2.5203L65.1112 17.2868C64.843 18.0499 64.3275 18.4624 63.7294 18.4624H63.6262C62.9663 18.4624 62.4713 18.0499 62.2445 17.2868L57.996 4.74765L53.7063 17.2662C53.4794 18.0293 52.9844 18.4418 52.3245 18.4418H52.2626C51.6233 18.4418 51.1077 18.0499 50.8396 17.2662Z" fill="#787477"/>
<path d="M88.5801 1.86044C88.5801 1.15924 89.1369 0.540527 89.8381 0.540527C90.56 0.540527 91.1374 1.11799 91.1374 1.86044V4.85087C92.3955 1.94294 95.1797 0.581775 97.0152 0.581775C97.7782 0.581775 98.2732 1.15924 98.2732 1.90169C98.2732 2.60289 97.8195 3.11849 97.1389 3.2216C93.8391 3.63408 91.1168 6.15017 91.1168 11.203V17.122C91.1168 17.8232 90.5806 18.4419 89.8587 18.4419C89.1369 18.4419 88.5801 17.8644 88.5801 17.122V1.86044Z" fill="#787477"/>
<path d="M111.39 8.58376C111.122 5.44896 109.39 2.70601 106.049 2.70601C103.141 2.70601 100.934 5.20148 100.604 8.58376H111.39ZM106.44 18.5862C101.841 18.5862 98.0879 14.9358 98.0879 9.59432V9.53245C98.0879 4.56214 101.491 0.540527 106.111 0.540527C111.06 0.540527 113.886 4.70651 113.886 9.30559C113.886 10.0068 113.329 10.5018 112.71 10.5018H100.604C100.955 14.2346 103.512 16.3589 106.502 16.3589C108.565 16.3589 110.091 15.5133 111.328 14.3584C111.514 14.1934 111.741 14.0697 112.05 14.0697C112.669 14.0697 113.143 14.5646 113.143 15.1833C113.143 15.4927 113.019 15.7814 112.751 16.0083C111.163 17.5551 109.287 18.5862 106.44 18.5862Z" fill="#787477"/>
<path d="M83.095 11.8216V10.1304C81.8369 9.7592 80.1664 9.38798 78.0834 9.38798C74.8868 9.38798 73.1131 10.811 73.1131 12.9971V13.059C73.1131 15.2451 75.093 16.5238 77.4028 16.5238C80.517 16.5444 83.095 14.5851 83.095 11.8216ZM70.5352 13.1827V13.1209C70.5352 9.44985 73.505 7.4906 77.8153 7.4906C80.0014 7.4906 81.5482 7.79995 83.0537 8.23305V7.63497C83.0537 4.50017 81.177 2.89152 77.9803 2.89152C76.2685 2.89152 75.258 3.11838 74.0206 3.67522C73.8556 3.73709 73.6906 3.77834 73.5668 3.77834C72.9688 3.77834 72.4532 3.26275 72.4532 2.66466C72.4532 2.12845 72.68 1.79847 73.1544 1.59223C74.8249 0.849779 76.1035 0.602295 78.269 0.602295C80.682 0.602295 82.5175 1.24163 83.7756 2.5203C84.9305 3.69585 85.5286 5.38699 85.5286 7.61434V17.225C85.5286 17.9674 84.9924 18.5036 84.3118 18.5036C83.5899 18.5036 83.095 17.9674 83.095 17.2868V15.6163C81.8988 17.2043 79.9189 18.6068 76.9285 18.6068C73.7318 18.5861 70.5352 16.7506 70.5352 13.1827Z" fill="#787477"/>
<path d="M4.6835 1.67473C4.12666 0.416689 2.74488 -0.14015 1.46621 0.437313C0.166919 1.0354 -0.307426 2.47906 0.270037 3.7371L5.67344 15.7401C6.51901 17.6168 7.42645 18.6068 9.09697 18.6068C10.8912 18.6068 11.6749 17.5343 12.5205 15.7401C12.5205 15.7401 17.2433 5.24263 17.2846 5.13951C17.3258 5.03639 17.4908 4.68579 17.9651 4.68579C18.3776 4.68579 18.7076 5.01577 18.7076 5.46949V15.7401C18.7076 17.3281 19.5738 18.6274 21.2237 18.6274C22.8736 18.6274 23.7604 17.3281 23.7604 15.7401V7.34624C23.7604 5.71697 24.8947 4.68579 26.4415 4.68579C27.9882 4.68579 29.0194 5.77884 29.0194 7.34624V15.7401C29.0194 17.3281 29.8856 18.6274 31.5355 18.6274C33.1854 18.6274 34.0722 17.3281 34.0722 15.7401V7.34624C34.0722 5.71697 35.2065 4.68579 36.7533 4.68579C38.3001 4.68579 39.3313 5.77884 39.3313 7.34624V15.7401C39.3313 17.3281 40.1975 18.6274 41.8474 18.6274C43.4972 18.6274 44.3841 17.3281 44.3841 15.7401V6.19132C44.3841 2.68529 41.6205 0.210453 38.3001 0.210453C34.9797 0.210453 32.8967 2.56155 32.8967 2.56155C31.8036 1.09727 30.2775 0.210453 27.6995 0.210453C24.9772 0.210453 22.5848 2.56155 22.5848 2.56155C21.4918 1.09727 19.615 0.210453 18.0476 0.210453C15.6347 0.210453 13.7167 1.30351 12.5411 4.02583L9.09697 12.3372L4.6835 1.67473Z" fill="#787477"/>
<path d="M117.887 2.70588C117.887 1.73657 117.165 0.932249 116.175 0.932249C115.205 0.932249 114.463 1.73657 114.463 2.70588V2.72651C114.463 3.69582 115.205 4.47952 116.175 4.47952C117.144 4.4589 117.887 3.65457 117.887 2.70588ZM114.092 2.70588C114.092 1.50971 115.02 0.519775 116.195 0.519775C117.392 0.519775 118.299 1.48909 118.299 2.66464C118.299 3.84019 117.371 4.83012 116.195 4.83012C114.999 4.87137 114.092 3.90206 114.092 2.70588Z" fill="#787477"/>
<path d="M116.298 2.62335C116.525 2.62335 116.628 2.49961 116.628 2.33462C116.628 2.14901 116.504 2.04589 116.277 2.04589H115.824V2.64398H116.298V2.62335ZM115.391 1.83965C115.391 1.71591 115.494 1.61279 115.617 1.61279H116.319C116.587 1.61279 116.793 1.69529 116.917 1.81903C117.041 1.94277 117.102 2.10776 117.102 2.29337C117.102 2.62335 116.937 2.82959 116.69 2.93271L116.999 3.32456C117.041 3.38643 117.082 3.42768 117.082 3.48955C117.082 3.61329 116.979 3.69578 116.876 3.69578C116.772 3.69578 116.711 3.63391 116.649 3.57204L116.216 3.0152H115.865V3.46892C115.865 3.59267 115.762 3.69578 115.638 3.69578C115.514 3.69578 115.411 3.59267 115.411 3.46892V1.83965H115.391Z" fill="#787477"/>
</svg>
