<svg width="65" height="25" viewBox="0 0 65 25" fill="none" xmlns="http://www.w3.org/2000/svg">
<path d="M43.8362 2.16613L43.1747 0.446411H33.7824V2.16613H43.8362ZM44.8945 5.20871L44.3653 3.62128H33.7824V5.34099H44.8945V5.20871ZM51.9056 24.2579H60.2396V22.5382H52.0379V24.2579H51.9056ZM51.9056 21.083H60.2396V19.3633H52.0379V21.083H51.9056ZM51.9056 17.9082H56.8002V16.3207H51.9056V17.9082ZM56.9325 13.1459H52.0379V14.8656H56.9325V13.1459ZM51.9056 11.5584H56.8002V9.971H47.4079L46.8788 11.2939L46.3496 9.971H36.9573V11.6907H41.8519V10.1033L42.381 11.6907H51.2442L51.7733 10.1033V11.5584H51.9056ZM56.9325 6.79614H48.5985L47.937 8.38357H56.9325V6.79614ZM37.0896 14.7333H41.9842V13.1459H37.0896V14.7333ZM37.0896 17.9082H41.9842V16.3207H37.0896V17.9082ZM33.7824 21.083H41.9842V19.3633H33.7824V21.083ZM33.7824 24.2579H41.9842V22.5382H33.7824V24.2579ZM50.7151 0.446411L50.1859 2.16613H60.2396V0.446411H50.7151ZM49.1276 5.20871H60.2396V3.62128H49.6568L49.1276 5.20871ZM37.0896 8.38357H46.085L45.5559 6.66385H37.2219V8.38357H37.0896ZM43.7039 14.7333H50.3182L50.8473 13.0136H43.0425L43.7039 14.7333ZM44.7622 17.9082H49.1276L49.6568 16.1884H44.1008L44.7622 17.9082ZM45.8205 21.083H48.0693L48.5985 19.3633H45.2913L45.8205 21.083ZM47.011 24.2579L47.5402 22.5382H46.3496L47.011 24.2579ZM13.9395 24.2579H26.1099C27.6973 24.2579 29.2847 23.5965 30.343 22.5382H13.9395V24.2579ZM26.9036 16.3207V18.0405H32.4596C32.4596 17.5113 32.3273 16.8499 32.195 16.3207H26.9036ZM17.2467 17.9082H22.1413V16.3207H17.2467V17.9082ZM26.9036 8.38357H32.195C32.3273 7.85443 32.4596 7.32528 32.4596 6.79614H26.9036V8.38357ZM17.2467 8.38357H22.1413V6.79614H17.2467V8.38357ZM26.1099 0.446411H13.9395V2.16613H30.343C29.2847 1.10784 27.6973 0.446411 26.1099 0.446411ZM31.5336 3.62128H13.9395V5.34099H32.195C32.0627 4.67956 31.7982 4.15042 31.5336 3.62128ZM17.2467 9.971V11.6907H30.2107C30.7399 11.1616 31.269 10.6324 31.5336 9.971H17.2467ZM30.2107 13.1459H17.2467V14.8656H31.5336C31.1367 14.2042 30.7399 13.5427 30.2107 13.1459ZM13.9395 21.083H31.5336C31.7982 20.5539 32.0627 20.0247 32.195 19.3633H13.9395V21.083ZM0.710938 2.16613H12.2198V0.446411H0.710938V2.16613ZM0.710938 5.20871H12.2198V3.62128H0.710938V5.20871ZM8.91267 6.79614H4.01809V8.38357H8.91267V6.79614ZM4.01809 11.5584H8.91267V9.971H4.01809V11.5584ZM4.01809 14.7333H8.91267V13.1459H4.01809V14.7333ZM4.01809 17.9082H8.91267V16.3207H4.01809V17.9082ZM0.710938 21.083H12.2198V19.3633H0.710938V21.083ZM0.710938 22.6705H12.2198V24.2579H0.710938V22.6705ZM63.2822 23.0673C63.4145 23.0673 63.4145 23.0673 63.4145 22.935V22.8027C63.4145 22.6705 63.4145 22.6705 63.2822 22.6705H63.0177V23.0673H63.2822ZM63.0177 23.7288H62.7531V22.4059H63.4145C63.6791 22.4059 63.8114 22.5382 63.8114 22.8027C63.8114 23.0673 63.6791 23.1996 63.5468 23.1996L63.8114 23.7288H63.4145L63.1499 23.3319H63.0177V23.7288ZM64.2082 23.0673V22.935C64.2082 22.4059 63.8114 22.009 63.2822 22.009C62.7531 22.009 62.3562 22.4059 62.3562 22.935V23.0673C62.3562 23.5965 62.7531 23.9933 63.2822 23.9933C63.8114 24.1256 64.2082 23.5965 64.2082 23.0673ZM61.9594 23.0673C61.9594 22.2736 62.4885 21.7445 63.2822 21.7445C63.9437 21.7445 64.6051 22.2736 64.6051 23.0673C64.6051 23.861 64.0759 24.3902 63.2822 24.3902C62.4885 24.3902 61.9594 23.7288 61.9594 23.0673Z" fill="black"/>
</svg>
