<svg width="128" height="23" viewBox="0 0 128 23" fill="none" xmlns="http://www.w3.org/2000/svg">
<path d="M28.8549 0.36731L17.6595 8.98084C16.5112 4.6747 12.7802 1.51418 8.18667 1.51418H0.148438V21.3224H8.18667C12.7798 21.3224 16.7982 18.1652 17.6593 13.8593L28.854 22.4692L40.0522 13.8593V21.3224H52.6813V17.3033H44.3589V1.51418H39.7646V8.97729L29.1421 17.5951L26.8448 15.5855L32.0142 11.5629L37.4674 7.25973L34.3115 4.67842L23.6889 13.0008L21.3916 10.9913L32.0147 2.95305L28.8549 0.371745V0.36731ZM4.45565 5.5333H7.89964C8.61739 5.5333 9.31882 5.69473 9.96472 5.99063C10.6106 6.28671 11.2017 6.71707 11.7041 7.2553C12.2065 7.79352 12.6193 8.43765 12.9063 9.16445C13.1934 9.89107 13.3534 10.7007 13.3534 11.5621C13.3534 12.3516 13.2091 13.122 12.9445 13.835C12.6794 14.5481 12.2959 15.2052 11.8114 15.7613C11.3271 16.3176 10.7419 16.7734 10.0825 17.0918C9.42313 17.4104 8.68924 17.5873 7.89964 17.5873H4.45565V5.5333ZM67.0361 17.3041V21.3233H54.4051V1.51507H58.9983V17.3034L67.0361 17.3041Z" fill="#007DB8"/>
<path d="M120.224 21.6869C124.11 21.6869 127.267 19.7439 127.875 15.4938L127.632 15.2509H126.539L126.296 15.4938C125.689 18.5296 123.746 20.2298 120.346 20.2298C116.095 20.2298 113.06 17.0724 113.06 11.4864C113.06 5.90031 116.217 2.74316 120.346 2.74316C123.746 2.74316 125.689 4.44316 126.296 7.23629L126.539 7.47932H127.632L127.875 7.23664C127.268 3.35075 124.231 1.28638 120.224 1.28638C115.488 1.28638 111.237 4.68655 111.237 11.3654C111.237 18.2874 115.488 21.6869 120.224 21.6869ZM107.838 21.0797V1.89237L107.595 1.64951H105.652L105.409 1.89254L98.1229 19.0149H97.8799L90.3512 1.89254L90.1081 1.64951H88.1653L87.9222 1.89254V21.0798L88.1653 21.3225H89.258L89.5011 21.0797V4.80754H89.7439L96.7871 21.0798L97.03 21.3229H98.4871L98.7302 21.0798L105.773 4.80754H106.138V21.0798L106.38 21.3229H107.473L107.838 21.0797ZM84.1588 21.0797V20.2298L83.9157 19.9867H73.4723L73.2297 19.7439V12.4578L73.4725 12.2149H83.3087L83.5515 11.9721V11.0007L83.3085 10.7578H73.4725L73.2295 10.5148V3.3504L73.4725 3.10736H83.9159L84.1588 2.86468V1.8929L83.9157 1.64986H71.7723L71.5293 1.8929V21.0802L71.7723 21.3231H83.9159L84.1588 21.0797Z" fill="#808080"/>
</svg>
