<svg width="107" height="33" viewBox="0 0 107 33" fill="none" xmlns="http://www.w3.org/2000/svg">
<path d="M11.9571 19.7249C11.9571 20.4224 11.8096 21.0706 11.5146 21.6695C11.2196 22.2604 10.8016 22.7691 10.277 23.1793C9.74431 23.5978 9.11329 23.9178 8.38389 24.1476C7.65449 24.3773 6.85133 24.4921 5.98261 24.4921C4.94178 24.4921 4.0075 24.3526 3.18794 24.0655C2.36839 23.7865 1.54064 23.3106 0.712891 22.6542L2.08155 20.4306C2.73719 20.9803 3.32726 21.3824 3.85997 21.6367C4.38448 21.8912 4.92539 22.0142 5.48268 22.0142C6.16292 22.0142 6.70381 21.8418 7.12179 21.4891C7.53976 21.1362 7.73645 20.6685 7.73645 20.0695C7.73645 19.8152 7.69547 19.5773 7.62172 19.3557C7.54795 19.1341 7.40863 18.9044 7.21194 18.6665C7.01525 18.4368 6.7366 18.1742 6.38419 17.9034C6.03998 17.6326 5.58923 17.288 5.03193 16.8859C4.61396 16.5905 4.19598 16.2787 3.79441 15.9669C3.39282 15.6469 3.03222 15.3105 2.69621 14.9495C2.36839 14.5885 2.10613 14.1865 1.90124 13.7351C1.70455 13.2921 1.59801 12.7751 1.59801 12.209C1.59801 11.5526 1.73734 10.9453 2.00779 10.4038C2.27824 9.8623 2.65523 9.40278 3.13057 9.01713C3.6059 8.63149 4.1714 8.3361 4.84343 8.12277C5.50727 7.90943 6.22848 7.80277 7.01525 7.80277C7.84299 7.80277 8.63795 7.90944 9.40833 8.13098C10.1787 8.35252 10.8917 8.67252 11.5556 9.09918L10.318 11.1013C9.47391 10.5104 8.58058 10.2069 7.6463 10.2069C7.0808 10.2069 6.60547 10.3546 6.23667 10.65C5.86787 10.9453 5.67937 11.3146 5.67937 11.7658C5.67937 12.1925 5.84328 12.5782 6.1711 12.9146C6.49892 13.2592 7.06442 13.727 7.86758 14.3505C8.67894 14.9413 9.35097 15.4665 9.87547 15.9095C10.4082 16.3526 10.8262 16.7793 11.1376 17.1731C11.449 17.567 11.6539 17.9608 11.7768 18.3711C11.8997 18.7895 11.9571 19.2326 11.9571 19.7249ZM26.0124 15.9752C26.0124 16.5905 25.9468 17.2552 25.8158 17.969C25.6928 18.6829 25.4715 19.3393 25.1602 19.9465C24.8487 20.5536 24.4471 21.0542 23.9472 21.4398C23.4473 21.8337 22.808 22.0306 22.0458 22.0306C20.7673 22.0306 19.7592 21.5219 19.0217 20.4962C18.2841 19.4788 17.9153 18.0757 17.9153 16.2952C17.9153 14.4654 18.2841 13.0212 19.0381 11.9464C19.7839 10.8715 20.8001 10.3381 22.0786 10.3381C23.2916 10.3381 24.2504 10.8469 24.9552 11.8479C25.6601 12.8572 26.0124 14.2357 26.0124 15.9752ZM30.4544 15.8192C30.4544 14.6295 30.2823 13.5464 29.9463 12.5782C29.6021 11.6018 29.1267 10.7648 28.4957 10.0592C27.8646 9.35355 27.127 8.81201 26.2665 8.41816C25.4059 8.02431 24.4553 7.82738 23.4145 7.82738C22.2671 7.82738 21.2591 8.04892 20.3903 8.4756C19.5216 8.91047 18.7102 9.59146 17.9726 10.5269L17.9481 8.20482H13.8585V32.0738H17.9399V21.9896C18.3415 22.4573 18.7266 22.8511 19.1036 23.1712C19.4724 23.4911 19.8494 23.7537 20.2347 23.9506C20.6198 24.1476 21.0213 24.2952 21.4475 24.3773C21.8737 24.4594 22.3327 24.5004 22.8162 24.5004C23.898 24.5004 24.9143 24.2788 25.8486 23.8522C26.7828 23.4173 27.5942 22.8101 28.2744 22.0224C28.9546 21.2347 29.4873 20.3157 29.8726 19.2736C30.2659 18.2234 30.4544 17.0665 30.4544 15.8192ZM32.2739 24.1148H36.4699V0.762695H32.2739V24.1148ZM54.369 24.1229V8.18841H50.1728V16.7628C50.1728 17.526 50.14 18.1167 50.0745 18.5352C50.0089 18.9537 49.9023 19.3229 49.7548 19.6675C49.1648 20.9803 48.0747 21.6449 46.493 21.6449C45.2555 21.6449 44.395 21.2019 43.9032 20.3075C43.7066 19.9711 43.5754 19.5854 43.5017 19.1587C43.4279 18.7321 43.3869 18.1167 43.3869 17.3044V8.18841H39.1908V17.2388C39.1908 17.8541 39.199 18.3793 39.2073 18.7978C39.2154 19.2162 39.2482 19.6019 39.2892 19.93C39.3302 20.2583 39.3793 20.5536 39.4367 20.8081C39.4858 21.0624 39.5679 21.3085 39.6744 21.5383C40.0595 22.5147 40.6742 23.2532 41.5347 23.7537C42.3953 24.2542 43.4525 24.5004 44.6983 24.5004C45.821 24.5004 46.8126 24.3034 47.665 23.9096C48.5173 23.5158 49.3451 22.8757 50.1482 21.9813L50.1564 24.1148L54.369 24.1229ZM72.4482 24.1148V15.0808C72.4482 14.4654 72.4401 13.9402 72.4318 13.5053C72.4236 13.0705 72.3991 12.6931 72.3499 12.3731C72.3089 12.053 72.2516 11.7741 72.1942 11.5361C72.1286 11.29 72.0548 11.052 71.9729 10.8223C71.5877 9.87048 70.973 9.13201 70.1125 8.61508C69.252 8.09815 68.1947 7.83558 66.9409 7.83558C65.818 7.83558 64.8264 8.03251 63.9741 8.42636C63.1217 8.82021 62.294 9.46839 61.4908 10.3546L61.4827 8.22123H57.2619V24.1229H61.4908V15.5403C61.4908 14.8018 61.5154 14.2192 61.5728 13.809C61.6219 13.3987 61.7285 13.0131 61.8761 12.6439C62.1465 12.0038 62.5726 11.528 63.1381 11.1997C63.7037 10.8715 64.3756 10.7074 65.1624 10.7074C66.4 10.7074 67.2605 11.1505 67.7522 12.0449C67.9407 12.3813 68.0718 12.7669 68.1456 13.1854C68.2193 13.6039 68.2603 14.2274 68.2603 15.0316V24.1065L72.4482 24.1148ZM89.806 23.0644L83.4138 15.1136L88.8145 9.32074L85.6348 7.95046L80.0126 14.4736H79.5701V0.762695H75.3412V24.1148H79.5701V15.6551L85.897 24.4347L89.806 23.0644ZM106.149 17.3537V14.7526L93.4372 8.36892V11.2325L103.288 16.0326L93.4372 20.8982V23.6962L106.149 17.3537ZM94.6662 4.2417C93.8877 4.2417 93.2563 4.88171 93.2563 5.66941C93.2563 6.47352 93.8877 7.10533 94.6662 7.10533C95.4533 7.10533 96.076 6.47352 96.076 5.66941C96.076 4.87351 95.4533 4.2417 94.6662 4.2417ZM94.6748 4.46324C95.3054 4.46324 95.8134 5.00479 95.8134 5.67762C95.8134 6.35044 95.3054 6.89199 94.6748 6.88378C94.0356 6.88378 93.5268 6.35044 93.5268 5.66941C93.5268 5.00479 94.0356 4.46324 94.6748 4.46324ZM94.4044 5.8171H94.5757C94.781 5.8171 94.8792 5.89095 94.9201 6.09609C94.9532 6.30942 94.994 6.44891 95.0271 6.49814H95.2976C95.2724 6.44891 95.2315 6.35044 95.1993 6.10429C95.1663 5.86633 95.0758 5.74326 94.9288 5.71865V5.70223C95.101 5.653 95.2402 5.52172 95.2402 5.31659C95.2402 5.1689 95.1906 5.05402 95.0923 4.98838C94.994 4.91454 94.8384 4.8653 94.6009 4.8653C94.4122 4.8653 94.2808 4.88171 94.1504 4.90633V6.49814H94.4044V5.8171ZM94.4044 5.07863C94.4452 5.07043 94.5026 5.06223 94.5844 5.06223C94.8714 5.06223 94.9697 5.20172 94.9697 5.34121C94.9697 5.53813 94.7888 5.61197 94.5844 5.61197H94.4044V5.07863Z" fill="#0C1724"/>
</svg>
