<svg width="38" height="37" viewBox="0 0 38 37" fill="none" xmlns="http://www.w3.org/2000/svg">
<path d="M19.2913 36.8366C19.108 36.8366 18.9255 36.8366 18.7439 36.828L22.5077 26.4831H27.6879C28.5977 26.4831 29.5953 25.7839 29.9049 24.9303L33.9884 13.7131C34.6561 11.8772 33.6047 10.3748 31.6503 10.3748H24.4655L18.4386 26.9453L15.015 36.3369C6.90504 34.4081 0.873047 27.1158 0.873047 18.4183C0.873047 9.96975 6.56225 2.84972 14.3184 0.682159L10.7916 10.3773L4.92677 26.4831H8.83043L13.817 12.7956H16.7503L11.7637 26.484H15.6657L20.3146 13.7131C20.9831 11.8772 19.9309 10.3748 17.979 10.3748H14.6961L18.4634 0.0196121C18.7379 0.00653735 19.0139 0 19.2913 0C29.4632 0 37.7096 8.24645 37.7096 18.4183C37.7096 28.5901 29.4632 36.8366 19.2913 36.8366ZM30.4352 12.7854H27.5028L23.3954 24.0546H26.3286L30.4352 12.7854Z" fill="black"/>
</svg>
