<svg width="103" height="19" viewBox="0 0 103 19" fill="none" xmlns="http://www.w3.org/2000/svg">
<path d="M19.0475 0.575499C18.2169 0.135806 17.2154 0.47779 16.7757 1.33275L10.7177 14.4014C10.5711 14.6701 10.449 14.8655 10.1315 14.8655C9.8139 14.8655 9.69176 14.6701 9.5452 14.4014L3.48719 1.35718C3.07193 0.47779 2.04597 0.135806 1.21544 0.599927C0.384909 1.03962 0.0673525 2.11443 0.482619 2.99381L6.41848 15.061L7.10245 16.4289C7.68871 17.6258 8.86123 18.3831 10.1315 18.3831C11.4261 18.3831 12.5742 17.6258 13.1605 16.4289L13.8444 15.061L19.7559 2.96939C20.1956 2.09 19.878 1.03962 19.0475 0.575499Z" fill="#00B336"/>
<path d="M99.7303 0.380127C98.5822 0.380127 97.5807 1.08852 97.1165 2.06562C95.5776 5.21676 91.0341 14.5725 91.0341 14.5969C91.0097 14.6457 90.912 14.8656 90.7166 14.8656C90.5456 14.8656 90.4234 14.6702 90.399 14.5969C88.9089 11.4946 85.9288 5.36332 84.3899 2.18776C83.7792 0.966385 82.7776 0.380127 81.7028 0.380127C80.0418 0.380127 78.6738 1.79692 78.6738 3.70226V16.5755C78.6738 17.3572 79.1135 18.09 79.7975 18.3099C80.9212 18.6763 81.8738 17.6992 81.8738 16.5511L81.6295 4.01981C81.6295 3.89768 81.7761 3.84882 81.8494 3.94653L88.0051 16.4534C88.5914 17.6503 89.5685 18.3587 90.6677 18.3587C91.7669 18.3587 92.7685 17.6503 93.3303 16.4534L99.5104 3.9221C99.5593 3.79997 99.7303 3.84882 99.7303 3.99539L99.486 16.5999C99.486 17.6015 100.243 18.4076 101.147 18.3587C102.026 18.3343 102.71 17.4793 102.71 16.5267C102.71 16.5267 102.71 6.90225 102.71 3.70226C102.759 1.77249 101.391 0.404554 99.7303 0.380127Z" fill="#00B336"/>
<path d="M76.5747 15.7694L69.7594 2.30989C69.1732 1.11295 68.0006 0.380127 66.7304 0.380127C65.9243 0.380127 65.1671 0.673256 64.5808 1.18623C64.2144 1.50379 63.9213 1.8702 63.7014 2.33432L56.9106 15.7206C56.9106 15.745 56.8862 15.745 56.8862 15.7694V15.7938C56.5686 16.4289 56.6419 17.1373 57.0083 17.6747C57.0083 17.6992 57.0327 17.6992 57.0327 17.7236C57.0327 17.748 57.0572 17.748 57.0572 17.7725C57.1793 17.919 57.3259 18.0656 57.4969 18.1633C58.0831 18.5053 58.7426 18.4564 59.2556 18.09C59.2556 18.09 59.2801 18.09 59.2801 18.0656C59.3289 18.0412 59.3533 18.0167 59.3778 17.9923C59.4022 17.9679 59.4266 17.9434 59.451 17.919L59.4755 17.8946C59.5976 17.7725 59.6953 17.6259 59.793 17.4549L60.0373 16.9175L61.4541 13.9373C61.4785 13.8641 61.5762 13.8152 61.6495 13.8152H67.9762C68.8068 13.8152 69.4907 13.1068 69.4907 12.203C69.4907 11.3236 68.8068 10.5908 67.9762 10.5908H64.2144H63.2861C63.1884 10.5908 63.1152 10.4931 63.164 10.3954L63.506 9.66255L66.0709 4.50836V4.48393C66.0709 4.48393 66.0709 4.45951 66.0953 4.45951C66.1442 4.3618 66.2663 3.99539 66.5106 3.9221C66.6571 3.87325 66.7793 3.87325 66.877 3.9221C67.1457 3.99539 67.2434 4.31294 67.3655 4.55722L73.5701 17.4549C73.8632 18.0412 74.4495 18.3831 75.0602 18.3831C75.2556 18.3831 75.451 18.3587 75.622 18.2854C75.622 18.2854 75.6464 18.2854 75.6464 18.261C75.6953 18.2366 75.7441 18.2121 75.793 18.1877C75.8174 18.1877 75.8174 18.1633 75.8419 18.1633C75.8419 18.1633 75.8663 18.1633 75.8663 18.1389C75.8907 18.1389 75.8907 18.1144 75.9151 18.1144C75.9396 18.1144 75.964 18.09 75.964 18.0656C75.9884 18.0656 75.9884 18.0412 76.0128 18.0412C76.0373 18.0167 76.0617 17.9923 76.0861 17.9923C76.1106 17.9679 76.135 17.9434 76.1594 17.919L76.1838 17.8946C76.7945 17.3816 76.9411 16.5022 76.5747 15.7694Z" fill="#00B336"/>
<path d="M23.6397 11.3236H35.1206C35.3404 11.3236 37.1236 11.177 37.1236 9.17397C37.1236 4.23963 33.3129 0.209106 28.5984 0.209106C23.8839 0.209106 20.0488 4.23963 20.0488 9.17397C20.0488 9.29611 20.0488 9.58924 20.0488 9.63809C20.0488 15.2808 23.6641 18.3343 28.4763 18.603C28.6961 18.6274 28.9404 18.6274 29.1603 18.6274C31.0167 18.6274 32.5557 18.1388 34.2656 17.0885C34.4366 16.9908 35.1206 16.5266 35.8045 15.6472C36.3664 14.9388 36.3908 13.8885 35.8045 13.3266C34.9496 12.5205 34.0457 12.9602 33.2641 13.6442C32.0183 14.6946 31.0656 15.5251 28.574 15.5251C26.229 15.5251 24.0305 14.1816 23.4931 11.519C23.4931 11.4213 23.5419 11.3236 23.6397 11.3236ZM23.4931 8.02588C23.8107 5.43658 25.5939 3.1404 28.574 3.1404C31.5541 3.1404 33.4351 5.38772 33.7282 8.02588C33.7282 8.12359 33.6793 8.2213 33.5816 8.2213H23.6397C23.5419 8.19688 23.4931 8.12359 23.4931 8.02588Z" fill="#00B336"/>
<path d="M42.6934 11.3236H54.1743C54.3941 11.3236 56.1773 11.177 56.1773 9.17397C56.1529 4.23963 52.3422 0.209106 47.6521 0.209106C42.9621 0.209106 39.127 4.23963 39.127 9.17397C39.127 9.29611 39.127 9.58924 39.127 9.63809C39.127 15.2808 42.7422 18.3343 47.5544 18.603C47.7743 18.6274 48.0185 18.6274 48.2384 18.6274C50.0949 18.6274 51.6338 18.1388 53.3437 17.0885C53.5147 16.9908 54.1987 16.5266 54.8826 15.6472C55.4445 14.9388 55.4689 13.8885 54.8826 13.3266C54.0277 12.5205 53.1239 12.9602 52.3422 13.6442C51.0964 14.6946 50.1437 15.5251 47.6521 15.5251C45.3071 15.5251 43.1086 14.1816 42.5712 11.519C42.5468 11.4213 42.6201 11.3236 42.6934 11.3236ZM42.5712 8.02588C42.8888 5.43658 44.672 3.1404 47.6521 3.1404C50.6323 3.1404 52.5132 5.38772 52.8063 8.02588C52.8063 8.12359 52.7575 8.2213 52.6598 8.2213H42.7178C42.6201 8.19688 42.5468 8.12359 42.5712 8.02588Z" fill="#00B336"/>
</svg>
