<svg width="122" height="27" viewBox="0 0 122 27" fill="none" xmlns="http://www.w3.org/2000/svg">
<path d="M121.029 12.185C121.029 10.0549 121.029 10.0549 121.029 10.0549C118.339 10.0549 118.339 10.0549 118.339 10.0549C118.339 6.69152 118.339 6.69152 118.339 6.69152C118.226 6.69152 118.226 6.69152 118.226 6.69152C115.872 7.47629 115.872 7.47629 115.872 7.47629C115.76 7.58841 115.76 7.58841 115.76 7.58841C115.76 10.0549 115.76 10.0549 115.76 10.0549C111.836 10.0549 111.836 10.0549 111.836 10.0549C111.836 8.70952 111.836 8.70952 111.836 8.70952C111.836 8.14896 111.948 7.58841 112.285 7.25207C112.509 6.91574 112.957 6.69152 113.406 6.69152C113.742 6.69152 114.19 6.80363 114.527 7.02785C114.639 7.02785 114.639 7.02785 114.639 7.02785C114.639 4.78562 114.639 4.78562 114.639 4.78562C114.527 4.78562 114.527 4.78562 114.527 4.78562C114.19 4.67351 113.63 4.5614 113.069 4.5614C112.285 4.5614 111.612 4.78562 111.051 5.12196C110.491 5.45829 109.93 5.90674 109.594 6.46729C109.258 7.02785 109.145 7.81263 109.145 8.59741C109.145 10.167 109.145 10.167 109.145 10.167C107.352 10.167 107.352 10.167 107.352 10.167C107.352 12.2971 107.352 12.2971 107.352 12.2971C109.145 12.2971 109.145 12.2971 109.145 12.2971C109.145 21.266 109.145 21.266 109.145 21.266C111.724 21.266 111.724 21.266 111.724 21.266C111.724 12.2971 111.724 12.2971 111.724 12.2971C115.648 12.2971 115.648 12.2971 115.648 12.2971C115.648 18.0148 115.648 18.0148 115.648 18.0148C115.648 20.3691 116.769 21.6023 118.899 21.6023C119.235 21.6023 119.572 21.6023 120.02 21.4902C120.469 21.3781 120.693 21.266 120.917 21.1539C121.029 21.1539 121.029 21.1539 121.029 21.1539C121.029 19.0238 121.029 19.0238 121.029 19.0238C120.917 19.1359 120.917 19.1359 120.917 19.1359C120.805 19.248 120.581 19.248 120.357 19.3601C120.132 19.4722 120.02 19.4722 119.796 19.4722C119.348 19.4722 118.899 19.3601 118.675 19.1359C118.451 18.7995 118.339 18.3511 118.339 17.6784C118.339 12.4092 118.339 12.4092 118.339 12.4092H121.029V12.185ZM104.437 15.5483C104.437 14.4272 104.213 13.4182 103.652 12.8576C103.091 12.2971 102.419 11.9607 101.522 11.9607C100.513 11.9607 99.8402 12.2971 99.2796 12.8576C98.7191 13.5303 98.3828 14.4272 98.3828 15.6604C98.3828 16.7815 98.7191 17.7905 99.2796 18.3511C99.8402 18.9116 100.513 19.248 101.522 19.248C102.419 19.248 103.204 18.9116 103.652 18.3511C104.213 17.6784 104.437 16.7815 104.437 15.5483ZM105.67 11.2881C106.679 12.2971 107.127 13.6424 107.127 15.4362C107.127 17.23 106.679 18.6874 105.558 19.6964C104.549 20.8175 103.091 21.266 101.298 21.266C99.616 21.266 98.2706 20.7054 97.2616 19.6964C96.2526 18.6874 95.6921 17.3421 95.6921 15.5483C95.6921 13.7545 96.2526 12.185 97.2616 11.176C98.3828 10.167 99.8402 9.60641 101.522 9.60641C103.428 9.83063 104.773 10.2791 105.67 11.2881ZM91.8803 14.6514C90.9834 14.3151 90.535 14.0909 90.3107 13.7545C90.0865 13.6424 89.9744 13.3061 89.9744 12.8576C89.9744 12.5213 90.0865 12.2971 90.4229 12.0729C90.6471 11.8486 90.9834 11.7365 91.544 11.7365C91.9924 11.7365 92.4409 11.8486 92.8893 11.8486C93.3377 11.9607 93.7862 12.185 94.0104 12.4092C94.1225 12.5213 94.1225 12.5213 94.1225 12.5213C94.1225 10.167 94.1225 10.167 94.1225 10.167C93.7862 10.0549 93.4499 9.94274 92.8893 9.83063C92.4409 9.71852 91.9924 9.71852 91.544 9.71852C90.3107 9.71852 89.3017 10.0549 88.517 10.6154C87.6201 11.176 87.2837 12.0729 87.2837 13.0819C87.2837 13.6424 87.3958 14.0909 87.508 14.4272C87.7322 14.7635 87.9564 15.212 88.4048 15.4362C88.7412 15.7725 89.3017 15.9968 89.9744 16.3331C90.535 16.5573 90.9834 16.7815 91.3197 16.8936C91.6561 17.0058 91.7682 17.23 91.9924 17.4542C92.1045 17.5663 92.1045 17.7905 92.1045 18.0148C92.1045 18.6874 91.544 19.1359 90.4229 19.1359C89.9744 19.1359 89.526 19.0238 88.9654 18.9116C88.4048 18.6874 87.8443 18.4632 87.508 18.1269C87.3958 18.0148 87.3958 18.0148 87.3958 18.0148C87.3958 20.5933 87.3958 20.5933 87.3958 20.5933C87.508 20.5933 87.508 20.5933 87.508 20.5933C87.8443 20.8175 88.4049 20.9296 88.8533 21.0418C89.4139 21.1539 89.9744 21.1539 90.3107 21.1539C91.6561 21.1539 92.7772 20.8175 93.562 20.257C94.4589 19.5843 94.7952 18.6874 94.7952 17.6784C94.7952 16.8936 94.571 16.3331 94.2346 15.7725C93.562 15.4362 92.7772 14.9878 91.8803 14.6514ZM83.3598 15.5483C83.3598 14.4272 83.1356 13.4182 82.5751 12.8576C82.0145 12.2971 81.3418 11.9607 80.4449 11.9607C79.5481 11.9607 78.7633 12.2971 78.2027 12.8576C77.6422 13.5303 77.3058 14.4272 77.3058 15.6604C77.3058 16.7815 77.6422 17.7905 78.2027 18.3511C78.7633 18.9116 79.5481 19.248 80.4449 19.248C81.4539 19.248 82.1266 18.9116 82.6872 18.3511C83.1356 17.6784 83.3598 16.7815 83.3598 15.5483ZM84.5931 11.2881C85.49 12.2971 86.0505 13.6424 86.0505 15.4362C86.0505 17.23 85.49 18.6874 84.481 19.6964C83.472 20.8175 82.0145 21.266 80.2207 21.266C78.5391 21.266 77.1937 20.7054 76.1847 19.6964C75.1757 18.6874 74.6152 17.3421 74.6152 15.5483C74.6152 13.7545 75.1757 12.185 76.1847 11.176C77.3058 10.167 78.7633 9.60641 80.5571 9.60641C82.2387 9.83063 83.5841 10.2791 84.5931 11.2881ZM73.494 9.83063C72.9335 9.83063 72.2608 9.94274 71.8124 10.3912C71.3639 10.7275 71.0276 11.2881 70.8034 11.8486C70.6913 11.8486 70.6913 11.8486 70.6913 11.8486C70.6913 9.94274 70.6913 9.94274 70.6913 9.94274C68.1127 9.94274 68.1127 9.94274 68.1127 9.94274C68.1127 21.0418 68.1127 21.0418 68.1127 21.0418C70.6913 21.0418 70.6913 21.0418 70.6913 21.0418C70.6913 15.3241 70.6913 15.3241 70.6913 15.3241C70.6913 14.3151 70.9155 13.5303 71.3639 12.9697C71.7003 12.4092 72.3729 12.0729 73.0456 12.0729C73.2698 12.0729 73.494 12.185 73.8304 12.185C74.1667 12.2971 74.2788 12.2971 74.3909 12.4092C74.503 12.5213 74.503 12.5213 74.503 12.5213C74.503 9.94274 74.503 9.94274 74.503 9.94274C74.2788 9.83063 73.9425 9.83063 73.494 9.83063ZM64.8615 9.94274C64.413 9.83063 63.9646 9.83063 63.404 9.83063C62.2829 9.83063 61.1618 10.0549 60.2649 10.6154C59.368 11.0639 58.6954 11.8486 58.2469 12.7455C57.7985 13.6424 57.5742 14.7635 57.5742 15.8846C57.5742 17.0058 57.7985 17.9026 58.2469 18.6874C58.6954 19.5843 59.368 20.257 60.1528 20.7054C61.0497 21.1539 61.9466 21.3781 62.9556 21.3781C64.1888 21.3781 65.3099 21.1539 66.0947 20.7054C66.2068 20.5933 66.2068 20.5933 66.2068 20.5933C66.2068 18.239 66.2068 18.239 66.2068 18.239C65.9826 18.3511 65.9826 18.3511 65.9826 18.3511C65.6463 18.6874 65.1978 18.9116 64.7494 19.0238C64.3009 19.1359 63.8525 19.248 63.404 19.248C62.395 19.248 61.6102 18.9116 60.9376 18.3511C60.377 17.6784 60.0407 16.7815 60.0407 15.6604C60.0407 14.5393 60.377 13.6424 60.9376 12.9697C61.4981 12.2971 62.395 11.9607 63.404 11.9607C64.3009 11.9607 65.0857 12.2971 65.8705 12.8576C65.9826 12.9697 65.9826 12.9697 65.9826 12.9697C65.9826 10.3912 65.9826 10.3912 65.9826 10.3912C65.8705 10.3912 65.8705 10.3912 65.8705 10.3912C65.7584 10.167 65.422 10.0549 64.8615 9.94274ZM54.4351 5.34618C53.9867 5.34618 53.5382 5.45829 53.314 5.79463C52.9777 6.01885 52.8656 6.35518 52.8656 6.91574C52.8656 7.25207 52.9777 7.70052 53.314 8.03685C53.6503 8.26107 53.9867 8.37318 54.4351 8.37318C54.7715 8.37318 55.2199 8.26107 55.5562 8.03685C55.8926 7.70052 56.0047 7.36418 56.0047 6.91574C56.0047 6.46729 55.8926 6.13096 55.5562 5.79463C55.2199 5.45829 54.8836 5.34618 54.4351 5.34618ZM53.0898 21.1539C55.6683 21.1539 55.6683 21.1539 55.6683 21.1539C55.6683 10.0549 55.6683 10.0549 55.6683 10.0549C53.0898 10.0549 53.0898 10.0549 53.0898 10.0549V21.1539ZM46.9237 5.68251C50.5112 5.68251 50.5112 5.68251 50.5112 5.68251C50.5112 21.266 50.5112 21.266 50.5112 21.266C47.9327 21.266 47.9327 21.266 47.9327 21.266C47.9327 11.4002 47.9327 11.4002 47.9327 11.4002C47.9327 10.7275 47.9327 9.71852 48.0448 8.59741C47.9327 9.04585 47.8206 9.60641 47.7084 9.83063C42.9998 21.1539 42.9998 21.1539 42.9998 21.1539C41.206 21.1539 41.206 21.1539 41.206 21.1539C36.7215 9.83063 36.7215 9.83063 36.7215 9.83063C36.6094 9.4943 36.4973 9.04585 36.3852 8.4853C36.2731 8.4853 36.2731 8.4853 36.2731 8.4853C36.2731 8.82163 36.2731 9.15796 36.2731 9.4943C36.3852 10.3912 36.3852 11.0639 36.3852 11.6244C36.3852 21.1539 36.3852 21.1539 36.3852 21.1539C33.8066 21.1539 33.8066 21.1539 33.8066 21.1539C33.8066 5.5704 33.8066 5.5704 33.8066 5.5704C37.6184 5.5704 37.6184 5.5704 37.6184 5.5704C41.4302 15.3241 41.4302 15.3241 41.4302 15.3241C41.7665 16.221 42.1029 16.8936 42.1029 17.3421C42.215 17.3421 42.215 17.3421 42.215 17.3421C42.8877 15.3241 42.8877 15.3241 42.8877 15.3241L46.9237 5.68251Z" fill="#737373"/>
<path d="M12.6166 0.525513H0.396484V12.8578H12.6166V0.525513Z" fill="#F25022"/>
<path d="M26.183 0.525513H13.9629V12.8578H26.183V0.525513Z" fill="#7FBA00"/>
<path d="M12.6166 13.9788H0.396484V26.311H12.6166V13.9788Z" fill="#00A4EF"/>
<path d="M26.183 13.9788H13.9629V26.311H26.183V13.9788Z" fill="#FFB900"/>
</svg>
