<svg width="33" height="33" viewBox="0 0 33 33" fill="none" xmlns="http://www.w3.org/2000/svg">
<path d="M16.5 22.3334C19.7217 22.3334 22.3333 19.7217 22.3333 16.5001C22.3333 13.2784 19.7217 10.6667 16.5 10.6667C13.2783 10.6667 10.6667 13.2784 10.6667 16.5001C10.6667 19.7217 13.2783 22.3334 16.5 22.3334Z" stroke="#6B7280" stroke-width="3" stroke-linecap="round" stroke-linejoin="round"/>
<path d="M22.3333 10.6666V17.9582C22.3333 19.1186 22.7943 20.2314 23.6147 21.0518C24.4352 21.8723 25.548 22.3332 26.7083 22.3332C27.8687 22.3332 28.9815 21.8723 29.8019 21.0518C30.6224 20.2314 31.0833 19.1186 31.0833 17.9582V16.4999C31.0831 13.2085 29.9695 10.0139 27.9235 7.43568C25.8775 4.85743 23.0196 3.04711 19.8143 2.29909C16.609 1.55107 13.2449 1.90934 10.269 3.31565C7.29319 4.72196 4.88058 7.09359 3.4235 10.0449C1.96642 12.9962 1.55057 16.3537 2.24357 19.5713C2.93658 22.789 4.69767 25.6775 7.2405 27.7674C9.78333 29.8572 12.9583 31.0254 16.2493 31.082C19.5402 31.1386 22.7535 30.0803 25.3667 28.0791" stroke="#6B7280" stroke-width="3" stroke-linecap="round" stroke-linejoin="round"/>
</svg>
