<svg width="33" height="33" viewBox="0 0 33 33" fill="none" xmlns="http://www.w3.org/2000/svg">
<path d="M23.7917 1.91675H9.20834C5.18126 1.91675 1.91667 5.18134 1.91667 9.20841V23.7917C1.91667 27.8188 5.18126 31.0834 9.20834 31.0834H23.7917C27.8187 31.0834 31.0833 27.8188 31.0833 23.7917V9.20841C31.0833 5.18134 27.8187 1.91675 23.7917 1.91675Z" stroke="#6B7280" stroke-width="3" stroke-linecap="round" stroke-linejoin="round"/>
<path d="M22.3333 15.5812C22.5133 16.7949 22.306 18.0344 21.7409 19.1235C21.1758 20.2126 20.2817 21.0958 19.1857 21.6474C18.0897 22.199 16.8477 22.391 15.6364 22.1961C14.425 22.0012 13.3059 21.4292 12.4383 20.5616C11.5707 19.6941 10.9988 18.575 10.8039 17.3636C10.6089 16.1522 10.8009 14.9102 11.3526 13.8142C11.9042 12.7183 12.7874 11.8242 13.8764 11.2591C14.9655 10.694 16.2051 10.4866 17.4188 10.6666C18.6568 10.8502 19.8029 11.4271 20.6879 12.3121C21.5729 13.197 22.1498 14.3432 22.3333 15.5812Z" stroke="#6B7280" stroke-width="3" stroke-linecap="round" stroke-linejoin="round"/>
<path d="M24.5208 8.47925H24.5354" stroke="#6B7280" stroke-width="3" stroke-linecap="round" stroke-linejoin="round"/>
</svg>
