<svg width="194" height="23" viewBox="0 0 194 23" fill="none" xmlns="http://www.w3.org/2000/svg">
<path d="M14.072 14.576H14.168L21.048 0.24H25.272L27.576 22H23.128L21.528 5.328H21.4L13.88 20.688H12.376L4.888 5.392H4.76L3.384 22H0.536L2.872 0.24H7.064L14.072 14.576ZM38.7555 6.32C40.8462 6.32 42.6702 7.00267 44.2275 8.368C45.7848 9.73333 46.5635 11.6853 46.5635 14.224C46.5635 16.784 45.7848 18.7787 44.2275 20.208C42.6702 21.616 40.8462 22.32 38.7555 22.32C36.6435 22.32 34.7982 21.616 33.2195 20.208C31.6408 18.7787 30.8515 16.784 30.8515 14.224C30.8515 11.6853 31.6302 9.73333 33.1875 8.368C34.7662 7.00267 36.6222 6.32 38.7555 6.32ZM36.0035 18.64C36.6862 19.728 37.5928 20.272 38.7235 20.272C39.8542 20.272 40.7608 19.728 41.4435 18.64C42.1262 17.552 42.4675 16.08 42.4675 14.224C42.4675 12.4107 42.1262 10.9813 41.4435 9.936C40.7608 8.89067 39.8542 8.368 38.7235 8.368C37.5928 8.368 36.6862 8.89067 36.0035 9.936C35.3208 10.9813 34.9795 12.4107 34.9795 14.224C34.9795 16.08 35.3208 17.552 36.0035 18.64ZM58.8748 9.36C58.0854 8.57067 57.1041 8.176 55.9308 8.176C55.3334 8.176 54.8214 8.31467 54.3948 8.592C53.9681 8.86933 53.7548 9.31733 53.7548 9.936C53.7548 10.4693 53.9148 10.9067 54.2348 11.248C54.5761 11.568 55.2694 12.0267 56.3148 12.624C57.5948 13.3493 58.5334 14.096 59.1308 14.864C59.7494 15.6107 60.0588 16.5493 60.0588 17.68C60.0588 19.1733 59.5041 20.3253 58.3948 21.136C57.3068 21.9253 55.9308 22.32 54.2668 22.32C52.5601 22.32 51.0134 21.808 49.6268 20.784L49.2108 17.872H49.6268C50.2454 18.64 50.9601 19.2267 51.7708 19.632C52.5814 20.016 53.3708 20.208 54.1388 20.208C54.8001 20.208 55.3228 20.016 55.7068 19.632C56.1121 19.248 56.3148 18.7467 56.3148 18.128C56.3148 17.5307 56.0588 16.9973 55.5468 16.528C55.0348 16.0587 54.1388 15.472 52.8588 14.768C51.8348 14.2133 51.1094 13.616 50.6828 12.976C50.2774 12.336 50.0748 11.5467 50.0748 10.608C50.0748 9.264 50.6081 8.21867 51.6748 7.472C52.7628 6.704 54.0321 6.32 55.4828 6.32C56.8268 6.32 57.9894 6.59733 58.9708 7.152L59.2588 9.36H58.8748ZM77.0253 14.128H66.9773C67.0199 15.8347 67.4893 17.2427 68.3853 18.352C69.2813 19.44 70.5399 19.984 72.1613 19.984C74.0386 19.984 75.4786 19.408 76.4813 18.256H76.8653L76.3213 20.912C75.1479 21.8507 73.4306 22.32 71.1693 22.32C68.6306 22.32 66.6253 21.6267 65.1533 20.24C63.6813 18.8533 62.9453 16.9013 62.9453 14.384C62.9453 11.952 63.6919 10 65.1853 8.528C66.6786 7.056 68.4386 6.32 70.4653 6.32C72.6626 6.32 74.3053 6.90667 75.3933 8.08C76.4813 9.232 77.0253 10.832 77.0253 12.88V14.128ZM73.4093 12.016C73.4093 10.8213 73.1533 9.872 72.6413 9.168C72.1293 8.464 71.4253 8.112 70.5293 8.112C69.5906 8.112 68.7906 8.496 68.1293 9.264C67.4679 10.032 67.0946 11.056 67.0093 12.336H73.4093V12.016ZM89.156 9.36C88.3667 8.57067 87.3853 8.176 86.212 8.176C85.6147 8.176 85.1027 8.31467 84.676 8.592C84.2493 8.86933 84.036 9.31733 84.036 9.936C84.036 10.4693 84.196 10.9067 84.516 11.248C84.8573 11.568 85.5507 12.0267 86.596 12.624C87.876 13.3493 88.8147 14.096 89.412 14.864C90.0307 15.6107 90.34 16.5493 90.34 17.68C90.34 19.1733 89.7853 20.3253 88.676 21.136C87.588 21.9253 86.212 22.32 84.548 22.32C82.8413 22.32 81.2947 21.808 79.908 20.784L79.492 17.872H79.908C80.5267 18.64 81.2413 19.2267 82.052 19.632C82.8627 20.016 83.652 20.208 84.42 20.208C85.0813 20.208 85.604 20.016 85.988 19.632C86.3933 19.248 86.596 18.7467 86.596 18.128C86.596 17.5307 86.34 16.9973 85.828 16.528C85.316 16.0587 84.42 15.472 83.14 14.768C82.116 14.2133 81.3907 13.616 80.964 12.976C80.5587 12.336 80.356 11.5467 80.356 10.608C80.356 9.264 80.8893 8.21867 81.956 7.472C83.044 6.704 84.3133 6.32 85.764 6.32C87.108 6.32 88.2707 6.59733 89.252 7.152L89.54 9.36H89.156ZM114.76 14.576H114.856L121.736 0.24H125.96L128.264 22H123.816L122.216 5.328H122.088L114.568 20.688H113.064L105.576 5.392H105.448L104.072 22H101.224L103.56 0.24H107.752L114.76 14.576ZM139.443 6.32C141.534 6.32 143.358 7.00267 144.915 8.368C146.472 9.73333 147.251 11.6853 147.251 14.224C147.251 16.784 146.472 18.7787 144.915 20.208C143.358 21.616 141.534 22.32 139.443 22.32C137.331 22.32 135.486 21.616 133.907 20.208C132.328 18.7787 131.539 16.784 131.539 14.224C131.539 11.6853 132.318 9.73333 133.875 8.368C135.454 7.00267 137.31 6.32 139.443 6.32ZM136.691 18.64C137.374 19.728 138.28 20.272 139.411 20.272C140.542 20.272 141.448 19.728 142.131 18.64C142.814 17.552 143.155 16.08 143.155 14.224C143.155 12.4107 142.814 10.9813 142.131 9.936C141.448 8.89067 140.542 8.368 139.411 8.368C138.28 8.368 137.374 8.89067 136.691 9.936C136.008 10.9813 135.667 12.4107 135.667 14.224C135.667 16.08 136.008 17.552 136.691 18.64ZM158.346 22H154.826L149.098 6.64H153.61L157.45 18.064H157.514L161.226 6.64H164.106L158.346 22ZM179.807 14.128H169.759C169.801 15.8347 170.271 17.2427 171.167 18.352C172.063 19.44 173.321 19.984 174.943 19.984C176.82 19.984 178.26 19.408 179.263 18.256H179.647L179.103 20.912C177.929 21.8507 176.212 22.32 173.951 22.32C171.412 22.32 169.407 21.6267 167.935 20.24C166.463 18.8533 165.727 16.9013 165.727 14.384C165.727 11.952 166.473 10 167.967 8.528C169.46 7.056 171.22 6.32 173.247 6.32C175.444 6.32 177.087 6.90667 178.175 8.08C179.263 9.232 179.807 10.832 179.807 12.88V14.128ZM176.191 12.016C176.191 10.8213 175.935 9.872 175.423 9.168C174.911 8.464 174.207 8.112 173.311 8.112C172.372 8.112 171.572 8.496 170.911 9.264C170.249 10.032 169.876 11.056 169.791 12.336H176.191V12.016ZM191.937 9.36C191.148 8.57067 190.167 8.176 188.993 8.176C188.396 8.176 187.884 8.31467 187.457 8.592C187.031 8.86933 186.817 9.31733 186.817 9.936C186.817 10.4693 186.977 10.9067 187.297 11.248C187.639 11.568 188.332 12.0267 189.377 12.624C190.657 13.3493 191.596 14.096 192.193 14.864C192.812 15.6107 193.121 16.5493 193.121 17.68C193.121 19.1733 192.567 20.3253 191.457 21.136C190.369 21.9253 188.993 22.32 187.329 22.32C185.623 22.32 184.076 21.808 182.689 20.784L182.273 17.872H182.689C183.308 18.64 184.023 19.2267 184.833 19.632C185.644 20.016 186.433 20.208 187.201 20.208C187.863 20.208 188.385 20.016 188.769 19.632C189.175 19.248 189.377 18.7467 189.377 18.128C189.377 17.5307 189.121 16.9973 188.609 16.528C188.097 16.0587 187.201 15.472 185.921 14.768C184.897 14.2133 184.172 13.616 183.745 12.976C183.34 12.336 183.137 11.5467 183.137 10.608C183.137 9.264 183.671 8.21867 184.737 7.472C185.825 6.704 187.095 6.32 188.545 6.32C189.889 6.32 191.052 6.59733 192.033 7.152L192.321 9.36H191.937Z" fill="white"/>
</svg>
