<svg width="142" height="142" viewBox="0 0 142 142" fill="none" xmlns="http://www.w3.org/2000/svg">
<path d="M138.567 79.7656C137.791 79.7026 137.195 79.408 136.777 78.8818C136.37 78.3565 136.136 77.6794 136.075 76.8504L136.011 76.8452C135.806 77.7917 135.449 78.4958 134.941 78.9575C134.433 79.4192 133.801 79.6194 133.046 79.5582C132.376 79.5038 131.8 79.2858 131.317 78.9041C130.845 78.5234 130.493 77.9811 130.262 77.2774C130.03 76.5737 129.955 75.7115 130.038 74.6908C130.088 74.0742 130.184 73.488 130.325 72.9323C130.455 72.3863 130.657 71.8837 130.929 71.4242L132.237 71.5304C132.051 71.847 131.884 72.1866 131.737 72.5492C131.6 72.9234 131.483 73.2992 131.389 73.6768C131.304 74.0552 131.248 74.4198 131.22 74.7707C131.137 75.7913 131.265 76.5776 131.606 77.1297C131.946 77.6923 132.466 78.0021 133.168 78.0591C133.891 78.1178 134.442 77.8522 134.822 77.2623C135.201 76.6724 135.436 75.8246 135.526 74.7189L135.658 73.0923L136.854 73.1894L136.728 74.7363C136.667 75.4911 136.702 76.12 136.832 76.6228C136.962 77.1363 137.171 77.5279 137.459 77.7974C137.757 78.0785 138.119 78.2363 138.544 78.2708C139.118 78.3174 139.577 78.1406 139.92 77.7403C140.263 77.3401 140.462 76.7998 140.517 76.1193C140.575 75.407 140.533 74.8043 140.391 74.3112C140.248 73.8287 140.051 73.3526 139.8 72.8828L140.829 72.276C141.028 72.5918 141.197 72.948 141.336 73.3445C141.485 73.7526 141.593 74.2001 141.661 74.6872C141.728 75.1742 141.74 75.6889 141.696 76.2311C141.629 77.0497 141.451 77.7255 141.162 78.2585C140.872 78.8022 140.502 79.2002 140.054 79.4528C139.616 79.7062 139.12 79.8104 138.567 79.7656Z" fill="white"/>
<path d="M127.161 90.5198L127.543 89.1314L132.68 90.5445L134.233 84.8982L129.096 83.4851L129.478 82.0967L140.493 85.1265L140.111 86.5149L135.452 85.2334L133.899 90.8797L138.558 92.1612L138.176 93.5497L127.161 90.5198Z" fill="white"/>
<path d="M135.79 99.7047L135.175 100.9L129.596 98.0344C129.359 97.9126 129.101 97.7738 128.821 97.6181C128.546 97.4768 128.273 97.3307 128.003 97.1799C127.733 97.029 127.493 96.8881 127.285 96.757C127.081 96.6403 126.924 96.548 126.815 96.48L126.786 96.5369L132.324 106.451L131.593 107.874L121.432 102.654L122.046 101.459L127.568 104.295C127.824 104.427 128.097 104.573 128.386 104.733C128.685 104.899 128.969 105.057 129.239 105.208C129.514 105.373 129.758 105.516 129.972 105.638C130.185 105.76 130.342 105.852 130.441 105.915L130.47 105.858L124.897 95.9081L125.628 94.4849L135.79 99.7047Z" fill="white"/>
<path d="M122.697 110.772L129.798 110.945L128.77 112.171L121.721 111.959L125.962 115.517L125.078 116.571L120.837 113.013L122.27 119.917L121.241 121.143L119.85 114.189L112.398 113.91L113.457 112.647L120.763 112.951L116.327 109.228L117.211 108.174L121.648 111.897L120.091 104.742L121.15 103.479L122.697 110.772Z" fill="white"/>
<path d="M104.503 120.087L105.854 119.011L113.505 120.321L109.897 115.791L111.023 114.893L118.141 123.829L117.015 124.726L113.565 120.396L113.072 127.866L111.796 128.883L112.216 121.45L104.503 120.087Z" fill="white"/>
<path d="M95.6574 125.025L98.5522 127.478L102.533 125.32L102.044 121.563L103.324 120.87L104.866 133.083L103.727 133.7L94.3493 125.734L95.6574 125.025ZM102.314 130.826C102.383 130.886 102.504 130.996 102.676 131.158C102.848 131.319 103.023 131.485 103.201 131.656C103.374 131.841 103.51 131.98 103.608 132.072C103.553 131.859 103.501 131.639 103.45 131.411C103.396 131.198 103.353 130.997 103.323 130.807C103.283 130.622 103.252 130.463 103.229 130.33L102.721 126.674L99.542 128.397L102.314 130.826Z" fill="white"/>
<path d="M84.4131 137.67C84.2266 136.914 84.3166 136.254 84.6832 135.691C85.0522 135.139 85.6202 134.702 86.3869 134.381L86.3716 134.319C85.4089 134.425 84.628 134.31 84.0288 133.974C83.4297 133.639 83.0394 133.103 82.858 132.368C82.6971 131.715 82.721 131.1 82.9298 130.521C83.1411 129.952 83.5437 129.447 84.1375 129.003C84.7313 128.56 85.5253 128.216 86.5195 127.971C87.1202 127.823 87.7065 127.728 88.2783 127.685C88.8373 127.635 89.3779 127.667 89.9001 127.78L90.2144 129.053C89.855 128.977 89.48 128.927 89.0895 128.903C88.6911 128.891 88.2978 128.9 87.9097 128.93C87.5241 128.97 87.1604 129.032 86.8186 129.117C85.8244 129.362 85.1196 129.733 84.7041 130.231C84.2783 130.732 84.1497 131.324 84.3183 132.008C84.492 132.712 84.9188 133.15 85.5986 133.323C86.2785 133.496 87.1569 133.45 88.234 133.184L89.8185 132.793L90.1059 133.958L88.599 134.33C87.8638 134.511 87.2783 134.744 86.8428 135.027C86.397 135.313 86.092 135.635 85.9279 135.994C85.756 136.366 85.7211 136.759 85.8233 137.173C85.9612 137.733 86.2744 138.111 86.7627 138.31C87.2511 138.508 87.8266 138.525 88.4894 138.362C89.1833 138.19 89.7415 137.959 90.1641 137.668C90.5764 137.38 90.9655 137.042 91.3315 136.655L92.2332 137.438C91.9969 137.727 91.7127 138 91.3808 138.258C91.041 138.529 90.6509 138.773 90.2104 138.992C89.7699 139.21 89.2856 139.385 88.7574 139.515C87.96 139.712 87.2627 139.757 86.6654 139.652C86.0577 139.549 85.563 139.325 85.1812 138.98C84.802 138.645 84.5459 138.208 84.4131 137.67Z" fill="white"/>
<path d="M70.7076 130.243L72.1452 130.159L72.4534 135.478L78.2996 135.14L77.9914 129.821L79.429 129.737L80.0898 141.142L78.6522 141.225L78.3727 136.402L72.5265 136.74L72.806 141.564L71.3684 141.647L70.7076 130.243Z" fill="white"/>
<path d="M64.3848 141.313L63.0567 141.107L64.0189 134.909C64.0598 134.645 64.1101 134.356 64.1697 134.042C64.2171 133.736 64.2699 133.431 64.3279 133.127C64.3859 132.823 64.4442 132.552 64.5029 132.312C64.5495 132.082 64.5878 131.905 64.618 131.78L64.5548 131.77L56.8905 140.149L55.3095 139.904L57.0621 128.615L58.3902 128.821L57.4378 134.956C57.3936 135.24 57.3409 135.545 57.2796 135.87C57.2167 136.206 57.1562 136.526 57.0982 136.83C57.0281 137.143 56.9689 137.42 56.9207 137.661C56.8725 137.901 56.8342 138.079 56.8056 138.193L56.8689 138.203L64.5563 129.779L66.1373 130.024L64.3848 141.313Z" fill="white"/>
<path d="M49.8174 132.398L51.8894 139.193L50.4022 138.603L48.3837 131.846L46.3421 136.992L45.0631 136.485L47.1047 131.339L41.003 134.874L39.5158 134.284L45.677 130.772L43.595 123.612L45.1268 124.22L47.1401 131.25L49.2762 125.866L50.5552 126.373L48.4191 131.757L54.7194 128.026L56.2512 128.633L49.8174 132.398Z" fill="white"/>
<path d="M35.2963 118.081L36.744 119.025L37.9106 126.699L41.0734 121.847L42.2797 122.633L36.0414 132.203L34.8351 131.417L37.8581 126.779L30.6129 128.665L29.2457 127.774L36.4327 125.831L35.2963 118.081Z" fill="white"/>
<path d="M27.8508 111.258L26.4378 114.779L29.7426 117.875L33.1524 116.224L34.2151 117.219L23.1147 122.54L22.1688 121.654L26.7648 110.241L27.8508 111.258ZM24.4498 119.406C24.4148 119.49 24.348 119.64 24.2494 119.854C24.1507 120.069 24.0484 120.287 23.9425 120.509C23.8215 120.732 23.7328 120.905 23.6765 121.028C23.8612 120.908 24.0535 120.789 24.2534 120.669C24.4381 120.55 24.6159 120.446 24.7865 120.357C24.9494 120.261 25.0902 120.181 25.2088 120.117L28.5173 118.481L25.8781 116.009L24.4498 119.406Z" fill="white"/>
<path d="M12.2836 104.57C12.9421 104.154 13.5962 104.032 14.246 104.202C14.8867 104.378 15.4804 104.779 16.027 105.405L16.0811 105.371C15.677 104.491 15.5396 103.713 15.6689 103.039C15.7982 102.364 16.1831 101.825 16.8236 101.421C17.3918 101.062 17.9836 100.891 18.5987 100.906C19.2049 100.927 19.8119 101.149 20.4198 101.573C21.0277 101.997 21.6049 102.641 22.1514 103.507C22.4816 104.031 22.757 104.557 22.9775 105.086C23.2014 105.601 23.3422 106.124 23.3999 106.655L22.2904 107.355C22.2493 106.99 22.1786 106.618 22.0786 106.24C21.9639 105.858 21.8311 105.488 21.6803 105.129C21.5204 104.776 21.3466 104.451 21.1587 104.153C20.6122 103.287 20.0371 102.735 19.4334 102.498C18.824 102.252 18.2216 102.317 17.6263 102.693C17.0129 103.08 16.7315 103.623 16.782 104.323C16.8326 105.023 17.1539 105.842 17.746 106.78L18.617 108.16L17.6022 108.8L16.7739 107.488C16.3697 106.847 15.9645 106.365 15.5583 106.041C15.1464 105.708 14.7442 105.521 14.3516 105.478C13.9444 105.433 13.5604 105.524 13.1995 105.752C12.7124 106.059 12.452 106.476 12.4181 107.002C12.3842 107.527 12.5494 108.079 12.9138 108.656C13.2952 109.261 13.6907 109.717 14.1002 110.027C14.5041 110.327 14.9473 110.589 15.43 110.814L14.9718 111.917C14.623 111.784 14.2739 111.601 13.9247 111.367C13.5607 111.13 13.2055 110.837 12.8591 110.488C12.5127 110.139 12.1943 109.735 11.904 109.275C11.4656 108.58 11.2022 107.933 11.1136 107.333C11.0193 106.724 11.0758 106.184 11.2829 105.712C11.481 105.247 11.8145 104.866 12.2836 104.57Z" fill="white"/>
<path d="M14.9966 89.2487L15.5276 90.5872L10.5752 92.5521L12.7348 97.9953L17.6873 96.0304L18.2183 97.3689L7.5996 101.582L7.06854 100.243L11.5599 98.4615L9.4003 93.0183L4.9089 94.8003L4.37784 93.4618L14.9966 89.2487Z" fill="white"/>
<path d="M2.56135 87.0514L2.33484 85.7267L8.51712 84.6696C8.77997 84.6247 9.07001 84.5805 9.38723 84.5371C9.69213 84.4849 9.99794 84.4381 10.3046 84.3964C10.6114 84.3548 10.8874 84.3238 11.1328 84.3035C11.3659 84.2745 11.5465 84.2544 11.6744 84.2434L11.6637 84.1803L1.28317 79.5759L1.01351 77.9988L12.2741 76.0735L12.5006 77.3982L6.38141 78.4445C6.09753 78.493 5.79172 78.5399 5.46399 78.5851C5.12574 78.6321 4.80326 78.6765 4.49655 78.7181C4.17754 78.751 3.89622 78.7829 3.6526 78.8137C3.40897 78.8445 3.22844 78.8646 3.11098 78.8738L3.12177 78.9369L13.5523 83.549L13.8219 85.1261L2.56135 87.0514Z" fill="white"/>
<path d="M6.36841 70.2762L0.585205 74.402L0.671597 72.8043L6.43537 68.7416L0.907445 68.4427L0.981742 67.0687L6.50967 67.3676L1.21759 62.7071L1.30398 61.1094L6.5926 65.8338L12.7191 61.5824L12.6301 63.228L6.60553 67.3728L12.3891 67.6855L12.3148 69.0595L6.53123 68.7468L12.0729 73.533L11.9839 75.1786L6.36841 70.2762Z" fill="white"/>
<path d="M15.3536 51.773L14.9143 53.4443L7.99879 56.97L13.6005 58.4425L13.2344 59.8351L2.18575 56.9309L2.55184 55.5382L7.90595 56.9456L3.83314 50.6638L4.24804 49.0854L8.35666 55.2939L15.3536 51.773Z" fill="white"/>
<path d="M19.4273 42.6645L15.6404 42.4272L13.7376 46.536L16.3748 49.256L15.7629 50.5772L7.22888 41.7057L7.77349 40.5297L20.0526 41.3142L19.4273 42.6645ZM10.6234 41.9905C10.5326 41.9837 10.3698 41.9671 10.1352 41.9407C9.90053 41.9143 9.66105 41.8857 9.41673 41.8549C9.16722 41.8098 8.97542 41.7798 8.84134 41.7647C9.01251 41.9028 9.18628 42.0479 9.36265 42.2001C9.53382 42.3381 9.68823 42.4743 9.82588 42.6086C9.96802 42.7332 10.0882 42.8417 10.1864 42.9342L12.7779 45.5625L14.2974 42.2813L10.6234 41.9905Z" fill="white"/>
<path d="M20.8045 25.8258C21.4064 26.3198 21.729 26.9019 21.7723 27.5722C21.8073 28.2357 21.6138 28.9255 21.1917 29.6416L21.2412 29.6822C21.9491 29.0213 22.6435 28.646 23.3244 28.5562C24.0052 28.4664 24.6384 28.6617 25.2238 29.1422C25.7432 29.5685 26.0926 30.076 26.2718 30.6647C26.4428 31.2466 26.4231 31.8927 26.2126 32.6031C26.0022 33.3135 25.5721 34.0645 24.9225 34.8561C24.53 35.3343 24.1173 35.7615 23.6845 36.1376C23.2666 36.5122 22.8148 36.8106 22.3289 37.0328L21.3147 36.2004C21.6481 36.0463 21.9786 35.8622 22.3062 35.6481C22.6322 35.4189 22.9418 35.1762 23.2349 34.92C23.5197 34.657 23.7738 34.3894 23.9971 34.1173C24.6467 33.3258 24.9889 32.6062 25.0237 31.9585C25.0652 31.3026 24.8138 30.7514 24.2696 30.3048C23.709 29.8446 23.1046 29.7488 22.4565 30.0172C21.8084 30.2857 21.1325 30.8487 20.4287 31.7062L19.3934 32.9678L18.4658 32.2065L19.4503 31.0068C19.9308 30.4213 20.2607 29.8849 20.44 29.3973C20.6262 28.9015 20.6775 28.4606 20.594 28.0748C20.5091 27.6739 20.3017 27.3381 19.9719 27.0674C19.5266 26.702 19.0491 26.5861 18.5393 26.7196C18.0295 26.8532 17.5581 27.1839 17.125 27.7116C16.6716 28.264 16.3627 28.7833 16.1984 29.2693C16.0408 29.7472 15.9312 30.2506 15.8696 30.7796L14.6787 30.6923C14.695 30.3193 14.7591 29.9302 14.8707 29.5251C14.9809 29.105 15.1471 28.6756 15.3691 28.2369C15.5912 27.7982 15.8748 27.3686 16.2199 26.9481C16.7409 26.3132 17.2722 25.8592 17.8138 25.586C18.362 25.3047 18.8925 25.188 19.405 25.2361C19.9093 25.2773 20.3758 25.4739 20.8045 25.8258Z" fill="white"/>
<path d="M36.3366 23.418L35.2335 24.3437L31.8086 20.2622L27.3227 24.0265L30.7476 28.1079L29.6445 29.0336L22.3011 20.2824L23.4042 19.3568L26.5102 23.0582L30.9961 19.294L27.8901 15.5925L28.9932 14.6669L36.3366 23.418Z" fill="white"/>
<path d="M34.2941 11.0264L35.4781 10.3903L38.4465 15.9154C38.5727 16.1503 38.7068 16.4112 38.8489 16.6982C38.9953 16.9706 39.137 17.2457 39.274 17.5232C39.411 17.8008 39.5282 18.0526 39.6255 18.2788C39.7272 18.4906 39.8036 18.6554 39.8548 18.7732L39.9111 18.7429L40.9749 7.43702L42.3844 6.67977L47.7912 16.7433L46.6072 17.3794L43.6691 11.9107C43.5328 11.657 43.3911 11.382 43.244 11.0856C43.0918 10.7799 42.9473 10.4883 42.8103 10.2107C42.6776 9.91873 42.5579 9.66216 42.4512 9.44099C42.3445 9.21983 42.2681 9.05504 42.2219 8.94663L42.1655 8.97692L41.1104 20.3327L39.7009 21.0899L34.2941 11.0264Z" fill="white"/>
<path d="M51.2823 9.3134L45.5365 5.13567L47.0792 4.71132L52.759 8.89059L51.2908 3.55285L52.6175 3.1879L54.0858 8.52565L56.8291 2.02943L58.3718 1.60508L55.5668 8.11828L61.5405 12.5818L59.9515 13.0189L54.1112 8.61821L55.6474 14.2028L54.3206 14.5677L52.7845 8.98316L50.0011 15.7559L48.4121 16.193L51.2823 9.3134Z" fill="white"/>
<path d="M71.3206 11.9606L69.5967 12.0805L64.0393 6.66101L64.4412 12.4391L63.0046 12.539L62.212 1.1425L63.6485 1.04258L64.0326 6.56524L68.6764 0.692886L70.3044 0.579651L65.7416 6.46242L71.3206 11.9606Z" fill="white"/>
<path d="M81.966 12.9298L80.9931 9.2624L76.4933 8.75729L74.7474 12.1195L73.3004 11.9571L79.0163 1.05466L80.3042 1.19923L83.4447 13.0958L81.966 12.9298ZM79.8201 4.36498C79.7978 4.27661 79.762 4.11696 79.7128 3.88603C79.6636 3.6551 79.615 3.41887 79.567 3.17734C79.5307 2.92639 79.4986 2.73494 79.4704 2.60298C79.3936 2.80903 79.3109 3.01979 79.2224 3.23525C79.1456 3.44131 79.0652 3.63086 78.9814 3.80393C78.9082 3.97818 78.8432 4.12652 78.7866 4.24897L77.1131 7.53882L80.7065 7.9422L79.8201 4.36498Z" fill="white"/>
<path d="M98.3615 8.90791C98.0825 9.63487 97.6317 10.1245 97.0093 10.3769C96.3907 10.6194 95.6751 10.6532 94.8624 10.4784L94.8395 10.5381C95.6898 11.0016 96.265 11.5423 96.5649 12.1601C96.8647 12.7779 96.879 13.4403 96.6076 14.1474C96.3668 14.7747 95.9954 15.2663 95.4932 15.622C94.9949 15.9677 94.3755 16.1527 93.635 16.177C92.8944 16.2012 92.0462 16.0299 91.0902 15.663C90.5126 15.4413 89.9771 15.1844 89.4837 14.8922C88.9964 14.6138 88.5708 14.279 88.2067 13.8879L88.6769 12.6631C88.9282 12.9309 89.2072 13.1865 89.5137 13.4298C89.834 13.667 90.1619 13.8843 90.4975 14.0816C90.8368 14.269 91.1709 14.4258 91.4995 14.5519C92.4555 14.9188 93.2463 15.0167 93.8718 14.8454C94.5073 14.678 94.9512 14.2657 95.2035 13.6085C95.4634 12.9313 95.3638 12.3275 94.9047 11.7971C94.4456 11.2667 93.6982 10.8028 92.6625 10.4053L91.1389 9.8205L91.5689 8.70018L93.0178 9.2563C93.7249 9.52767 94.338 9.67159 94.8572 9.68807C95.3864 9.70838 95.821 9.61808 96.1609 9.4172C96.5145 9.21018 96.7678 8.9075 96.9207 8.50916C97.1271 7.97141 97.0865 7.4817 96.799 7.04002C96.5115 6.59834 96.0491 6.2552 95.4118 6.01058C94.7446 5.7545 94.1544 5.62511 93.6413 5.62241C93.1382 5.62353 92.6259 5.67827 92.1044 5.78662L91.8118 4.6289C92.1709 4.52679 92.5603 4.46487 92.98 4.44313C93.4134 4.41525 93.8733 4.43752 94.3596 4.50993C94.846 4.58234 95.3431 4.71601 95.851 4.91094C96.6178 5.20524 97.2161 5.56628 97.6461 5.99407C98.0859 6.42569 98.3639 6.89226 98.4799 7.39379C98.5997 7.88537 98.5602 8.39007 98.3615 8.90791Z" fill="white"/>
<path d="M105.396 22.8092L104.17 22.0541L106.964 17.5173L101.977 14.4466L99.1836 18.9834L97.9575 18.2283L103.948 8.50086L105.174 9.25595L102.64 13.3704L107.627 16.4411L110.16 12.3266L111.387 13.0817L105.396 22.8092Z" fill="white"/>
<path d="M116.833 17.2346L117.808 18.1604L113.487 22.7068C113.303 22.9001 113.097 23.109 112.869 23.3336C112.656 23.5578 112.439 23.7784 112.218 23.9953C111.997 24.2121 111.795 24.4021 111.61 24.5653C111.441 24.728 111.308 24.8521 111.212 24.9376L111.259 24.9816L122.331 22.4591L123.491 23.5614L115.621 31.8422L114.646 30.9163L118.923 26.4164C119.121 26.2076 119.338 25.9871 119.574 25.7547C119.817 25.5147 120.049 25.2862 120.27 25.0693C120.505 24.852 120.712 24.6582 120.888 24.4877C121.065 24.3172 121.198 24.1931 121.286 24.1154L121.24 24.0713L110.123 26.6176L108.963 25.5154L116.833 17.2346Z" fill="white"/>
<path d="M123.769 32.8651L125.926 26.0964L126.814 27.4271L124.635 34.1337L129.24 31.0599L130.004 32.2043L125.399 35.2781L132.429 35.8371L133.317 37.1678L126.252 36.5556L123.896 43.6307L122.981 42.26L125.319 35.3314L120.502 38.5474L119.738 37.403L124.555 34.187L117.251 33.677L116.336 32.3064L123.769 32.8651Z" fill="white"/>
<path d="M127.586 52.8387L126.93 51.2398L130.33 44.2614L124.971 46.4578L124.425 45.1253L134.995 40.7933L135.541 42.1257L130.419 44.225L137.453 46.7893L138.071 48.2994L131.053 45.8152L127.586 52.8387Z" fill="white"/>
<path d="M129.836 62.6605L133.005 60.5732L132.055 56.146L128.312 55.5582L128.007 54.1346L140.16 56.0923L140.432 57.3594L130.148 64.1154L129.836 62.6605ZM137.276 57.9057C137.353 57.8565 137.493 57.7719 137.696 57.6519C137.9 57.5319 138.108 57.4108 138.322 57.2885C138.548 57.1745 138.72 57.0832 138.836 57.0146C138.616 57.0072 138.39 56.9957 138.158 56.9801C137.938 56.9728 137.732 56.9568 137.542 56.9323C137.353 56.9182 137.192 56.9037 137.058 56.8888L133.407 56.3468L134.166 59.8823L137.276 57.9057Z" fill="white"/>
</svg>
