<svg width="96" height="96" viewBox="0 0 96 96" fill="none" xmlns="http://www.w3.org/2000/svg">
<mask id="path-1-inside-1_1_70" fill="white">
<path fill-rule="evenodd" clip-rule="evenodd" d="M0.616282 40.3448C3.58306 21.2926 18.6807 5.79525 37.8094 2.16733C65.7963 -3.1415 91.739 14.2616 95.5035 40.8686C96.5603 48.3371 95.8283 58.9472 94.2233 59.4242C93.6564 59.5928 91.9257 60.0107 90.3771 60.3536C84.1385 61.7347 76.768 73.2453 76.768 81.6067C76.768 85.9233 75.1246 87.9978 69.8837 90.2914C55.3229 96.6656 37.0173 96.2702 24.1985 89.3048C19.8351 86.9343 19.7572 86.8116 19.1828 81.32C17.9974 70.0043 12.0526 61.4527 4.53758 60.2534L0.870632 59.6678L0.205194 53.4632C-0.183368 49.8456 -0.0116128 44.3756 0.616282 40.3448ZM13.3581 31.3097C18.1833 21.4734 28.9175 12.6772 38.9873 10.3086C44.9519 8.90503 52.8667 9.20673 58.85 11.0666C74.737 16.0025 84.7852 28.5587 85.9058 44.8741C86.3989 52.0126 85.5989 53.6126 85.5989 53.6126C85.5989 53.6126 85.4844 53.7752 84.4285 57.718C82.8001 63.796 79.3049 69.3213 73.8913 74.3762C55.2018 91.8281 25.1173 86.0873 13.6754 62.8844C10.7912 57.0349 10.5997 56.0342 10.5997 46.7892C10.5997 37.7822 10.8381 36.4461 13.3581 31.3097ZM34.0871 28.6C29.3286 25.4874 30.5741 18.5295 36.411 15.6174C43.2878 12.1863 58.4586 14.316 66.6823 19.8656C83.1765 30.9967 85.9471 57.1398 72.0658 70.6705L68.581 74.0679L67.969 70.2451C67.5664 67.7303 66.183 65.1265 63.9286 62.6342C59.8562 58.1349 59.3446 53.9701 62.5461 51.3822C63.6714 50.4724 65.0614 49.572 65.6358 49.3809C67.5608 48.74 65.48 43.2569 61.6713 38.9375C57.5604 34.2752 53.4158 32.5333 42.6533 30.9471C39.1187 30.4261 35.2641 29.3702 34.0871 28.6ZM15.3723 45.3641C15.3685 37.5208 17.8904 30.8693 23.0347 25.1576L27.3595 20.3556L28.4689 24.7163C29.1297 27.3163 30.8303 30.3661 32.6812 32.2729C36.4513 36.1566 36.8812 40.5528 33.738 43.0938C32.6126 44.0036 31.2226 44.9041 30.6482 45.0952C28.7495 45.7267 30.8472 51.5246 34.3959 55.4505C38.5819 60.0819 42.0667 61.6035 52.252 63.2498C61.1317 64.6843 64.06 66.1759 64.9497 69.7167C67.1384 78.422 54.8368 82.9663 39.6575 79.061C24.848 75.2504 15.3798 62.1132 15.3723 45.3641ZM38.2872 46.7227C38.2872 44.5949 39.2107 42.8493 41.5984 40.4657C44.5915 37.4777 45.2813 37.2097 48.7812 37.6782C53.8147 38.3528 57.0424 41.575 57.7181 46.6C58.1874 50.0939 57.919 50.7826 54.9259 53.7705C52.5823 56.1101 50.7766 57.0761 48.7493 57.0761C42.4666 57.0761 38.2872 52.9404 38.2872 46.7227Z"/>
</mask>
<path fill-rule="evenodd" clip-rule="evenodd" d="M0.616282 40.3448C3.58306 21.2926 18.6807 5.79525 37.8094 2.16733C65.7963 -3.1415 91.739 14.2616 95.5035 40.8686C96.5603 48.3371 95.8283 58.9472 94.2233 59.4242C93.6564 59.5928 91.9257 60.0107 90.3771 60.3536C84.1385 61.7347 76.768 73.2453 76.768 81.6067C76.768 85.9233 75.1246 87.9978 69.8837 90.2914C55.3229 96.6656 37.0173 96.2702 24.1985 89.3048C19.8351 86.9343 19.7572 86.8116 19.1828 81.32C17.9974 70.0043 12.0526 61.4527 4.53758 60.2534L0.870632 59.6678L0.205194 53.4632C-0.183368 49.8456 -0.0116128 44.3756 0.616282 40.3448ZM13.3581 31.3097C18.1833 21.4734 28.9175 12.6772 38.9873 10.3086C44.9519 8.90503 52.8667 9.20673 58.85 11.0666C74.737 16.0025 84.7852 28.5587 85.9058 44.8741C86.3989 52.0126 85.5989 53.6126 85.5989 53.6126C85.5989 53.6126 85.4844 53.7752 84.4285 57.718C82.8001 63.796 79.3049 69.3213 73.8913 74.3762C55.2018 91.8281 25.1173 86.0873 13.6754 62.8844C10.7912 57.0349 10.5997 56.0342 10.5997 46.7892C10.5997 37.7822 10.8381 36.4461 13.3581 31.3097ZM34.0871 28.6C29.3286 25.4874 30.5741 18.5295 36.411 15.6174C43.2878 12.1863 58.4586 14.316 66.6823 19.8656C83.1765 30.9967 85.9471 57.1398 72.0658 70.6705L68.581 74.0679L67.969 70.2451C67.5664 67.7303 66.183 65.1265 63.9286 62.6342C59.8562 58.1349 59.3446 53.9701 62.5461 51.3822C63.6714 50.4724 65.0614 49.572 65.6358 49.3809C67.5608 48.74 65.48 43.2569 61.6713 38.9375C57.5604 34.2752 53.4158 32.5333 42.6533 30.9471C39.1187 30.4261 35.2641 29.3702 34.0871 28.6ZM15.3723 45.3641C15.3685 37.5208 17.8904 30.8693 23.0347 25.1576L27.3595 20.3556L28.4689 24.7163C29.1297 27.3163 30.8303 30.3661 32.6812 32.2729C36.4513 36.1566 36.8812 40.5528 33.738 43.0938C32.6126 44.0036 31.2226 44.9041 30.6482 45.0952C28.7495 45.7267 30.8472 51.5246 34.3959 55.4505C38.5819 60.0819 42.0667 61.6035 52.252 63.2498C61.1317 64.6843 64.06 66.1759 64.9497 69.7167C67.1384 78.422 54.8368 82.9663 39.6575 79.061C24.848 75.2504 15.3798 62.1132 15.3723 45.3641ZM38.2872 46.7227C38.2872 44.5949 39.2107 42.8493 41.5984 40.4657C44.5915 37.4777 45.2813 37.2097 48.7812 37.6782C53.8147 38.3528 57.0424 41.575 57.7181 46.6C58.1874 50.0939 57.919 50.7826 54.9259 53.7705C52.5823 56.1101 50.7766 57.0761 48.7493 57.0761C42.4666 57.0761 38.2872 52.9404 38.2872 46.7227Z" fill="url(#paint0_linear_1_70)"/>
<path d="M37.8094 2.16733L37.9585 2.95332L37.9585 2.95331L37.8094 2.16733ZM0.616282 40.3448L1.40675 40.4679L1.40676 40.4679L0.616282 40.3448ZM95.5035 40.8686L94.7114 40.9806L94.7114 40.9806L95.5035 40.8686ZM94.2233 59.4242L93.9954 58.6573L93.9952 58.6574L94.2233 59.4242ZM90.3771 60.3536L90.55 61.1347L90.5501 61.1347L90.3771 60.3536ZM69.8837 90.2914L69.563 89.5586L69.5629 89.5586L69.8837 90.2914ZM24.1985 89.3048L24.5804 88.6019L24.5804 88.6019L24.1985 89.3048ZM19.1828 81.32L19.9785 81.2368L19.9785 81.2367L19.1828 81.32ZM4.53758 60.2534L4.41142 61.0434L4.4115 61.0434L4.53758 60.2534ZM0.870632 59.6678L0.0751935 59.7531L0.140424 60.3613L0.744472 60.4578L0.870632 59.6678ZM0.205194 53.4632L1.00063 53.3779L1.00062 53.3778L0.205194 53.4632ZM38.9873 10.3086L39.1705 11.0873L39.1706 11.0873L38.9873 10.3086ZM13.3581 31.3097L14.0764 31.662L14.0764 31.662L13.3581 31.3097ZM58.85 11.0666L58.6126 11.8305L58.6127 11.8306L58.85 11.0666ZM85.9058 44.8741L85.1077 44.9289L85.1077 44.9292L85.9058 44.8741ZM85.5989 53.6126L86.253 54.0732L86.2876 54.0241L86.3145 53.9704L85.5989 53.6126ZM84.4285 57.718L85.2013 57.925L85.2013 57.9249L84.4285 57.718ZM73.8913 74.3762L73.3454 73.7915L73.3453 73.7915L73.8913 74.3762ZM13.6754 62.8844L12.9579 63.2381L12.9579 63.2382L13.6754 62.8844ZM36.411 15.6174L36.7681 16.3333L36.7682 16.3333L36.411 15.6174ZM34.0871 28.6L34.5252 27.9306L34.525 27.9305L34.0871 28.6ZM66.6823 19.8656L67.1298 19.2025L67.1298 19.2025L66.6823 19.8656ZM72.0658 70.6705L71.5074 70.0976L71.5074 70.0977L72.0658 70.6705ZM68.581 74.0679L67.7911 74.1944L68.0349 75.7176L69.1395 74.6408L68.581 74.0679ZM67.969 70.2451L68.759 70.1187V70.1187L67.969 70.2451ZM63.9286 62.6342L64.5219 62.0975L64.5217 62.0973L63.9286 62.6342ZM62.5461 51.3822L63.049 52.0044L63.049 52.0043L62.5461 51.3822ZM65.6358 49.3809L65.8884 50.1399L65.8885 50.1399L65.6358 49.3809ZM61.6713 38.9375L61.0713 39.4666L61.0713 39.4666L61.6713 38.9375ZM42.6533 30.9471L42.77 30.1556L42.77 30.1556L42.6533 30.9471ZM23.0347 25.1576L22.4402 24.6222L22.4402 24.6222L23.0347 25.1576ZM15.3723 45.3641L16.1723 45.3637V45.3637L15.3723 45.3641ZM27.3595 20.3556L28.1348 20.1584L27.7661 18.7089L26.7651 19.8203L27.3595 20.3556ZM28.4689 24.7163L29.2443 24.5192L29.2442 24.519L28.4689 24.7163ZM32.6812 32.2729L32.1071 32.8301L32.1072 32.8301L32.6812 32.2729ZM33.738 43.0938L33.235 42.4717L33.235 42.4717L33.738 43.0938ZM30.6482 45.0952L30.9007 45.8543L30.9008 45.8543L30.6482 45.0952ZM34.3959 55.4505L34.9894 54.9141L34.9894 54.914L34.3959 55.4505ZM52.252 63.2498L52.1243 64.0395L52.1244 64.0395L52.252 63.2498ZM64.9497 69.7167L64.1738 69.9117L64.1739 69.9118L64.9497 69.7167ZM39.6575 79.061L39.4581 79.8358L39.4581 79.8358L39.6575 79.061ZM41.5984 40.4657L42.1636 41.0318L41.5984 40.4657ZM48.7812 37.6782L48.8875 36.8853L48.8873 36.8853L48.7812 37.6782ZM57.7181 46.6L58.511 46.4935L58.511 46.4933L57.7181 46.6ZM54.9259 53.7705L55.4911 54.3367L54.9259 53.7705ZM37.6604 1.38134C18.2035 5.07148 2.84534 20.8307 -0.174191 40.2217L1.40676 40.4679C4.32078 21.7545 19.1579 6.51901 37.9585 2.95332L37.6604 1.38134ZM96.2956 40.7565C92.4606 13.6515 66.0487 -4.00365 37.6604 1.38134L37.9585 2.95331C65.5438 -2.27935 91.0173 14.8718 94.7114 40.9806L96.2956 40.7565ZM94.4512 60.191C95.0014 60.0275 95.3179 59.5219 95.501 59.1481C95.7102 58.7208 95.8827 58.1726 96.0277 57.5575C96.3195 56.3195 96.5325 54.6672 96.6597 52.8233C96.9144 49.1319 96.8332 44.5553 96.2956 40.7565L94.7114 40.9806C95.2307 44.6503 95.3119 49.113 95.0635 52.7132C94.9392 54.515 94.7342 56.0713 94.4704 57.1903C94.3376 57.7537 94.1979 58.171 94.064 58.4444C93.904 58.7712 93.8465 58.7016 93.9954 58.6573L94.4512 60.191ZM90.5501 61.1347C92.0961 60.7924 93.8534 60.3689 94.4514 60.1909L93.9952 58.6574C93.4595 58.8167 91.7554 59.229 90.2041 59.5725L90.5501 61.1347ZM77.568 81.6067C77.568 77.6285 79.3353 72.8099 81.9068 68.7939C83.187 66.7947 84.6481 65.024 86.1524 63.6773C87.6649 62.3232 89.1746 61.4392 90.55 61.1347L90.2042 59.5725C88.4604 59.9586 86.7093 61.0313 85.0852 62.4852C83.4529 63.9465 81.9016 65.835 80.5594 67.9311C77.886 72.1061 75.968 77.2235 75.968 81.6067H77.568ZM70.2045 91.0243C72.8566 89.8636 74.727 88.7074 75.9182 87.2046C77.1349 85.6695 77.568 83.8713 77.568 81.6067H75.968C75.968 83.6588 75.5795 85.0561 74.6643 86.2108C73.7235 87.3977 72.1518 88.4256 69.563 89.5586L70.2045 91.0243ZM23.8165 90.0078C36.8738 97.1027 55.4407 97.4873 70.2045 91.0243L69.5629 89.5586C55.2051 95.8439 37.1608 95.4377 24.5804 88.6019L23.8165 90.0078ZM18.3872 81.4033C18.5297 82.766 18.6455 83.84 18.8094 84.7007C18.9747 85.569 19.1992 86.2826 19.5924 86.9084C19.989 87.5398 20.5199 88.0225 21.2032 88.4898C21.8738 88.9483 22.7363 89.4209 23.8166 90.0078L24.5804 88.6019C23.4789 88.0035 22.6955 87.5719 22.1063 87.169C21.5299 86.7749 21.1872 86.4393 20.9472 86.0572C20.7037 85.6696 20.5283 85.1747 20.3811 84.4014C20.2325 83.6205 20.1231 82.6199 19.9785 81.2368L18.3872 81.4033ZM4.4115 61.0434C7.89852 61.5999 11.0911 63.8739 13.5769 67.4497C16.0615 71.0237 17.8061 75.8566 18.3872 81.4034L19.9785 81.2367C19.3741 75.4677 17.5536 70.367 14.8907 66.5364C12.229 62.7076 8.69166 60.1062 4.66365 59.4634L4.4115 61.0434ZM0.744472 60.4578L4.41142 61.0434L4.66374 59.4634L0.996791 58.8778L0.744472 60.4578ZM-0.590244 53.5485L0.0751935 59.7531L1.66607 59.5825L1.00063 53.3779L-0.590244 53.5485ZM-0.174185 40.2217C-0.811538 44.3132 -0.987097 49.8537 -0.59023 53.5486L1.00062 53.3778C0.620361 49.8375 0.788313 44.438 1.40675 40.4679L-0.174185 40.2217ZM38.8042 9.52985C28.4858 11.957 17.5634 20.9206 12.6399 30.9573L14.0764 31.662C18.8032 22.0262 29.3493 13.3975 39.1705 11.0873L38.8042 9.52985ZM59.0875 10.3027C52.971 8.40137 44.9109 8.09282 38.8041 9.52987L39.1706 11.0873C44.9929 9.71723 52.7625 10.0121 58.6126 11.8305L59.0875 10.3027ZM86.7039 44.8193C85.5602 28.167 75.2825 15.3343 59.0874 10.3026L58.6127 11.8306C74.1915 16.6708 84.0102 28.9505 85.1077 44.9289L86.7039 44.8193ZM85.5989 53.6126C86.3145 53.9704 86.3148 53.9697 86.3152 53.9689C86.3153 53.9687 86.3157 53.968 86.3159 53.9675C86.3164 53.9665 86.3169 53.9655 86.3174 53.9644C86.3184 53.9623 86.3195 53.9602 86.3206 53.9579C86.3227 53.9534 86.325 53.9485 86.3275 53.9432C86.3324 53.9326 86.3378 53.9205 86.3437 53.9066C86.3555 53.879 86.3692 53.8446 86.3844 53.8025C86.4149 53.7185 86.4516 53.6035 86.491 53.4504C86.5696 53.1447 86.6602 52.6827 86.7327 52.0055C86.8775 50.6529 86.9526 48.4189 86.7039 44.8189L85.1077 44.9292C85.3521 48.4678 85.2737 50.6031 85.1418 51.8351C85.076 52.4502 84.9974 52.8343 84.9414 53.0517C84.9135 53.1601 84.8916 53.2259 84.8802 53.2573C84.8745 53.2729 84.8716 53.2799 84.8719 53.2792C84.872 53.2788 84.873 53.2765 84.8749 53.2724C84.8758 53.2704 84.877 53.2679 84.8784 53.2649C84.8791 53.2635 84.8799 53.2619 84.8807 53.2602C84.8811 53.2594 84.8815 53.2585 84.882 53.2576C84.8822 53.2572 84.8826 53.2565 84.8827 53.2562C84.883 53.2555 84.8834 53.2548 85.5989 53.6126ZM85.2013 57.9249C85.7286 55.9561 86.0187 54.9391 86.1757 54.4174C86.2545 54.1556 86.2976 54.0261 86.3186 53.9668C86.3292 53.9368 86.3315 53.9324 86.3275 53.9418C86.3254 53.9466 86.3196 53.96 86.3103 53.9783C86.3055 53.9878 86.2988 54.0005 86.2901 54.0153C86.2858 54.0229 86.2806 54.0315 86.2746 54.041C86.2715 54.0457 86.2683 54.0508 86.2647 54.0561C86.2629 54.0588 86.2611 54.0616 86.2591 54.0644C86.2581 54.0658 86.2566 54.068 86.2561 54.0687C86.2546 54.071 86.253 54.0732 85.5989 53.6126C84.9448 53.152 84.9432 53.1543 84.9417 53.1565C84.9412 53.1572 84.9397 53.1594 84.9387 53.1608C84.9367 53.1637 84.9349 53.1664 84.9331 53.1691C84.9295 53.1745 84.9262 53.1797 84.9231 53.1845C84.917 53.1942 84.9116 53.2031 84.907 53.2111C84.8978 53.2268 84.8903 53.2409 84.8844 53.2524C84.8729 53.2751 84.8636 53.2958 84.8563 53.3128C84.8419 53.3465 84.8271 53.3856 84.8105 53.4324C84.777 53.5269 84.7254 53.6844 84.6436 53.9561C84.4795 54.5014 84.1844 55.537 83.6558 57.511L85.2013 57.9249ZM74.4373 74.9609C79.9407 69.8222 83.5277 64.1717 85.2013 57.925L83.6558 57.5109C82.0726 63.4204 78.6692 68.8204 73.3454 73.7915L74.4373 74.9609ZM12.9579 63.2382C24.6309 86.9096 55.3456 92.7884 74.4373 74.9609L73.3453 73.7915C55.0581 90.8677 25.6038 85.265 14.3929 62.5305L12.9579 63.2382ZM9.79972 46.7892C9.79972 51.3911 9.84476 54.0341 10.2702 56.2603C10.7011 58.5151 11.5164 60.3147 12.9579 63.2381L14.3929 62.5306C12.9502 59.6046 12.2276 57.9791 11.8418 55.96C11.4504 53.9122 11.3997 51.4323 11.3997 46.7892H9.79972ZM12.6399 30.9573C11.3736 33.5384 10.6416 35.2399 10.2463 37.4576C9.85705 39.6419 9.79972 42.3012 9.79972 46.7892H11.3997C11.3997 42.2703 11.4616 39.758 11.8215 37.7383C12.1755 35.7521 12.8226 34.2174 14.0764 31.662L12.6399 30.9573ZM36.0538 14.9016C32.929 16.4606 30.9828 19.1301 30.4883 21.8925C29.9905 24.6735 30.9789 27.5228 33.6492 29.2695L34.525 27.9305C32.4368 26.5645 31.6687 24.3786 32.0633 22.1745C32.4611 19.9518 34.0561 17.6863 36.7681 16.3333L36.0538 14.9016ZM67.1298 19.2025C62.8882 16.3401 56.9134 14.39 51.1528 13.5815C45.4175 12.7765 39.7095 13.0776 36.0538 14.9016L36.7682 16.3333C39.9893 14.7261 45.3051 14.3764 50.9304 15.166C56.5303 15.9519 62.2527 17.8415 66.2348 20.5287L67.1298 19.2025ZM72.6243 71.2434C79.7726 64.2756 82.6004 54.0979 81.5604 44.2839C80.5203 34.469 75.6026 24.9204 67.1298 19.2025L66.2348 20.5287C74.2562 25.942 78.9709 35.0304 79.9693 44.4525C80.9679 53.8756 78.2404 63.5348 71.5074 70.0976L72.6243 71.2434ZM69.1395 74.6408L72.6243 71.2433L71.5074 70.0977L68.0225 73.4951L69.1395 74.6408ZM67.1791 70.3716L67.7911 74.1944L69.3709 73.9415L68.759 70.1187L67.1791 70.3716ZM63.3353 63.1709C65.5186 65.5846 66.8077 68.0517 67.1791 70.3716L68.759 70.1187C68.3251 67.409 66.8473 64.6684 64.5219 62.0975L63.3353 63.1709ZM62.0431 50.7601C60.2327 52.2235 59.4444 54.1815 59.7156 56.389C59.9802 58.5431 61.241 60.8571 63.3354 63.171L64.5217 62.0973C62.5437 59.912 61.5125 57.894 61.3037 56.1939C61.1014 54.5472 61.658 53.1288 63.049 52.0044L62.0431 50.7601ZM65.3832 48.6218C64.9884 48.7532 64.4204 49.0793 63.8626 49.4406C63.2799 49.8181 62.6283 50.287 62.0431 50.7601L63.049 52.0043C63.5892 51.5676 64.1952 51.1315 64.7325 50.7835C65.2946 50.4194 65.7088 50.1997 65.8884 50.1399L65.3832 48.6218ZM61.0713 39.4666C62.9206 41.5639 64.3386 43.9331 65.0557 45.8225C65.4179 46.7766 65.5768 47.5449 65.5643 48.0669C65.5516 48.5969 65.3916 48.619 65.3831 48.6218L65.8885 50.1399C66.8425 49.8223 67.1443 48.9186 67.1638 48.1053C67.1835 47.2841 66.9451 46.2915 66.5516 45.2547C65.7575 43.1625 64.2307 40.6304 62.2714 38.4084L61.0713 39.4666ZM42.5367 31.7385C47.9044 32.5297 51.5484 33.3505 54.3468 34.5263C57.115 35.6894 59.0834 37.212 61.0713 39.4666L62.2714 38.4084C60.1484 36.0007 57.989 34.3211 54.9666 33.0512C51.9742 31.7939 48.1647 30.9507 42.77 30.1556L42.5367 31.7385ZM33.6491 29.2694C34.3559 29.7319 35.7292 30.2151 37.2747 30.6385C38.8582 31.0724 40.7371 31.4733 42.5367 31.7385L42.77 30.1556C41.0349 29.8999 39.2193 29.5123 37.6975 29.0954C36.1378 28.6681 34.9953 28.2382 34.5252 27.9306L33.6491 29.2694ZM22.4402 24.6222C17.1606 30.4842 14.5684 37.3278 14.5723 45.3645L16.1723 45.3637C16.1686 37.7138 18.6203 31.2544 23.6291 25.693L22.4402 24.6222ZM26.7651 19.8203L22.4402 24.6222L23.6291 25.693L27.954 20.891L26.7651 19.8203ZM29.2442 24.519L28.1348 20.1584L26.5842 20.5529L27.6936 24.9135L29.2442 24.519ZM33.2552 31.7157C31.5027 29.9102 29.8709 26.9849 29.2443 24.5192L27.6936 24.9133C28.3885 27.6478 30.158 30.8221 32.1071 32.8301L33.2552 31.7157ZM34.2409 43.716C36.0266 42.2724 36.8097 40.2727 36.5983 38.1091C36.39 35.9768 35.2266 33.7465 33.2552 31.7156L32.1072 32.8301C33.9059 34.683 34.8425 36.5926 35.0059 38.2646C35.1662 39.9053 34.5926 41.3743 33.235 42.4717L34.2409 43.716ZM30.9008 45.8543C31.2957 45.7229 31.8636 45.3968 32.4214 45.0355C33.0042 44.658 33.6558 44.189 34.2409 43.716L33.235 42.4717C32.6949 42.9084 32.0888 43.3446 31.5516 43.6926C30.9895 44.0567 30.5752 44.2764 30.3956 44.3361L30.9008 45.8543ZM34.9894 54.914C33.2838 53.0271 31.9265 50.6857 31.2316 48.7652C30.8813 47.7973 30.7217 46.9972 30.7336 46.4447C30.7395 46.1701 30.787 46.0095 30.8289 45.9285C30.8606 45.8674 30.881 45.8609 30.9007 45.8543L30.3958 44.3361C29.4276 44.6581 29.1512 45.6062 29.134 46.4104C29.116 47.2453 29.3466 48.2585 29.727 49.3097C30.4934 51.4275 31.9594 53.948 33.8024 55.987L34.9894 54.914ZM52.3796 62.46C47.2956 61.6383 43.9634 60.8585 41.3944 59.7365C38.8569 58.6281 37.028 57.1695 34.9894 54.9141L33.8024 55.9869C35.9498 58.3629 37.9563 59.9808 40.754 61.2027C43.5202 62.4109 47.0231 63.215 52.1243 64.0395L52.3796 62.46ZM65.7256 69.5217C65.4801 68.5447 65.0846 67.6757 64.459 66.9086C63.8353 66.1438 63.0122 65.5163 61.9601 64.9805C59.8845 63.9234 56.8209 63.1775 52.3795 62.46L52.1244 64.0395C56.5627 64.7565 59.4031 65.4738 61.234 66.4062C62.1352 66.8652 62.766 67.3643 63.2191 67.9198C63.6703 68.4731 63.9745 69.1183 64.1738 69.9117L65.7256 69.5217ZM39.4581 79.8358C47.1506 81.8149 54.1963 81.6776 59.0938 79.8682C61.5454 78.9625 63.5126 77.6166 64.7169 75.8489C65.9364 74.0589 66.3249 71.9053 65.7256 69.5216L64.1739 69.9118C64.6689 71.8808 64.3405 73.5597 63.3946 74.9481C62.4335 76.3587 60.787 77.537 58.5393 78.3674C54.0384 80.0302 47.3436 80.2124 39.8568 78.2862L39.4581 79.8358ZM14.5723 45.3645C14.5799 62.4299 24.2502 75.9226 39.4581 79.8358L39.8568 78.2862C25.4457 74.5781 16.1796 61.7966 16.1723 45.3637L14.5723 45.3645ZM41.0332 39.8995C38.5802 42.3483 37.4872 44.2867 37.4872 46.7227H39.0872C39.0872 44.903 39.8412 43.3502 42.1636 41.0318L41.0332 39.8995ZM48.8873 36.8853C47.1472 36.6524 45.908 36.5651 44.7103 37.03C43.5435 37.4828 42.5085 38.4267 41.0332 39.8995L42.1636 41.0318C43.6814 39.5166 44.4878 38.8326 45.2892 38.5216C46.0596 38.2225 46.9153 38.2356 48.675 38.4711L48.8873 36.8853ZM58.511 46.4933C58.1532 43.8332 57.1114 41.6011 55.449 39.9415C53.7867 38.282 51.5513 37.2423 48.8875 36.8853L48.6749 38.4711C51.0446 38.7887 52.9398 39.6974 54.3186 41.0739C55.6973 42.4503 56.6072 44.3418 56.9253 46.7066L58.511 46.4933ZM55.4911 54.3367C56.9662 52.8641 57.9121 51.8306 58.3659 50.6653C58.8319 49.4687 58.7443 48.2306 58.511 46.4935L56.9252 46.7065C57.1612 48.4633 57.1741 49.3165 56.8749 50.0847C56.5636 50.8842 55.8787 51.689 54.3607 53.2044L55.4911 54.3367ZM48.7493 57.8761C51.089 57.8761 53.088 56.7357 55.4911 54.3367L54.3607 53.2044C52.0766 55.4846 50.4641 56.2761 48.7493 56.2761V57.8761ZM37.4872 46.7227C37.4872 50.0154 38.5975 52.8186 40.5995 54.7997C42.6007 56.7801 45.4291 57.8761 48.7493 57.8761V56.2761C45.7868 56.2761 43.3841 55.3043 41.7249 53.6624C40.0665 52.0212 39.0872 49.6477 39.0872 46.7227H37.4872Z" fill="url(#paint1_linear_1_70)" mask="url(#path-1-inside-1_1_70)"/>
<defs>
<linearGradient id="paint0_linear_1_70" x1="-12.8015" y1="-5.59239" x2="101.088" y2="6.96701" gradientUnits="userSpaceOnUse">
<stop stop-color="#F9B58F"/>
<stop offset="0.315" stop-color="#FCC499"/>
<stop offset="0.665" stop-color="#F8B466"/>
<stop offset="1" stop-color="#F7B78A"/>
</linearGradient>
<linearGradient id="paint1_linear_1_70" x1="11.9985" y1="1.21387" x2="109.614" y2="22.6314" gradientUnits="userSpaceOnUse">
<stop stop-color="#F9B58F"/>
<stop offset="0.315" stop-color="#F8C39B"/>
<stop offset="0.665" stop-color="#F8B466"/>
<stop offset="1" stop-color="#FCE0CD"/>
</linearGradient>
</defs>
</svg>
