<svg width="98" height="96" viewBox="0 0 98 96" fill="none" xmlns="http://www.w3.org/2000/svg">
<mask id="path-1-inside-1_1_34" fill="white">
<path fill-rule="evenodd" clip-rule="evenodd" d="M1.30966 40.592C4.2953 21.4188 19.4889 5.8229 38.7392 2.17192C66.9039 -3.17065 93.0115 14.3431 96.8 41.1191C97.8635 48.6351 97.1268 59.3127 95.5117 59.7927C94.9412 59.9624 93.1995 60.3829 91.641 60.728C85.3628 62.1179 77.9454 73.7016 77.9454 82.1162C77.9454 86.4603 76.2916 88.5479 71.0173 90.8561C56.364 97.2708 37.942 96.8729 25.0417 89.8633C20.6507 87.4777 20.5723 87.3542 19.9942 81.8277C18.8013 70.4401 12.8187 61.8341 5.25588 60.6272L1.56563 60.0378L0.895961 53.7938C0.504929 50.1532 0.677776 44.6485 1.30966 40.592ZM14.1325 31.4995C18.9883 21.6007 29.7908 12.7486 39.9246 10.3649C45.927 8.95244 53.8922 9.25606 59.9135 11.1278C75.9015 16.095 86.0135 28.7311 87.1413 45.1501C87.6375 52.334 86.8324 53.9442 86.8324 53.9442C86.8324 53.9442 86.7172 54.1078 85.6546 58.0756C84.0159 64.1923 80.4985 69.7527 75.0505 74.8398C56.2422 92.4025 25.9664 86.6253 14.4518 63.2749C11.5492 57.3882 11.3566 56.3812 11.3566 47.0774C11.3566 38.0132 11.5965 36.6686 14.1325 31.4995ZM34.9932 28.7726C30.2045 25.6402 31.4579 18.6381 37.3319 15.7075C44.2524 12.2545 59.5197 14.3978 67.7956 19.9827C84.3946 31.1846 87.1828 57.4938 73.2134 71.1105L69.7063 74.5295L69.0905 70.6824C68.6853 68.1516 67.2931 65.5313 65.0243 63.0231C60.9261 58.4952 60.4113 54.3039 63.6331 51.6996C64.7655 50.784 66.1644 49.8779 66.7424 49.6855C68.6796 49.0406 66.5856 43.5226 62.7528 39.1758C58.6158 34.4838 54.4447 32.7309 43.6139 31.1346C40.0568 30.6103 36.1777 29.5476 34.9932 28.7726ZM16.1594 45.6433C16.1557 37.7501 18.6936 31.0563 23.8705 25.3083L28.2229 20.4758L29.3393 24.8642C30.0043 27.4808 31.7157 30.55 33.5783 32.4688C37.3725 36.3772 37.8051 40.8014 34.6419 43.3586C33.5094 44.2741 32.1106 45.1803 31.5325 45.3726C29.6217 46.0082 31.7327 51.8429 35.304 55.7938C39.5166 60.4546 43.0236 61.9859 53.2735 63.6426C62.2097 65.0862 65.1566 66.5873 66.052 70.1506C68.2546 78.9113 55.8747 83.4844 40.599 79.5543C25.6954 75.7195 16.167 62.4988 16.1594 45.6433ZM39.22 47.0105C39.22 44.8691 40.1494 43.1125 42.5523 40.7137C45.5643 37.7067 46.2586 37.437 49.7807 37.9085C54.8462 38.5874 58.0944 41.8301 58.7744 46.887C59.2467 50.4031 58.9766 51.0961 55.9645 54.1031C53.606 56.4576 51.7887 57.4297 49.7486 57.4297C43.4259 57.4297 39.22 53.2677 39.22 47.0105Z"/>
</mask>
<path fill-rule="evenodd" clip-rule="evenodd" d="M1.30966 40.592C4.2953 21.4188 19.4889 5.8229 38.7392 2.17192C66.9039 -3.17065 93.0115 14.3431 96.8 41.1191C97.8635 48.6351 97.1268 59.3127 95.5117 59.7927C94.9412 59.9624 93.1995 60.3829 91.641 60.728C85.3628 62.1179 77.9454 73.7016 77.9454 82.1162C77.9454 86.4603 76.2916 88.5479 71.0173 90.8561C56.364 97.2708 37.942 96.8729 25.0417 89.8633C20.6507 87.4777 20.5723 87.3542 19.9942 81.8277C18.8013 70.4401 12.8187 61.8341 5.25588 60.6272L1.56563 60.0378L0.895961 53.7938C0.504929 50.1532 0.677776 44.6485 1.30966 40.592ZM14.1325 31.4995C18.9883 21.6007 29.7908 12.7486 39.9246 10.3649C45.927 8.95244 53.8922 9.25606 59.9135 11.1278C75.9015 16.095 86.0135 28.7311 87.1413 45.1501C87.6375 52.334 86.8324 53.9442 86.8324 53.9442C86.8324 53.9442 86.7172 54.1078 85.6546 58.0756C84.0159 64.1923 80.4985 69.7527 75.0505 74.8398C56.2422 92.4025 25.9664 86.6253 14.4518 63.2749C11.5492 57.3882 11.3566 56.3812 11.3566 47.0774C11.3566 38.0132 11.5965 36.6686 14.1325 31.4995ZM34.9932 28.7726C30.2045 25.6402 31.4579 18.6381 37.3319 15.7075C44.2524 12.2545 59.5197 14.3978 67.7956 19.9827C84.3946 31.1846 87.1828 57.4938 73.2134 71.1105L69.7063 74.5295L69.0905 70.6824C68.6853 68.1516 67.2931 65.5313 65.0243 63.0231C60.9261 58.4952 60.4113 54.3039 63.6331 51.6996C64.7655 50.784 66.1644 49.8779 66.7424 49.6855C68.6796 49.0406 66.5856 43.5226 62.7528 39.1758C58.6158 34.4838 54.4447 32.7309 43.6139 31.1346C40.0568 30.6103 36.1777 29.5476 34.9932 28.7726ZM16.1594 45.6433C16.1557 37.7501 18.6936 31.0563 23.8705 25.3083L28.2229 20.4758L29.3393 24.8642C30.0043 27.4808 31.7157 30.55 33.5783 32.4688C37.3725 36.3772 37.8051 40.8014 34.6419 43.3586C33.5094 44.2741 32.1106 45.1803 31.5325 45.3726C29.6217 46.0082 31.7327 51.8429 35.304 55.7938C39.5166 60.4546 43.0236 61.9859 53.2735 63.6426C62.2097 65.0862 65.1566 66.5873 66.052 70.1506C68.2546 78.9113 55.8747 83.4844 40.599 79.5543C25.6954 75.7195 16.167 62.4988 16.1594 45.6433ZM39.22 47.0105C39.22 44.8691 40.1494 43.1125 42.5523 40.7137C45.5643 37.7067 46.2586 37.437 49.7807 37.9085C54.8462 38.5874 58.0944 41.8301 58.7744 46.887C59.2467 50.4031 58.9766 51.0961 55.9645 54.1031C53.606 56.4576 51.7887 57.4297 49.7486 57.4297C43.4259 57.4297 39.22 53.2677 39.22 47.0105Z" fill="url(#paint0_linear_1_34)"/>
<path fill-rule="evenodd" clip-rule="evenodd" d="M1.30966 40.592C4.2953 21.4188 19.4889 5.8229 38.7392 2.17192C66.9039 -3.17065 93.0115 14.3431 96.8 41.1191C97.8635 48.6351 97.1268 59.3127 95.5117 59.7927C94.9412 59.9624 93.1995 60.3829 91.641 60.728C85.3628 62.1179 77.9454 73.7016 77.9454 82.1162C77.9454 86.4603 76.2916 88.5479 71.0173 90.8561C56.364 97.2708 37.942 96.8729 25.0417 89.8633C20.6507 87.4777 20.5723 87.3542 19.9942 81.8277C18.8013 70.4401 12.8187 61.8341 5.25588 60.6272L1.56563 60.0378L0.895961 53.7938C0.504929 50.1532 0.677776 44.6485 1.30966 40.592ZM14.1325 31.4995C18.9883 21.6007 29.7908 12.7486 39.9246 10.3649C45.927 8.95244 53.8922 9.25606 59.9135 11.1278C75.9015 16.095 86.0135 28.7311 87.1413 45.1501C87.6375 52.334 86.8324 53.9442 86.8324 53.9442C86.8324 53.9442 86.7172 54.1078 85.6546 58.0756C84.0159 64.1923 80.4985 69.7527 75.0505 74.8398C56.2422 92.4025 25.9664 86.6253 14.4518 63.2749C11.5492 57.3882 11.3566 56.3812 11.3566 47.0774C11.3566 38.0132 11.5965 36.6686 14.1325 31.4995ZM34.9932 28.7726C30.2045 25.6402 31.4579 18.6381 37.3319 15.7075C44.2524 12.2545 59.5197 14.3978 67.7956 19.9827C84.3946 31.1846 87.1828 57.4938 73.2134 71.1105L69.7063 74.5295L69.0905 70.6824C68.6853 68.1516 67.2931 65.5313 65.0243 63.0231C60.9261 58.4952 60.4113 54.3039 63.6331 51.6996C64.7655 50.784 66.1644 49.8779 66.7424 49.6855C68.6796 49.0406 66.5856 43.5226 62.7528 39.1758C58.6158 34.4838 54.4447 32.7309 43.6139 31.1346C40.0568 30.6103 36.1777 29.5476 34.9932 28.7726ZM16.1594 45.6433C16.1557 37.7501 18.6936 31.0563 23.8705 25.3083L28.2229 20.4758L29.3393 24.8642C30.0043 27.4808 31.7157 30.55 33.5783 32.4688C37.3725 36.3772 37.8051 40.8014 34.6419 43.3586C33.5094 44.2741 32.1106 45.1803 31.5325 45.3726C29.6217 46.0082 31.7327 51.8429 35.304 55.7938C39.5166 60.4546 43.0236 61.9859 53.2735 63.6426C62.2097 65.0862 65.1566 66.5873 66.052 70.1506C68.2546 78.9113 55.8747 83.4844 40.599 79.5543C25.6954 75.7195 16.167 62.4988 16.1594 45.6433ZM39.22 47.0105C39.22 44.8691 40.1494 43.1125 42.5523 40.7137C45.5643 37.7067 46.2586 37.437 49.7807 37.9085C54.8462 38.5874 58.0944 41.8301 58.7744 46.887C59.2467 50.4031 58.9766 51.0961 55.9645 54.1031C53.606 56.4576 51.7887 57.4297 49.7486 57.4297C43.4259 57.4297 39.22 53.2677 39.22 47.0105Z" fill="url(#paint1_linear_1_34)" fill-opacity="0.4"/>
<path d="M38.7392 2.17192L38.8892 2.96291L38.8893 2.9629L38.7392 2.17192ZM1.30966 40.592L2.10515 40.716L2.10516 40.7159L1.30966 40.592ZM96.8 41.1191L96.0028 41.2319V41.2319L96.8 41.1191ZM95.5117 59.7927L95.2823 59.0209L95.2821 59.021L95.5117 59.7927ZM91.641 60.728L91.815 61.5141L91.8151 61.5141L91.641 60.728ZM71.0173 90.8561L70.6946 90.1186L70.6945 90.1186L71.0173 90.8561ZM25.0417 89.8633L25.4261 89.1559L25.4261 89.1558L25.0417 89.8633ZM19.9942 81.8277L20.7949 81.744L20.7949 81.7438L19.9942 81.8277ZM5.25588 60.6272L5.12892 61.4222L5.129 61.4222L5.25588 60.6272ZM1.56563 60.0378L0.765134 60.1237L0.830779 60.7358L1.43867 60.8328L1.56563 60.0378ZM0.895961 53.7938L1.69646 53.708L1.69644 53.7078L0.895961 53.7938ZM39.9246 10.3649L40.1089 11.1486L40.109 11.1486L39.9246 10.3649ZM14.1325 31.4995L14.8553 31.8541L14.8553 31.8541L14.1325 31.4995ZM59.9135 11.1278L59.6746 11.8966L59.6747 11.8966L59.9135 11.1278ZM87.1413 45.1501L86.3381 45.2053L86.3381 45.2056L87.1413 45.1501ZM86.8324 53.9442L87.4907 54.4077L87.5255 54.3583L87.5525 54.3042L86.8324 53.9442ZM85.6546 58.0756L86.4323 58.284L86.4323 58.2839L85.6546 58.0756ZM75.0505 74.8398L74.501 74.2513L74.501 74.2513L75.0505 74.8398ZM14.4518 63.2749L13.7297 63.6309L13.7297 63.6309L14.4518 63.2749ZM37.3319 15.7075L37.6913 16.4279L37.6913 16.4279L37.3319 15.7075ZM34.9932 28.7726L35.4341 28.0989L35.4339 28.0988L34.9932 28.7726ZM67.7956 19.9827L68.2459 19.3154L68.2459 19.3153L67.7956 19.9827ZM73.2134 71.1105L72.6514 70.534L72.6514 70.534L73.2134 71.1105ZM69.7063 74.5295L68.9114 74.6568L69.1568 76.1897L70.2683 75.106L69.7063 74.5295ZM69.0905 70.6824L69.8855 70.5552V70.5551L69.0905 70.6824ZM65.0243 63.0231L65.6214 62.483L65.6212 62.4828L65.0243 63.0231ZM63.6331 51.6996L64.1392 52.3257L64.1392 52.3257L63.6331 51.6996ZM66.7424 49.6855L66.9966 50.4494L66.9967 50.4494L66.7424 49.6855ZM62.7528 39.1758L62.1489 39.7082L62.1489 39.7082L62.7528 39.1758ZM43.6139 31.1346L43.7313 30.3381H43.7313L43.6139 31.1346ZM23.8705 25.3083L23.2723 24.7695L23.2723 24.7695L23.8705 25.3083ZM16.1594 45.6433L16.9645 45.6429V45.6429L16.1594 45.6433ZM28.2229 20.4758L29.0031 20.2773L28.632 18.8186L27.6247 19.937L28.2229 20.4758ZM29.3393 24.8642L30.1196 24.6659L30.1196 24.6657L29.3393 24.8642ZM33.5783 32.4688L33.0007 33.0296L33.0007 33.0296L33.5783 32.4688ZM34.6419 43.3586L34.1357 42.7325L34.1357 42.7325L34.6419 43.3586ZM31.5325 45.3726L31.7866 46.1366L31.7867 46.1365L31.5325 45.3726ZM35.304 55.7938L35.9013 55.2539L35.9012 55.2539L35.304 55.7938ZM53.2735 63.6426L53.1451 64.4374L53.1451 64.4374L53.2735 63.6426ZM66.052 70.1506L65.2712 70.3468L65.2712 70.3469L66.052 70.1506ZM40.599 79.5543L40.3984 80.334L40.3984 80.334L40.599 79.5543ZM42.5523 40.7137L41.9835 40.1439V40.1439L42.5523 40.7137ZM49.7807 37.9085L49.8876 37.1105L49.8875 37.1105L49.7807 37.9085ZM58.7744 46.887L59.5724 46.7798L59.5723 46.7797L58.7744 46.887ZM55.9645 54.1031L56.5333 54.6729L55.9645 54.1031ZM38.5892 1.38094C19.0087 5.09454 3.55289 20.9539 0.514164 40.4682L2.10516 40.7159C5.03771 21.8836 19.9691 6.55126 38.8892 2.96291L38.5892 1.38094ZM97.5971 41.0063C93.7377 13.7291 67.158 -4.03828 38.5892 1.38094L38.8893 2.9629C66.6499 -2.30301 92.2853 14.9571 96.0028 41.2319L97.5971 41.0063ZM95.741 60.5644C96.2947 60.3999 96.6132 59.8911 96.7974 59.5148C97.008 59.0848 97.1816 58.5332 97.3275 57.9141C97.6212 56.6683 97.8355 55.0055 97.9635 53.1498C98.2198 49.435 98.1381 44.8293 97.5971 41.0063L96.0028 41.2319C96.5254 44.9249 96.6071 49.416 96.3571 53.039C96.232 54.8523 96.0258 56.4185 95.7603 57.5447C95.6266 58.1116 95.486 58.5316 95.3513 58.8067C95.1903 59.1356 95.1324 59.0655 95.2823 59.0209L95.741 60.5644ZM91.8151 61.5141C93.3709 61.1696 95.1394 60.7434 95.7412 60.5643L95.2821 59.021C94.743 59.1814 93.028 59.5963 91.4669 59.942L91.8151 61.5141ZM78.7505 82.1162C78.7505 78.1127 80.529 73.2635 83.1169 69.222C84.4052 67.21 85.8756 65.4281 87.3894 64.0728C88.9115 62.7102 90.4308 61.8205 91.815 61.5141L91.467 59.942C89.7121 60.3305 87.9498 61.41 86.3154 62.8732C84.6728 64.3437 83.1117 66.2442 81.7609 68.3537C79.0705 72.5552 77.1403 77.7052 77.1403 82.1162H78.7505ZM71.3401 91.5937C74.0091 90.4256 75.8914 89.2621 77.0901 87.7497C78.3146 86.2048 78.7505 84.3952 78.7505 82.1162H77.1403C77.1403 84.1813 76.7493 85.5875 75.8283 86.7495C74.8815 87.944 73.2998 88.9784 70.6946 90.1186L71.3401 91.5937ZM24.6574 90.5707C37.7976 97.7107 56.4826 98.0978 71.3402 91.5937L70.6945 90.1186C56.2455 96.4439 38.0864 96.0351 25.4261 89.1559L24.6574 90.5707ZM19.1935 81.9115C19.3369 83.2829 19.4535 84.3637 19.6184 85.2298C19.7847 86.1037 20.0107 86.8218 20.4064 87.4516C20.8056 88.087 21.3398 88.5728 22.0275 89.043C22.7023 89.5044 23.5703 89.9801 24.6574 90.5707L25.4261 89.1558C24.3176 88.5536 23.5292 88.1193 22.9363 87.7139C22.3562 87.3173 22.0114 86.9795 21.7698 86.595C21.5247 86.2049 21.3483 85.7068 21.2001 84.9287C21.0505 84.1428 20.9405 83.1358 20.7949 81.744L19.1935 81.9115ZM5.129 61.4222C8.63818 61.9822 11.8511 64.2707 14.3527 67.8692C16.853 71.4659 18.6088 76.3296 19.1935 81.9116L20.7949 81.7438C20.1867 75.9382 18.3547 70.8051 15.6748 66.9501C12.9962 63.097 9.43637 60.479 5.38276 59.8321L5.129 61.4222ZM1.43867 60.8328L5.12892 61.4222L5.38284 59.8321L1.69259 59.2428L1.43867 60.8328ZM0.095467 53.8797L0.765134 60.1237L2.36612 59.952L1.69646 53.708L0.095467 53.8797ZM0.514171 40.4681C-0.127234 44.5857 -0.303909 50.1614 0.0954806 53.8798L1.69644 53.7078C1.31377 50.1451 1.48279 44.7113 2.10515 40.716L0.514171 40.4681ZM39.7402 9.58124C29.3563 12.0238 18.3645 21.0444 13.4097 31.1449L14.8553 31.8541C19.6121 22.1571 30.2253 13.4735 40.1089 11.1486L39.7402 9.58124ZM60.1525 10.359C53.9971 8.44559 45.8858 8.13508 39.7402 9.58126L40.109 11.1486C45.9683 9.76981 53.7873 10.0665 59.6746 11.8966L60.1525 10.359ZM87.9445 45.0949C86.7934 28.3368 76.4504 15.4226 60.1524 10.3589L59.6747 11.8966C75.3525 16.7675 85.2336 29.1254 86.3381 45.2053L87.9445 45.0949ZM86.8324 53.9442C87.5525 54.3042 87.5529 54.3035 87.5532 54.3028C87.5534 54.3025 87.5537 54.3018 87.554 54.3013C87.5545 54.3003 87.555 54.2993 87.5555 54.2982C87.5565 54.2961 87.5576 54.294 87.5587 54.2917C87.5608 54.2871 87.5632 54.2822 87.5656 54.2769C87.5705 54.2662 87.576 54.254 87.5819 54.2401C87.5938 54.2123 87.6076 54.1776 87.6229 54.1353C87.6536 54.0508 87.6905 53.9351 87.7301 53.781C87.8093 53.4733 87.9005 53.0083 87.9734 52.3268C88.1192 50.9656 88.1947 48.7175 87.9445 45.0946L86.3381 45.2056C86.5841 48.7667 86.5052 50.9155 86.3724 52.1554C86.3062 52.7744 86.2271 53.1609 86.1708 53.3797C86.1427 53.4888 86.1206 53.555 86.1091 53.5866C86.1034 53.6024 86.1004 53.6093 86.1008 53.6086C86.1009 53.6082 86.1019 53.6059 86.1038 53.6018C86.1048 53.5997 86.1059 53.5972 86.1074 53.5943C86.1081 53.5928 86.1088 53.5912 86.1097 53.5895C86.1101 53.5887 86.1105 53.5878 86.1109 53.5869C86.1112 53.5865 86.1115 53.5858 86.1116 53.5855C86.112 53.5848 86.1123 53.5841 86.8324 53.9442ZM86.4323 58.2839C86.9629 56.3026 87.2548 55.2791 87.4129 54.7541C87.4922 54.4907 87.5355 54.3603 87.5567 54.3006C87.5674 54.2704 87.5697 54.266 87.5657 54.2754C87.5636 54.2803 87.5577 54.2938 87.5483 54.3122C87.5435 54.3217 87.5367 54.3345 87.528 54.3494C87.5236 54.357 87.5184 54.3657 87.5124 54.3752C87.5093 54.38 87.506 54.3851 87.5025 54.3905C87.5007 54.3932 87.4988 54.396 87.4968 54.3988C87.4958 54.4003 87.4943 54.4025 87.4938 54.4032C87.4923 54.4054 87.4907 54.4077 86.8324 53.9442C86.1741 53.4807 86.1726 53.4829 86.171 53.4852C86.1705 53.4859 86.169 53.4881 86.168 53.4895C86.166 53.4924 86.1642 53.4952 86.1623 53.4979C86.1587 53.5033 86.1554 53.5085 86.1523 53.5134C86.1461 53.5231 86.1407 53.5321 86.1361 53.5401C86.1269 53.5559 86.1193 53.5701 86.1134 53.5817C86.1018 53.6045 86.0924 53.6254 86.0851 53.6425C86.0706 53.6763 86.0557 53.7157 86.039 53.7628C86.0053 53.8579 85.9534 54.0164 85.8711 54.2899C85.7059 54.8386 85.4089 55.8809 84.8769 57.8674L86.4323 58.2839ZM75.5999 75.4282C81.1383 70.2568 84.7481 64.5703 86.4323 58.284L84.877 57.8673C83.2837 63.8143 79.8587 69.2486 74.501 74.2513L75.5999 75.4282ZM13.7297 63.6309C25.4769 87.4528 56.3868 93.369 75.5999 75.4282L74.501 74.2513C56.0975 91.4361 26.456 85.7977 15.1738 62.9188L13.7297 63.6309ZM10.5515 47.0774C10.5515 51.7086 10.5968 54.3684 11.0249 56.6087C11.4586 58.8778 12.279 60.6888 13.7297 63.6309L15.1738 62.9188C13.722 59.9742 12.9948 58.3384 12.6065 56.3064C12.2126 54.2456 12.1616 51.7501 12.1616 47.0774H10.5515ZM13.4097 31.1449C12.1354 33.7423 11.3987 35.4547 11.0009 37.6865C10.6092 39.8847 10.5515 42.5608 10.5515 47.0774H12.1616C12.1616 42.5298 12.2239 40.0015 12.5861 37.969C12.9423 35.9702 13.5936 34.4257 14.8553 31.8541L13.4097 31.1449ZM36.9725 14.9871C33.8277 16.556 31.8692 19.2425 31.3715 22.0225C30.8706 24.8212 31.8653 27.6886 34.5525 29.4463L35.4339 28.0988C33.3324 26.7242 32.5595 24.5244 32.9565 22.3062C33.3569 20.0694 34.962 17.7896 37.6913 16.4279L36.9725 14.9871ZM68.2459 19.3153C63.9774 16.4348 57.9646 14.4723 52.1674 13.6586C46.3957 12.8486 40.6513 13.1515 36.9724 14.9871L37.6913 16.4279C40.9329 14.8105 46.2825 14.4586 51.9436 15.2532C57.579 16.0441 63.3378 17.9457 67.3452 20.65L68.2459 19.3153ZM73.7753 71.687C80.9691 64.6749 83.8149 54.4325 82.7683 44.5562C81.7216 34.6789 76.7726 25.0696 68.2459 19.3154L67.3452 20.65C75.4176 26.0977 80.1623 35.2439 81.1671 44.7259C82.172 54.2089 79.4271 63.9294 72.6514 70.534L73.7753 71.687ZM70.2683 75.106L73.7754 71.687L72.6514 70.534L69.1443 73.9531L70.2683 75.106ZM68.2955 70.8097L68.9114 74.6568L70.5013 74.4023L69.8855 70.5552L68.2955 70.8097ZM64.4273 63.5632C66.6245 65.9923 67.9218 68.475 68.2956 70.8097L69.8855 70.5551C69.4489 67.8282 67.9617 65.0703 65.6214 62.483L64.4273 63.5632ZM63.1269 51.0735C61.305 52.5463 60.5117 54.5167 60.7846 56.7382C61.0509 58.906 62.3197 61.2347 64.4274 63.5634L65.6212 62.4828C63.6307 60.2836 62.5929 58.2527 62.3828 56.5419C62.1792 54.8847 62.7394 53.4573 64.1392 52.3257L63.1269 51.0735ZM66.4882 48.9216C66.0909 49.0539 65.5193 49.382 64.958 49.7457C64.3715 50.1255 63.7158 50.5974 63.1269 51.0735L64.1392 52.3257C64.6828 51.8862 65.2927 51.4473 65.8334 51.0971C66.399 50.7307 66.8159 50.5096 66.9966 50.4494L66.4882 48.9216ZM62.1489 39.7082C64.01 41.8189 65.437 44.2032 66.1587 46.1046C66.5231 47.0647 66.6831 47.8379 66.6705 48.3633C66.6577 48.8966 66.4967 48.9188 66.4881 48.9217L66.9967 50.4494C67.9568 50.1298 68.2605 49.2204 68.2802 48.4019C68.3 47.5754 68.0601 46.5765 67.6641 45.5332C66.8649 43.4276 65.3284 40.8795 63.3566 38.6433L62.1489 39.7082ZM43.4965 31.9311C48.8984 32.7272 52.5655 33.5533 55.3817 34.7366C58.1675 35.9071 60.1483 37.4393 62.1489 39.7082L63.3566 38.6433C61.2202 36.2203 59.047 34.5301 56.0054 33.2521C52.994 31.9868 49.1603 31.1383 43.7313 30.3381L43.4965 31.9311ZM34.5524 29.4462C35.2637 29.9117 36.6457 30.398 38.2011 30.8241C39.7946 31.2607 41.6855 31.6641 43.4965 31.9311L43.7313 30.3381C41.9852 30.0808 40.158 29.6907 38.6266 29.2712C37.057 28.8411 35.9072 28.4085 35.4341 28.0989L34.5524 29.4462ZM23.2723 24.7695C17.9591 30.6688 15.3505 37.5559 15.3544 45.6436L16.9645 45.6429C16.9608 37.9443 19.4281 31.4438 24.4688 25.8471L23.2723 24.7695ZM27.6247 19.937L23.2723 24.7695L24.4688 25.8471L28.8211 21.0146L27.6247 19.937ZM30.1196 24.6657L29.0031 20.2773L27.4427 20.6743L28.5591 25.0627L30.1196 24.6657ZM34.156 31.9081C32.3924 30.0911 30.7502 27.1472 30.1196 24.6659L28.559 25.0625C29.2584 27.8143 31.0391 31.0088 33.0007 33.0296L34.156 31.9081ZM35.148 43.9846C36.9451 42.5319 37.7331 40.5195 37.5204 38.3421C37.3107 36.1963 36.14 33.9518 34.156 31.908L33.0007 33.0296C34.8108 34.8942 35.7535 36.816 35.9178 38.4987C36.0791 40.1497 35.5019 41.628 34.1357 42.7325L35.148 43.9846ZM31.7867 46.1365C32.184 46.0043 32.7556 45.6761 33.317 45.3125C33.9034 44.9327 34.5591 44.4607 35.148 43.9846L34.1357 42.7325C33.5921 43.172 32.9822 43.6109 32.4416 43.9611C31.8759 44.3275 31.459 44.5486 31.2783 44.6087L31.7867 46.1365ZM35.9012 55.2539C34.1848 53.355 32.8189 50.9987 32.1195 49.066C31.767 48.0919 31.6064 47.2867 31.6184 46.7308C31.6243 46.4544 31.6721 46.2927 31.7143 46.2112C31.7462 46.1497 31.7667 46.1432 31.7866 46.1366L31.2784 44.6087C30.3041 44.9328 30.026 45.8869 30.0086 46.6962C29.9905 47.5364 30.2226 48.556 30.6054 49.6139C31.3767 51.7452 32.852 54.2817 34.7067 56.3336L35.9012 55.2539ZM53.402 62.8478C48.2857 62.0209 44.9323 61.2361 42.347 60.1069C39.7933 58.9916 37.9528 57.5237 35.9013 55.2539L34.7067 56.3336C36.8678 58.7246 38.8871 60.3528 41.7025 61.5825C44.4863 62.7984 48.0114 63.6076 53.1451 64.4374L53.402 62.8478ZM66.8328 69.9544C66.5857 68.9712 66.1877 68.0966 65.5582 67.3247C64.9305 66.555 64.1022 65.9236 63.0434 65.3843C60.9546 64.3205 57.8715 63.5699 53.4019 62.8478L53.1451 64.4374C57.6117 65.1589 60.4701 65.8807 62.3126 66.8191C63.2196 67.281 63.8544 67.7832 64.3103 68.3423C64.7644 68.8991 65.0705 69.5484 65.2712 70.3468L66.8328 69.9544ZM40.3984 80.334C48.1398 82.3257 55.2302 82.1875 60.1589 80.3667C62.626 79.4552 64.6058 78.1007 65.8177 76.3218C67.0449 74.5204 67.4359 72.3531 66.8328 69.9543L65.2712 70.3469C65.7694 72.3285 65.4389 74.018 64.487 75.4152C63.5198 76.8349 61.8628 78.0207 59.6009 78.8563C55.0713 80.5297 48.3339 80.7131 40.7996 78.7746L40.3984 80.334ZM15.3544 45.6436C15.3621 62.8175 25.0938 76.396 40.3984 80.334L40.7996 78.7747C26.2969 75.043 16.9719 62.1801 16.9645 45.6429L15.3544 45.6436ZM41.9835 40.1439C39.5148 42.6083 38.4149 44.559 38.4149 47.0105H40.0251C40.0251 45.1792 40.7839 43.6166 43.1211 41.2834L41.9835 40.1439ZM49.8875 37.1105C48.1363 36.8761 46.8892 36.7883 45.6839 37.2561C44.5098 37.7118 43.4681 38.6618 41.9835 40.1439L43.121 41.2834C44.6485 39.7586 45.46 39.0702 46.2665 38.7572C47.0418 38.4563 47.9029 38.4694 49.6739 38.7065L49.8875 37.1105ZM59.5723 46.7797C59.2123 44.1026 58.1639 41.8564 56.4909 40.1862C54.818 38.5162 52.5684 37.4698 49.8876 37.1105L49.6737 38.7065C52.0585 39.0261 53.9657 39.9405 55.3533 41.3258C56.7408 42.7109 57.6565 44.6144 57.9765 46.9943L59.5723 46.7797ZM56.5333 54.6729C58.0178 53.1909 58.9696 52.1508 59.4263 50.9781C59.8953 49.7739 59.8072 48.528 59.5724 46.7798L57.9765 46.9941C58.214 48.7621 58.2269 49.6207 57.9259 50.3938C57.6125 51.1984 56.9233 52.0084 55.3957 53.5333L56.5333 54.6729ZM49.7486 58.2348C52.1032 58.2348 54.1149 57.0871 56.5333 54.6729L55.3957 53.5333C53.0971 55.828 51.4743 56.6246 49.7486 56.6246V58.2348ZM38.4149 47.0105C38.4149 50.3241 39.5323 53.1451 41.547 55.1388C43.5609 57.1318 46.4073 58.2348 49.7486 58.2348V56.6246C46.7673 56.6246 44.3493 55.6467 42.6796 53.9943C41.0106 52.3427 40.0251 49.954 40.0251 47.0105H38.4149Z" fill="white" mask="url(#path-1-inside-1_1_34)"/>
<defs>
<linearGradient id="paint0_linear_1_34" x1="89.5268" y1="111.71" x2="-15.7534" y2="85.8107" gradientUnits="userSpaceOnUse">
<stop stop-color="#696969"/>
<stop offset="0.280111" stop-color="white"/>
<stop offset="0.659608" stop-color="#AFAFAF"/>
<stop offset="1" stop-color="#555353"/>
</linearGradient>
<linearGradient id="paint1_linear_1_34" x1="0.687987" y1="84.0048" x2="39.5908" y2="43.248" gradientUnits="userSpaceOnUse">
<stop stop-color="white" stop-opacity="0"/>
<stop offset="1" stop-color="white"/>
</linearGradient>
</defs>
</svg>
