<svg width="31" height="249" viewBox="0 0 31 249" fill="none" xmlns="http://www.w3.org/2000/svg">
<path d="M2.45224 0.786686C2.33443 0.536935 2.03646 0.429975 1.78671 0.547785C1.53696 0.665594 1.43 0.963561 1.54781 1.21331L2.45224 0.786686ZM2.00002 249L6.72741 245.686L1.49338 243.249L2.00002 249ZM1.54781 1.21331C1.96087 2.08898 2.36968 2.96704 2.77422 3.84747L3.68289 3.42995C3.27695 2.54648 2.86673 1.66538 2.45224 0.786686L1.54781 1.21331ZM5.14756 9.15277C5.9202 10.9276 6.67563 12.7116 7.41364 14.5047L8.33838 14.1241C7.59781 12.3248 6.83977 10.5346 6.06445 8.75362L5.14756 9.15277ZM9.57153 19.9013C10.272 21.7055 10.9549 23.5185 11.6202 25.34L12.5595 24.997C11.892 23.1692 11.2066 21.3499 10.5037 19.5394L9.57153 19.9013ZM13.5589 30.8193C14.186 32.65 14.7953 34.489 15.3866 36.3361L16.339 36.0312C15.7456 34.1777 15.1342 32.3323 14.5049 30.4952L13.5589 30.8193ZM17.1029 41.8892C17.6555 43.7435 18.1902 45.6055 18.7066 47.475L19.6705 47.2088C19.1523 45.3327 18.6158 43.4643 18.0612 41.6036L17.1029 41.8892ZM20.1977 53.0931C20.675 54.9678 21.1342 56.8498 21.5749 58.7388L22.5487 58.5116C22.1065 56.616 21.6458 54.7275 21.1667 52.8464L20.1977 53.0931ZM22.8385 64.4127C23.2399 66.3047 23.6229 68.2035 23.9873 70.109L24.9695 69.9212C24.6038 68.0091 24.2195 66.1037 23.8167 64.2051L22.8385 64.4127ZM25.0216 75.8288C25.3466 77.7353 25.6531 79.6481 25.9408 81.5671L26.9297 81.4188C26.641 79.4933 26.3335 77.5738 26.0074 75.6608L25.0216 75.8288ZM26.7449 87.3234C26.9932 89.2413 27.2229 91.1651 27.4337 93.0945L28.4278 92.9859C28.2163 91.0499 27.9858 89.1195 27.7366 87.195L26.7449 87.3234ZM28.0072 98.8778C28.1789 100.804 28.3317 102.736 28.4656 104.673L29.4632 104.604C29.3289 102.66 29.1755 100.722 29.0032 98.7891L28.0072 98.8778ZM28.8088 110.474C28.9039 112.405 28.9802 114.341 29.0374 116.282L30.037 116.253C29.9796 114.305 29.9031 112.362 29.8076 110.424L28.8088 110.474ZM29.1515 122.093C29.1609 123.061 29.1657 124.03 29.1657 125L30.1657 125C30.1657 124.026 30.1609 123.054 30.1514 122.083L29.1515 122.093ZM29.1657 125C29.1657 125.97 29.1609 126.939 29.1515 127.908L30.1514 127.917C30.1609 126.946 30.1657 125.974 30.1657 125L29.1657 125ZM29.0374 133.718C28.9802 135.659 28.9039 137.595 28.8088 139.526L29.8076 139.576C29.9031 137.638 29.9796 135.695 30.037 133.747L29.0374 133.718ZM28.4656 145.327C28.3317 147.264 28.1789 149.196 28.0072 151.122L29.0032 151.211C29.1755 149.278 29.3289 147.34 29.4632 145.396L28.4656 145.327ZM27.4337 156.906C27.2229 158.835 26.9932 160.759 26.7449 162.677L27.7366 162.805C27.9858 160.881 28.2163 158.95 28.4278 157.014L27.4337 156.906ZM25.9408 168.433C25.6531 170.352 25.3466 172.265 25.0216 174.171L26.0074 174.339C26.3335 172.426 26.641 170.507 26.9297 168.581L25.9408 168.433ZM23.9872 179.891C23.6229 181.796 23.2399 183.695 22.8385 185.587L23.8167 185.795C24.2195 183.896 24.6038 181.991 24.9694 180.079L23.9872 179.891ZM21.5749 191.261C21.1342 193.15 20.675 195.032 20.1977 196.907L21.1667 197.154C21.6458 195.272 22.1065 193.384 22.5487 191.488L21.5749 191.261ZM18.7066 202.525C18.1902 204.395 17.6555 206.257 17.1029 208.111L18.0612 208.396C18.6158 206.536 19.1523 204.667 19.6705 202.791L18.7066 202.525ZM15.3866 213.664C14.7953 215.511 14.186 217.35 13.5589 219.181L14.5049 219.505C15.1342 217.668 15.7456 215.822 16.339 213.969L15.3866 213.664ZM11.6202 224.66C10.9549 226.481 10.272 228.294 9.57152 230.099L10.5037 230.461C11.2066 228.65 11.8919 226.831 12.5595 225.003L11.6202 224.66ZM7.41363 235.495C6.67562 237.288 5.92018 239.072 5.14754 240.847L6.06443 241.246C6.83975 239.465 7.59779 237.675 8.33836 235.876L7.41363 235.495ZM2.90446 0.573372C2.66883 0.0738707 2.0729 -0.140048 1.5734 0.0955708C1.0739 0.33119 0.85998 0.927123 1.0956 1.42663L2.90446 0.573372ZM2.00002 249L11.4548 242.371L0.986745 237.498L2.00002 249ZM1.0956 1.42663C1.50794 2.30077 1.91605 3.17732 2.31989 4.05622L4.13723 3.22119C3.73059 2.3362 3.31966 1.45358 2.90446 0.573372L1.0956 1.42663ZM4.68912 9.35234C5.46042 11.1241 6.21455 12.9051 6.95127 14.695L8.80074 13.9338C8.0589 12.1314 7.29954 10.3381 6.52289 8.55404L4.68912 9.35234ZM9.10543 20.0822C9.80467 21.8834 10.4864 23.6932 11.1505 25.5116L13.0292 24.8255C12.3605 22.9945 11.674 21.172 10.9699 19.3584L9.10543 20.0822ZM13.0859 30.9813C13.7119 32.8089 14.3201 34.6447 14.9104 36.4885L16.8152 35.8787C16.2208 34.0221 15.6083 32.1735 14.978 30.3332L13.0859 30.9813ZM16.6237 42.032C17.1754 43.8831 17.7091 45.7418 18.2247 47.6082L20.1525 47.0757C19.6334 45.1964 19.0959 43.3247 18.5404 41.4608L16.6237 42.032ZM19.7131 53.2165C20.1897 55.0879 20.648 56.9666 21.088 58.8524L23.0357 58.398C22.5927 56.4991 22.1311 54.6074 21.6513 52.723L19.7131 53.2165ZM22.3493 64.5164C22.7501 66.4052 23.1324 68.3007 23.4962 70.2029L25.4606 69.8272C25.0943 67.9119 24.7093 66.0032 24.3058 64.1013L22.3493 64.5164ZM24.5287 75.9129C24.8532 77.816 25.1591 79.7256 25.4463 81.6412L27.4242 81.3447C27.135 79.4158 26.827 77.4931 26.5003 75.5767L24.5287 75.9129ZM26.249 87.3876C26.497 89.3022 26.7262 91.2227 26.9366 93.1488L28.9248 92.9316C28.713 90.9922 28.4821 89.0586 28.2324 87.1308L26.249 87.3876ZM27.5092 98.9222C27.6805 100.845 27.8331 102.774 27.9668 104.707L29.962 104.569C29.8275 102.622 29.6738 100.681 29.5013 98.7447L27.5092 98.9222ZM28.3094 110.498C28.4044 112.426 28.4805 114.359 28.5376 116.297L30.5368 116.238C30.4793 114.287 30.4026 112.341 30.307 110.4L28.3094 110.498ZM28.6515 122.097C28.661 123.064 28.6657 124.031 28.6657 125L30.6657 125C30.6657 124.025 30.6609 123.051 30.6514 122.078L28.6515 122.097ZM28.6657 125C28.6657 125.969 28.661 126.936 28.6515 127.903L30.6514 127.922C30.6609 126.949 30.6657 125.975 30.6657 125L28.6657 125ZM28.5376 133.703C28.4805 135.641 28.4044 137.574 28.3094 139.502L30.307 139.6C30.4026 137.659 30.4793 135.713 30.5367 133.762L28.5376 133.703ZM27.9668 145.293C27.8331 147.226 27.6805 149.155 27.5092 151.078L29.5013 151.255C29.6738 149.319 29.8275 147.378 29.962 145.431L27.9668 145.293ZM26.9366 156.851C26.7262 158.777 26.497 160.698 26.249 162.612L28.2324 162.869C28.4821 160.941 28.7129 159.008 28.9248 157.068L26.9366 156.851ZM25.4463 168.359C25.1591 170.274 24.8532 172.184 24.5287 174.087L26.5003 174.423C26.827 172.507 27.135 170.584 27.4242 168.655L25.4463 168.359ZM23.4961 179.797C23.1324 181.699 22.7501 183.595 22.3493 185.484L24.3058 185.899C24.7093 183.997 25.0943 182.088 25.4606 180.173L23.4961 179.797ZM21.0879 191.148C20.648 193.033 20.1897 194.912 19.7131 196.784L21.6513 197.277C22.1311 195.393 22.5926 193.501 23.0356 191.602L21.0879 191.148ZM18.2246 202.392C17.7091 204.258 17.1754 206.117 16.6237 207.968L18.5404 208.539C19.0959 206.675 19.6333 204.804 20.1525 202.924L18.2246 202.392ZM14.9104 213.511C14.3201 215.355 13.7119 217.191 13.0859 219.019L14.978 219.667C15.6083 217.827 16.2208 215.978 16.8152 214.121L14.9104 213.511ZM11.1505 224.488C10.4864 226.307 9.80466 228.117 9.10541 229.918L10.9698 230.642C11.6739 228.828 12.3604 227.006 13.0292 225.175L11.1505 224.488ZM6.95126 235.305C6.21453 237.095 5.4604 238.876 4.6891 240.648L6.52287 241.446C7.29953 239.662 8.05888 237.869 8.80073 236.066L6.95126 235.305Z" fill="#AFAFAF"/>
</svg>
