<svg width="111" height="52" viewBox="0 0 111 52" fill="none" xmlns="http://www.w3.org/2000/svg">
<path d="M80.9696 0.00195312V52.0007H77.2298V16.6386L55.24 38.6284L55.2293 38.623L55.224 38.6284L40.7671 24.1769V52.0007H37.0273V15.148L55.2293 33.35L77.2298 11.3495V0.00195312H80.9696Z" fill="white"/>
<path d="M73.4139 3.83593V13.2601L69.6742 16.9999V12.8755L55.2226 27.3217L33.2114 5.31581V51.9988H29.4717V0H33.1901L55.2226 22.0379L73.4139 3.83593Z" fill="#90EC34"/>
<path d="M73.4146 22.3584V51.9987H69.6748V26.0982L73.4146 22.3584Z" fill="#90EC34"/>
<path d="M5.7574 26.6009L16.7924 38.0048L14.5034 40.3018L-6.36151e-07 25.7483L14.5034 11.1949L16.7924 13.4935L5.51152 24.8133L4.79784 25.6381L5.7574 26.6009Z" fill="#90EC34"/>
<path d="M104.684 26.6009L93.649 38.0048L95.938 40.3018L110.441 25.7483L95.938 11.1949L93.649 13.4935L104.93 24.8133L105.644 25.6381L104.684 26.6009Z" fill="#90EC34"/>
</svg>
