<svg aria-hidden="true" xmlns="http://www.w3.org/2000/svg" xmlns:xlink="http://www.w3.org/1999/xlink"><symbol viewBox="0 0 50 50" fill="none" id="arrow-left" xmlns="http://www.w3.org/2000/svg">
<path d="M10.4167 39.5835C10.4167 40.136 10.1972 40.6659 9.80648 41.0566C9.41578 41.4473 8.88587 41.6668 8.33334 41.6668C7.7808 41.6668 7.2509 41.4473 6.8602 41.0566C6.46949 40.6659 6.25 40.136 6.25 39.5835V10.4168C6.25 9.8643 6.46949 9.33439 6.8602 8.94369C7.2509 8.55299 7.7808 8.3335 8.33334 8.3335C8.88587 8.3335 9.41578 8.55299 9.80648 8.94369C10.1972 9.33439 10.4167 9.8643 10.4167 10.4168V39.5835ZM26.4646 14.6877C26.6583 14.8811 26.812 15.1109 26.9168 15.3638C27.0216 15.6167 27.0756 15.8878 27.0756 16.1616C27.0756 16.4354 27.0216 16.7065 26.9168 16.9594C26.812 17.2123 26.6583 17.4421 26.4646 17.6356L21.1812 22.9168H41.6667C42.2192 22.9168 42.7491 23.1363 43.1398 23.527C43.5305 23.9177 43.75 24.4476 43.75 25.0002C43.75 25.5527 43.5305 26.0826 43.1398 26.4733C42.7491 26.864 42.2192 27.0835 41.6667 27.0835H21.1812L26.4646 32.3668C26.8552 32.7577 27.0746 33.2878 27.0744 33.8405C27.0742 34.3931 26.8545 34.9231 26.4635 35.3137C26.0726 35.7043 25.5425 35.9237 24.9899 35.9235C24.4372 35.9233 23.9073 35.7036 23.5167 35.3127L14.6792 26.4731C14.2886 26.0824 14.0692 25.5526 14.0692 25.0002C14.0692 24.4477 14.2886 23.9179 14.6792 23.5272L23.5167 14.6877C23.7102 14.494 23.9399 14.3403 24.1928 14.2355C24.4457 14.1306 24.7168 14.0766 24.9906 14.0766C25.2644 14.0766 25.5355 14.1306 25.7884 14.2355C26.0413 14.3403 26.2711 14.494 26.4646 14.6877Z" fill="currentColor"/>
</symbol><symbol viewBox="0 0 50 50" fill="none" id="arrow-right" xmlns="http://www.w3.org/2000/svg">
<path d="M39.5833 39.5835C39.5833 40.136 39.8028 40.6659 40.1935 41.0566C40.5842 41.4473 41.1141 41.6668 41.6667 41.6668C42.2192 41.6668 42.7491 41.4473 43.1398 41.0566C43.5305 40.6659 43.75 40.136 43.75 39.5835V10.4168C43.75 9.8643 43.5305 9.33439 43.1398 8.94369C42.7491 8.55299 42.2192 8.3335 41.6667 8.3335C41.1141 8.3335 40.5842 8.55299 40.1935 8.94369C39.8028 9.33439 39.5833 9.8643 39.5833 10.4168V39.5835ZM23.5354 14.6877C23.3417 14.8811 23.188 15.1109 23.0832 15.3638C22.9784 15.6167 22.9244 15.8878 22.9244 16.1616C22.9244 16.4354 22.9784 16.7065 23.0832 16.9594C23.188 17.2123 23.3417 17.4421 23.5354 17.6356L28.8188 22.9168H8.33333C7.7808 22.9168 7.25089 23.1363 6.86019 23.527C6.46949 23.9177 6.25 24.4476 6.25 25.0002C6.25 25.5527 6.46949 26.0826 6.86019 26.4733C7.25089 26.864 7.7808 27.0835 8.33333 27.0835H28.8188L23.5354 32.3668C23.1448 32.7577 22.9254 33.2878 22.9256 33.8405C22.9258 34.3931 23.1455 34.9231 23.5365 35.3137C23.9274 35.7043 24.4575 35.9237 25.0101 35.9235C25.5628 35.9233 26.0927 35.7036 26.4833 35.3127L35.3208 26.4731C35.7114 26.0824 35.9308 25.5526 35.9308 25.0002C35.9308 24.4477 35.7114 23.9179 35.3208 23.5272L26.4833 14.6877C26.2898 14.494 26.0601 14.3403 25.8072 14.2355C25.5543 14.1306 25.2832 14.0766 25.0094 14.0766C24.7356 14.0766 24.4645 14.1306 24.2116 14.2355C23.9587 14.3403 23.7289 14.494 23.5354 14.6877Z" fill="currentColor"/>
</symbol><symbol viewBox="0 0 50 50" fill="none" id="cart" xmlns="http://www.w3.org/2000/svg">
<path d="M8.3335 8.3335H11.721C12.9022 8.3335 13.4918 8.3335 13.9627 8.59183C14.1568 8.69869 14.3326 8.83583 14.4835 8.99808C14.8481 9.39183 14.9918 9.96475 15.2772 11.1106L15.6564 12.6252C15.8668 13.4668 15.9731 13.8877 16.1356 14.2418C16.4134 14.8462 16.8318 15.3753 17.3559 15.7848C17.88 16.1944 18.4945 16.4725 19.1481 16.596C19.5314 16.6668 19.9647 16.6668 20.8335 16.6668" stroke="currentColor" stroke-width="2" stroke-linecap="round"/>
<path d="M37.5002 35.417H15.7293C15.4272 35.417 15.2752 35.417 15.1585 35.4045C14.8692 35.3722 14.5899 35.2797 14.3386 35.1329C14.0873 34.9861 13.8695 34.7882 13.6993 34.5521C13.5292 34.316 13.4104 34.0468 13.3506 33.7619C13.2908 33.4771 13.2914 33.1829 13.3522 32.8982C13.4001 32.7138 13.4564 32.5317 13.521 32.3524C13.6293 32.0316 13.6814 31.8712 13.7418 31.7274C14.0384 31.0171 14.5259 30.4028 15.1503 29.9527C15.7748 29.5026 16.5117 29.2342 17.2793 29.1774C17.4335 29.167 17.6043 29.167 17.9397 29.167H29.1668" stroke="currentColor" stroke-width="2" stroke-linecap="round" stroke-linejoin="round"/>
<path d="M30.2668 29.167H22.8627C20.3293 29.167 19.0627 29.167 18.0856 28.5941C17.6736 28.3517 17.3065 28.0402 17.0002 27.6732C16.271 26.8024 16.0627 25.5524 15.6481 23.0545C15.2252 20.5232 15.0148 19.2566 15.5168 18.3191C15.7257 17.9278 16.0155 17.5855 16.3668 17.3149C17.2085 16.667 18.4918 16.667 21.0585 16.667H34.9252C37.946 16.667 39.4564 16.667 40.0689 17.6545C40.6793 18.6441 40.0023 19.9941 38.6523 22.6962L37.721 24.5607C36.6002 26.8024 36.0398 27.9232 35.0335 28.5441C34.0252 29.167 32.7731 29.167 30.2668 29.167Z" stroke="currentColor" stroke-width="2" stroke-linecap="round"/>
<path d="M35.4168 43.7502C36.5674 43.7502 37.5002 42.8174 37.5002 41.6668C37.5002 40.5162 36.5674 39.5835 35.4168 39.5835C34.2662 39.5835 33.3335 40.5162 33.3335 41.6668C33.3335 42.8174 34.2662 43.7502 35.4168 43.7502Z" fill="currentColor"/>
<path d="M18.7503 43.7502C19.9009 43.7502 20.8337 42.8174 20.8337 41.6668C20.8337 40.5162 19.9009 39.5835 18.7503 39.5835C17.5997 39.5835 16.667 40.5162 16.667 41.6668C16.667 42.8174 17.5997 43.7502 18.7503 43.7502Z" fill="currentColor"/>
</symbol><symbol viewBox="0 0 35 37" fill="none" id="cart1" xmlns="http://www.w3.org/2000/svg">
<path fill-rule="evenodd" clip-rule="evenodd" d="M6.01737 2.36165C5.71937 2.33446 5.32982 2.3335 4.721 2.3335H1.3335C0.781211 2.3335 0.333496 1.88578 0.333496 1.3335C0.333496 0.781214 0.781211 0.333498 1.3335 0.333498L4.76309 0.333497C5.31776 0.333474 5.79937 0.333454 6.1991 0.369927C6.62649 0.408924 7.04231 0.494899 7.44369 0.715125L7.44492 0.7158C7.7322 0.873949 7.99241 1.07692 8.21575 1.31705L8.21726 1.31867C8.52823 1.65452 8.71265 2.03729 8.85418 2.4427C8.9875 2.82458 9.10482 3.29563 9.24003 3.8385L9.62648 5.38232C9.84633 6.26173 9.92982 6.5747 10.0442 6.82421M6.01737 2.36165C6.29707 2.38717 6.41159 2.43021 6.4811 2.46824ZM6.4811 2.46824C6.58141 2.52356 6.67231 2.59444 6.75042 2.67823C6.80394 2.73624 6.87349 2.83708 6.96594 3.1019C7.06452 3.38427 7.1599 3.76214 7.3069 4.35229L7.68627 5.8677C7.68624 5.8676 7.6863 5.86781 7.68627 5.8677C7.69254 5.89278 7.69882 5.9179 7.70495 5.94245C7.89525 6.70403 8.02281 7.21451 8.22668 7.65885C8.57113 8.40826 9.09025 9.06492 9.74013 9.57277C10.39 10.0806 11.152 10.4255 11.9625 10.5786L11.9664 10.5794C12.4413 10.6671 12.961 10.667 13.7324 10.6668C13.7656 10.6668 13.7993 10.6668 13.8335 10.6668C14.3858 10.6668 14.8335 10.2191 14.8335 9.66683C14.8335 9.11455 14.3858 8.66683 13.8335 8.66683C12.9258 8.66683 12.6026 8.66279 12.3317 8.613C11.8357 8.51897 11.3694 8.30774 10.9716 7.99689C10.5734 7.68566 10.2553 7.28345 10.0442 6.82421" fill="currentColor"/>
<path fill-rule="evenodd" clip-rule="evenodd" d="M10.3499 23.1749C10.4615 23.1675 10.5929 23.167 10.9397 23.167H22.1668C22.7191 23.167 23.1668 22.7193 23.1668 22.167C23.1668 21.6147 22.7191 21.167 22.1668 21.167H10.9397C10.9273 21.167 10.915 21.167 10.9029 21.167C10.6026 21.167 10.4003 21.167 10.2119 21.1797L10.2119 21.1797L10.2055 21.1801C9.25363 21.2506 8.33987 21.5833 7.56558 22.1415C6.79162 22.6994 6.18725 23.4607 5.81947 24.341C5.75224 24.5012 5.69275 24.6781 5.61417 24.9118C5.60212 24.9477 5.58963 24.9848 5.57659 25.0235C5.50319 25.2283 5.43904 25.4363 5.38435 25.6469C5.38071 25.6609 5.37738 25.6749 5.37436 25.6891C5.28425 26.1103 5.28342 26.5458 5.3719 26.9673C5.46038 27.3889 5.63622 27.7873 5.88808 28.1368C6.13994 28.4862 6.46224 28.779 6.83419 28.9963C7.20614 29.2136 7.6195 29.3506 8.04761 29.3983L8.0476 29.3983L8.05195 29.3988C8.22344 29.4172 8.42678 29.4171 8.67524 29.417C8.69303 29.417 8.71106 29.417 8.72932 29.417H30.5002C31.0524 29.417 31.5002 28.9693 31.5002 28.417C31.5002 27.8647 31.0524 27.417 30.5002 27.417H8.72932C8.40266 27.417 8.31679 27.4155 8.26695 27.4104C8.11739 27.3934 7.97301 27.3454 7.84303 27.2694C7.71234 27.1931 7.59911 27.0902 7.51061 26.9674C7.42212 26.8446 7.36034 26.7047 7.32925 26.5565C7.29947 26.4146 7.29849 26.2683 7.32628 26.1261C7.36516 25.9792 7.4104 25.8341 7.46187 25.6911L7.46843 25.6723C7.48325 25.6285 7.49677 25.5884 7.50917 25.5516C7.59444 25.2986 7.62677 25.2027 7.66371 25.1149L7.66371 25.1149L7.66462 25.1127C7.89001 24.5728 8.26054 24.106 8.7351 23.7639C9.20877 23.4224 9.76762 23.2186 10.3499 23.1749Z" fill="currentColor"/>
<path fill-rule="evenodd" clip-rule="evenodd" d="M31.2534 10.7796C30.5125 10.6697 29.4691 10.667 27.9252 10.667H14.0585C12.7526 10.667 11.854 10.6684 11.1736 10.7422C10.508 10.8143 10.1882 10.9447 9.97704 11.1072M31.2534 10.7796C31.9777 10.8871 32.1441 11.0612 32.2186 11.1806ZM32.2186 11.1806C32.292 11.3004 32.3732 11.5265 32.1455 12.2218C31.9123 12.9337 31.4479 13.8679 30.7577 15.2492L29.8266 17.1135C29.8267 17.1134 29.8265 17.1137 29.8266 17.1135C29.2571 18.2525 28.8625 19.0391 28.4906 19.6234C28.1312 20.1883 27.8376 20.4899 27.5085 20.693C27.1775 20.8975 26.7748 21.0255 26.109 21.0944C25.4199 21.1658 24.5405 21.167 23.2669 21.167H15.8627C14.577 21.167 13.6823 21.166 12.9849 21.0998C12.3053 21.0354 11.9056 20.9155 11.5919 20.7317C11.2792 20.5476 11.0005 20.311 10.7679 20.0324L10.7669 20.0313C10.5326 19.7514 10.348 19.3767 10.1726 18.7171C9.99268 18.0403 9.84503 17.1585 9.63463 15.8908L9.63445 15.8897C9.41929 14.6019 9.27289 13.7154 9.23401 13.0323C9.19595 12.3639 9.2723 12.0267 9.39841 11.7912L9.39904 11.79C9.54103 11.524 9.73817 11.2912 9.97704 11.1072M31.547 8.80127C32.4844 8.94037 33.3804 9.25939 33.9188 10.1274L33.9201 10.1295C34.4568 10.9996 34.341 11.9441 34.0461 12.8444C33.7624 13.7104 33.2316 14.7728 32.5917 16.0534L32.5469 16.143L31.592 18.055C31.0515 19.1359 30.6118 20.0153 30.178 20.6971C29.7255 21.4082 29.2357 21.9774 28.5586 22.3951C27.8814 22.8134 27.1535 22.997 26.3149 23.0838C25.5109 23.167 24.5279 23.167 23.3194 23.167H15.8134C14.5886 23.167 13.599 23.167 12.7962 23.0909C11.9653 23.0122 11.2431 22.8457 10.5798 22.4567L10.5785 22.4559C10.0678 22.1554 9.6126 21.7693 9.23284 21.3145C8.73837 20.7236 8.4544 20.0382 8.23977 19.231C8.03183 18.4489 7.86928 17.4695 7.6681 16.2573L7.65431 16.1745C7.44995 14.9515 7.28321 13.9535 7.23724 13.146C7.18989 12.3141 7.25932 11.5494 7.63501 10.8476C7.91069 10.3314 8.29305 9.87972 8.75671 9.52264C9.38721 9.03727 10.1301 8.84359 10.958 8.75381C11.759 8.66696 12.7666 8.66697 14.001 8.667L28.0079 8.66699C29.4479 8.66695 30.6416 8.66691 31.547 8.80127Z" fill="currentColor"/>
<path d="M28.4168 36.7502C29.5674 36.7502 30.5002 35.8174 30.5002 34.6668C30.5002 33.5162 29.5674 32.5835 28.4168 32.5835C27.2662 32.5835 26.3335 33.5162 26.3335 34.6668C26.3335 35.8174 27.2662 36.7502 28.4168 36.7502Z" fill="currentColor"/>
<path d="M11.7503 36.7502C12.9009 36.7502 13.8337 35.8174 13.8337 34.6668C13.8337 33.5162 12.9009 32.5835 11.7503 32.5835C10.5997 32.5835 9.66699 33.5162 9.66699 34.6668C9.66699 35.8174 10.5997 36.7502 11.7503 36.7502Z" fill="currentColor"/>
</symbol><symbol viewBox="0 0 24 24" fill="none" id="star" xmlns="http://www.w3.org/2000/svg">
<path d="M8.58724 8.23594L11.1852 3.00394C11.2609 2.85253 11.3772 2.72517 11.5211 2.63616C11.6651 2.54715 11.831 2.5 12.0002 2.5C12.1695 2.5 12.3354 2.54715 12.4793 2.63616C12.6233 2.72517 12.7396 2.85253 12.8152 3.00394L15.4132 8.23594L21.2212 9.07994C21.3888 9.10317 21.5464 9.17303 21.6761 9.28155C21.8058 9.39007 21.9024 9.53288 21.9549 9.69367C22.0073 9.85446 22.0135 10.0268 21.9727 10.1909C21.932 10.355 21.8458 10.5044 21.7242 10.6219L17.5222 14.6919L18.5142 20.4419C18.6412 21.1799 17.8612 21.7419 17.1942 21.3939L12.0002 18.6779L6.80524 21.3939C6.13924 21.7429 5.35924 21.1799 5.48624 20.4409L6.47824 14.6909L2.27624 10.6209C2.15522 10.5033 2.06964 10.3541 2.0292 10.1903C1.98877 10.0264 1.99511 9.85451 2.04751 9.69409C2.0999 9.53367 2.19625 9.39116 2.32561 9.28277C2.45496 9.17439 2.61212 9.10446 2.77924 9.08094L8.58724 8.23594Z" fill="currentColor" stroke="currentColor" stroke-width="3" stroke-linecap="round" stroke-linejoin="round"/>
</symbol><symbol viewBox="0 0 24 22" fill="none" id="star1" xmlns="http://www.w3.org/2000/svg">
<path fill-rule="evenodd" clip-rule="evenodd" d="M12.0002 3.73536L9.93072 7.90306C9.71177 8.344 9.29038 8.64943 8.8032 8.72031L4.19464 9.39081L7.52184 12.6135C7.87804 12.9585 8.04071 13.4573 7.9564 13.946L7.16879 18.5112L11.3053 16.3486C11.7407 16.121 12.2599 16.121 12.6953 16.3487L16.8316 18.5116L16.0441 13.947C15.9598 13.4583 16.1224 12.9595 16.4786 12.6145L19.8075 9.39025L15.1975 8.72035C14.7102 8.64954 14.2887 8.34408 14.0698 7.90306L12.0002 3.73536ZM2.99371 9.56552C2.9919 9.56579 2.99008 9.56605 2.98826 9.56631ZM10.7323 0.360356C11.1132 0.124783 11.5523 0 12.0002 0C12.4482 0 12.8872 0.124783 13.2682 0.360356C13.6492 0.595929 13.957 0.932977 14.1572 1.3337L14.1587 1.33682L16.407 5.8646L21.4333 6.59501C21.8772 6.65771 22.2947 6.84337 22.6386 7.13104C22.984 7.42003 23.2413 7.80031 23.3809 8.22849C23.5206 8.65667 23.5371 9.11549 23.4285 9.55259C23.32 9.98919 23.0911 10.3865 22.7678 10.6994M22.7667 10.7005L19.1351 14.218L19.9924 19.1869C20.3342 21.1729 18.246 22.6346 16.5004 21.7238L12.0002 19.3706L7.50147 21.7226C5.74949 22.6407 3.66767 21.1667 4.00791 19.1869L4.86533 14.217L1.23264 10.6984L1.23074 10.6966C0.908484 10.3833 0.680567 9.98596 0.572892 9.54965C0.465218 9.11333 0.482106 8.65556 0.621638 8.22836C0.76117 7.80117 1.01775 7.42169 1.36221 7.13305C1.70559 6.84531 2.12258 6.65937 2.56604 6.59617L7.59337 5.86475L9.84175 1.33682L9.84331 1.3337C10.0435 0.932977 10.3513 0.595929 10.7323 0.360356" fill="currentColor"/>
</symbol></svg>