<svg width="30" height="29" viewBox="0 0 30 29" fill="none" xmlns="http://www.w3.org/2000/svg">
<g clip-path="url(#clip0_71_27)">
<path d="M15 29C23.2843 29 30 22.5081 30 14.5C30 6.49187 23.2843 0 15 0C6.71573 0 0 6.49187 0 14.5C0 22.5081 6.71573 29 15 29Z" fill="url(#paint0_linear_71_27)"/>
<path fill-rule="evenodd" clip-rule="evenodd" d="M6.78984 14.3469C11.1626 12.5053 14.0785 11.2912 15.5375 10.7045C19.7032 9.02966 20.5687 8.73871 21.1329 8.72911C21.257 8.72699 21.5345 8.75672 21.7142 8.89769C21.8659 9.01672 21.9077 9.17751 21.9277 9.29037C21.9476 9.40322 21.9725 9.6603 21.9527 9.86118C21.727 12.154 20.7502 17.718 20.2533 20.2859C20.043 21.3725 19.629 21.7369 19.2282 21.7725C18.3571 21.85 17.6957 21.216 16.852 20.6814C15.5318 19.8449 14.786 19.3241 13.5045 18.5078C12.0235 17.5644 12.9836 17.0459 13.8276 16.1985C14.0484 15.9767 17.8864 12.6021 17.9607 12.296C17.97 12.2577 17.9786 12.115 17.8909 12.0397C17.8032 11.9643 17.6738 11.9901 17.5804 12.0106C17.4479 12.0396 15.3389 13.3871 11.2533 16.0531C10.6546 16.4505 10.1124 16.6441 9.62658 16.634C9.091 16.6228 8.06077 16.3412 7.29489 16.1006C6.35551 15.8054 5.60892 15.6493 5.67393 15.148C5.70779 14.8869 6.07976 14.6199 6.78984 14.3469Z" fill="white"/>
</g>
<defs>
<linearGradient id="paint0_linear_71_27" x1="15" y1="0" x2="15" y2="28.7849" gradientUnits="userSpaceOnUse">
<stop stop-color="#2AABEE"/>
<stop offset="1" stop-color="#229ED9"/>
</linearGradient>
<clipPath id="clip0_71_27">
<rect width="30" height="29" fill="white"/>
</clipPath>
</defs>
</svg>
