<svg aria-hidden="true" xmlns="http://www.w3.org/2000/svg" xmlns:xlink="http://www.w3.org/1999/xlink"><symbol viewBox="0 0 30 31" id="facebook" xmlns="http://www.w3.org/2000/svg">
<path d="M29.8939 15.7882C29.8939 7.60566 23.2529 0.964722 15.0704 0.964722C6.88777 0.964722 0.246826 7.60566 0.246826 15.7882C0.246826 22.9628 5.34612 28.9367 12.1056 30.3153V20.2353H9.14094V15.7882H12.1056V12.0824C12.1056 9.22143 14.4329 6.89413 17.2939 6.89413H20.9998V11.3412H18.0351C17.2198 11.3412 16.5527 12.0083 16.5527 12.8235V15.7882H20.9998V20.2353H16.5527V30.5377C24.0386 29.7965 29.8939 23.4817 29.8939 15.7882Z"/>
</symbol><symbol viewBox="0 0 31 31" id="instagram" xmlns="http://www.w3.org/2000/svg">
<path d="M16.7357 0.966179C17.8174 0.962028 18.8991 0.9729 19.9806 0.998791L20.2681 1.00917C20.6002 1.02103 20.9278 1.03585 21.3236 1.05364C22.9008 1.12776 23.977 1.37679 24.9212 1.74293C25.8996 2.11945 26.7238 2.62938 27.548 3.45357C28.3016 4.19416 28.8848 5.09001 29.2571 6.07881C29.6233 7.02307 29.8723 8.10074 29.9464 9.67797C29.9642 10.0723 29.979 10.4014 29.9909 10.7334L29.9998 11.021C30.0261 12.1019 30.0375 13.1831 30.0339 14.2644L30.0354 15.3702V17.3121C30.039 18.3938 30.0277 19.4755 30.0013 20.557L29.9924 20.8445C29.9805 21.1766 29.9657 21.5042 29.9479 21.9C29.8738 23.4772 29.6218 24.5534 29.2571 25.4976C28.886 26.4875 28.3026 27.3841 27.548 28.1244C26.8067 28.8779 25.9104 29.4611 24.9212 29.8335C23.977 30.1997 22.9008 30.4487 21.3236 30.5228C20.9278 30.5406 20.6002 30.5554 20.2681 30.5673L19.9806 30.5762C18.8992 30.6025 17.8174 30.6139 16.7357 30.6103L15.6299 30.6118H13.6895C12.6077 30.6154 11.526 30.604 10.4446 30.5777L10.157 30.5688C9.80512 30.556 9.4533 30.5412 9.10158 30.5243C7.52435 30.4502 6.44816 30.1982 5.50242 29.8335C4.51323 29.462 3.61722 28.8786 2.87718 28.1244C2.12273 27.3836 1.53894 26.4872 1.16654 25.4976C0.800401 24.5534 0.551365 23.4772 0.477248 21.9C0.460738 21.5482 0.445915 21.1964 0.432777 20.8445L0.425365 20.557C0.398036 19.4756 0.385682 18.3938 0.388306 17.3121V14.2644C0.384169 13.1831 0.395041 12.1019 0.420918 11.021L0.431295 10.7334C0.443154 10.4014 0.457977 10.0723 0.475765 9.67797C0.549883 8.09926 0.798918 7.02456 1.16506 6.07881C1.53768 5.08952 2.12261 4.19392 2.87866 3.45505C3.6182 2.70016 4.51364 2.11585 5.50242 1.74293C6.44816 1.37679 7.52287 1.12776 9.10158 1.05364L10.157 1.00917L10.4446 1.00176C11.5255 0.97444 12.6067 0.962086 13.688 0.964697L16.7357 0.966179ZM15.2118 8.37794C14.2298 8.36405 13.2548 8.54549 12.3434 8.91169C11.4321 9.2779 10.6027 9.82158 9.9033 10.5111C9.20392 11.2007 8.64857 12.0224 8.26951 12.9284C7.89046 13.8345 7.69526 14.8068 7.69526 15.789C7.69526 16.7711 7.89046 17.7435 8.26951 18.6495C8.64857 19.5556 9.20392 20.3772 9.9033 21.0668C10.6027 21.7564 11.4321 22.3 12.3434 22.6662C13.2548 23.0324 14.2298 23.2139 15.2118 23.2C17.1776 23.2 19.0628 22.4191 20.4527 21.0291C21.8427 19.6392 22.6236 17.7539 22.6236 15.7882C22.6236 13.8225 21.8427 11.9373 20.4527 10.5473C19.0628 9.15734 17.1776 8.37794 15.2118 8.37794ZM15.2118 11.3426C15.8026 11.3318 16.3895 11.4387 16.9385 11.6572C17.4874 11.8757 17.9873 12.2014 18.4089 12.6153C18.8306 13.0292 19.1655 13.5229 19.3942 14.0677C19.6229 14.6125 19.7407 15.1974 19.7408 15.7882C19.7409 16.379 19.6233 16.964 19.3948 17.5088C19.1663 18.0537 18.8315 18.5475 18.41 18.9616C17.9885 19.3756 17.4887 19.7014 16.9399 19.9201C16.391 20.1388 15.8041 20.246 15.2133 20.2353C14.0339 20.2353 12.9028 19.7668 12.0688 18.9328C11.2348 18.0988 10.7663 16.9677 10.7663 15.7882C10.7663 14.6088 11.2348 13.4777 12.0688 12.6437C12.9028 11.8097 14.0339 11.3412 15.2133 11.3412L15.2118 11.3426ZM22.9942 6.15441C22.516 6.17355 22.0637 6.37699 21.7321 6.72211C21.4005 7.06724 21.2154 7.52727 21.2154 8.00587C21.2154 8.48447 21.4005 8.94451 21.7321 9.28963C22.0637 9.63476 22.516 9.83819 22.9942 9.85733C23.4856 9.85733 23.9569 9.66211 24.3044 9.31462C24.6519 8.96712 24.8471 8.49582 24.8471 8.00439C24.8471 7.51296 24.6519 7.04166 24.3044 6.69416C23.9569 6.34667 23.4856 6.15145 22.9942 6.15145V6.15441Z"/>
</symbol><symbol viewBox="0 0 16 16" id="linkedin" xmlns="http://www.w3.org/2000/svg">
<g clip-path="url(#cclip0_37275_17)">
<path d="M0 1.146C0 0.513 0.526 0 1.175 0H14.825C15.474 0 16 0.513 16 1.146V14.854C16 15.487 15.474 16 14.825 16H1.175C0.526 16 0 15.487 0 14.854V1.146ZM4.943 13.394V6.169H2.542V13.394H4.943ZM3.743 5.182C4.58 5.182 5.101 4.628 5.101 3.934C5.086 3.225 4.581 2.686 3.759 2.686C2.937 2.686 2.4 3.226 2.4 3.934C2.4 4.628 2.921 5.182 3.727 5.182H3.743ZM8.651 13.394V9.359C8.651 9.143 8.667 8.927 8.731 8.773C8.904 8.342 9.299 7.895 9.963 7.895C10.832 7.895 11.179 8.557 11.179 9.529V13.394H13.58V9.25C13.58 7.03 12.396 5.998 10.816 5.998C9.542 5.998 8.971 6.698 8.651 7.191V7.216H8.635C8.64031 7.20765 8.64564 7.19932 8.651 7.191V6.169H6.251C6.281 6.847 6.251 13.394 6.251 13.394H8.651Z"/>
</g>
<defs>
<clipPath id="cclip0_37275_17">
<rect width="16" height="16"/>
</clipPath>
</defs>
</symbol><symbol viewBox="0 0 21 21" id="phone" xmlns="http://www.w3.org/2000/svg">
<path fill-rule="evenodd" clip-rule="evenodd" d="M15.552 20.133C14.112 20.08 10.031 19.516 5.757 15.243C1.484 10.969 0.921 6.88897 0.867 5.44797C0.787 3.25197 2.469 1.11897 4.412 0.285971C4.64598 0.184938 4.9022 0.146472 5.15553 0.174347C5.40886 0.202222 5.65059 0.29548 5.857 0.444971C7.457 1.61097 8.561 3.37497 9.509 4.76197C9.71758 5.0667 9.80677 5.43752 9.75956 5.80377C9.71235 6.17002 9.53204 6.5061 9.253 6.74797L7.302 8.19697C7.20774 8.26504 7.14139 8.365 7.11528 8.47829C7.08916 8.59159 7.10505 8.71051 7.16 8.81297C7.602 9.61597 8.388 10.812 9.288 11.712C10.189 12.612 11.441 13.45 12.3 13.942C12.4077 14.0024 12.5345 14.0193 12.6543 13.9892C12.774 13.9591 12.8777 13.8842 12.944 13.78L14.214 11.847C14.4475 11.5368 14.7919 11.329 15.1752 11.2672C15.5584 11.2053 15.9508 11.2941 16.27 11.515C17.677 12.489 19.319 13.574 20.521 15.113C20.6826 15.3209 20.7854 15.5684 20.8187 15.8296C20.8519 16.0908 20.8144 16.3562 20.71 16.598C19.873 18.551 17.755 20.214 15.552 20.133Z"/>
</symbol><symbol viewBox="0 0 31 31" id="telegram" xmlns="http://www.w3.org/2000/svg">
<path d="M15.7884 0.964722C7.60578 0.964722 0.964844 7.60566 0.964844 15.7882C0.964844 23.9708 7.60578 30.6118 15.7884 30.6118C23.971 30.6118 30.6119 23.9708 30.6119 15.7882C30.6119 7.60566 23.971 0.964722 15.7884 0.964722ZM22.6665 11.0447C22.4441 13.3868 21.4806 19.0791 20.9914 21.7028C20.7839 22.8146 20.3688 23.1852 19.9834 23.2297C19.1237 23.3038 18.4714 22.6664 17.6413 22.1179C16.3368 21.2581 15.5957 20.7245 14.3357 19.8944C12.8681 18.9308 13.8168 18.3972 14.6618 17.5374C14.8841 17.3151 18.679 13.8612 18.7531 13.5499C18.7634 13.5027 18.762 13.4538 18.7491 13.4073C18.7362 13.3608 18.7121 13.3182 18.679 13.2831C18.59 13.209 18.4714 13.2386 18.3677 13.2534C18.2343 13.2831 16.159 14.6617 12.1121 17.3892C11.5192 17.7894 10.9855 17.997 10.5112 17.9821C9.97755 17.9673 8.96955 17.6857 8.21355 17.4337C7.27967 17.1372 6.55331 16.9741 6.61261 16.4553C6.64226 16.1885 7.01284 15.9217 7.70955 15.64C12.038 13.7574 14.9138 12.5123 16.3517 11.9193C20.4726 10.1998 21.3175 9.90331 21.8808 9.90331C21.9994 9.90331 22.2811 9.93296 22.459 10.0812C22.6072 10.1998 22.6517 10.3628 22.6665 10.4814C22.6517 10.5704 22.6813 10.8372 22.6665 11.0447Z"/>
</symbol></svg>