<svg width="50" height="50" viewBox="0 0 50 50" fill="none" xmlns="http://www.w3.org/2000/svg">
<path d="M4.45635 33.8853C4.80766 30.8065 6.3236 27.9787 8.69328 25.982C11.063 23.9852 14.1068 22.9707 17.2006 23.1466C20.2944 23.3224 23.2037 24.6753 25.3318 26.9277C27.4599 29.1802 28.6457 32.1615 28.6458 35.2603C28.6458 38.6109 28.6481 47.3935 28.6481 47.3935M3.44312 31.102C3.42389 30.7676 3.4142 30.4308 3.41406 30.0916C3.41406 25.5027 5.237 21.1017 8.48186 17.8569C11.7267 14.612 16.1277 12.7891 20.7166 12.7891C25.3055 12.7891 29.7065 14.612 32.9514 17.8569C36.1962 21.1017 38.0192 25.5027 38.0192 30.0916C38.0192 34.8696 38.0224 47.3932 38.0224 47.3932" stroke="#353030" stroke-width="3" stroke-linecap="round" stroke-linejoin="round"/>
<path d="M17.1878 40.1413C20.0832 40.1413 22.4303 37.7941 22.4303 34.8987C22.4303 32.0034 20.0832 29.6562 17.1878 29.6562C14.2925 29.6562 11.9453 32.0034 11.9453 34.8987C11.9453 37.7941 14.2925 40.1413 17.1878 40.1413Z" stroke="#353030" stroke-width="3" stroke-linecap="round" stroke-linejoin="round"/>
<path d="M47.4011 25.0052C47.4011 20.5757 46.0876 16.2457 43.6267 12.5628C41.1658 8.87978 37.668 6.00925 33.5757 4.31417C29.4834 2.61908 24.9804 2.17557 20.636 3.03971C16.2916 3.90386 12.3011 6.03686 9.16897 9.16897C6.03686 12.3011 3.90386 16.2916 3.03971 20.636C2.17557 24.9804 2.61908 29.4834 4.31417 33.5757C6.00925 37.668 8.87978 41.1658 12.5628 43.6267C16.2457 46.0876 20.5757 47.4011 25.0052 47.4011H47.4011V25.0052Z" stroke="#353030" stroke-width="3" stroke-linecap="round" stroke-linejoin="round"/>
</svg>
