<svg width="38" height="45" viewBox="0 0 38 45" fill="none" xmlns="http://www.w3.org/2000/svg">
<path d="M35.9277 17.6371C35.9277 15.3209 35.474 13.0275 34.5927 10.8877C33.7113 8.74783 32.4195 6.80353 30.7909 5.16578C29.1624 3.52803 27.229 2.22889 25.1012 1.34254C22.9734 0.456199 20.6929 0 18.3897 0C16.0866 0 13.8061 0.456199 11.6783 1.34254C9.55048 2.22889 7.61712 3.52803 5.98857 5.16578C4.36002 6.80353 3.06819 8.74783 2.18683 10.8877C1.30546 13.0275 0.85183 15.3209 0.85183 17.6371C0.85183 27.3923 -3.2286 45 6.47181 45C49.6501 44.9979 35.9277 27.3923 35.9277 17.6371ZM14.5158 27.8077C10.909 27.8077 8.01344 23.7042 8.01344 18.642C8.01344 13.5797 10.911 9.48252 14.52 9.48252C18.129 9.48252 21.0266 13.586 21.0266 18.642C21.0266 23.6979 18.0664 27.8077 14.5158 27.8077ZM29.5984 24.7741C26.7592 24.7741 24.452 21.5035 24.452 17.5175C24.452 13.5315 26.7592 10.2608 29.5984 10.2608C32.4376 10.2608 34.7448 13.5315 34.7448 17.5175C34.7448 21.5622 32.4376 24.7741 29.5984 24.7741Z" fill="#353030"/>
</svg>
