<svg width="50" height="50" viewBox="0 0 50 50" fill="none" xmlns="http://www.w3.org/2000/svg">
<g clip-path="url(#clip0_1_735)">
<path d="M48.1751 10.2348C46.6457 8.23484 44.528 7.23484 41.8221 7.23484L29.5869 7.11719L29.528 13.7054L40.5869 13.8231C41.3516 13.8231 41.9986 14.1172 42.4692 14.7642C42.881 15.2937 43.0574 15.9407 43.0574 16.7054C43.0574 17.4701 42.8221 18.0584 42.4104 18.5878C41.9398 19.1172 41.3516 19.4113 40.528 19.4113L29.4104 19.2348L29.3516 25.9407L41.5869 26.0584C44.2927 26.1172 46.4692 25.1172 48.0574 23.176C49.4692 21.4113 50.2339 19.2937 50.2927 16.7054C50.2339 14.2348 49.5869 12.0584 48.1751 10.2348Z" fill="#353030"/>
<path d="M18.2594 7.07973L18.2188 13.668L26.1011 13.7166L26.1417 7.12835L18.2594 7.07973Z" fill="#353030"/>
<path d="M26.0506 19.4102C23.6976 19.7043 21.8153 20.5278 20.4623 21.8807C18.9329 23.4102 18.1094 25.4102 18.1094 27.8807C18.1094 29.5278 18.1094 31.0572 18.1094 32.5278C18.1094 33.9984 18.1094 35.1749 18.1094 36.0572C18.1094 36.9396 18.1094 37.6455 18.1094 38.1749L25.9329 38.2337L26.0506 19.4102Z" fill="#353030"/>
<path d="M30.6425 31.4729C37.2895 32.2964 41.9366 34.1199 41.9366 36.1788C41.9366 38.9435 33.4072 41.1788 22.8778 41.1199C12.3483 41.0611 3.87776 38.767 3.87776 35.9435C3.87776 33.8846 8.58364 32.1199 15.2307 31.4141C6.46599 32.2376 0.171875 34.5317 0.171875 37.3552C0.171875 40.8847 10.2895 43.8258 22.8778 43.9435C35.4072 44.0023 45.6425 41.1788 45.6425 37.6494C45.6425 34.8258 39.3483 32.4141 30.6425 31.4729Z" fill="#353030"/>
</g>
<defs>
<clipPath id="clip0_1_735">
<rect width="50" height="50" fill="white"/>
</clipPath>
</defs>
</svg>
