<svg width="40" height="48" viewBox="0 0 40 48" fill="none" xmlns="http://www.w3.org/2000/svg">
<path d="M39.1906 9.40312V9.375C39.1625 8.97188 39.1344 8.50312 39.1063 8.00625C39.05 7.06875 38.9844 6.05625 38.9281 5.2875C38.8344 4.75312 38.7031 4.275 38.5531 3.84375C37.5969 1.725 35.7313 0.703124 33.7625 0.215624C32.8625 0.0562489 31.7656 0.028125 30.5938 0H19.2875C12.0031 0.39375 8.94689 4.6125 8.12189 6.85313C4.93439 16.3875 2.94689 28.7438 1.51252 37.6594C1.48439 37.8375 1.45627 38.0063 1.42814 38.175L0.959391 42.4125C0.931266 43.0781 0.99689 43.8094 1.17502 44.5125C2.06564 47.1 4.76564 49.275 10.7094 47.1094C16.325 44.6719 22.9531 41.6344 29.8063 38.2312C33.7063 35.9812 39.425 30.8063 39.725 24.2719C39.6781 19.4344 39.5188 14.3531 39.1906 9.40312ZM30.1625 12.9844C30.1625 13.5469 29.7031 14.0062 29.1406 14.0062C25.7375 14.0062 22.9906 16.7625 22.9906 20.1562V23.925C22.9906 30.2531 17.8625 35.3719 11.5438 35.3719C10.9906 35.3719 10.55 34.9219 10.55 34.3781V31.2563C10.55 30.6938 11.0094 30.2344 11.5719 30.2344C14.975 30.2344 17.7219 27.4781 17.7219 24.0844V20.3156C17.7219 13.9969 22.85 8.86875 29.1688 8.86875C29.7219 8.86875 30.1625 9.31875 30.1625 9.8625V12.9844Z" fill="#353030"/>
</svg>
