<svg width="50" height="50" viewBox="0 0 50 50" fill="none" xmlns="http://www.w3.org/2000/svg">
<path d="M21.3962 5.22713C20.1894 4.1024 20.4104 2.87055 20.8623 1.91486C20.8623 1.91486 23.2071 5.14679 26.1278 6.34349C26.1278 6.34349 25.8767 6.3619 25.4834 6.3619C24.4607 6.3619 22.4674 6.22466 21.3945 5.22546M34.4796 6.34182C37.4002 5.14512 39.7434 1.91318 39.7434 1.91318C40.1953 2.86887 40.4162 4.10072 39.2095 5.22378C38.1383 6.22299 36.1449 6.36023 35.1206 6.36023C34.729 6.36023 34.4779 6.34182 34.4779 6.34182M30.4844 22.2488C35.3432 22.2488 40.6957 21.1508 44.013 18.8896C40.7091 22.1818 34.1147 24.6271 26.4022 24.992C17.9299 25.3953 10.5405 23.186 7.28346 19.6913C6.33112 20.9382 5.83905 22.2772 5.90767 23.6547C6.18551 29.2231 15.5349 33.307 26.7906 32.7697C30.3874 32.599 33.7415 31.9764 36.6336 31.0274C34.4428 32.4684 31.7698 33.707 28.7789 34.5807C21.9217 36.5874 15.3625 36.1021 11.9029 33.6886C11.4025 34.9639 11.1096 36.256 11.6652 37.4176C13.4996 41.2286 22.141 43.1952 31.256 40.5307C31.8937 40.3432 32.5146 40.1407 33.1205 39.9215C29.9304 46.2062 20.0355 49.4365 20.0355 49.4365C35.7449 46.946 42.3226 35.7204 43.8959 32.5923C44.7193 30.9889 45.1394 29.2967 44.6691 27.7653C44.5653 27.4356 44.4264 27.1193 44.2574 26.8197C45.8692 25.2698 46.7529 23.5275 46.6625 21.7182C46.5956 20.411 46.0248 19.1859 45.0507 18.0812C46.4165 16.8628 47.2433 15.3715 47.2433 13.5974C47.2433 8.35864 42.4448 7.93687 42.4448 7.93687C42.4448 7.93687 49.7505 10.8675 39.9459 12.8592C30.1413 14.851 20.0555 13.03 12.3029 8.93272C5.07082 5.10327 9.90282 1.8613 19.7727 1.51986C19.4463 2.36676 19.361 3.61367 19.2622 4.19947C19.2622 4.19947 17.8111 4.30659 18.0036 5.54346C18.1994 6.78033 19.3241 8.29839 22.3502 9.18043C25.3779 10.0642 25.0884 10.1696 26.4089 10.6985C27.691 11.214 29.6292 11.0567 30.3037 10.6282C30.9748 11.0567 32.9147 11.2157 34.1967 10.6985C35.5156 10.1696 35.226 10.0625 38.2538 9.18043C41.2815 8.29839 42.4096 6.78033 42.6004 5.54179C42.7929 4.30826 41.3451 4.1978 41.3451 4.1978C41.151 3.06972 41.0238 -0.513695 39.094 1.0462C38.6789 1.38262 37.2328 0.955822 36.6236 0.924021C34.5331 0.821925 32.7623 1.59518 32.036 2.1157C31.3196 2.63121 30.5765 2.68476 30.302 2.68476C30.0242 2.68142 29.281 2.63121 28.5647 2.1157C27.84 1.59518 26.0692 0.820251 23.9787 0.925695C23.3712 0.957496 21.9234 1.38262 21.5066 1.04788C20.7568 0.438645 20.2815 0.616059 19.9652 1.11817C18.3684 0.86042 15.9918 0.5625 13.503 0.5625C8.25756 0.5625 2.5 1.88306 2.5 7.67409C2.5 17.1239 20.9091 22.2488 30.4861 22.2488H30.4844Z" fill="#353030"/>
<path d="M34.4766 6.34102C34.4766 6.34102 37.7236 6.60547 39.2081 5.22633C40.4149 4.1016 40.194 2.86975 39.7421 1.91406C39.7421 1.91406 37.3972 5.146 34.4782 6.3427" fill="#100E0E"/>
<path d="M21.3946 5.22801C22.8792 6.60882 26.1262 6.3427 26.1262 6.3427C23.2056 5.146 20.8607 1.91406 20.8607 1.91406C20.4088 2.86975 20.1879 4.1016 21.3946 5.22466" fill="#100E0E"/>
</svg>
