<svg width="41" height="47" viewBox="0 0 41 47" fill="none" xmlns="http://www.w3.org/2000/svg">
<path d="M1.92095 2.86143C11.3767 -0.95381 29.6197 -0.95381 39.0789 2.86143C39.6871 3.10591 40.2012 3.5413 40.5451 4.10326C40.8891 4.66521 41.0447 5.3239 40.9889 5.98194C40.3822 13.0734 37.2888 35.8625 22.2538 46.4436C21.7386 46.8058 21.1257 47 20.4977 47C19.8697 47 19.2568 46.8058 18.7416 46.4436C3.71103 35.8625 0.617624 13.0751 0.0109344 5.98105C-0.0443879 5.32365 0.111225 4.66573 0.454816 4.10434C0.798406 3.54296 1.31177 3.10785 1.91918 2.86321L1.92095 2.86143ZM19.8218 42.5127C20.0167 42.666 20.2568 42.7492 20.5039 42.7492C20.751 42.7492 20.9911 42.666 21.186 42.5127C31.1152 34.7159 35.758 19.6987 37.0877 7.10899C37.1142 6.8503 37.0501 6.59042 36.9066 6.37436C36.7631 6.1583 36.5493 5.99966 36.3021 5.9259C25.9833 2.85968 15.008 2.85258 4.68544 5.90544C4.44216 5.98265 4.23285 6.14238 4.09301 6.35753C3.95318 6.57269 3.89144 6.83001 3.91826 7.08586C5.2498 19.6737 9.86963 34.7016 19.8183 42.5127H19.8218ZM20.4735 7.42388C24.4931 7.42072 28.4995 7.88788 32.4124 8.81601C32.5877 8.85773 32.7412 8.96411 32.8427 9.11424C32.9442 9.26437 32.9864 9.44738 32.9609 9.62728C31.5499 19.3686 27.9513 30.6907 21.0096 37.6104C20.8742 37.7454 20.6916 37.8211 20.5012 37.8211C20.3109 37.8211 20.1282 37.7454 19.9929 37.6104C13.0495 30.6907 9.45341 19.3704 8.03986 9.58992C8.01123 9.40893 8.05161 9.22371 8.15288 9.07154C8.25415 8.91937 8.4088 8.81154 8.58571 8.76976C12.4834 7.87304 16.4686 7.42099 20.4664 7.4221L20.4735 7.42388ZM21.7547 30.6187C25.2026 25.3775 27.3754 18.754 28.5773 12.6695C28.6133 12.4916 28.5777 12.3067 28.4785 12.1552C28.3793 12.0038 28.2245 11.8982 28.0483 11.8618L28.0156 11.8565C25.7599 11.4827 23.481 11.2692 21.1957 11.2178C21.1058 11.2161 21.0164 11.2324 20.9328 11.2656C20.8491 11.2989 20.7728 11.3484 20.7082 11.4115C20.6435 11.4745 20.5919 11.5498 20.5561 11.6331C20.5204 11.7163 20.5013 11.8058 20.4999 11.8965V30.2397C20.5013 30.3873 20.5494 30.5306 20.6373 30.6486C20.7252 30.7665 20.8483 30.8531 20.9884 30.8954C21.1286 30.9378 21.2785 30.9337 21.4162 30.8839C21.554 30.8341 21.6732 30.7412 21.7547 30.6187Z" fill="#353030"/>
</svg>
