<svg width="24" height="22" viewBox="0 0 24 22" fill="none" xmlns="http://www.w3.org/2000/svg">
<path d="M10.7664 1.22183C10.885 1.01835 11.0549 0.849527 11.259 0.732188C11.4632 0.61485 11.6946 0.553101 11.9301 0.553101C12.1656 0.553101 12.397 0.61485 12.6012 0.732188C12.8054 0.849527 12.9752 1.01835 13.0938 1.22183L16.1054 6.3916L21.954 7.65872C22.184 7.70872 22.3969 7.81814 22.5715 7.97608C22.7461 8.13402 22.8763 8.33497 22.949 8.55888C23.0217 8.7828 23.0344 9.02186 22.9859 9.25224C22.9375 9.48262 22.8294 9.69626 22.6726 9.87188L18.6859 14.3337L19.2893 20.2869C19.3131 20.5213 19.275 20.7578 19.1788 20.9729C19.0826 21.188 18.9317 21.3741 18.741 21.5126C18.5504 21.651 18.3268 21.7371 18.0925 21.7622C17.8582 21.7872 17.6215 21.7503 17.4059 21.6553L11.9301 19.2417L6.45433 21.6553C6.23875 21.7503 6.00199 21.7872 5.76771 21.7622C5.53343 21.7371 5.30981 21.651 5.11919 21.5126C4.92857 21.3741 4.77762 21.188 4.6814 20.9729C4.58519 20.7578 4.54708 20.5213 4.57089 20.2869L5.17428 14.3337L1.18758 9.87296C1.03052 9.69735 0.92226 9.48362 0.87362 9.2531C0.824981 9.02258 0.837661 8.78333 0.910394 8.55924C0.983128 8.33515 1.11337 8.13406 1.28812 7.97604C1.46287 7.81803 1.67601 7.70861 1.90627 7.65872L7.75486 6.3916L10.7664 1.22183Z" fill="#F5C84C"/>
</svg>
