<svg width="36" height="36" viewBox="0 0 36 36" fill="none" xmlns="http://www.w3.org/2000/svg">
<path d="M26.7205 27.4531C26.319 27.4531 25.9922 27.1263 25.9922 26.7248C25.9922 26.3233 26.319 25.9965 26.7205 25.9965C27.1221 25.9965 27.4488 26.3232 27.4488 26.7248C27.4488 27.1264 27.1221 27.4531 26.7205 27.4531Z" fill="#353030"/>
<path d="M18.0017 24.4609C14.4414 24.4609 11.5449 21.5644 11.5449 18.0041C11.5449 14.4439 14.4414 11.5473 18.0017 11.5473C21.5621 11.5473 24.4586 14.4438 24.4586 18.0041C24.4586 21.5644 21.5621 24.4609 18.0017 24.4609Z" fill="#353030"/>
<path d="M24.776 33H11.224C6.6893 33 3 29.3107 3 24.7759V11.224C3 6.68924 6.6893 3 11.224 3H24.776C29.3108 3 33 6.6893 33 11.224V24.7759C33 29.3107 29.3108 33 24.776 33ZM18 9.77156C13.4628 9.77156 9.77162 13.4628 9.77162 18C9.77162 22.5372 13.4629 26.2283 18 26.2283C22.5371 26.2283 26.2284 22.5371 26.2284 18C26.2284 13.4629 22.5371 9.77156 18 9.77156ZM26.7206 24.2205C25.3421 24.2205 24.2206 25.342 24.2206 26.7205C24.2206 28.099 25.3421 29.2205 26.7206 29.2205C28.099 29.2205 29.2205 28.099 29.2205 26.7206C29.2205 25.3421 28.099 24.2205 26.7206 24.2205Z" fill="#353030"/>
</svg>
