<svg width="249" height="72" viewBox="0 0 249 72" fill="none" xmlns="http://www.w3.org/2000/svg">
<path d="M6.44585 5.49742C11.1554 0.874402 14.0735 0.735938 14.0735 0.735938C14.0735 0.735938 14.9925 0.598026 17.2207 1.38007C19.449 2.16155 19.5415 3.35843 19.5415 3.35843V37.1939C19.8271 46.6637 17.4737 50.3058 14.6476 52.8358C13.0415 54.1413 11.7511 54.308 11.5922 54.308C11.2013 54.308 10.903 54.262 10.8337 53.7331C10.7651 53.2036 11.2473 51.8239 11.2473 51.8239C12.6717 48.2122 12.5571 41.9554 12.5571 41.9554L12.695 5.49686C12.695 5.49686 12.8096 4.83002 12.2355 5.03661C6.67559 9.82135 5.98635 16.5612 5.80255 19.8278C5.71065 24.7272 7.83596 27.2572 7.83596 27.2572C7.83596 27.2572 8.3868 27.7402 8.31815 28.4303C8.31815 29.3618 7.45674 29.2932 7.45674 29.2932C5.36631 29.0982 2.03469 26.7288 0.840001 23.8759C-0.150405 21.768 -0.124939 19.4938 -0.124939 19.4938C-0.055738 16.6304 1.73629 10.121 6.44585 5.49742ZM248.999 37.8275C248.999 48.709 242.41 48.5351 242.41 48.5351C236.141 48.7589 234.536 42.1298 234.141 35.3905C233.843 30.3233 234.141 24.6829 234.141 24.6829C234.141 24.6829 234.098 24.4215 233.925 24.6829C231.829 28.4912 230.404 34.2696 229.705 38.7414C229.198 41.9869 229.146 44.7047 229.146 44.7047C229.146 44.7047 229.231 45.3139 228.714 45.6623C225.312 47.2292 223.116 45.0093 222.341 42.528C221.307 40.178 220.704 26.0326 220.704 25.2921C220.704 24.5522 220.101 25.1177 220.101 25.1177C215.407 32.9962 215.364 44.574 215.364 46.9245C215.364 49.2745 211.359 48.5346 211.359 48.5346C207.957 48.2737 208.086 46.6194 208.086 46.6194L207.931 43.8102C206.749 45.9924 204.551 48.8254 201.172 48.6066C196.056 48.2759 195.064 42.9761 194.989 42.0816C194.989 42.0816 192.442 48.6808 185.435 48.6066C180.677 48.5318 178.766 43.6097 178.766 43.6097C178.766 43.6097 176.856 48.7556 172.173 48.5689C167.489 48.3828 163.63 42.9761 163.93 35.9671C164.229 28.9575 165.316 25.4528 165.316 25.4528C165.316 25.4528 165.691 24.7438 165.054 24.7073C164.418 24.6702 160.371 24.7815 160.371 24.7815C160.371 24.7815 158.086 33.9538 148.419 45.3627C148.419 45.3627 148.497 48.9289 148.494 52.8945C148.489 60.3943 147.558 70.4561 137.405 71.2764C128.621 70.6826 129.116 63.9073 129.116 63.9073C128.907 61.9168 130.164 58.2492 135.4 53.3249C140.637 48.4006 142.732 46.5141 142.732 46.5141L142.522 43.371C139.171 48.9245 134.039 48.6099 134.039 48.6099C134.039 48.6099 130.076 49.4158 126.745 43.5178C125.764 45.5382 123.537 48.9849 119.895 48.5839C114.778 48.0201 113.762 42.9113 113.687 42.0096C113.687 42.0096 111.128 48.6592 104.092 48.5839C99.3137 48.5086 97.3949 43.5494 97.3949 43.5494C96.8408 42.5452 96.4139 41.021 96.1914 40.1232C96.1349 40.3071 96.0685 40.5059 95.9777 40.7397C94.8943 43.5145 92.2104 48.3507 88.0938 48.4133C80.5292 48.4133 80.2104 36.6744 80.2104 36.6744C78.0231 41.8811 73.7392 48.5501 65.7645 48.5047C57.7898 48.4587 56.8326 45.5809 56.8326 45.1705C56.8326 44.759 56.6953 44.3026 57.6071 42.9772C58.5183 41.653 59.2934 41.1047 59.9311 41.1047C60.5694 41.1047 61.7088 42.0634 61.7088 42.0634C61.7088 42.0634 63.4399 43.7532 65.3997 43.7532C67.9058 43.6618 68.4528 41.6524 68.6355 39.5971C68.8176 37.5412 67.3594 35.349 65.3543 33.5213C63.3491 31.6947 61.8001 30.3244 61.8001 30.3244C58.9296 35.1662 56.7418 38.4545 55.1468 41.2869C51.2732 47.5897 47.4295 48.5651 45.942 48.3668C43.8908 48.0926 41.9316 45.9913 41.8403 39.8701C41.7495 33.75 42.2965 23.29 42.2965 22.7416C42.2965 22.1933 41.7954 22.4675 41.7954 22.4675C34.1396 30.5986 31.8604 47.3161 31.8604 47.6357C31.8604 47.9558 31.1772 48.3208 30.493 48.3208C29.8098 48.3208 30.721 48.2754 27.9868 48.1834C25.2525 48.0921 25.4346 42.8853 25.4346 42.8853L25.6173 17.9907C25.6627 17.1682 26.4378 16.8032 29.0353 17.4889C31.6334 18.1735 31.542 19.0419 31.542 19.0419L31.4507 33.4759C38.1494 13.6972 43.2077 16.8032 46.2608 18.3108C49.3146 19.8184 48.9043 22.0106 48.9043 22.0106C48.9043 22.0106 48.5854 32.8816 48.4487 36.7187C48.312 40.5558 48.8589 42.0623 49.7248 42.2002C51.8667 42.7025 59.4771 27.9944 59.4771 27.9944C56.1046 24.3401 57.9453 19.8799 60.5705 17.9453C62.3537 16.6304 64.5355 16.4837 64.5355 16.4837C64.5355 16.4837 67.9535 16.3009 67.8621 19.1787C67.9524 22.3307 64.4441 26.1672 64.4441 26.1672C71.2341 31.0085 74.424 33.5673 74.9256 37.3124C75.1504 39.1086 74.7429 40.2357 74.7429 40.2357C79.5737 36.0341 79.938 31.3291 79.938 31.3291L80.0293 15.6158L72.875 15.5249C72.875 15.5249 72.3286 15.479 72.2373 14.1547C72.2373 11.6419 73.5587 10.5912 73.5587 10.5912L80.3942 10.6826C80.3942 10.6826 80.6222 3.60268 80.6676 2.46008C80.8952 0.815688 81.9432 0.586953 84.9509 1.36401C87.9587 2.14051 87.9587 2.82562 87.9587 2.82562L87.5938 11.0935C87.5938 11.0935 95.1135 11.4591 96.1161 11.5505C97.1192 11.6419 97.4376 11.9166 97.21 13.6058C96.9819 15.2956 95.9794 15.7077 95.9794 15.7077L87.5031 15.8905L86.9107 34.1161C86.9107 36.9474 87.0474 43.6164 89.6904 43.5709C93.3813 43.7537 95.5691 35.4864 95.5691 35.4864L95.6101 35.4199C95.5686 34.1311 95.5952 32.5858 95.7778 30.8512C96.4782 24.2088 99.4378 16.4249 106.237 16.4249C106.237 16.4249 110.377 16.2748 112.559 20.4071L112.634 18.9045C112.634 18.9045 112.484 17.1012 115.343 17.552C118.203 18.0029 119.181 19.1305 119.106 20.0316C119.106 20.0316 118.58 31.6033 118.881 38.4406C119.264 42.4134 119.946 44.7612 121.966 44.6017C123.706 44.3475 124.943 41.9659 125.691 39.9371C123.163 18.8974 134.673 16.3463 134.673 16.3463C134.673 16.3463 139.767 15.973 142.09 20.2238L142.164 18.8071C142.164 18.8071 141.94 16.9434 144.638 17.4651C144.638 17.4651 145.762 17.6141 146.961 18.0616C148.159 18.5091 148.534 18.8071 148.534 19.9258C148.534 21.0446 148.309 40.7026 148.309 40.7026C148.309 40.7026 154.304 32.6495 155.802 24.8191C155.802 24.8191 153.704 23.2534 153.855 21.0158C154.004 18.7788 155.128 16.0943 158.425 16.0943C161.722 16.0943 161.872 19.0026 161.347 21.0158C161.347 21.0158 164.119 20.6431 166.517 20.0466C168.916 19.4501 172.138 19.0768 172.362 22.8059C172.511 24.1484 171.912 25.1919 171.912 25.1919C171.912 25.1919 170.039 33.4692 170.338 36.825C170.639 40.1808 171.538 45.2513 174.161 44.6548C176.783 44.0583 177.682 40.3298 177.682 40.3298C177.682 40.3298 176.628 36.0153 177.158 31.0085C177.855 24.4165 180.802 16.6908 187.573 16.6908C187.573 16.6908 191.694 16.5418 193.867 20.6431L193.943 19.1516C193.943 19.1516 193.792 17.3621 196.64 17.809C199.487 18.2565 200.461 19.3753 200.386 20.2698C200.386 20.2698 199.862 31.7539 200.162 38.5403C200.543 42.4832 201.222 44.8132 203.233 44.6548C205.173 44.5978 206.808 41.3173 207.821 38.6433L207.808 37.6536L207.873 18.2632C208.034 17.1533 209.036 17.0879 209.036 17.0879L211.361 17.4468C214.623 17.937 214.17 19.177 214.17 19.177V30.1455C216.593 22.7023 217.757 19.8627 218.855 17.9691C219.791 16.3552 222.86 17.4141 222.86 17.4141C222.86 17.4141 226.187 18.2959 226.251 21.3642C226.155 26.4242 226.865 34.6672 226.865 34.6672C226.877 34.7985 226.99 34.8389 227.053 34.7813C227.103 34.7364 227.108 34.6019 227.108 34.6019C227.77 29.2976 230.785 20.5916 231.991 18.3291C233.196 16.0655 236.685 17.6761 236.685 17.6761C240.863 19.1128 240.302 21.5935 240.302 21.5935C239.054 42.8775 241.68 44.2705 243.232 44.4006C244.781 44.5313 245.6 42.5292 245.945 41.5715C246.289 40.6139 246.72 38.5248 246.978 37.6973C247.236 36.8704 248.055 36.8267 248.055 36.8267C248.055 36.8267 248.999 37.0438 248.999 37.8275ZM107.89 21.5348C106.423 21.5913 102.98 22.5494 102.36 32.1295C101.74 41.7089 104.279 44.1885 106.423 44.4704C108.568 44.7518 112.348 41.3146 112.574 31.1148C112.801 20.9145 107.89 21.5348 107.89 21.5348ZM137.912 21.578C136.423 21.635 132.676 22.9399 131.83 32.2142C131.201 41.9199 133.778 44.4322 135.955 44.7174C138.133 45.0027 141.971 41.5206 142.199 31.1862C142.429 20.8519 137.912 21.578 137.912 21.578ZM142.94 51.3343C134.456 58.669 133.723 63.9079 133.723 63.9079C133.723 63.9079 132.886 68.2036 136.97 68.4135C141.879 68.9114 142.703 62.947 142.835 57.7263C142.898 55.2606 142.94 51.3343 142.94 51.3343ZM189.451 21.8749C187.984 21.9314 184.54 22.8895 183.92 32.4695C183.3 42.049 185.839 44.5286 187.984 44.8105C190.129 45.0918 193.91 41.6546 194.135 31.4549C194.362 21.2551 189.451 21.8749 189.451 21.8749Z" fill="#353030"/>
</svg>
