<svg width="165" height="44" viewBox="0 0 165 44" fill="none" xmlns="http://www.w3.org/2000/svg">
<path d="M22.688 41.1639C20.2059 41.594 17.6801 41.7229 15.0674 42.0663L7.09806 19.0353V43.0548C4.61597 43.3125 2.35157 43.6563 0 44V0H6.61934L15.6769 24.9652V0H22.688V41.1639ZM36.4054 16.1133C39.1055 16.1133 43.2424 15.9843 45.7245 15.9843V22.8592C42.6325 22.8592 39.0183 22.8592 36.4054 22.9881V33.2149C40.499 32.9572 44.5924 32.6131 48.7291 32.4841V39.101L29.4377 40.6052V0H48.7291V6.87501H36.4054V16.1133ZM74.6396 6.87517H67.4109V38.5001C65.0593 38.5001 62.7077 38.5001 60.4437 38.5858V6.87517H53.2149V0H74.6399L74.6396 6.87517ZM85.9618 15.6408H95.4987V22.5156H85.9618V38.1134H79.1244V0H98.5906V6.87501H85.9618V15.6408ZM109.913 32.0976C113.876 32.1833 117.882 32.4846 121.758 32.6991V39.4883C115.53 39.1013 109.303 38.7151 102.945 38.5858V0H109.913V32.0976ZM127.636 39.9609C129.857 40.09 132.209 40.219 134.473 40.4764V0H127.636V39.9609ZM165 0L156.16 20.9258L165 44C162.387 43.6563 159.774 43.1836 157.161 42.7538L152.154 30.0353L147.059 41.7229C144.533 41.2928 142.094 41.1639 139.569 40.8201L148.539 20.6678L140.439 0H147.929L152.502 11.5586L157.379 0L165 0Z" fill="#353030"/>
</svg>
