<svg width="43" height="36" viewBox="0 0 43 36" fill="none" xmlns="http://www.w3.org/2000/svg">
<path d="M0.871078 25.8865C-0.742118 26.9267 -0.20322 28.9021 3.23313 29.8406C6.77797 30.9859 10.6447 31.2976 14.4065 30.6742C14.62 30.6742 14.8369 30.5691 14.9454 30.5691V27.0283L11.2921 28.1736C9.89588 28.5903 8.49964 28.6954 7.1034 28.3803C6.02911 28.0685 6.24257 27.4451 7.53382 26.9233L14.9454 24.4261V20.5804L4.62937 24.0127C3.34161 24.4295 2.05036 25.053 0.871078 25.8865ZM25.7934 10.2799V20.3703C30.1991 22.4507 33.6354 20.3703 33.6354 14.9626C33.6354 9.44979 31.5953 6.95261 25.6849 4.97722C22.5705 3.93362 19.3476 2.99845 16.1247 2.375V32.4395L23.6448 34.6249V9.34475C23.6448 8.1995 23.6448 7.36937 24.5056 7.68109C25.6884 7.99282 25.7934 9.13806 25.7934 10.2799ZM39.7627 23.4909C36.6483 22.4507 33.317 22.034 30.0941 22.3457C28.3759 22.4507 26.7627 22.8675 25.258 23.3859L24.936 23.4909V27.5501L31.9207 25.053C33.317 24.6362 34.7132 24.5312 36.1094 24.8463C37.1837 25.158 36.9703 25.7814 35.679 26.3032L24.936 30.1524V34.1065L39.7627 28.8004C40.837 28.3837 41.8029 27.8652 42.6637 27.0317C43.4161 25.9881 43.0941 24.5312 39.7627 23.4909Z" fill="#353030"/>
</svg>
