<svg width="255" height="80" viewBox="0 0 255 80" fill="none" xmlns="http://www.w3.org/2000/svg">
<g clip-path="url(#clip0_1_328)">
<path d="M149.02 29.8635C149.211 29.213 149.402 28.5947 149.593 27.9435C151.059 22.8992 152.525 17.8871 153.99 12.8421L154.182 12.2561C154.341 11.6707 154.883 11.3128 155.456 11.3128H160.299C161.51 11.3128 161.765 11.6707 161.351 12.8421L159.439 18.0167C157.304 23.68 155.169 29.3755 153.035 35.0387C152.971 35.2341 152.876 35.4288 152.812 35.6241C152.588 36.3076 151.919 36.7634 151.219 36.6982C149.816 36.666 148.414 36.666 147.012 36.6982C146.025 36.7311 145.451 36.2753 145.1 35.3637C144.304 33.2161 143.476 31.0356 142.679 28.8874C140.767 23.7773 138.824 18.6679 136.912 13.5255C136.721 13.1348 136.593 12.6797 136.498 12.2561C136.402 11.6055 136.625 11.28 137.262 11.28C139.079 11.2477 140.895 11.28 142.679 11.28C143.444 11.28 143.795 11.8009 143.986 12.4843C144.336 13.7209 144.686 14.9903 145.069 16.2269C146.375 20.751 147.65 25.3072 148.956 29.8313C148.924 29.8635 148.956 29.8635 149.02 29.8635Z" fill="#353030"/>
<path d="M171.583 24.013V35.7296C171.519 36.3801 171.232 36.6735 170.595 36.7057C168.874 36.7386 167.185 36.7386 165.465 36.7057C164.828 36.7057 164.541 36.3802 164.477 35.7619C164.445 35.5665 164.445 35.3389 164.445 35.1436V12.622C164.477 11.613 164.732 11.3203 165.72 11.3203H170.308C171.296 11.3203 171.583 11.613 171.583 12.622V24.013Z" fill="#353030"/>
<path d="M168.038 -0.366218C168.676 -0.431335 169.313 -0.301106 169.919 -0.0406408C171.161 0.447421 172.021 1.61889 172.085 2.98633C172.34 5.94757 170.397 7.44463 167.816 7.37951C167.465 7.37951 167.114 7.3144 166.764 7.24928C164.788 6.76122 163.769 5.19905 163.96 2.95347C164.119 1.1637 165.49 -0.170873 167.369 -0.333354C167.592 -0.366222 167.816 -0.398466 168.038 -0.366218Z" fill="#353030"/>
<path d="M254.967 21.9959V22.1261C254.839 21.9959 254.775 21.8005 254.839 21.638V21.3776C254.839 21.3776 254.839 21.3447 254.871 21.3447H254.839V21.0197H254.903C254.903 20.9869 254.871 20.9869 254.871 20.9546C254.807 20.3363 254.679 19.7174 254.52 19.132C253.341 14.8355 250.697 12.0045 246.395 10.8976C244.388 10.4095 242.348 10.3444 240.31 10.67C236.008 11.3211 232.917 13.6641 231.42 17.8303C229.953 21.8005 229.986 26.1621 231.451 30.1323C232.726 33.7447 235.275 36.0231 238.939 36.967C240.883 37.4551 242.922 37.5853 244.929 37.2926C251.621 36.479 254.393 31.3038 254.839 26.8126H254.807V26.3568C254.775 26.1621 254.743 25.999 254.934 25.8687V25.9338C254.934 25.9016 254.967 25.8365 254.998 25.8036V22.061C254.998 22.0287 254.967 22.0287 254.967 21.9959ZM247.319 28.1794C247.128 28.8628 246.841 29.4817 246.427 30.0672C245.726 31.0762 244.611 31.7273 243.4 31.8247C242.795 31.8898 242.189 31.8898 241.584 31.7596C240.246 31.4991 239.13 30.5881 238.589 29.3186C238.11 28.3097 237.824 27.2033 237.729 26.0969C237.569 24.1763 237.537 22.2563 237.984 20.3686C238.143 19.62 238.461 18.8715 238.843 18.2204C239.545 17.0489 240.755 16.3004 242.093 16.203C242.699 16.1379 243.305 16.1379 243.91 16.2681C245.184 16.5279 246.236 17.3745 246.81 18.5788C247.351 19.7174 247.67 20.9869 247.733 22.2563C247.765 22.8424 247.797 23.4278 247.765 24.0138C247.861 25.4458 247.701 26.8455 247.319 28.1794Z" fill="#353030"/>
<path d="M199.109 -0.140625H194.68C193.469 -0.140625 193.246 0.0876012 193.246 1.32419V11.8693C193.246 12.0969 193.341 12.3245 193.182 12.5527C192.895 12.5198 192.736 12.3245 192.513 12.1949C189.199 10.2091 185.726 9.85132 182.221 11.5109C179.768 12.6829 178.238 14.7983 177.25 17.3043C176.295 19.7124 176.071 22.2513 176.135 24.8225C176.135 27.2305 176.677 29.6064 177.728 31.7546C178.939 34.1304 180.692 35.953 183.24 36.7344C186.714 37.8408 189.964 37.2876 192.927 35.042C193.15 34.9118 193.278 34.6836 193.564 34.6185C193.723 34.9769 193.851 35.367 193.915 35.7577C194.042 36.2786 194.488 36.6364 195.03 36.6364H195.795C196.942 36.6364 198.057 36.6693 199.172 36.6364C200.064 36.6364 200.319 36.3437 200.351 35.3998V1.09659C200.319 0.0875985 200.064 -0.140625 199.109 -0.140625ZM193.278 23.8135V29.7366C193.342 30.1273 193.118 30.4851 192.768 30.6482C191.238 31.527 189.486 31.8848 187.766 31.6243C186.299 31.4619 185.025 30.5502 184.356 29.2163C183.846 28.1744 183.559 27.0681 183.464 25.9288C183.209 23.8786 183.368 21.7955 183.846 19.8104C184.005 19.2572 184.197 18.7363 184.483 18.2154C185.152 16.9465 186.427 16.1329 187.829 16.0349C189.518 15.8724 191.206 16.198 192.736 16.9136C193.118 17.0439 193.342 17.4346 193.309 17.8575C193.246 19.8755 193.278 21.8284 193.278 23.8135Z" fill="#353030"/>
<path d="M218.357 26.3845C220.205 26.2542 222.053 25.8964 223.71 24.9848C225.399 24.1389 226.578 22.5438 226.928 20.6561C227.151 19.4846 227.151 18.248 226.896 17.0766C226.227 14.1469 224.411 12.3243 221.671 11.3804C220.141 10.8924 218.516 10.697 216.923 10.7621C211.57 10.8924 207.492 13.6589 205.835 19.1268C204.719 22.7392 204.878 26.4167 205.962 30.0297C207.078 33.7395 209.626 35.9857 213.259 36.9947C214.82 37.3848 216.445 37.5479 218.038 37.4828C220.364 37.4499 222.69 36.9947 224.889 36.1482C225.813 35.7904 226.036 35.4648 226.036 34.4558V32.1122C226.004 31.169 225.621 30.8434 224.697 31.071C223.997 31.2663 223.328 31.4288 222.626 31.5919C220.492 32.1122 218.261 32.2102 216.095 31.8195C213.928 31.3966 212.462 30.1271 211.889 27.9138C211.729 27.2632 211.602 26.6121 211.538 25.9287C211.697 25.9287 211.857 25.9287 211.984 25.9938C214.087 26.3845 216.222 26.5469 218.357 26.3845ZM211.697 21.177C211.921 19.9076 212.207 18.671 212.972 17.6297C214.151 16.0347 215.776 15.5789 217.624 15.7742C217.783 15.7742 217.911 15.8394 218.07 15.8394C220.3 16.1978 220.842 18.0198 220.428 19.7773C220.109 21.0797 219.058 21.5677 217.879 21.7953C217.242 21.9256 216.573 21.9907 215.904 21.9584C214.597 21.9256 213.323 21.8282 212.048 21.6328C211.761 21.6 211.634 21.4697 211.697 21.177Z" fill="#353030"/>
<path d="M126.294 79.6287C124.555 79.5326 122.816 79.4674 121.077 79.3378C116.425 78.98 111.805 78.2643 107.28 77.1902C91.6354 73.4798 77.9025 66.0268 65.9223 55.189C64.807 54.18 63.7554 53.1387 62.6723 52.0969C62.4173 51.8693 62.1945 51.5437 62.067 51.2181C61.8757 50.7629 61.971 50.2743 62.2898 49.9164C62.6085 49.5586 63.1185 49.4284 63.5642 49.6237C63.8514 49.7539 64.1379 49.8842 64.3929 50.0466C75.8315 57.2721 88.3216 62.5446 101.418 65.669C105.815 66.7102 110.244 67.5239 114.704 68.1099C121.109 68.9235 127.577 69.2163 134.013 68.9887C137.487 68.8907 140.928 68.5651 144.369 68.1099C152.398 67.068 160.332 65.2132 168.012 62.6098C172.058 61.2423 176.009 59.6801 179.864 57.8575C180.438 57.5325 181.139 57.4346 181.776 57.5977C182.828 57.8575 183.465 58.9645 183.21 60.0386C183.178 60.1682 183.114 60.3313 183.05 60.4615C182.796 60.9496 182.445 61.3725 182 61.6981C178.335 64.6271 174.384 67.1983 170.21 69.3465C162.34 73.4147 153.928 76.3115 145.261 77.971C140.268 78.8808 135.244 79.4333 130.188 79.6299L130.158 79.6312V79.7614H126.334V79.6312L126.294 79.6287ZM184.931 47.8984C187.033 47.9636 189.105 48.0938 191.144 48.647C191.717 48.8101 192.259 49.0054 192.801 49.2659C193.533 49.5586 194.012 50.2742 194.107 51.0556C194.235 51.9666 194.267 52.9105 194.203 53.8544C193.788 59.4197 192.1 64.7902 189.296 69.5741C188.276 71.2994 187.033 72.8615 185.6 74.2284C185.313 74.5211 184.962 74.7493 184.58 74.8795C183.975 75.042 183.593 74.7164 183.56 74.0981C183.593 73.7725 183.656 73.447 183.783 73.122C184.899 70.0628 185.982 67.0358 186.843 63.8786C187.352 62.1539 187.703 60.3964 187.926 58.606C187.99 57.9555 188.021 57.3043 187.957 56.6538C187.926 55.5468 187.225 54.6029 186.174 54.278C185.186 53.9524 184.166 53.757 183.114 53.6919C180.183 53.5617 177.252 53.6919 174.352 54.0826L170.497 54.5707C170.083 54.6029 169.7 54.5707 169.477 54.18C169.254 53.7893 169.35 53.3992 169.573 53.0085C169.828 52.6507 170.146 52.3251 170.529 52.0969C172.886 50.3722 175.531 49.331 178.335 48.647C180.502 48.1918 182.7 47.9636 184.931 47.8984Z" fill="#353030"/>
<path d="M24.4387 21.2746C24.3112 19.5822 23.8656 17.922 23.1965 16.3921C21.8899 13.5933 19.8827 11.5431 16.8239 10.8268C13.3189 10.046 10.1642 10.8268 7.29664 13.0079C7.10539 13.2026 6.88257 13.3657 6.62757 13.496C6.56382 13.4631 6.50007 13.4308 6.50007 13.398C6.40475 13.0724 6.341 12.7474 6.24507 12.4218C5.99007 11.6082 5.67132 11.3155 4.81161 11.3155C3.85536 11.3155 2.86754 11.3477 1.91189 11.3155C1.17907 11.2826 0.51 11.38 0 11.966C0 23.357 1.18517e-06 34.7809 0.0315726 46.1391C0.446251 46.8231 1.08314 46.9527 1.81596 46.9204C2.96346 46.8882 4.11035 46.9204 5.25725 46.9204C7.26507 46.9204 7.26507 46.9204 7.26507 44.9025V35.6268C7.26507 35.3992 7.16914 35.1387 7.39197 34.9434C8.98511 36.2128 10.9292 36.9942 12.9364 37.189C15.7402 37.4823 18.2896 36.766 20.4243 34.8132C21.9853 33.349 23.1327 31.4612 23.7381 29.3781C24.5984 26.7096 24.6621 24.0082 24.4387 21.2746ZM110.884 26.0584C113.273 26.5142 115.727 26.5465 118.117 26.1564C119.519 25.9611 120.857 25.5375 122.099 24.8541C123.533 24.0082 124.585 22.8367 125.031 21.2094C126.146 17.1084 124.425 12.975 120.251 11.4451C118.212 10.7617 116.045 10.5341 113.91 10.8268C108.876 11.4129 105.594 14.2445 104.096 19.1586C103.045 22.5111 103.172 25.9282 104.033 29.313C105.148 33.6417 107.952 36.2129 112.19 37.1239C114.612 37.6777 117.065 37.5797 119.486 37.189C120.761 36.9614 122.036 36.6358 123.246 36.1477C123.979 35.855 124.362 35.3992 124.33 34.5527C124.298 33.7719 124.33 32.9583 124.33 32.1446C124.33 31.1685 123.947 30.8752 123.024 31.1034C122.099 31.331 121.207 31.5263 120.283 31.7217C118.307 32.1446 116.268 32.1446 114.293 31.7868C111.584 31.233 109.832 28.8572 109.991 25.9282C110.278 25.9611 110.597 25.9933 110.884 26.0584ZM67.0401 36.7338H62.7701C61.6548 36.7338 61.3682 36.4082 61.3682 35.3018V12.7146C61.3682 12.4541 61.4004 12.1942 61.4641 11.9338C61.591 11.5431 61.9735 11.3155 62.356 11.3155H66.3389C66.9126 11.3155 67.2629 11.6733 67.4542 12.2265C67.6133 12.6823 67.7092 13.1053 67.8683 13.5933C68.187 13.5933 68.3783 13.3657 68.6011 13.2355C70.3539 12.1291 72.2014 11.1853 74.273 10.7946C75.8661 10.469 77.4593 10.469 79.0524 10.7946C80.5496 11.1201 81.8878 12.0311 82.7481 13.3329C82.8119 13.4308 82.8756 13.4959 82.9394 13.5611C82.9078 13.5933 82.9394 13.5933 82.9715 13.6584C83.7681 13.1704 84.5963 12.6494 85.4566 12.1942C87.6872 11.0222 90.1722 10.4367 92.6895 10.5663C94.506 10.6643 96.1629 11.1853 97.4373 12.5521C98.648 13.8215 99.0942 15.3837 99.2217 17.0761C99.2533 17.4339 99.2533 17.7918 99.2533 18.1825V35.0414C99.2533 36.5056 99.062 36.7009 97.6286 36.7009H93.741C93.486 36.7009 93.231 36.7009 92.9766 36.6687C92.5941 36.6358 92.2754 36.3102 92.2116 35.9201C92.1479 35.5617 92.1479 35.2039 92.1479 34.846V19.7769C92.1801 19.1586 92.1163 18.5732 91.9566 17.9871C91.7016 16.9781 90.8098 16.2625 89.7904 16.1973C87.91 16.0671 86.0303 16.4572 84.3097 17.2708C84.0547 17.336 83.8956 17.5964 83.9272 17.8569V34.9763C83.9272 35.3018 83.9272 35.5946 83.8634 35.9201C83.8634 36.3753 83.5131 36.7009 83.0669 36.7009C82.589 36.7338 82.1112 36.7338 81.6012 36.7338H78.2237C77.0446 36.7338 76.7902 36.4405 76.7902 35.2367V19.842C76.7902 19.2888 76.758 18.7034 76.6305 18.1496C76.4077 17.0432 75.4837 16.2625 74.4005 16.1973C72.4886 16.0671 70.5445 16.4572 68.8239 17.3037C68.5695 17.3688 68.4098 17.6615 68.4736 17.922V35.269C68.4736 36.4733 68.2186 36.7338 67.0401 36.7338ZM34.7948 36.7009H30.6522C30.4294 36.7009 30.1744 36.7009 29.9516 36.6687C29.5369 36.6358 29.2181 36.278 29.1866 35.855C29.1544 35.5946 29.1544 35.3341 29.1544 35.0736V12.9428C29.1544 11.4451 29.3141 11.2826 30.7797 11.2826H33.8385C34.6673 11.2826 35.0491 11.5753 35.2726 12.389C35.4954 13.2026 35.6866 14.0163 35.8779 14.895C36.1007 14.8299 36.292 14.6997 36.4195 14.5049C36.9932 13.9189 37.5985 13.3657 38.2354 12.8448C39.8923 11.5431 41.9639 10.8919 44.0349 11.055C44.863 11.0873 45.1502 11.3477 45.2139 12.1614C45.2777 13.2677 45.2455 14.407 45.2455 15.5133C45.2777 15.9691 45.2455 16.3921 45.1818 16.8479C45.0543 17.4339 44.8314 17.6615 44.2577 17.7267C43.8114 17.7595 43.3974 17.7267 42.9511 17.6944C40.8164 17.4991 38.7454 17.922 36.7382 18.6054C36.292 18.7685 36.292 19.0935 36.292 19.4519V35.0736C36.292 35.3663 36.292 35.6268 36.2604 35.9201C36.2282 36.3431 35.9095 36.6687 35.4954 36.6687C35.2726 36.7009 35.0176 36.7009 34.7948 36.7009ZM54.04 36.6358H49.6109C49.4512 36.6358 49.3243 36.6358 49.1646 36.6035C48.7184 36.5707 48.3365 36.2128 48.3043 35.757C48.2727 35.4966 48.2727 35.2367 48.2727 34.9763C48.3043 31.3632 48.3043 27.6535 48.3043 23.9431V12.389C48.3365 11.6082 48.623 11.3155 49.3874 11.2826C51.0443 11.2504 52.7012 11.2504 54.3581 11.2826C55.0909 11.2826 55.3144 11.5102 55.3781 12.2587C55.4097 12.5521 55.4097 12.8125 55.4097 13.1053V34.7809C55.4097 35.1387 55.3781 35.4966 55.3459 35.855C55.3144 36.278 54.9956 36.5707 54.5815 36.6035C54.3903 36.6358 54.2312 36.6358 54.04 36.6358ZM16.8239 28.0113C16.6005 29.0203 16.0911 29.9313 15.3583 30.6147C14.5295 31.331 13.5101 31.7539 12.4264 31.7539C10.8017 31.8519 9.20854 31.4935 7.77446 30.7127C7.42414 30.5496 7.20132 30.1918 7.23289 29.8011V23.9102C7.23289 21.958 7.26507 20.0051 7.23289 18.0522C7.20132 17.5964 7.45571 17.2057 7.87039 17.0432C9.62261 16.1973 11.4386 15.8067 13.3505 16.1973C14.6886 16.3921 15.8361 17.2708 16.3777 18.5403C16.8555 19.5822 17.1421 20.7208 17.2058 21.86C17.3971 23.9431 17.3971 26.0262 16.8239 28.0113ZM110.087 21.0792C110.182 20.2978 110.405 19.5493 110.692 18.833C111.648 16.4572 113.655 15.6436 115.695 15.7738C116.268 15.8067 116.842 15.9369 117.383 16.1645C118.212 16.5223 118.754 17.3037 118.849 18.2147C118.945 18.7685 118.913 19.3539 118.754 19.9071C118.371 21.0792 117.447 21.5673 116.332 21.7949C115.663 21.958 114.962 22.0231 114.261 21.958C113.018 21.958 111.743 21.86 110.501 21.6646C110.023 21.5995 110.023 21.5995 110.087 21.0792ZM52.0006 -0.368852C52.5106 -0.4011 53.02 -0.303742 53.4978 -0.141262C55.2184 0.444785 56.1109 1.97471 55.9512 3.95983C55.8244 5.65223 54.5815 7.01905 52.9246 7.27952C52.2234 7.40975 51.4906 7.40975 50.7899 7.27952C48.9734 6.92169 47.6352 5.55487 47.7627 3.2113C47.954 0.900602 49.4512 -0.368852 52.0006 -0.368852Z" fill="#353030"/>
</g>
<defs>
<clipPath id="clip0_1_328">
<rect width="255" height="80" fill="white"/>
</clipPath>
</defs>
</svg>
