<svg width="36" height="36" viewBox="0 0 36 36" fill="none" xmlns="http://www.w3.org/2000/svg">
<path d="M33 25C33 29.4183 29.4183 33 25 33H11C6.58172 33 3 29.4183 3 25V11C3 6.58172 6.58172 3 11 3H25C29.4183 3 33 6.58172 33 11V25Z" fill="#353030"/>
<path d="M26.3628 12.0045C26.0634 12.0045 25.801 11.9769 25.5799 11.917C25.6122 12.2716 25.7181 12.5248 25.8976 12.6768C26.0773 12.8287 26.3536 12.907 26.7219 12.907C26.8646 12.907 27.0074 12.8978 27.1501 12.8794C27.2883 12.8609 27.4817 12.8195 27.7303 12.755C27.7441 12.7505 27.7626 12.7459 27.7764 12.7413C27.7902 12.7366 27.804 12.7366 27.8178 12.7366C27.9054 12.7366 27.9514 12.7966 27.9514 12.9208V13.2846C27.9514 13.3675 27.9376 13.4274 27.9145 13.4642C27.8916 13.4964 27.8455 13.5286 27.7764 13.5563C27.3942 13.7037 26.9844 13.7773 26.5516 13.7773C25.8976 13.7773 25.4004 13.5977 25.0503 13.2385C24.7004 12.8794 24.5254 12.3637 24.5254 11.6914C24.5254 11.0052 24.705 10.4665 25.0596 10.075C25.4187 9.68363 25.9114 9.48564 26.5516 9.48564C27.0397 9.48564 27.4219 9.60539 27.6981 9.8402C27.9744 10.0797 28.1125 10.3974 28.1125 10.7934C28.1125 11.1895 27.9652 11.4888 27.6659 11.6914C27.3804 11.9032 26.9429 12.0045 26.3628 12.0045ZM26.4732 10.2961C25.9668 10.2961 25.6767 10.6092 25.5984 11.2309C25.8102 11.2723 26.0404 11.2954 26.2983 11.2954C26.5653 11.2954 26.7587 11.2539 26.8831 11.171C27.0027 11.0881 27.0626 10.9638 27.0626 10.7934C27.0626 10.4619 26.8692 10.2961 26.4732 10.2961ZM18.774 10.0014C19.0504 9.81724 19.3036 9.68363 19.5293 9.60998C19.7549 9.53174 19.9851 9.49491 20.2199 9.49491C20.6943 9.49491 21.0258 9.66526 21.2238 10.0014C21.4909 9.82183 21.7442 9.6929 21.979 9.61457C22.2185 9.53633 22.4626 9.49491 22.7111 9.49491C23.0796 9.49491 23.365 9.5962 23.5677 9.80338C23.7702 10.0106 23.8715 10.2961 23.8715 10.6691V13.4688C23.8715 13.5378 23.8578 13.5885 23.8301 13.6208C23.8025 13.653 23.7519 13.6668 23.6782 13.6668H22.923C22.8539 13.6668 22.8032 13.653 22.7756 13.6208C22.7434 13.5885 22.7295 13.5378 22.7295 13.4688V10.9224C22.7295 10.5632 22.5684 10.3836 22.2461 10.3836C21.9605 10.3836 21.6751 10.4526 21.385 10.5908V13.4688C21.385 13.5378 21.3712 13.5885 21.3435 13.6208C21.3159 13.653 21.2652 13.6668 21.1915 13.6668H20.4364C20.3673 13.6668 20.3166 13.653 20.2891 13.6208C20.2568 13.5885 20.243 13.5378 20.243 13.4688V10.9224C20.243 10.5632 20.0818 10.3836 19.7595 10.3836C19.4648 10.3836 19.1746 10.4526 18.8892 10.5954V13.4642C18.8892 13.5333 18.8754 13.5839 18.8478 13.6162C18.82 13.6484 18.7695 13.6622 18.6958 13.6622H17.9222C17.8531 13.6622 17.8024 13.6484 17.7748 13.6162C17.7427 13.5839 17.7288 13.5333 17.7288 13.4642V9.80797C17.7288 9.73432 17.7427 9.68363 17.7748 9.65148C17.807 9.62384 17.8577 9.60998 17.9222 9.60998H18.4886C18.6083 9.60998 18.6819 9.66985 18.7096 9.78501L18.774 10.0014ZM15.5968 9.81265C15.5968 9.73891 15.6106 9.68831 15.6428 9.65608C15.6751 9.62844 15.7257 9.60998 15.7948 9.60998H16.5499C16.6236 9.60998 16.6743 9.62384 16.7019 9.65608C16.7296 9.68363 16.7479 9.73432 16.7479 9.81265V13.4688C16.7479 13.5378 16.7342 13.5885 16.7019 13.6208C16.6743 13.653 16.6236 13.6668 16.5499 13.6668H15.7948C15.7257 13.6668 15.6751 13.653 15.6428 13.6208C15.6106 13.5885 15.5968 13.5378 15.5968 13.4688V9.81265ZM16.1724 8.98377C15.9744 8.98377 15.8133 8.92849 15.6889 8.81802C15.5692 8.70745 15.5093 8.55547 15.5093 8.36675C15.5093 8.17794 15.5692 8.02596 15.6889 7.9154C15.8086 7.80492 15.9697 7.74964 16.1724 7.74964C16.3704 7.74964 16.5316 7.80492 16.6559 7.9154C16.7756 8.02596 16.8354 8.17794 16.8354 8.36675C16.8354 8.55547 16.7756 8.70745 16.6559 8.81802C16.5362 8.92849 16.375 8.98377 16.1724 8.98377ZM13.5338 10.2132C13.7457 9.983 13.9437 9.81724 14.1279 9.71587C14.22 9.66985 14.3167 9.63303 14.418 9.60539C14.5193 9.58242 14.6205 9.56856 14.7265 9.56856H14.837C14.9106 9.56856 14.9613 9.58242 14.9936 9.60998C15.0258 9.63762 15.0396 9.6929 15.0396 9.76655V10.4343C15.0396 10.5033 15.0258 10.554 14.9982 10.5862C14.9705 10.6185 14.9199 10.6323 14.8462 10.6323C14.8094 10.6323 14.7633 10.6277 14.7035 10.6231C14.6297 10.6185 14.5561 10.6138 14.4824 10.6138C14.3627 10.6138 14.2153 10.6323 14.0403 10.6645C13.8654 10.7013 13.718 10.7428 13.5984 10.7934V13.4596C13.5984 13.5286 13.5845 13.5793 13.5569 13.6116C13.5292 13.6438 13.4786 13.6576 13.4003 13.6576H12.6451C12.5761 13.6576 12.5254 13.6438 12.4978 13.6116C12.4655 13.5793 12.4517 13.5286 12.4517 13.4596V9.81265C12.4517 9.73891 12.4655 9.68831 12.4978 9.65608C12.53 9.62844 12.5807 9.61457 12.6451 9.61457H13.2115C13.3312 9.61457 13.4049 9.67445 13.4325 9.7896L13.5338 10.2132ZM7.72266 9.80797C7.72266 9.73432 7.73643 9.68363 7.76867 9.65608C7.8009 9.62844 7.8515 9.61457 7.91606 9.61457H8.48239C8.60214 9.61457 8.67579 9.67445 8.70343 9.7896L8.75871 9.99678C8.91528 9.8448 9.10868 9.72054 9.32972 9.63303C9.55067 9.54551 9.7809 9.4995 10.0112 9.4995C10.5223 9.4995 10.9229 9.68831 11.2223 10.0612C11.5216 10.4389 11.669 10.9454 11.669 11.5855C11.669 12.0229 11.5952 12.4051 11.4478 12.7366C11.3005 13.0636 11.1025 13.3169 10.8493 13.4918C10.596 13.6714 10.3059 13.7589 9.97898 13.7589C9.76253 13.7589 9.55994 13.7267 9.36195 13.6576C9.16855 13.5885 9.00271 13.4918 8.86459 13.3722V15.0989C8.86459 15.1725 8.85082 15.2232 8.82318 15.2555C8.79553 15.2831 8.74485 15.2969 8.67119 15.2969H7.91606C7.847 15.2969 7.79631 15.2831 7.76867 15.2555C7.73643 15.2278 7.72266 15.1725 7.72266 15.0989V9.80797ZM9.64737 10.3652C9.37573 10.3652 9.11787 10.4343 8.87378 10.577V12.6629C9.104 12.8057 9.36195 12.8794 9.64737 12.8794C9.94206 12.8794 10.1585 12.7781 10.2967 12.5801C10.4348 12.3774 10.5039 12.0644 10.5039 11.6269C10.5039 11.1895 10.4348 10.8671 10.2967 10.6691C10.1631 10.4665 9.94674 10.3652 9.64737 10.3652Z" fill="#100E0E"/>
<path d="M26.0074 21.9375C25.3536 21.9375 24.8377 21.7395 24.4694 21.3388C24.101 20.9429 23.9168 20.3857 23.9168 19.6765C23.9168 18.9721 24.101 18.4195 24.4694 18.0188C24.8377 17.6229 25.3536 17.4202 26.0074 17.4202C26.6612 17.4202 27.177 17.6182 27.5453 18.0188C27.9138 18.4148 28.098 18.9674 28.098 19.6765C28.098 20.3903 27.9138 20.9429 27.5453 21.3388C27.177 21.7395 26.6658 21.9375 26.0074 21.9375ZM26.0074 21.0027C26.5875 21.0027 26.8776 20.5607 26.8776 19.6765C26.8776 18.797 26.5875 18.3596 26.0074 18.3596C25.4272 18.3596 25.1371 18.797 25.1371 19.6765C25.1416 20.5607 25.4317 21.0027 26.0074 21.0027ZM21.4486 20.0587C21.1402 20.0587 20.8731 20.0312 20.6474 19.9713C20.6796 20.335 20.7901 20.5975 20.9744 20.7587C21.1585 20.9152 21.4441 20.9935 21.8216 20.9935C21.9736 20.9935 22.121 20.9843 22.2637 20.9658C22.4064 20.9475 22.6044 20.906 22.8577 20.8415C22.8715 20.837 22.89 20.8324 22.9084 20.8277C22.9267 20.8231 22.936 20.8231 22.9499 20.8231C23.0419 20.8231 23.088 20.8876 23.088 21.0119V21.3895C23.088 21.4771 23.0742 21.5368 23.0511 21.5738C23.0281 21.6105 22.9774 21.6428 22.9084 21.6659C22.5124 21.8178 22.0979 21.8961 21.6513 21.8961C20.9836 21.8961 20.4678 21.7119 20.1087 21.3388C19.7495 20.9658 19.57 20.4364 19.57 19.7411C19.57 19.0318 19.7541 18.4747 20.1225 18.0741C20.4909 17.6689 20.9974 17.4663 21.6513 17.4663C22.1532 17.4663 22.5446 17.5906 22.8301 17.8346C23.1156 18.0787 23.2537 18.4056 23.2537 18.8155C23.2537 19.2252 23.1017 19.5338 22.7979 19.7456C22.4893 19.9528 22.0426 20.0587 21.4486 20.0587ZM21.5637 18.2905C21.0434 18.2905 20.7441 18.6128 20.6658 19.2575C20.8823 19.3036 21.1217 19.3219 21.3842 19.3219C21.6605 19.3219 21.8585 19.2805 21.9829 19.193C22.1072 19.1102 22.167 18.9812 22.167 18.8063C22.167 18.4609 21.9644 18.2905 21.5637 18.2905ZM16.3374 21.9053C15.9781 21.9053 15.6697 21.8132 15.4026 21.6244C15.1401 21.4401 14.9375 21.1777 14.7948 20.8462C14.652 20.5146 14.5829 20.1324 14.5829 19.6996C14.5829 19.0088 14.7441 18.4562 15.071 18.0419C15.3979 17.6274 15.8262 17.4202 16.3603 17.4202C16.7978 17.4202 17.1754 17.5445 17.4932 17.7978V15.8454C17.4932 15.7671 17.5116 15.7118 17.5438 15.6842C17.576 15.652 17.6313 15.6382 17.7004 15.6382H18.4924C18.5707 15.6382 18.6213 15.652 18.6535 15.6842C18.6858 15.7164 18.6996 15.7671 18.6996 15.8454V21.6014C18.6996 21.675 18.6858 21.7256 18.6535 21.758C18.6213 21.7902 18.5707 21.8085 18.4924 21.8085H17.8293C17.7648 21.8085 17.7141 21.7947 17.6773 21.7671C17.6405 21.7395 17.6175 21.6934 17.5991 21.6244L17.5484 21.431C17.2123 21.7487 16.807 21.9053 16.3374 21.9053ZM16.738 20.989C17.0004 20.989 17.2583 20.9106 17.4978 20.7541V18.5529C17.2629 18.4148 16.9866 18.3458 16.6781 18.3458C16.388 18.3458 16.1669 18.4562 16.0242 18.6773C15.8814 18.8984 15.8078 19.2299 15.8078 19.6765C15.8078 20.1232 15.8814 20.4547 16.0334 20.6711C16.19 20.8784 16.4202 20.989 16.738 20.989ZM12.7917 21.8132C12.718 21.8132 12.6673 21.7947 12.6352 21.7625C12.6028 21.7302 12.5845 21.675 12.5845 21.606V17.761C12.5845 17.6826 12.6028 17.6274 12.6352 17.5998C12.6673 17.5676 12.7226 17.5538 12.7917 17.5538H13.5837C13.6619 17.5538 13.7126 17.5676 13.7449 17.5998C13.7771 17.632 13.7909 17.6826 13.7909 17.761V21.606C13.7909 21.6796 13.7771 21.7302 13.7449 21.7625C13.7126 21.7947 13.6619 21.8132 13.5837 21.8132H12.7917ZM13.1877 16.8907C12.9805 16.8907 12.8101 16.8308 12.6812 16.7156C12.5522 16.6006 12.4924 16.4394 12.4924 16.2413C12.4924 16.0433 12.5568 15.8822 12.6812 15.7671C12.8101 15.652 12.9759 15.5921 13.1877 15.5921C13.3995 15.5921 13.5652 15.652 13.6942 15.7671C13.8231 15.8822 13.883 16.0433 13.883 16.2413C13.883 16.4394 13.8185 16.6006 13.6942 16.7156C13.5652 16.8308 13.3995 16.8907 13.1877 16.8907ZM9.51306 21.8132C9.45778 21.8132 9.41177 21.8085 9.37494 21.7902C9.33803 21.7762 9.31047 21.7533 9.28283 21.7211C9.25978 21.6888 9.23682 21.6474 9.21377 21.5921L7.80011 17.8807C7.78625 17.8438 7.77247 17.8024 7.75869 17.7656C7.74942 17.7379 7.74483 17.7057 7.74023 17.6735C7.74023 17.5906 7.79552 17.5491 7.90599 17.5491H8.73487C8.82238 17.5491 8.88685 17.5676 8.92827 17.5998C8.96969 17.632 9.00192 17.6872 9.02497 17.7656L9.87681 20.7172L10.7471 17.7656C10.7701 17.6872 10.8024 17.632 10.8439 17.5998C10.8853 17.5676 10.9498 17.5491 11.0372 17.5491H11.8384C11.949 17.5491 12.0043 17.5906 12.0043 17.6735C12.0043 17.7011 11.9996 17.7333 11.9858 17.7656C11.9766 17.7978 11.9628 17.8392 11.9444 17.8807L10.5307 21.5921C10.5077 21.6474 10.4846 21.6888 10.4617 21.7211C10.4386 21.7487 10.411 21.7717 10.3742 21.7902C10.3419 21.804 10.2959 21.8132 10.2314 21.8132H9.51306Z" fill="#100E0E"/>
<path d="M7.79654 23.8926C7.81032 23.8096 7.87478 23.7452 7.96689 23.7452C8.00839 23.7452 8.059 23.759 8.10968 23.7913C10.9784 25.5917 14.5242 26.6738 18.1849 26.6738C20.6576 26.6738 23.3745 26.1212 25.8702 24.9792C26.2479 24.8089 26.561 25.2464 26.1926 25.541C23.9639 27.314 20.7313 28.2578 17.9455 28.2578C14.0452 28.2578 10.5318 26.7014 7.87478 24.1136C7.82418 24.0629 7.79654 24.0077 7.78735 23.957V23.8926H7.79654Z" fill="#100E0E"/>
<path d="M24.3601 24.1727C25.0185 23.6754 25.8981 23.5096 26.621 23.5096C27.3026 23.5096 27.8505 23.657 27.9657 23.809C28.2097 24.1358 27.9012 26.383 26.7039 27.4605C26.5198 27.6263 26.3448 27.5388 26.4277 27.3223C26.6947 26.604 27.298 24.9832 27.0125 24.5918C26.727 24.2003 25.1291 24.403 24.4108 24.4951C24.3002 24.5089 24.2357 24.4628 24.2266 24.3938V24.3569C24.2404 24.3017 24.2818 24.2325 24.3601 24.1727Z" fill="#100E0E"/>
</svg>
