<svg width="36" height="25" viewBox="0 0 36 25" fill="none" xmlns="http://www.w3.org/2000/svg">
<path d="M35.2583 3.9119C34.8434 2.38223 33.6275 1.1764 32.0854 0.76451C29.2683 0 17.9996 0 17.9996 0C17.9996 0 6.73134 0 3.91422 0.735525C2.40184 1.14698 1.1562 2.38245 0.741359 3.9119C0 6.70581 0 12.5 0 12.5C0 12.5 0 18.3234 0.741359 21.0881C1.15664 22.6176 2.37217 23.8234 3.91444 24.2353C6.761 25 18 25 18 25C18 25 29.2683 25 32.0854 24.2645C33.6277 23.8528 34.8434 22.647 35.2587 21.1175C35.9998 18.3234 35.9998 12.5294 35.9998 12.5294C35.9998 12.5294 36.0295 6.70581 35.2583 3.9119ZM14.4119 17.8529V7.14712L23.7824 12.5L14.4119 17.8529Z" fill="#353030"/>
</svg>
