<svg width="24" height="25" viewBox="0 0 24 25" fill="none" xmlns="http://www.w3.org/2000/svg">
<path d="M12 6.07601C10.7814 6.07601 9.59007 6.4521 8.57684 7.15668C7.56358 7.86127 6.77383 8.86274 6.30748 10.0344C5.84113 11.2061 5.71911 12.4955 5.95686 13.7393C6.19459 14.9831 6.78142 16.1257 7.64314 17.0225C8.50484 17.9191 9.6027 18.5299 10.7979 18.7773C11.9932 19.0247 13.232 18.8977 14.3579 18.4124C15.4838 17.9271 16.4461 17.1052 17.1231 16.0508C17.8003 14.9962 18.1616 13.7565 18.1616 12.4883C18.1635 11.6456 18.0056 10.8109 17.6966 10.0321C17.3876 9.25307 16.9339 8.54538 16.3613 7.94954C15.7887 7.35368 15.1087 6.88144 14.3603 6.55992C13.6118 6.23842 12.8097 6.07396 12 6.07601ZM12 16.6641C11.2064 16.6641 10.4306 16.4191 9.77071 15.9603C9.11097 15.5016 8.59662 14.8494 8.29293 14.0863C7.98923 13.3233 7.90977 12.4837 8.06459 11.6736C8.21941 10.8636 8.60156 10.1195 9.16267 9.53549C9.72382 8.95155 10.4389 8.55385 11.2172 8.39273C11.9956 8.23161 12.8023 8.3143 13.5356 8.63036C14.2688 8.94641 14.8955 9.48169 15.3362 10.1683C15.7772 10.855 16.0125 11.6623 16.0125 12.4883C16.0125 13.5957 15.5898 14.658 14.8373 15.441C14.0849 16.2241 13.0641 16.6641 12 16.6641ZM19.8597 5.81014C19.8597 6.11948 19.7717 6.42185 19.6065 6.67903C19.4414 6.93623 19.2066 7.13669 18.932 7.25506C18.6575 7.37343 18.3553 7.4044 18.0637 7.34406C17.7722 7.28371 17.5045 7.13476 17.2943 6.91604C17.0842 6.69731 16.941 6.41865 16.883 6.11527C16.8249 5.81187 16.8547 5.49742 16.9685 5.21164C17.0822 4.92587 17.2749 4.68161 17.5219 4.50976C17.7692 4.3379 18.0597 4.24617 18.3569 4.24617C18.7555 4.24617 19.1378 4.41095 19.4196 4.70426C19.7015 4.99755 19.8597 5.39536 19.8597 5.81014ZM23.9324 7.37411C23.9761 5.42983 23.2792 3.54645 21.9937 2.13482C20.6445 0.779935 18.8339 0.0374726 16.9593 0.0703785C15.0056 -0.0234595 8.99436 -0.0234595 7.04071 0.0703785C5.17302 0.0282922 3.36448 0.753066 2.00626 2.0879C0.720812 3.49953 0.0239249 5.38291 0.0676268 7.32719C-0.0225423 9.36033 -0.0225423 15.6162 0.0676268 17.6494C0.0239249 19.5937 0.720812 21.477 2.00626 22.8886C3.36448 24.2235 5.17302 24.9482 7.04071 24.9062C9.02441 25.0313 14.9756 25.0313 16.9593 24.9062C18.8276 24.9517 20.6373 24.2265 21.9937 22.8886C23.2792 21.477 23.9761 19.5937 23.9324 17.6494C24.0225 15.6162 24.0225 9.36033 23.9324 7.32719V7.37411ZM21.3776 19.8858C21.1735 20.4238 20.8656 20.9123 20.4726 21.3212C20.0796 21.7302 19.6103 22.0507 19.0933 22.2631C16.7603 22.754 14.3753 22.9223 12 22.7635C9.62975 22.9224 7.24961 22.7541 4.92173 22.2631C4.40487 22.0507 3.9354 21.7302 3.54247 21.3212C3.14953 20.9123 2.8415 20.4238 2.63745 19.8858C2.00626 18.228 2.14152 14.3181 2.14152 12.5039C2.14152 10.6897 2.00626 6.76416 2.63745 5.12199C2.83574 4.57878 3.14158 4.08504 3.53511 3.67279C3.92864 3.26056 4.40106 2.93904 4.92173 2.72912C7.24961 2.23801 9.62975 2.06972 12 2.22865C14.3753 2.06999 16.7603 2.23827 19.0933 2.72912C19.6103 2.94148 20.0796 3.26204 20.4726 3.67097C20.8656 4.07989 21.1735 4.56846 21.3776 5.10635C22.0088 6.76416 21.8585 10.6741 21.8585 12.4883C21.8585 14.3025 22.0088 18.228 21.3776 19.8702V19.8858Z" fill="#7EF572"/>
</svg>
