<svg width="30" height="24" viewBox="0 0 30 24" fill="none" xmlns="http://www.w3.org/2000/svg">
<path fill-rule="evenodd" clip-rule="evenodd" d="M9.435 24C20.7555 24 26.9475 14.7652 26.9475 6.75784C26.9475 6.49496 26.9475 6.23406 26.9295 5.97413C28.134 5.11756 29.1735 4.05404 30 2.83713C28.878 3.32744 27.6855 3.64899 26.466 3.79076C27.75 3.03314 28.7115 1.84289 29.172 0.438419C27.963 1.14434 26.6415 1.64255 25.263 1.90987C22.932 -0.529863 19.0335 -0.648069 16.554 1.64693C14.9565 3.12671 14.277 5.33305 14.7735 7.43753C9.825 7.19238 5.214 4.89151 2.088 1.1064C0.4545 3.87545 1.29 7.41653 3.9945 9.19463C3.015 9.16657 2.0565 8.90693 1.2 8.4373V8.51421C1.2015 11.3985 3.267 13.882 6.138 14.4535C5.232 14.6972 4.281 14.7325 3.36 14.5568C4.1655 17.026 6.477 18.7173 9.1095 18.766C6.93 20.4526 4.2375 21.3684 1.4655 21.3654C0.9765 21.364 0.4875 21.3359 0 21.2783C2.8155 23.0564 6.09 24 9.435 23.9956" fill="#7EF572"/>
</svg>
