<svg width="1440" height="390" viewBox="0 0 1440 390" fill="none" xmlns="http://www.w3.org/2000/svg">
<path d="M-219.05 -75.0622C-155.219 -62.1835 -89.5897 -48.8353 -32.6253 -15.7694C26.1125 18.3227 65.0562 74.1073 110.035 123.274C188.498 209.048 298.075 273.299 416.073 279.171C446.776 280.701 477.202 277.713 507.269 271.47C543.933 263.858 579.915 252.721 617.175 248.138C690.506 239.121 762.811 260.782 833.809 275.978C971.093 305.352 1116.53 325.35 1255.01 291.822C1364.61 265.285 1470.79 204.234 1533.01 107.972C1540.35 96.6224 1546.97 84.8401 1552.97 72.7304C1553.63 71.3841 1551.49 70.4817 1550.83 71.8194C1498.42 177.751 1394.67 248.221 1283.63 281.674C1148.18 322.49 1003.01 307.55 866.475 280.374C797.149 266.575 727.519 244.417 656.339 243.684C585.956 242.969 520.483 273.196 450.636 276.835C329.265 283.166 212.03 223.155 127.979 138.773C83.4118 94.0297 48.0716 39.9393 -2.6254 1.42786C-52.3072 -36.3215 -113.092 -54.4618 -173.18 -67.8391C-188.314 -71.2046 -203.516 -74.2965 -218.721 -77.3568C-220.185 -77.6573 -220.514 -75.3551 -219.05 -75.0622Z" fill="url(#paint0_linear_0_214)"/>
<path d="M-228.541 -37.2994C-164.846 -27.9514 -99.4579 -18.5265 -40.7107 9.27191C18.451 37.2681 60.3599 86.9513 108.981 129.005C197.534 205.604 307.334 269.577 425.713 281.624C455.393 284.647 485.3 284.054 514.823 279.704C550.71 274.42 585.733 264.595 621.576 259.09C693.032 248.108 762.535 264.442 832.213 278.867C968.758 307.133 1111.53 323.136 1249.39 294.037C1357.13 271.295 1464.85 216.126 1530.2 125.079C1537.89 114.365 1544.87 103.192 1551.23 91.6458C1551.95 90.3387 1549.81 89.4373 1549.09 90.7348C1492.78 192.965 1384.52 257.153 1274.1 285.852C1140.23 320.643 998.013 308.564 863.732 282.822C798.033 270.223 732.098 251.237 664.648 252.775C594.796 254.372 528.644 282.166 458.418 281.212C336.737 279.558 222.096 218.155 129.55 143.177C82.0449 104.688 42.1369 56.1661 -9.91489 23.4769C-61.5953 -8.98573 -122.394 -22.6798 -181.882 -32.4985C-197.296 -35.0415 -212.747 -37.3302 -228.204 -39.5949C-229.689 -39.8149 -230.018 -37.5126 -228.541 -37.2994Z" fill="url(#paint1_linear_0_214)"/>
<path d="M-238.024 0.462425C-174.208 6.28641 -108.885 11.8831 -48.3067 34.2365C11.8049 56.4141 58.3305 100.047 110.659 135.329C206.556 199.986 310.721 262.362 426.41 282.021C454.866 286.857 483.836 288.876 512.673 287.334C547.885 285.455 582.35 277.657 616.984 271.578C652.472 265.353 687.678 262.43 723.67 265.358C756.952 268.063 789.814 274.338 822.531 280.825C957.031 307.506 1094.18 322.644 1230.39 298.787C1340.49 279.502 1452.92 231.916 1525.57 143.904C1534.22 133.411 1542.14 122.371 1549.36 110.842C1550.15 109.59 1548.32 108.149 1547.53 109.418C1486.67 206.595 1375.31 264.431 1266.21 289.246C1131.6 319.857 991.305 311.047 856.709 285.212C792.231 272.835 727.135 257.011 660.997 263.064C626.097 266.26 591.938 274.448 557.384 279.972C525.383 285.091 493.275 286.91 460.951 284.132C341.434 273.841 232.047 212.608 133.738 147.925C108.608 131.39 84.3087 113.949 60.2859 95.8495C36.4271 77.8775 12.2296 60.1272 -14.4271 46.4735C-68.9018 18.547 -130.955 9.10326 -191.152 2.66357C-206.65 1.00441 -222.173 -0.417714 -237.696 -1.83983C-239.177 -1.96668 -239.515 0.328858 -238.024 0.462425Z" fill="url(#paint2_linear_0_214)"/>
<path d="M-247.515 38.2252C-183.778 40.4801 -118.934 42.3627 -56.9005 58.5771C4.64071 74.658 57.3466 110.774 112.94 140.23C213.398 193.463 312.793 253.916 424.594 280.282C452.657 286.899 481.317 291.179 510.154 292.202C541.451 293.307 572.377 289.765 603.243 284.928C637.429 279.574 671.621 273.277 706.337 272.918C740.26 272.573 774.018 277.035 807.382 282.771C874.061 294.226 939.848 307.469 1007.53 311.883C1074.46 316.249 1141.92 314.273 1208.29 304.3C1322.37 287.16 1440.6 245.666 1521.99 160.39C1531.2 150.74 1539.75 140.519 1547.64 129.763C1548.52 128.561 1546.69 127.129 1545.81 128.339C1475.19 224.629 1354.77 274.538 1240.94 296.371C1174.74 309.067 1107.09 313.492 1039.77 311.178C972.436 308.857 906.344 298.795 840.239 286.38C808.388 280.4 776.416 274.631 744.075 272.026C711.442 269.403 679.226 271.111 646.846 275.747C613.08 280.588 579.532 287.429 545.417 289.482C515.854 291.264 486.148 289.282 456.957 284.436C343.287 265.578 241.153 206.792 141.169 152.736C115.514 138.863 89.6971 125.378 64.3917 110.869C37.5749 95.4967 10.6881 80.0003 -18.1513 68.6621C-75.3377 46.1815 -137.946 40.8461 -198.78 37.8622C-214.91 37.0696 -231.045 36.4881 -247.186 35.9229C-248.659 35.8728 -249.003 38.1693 -247.515 38.2252Z" fill="url(#paint3_linear_0_214)"/>
<path d="M-256.686 75.987C-190.503 74.6069 -123.444 72.7432 -57.9409 84.0251C3.60289 94.6319 61.9462 121.319 119.215 145.333C222.134 188.489 318.709 247.088 426.589 277.959C480.565 293.402 536.066 300.576 592.115 295.471C626.608 292.326 660.738 286.028 695.261 283.191C729.16 280.407 762.953 282.339 796.615 286.837C862.393 295.637 926.903 310.762 993.235 315.82C1058.06 320.761 1123.43 319.217 1187.88 310.521C1305.86 294.603 1428.31 255.958 1518.86 175.596C1528.38 167.139 1537.41 158.167 1545.92 148.683C1546.92 147.568 1545.08 146.153 1544.09 147.259C1504.95 190.885 1454.2 223.391 1401.46 248.183C1344.21 275.107 1282.89 292.27 1220.67 303.112C1155.23 314.514 1088.52 318.369 1022.17 315.285C955.965 312.209 891.659 299.717 826.444 288.992C794.878 283.795 763.038 279.709 731.006 279.459C697.547 279.201 664.43 284.125 631.352 288.544C599.002 292.865 566.639 296.205 533.966 294.499C506.291 293.051 478.82 288.669 451.879 282.232C342.364 256.064 244.425 198.157 142.364 152.813C116.211 141.194 89.4921 130.916 63.0202 120.054C35.7106 108.852 8.26664 97.8234 -20.243 89.9997C-81.1546 73.2787 -145.459 72.2253 -208.211 72.8573C-224.463 73.0233 -240.711 73.3526 -256.958 73.6895C-258.467 73.7143 -258.172 76.0166 -256.686 75.987Z" fill="url(#paint4_linear_0_214)"/>
<path d="M-266.177 113.75C-199.678 108.595 -132.715 103.032 -65.9935 107.331C-3.05356 111.385 59.8207 127.401 119.716 146.658C222.927 179.852 316.976 235.959 419.386 271.358C470.065 288.873 522.9 301.355 576.716 302.408C644.086 303.726 710.185 286.933 777.721 291.7C843.172 296.322 907.085 312.722 972.274 319.615C1036.61 326.411 1101.72 325.96 1165.96 318.32C1288.44 303.749 1410.91 264.275 1512.15 192.504C1523.12 184.733 1533.75 176.52 1544 167.824C1545.14 166.864 1543.73 165.011 1542.59 165.981C1448.2 246.012 1325.04 290.656 1204.24 310.553C1138.45 321.388 1071.44 324.627 1004.92 320.122C939.77 315.705 876.306 300.839 811.646 292.75C779.834 288.769 747.956 287.183 715.948 289.309C682.061 291.56 648.45 296.771 614.56 299.062C556.624 302.984 499.719 294.121 444.384 277.101C340.663 245.188 246.518 189.561 144.712 152.761C119.185 143.536 93.1382 136.262 66.9366 129.249C36.2735 121.04 5.36076 113.516 -26.106 109.048C-89.0003 100.115 -153.238 103.341 -216.374 107.702C-233.08 108.86 -249.769 110.149 -266.465 111.446C-267.955 111.562 -267.66 113.865 -266.177 113.75Z" fill="url(#paint5_linear_0_214)"/>
<path d="M-275.66 151.511C-209.06 142.547 -142.305 133.376 -75.1054 130.458C-11.9776 127.712 52.3682 132.285 114.144 145.998C219.557 169.411 314.473 224.537 414.283 263.652C463.401 282.898 514.286 298.813 566.837 305.03C629.922 312.497 692.165 300.482 755.187 299.317C822.259 298.068 887.908 313.636 953.934 323.043C1017.77 332.132 1082.45 333.568 1146.61 327.122C1211.07 320.655 1274.73 306.443 1335.97 285.33C1395.07 264.95 1451.04 237.033 1505.78 207.046C1517.89 200.41 1529.96 193.664 1542 186.897C1543.28 186.175 1542.41 184.023 1541.11 184.755C1488.75 214.186 1435.86 243.084 1380.3 266.093C1319.43 291.309 1255.29 309.082 1190.2 319.199C1124 329.493 1056.54 331.68 989.862 325.083C924.965 318.661 861.33 302.67 796.215 298.123C729.702 293.486 663.953 308.091 597.525 305.197C543.507 302.844 490.752 289.19 440.093 270.9C340.09 234.796 247.054 180.371 144.452 151.304C23.4036 117.009 -102.207 126.606 -225.263 142.481C-242.168 144.662 -259.062 146.936 -275.948 149.208C-277.428 149.409 -277.148 151.713 -275.66 151.511Z" fill="url(#paint6_linear_0_214)"/>
<path d="M-285.151 189.274C-217.312 176.241 -149.441 163.149 -81.0696 153.129C-16.5034 143.67 49.6094 137.293 114.587 146.675C220.476 161.974 316.048 214.983 413.276 256.276C461.405 276.715 510.799 295.053 562.226 305.2C622.192 317.033 681.417 312.07 741.948 308.947C776.293 307.177 810.345 307.992 844.512 311.983C877.295 315.811 909.786 321.679 942.369 326.842C1006.28 336.974 1070.26 341.561 1134.87 336.276C1198.77 331.049 1261.93 317.539 1322.54 296.722C1382.82 276.024 1437.92 244.597 1496.72 220.544C1510.83 214.774 1525.2 209.65 1539.98 205.894C1541.41 205.528 1541.14 203.223 1539.69 203.59C1480.65 218.613 1427.82 251.901 1372.02 275.361C1311.05 300.996 1246.89 319.129 1181.41 328.655C1116.28 338.13 1050.24 338.752 984.932 330.627C919.549 322.495 854.915 306.871 788.793 305.623C724.016 304.403 659.561 316.062 594.86 308.088C541.809 301.551 490.599 285.03 441.135 265.257C343.421 226.193 250.111 172.628 146.477 150.1C87.4481 137.277 26.8417 137.984 -32.968 144.51C-100.47 151.879 -167.451 164.54 -234.126 177.155C-251.235 180.391 -268.337 183.681 -285.432 186.962C-286.894 187.246 -286.621 189.551 -285.151 189.274Z" fill="url(#paint7_linear_0_214)"/>
<path d="M-294.634 227.036C-225.91 209.853 -157.184 192.678 -88.46 175.494C-23.5917 159.276 42.1271 142.375 109.574 146.49C216.087 152.994 313.188 203.254 408.664 246.38C456.262 267.875 504.543 288.419 555.001 302.289C580.057 309.18 605.616 314.355 631.474 317.059C663.329 320.387 695.397 319.556 727.347 318.279C762.262 316.89 797.173 315.22 832.086 317.691C865.686 320.068 898.978 325.353 932.201 330.709C995.743 340.957 1058.82 349.017 1123.33 345.78C1186.26 342.615 1248.75 330.834 1308.53 310.932C1339.42 300.65 1369.57 288.182 1398.67 273.6C1427.43 259.194 1455.08 241.847 1485.79 231.757C1502.73 226.187 1520.11 223.439 1537.95 224.822C1539.43 224.942 1539.77 222.637 1538.29 222.527C1507.48 220.137 1478.52 230.349 1451.19 243.665C1422.21 257.795 1394.41 273.992 1364.81 286.882C1304.69 313.049 1240.84 330.528 1175.8 338.799C1109.89 347.185 1043.9 345.174 978.267 335.576C912.791 326.006 848.126 313.138 781.643 314.119C717.503 315.064 654.081 321.199 590.62 308.414C537.509 297.714 486.686 278.111 437.173 256.505C342.071 215.008 248.309 163.255 144.367 147.814C82.636 138.642 21.8588 146.785 -38.5054 160.858C-107.165 176.871 -175.409 194.844 -243.808 211.948C-260.844 216.204 -277.879 220.468 -294.915 224.724C-296.351 225.091 -296.079 227.396 -294.634 227.036Z" fill="url(#paint8_linear_0_214)"/>
<defs>
<linearGradient id="paint0_linear_0_214" x1="158.36" y1="-105.148" x2="1099.77" y2="328.526" gradientUnits="userSpaceOnUse">
<stop stop-color="#1D3B2F" stop-opacity="0"/>
<stop offset="0.638542" stop-color="#74F0C3" stop-opacity="0.38"/>
<stop offset="1" stop-color="#1D3B2F" stop-opacity="0"/>
</linearGradient>
<linearGradient id="paint1_linear_0_214" x1="150.874" y1="-68.8854" x2="1062.71" y2="388.752" gradientUnits="userSpaceOnUse">
<stop stop-color="#1D3B2F" stop-opacity="0"/>
<stop offset="0.638542" stop-color="#74F0C3" stop-opacity="0.38"/>
<stop offset="1" stop-color="#1D3B2F" stop-opacity="0"/>
</linearGradient>
<linearGradient id="paint2_linear_0_214" x1="143.371" y1="-32.6005" x2="1021.07" y2="448.116" gradientUnits="userSpaceOnUse">
<stop stop-color="#1D3B2F" stop-opacity="0"/>
<stop offset="0.638542" stop-color="#74F0C3" stop-opacity="0.38"/>
<stop offset="1" stop-color="#1D3B2F" stop-opacity="0"/>
</linearGradient>
<linearGradient id="paint3_linear_0_214" x1="135.911" y1="3.72203" x2="975.125" y2="505.912" gradientUnits="userSpaceOnUse">
<stop stop-color="#1D3B2F" stop-opacity="0"/>
<stop offset="0.638542" stop-color="#74F0C3" stop-opacity="0.38"/>
<stop offset="1" stop-color="#1D3B2F" stop-opacity="0"/>
</linearGradient>
<linearGradient id="paint4_linear_0_214" x1="128.495" y1="40.0525" x2="925.048" y2="561.229" gradientUnits="userSpaceOnUse">
<stop stop-color="#1D3B2F" stop-opacity="0"/>
<stop offset="0.638542" stop-color="#74F0C3" stop-opacity="0.38"/>
<stop offset="1" stop-color="#1D3B2F" stop-opacity="0"/>
</linearGradient>
<linearGradient id="paint5_linear_0_214" x1="121.018" y1="76.466" x2="871.193" y2="613.329" gradientUnits="userSpaceOnUse">
<stop stop-color="#1D3B2F" stop-opacity="0"/>
<stop offset="0.638542" stop-color="#74F0C3" stop-opacity="0.38"/>
<stop offset="1" stop-color="#1D3B2F" stop-opacity="0"/>
</linearGradient>
<linearGradient id="paint6_linear_0_214" x1="113.507" y1="112.531" x2="814.837" y2="661.034" gradientUnits="userSpaceOnUse">
<stop stop-color="#1D3B2F" stop-opacity="0"/>
<stop offset="0.638542" stop-color="#74F0C3" stop-opacity="0.38"/>
<stop offset="1" stop-color="#1D3B2F" stop-opacity="0"/>
</linearGradient>
<linearGradient id="paint7_linear_0_214" x1="104.812" y1="138.906" x2="774.209" y2="693.737" gradientUnits="userSpaceOnUse">
<stop stop-color="#1D3B2F" stop-opacity="0"/>
<stop offset="0.638542" stop-color="#74F0C3" stop-opacity="0.38"/>
<stop offset="1" stop-color="#1D3B2F" stop-opacity="0"/>
</linearGradient>
<linearGradient id="paint8_linear_0_214" x1="94.4306" y1="151.705" x2="759.705" y2="710.061" gradientUnits="userSpaceOnUse">
<stop stop-color="#1D3B2F" stop-opacity="0"/>
<stop offset="0.638542" stop-color="#74F0C3" stop-opacity="0.38"/>
<stop offset="1" stop-color="#1D3B2F" stop-opacity="0"/>
</linearGradient>
</defs>
</svg>
