<svg width="45" height="48" viewBox="0 0 45 48" fill="none" xmlns="http://www.w3.org/2000/svg">
<path d="M40.8621 9.62067L25.7586 0.931036C23.5862 -0.310345 20.8965 -0.310345 18.6207 0.931036L3.51722 9.62067C1.34482 10.8621 0 13.2414 0 15.8276V33.2069C0 35.7931 1.34482 38.069 3.51722 39.4138L18.7241 48V26.6896L14.3793 35.5862C14.2759 35.7931 14.1724 35.8965 14.069 36C13.9655 36.1035 13.7586 36.2069 13.4483 36.2069H6.51722C6.31036 36.2069 6.20691 36.1035 6.20691 35.8965C6.20691 35.7931 6.20691 35.6896 6.31036 35.6896L12.1035 25.3448L6.31036 15.1035C6.31036 15 6.20691 15 6.20691 14.8965C6.20691 14.6896 6.31036 14.5862 6.51722 14.5862H13.2414C13.4483 14.5862 13.5517 14.6896 13.6552 14.7931C13.7586 14.8965 13.8621 15 13.8621 15.2069L18.6207 24.3104V16.1379C18.6207 15.7241 18.6207 15.3104 18.7241 15C18.8276 14.6896 18.931 14.4828 19.0345 14.2759C19.2414 14.069 19.4483 13.9655 19.6552 13.8621C19.9655 13.7586 20.2759 13.6552 20.6896 13.6552C21 13.6552 21.3104 13.5517 21.8276 13.5517C22.3448 13.5517 22.9655 13.4483 23.5862 13.4483C24.2069 13.4483 24.8276 13.3448 25.4483 13.3448C26.069 13.3448 26.6896 13.3448 27.2069 13.3448C28.6552 13.3448 30 13.4483 31.2414 13.7586C32.4828 13.9655 33.5172 14.3793 34.3448 15C35.1724 15.6207 35.7931 16.3448 36.3104 17.2759C36.7241 18.2069 37.0345 19.4483 37.0345 20.7931V21.4138C37.0345 22.2414 36.931 22.9655 36.7241 23.5862C36.6207 23.8965 36.3104 24.5172 36 24.931C35.6896 25.4483 35.2759 25.8621 34.8621 26.1724C34.4483 26.4828 34.0345 26.7931 33.6207 26.8965L37.7586 34.6552C37.8621 34.7586 37.8621 34.8621 37.8621 34.9655C37.8621 35.1724 37.7586 35.2759 37.6552 35.3793C37.5517 35.4827 37.4482 35.4828 37.2414 35.4828H31.1379C30.8276 35.4828 30.7241 35.3793 30.6207 35.2759C30.5172 35.1724 30.4138 35.069 30.4138 34.8621L26.8965 27.8276H25.9655V47.8964L41.069 39.2069C43.2414 37.9655 44.5862 35.5862 44.5862 33V15.8276C44.4828 13.2414 43.1379 10.8621 40.8621 9.62067Z" fill="white"/>
<path d="M29.5854 22.241C29.8957 21.9307 29.9992 21.5169 29.9992 21.1031V20.4824C29.9992 19.9651 29.8957 19.5513 29.5854 19.3445C29.2751 19.0341 28.7578 18.9307 28.0337 18.9307H25.7578V22.6548H28.0337C28.7578 22.7582 29.2751 22.5513 29.5854 22.241Z" fill="white"/>
</svg>
