<svg width="1440" height="1283" viewBox="0 0 1440 1283" fill="none" xmlns="http://www.w3.org/2000/svg">
<g clip-path="url(#clip0_2037_300)">
<g opacity="0.5">
<line x1="42.5" y1="325" x2="42.5" y2="1405" stroke="#D0D6F8"/>
<line x1="802.5" y1="325" x2="802.5" y2="1405" stroke="#D0D6F8"/>
<line x1="1537" y1="363.5" x2="-76" y2="363.5" stroke="#D0D6F8"/>
<line x1="1537" y1="883.5" x2="-76" y2="883.5" stroke="#D0D6F8"/>
<line x1="482.5" y1="325" x2="482.5" y2="1405" stroke="#D0D6F8"/>
<line x1="1242.5" y1="325" x2="1242.5" y2="1405" stroke="#D0D6F8"/>
<line x1="1537" y1="803.501" x2="-76" y2="803.501" stroke="#D0D6F8"/>
<line x1="122.5" y1="325" x2="122.5" y2="1405" stroke="#D0D6F8"/>
<line x1="882.5" y1="325" x2="882.5" y2="1405" stroke="#D0D6F8"/>
<line x1="1537" y1="443.5" x2="-76" y2="443.5" stroke="#D0D6F8"/>
<line x1="1537" y1="963.5" x2="-76" y2="963.5" stroke="#D0D6F8"/>
<line x1="562.5" y1="325" x2="562.5" y2="1405" stroke="#D0D6F8"/>
<line x1="1322.5" y1="325" x2="1322.5" y2="1405" stroke="#D0D6F8"/>
<line x1="162.5" y1="325" x2="162.5" y2="1405" stroke="#D0D6F8"/>
<line x1="922.5" y1="325" x2="922.5" y2="1405" stroke="#D0D6F8"/>
<line x1="1537" y1="483.5" x2="-76" y2="483.5" stroke="#D0D6F8"/>
<line x1="1537" y1="1003.5" x2="-76" y2="1003.5" stroke="#D0D6F8"/>
<line x1="602.5" y1="325" x2="602.5" y2="1405" stroke="#D0D6F8"/>
<line x1="1362.5" y1="325" x2="1362.5" y2="1405" stroke="#D0D6F8"/>
<line x1="82.5" y1="325" x2="82.5" y2="1405" stroke="#D0D6F8"/>
<line x1="842.5" y1="325" x2="842.5" y2="1405" stroke="#D0D6F8"/>
<line x1="1537" y1="403.5" x2="-76" y2="403.5" stroke="#D0D6F8"/>
<line x1="1537" y1="923.5" x2="-76" y2="923.5" stroke="#D0D6F8"/>
<line x1="522.5" y1="325" x2="522.5" y2="1405" stroke="#D0D6F8"/>
<line x1="1282.5" y1="325" x2="1282.5" y2="1405" stroke="#D0D6F8"/>
<line x1="1537" y1="843.502" x2="-76" y2="843.502" stroke="#D0D6F8"/>
<line x1="202.5" y1="325" x2="202.5" y2="1405" stroke="#D0D6F8"/>
<line x1="962.5" y1="325" x2="962.5" y2="1405" stroke="#D0D6F8"/>
<line x1="1537" y1="523.5" x2="-76" y2="523.5" stroke="#D0D6F8"/>
<line x1="1537" y1="1043.5" x2="-76" y2="1043.5" stroke="#D0D6F8"/>
<line x1="642.5" y1="325" x2="642.5" y2="1405" stroke="#D0D6F8"/>
<line x1="1402.5" y1="325" x2="1402.5" y2="1405" stroke="#D0D6F8"/>
<line x1="242.5" y1="325" x2="242.5" y2="1405" stroke="#D0D6F8"/>
<line x1="1002.5" y1="325" x2="1002.5" y2="1405" stroke="#D0D6F8"/>
<line x1="1537" y1="563.501" x2="-76" y2="563.501" stroke="#D0D6F8"/>
<line x1="1537" y1="1083.5" x2="-76" y2="1083.5" stroke="#D0D6F8"/>
<line x1="682.5" y1="325" x2="682.5" y2="1405" stroke="#D0D6F8"/>
<line x1="282.5" y1="325" x2="282.5" y2="1405" stroke="#D0D6F8"/>
<line x1="1042.5" y1="325" x2="1042.5" y2="1405" stroke="#D0D6F8"/>
<line x1="1537" y1="603.501" x2="-76" y2="603.501" stroke="#D0D6F8"/>
<line x1="1537" y1="1123.5" x2="-76" y2="1123.5" stroke="#D0D6F8"/>
<line x1="722.5" y1="325" x2="722.5" y2="1405" stroke="#D0D6F8"/>
<line x1="322.5" y1="325" x2="322.5" y2="1405" stroke="#D0D6F8"/>
<line x1="1082.5" y1="325" x2="1082.5" y2="1405" stroke="#D0D6F8"/>
<line x1="1537" y1="643.501" x2="-76" y2="643.501" stroke="#D0D6F8"/>
<line x1="1537" y1="1163.5" x2="-76" y2="1163.5" stroke="#D0D6F8"/>
<line x1="762.5" y1="325" x2="762.5" y2="1405" stroke="#D0D6F8"/>
<line x1="362.5" y1="325" x2="362.5" y2="1405" stroke="#D0D6F8"/>
<line x1="1122.5" y1="325" x2="1122.5" y2="1405" stroke="#D0D6F8"/>
<line x1="1537" y1="683.501" x2="-76" y2="683.501" stroke="#D0D6F8"/>
<line x1="1537" y1="1203.5" x2="-76" y2="1203.5" stroke="#D0D6F8"/>
<line x1="402.5" y1="325" x2="402.5" y2="1405" stroke="#D0D6F8"/>
<line x1="1162.5" y1="325" x2="1162.5" y2="1405" stroke="#D0D6F8"/>
<line x1="1537" y1="723.501" x2="-76" y2="723.501" stroke="#D0D6F8"/>
<line x1="1537" y1="1243.5" x2="-76" y2="1243.5" stroke="#D0D6F8"/>
<line x1="442.5" y1="325" x2="442.5" y2="1405" stroke="#D0D6F8"/>
<line x1="1202.5" y1="325" x2="1202.5" y2="1405" stroke="#D0D6F8"/>
<line x1="1537" y1="763.501" x2="-76" y2="763.501" stroke="#D0D6F8"/>
</g>
<g opacity="0.95" filter="url(#filter0_f_2037_300)">
<rect x="41" y="139" width="1314" height="969" fill="#FCFCFC"/>
</g>
<g filter="url(#filter1_f_2037_300)">
<rect x="400" y="915" width="660" height="196" fill="#FCFCFC"/>
</g>
</g>
<defs>
<filter id="filter0_f_2037_300" x="-97.4" y="0.600006" width="1590.8" height="1245.8" filterUnits="userSpaceOnUse" color-interpolation-filters="sRGB">
<feFlood flood-opacity="0" result="BackgroundImageFix"/>
<feBlend mode="normal" in="SourceGraphic" in2="BackgroundImageFix" result="shape"/>
<feGaussianBlur stdDeviation="69.2" result="effect1_foregroundBlur_2037_300"/>
</filter>
<filter id="filter1_f_2037_300" x="267" y="782" width="926" height="462" filterUnits="userSpaceOnUse" color-interpolation-filters="sRGB">
<feFlood flood-opacity="0" result="BackgroundImageFix"/>
<feBlend mode="normal" in="SourceGraphic" in2="BackgroundImageFix" result="shape"/>
<feGaussianBlur stdDeviation="66.5" result="effect1_foregroundBlur_2037_300"/>
</filter>
<clipPath id="clip0_2037_300">
<rect width="1440" height="1283" fill="white"/>
</clipPath>
</defs>
</svg>
