<svg width="77" height="30" viewBox="0 0 77 30" fill="none" xmlns="http://www.w3.org/2000/svg">
<path d="M54.8809 22.3739V2.64697H58.8582V22.3739H54.8809Z" fill="#F7A600"/>
<path d="M8.52671 28.2338H0V8.50684H8.18383C12.1612 8.50684 14.4787 10.6679 14.4787 14.0483C14.4787 16.2364 12.9903 17.6505 11.9601 18.1213C13.1898 18.6752 14.7639 19.9217 14.7639 22.555C14.7639 26.2388 12.1612 28.2338 8.52671 28.2338ZM7.86901 11.9431H3.97736V16.4869H7.86901C9.55694 16.4869 10.5014 15.5724 10.5014 14.2142C10.5014 12.8575 9.55694 11.9431 7.86901 11.9431ZM8.12616 19.9503H3.97736V24.799H8.12616C9.92937 24.799 10.7865 23.6914 10.7865 22.3604C10.7865 21.0309 9.92778 19.9503 8.12616 19.9503Z" fill="white"/>
<path d="M26.8953 20.1435V28.2338H22.946V20.1435L16.8225 8.50684H21.1427L24.9487 16.4582L28.697 8.50684H33.0172L26.8953 20.1435Z" fill="white"/>
<path d="M44.2933 28.2338H35.7666V8.50684H43.9505C47.9278 8.50684 50.2453 10.6679 50.2453 14.0483C50.2453 16.2364 48.7569 17.6505 47.7267 18.1213C48.9564 18.6752 50.5306 19.9217 50.5306 22.555C50.5306 26.2388 47.9278 28.2338 44.2933 28.2338ZM43.6356 11.9431H39.744V16.4869H43.6356C45.3235 16.4869 46.268 15.5724 46.268 14.2142C46.268 12.8575 45.3235 11.9431 43.6356 11.9431ZM43.8928 19.9503H39.744V24.799H43.8928C45.696 24.799 46.5532 23.6914 46.5532 22.3604C46.5532 21.0309 45.696 19.9503 43.8928 19.9503Z" fill="white"/>
<path d="M71.6773 11.9431V28.2353H67.6999V11.9431H62.3776V8.50684H76.9997V11.9431H71.6773Z" fill="white"/>
</svg>
