<svg width="103" height="19" viewBox="0 0 103 19" fill="none" xmlns="http://www.w3.org/2000/svg">
<path d="M34.8865 10.4085H38.7684C39.3142 10.4085 39.7565 10.8499 39.7565 11.3889C39.7565 11.9279 39.3142 12.3694 38.7684 12.3694H34.0866C34.0113 12.3694 33.9408 12.3973 33.889 12.4437L32.4774 13.6472C32.261 13.8331 32.3927 14.1816 32.6751 14.1816H38.5331C38.5331 14.1816 38.5378 14.1816 38.5378 14.1769C38.5378 14.1723 38.5425 14.1723 38.5425 14.1723C38.6178 14.1769 38.6884 14.1816 38.7684 14.1816C40.3211 14.1816 41.5821 12.9316 41.5821 11.3889C41.5821 9.92524 40.4482 8.72177 38.9989 8.6056C38.9989 8.6056 38.9942 8.6056 38.9942 8.60095C38.9942 8.59631 38.9942 8.59631 38.9895 8.59631H34.8112C34.2654 8.59631 33.8231 8.15488 33.8231 7.61587C33.8231 7.07221 34.2654 6.63543 34.8112 6.63543H39.4836C39.5589 6.63543 39.6341 6.60755 39.6906 6.55644L41.0034 5.35296C41.2104 5.16709 41.074 4.82324 40.7963 4.82324H34.8912C34.8677 4.82324 34.8395 4.82324 34.816 4.82324C33.2632 4.82324 32.0022 6.07319 32.0022 7.61587C32.0022 9.15855 33.2632 10.4085 34.816 10.4085C34.8395 10.4085 34.863 10.4085 34.8865 10.4085Z" fill="white"/>
<path d="M57.4859 4.8186C57.3165 4.8186 57.1801 4.95335 57.1801 5.12528V13.8795C57.1801 14.0468 57.3165 14.1862 57.4859 14.1862H64.5909C64.6755 14.1862 64.7555 14.149 64.8167 14.0886L65.706 13.1454C65.8895 12.9502 65.7531 12.6342 65.4802 12.6342H59.2786C59.1092 12.6342 58.9728 12.4995 58.9728 12.3276V5.12528C58.9728 4.958 58.8363 4.8186 58.6669 4.8186H57.4859Z" fill="white"/>
<path fill-rule="evenodd" clip-rule="evenodd" d="M46.1086 4.8186C46.1039 4.82325 46.1086 4.82325 46.1086 4.8186C45.2005 4.86042 44.4712 5.58065 44.4288 6.47745V12.3647C44.4288 12.388 44.4288 12.4158 44.4288 12.4391C44.4288 13.3731 45.1723 14.1351 46.1086 14.1723H52.5548C53.4865 14.1305 54.2346 13.3684 54.2346 12.4391C54.2346 12.4158 54.2346 12.388 54.2346 12.3647V6.4821C54.197 5.5853 53.4677 4.86042 52.5595 4.82325H46.1086V4.8186ZM47.3085 6.4821C46.7391 6.50533 46.2827 6.9607 46.2592 7.52759V11.231C46.2592 11.2449 46.2592 11.2635 46.2592 11.2774C46.2592 11.8629 46.725 12.3461 47.3085 12.3694H51.3503C51.9337 12.3461 52.3996 11.8629 52.3996 11.2774C52.3996 11.2635 52.3996 11.2449 52.3996 11.231V7.52759C52.376 6.9607 51.9196 6.50998 51.3503 6.4821H47.3085Z" fill="white"/>
<path fill-rule="evenodd" clip-rule="evenodd" d="M76.0341 13.8795C76.0341 14.0468 76.1706 14.1862 76.34 14.1862H77.5445C77.7139 14.1862 77.8504 14.0514 77.8504 13.8795V6.63542C77.8504 6.61219 77.8504 6.58431 77.8504 6.56107C77.8504 5.6271 77.1116 4.86505 76.1894 4.82788H70.002C69.9784 4.82788 69.9502 4.82788 69.9267 4.82788C68.9668 4.82788 68.1904 5.60387 68.1904 6.56572C68.1904 6.58895 68.1904 6.61683 68.1904 6.64007V13.8842C68.1904 14.0514 68.3269 14.1908 68.4963 14.1908H69.7008C69.8702 14.1908 70.0067 14.0561 70.0067 13.8842V10.8685C70.0067 10.7012 70.1431 10.5618 70.3125 10.5618H75.7424C75.9118 10.5618 76.0482 10.6966 76.0482 10.8685V13.8795H76.0341ZM69.9926 8.89368V7.38817C69.9926 6.8027 70.4678 6.32874 71.0512 6.32874H74.9754C75.5589 6.32874 76.0341 6.8027 76.0341 7.38817V8.89368C76.0341 9.06096 75.8977 9.20036 75.7283 9.20036H70.2984C70.129 9.20036 69.9926 9.06561 69.9926 8.89368Z" fill="white"/>
<path fill-rule="evenodd" clip-rule="evenodd" d="M101.466 14.1862C101.297 14.1862 101.16 14.0515 101.16 13.8795V10.8639C101.16 10.6966 101.024 10.5572 100.854 10.5572H95.3633C95.1939 10.5572 95.0575 10.6919 95.0575 10.8639V13.8795C95.0575 14.0468 94.921 14.1862 94.7516 14.1862H93.5377C93.3683 14.1862 93.2318 14.0515 93.2318 13.8795V6.63543C93.2318 6.6122 93.2318 6.58432 93.2318 6.56108C93.2318 5.60388 94.0176 4.82324 94.9869 4.82324C95.0104 4.82324 95.0386 4.82324 95.0622 4.82324H101.32C102.252 4.86506 103 5.62711 103 6.55644C103 6.57967 103 6.60755 103 6.63078V13.8749C103 14.0422 102.863 14.1816 102.694 14.1816H101.466V14.1862ZM95.0527 7.38818V8.89369C95.0527 9.06097 95.1892 9.20037 95.3586 9.20037H100.85C101.019 9.20037 101.155 9.06562 101.155 8.89369V7.38818C101.155 6.80271 100.676 6.32875 100.087 6.32875H96.1208C95.5327 6.32875 95.0527 6.80271 95.0527 7.38818Z" fill="white"/>
<path d="M82.3814 4.8186C82.4708 4.8186 82.5555 4.85578 82.612 4.92548L88.0137 11.2867C88.1972 11.5005 88.5501 11.3704 88.5501 11.0869V5.12528C88.5501 4.958 88.6865 4.8186 88.8559 4.8186H90.0604C90.2298 4.8186 90.3663 4.95335 90.3663 5.12528V13.8795C90.3663 14.0468 90.2298 14.1862 90.0604 14.1862H88.5642C88.5595 14.1862 88.5548 14.1816 88.5548 14.1769C88.5548 14.1723 88.5548 14.1723 88.5501 14.1676L83.0543 7.85285C82.8708 7.63911 82.5179 7.77386 82.5179 8.05266V13.8842C82.5179 14.0515 82.3815 14.1909 82.2121 14.1909H80.9981C80.8287 14.1909 80.6923 14.0561 80.6923 13.8842V5.12528C80.6923 4.958 80.8287 4.8186 80.9981 4.8186H82.3814Z" fill="white"/>
<path d="M3.98702 14.5067C4.13759 14.3581 4.33991 14.2744 4.55165 14.2744H24.1491C24.5067 14.2744 24.6855 14.7019 24.4314 14.9482L20.559 18.7677C20.4084 18.9164 20.2061 19 19.9943 19H0.401601C0.0440005 19 -0.1348 18.5725 0.119285 18.3263L3.98702 14.5067Z" fill="url(#paint0_linear_1_2539)"/>
<path d="M3.98702 0.232332C4.13759 0.0836394 4.33991 0 4.55165 0H24.1491C24.5067 0 24.6855 0.42749 24.4314 0.673762L20.559 4.49329C20.4084 4.64199 20.2061 4.72563 19.9943 4.72563H0.401601C0.0440005 4.72563 -0.1348 4.29814 0.119285 4.05186L3.98702 0.232332Z" fill="url(#paint1_linear_1_2539)"/>
<path d="M20.559 7.32315C20.4084 7.17446 20.2061 7.09082 19.9943 7.09082H0.401601C0.0440005 7.09082 -0.1348 7.51831 0.119285 7.76458L3.99172 11.5841C4.14229 11.7328 4.34462 11.8164 4.55635 11.8164H24.1538C24.5114 11.8164 24.6902 11.389 24.4361 11.1427L20.559 7.32315Z" fill="url(#paint2_linear_1_2539)"/>
<defs>
<linearGradient id="paint0_linear_1_2539" x1="22.278" y1="-2.28233" x2="8.98151" y2="23.5071" gradientUnits="userSpaceOnUse">
<stop stop-color="#00FFA3"/>
<stop offset="1" stop-color="#DC1FFF"/>
</linearGradient>
<linearGradient id="paint1_linear_1_2539" x1="16.348" y1="-5.33965" x2="3.05155" y2="20.4498" gradientUnits="userSpaceOnUse">
<stop stop-color="#00FFA3"/>
<stop offset="1" stop-color="#DC1FFF"/>
</linearGradient>
<linearGradient id="paint2_linear_1_2539" x1="19.2941" y1="-3.82064" x2="5.99767" y2="21.9688" gradientUnits="userSpaceOnUse">
<stop stop-color="#00FFA3"/>
<stop offset="1" stop-color="#DC1FFF"/>
</linearGradient>
</defs>
</svg>
