<svg width="32" height="32" viewBox="0 0 32 32" fill="none" xmlns="http://www.w3.org/2000/svg">
<circle cx="16" cy="16" r="15.5" stroke="white" stroke-opacity="0.2" stroke-miterlimit="16"/>
<g opacity="0.2">
<path d="M14.6908 12.8532C14.534 12.7967 14.3911 12.7311 14.2621 12.6564C14.1309 12.5879 14.021 12.5094 13.9324 12.4208C13.8027 12.2891 13.7031 12.1328 13.6336 11.9519C13.5641 11.771 13.5242 11.5866 13.5139 11.3986C13.5093 11.234 13.5285 11.0922 13.5714 10.973C13.6482 10.7597 13.7732 10.5992 13.9466 10.4916C14.1285 10.3799 14.3265 10.3024 14.5405 10.259C14.763 10.2115 14.9671 10.1858 15.1528 10.1818C15.2331 10.1753 15.2656 10.1834 15.2503 10.2063C15.2413 10.2313 15.2188 10.2445 15.1829 10.2458C15.0013 10.2583 14.807 10.3159 14.6 10.4186C14.393 10.5212 14.2074 10.6528 14.0434 10.8134C13.8793 10.974 13.7634 11.1483 13.6956 11.3365C13.6166 11.5561 13.6336 11.7747 13.7465 11.9925C13.8657 12.2125 14.1354 12.3982 14.5557 12.5495C14.7627 12.624 14.9912 12.6779 15.2414 12.7113C15.5001 12.7406 15.7559 12.7583 16.0088 12.7643C16.2702 12.7663 16.5086 12.7635 16.7239 12.756C16.8252 12.7499 16.9721 12.7355 17.1646 12.7127C17.3655 12.6858 17.5804 12.6498 17.8093 12.6046C18.0466 12.5554 18.2768 12.4966 18.4999 12.4281C18.7292 12.3618 18.924 12.2832 19.0843 12.1921C19.2446 12.101 19.3451 11.999 19.3858 11.8861C19.4242 11.7794 19.3876 11.6742 19.2762 11.5703C19.1734 11.4624 19.0292 11.361 18.8438 11.2659C18.6646 11.173 18.481 11.0928 18.2928 11.025C18.0168 10.9257 17.8104 10.8691 17.6737 10.8553C17.5643 10.8443 17.4342 10.8612 17.2834 10.9062C17.1349 10.9448 17.0104 10.9461 16.9101 10.9099C16.8473 10.8874 16.8019 10.8462 16.7738 10.7865C16.752 10.7291 16.7512 10.6721 16.7715 10.6156C16.7896 10.5655 16.8254 10.5252 16.8788 10.4948C16.9408 10.4604 17.0253 10.4519 17.1325 10.4692C17.1997 10.4793 17.2678 10.4967 17.3368 10.5215C17.4144 10.5423 17.4919 10.5632 17.5694 10.584C17.6469 10.6048 17.7213 10.6245 17.7926 10.6431C17.8724 10.6576 17.9482 10.6636 18.0199 10.6611C18.2962 10.6613 18.5812 10.647 18.875 10.6182C19.1711 10.583 19.4593 10.5203 19.7398 10.4299C20.0226 10.3333 20.2779 10.1949 20.5057 10.0148C20.6284 9.91014 20.7123 9.7951 20.7575 9.66965C20.8139 9.51283 20.7932 9.36367 20.6953 9.22216C20.5997 9.07439 20.4575 8.93815 20.2685 8.81346C20.0819 8.6825 19.8759 8.56584 19.6505 8.46349C19.489 8.5187 19.3803 8.56462 19.3246 8.60125C19.1154 8.71016 18.8558 8.85055 18.546 9.02244C18.2384 9.18805 17.9112 9.3785 17.5645 9.5938C17.22 9.80282 16.8878 10.0269 16.5679 10.266C16.2503 10.4989 15.9714 10.7421 15.7313 10.9958C15.4912 11.2495 15.326 11.5018 15.2357 11.7527C15.1951 11.8656 15.1755 11.979 15.177 12.0929C15.1785 12.2068 15.246 12.2949 15.3795 12.3571C15.4046 12.3661 15.4075 12.3778 15.3882 12.3921C15.3774 12.4024 15.3563 12.4019 15.3249 12.3906C15.1869 12.3409 15.0894 12.2279 15.0325 12.0515C14.9755 11.8751 14.9854 11.6803 15.0622 11.4671C15.1367 11.2601 15.2769 11.0377 15.4829 10.8001C15.6952 10.5648 15.9476 10.3261 16.2401 10.0843C16.5326 9.84237 16.844 9.60726 17.1742 9.37892C17.5129 9.14656 17.8491 8.93102 18.1828 8.73229C18.5165 8.53355 18.8221 8.36367 19.0995 8.22265C18.9387 8.15768 18.7431 8.09082 18.5128 8.02209C18.2847 7.94708 18.0524 7.87408 17.8158 7.80308C17.5854 7.73435 17.3759 7.67665 17.1873 7.63C17.0071 7.57932 16.8803 7.54784 16.8068 7.53555C16.0169 7.40713 15.3831 7.36677 14.9054 7.41447C14.4362 7.45815 14.1655 7.58036 14.0932 7.78108C14.0797 7.81872 14.0727 7.84807 14.0722 7.86915C14.0734 7.90503 14.0818 7.95057 14.0974 8.00577C14.1215 8.05695 14.1427 8.09647 14.161 8.12431C14.165 8.13285 14.1648 8.14338 14.1603 8.15593C14.1557 8.16847 14.145 8.17876 14.1279 8.18679C14.1108 8.19482 14.094 8.19231 14.0775 8.17927C13.9563 8.04353 13.8777 7.88773 13.8418 7.71185C13.8122 7.53822 13.811 7.41378 13.8381 7.3385C13.8945 7.18169 14.0687 7.08144 14.3608 7.03777C14.6528 6.99409 15.0114 6.99207 15.4364 7.03169C15.8614 7.07131 16.2994 7.14392 16.7503 7.24952C16.9937 7.3017 17.2661 7.37144 17.5677 7.45873C17.8756 7.54829 18.1895 7.65064 18.5094 7.76579C18.7791 7.86287 19.0361 7.96598 19.2802 8.07511L19.3826 8.02693C19.3544 7.96722 19.3472 7.91854 19.3607 7.88091C19.3743 7.84327 19.4024 7.81441 19.445 7.79434C19.4899 7.76799 19.5422 7.74077 19.6019 7.71266C19.6935 7.67477 19.8008 7.64252 19.9237 7.61592C20.0467 7.58932 20.1434 7.55682 20.2139 7.51843C20.2995 7.55631 20.3845 7.61527 20.4691 7.6953C20.5622 7.77132 20.5906 7.85951 20.5545 7.95988C20.55 7.97242 20.5412 7.98697 20.5282 8.00353C20.5237 8.01608 20.5149 8.03063 20.5018 8.04719C20.4735 8.08659 20.4039 8.13238 20.293 8.18457C20.1883 8.23903 20.053 8.30013 19.8869 8.36788C20.049 8.46874 20.214 8.58126 20.3818 8.70544C20.5559 8.83189 20.6948 8.97753 20.7985 9.14237C20.9044 9.30093 20.9337 9.4851 20.8866 9.69485C20.9372 9.86898 20.9389 10.0219 20.8915 10.1536C20.8237 10.3418 20.6821 10.4892 20.4666 10.5959C20.2511 10.7025 20.0047 10.7768 19.7274 10.8187C19.4587 10.8566 19.1948 10.8714 18.9356 10.8632C18.6827 10.8572 18.4818 10.8345 18.333 10.7951C18.3057 10.7923 18.2898 10.7972 18.2853 10.8098C18.287 10.8246 18.3067 10.8387 18.3443 10.8523C18.5074 10.911 18.6857 10.9964 18.8792 11.1086C19.0749 11.2144 19.2387 11.3301 19.3707 11.4555C19.5089 11.5832 19.562 11.7015 19.5299 11.8104L19.5265 11.8198C19.5152 11.8512 19.5165 11.8871 19.5303 11.9275C19.5464 11.9616 19.5593 11.9946 19.5691 12.0264C19.6213 12.1373 19.6338 12.2304 19.6067 12.3057C19.5864 12.3622 19.5515 12.4098 19.5021 12.4487C19.2226 12.674 18.845 12.857 18.3693 12.9975C17.9021 13.134 17.406 13.2034 16.8808 13.2057C16.7037 13.2057 16.4889 13.1922 16.2365 13.1651C15.9818 13.1443 15.7191 13.1064 15.4484 13.0515C15.1817 13.0051 14.9292 12.939 14.6908 12.8532Z" fill="white"/>
<path d="M22.8586 12.4665C22.7781 12.395 22.718 12.3061 22.6783 12.1997C22.6472 12.0893 22.6591 11.9873 22.7141 11.8937C22.747 11.8418 22.775 11.8129 22.7984 11.8072C22.8302 11.7974 22.9006 11.8085 23.0095 11.8406L23.5387 11.9355C23.5997 11.9432 23.6279 11.9534 23.6234 11.9659C23.6143 11.991 23.5856 12.0019 23.5372 11.9987C23.4278 11.9876 23.3264 11.9937 23.2331 12.0168C23.1398 12.0398 23.0522 12.0863 22.9704 12.156C22.9511 12.1703 22.9346 12.1963 22.9211 12.2339C22.9076 12.2716 22.9003 12.3115 22.8993 12.3536C22.9068 12.3918 22.9155 12.4268 22.9253 12.4586C22.935 12.4905 22.9305 12.503 22.9117 12.4963C22.8992 12.4917 22.8815 12.4818 22.8586 12.4665ZM20.7316 14.9212C20.5183 14.8445 20.3915 14.7244 20.3511 14.5611C20.3192 14.3937 20.3372 14.216 20.4049 14.0278C20.4568 13.8835 20.5287 13.7429 20.6205 13.6059C20.7186 13.4711 20.8205 13.3555 20.9261 13.2589C20.8787 13.2134 20.8678 13.1847 20.8933 13.1727C20.9598 13.1258 21.0414 13.0665 21.138 12.995C21.2408 12.9258 21.3437 12.8565 21.4466 12.7873C21.5665 12.71 21.6702 12.6481 21.7578 12.6017C21.8516 12.5575 21.9362 12.549 22.0115 12.5761C22.0616 12.5942 22.0999 12.6256 22.1263 12.6705C22.1589 12.7177 22.1915 12.7649 22.2241 12.8121C22.0257 12.9107 21.8148 13.0438 21.5915 13.2114C21.3682 13.379 21.1655 13.5682 20.9833 13.779C20.8097 13.9857 20.6811 14.2052 20.5976 14.4372C20.5615 14.5376 20.5575 14.6176 20.5856 14.6774C20.6222 14.7331 20.675 14.7733 20.744 14.7982C20.8883 14.8501 21.035 14.8462 21.184 14.7865C21.3415 14.7227 21.5349 14.6187 21.7639 14.4744C22.0015 14.3261 22.2331 14.165 22.4587 13.9912C22.5144 13.9545 22.5527 13.9365 22.5738 13.937C22.6012 13.9397 22.5998 13.9534 22.5697 13.978C22.4834 14.0603 22.3587 14.1607 22.1956 14.2791C22.041 14.3935 21.8802 14.5057 21.7131 14.6156C21.546 14.7255 21.407 14.8065 21.2961 14.8587C21.1852 14.9109 21.0791 14.94 20.9777 14.9461C20.8827 14.9543 20.8006 14.9461 20.7316 14.9212Z" fill="white"/>
<path d="M20.1813 17.9222C20.0935 17.8906 20.0075 17.8242 19.9235 17.7231C19.8394 17.622 19.7798 17.512 19.7447 17.3931C19.701 17.2781 19.6961 17.1736 19.73 17.0796C19.7661 16.9792 19.8677 16.8741 20.0348 16.7641C20.2019 16.6542 20.3952 16.5502 20.6148 16.4521C20.8343 16.354 21.0493 16.2684 21.2598 16.1954C21.464 16.1201 21.6256 16.0649 21.7446 16.0298C22.1902 15.9138 22.6444 15.8329 23.1073 15.787C23.568 15.7473 24.0079 15.7356 24.4272 15.7519C24.509 15.6821 24.6043 15.5747 24.7132 15.4297C24.8221 15.2847 24.9258 15.1343 25.0244 14.9784C25.123 14.8226 25.1904 14.6945 25.2265 14.5942C25.0873 14.6858 24.9204 14.7851 24.726 14.8923C24.5401 14.9954 24.349 15.0931 24.1528 15.1855C23.9566 15.2778 23.7694 15.3451 23.5913 15.3872C23.4194 15.4317 23.2802 15.4347 23.1735 15.3963C23.0418 15.3489 22.9382 15.2726 22.8627 15.1675C22.7871 15.0624 22.7765 14.9345 22.8306 14.784C22.8577 14.7087 22.9039 14.6297 22.9691 14.5469C23.0344 14.4641 23.1229 14.3755 23.2348 14.2812C23.3553 14.1828 23.5138 14.0769 23.7105 13.9635C23.9135 13.8523 24.1268 13.752 24.3503 13.6624C24.5824 13.5688 24.8043 13.5034 25.0161 13.4663C25.2301 13.4228 25.4061 13.426 25.5441 13.4756C25.6256 13.505 25.6979 13.57 25.7609 13.6706C25.8324 13.7672 25.866 13.8608 25.8618 13.9513C25.8643 14.0231 25.8568 14.0735 25.8392 14.1026C25.8302 14.1277 25.8202 14.1454 25.8095 14.1557C25.7924 14.1637 25.777 14.1475 25.7632 14.1071C25.7556 14.069 25.7176 14.027 25.6491 13.9811C25.5869 13.9374 25.5181 13.902 25.4429 13.875C25.4115 13.8637 25.379 13.8555 25.3454 13.8505C25.3118 13.8455 25.277 13.8436 25.2411 13.8449C25.0868 13.8602 24.9098 13.8992 24.7101 13.9619C24.5127 14.0184 24.3158 14.0928 24.1196 14.1851C23.8296 14.3216 23.6059 14.4608 23.4486 14.6026C23.2998 14.7403 23.2063 14.8625 23.1679 14.9691C23.1047 15.1448 23.1452 15.2586 23.2894 15.3105C23.3773 15.3421 23.486 15.3352 23.6157 15.2898C23.8496 15.211 24.0635 15.1285 24.2574 15.0425C24.4536 14.9501 24.6308 14.8616 24.7888 14.7767C24.9406 14.6897 25.0722 14.6095 25.1836 14.5362C25.3013 14.4652 25.3976 14.4042 25.4726 14.3533C25.5667 14.3872 25.6175 14.4232 25.6251 14.4613C25.6389 14.5017 25.639 14.5407 25.6254 14.5784C25.6029 14.6411 25.5432 14.7578 25.4463 14.9284C25.3558 15.1012 25.2493 15.279 25.1268 15.4617C25.0044 15.6443 24.8807 15.7911 24.7558 15.902C24.9161 15.9881 25.0167 16.1022 25.0576 16.2445C25.1071 16.3828 25.1058 16.524 25.0539 16.6683C25.0448 16.6934 25.0358 16.7185 25.0268 16.7436C25.0178 16.7686 25.0056 16.7926 24.9903 16.8154C24.9682 16.8571 24.9426 16.8691 24.9135 16.8516C24.8884 16.8425 24.8858 16.8203 24.9056 16.785C24.9768 16.6264 25.0068 16.4742 24.9955 16.3284C24.982 16.1889 24.8717 16.0819 24.6647 16.0074C24.4728 16.1863 24.233 16.3799 23.9455 16.5882C23.658 16.7964 23.3454 16.9957 23.0077 17.1859C22.674 17.3846 22.3336 17.5526 21.9866 17.6899C21.6437 17.8357 21.3187 17.9313 21.0119 17.9767C20.6965 18.0262 20.4196 18.008 20.1813 17.9222ZM20.1327 17.7028C20.2833 17.757 20.5131 17.7582 20.8222 17.7065C21.0402 17.6716 21.2855 17.6005 21.558 17.4931C21.8304 17.3857 22.1077 17.2552 22.3897 17.1016C22.6757 16.9566 22.946 16.8059 23.2007 16.6496C23.4616 16.4955 23.6887 16.3469 23.8819 16.2039C24.0728 16.0672 24.2114 15.9576 24.2977 15.8753C24.1148 15.852 23.8787 15.8485 23.5894 15.8648C23.3001 15.8812 22.985 15.9201 22.644 15.9816C22.3071 16.0516 21.9696 16.1427 21.6317 16.2549C21.2937 16.367 20.9826 16.503 20.6983 16.6629C20.542 16.7625 20.3949 16.876 20.2569 17.0035C20.1189 17.131 20.0296 17.2512 19.9889 17.3641C19.928 17.5334 19.9759 17.6463 20.1327 17.7028Z" fill="white"/>
<path d="M5.41657 17.2204C5.32248 17.1865 5.23027 17.1179 5.13994 17.0145C5.05588 16.9134 5.04094 16.7876 5.09513 16.637C5.12448 16.5555 5.24001 16.4412 5.44173 16.2942C5.64571 16.1409 5.89347 15.9643 6.185 15.7646C6.48282 15.5671 6.78401 15.3602 7.0886 15.1439C7.26874 15.0175 7.50546 14.8618 7.79876 14.6768C8.09431 14.4856 8.41119 14.2844 8.7494 14.0731C9.09613 13.8578 9.42807 13.6443 9.7452 13.4325C10.0686 13.223 10.3473 13.0293 10.5814 12.8514C10.7081 12.7553 10.8169 12.6598 10.9077 12.5649C10.9985 12.4701 11.0586 12.3819 11.088 12.3004C11.1309 12.1812 11.1103 12.071 11.0262 11.9699C10.9444 11.8625 10.7781 11.7637 10.5272 11.6734C10.3264 11.6011 10.036 11.532 9.65589 11.4661C9.2843 11.3961 8.86178 11.3396 8.38832 11.2968C7.92114 11.2561 7.43777 11.231 6.93822 11.2212C6.52297 11.2134 6.10949 11.2205 5.69776 11.2423C5.2923 11.2664 4.91594 11.3081 4.5687 11.3673C4.22371 11.4203 3.93204 11.4925 3.69368 11.5838C3.63397 11.6119 3.57401 11.6505 3.51379 11.6997C3.46211 11.7449 3.42724 11.7926 3.40917 11.8427C3.39337 11.8867 3.39638 11.9373 3.41821 11.9948C3.4423 12.046 3.50453 12.0896 3.60489 12.1258C3.68644 12.1551 3.72157 12.1855 3.71028 12.2168C3.70576 12.2294 3.68556 12.2363 3.64969 12.2375C3.61381 12.2388 3.57818 12.2295 3.5428 12.2097C3.30694 12.0185 3.14974 11.845 3.0712 11.6892C2.99893 11.5357 2.98424 11.3993 3.02714 11.2801C3.06101 11.186 3.19574 11.107 3.43133 11.043C3.66693 10.979 3.97065 10.9324 4.34248 10.9033C4.71658 10.8679 5.13032 10.8503 5.5837 10.8506C6.04561 10.8468 6.51555 10.86 6.99353 10.8904C7.6105 10.9282 8.21305 10.9963 8.80117 11.0946C9.39155 11.1867 9.90629 11.3117 10.3454 11.4698C10.7656 11.6211 11.0829 11.8026 11.2972 12.0143C11.52 12.222 11.5829 12.4608 11.4858 12.7305C11.4429 12.8497 11.3203 12.9933 11.1181 13.1615C10.9244 13.3256 10.6755 13.5052 10.3715 13.7004C10.0759 13.8916 9.75702 14.0886 9.4148 14.2914C9.07258 14.4941 8.73463 14.6949 8.40094 14.8936C8.0695 15.086 7.76793 15.2645 7.49621 15.4288C7.22449 15.5932 7.01022 15.7357 6.85342 15.8564C6.81026 15.8975 6.78191 15.9369 6.76837 15.9746L6.76498 15.984C6.75143 16.0216 6.75608 16.0481 6.77891 16.0634C6.80174 16.0787 6.83135 16.0752 6.86773 16.0528C7.04511 15.9537 7.29275 15.8268 7.61063 15.6719C7.92852 15.5171 8.28567 15.3516 8.68209 15.1755C9.07851 14.9993 9.48095 14.8359 9.88941 14.6854C10.3064 14.5308 10.7004 14.4105 11.0715 14.3244C11.343 14.2591 11.6063 14.2264 11.8615 14.2261C12.1167 14.2259 12.3164 14.2517 12.4606 14.3036C12.5359 14.3307 12.5948 14.3838 12.6372 14.4628C12.6858 14.5441 12.7155 14.6291 12.726 14.718C12.7451 14.8028 12.7467 14.8671 12.7309 14.911C12.688 15.0302 12.5814 15.169 12.411 15.3273C12.2429 15.4794 12.0376 15.6463 11.795 15.8283C11.5586 16.0124 11.3104 16.21 11.0502 16.4211C10.7963 16.6343 10.5569 16.8564 10.3321 17.0873C10.1096 17.3118 9.93435 17.5428 9.8064 17.7802C9.80189 17.7927 9.79624 17.8084 9.78947 17.8272C9.7827 17.846 9.78445 17.8608 9.79474 17.8716C9.82385 17.8892 9.83501 17.9074 9.82824 17.9262C9.81469 17.9638 9.76087 17.9657 9.66678 17.9318C9.51624 17.8776 9.47145 17.7659 9.53241 17.5965C9.55498 17.5338 9.58496 17.4702 9.62234 17.4057C9.66826 17.3372 9.71843 17.2667 9.77287 17.1942C9.92767 16.9806 10.0907 16.7736 10.2621 16.5732C10.442 16.3687 10.6171 16.1872 10.7875 16.0289C10.9641 15.8728 11.1376 15.7156 11.3079 15.5573C11.4868 15.395 11.6597 15.2198 11.8265 15.0319C11.9088 14.9411 11.9658 14.8517 11.9974 14.7639C12.0312 14.6698 12.0353 14.5898 12.0094 14.5238C11.9836 14.4578 11.9393 14.4135 11.8765 14.391C11.6987 14.334 11.4421 14.348 11.1069 14.4328C10.7717 14.5176 10.3911 14.6499 9.96506 14.8295C9.5413 15.0029 9.10423 15.2034 8.65388 15.431C8.20352 15.6586 7.7731 15.8898 7.36264 16.1247C6.95217 16.3596 6.59063 16.5766 6.27802 16.7759C5.96766 16.9688 5.73947 17.1205 5.59345 17.2309C5.5508 17.251 5.49184 17.2475 5.41657 17.2204ZM11.4131 19.2512C11.3755 19.2377 11.3227 19.1974 11.2547 19.1304C11.1844 19.0697 11.1107 18.9794 11.0334 18.8595C10.9681 18.7651 10.9671 18.6301 11.0303 18.4545C11.0507 18.3981 11.0753 18.3396 11.1041 18.2791C11.1392 18.2209 11.1755 18.1596 11.2129 18.0951C11.3092 17.9455 11.4331 17.7882 11.5847 17.6231C11.7362 17.458 11.8886 17.3003 12.0419 17.15C12.2037 16.9957 12.3483 16.86 12.4755 16.7428C12.6089 16.6279 12.7058 16.5458 12.766 16.4966C12.8285 16.4412 12.8781 16.3917 12.915 16.3483C12.9582 16.3072 12.9885 16.272 13.0061 16.2429L13.0129 16.2241C13.0242 16.1928 13.0206 16.1632 13.0023 16.1353C12.9903 16.1097 12.9632 16.0964 12.921 16.0954C12.8726 16.0922 12.7642 16.1275 12.5959 16.2016C12.4298 16.2693 12.2742 16.3373 12.1292 16.4056C11.9393 16.5002 11.7127 16.6276 11.4495 16.788C11.1886 16.9421 10.9328 17.1015 10.6822 17.2664C10.4378 17.4335 10.2349 17.5837 10.0736 17.7169C10.0327 17.7518 10.0029 17.7658 9.98404 17.7591C9.97777 17.7568 9.97689 17.7494 9.9814 17.7369C9.98592 17.7243 10.0012 17.7015 10.0273 17.6684C10.0619 17.6312 10.1415 17.5677 10.2659 17.4779C10.3926 17.3818 10.529 17.2786 10.675 17.1682C10.821 17.0577 10.9551 16.9608 11.0773 16.8772C11.2017 16.7874 11.2779 16.7333 11.3057 16.715C11.6831 16.454 12.0597 16.2247 12.4355 16.0269C12.8176 15.8315 13.208 15.6425 13.6067 15.4601C13.6353 15.4987 13.6799 15.5325 13.7403 15.5613C13.8008 15.5902 13.8539 15.6199 13.8995 15.6505C13.9349 15.6703 13.9626 15.7016 13.9827 15.7442C14.005 15.7806 14.0049 15.8302 13.9823 15.8929C13.953 15.9744 13.894 16.0595 13.8055 16.1481C13.6885 16.276 13.531 16.4283 13.3328 16.605C13.1431 16.7776 12.9406 16.9563 12.7254 17.1409C12.5186 17.3216 12.3227 17.492 12.1375 17.6521C11.9546 17.8059 11.8072 17.93 11.6953 18.0243C11.45 18.2336 11.2912 18.4386 11.2189 18.6393C11.1557 18.8149 11.1899 18.9265 11.3217 18.9739C11.4032 19.0032 11.5277 19.002 11.695 18.9701C11.7417 18.9585 11.8142 18.9244 11.9125 18.8677C12.0172 18.8133 12.105 18.7563 12.176 18.6968C12.2061 18.6722 12.2263 18.6653 12.2366 18.6761C12.2531 18.6892 12.2495 18.7091 12.2257 18.736C12.1717 18.7874 12.1135 18.8408 12.051 18.8963C11.9971 18.9477 11.94 18.998 11.8798 19.0472C11.7872 19.1273 11.7026 19.1854 11.6258 19.2215C11.5467 19.2639 11.4759 19.2738 11.4131 19.2512Z" fill="white"/>
<path d="M14.0535 19.9678C13.8715 19.9023 13.7396 19.7768 13.6575 19.5914C13.5817 19.4083 13.5867 19.1975 13.6725 18.9592C13.7041 18.8713 13.7474 18.7806 13.8024 18.687C13.8658 18.5894 13.9398 18.4921 14.0244 18.395C14.1975 18.2093 14.4017 18.0455 14.6371 17.9034C14.8787 17.7637 15.1204 17.6629 15.3623 17.6012C15.6042 17.5394 15.8129 17.5402 15.9885 17.6034C16.0074 17.6102 16.0259 17.6275 16.0442 17.6553C16.0648 17.6769 16.0791 17.6962 16.0872 17.7133L16.1173 17.7773C16.1654 17.8796 16.2218 17.9495 16.2863 17.9869C16.357 18.0265 16.4031 18.0856 16.4244 18.1641C16.4568 18.3104 16.4425 18.4682 16.3815 18.6376C16.298 18.8697 16.1344 19.0978 15.8908 19.3218C15.6557 19.5419 15.3795 19.7188 15.0621 19.8525C14.9045 19.9163 14.7378 19.9661 14.5619 20.002C14.386 20.0379 14.2165 20.0265 14.0535 19.9678ZM14.1566 19.888C14.3071 19.9422 14.4789 19.9473 14.6718 19.9034C14.867 19.8532 15.0609 19.7671 15.2536 19.6452C15.4526 19.5255 15.633 19.3885 15.7948 19.2342C15.9629 19.0821 16.09 18.9259 16.176 18.7656C16.1936 18.7365 16.208 18.7062 16.2193 18.6749C16.2391 18.6395 16.2536 18.6093 16.2626 18.5842C16.3235 18.4148 16.3268 18.2778 16.2723 18.1732C16.2202 18.0623 16.1376 17.9865 16.0247 17.9459C15.9055 17.903 15.7696 17.8966 15.6171 17.9267C15.4731 17.9528 15.2706 18.0429 15.0097 18.197C14.751 18.3448 14.5078 18.5087 14.28 18.6889C14.0737 18.8485 13.9356 19.0255 13.8656 19.22C13.8159 19.358 13.8107 19.4907 13.8498 19.6181C13.8975 19.7416 13.9998 19.8315 14.1566 19.888Z" fill="white"/>
<path d="M18.3952 21.5093C18.2321 21.4506 18.133 21.3617 18.0978 21.2428C18.0712 21.1199 18.0816 20.9925 18.129 20.8608C18.1832 20.7103 18.2594 20.5676 18.3575 20.4329C18.4641 20.2941 18.5682 20.1722 18.6698 20.0671C18.78 19.9579 18.8663 19.8756 18.9287 19.8201C19.1076 19.6578 19.2084 19.5453 19.2309 19.4825C19.2558 19.4135 19.2323 19.3803 19.1605 19.3828C19.1036 19.3836 19.0154 19.4121 18.896 19.4683C18.7765 19.5245 18.6495 19.5921 18.5147 19.6711C18.38 19.7502 18.2581 19.8232 18.1489 19.8902C18.0461 19.9594 17.9796 20.0064 17.9495 20.031C17.6835 20.2187 17.4867 20.3816 17.359 20.5199C17.2313 20.6581 17.1382 20.7593 17.0798 20.8232C17.0559 20.8501 17.0158 20.8533 16.9593 20.833C16.9029 20.8127 16.8543 20.7704 16.8137 20.7062C16.7753 20.6357 16.773 20.5534 16.8069 20.4593C16.8249 20.4091 16.8848 20.3315 16.9864 20.2263C17.0903 20.1149 17.2146 19.9861 17.3593 19.8398C17.4956 19.6975 17.6318 19.5553 17.768 19.413C17.9065 19.2645 18.0158 19.1479 18.0958 19.0633C18.0655 19.0099 18.0537 18.9738 18.0604 18.955C18.0672 18.9361 18.076 18.9216 18.0868 18.9113C18.1106 18.8844 18.1538 18.8433 18.2162 18.7878C18.281 18.7261 18.3446 18.6675 18.407 18.6121C18.4718 18.5504 18.5138 18.5123 18.5331 18.498C18.5564 18.4923 18.6114 18.4872 18.698 18.483C18.7908 18.481 18.8748 18.4935 18.9501 18.5206L18.9878 18.5341C19.063 18.5612 19.0928 18.5967 19.077 18.6406C19.0612 18.6846 19.0189 18.7331 18.9501 18.7863C18.92 18.8109 18.8468 18.8766 18.7304 18.9835C18.6162 19.0841 18.4859 19.2002 18.3393 19.3317C18.1928 19.4632 18.0548 19.5906 17.9254 19.7141C17.8044 19.8335 17.7147 19.9252 17.6563 19.9892C17.6172 20.0389 17.5874 20.0919 17.5671 20.1484C17.5553 20.2008 17.5687 20.2128 17.6074 20.1842C17.8778 19.9839 18.1222 19.8168 18.3405 19.6828C18.5588 19.5488 18.7725 19.4274 18.9818 19.3185C19.191 19.2096 19.4182 19.1 19.6633 18.9899C19.717 19.0375 19.7784 19.0738 19.8474 19.0986C19.9164 19.1235 19.9692 19.1637 20.0058 19.2194C20.0242 19.2473 20.0254 19.2832 20.0096 19.3271C19.978 19.4149 19.8773 19.5274 19.7074 19.6647C19.5461 19.7979 19.3643 19.9486 19.1621 20.1167C19.0093 20.2459 18.8475 20.4002 18.6766 20.5796C18.5058 20.7591 18.3921 20.9272 18.3357 21.084C18.3063 21.1655 18.294 21.239 18.2988 21.3045C18.3121 21.366 18.3501 21.408 18.4128 21.4306C18.4693 21.4509 18.5399 21.4515 18.6247 21.4325C18.6862 21.4192 18.8332 21.3552 19.0658 21.2405C19.3006 21.1196 19.5737 20.9415 19.8851 20.7064C19.9107 20.6944 19.9266 20.6895 19.9329 20.6917C19.9454 20.6962 19.9495 20.7048 19.9449 20.7173C19.9404 20.7299 19.922 20.7516 19.8896 20.7824C19.5562 21.0592 19.2498 21.2607 18.9706 21.3869C18.6999 21.5091 18.5081 21.5499 18.3952 21.5093Z" fill="white"/>
<path d="M21.0237 22.4554C20.8544 22.3944 20.719 22.2784 20.6176 22.1073C20.5248 21.9322 20.5213 21.7254 20.6071 21.487C20.6748 21.2989 20.7984 21.1131 20.9777 20.9296C21.1571 20.7462 21.3614 20.5824 21.5904 20.4381C21.8258 20.2961 22.0581 20.1919 22.2874 20.1257C22.5167 20.0594 22.7109 20.0514 22.87 20.1016C22.8861 20.1357 22.9075 20.1647 22.9344 20.1885C22.9675 20.2146 22.9975 20.2396 23.0243 20.2634L23.2486 20.4079C23.3731 20.4952 23.4105 20.6079 23.3608 20.7459C23.3315 20.8274 23.2716 20.9051 23.1813 20.9788C23.0973 21.0549 22.9895 21.1082 22.858 21.1388C22.788 21.1561 22.7117 21.1712 22.6292 21.184C22.5529 21.199 22.4735 21.213 22.391 21.2258L21.8863 21.2992C21.7297 21.3208 21.5866 21.3543 21.4569 21.3997C21.3294 21.4388 21.2279 21.4944 21.1524 21.5664C21.1524 21.5664 21.1419 21.5662 21.1208 21.5657C21.1082 21.5612 21.1096 21.5475 21.1249 21.5247C21.2072 21.4338 21.3303 21.3577 21.4941 21.2962C21.6665 21.2307 21.8332 21.1809 21.9943 21.1467C22.0751 21.1191 22.1536 21.0978 22.2299 21.0828C22.3124 21.07 22.393 21.0529 22.4715 21.0316C22.55 21.0102 22.6254 20.9878 22.6977 20.9642C22.7785 20.9366 22.8487 20.9087 22.9084 20.8806C22.9767 20.8485 23.0292 20.8107 23.0661 20.7673C23.1093 20.7262 23.1376 20.6868 23.1512 20.6491C23.1941 20.53 23.1465 20.4455 23.0085 20.3959C22.9207 20.3643 22.8068 20.3658 22.6668 20.4004C22.4949 20.4448 22.3226 20.5103 22.1497 20.5969C21.9791 20.6772 21.8102 20.7723 21.6431 20.8822C21.4653 21.0024 21.2909 21.1522 21.12 21.3316C20.9554 21.5132 20.8472 21.6762 20.7953 21.8205C20.7433 21.9648 20.7468 22.0829 20.8058 22.175C20.8733 22.2631 20.9635 22.3274 21.0764 22.3681C21.2332 22.4245 21.3985 22.4379 21.5721 22.4083C21.7013 22.384 21.8299 22.3417 21.9578 22.2815C22.0881 22.215 22.1981 22.1554 22.2879 22.1027C22.3607 22.058 22.4442 22.0031 22.5385 21.9378C22.6391 21.8748 22.7099 21.8259 22.7508 21.791C22.7679 21.783 22.7773 21.7864 22.779 21.8012C22.7808 21.816 22.7805 21.8265 22.7783 21.8328C22.7374 21.8677 22.6675 21.924 22.5687 22.0018C22.4783 22.0756 22.3508 22.1643 22.1859 22.2679C21.9932 22.3898 21.8078 22.4719 21.6297 22.5141C21.4515 22.5562 21.2496 22.5367 21.0237 22.4554Z" fill="white"/>
<path d="M20.7253 25.5576C20.6375 25.526 20.5547 25.4608 20.4769 25.362C20.3928 25.2608 20.3333 25.1508 20.2981 25.0319C20.2545 24.917 20.2496 24.8125 20.2834 24.7184C20.3196 24.618 20.4212 24.5129 20.5883 24.403C20.7554 24.2931 20.9487 24.1891 21.1682 24.091C21.3877 23.9928 21.6028 23.9073 21.8133 23.8343C22.0175 23.759 22.1791 23.7038 22.298 23.6686C22.5399 23.6069 22.7593 23.5583 22.9562 23.5229C23.1595 23.4898 23.3573 23.4618 23.5497 23.439C23.7399 23.4224 23.9711 23.41 24.2434 23.4017C24.5178 23.3871 24.7636 23.3835 24.9806 23.3907C25.0624 23.321 25.1566 23.2167 25.2633 23.078C25.3722 22.9329 25.4759 22.7825 25.5745 22.6267C25.6731 22.4709 25.7404 22.3428 25.7766 22.2424C25.7879 22.2111 25.7971 22.1754 25.8044 22.1355C25.8117 22.0957 25.8028 22.0712 25.7777 22.0622C25.7526 22.0531 25.7187 22.0587 25.6761 22.0787C25.5714 22.1332 25.4291 22.2236 25.2489 22.3501C25.071 22.4703 24.8804 22.5965 24.6769 22.7287C24.4757 22.8547 24.2855 22.9598 24.1063 23.0442C23.9357 23.1245 23.8003 23.1465 23.6999 23.1104C23.5744 23.0653 23.4862 23.0052 23.4353 22.9302C23.3821 22.8614 23.3781 22.7643 23.4232 22.6389C23.4639 22.526 23.5299 22.4115 23.6212 22.2956C23.7125 22.1797 23.8067 22.0754 23.9038 21.9829C24.0009 21.8903 24.0742 21.8245 24.1236 21.7856C24.0855 21.7932 24.0686 21.7907 24.0732 21.7781C24.0839 21.7678 24.0936 21.7607 24.1021 21.7567C24.1174 21.7338 24.1444 21.7081 24.1831 21.6795C24.4319 21.4998 24.6408 21.3625 24.8097 21.2674C24.9848 21.1745 25.0943 21.136 25.1382 21.1518C25.1884 21.1699 25.2287 21.2056 25.259 21.259C25.2979 21.3085 25.3397 21.3696 25.3844 21.4423C25.295 21.4739 25.1594 21.5456 24.9775 21.6572C24.7956 21.7689 24.6038 21.8983 24.4021 22.0453C24.2089 22.1883 24.0399 22.333 23.8952 22.4793C23.8305 22.541 23.7785 22.5967 23.7394 22.6464C23.7065 22.6983 23.6844 22.74 23.6731 22.7713C23.6461 22.8466 23.6639 22.8955 23.7266 22.9181C23.7831 22.9384 23.8611 22.9382 23.9607 22.9173C24.0603 22.8965 24.1624 22.8589 24.267 22.8044C24.5935 22.6456 24.9024 22.4663 25.194 22.2666C25.4855 22.0668 25.7719 21.8617 26.0532 21.6512C26.0657 21.6557 26.0782 21.6602 26.0908 21.6647C26.1119 21.6652 26.1287 21.6677 26.1412 21.6722C26.229 21.7038 26.289 21.7538 26.3211 21.822C26.3452 21.8732 26.3358 21.9584 26.2929 22.0776C26.25 22.1967 26.1793 22.3342 26.0807 22.4901C25.9884 22.6481 25.8866 22.8028 25.7755 22.9541C25.6729 23.1014 25.577 23.2299 25.488 23.3395C25.3989 23.4492 25.3393 23.5163 25.3092 23.5409C25.4695 23.6269 25.5702 23.7411 25.6111 23.8834C25.6605 24.0216 25.6593 24.1629 25.6073 24.3071C25.5983 24.3322 25.5893 24.3573 25.5802 24.3824C25.5712 24.4075 25.559 24.4315 25.5437 24.4543C25.5216 24.4959 25.4961 24.508 25.467 24.4904C25.4419 24.4814 25.4392 24.4592 25.459 24.4238C25.5303 24.2652 25.5603 24.1131 25.549 23.9673C25.5354 23.8278 25.422 23.7196 25.2087 23.6429C25.0168 23.8218 24.7771 24.0154 24.4895 24.2236C24.2083 24.4342 23.8988 24.6345 23.5611 24.8247C23.2274 25.0235 22.8871 25.1915 22.5401 25.3287C22.1971 25.4745 21.8691 25.569 21.5559 25.6122C21.2405 25.6616 20.9637 25.6434 20.7253 25.5576ZM20.6862 25.3416C20.8367 25.3958 21.0665 25.397 21.3756 25.3453C21.5937 25.3105 21.8389 25.2393 22.1114 25.1319C22.3839 25.0245 22.6611 24.894 22.9431 24.7405C23.2292 24.5954 23.4995 24.4447 23.7541 24.2884C24.0151 24.1343 24.2421 23.9858 24.4353 23.8428C24.6263 23.706 24.7649 23.5965 24.8512 23.5142C24.6683 23.4909 24.4322 23.4874 24.1429 23.5037C23.8536 23.52 23.5385 23.5589 23.1975 23.6204C22.8605 23.6904 22.5231 23.7815 22.1851 23.8937C21.8471 24.0059 21.536 24.1419 21.2518 24.3017C21.0892 24.3991 20.9432 24.5095 20.8137 24.6329C20.6757 24.7604 20.5853 24.8837 20.5424 25.0029C20.4814 25.1723 20.5293 25.2852 20.6862 25.3416Z" fill="white"/>
</g>
</svg>
