<svg width="68" height="70" viewBox="0 0 68 70" fill="none" xmlns="http://www.w3.org/2000/svg">
<path d="M55.4922 63.7984H59.5281C61.1108 63.7984 62.3937 62.5155 62.3937 60.9328V30.9028C62.3937 29.4722 63.4219 28.1684 64.8448 28.0251C66.4811 27.86 67.8625 29.143 67.8625 30.7453V60.9328C67.8625 65.5353 64.1306 69.2672 59.5281 69.2672H55.4922C53.9817 69.2672 52.7578 68.0433 52.7578 66.5328C52.7578 65.0223 53.9817 63.7984 55.4922 63.7984Z" fill="#367AF5"/>
<path d="M8.47207 69.2672C3.86957 69.2672 0.137695 65.5353 0.137695 60.9328V11.6594C0.137695 7.05685 3.86957 3.32498 8.47207 3.32498H13.4705C13.5471 1.88123 14.7283 0.732788 16.183 0.732788C17.6486 0.732788 18.8299 1.88123 18.9064 3.32498C18.9174 3.32498 18.9174 3.42341 18.9174 3.42341V3.46716V8.6406V8.68435V8.79373C18.8299 10.2265 17.6486 11.375 16.183 11.375C14.7283 11.375 13.5471 10.2265 13.4705 8.79373H8.47207C6.88941 8.79373 5.60645 10.0767 5.60645 11.6594V18.1672H62.3939V11.6594C62.3939 10.0767 61.111 8.79373 59.5283 8.79373H54.5299C54.4533 10.2265 53.2721 11.375 51.8174 11.375C50.3518 11.375 49.1705 10.2265 49.0939 8.79373H36.7236C36.6361 10.2265 35.4549 11.375 34.0002 11.375C32.5455 11.375 31.3643 10.2265 31.2768 8.79373H26.2346C24.8433 8.79373 23.5582 7.84326 23.3339 6.4706C23.0474 4.7206 24.5283 3.32498 26.1919 3.32498H31.2779C31.3654 1.88123 32.5466 0.732788 34.0013 0.732788C35.456 0.732788 36.6372 1.88123 36.7247 3.32498H49.0939C49.1705 1.88123 50.3518 0.732788 51.8174 0.732788C53.2721 0.732788 54.4533 1.88123 54.5299 3.32498H59.5283C64.1308 3.32498 67.8627 7.05685 67.8627 11.6594V19.8734C67.8627 21.9515 66.1783 23.6359 64.1002 23.6359H5.60645V60.9328C5.60645 62.5154 6.88941 63.7984 8.47207 63.7984H12.508C14.0185 63.7984 15.2424 65.0223 15.2424 66.5328C15.2424 68.0433 14.0185 69.2672 12.508 69.2672H8.47207Z" fill="#367AF5"/>
<path d="M34.0011 32.3477C23.8227 32.3477 15.543 40.6284 15.543 50.8047C15.543 60.9831 23.8237 69.2628 34.0011 69.2628C44.1784 69.2628 52.4581 60.982 52.4581 50.8047C52.4581 40.6284 44.1773 32.3477 34.0011 32.3477ZM34.0011 64.3147C26.5516 64.3147 20.4922 58.2553 20.4922 50.8058C20.4922 43.3573 26.5516 37.298 34.0011 37.298C41.4495 37.298 47.5089 43.3573 47.5089 50.8058C47.5078 58.2542 41.4484 64.3147 34.0011 64.3147Z" fill="#367AF5"/>
<path d="M40.1762 43.8309C39.439 43.8309 38.7008 44.1022 38.1594 44.6447L31.8594 50.9447L29.7965 48.8819C28.728 47.8155 26.8598 47.8177 25.7945 48.8819C24.6986 49.9767 24.704 51.7902 25.7945 52.8839L29.8764 56.9636C30.409 57.4984 31.1211 57.7927 31.8769 57.7927C32.66 57.7927 33.3884 57.4962 33.9244 56.9559C33.9244 56.9559 42.169 48.7102 42.1953 48.6839C43.2945 47.5847 43.2923 45.7395 42.1953 44.6458C41.6528 44.1022 40.9145 43.8309 40.1762 43.8309Z" fill="#367AF5"/>
</svg>
