<svg width="88" height="80" viewBox="0 0 88 80" fill="none" xmlns="http://www.w3.org/2000/svg">
<path d="M23.5938 58.9062C23.5938 60.6323 22.1948 62.0312 20.4688 62.0312C18.7427 62.0312 17.3438 60.6323 17.3438 58.9062C17.3438 57.1802 18.7427 55.7812 20.4688 55.7812C22.1948 55.7812 23.5938 57.1802 23.5938 58.9062Z" fill="#367AF5"/>
<path d="M72.5 59.0625C72.5 60.7886 71.1011 62.1875 69.375 62.1875C67.6489 62.1875 66.25 60.7886 66.25 59.0625C66.25 57.3364 67.6489 55.9375 69.375 55.9375C71.1011 55.9375 72.5 57.3364 72.5 59.0625Z" fill="#367AF5"/>
<path d="M52.8935 32.0827C49.3483 35.9603 44.2442 37.796 39.1345 37.1634C43.7146 42.8629 46.5741 49.2038 48.176 53.5451C48.4072 54.1707 49.0155 54.5938 49.6777 54.5938H54.878C55.8103 46.7748 59.0263 38.8682 64.2888 31.3106L61.5497 28.468L52.8935 32.0827ZM52.8935 32.0827L55.6095 29.1129L55.6095 29.1128C56.2192 28.446 57.0891 28.0625 57.9919 28.0625H60.5963C60.9506 28.0625 61.3024 28.2118 61.5493 28.4676L52.8935 32.0827ZM53.6502 16.3184L55.0422 19.1701C52.6568 19.7518 50.4666 21.0296 48.7831 22.8709L46.067 25.8415C44.3274 27.7442 41.6927 28.4841 39.168 27.7561L39.1676 27.756C31.7661 25.6241 24.3843 24.4972 15.9605 24.2046C11.0867 24.0346 6.66986 27.1648 5.21279 31.8193L5.21278 31.8194C4.09552 35.3886 3.5 38.57 3.5 41.25V44.375V45.875H5H13.6573C9.01082 48.3678 5.84375 53.2714 5.84375 58.9062C5.84375 67.0577 12.4736 73.6875 20.625 73.6875C27.0489 73.6875 32.5197 69.5717 34.5555 63.8438H55.4445C57.4803 69.5717 62.9511 73.6875 69.375 73.6875C77.3304 73.6875 83.83 67.3741 84.1407 59.4949L86.4627 49.2765L86.5 49.1124V48.9441V41.4966C86.5 36.2465 83.198 31.5071 78.2758 29.6864C78.2738 29.6857 78.2719 29.6849 78.2699 29.6842L74.0158 28.0738L68.2103 22.0488L68.21 22.0485C67.5071 21.3195 66.7071 20.7053 65.8442 20.2133L61.9627 12.2615C60.1512 8.54916 56.3211 6.15625 52.1899 6.15625H45.1562H43.6562V7.65625V13.9062V15.4062H45.1562H52.1899C52.8022 15.4062 53.3817 15.7682 53.6501 16.3182L53.6502 16.3184ZM31.8816 42.9091C35.0598 46.8571 37.2678 51.2728 38.6519 54.5938H34.8496C33.1913 48.1926 28.1484 43.1991 24.0207 40.0137L24.0206 40.0136C21.187 37.8272 17.6585 36.625 14.0765 36.625H13.4583C13.6237 35.9756 13.8177 35.2934 14.0401 34.5827C14.256 33.8931 14.915 33.4256 15.6375 33.4485C15.7038 33.4511 15.7702 33.4539 15.8402 33.4569L15.8474 33.4572C15.9021 33.4596 15.959 33.462 16.0168 33.4644C22.8149 34.1185 28.0116 38.1016 31.8816 42.9091ZM75.0195 38.3444L75.0306 38.3485L75.0586 38.3589L75.0609 38.3597C76.3678 38.8404 77.25 40.1045 77.25 41.4972V46.4053C74.9703 44.9632 72.2693 44.125 69.375 44.125C68.7181 44.125 68.0708 44.1684 67.4361 44.2523C68.5574 41.8475 69.9385 39.4368 71.5749 37.0405L75.0195 38.3444ZM20.4688 64.4375C17.4136 64.4375 14.9375 61.961 14.9375 58.9062C14.9375 55.8515 17.4136 53.375 20.4688 53.375C23.5239 53.375 26 55.8515 26 58.9062C26 61.961 23.5239 64.4375 20.4688 64.4375ZM69.375 64.5938C66.3198 64.5938 63.8438 62.1172 63.8438 59.0625C63.8438 56.0078 66.3198 53.5312 69.375 53.5312C72.4302 53.5312 74.9062 56.0078 74.9062 59.0625C74.9062 62.1172 72.4302 64.5938 69.375 64.5938Z" fill="#367AF5" stroke="white" stroke-width="3"/>
</svg>
