<svg width="92" height="91" viewBox="0 0 92 91" fill="none" xmlns="http://www.w3.org/2000/svg">
<path d="M72.6008 54.3125H58.6495L67.0552 40.1911L67.08 40.1483C69.1333 36.5269 70.2188 32.4017 70.2188 28.2188C70.2188 14.8645 59.3542 4 46 4C32.6458 4 21.7812 14.8645 21.7812 28.2188C21.7812 32.4017 22.8667 36.5269 24.9202 40.1484L33.3509 54.3125H19.235L6 80.9498V84H86V80.9436L72.6008 54.3125ZM28.9861 37.8155C27.3392 34.9027 26.4688 31.5847 26.4688 28.2188C26.4688 17.4492 35.2305 8.6875 46 8.6875C56.7695 8.6875 65.5312 17.4492 65.5312 28.2188C65.5312 31.5845 64.6609 34.9023 63.0144 37.815L46 66.3991L28.9861 37.8155ZM12.0478 79.3125L22.1402 59H36.1411L44.5114 73.0625H47.4889L55.8594 59H69.7119L79.932 79.3125H12.0478Z" fill="#367AF5"/>
<path d="M46 19.625C41.2614 19.625 37.4062 23.4802 37.4062 28.2188C37.4062 32.9573 41.2614 36.8125 46 36.8125C50.7386 36.8125 54.5938 32.9573 54.5938 28.2188C54.5938 23.4802 50.7386 19.625 46 19.625ZM46 32.125C43.8461 32.125 42.0938 30.3727 42.0938 28.2188C42.0938 26.0648 43.8461 24.3125 46 24.3125C48.1539 24.3125 49.9062 26.0648 49.9062 28.2188C49.9062 30.3727 48.1539 32.125 46 32.125Z" fill="#367AF5"/>
</svg>
