<svg width="110" height="110" viewBox="0 0 110 110" fill="none" xmlns="http://www.w3.org/2000/svg">
<path d="M98.3864 41.293L79.652 34.4798C79.4632 34.4107 79.2636 34.3752 79.0625 34.375H75.625C74.2575 34.375 72.946 34.9182 71.979 35.8852C71.012 36.8522 70.4688 38.1637 70.4688 39.5312C70.4742 40.3368 70.6703 41.1295 71.0411 41.8447L58.2484 44.6875H51.7344L38.818 42.1094C39.2817 41.3291 39.528 40.4389 39.5312 39.5312C39.5312 38.1637 38.988 36.8522 38.021 35.8852C37.054 34.9182 35.7425 34.375 34.375 34.375H30.9375C30.7369 34.3754 30.538 34.4109 30.3497 34.4798L11.6153 41.293C9.41536 41.3966 7.33947 42.3421 5.81725 43.9338C4.29503 45.5254 3.443 47.6414 3.4375 49.8438V53.2812C3.4375 54.6488 3.98075 55.9603 4.94773 56.9273C5.91472 57.8943 7.22623 58.4375 8.59375 58.4375C9.1806 58.4318 9.76206 58.3248 10.3125 58.1213V60.1562C10.373 61.4948 10.7746 62.7956 11.4791 63.9354C12.1835 65.0751 13.1676 66.016 14.3378 66.6686L28.4986 73.7481C32.0058 75.1334 35.7632 75.7726 39.5312 75.625C42.7298 75.625 45.7497 75.625 47.9445 71.237L51.382 64.362C52.6247 61.875 53.4686 61.875 55 61.875C56.5314 61.875 57.3753 61.875 58.6094 64.362L62.0469 71.237C64.2503 75.625 67.992 75.625 70.4688 75.625C74.2538 75.7745 78.0282 75.1305 81.5495 73.7344L95.2995 66.8594C96.5768 66.2539 97.6622 65.3077 98.4364 64.1251C99.2106 62.9424 99.6435 61.5691 99.6875 60.1562V58.1213C100.238 58.3248 100.819 58.4318 101.406 58.4375C102.774 58.4375 104.085 57.8943 105.052 56.9273C106.019 55.9603 106.562 54.6488 106.562 53.2812V49.8438C106.557 47.6417 105.705 45.5259 104.183 43.9343C102.662 42.3427 100.586 41.397 98.3864 41.293ZM75.625 37.8125H78.76L88.2131 41.25H75.625C75.1692 41.25 74.732 41.0689 74.4097 40.7466C74.0873 40.4243 73.9062 39.9871 73.9062 39.5312C73.9062 39.0754 74.0873 38.6382 74.4097 38.3159C74.732 37.9936 75.1692 37.8125 75.625 37.8125ZM31.24 37.8125H34.375C34.8308 37.8125 35.268 37.9936 35.5903 38.3159C35.9127 38.6382 36.0938 39.0754 36.0938 39.5312C36.0938 39.9871 35.9127 40.4243 35.5903 40.7466C35.268 41.0689 34.8308 41.25 34.375 41.25H21.7869L31.24 37.8125ZM96.25 60.1562C96.1988 60.926 95.9407 61.6677 95.5029 62.303C95.0652 62.9383 94.4641 63.4436 93.763 63.7656L80.0611 70.6183C77.0041 71.7898 73.7397 72.3238 70.4688 72.1875C67.9302 72.1875 66.3145 72.0672 65.1406 69.7005L61.7031 62.8255C59.6681 58.7813 57.3719 58.4375 55 58.4375C52.6281 58.4375 50.3319 58.7813 48.3055 62.8255L44.868 69.7005C43.6253 72.1875 42.5941 72.1875 39.5312 72.1875C36.2779 72.3243 33.0306 71.798 29.987 70.6406L15.8744 63.5938C15.2719 63.2316 14.7647 62.7307 14.3951 62.1327C14.0256 61.5348 13.8044 60.8571 13.75 60.1562V51.5625H35.9047L51.1895 54.9605C51.3121 54.9865 51.4371 54.9998 51.5625 55H58.4375C58.5783 55 58.7186 54.9827 58.8552 54.9484L72.3989 51.5625H96.25V60.1562ZM103.125 53.2812C103.125 53.7371 102.944 54.1743 102.622 54.4966C102.299 54.8189 101.862 55 101.406 55C100.95 55 100.513 54.8189 100.191 54.4966C99.8686 54.1743 99.6875 53.7371 99.6875 53.2812V49.8438C99.6875 49.3879 99.5064 48.9507 99.1841 48.6284C98.8618 48.3061 98.4246 48.125 97.9688 48.125H72.1875C72.0467 48.125 71.9064 48.1423 71.7698 48.1766L58.2261 51.5625H51.7516L36.4667 48.1645C36.3441 48.1385 36.2191 48.1252 36.0938 48.125H12.0312C11.5754 48.125 11.1382 48.3061 10.8159 48.6284C10.4936 48.9507 10.3125 49.3879 10.3125 49.8438V53.2812C10.3125 53.7371 10.1314 54.1743 9.80909 54.4966C9.48676 54.8189 9.04959 55 8.59375 55C8.13791 55 7.70074 54.8189 7.37841 54.4966C7.05608 54.1743 6.875 53.7371 6.875 53.2812V49.8438C6.875 48.4762 7.41825 47.1647 8.38523 46.1977C9.35222 45.2307 10.6637 44.6875 12.0312 44.6875H34.2031L51.2188 48.0906C51.3319 48.1136 51.4471 48.1251 51.5625 48.125H58.4375C58.5629 48.1248 58.6879 48.1115 58.8105 48.0855L74.0953 44.6875H97.9688C99.3363 44.6875 100.648 45.2307 101.615 46.1977C102.582 47.1647 103.125 48.4762 103.125 49.8438V53.2812Z" fill="#367AF5"/>
<path d="M92.8125 58.4375H89.375V61.875H92.8125V58.4375Z" fill="#367AF5"/>
<path d="M85.9375 55H82.5V58.4375H85.9375V55Z" fill="#367AF5"/>
</svg>
