<svg width="90" height="91" viewBox="0 0 90 91" fill="none" xmlns="http://www.w3.org/2000/svg">
<path d="M12.1633 65.5633C11.2833 65.5633 10.43 65.1 9.97333 64.2767C6.72333 58.41 5 51.7433 5 45C5 22.9433 22.9433 5 45 5C51.43 5 57.8067 6.56667 63.4433 9.52667C64.6667 10.17 65.1367 11.68 64.4933 12.9033C63.8567 14.1267 62.3467 14.6 61.1167 13.9533C56.1933 11.3667 50.6233 10 45 10C25.7 10 10 25.7 10 45C10 50.8967 11.5033 56.7233 14.35 61.8533C15.0167 63.06 14.58 64.5833 13.3767 65.2533C12.99 65.4633 12.5733 65.5633 12.1633 65.5633Z" fill="#367AF5"/>
<path d="M44.9995 85C37.5895 85 30.3595 82.9533 24.0928 79.0833C22.9162 78.36 22.5528 76.8166 23.2762 75.6433C24.0028 74.4733 25.5462 74.1033 26.7162 74.83C32.1962 78.21 38.5195 80 44.9995 80C64.2995 80 79.9995 64.3 79.9995 45C79.9995 38.51 78.2128 32.2 74.8295 26.7533C74.1028 25.58 74.4662 24.04 75.6362 23.31C76.8095 22.5766 78.3495 22.9433 79.0762 24.1166C82.9528 30.3533 84.9995 37.5766 84.9995 45C84.9995 67.0566 67.0562 85 44.9995 85Z" fill="#367AF5"/>
<path d="M35.8327 42.5001C34.4527 42.5001 33.3327 41.3801 33.3327 40.0001C33.3327 38.1634 31.8393 36.6667 29.9993 36.6667C28.1593 36.6667 26.666 38.1634 26.666 40.0001C26.666 41.3801 25.546 42.5001 24.166 42.5001C22.786 42.5001 21.666 41.3801 21.666 40.0001C21.666 35.4067 25.4027 31.6667 29.9993 31.6667C34.596 31.6667 38.3327 35.4067 38.3327 40.0001C38.3327 41.3801 37.2127 42.5001 35.8327 42.5001Z" fill="#367AF5"/>
<path d="M65.8327 42.5001C64.4527 42.5001 63.3327 41.3801 63.3327 40.0001C63.3327 38.1634 61.8393 36.6667 59.9993 36.6667C58.1593 36.6667 56.666 38.1634 56.666 40.0001C56.666 41.3801 55.546 42.5001 54.166 42.5001C52.786 42.5001 51.666 41.3801 51.666 40.0001C51.666 35.4067 55.4027 31.6667 59.9993 31.6667C64.596 31.6667 68.3327 35.4067 68.3327 40.0001C68.3327 41.3801 67.2127 42.5001 65.8327 42.5001Z" fill="#367AF5"/>
<path d="M45.0001 65.0001C37.7201 65.0001 30.8801 62.1667 25.7335 57.0167C24.7568 56.0401 24.7568 54.4567 25.7335 53.4801C26.7101 52.5034 28.2935 52.5034 29.2701 53.4801C33.4701 57.6867 39.0568 60.0001 45.0001 60.0001C50.9435 60.0001 56.5301 57.6867 60.7335 53.4834C61.7101 52.5067 63.2935 52.5067 64.2701 53.4834C65.2468 54.4601 65.2468 56.0434 64.2701 57.0201C59.1201 62.1667 52.2801 65.0001 45.0001 65.0001Z" fill="#367AF5"/>
<path d="M71.6673 31.7867C71.1673 31.7867 70.6673 31.6367 70.234 31.3367C68.2506 29.9467 58.334 22.69 58.334 16C58.334 11.7067 61.9906 8.21668 66.484 8.21668C68.414 8.21668 70.234 8.86668 71.6673 9.98668C73.1007 8.86668 74.9207 8.21668 76.8507 8.21668C81.344 8.21334 85.0007 11.7067 85.0007 16C85.0007 22.69 75.084 29.95 73.1007 31.3367C72.6673 31.6367 72.1673 31.7867 71.6673 31.7867ZM66.484 13.2133C64.7473 13.2133 63.334 14.4633 63.334 15.9967C63.334 18.6633 67.8907 23.2533 71.6673 26.18C75.5107 23.2133 80.0007 18.6933 80.0007 15.9967C80.0007 14.4633 78.5873 13.2133 76.8507 13.2133C75.564 13.2133 74.4207 13.89 73.9373 14.9367C73.1173 16.7033 70.2206 16.7033 69.4007 14.9367C68.914 13.89 67.7706 13.2133 66.484 13.2133Z" fill="#367AF5"/>
<path d="M18.3333 85.12C17.8333 85.12 17.3333 84.97 16.9 84.67C14.9167 83.28 5 76.0234 5 69.3334C5 65.04 8.65667 61.5501 13.15 61.5501C15.08 61.5501 16.9 62.2001 18.3333 63.3201C19.7667 62.2001 21.5867 61.5501 23.5167 61.5501C28.01 61.5467 31.6667 65.04 31.6667 69.3334C31.6667 76.0234 21.75 83.2834 19.7667 84.67C19.3333 84.97 18.8333 85.12 18.3333 85.12ZM13.15 66.5467C11.4133 66.5467 10 67.7967 10 69.3301C10 71.9967 14.5567 76.5867 18.3333 79.5134C22.1767 76.5467 26.6667 72.0267 26.6667 69.3301C26.6667 67.7967 25.2533 66.5467 23.5167 66.5467C22.23 66.5467 21.0867 67.2234 20.6033 68.2701C19.7833 70.0367 16.8867 70.0367 16.0667 68.2701C15.58 67.2234 14.4367 66.5467 13.15 66.5467Z" fill="#367AF5"/>
</svg>
