<svg width="80" height="83" viewBox="0 0 80 83" fill="none" xmlns="http://www.w3.org/2000/svg">
<path fill-rule="evenodd" clip-rule="evenodd" d="M34.2017 3C25.2775 3 18.043 10.2345 18.043 19.1588C18.043 22.075 18.8145 24.9247 20.26 27.4261C19.3608 28.6089 18.8271 30.0846 18.8271 31.685V31.7002C18.8271 34.7488 20.4532 37.1041 21.8138 38.5577C22.4506 39.238 23.082 39.7785 23.5814 40.1666C23.954 45.1556 26.5493 49.5253 30.3802 52.2886L29.5989 55.706L12.604 60.886C8.75863 62.058 5.73807 65.0502 4.52954 68.8841L0.0800781 83H79.92L78.9591 79.9516L75.4702 68.8834C74.2616 65.0491 71.241 62.058 67.3957 60.8859L50.4011 55.7058L49.6209 52.2935C53.4559 49.5304 56.0542 45.158 56.4267 40.1655C56.9254 39.7773 57.556 39.2367 58.1918 38.5564C59.5506 37.1024 61.1734 34.7476 61.1734 31.7002V31.685C61.1734 29.9068 60.5145 28.2825 59.4276 27.0429L60.0787 25.3667L60.0844 25.3513C61.3164 22.042 62.0399 18.1795 61.4899 14.6244C60.9986 11.4485 59.4665 8.47585 56.4354 6.5543C56.4564 6.14839 56.4664 5.74172 56.4648 5.33475L56.4559 3H34.2017ZM45.3203 54.5146C43.6525 55.0831 41.8643 55.3916 40.004 55.3916C38.141 55.3916 36.3503 55.0822 34.6803 54.5121L34.1505 56.8294L39.9998 62.8253L45.8494 56.8291L45.3203 54.5146ZM49.1001 60.2097L43.919 65.5205L48.6436 67.8828L52.1813 61.1489L49.1001 60.2097ZM56.7454 62.54L50.6566 74.13L40.0002 68.8019L29.3437 74.13L23.2549 62.5401L13.9707 65.3699C11.6037 66.0913 9.74418 67.9332 9.00021 70.2933L6.47248 78.3125H16.2021V71.0063H20.8896V78.3125H59.1104V71.0064H63.7979V78.3125H73.5276L70.9996 70.2928C70.2557 67.9328 68.3965 66.0914 66.029 65.3697L56.7454 62.54ZM31.3567 67.8828L27.8191 61.1489L30.8998 60.2099L36.0808 65.5208L31.3567 67.8828ZM55.6971 23.7007L55.3141 24.6867L51.7168 20.0412C53.3577 17.6174 54.6858 14.8665 55.5158 11.9664C56.2296 12.9042 56.6566 14.0426 56.8575 15.341C57.2451 17.8462 56.7517 20.862 55.6971 23.7007ZM47.4519 17.9632C49.6243 14.9388 51.1634 11.322 51.6297 7.6875H34.2017C27.8663 7.6875 22.7305 12.8233 22.7305 19.1588C22.7305 21.1562 23.2358 23.1101 24.1853 24.8439C24.3346 24.8072 24.4858 24.7753 24.6388 24.7483L30.2144 17.5479L31.5949 17.7773C36.5609 18.6025 40.7694 18.6009 43.7201 18.3963C45.1946 18.2941 46.3517 18.1413 47.1283 18.017C47.2448 17.9983 47.3528 17.9803 47.4519 17.9632ZM27.0208 29.3283L32.2186 22.6159C37.0024 23.295 41.0775 23.2783 44.0444 23.0726C45.6365 22.9622 46.9127 22.7971 47.812 22.6547L52.9798 29.3283H54.1292C55.4307 29.3283 56.4859 30.3834 56.4859 31.685V31.7002C56.4859 33.0385 55.7584 34.295 54.767 35.3558C54.2916 35.8645 53.8097 36.2684 53.4466 36.544C53.2669 36.6804 53.1211 36.7817 53.0264 36.8452C52.9791 36.8769 52.945 36.8989 52.9262 36.9108L52.9107 36.9205L52.9097 36.9211L51.7854 37.5996V38.9227C51.7854 45.4293 46.5107 50.7041 40.004 50.7041C33.4973 50.7041 28.2226 45.4293 28.2226 38.9227V37.5986L27.0972 36.9205C27.0974 36.9206 27.0967 36.9202 27.0956 36.9195L27.0804 36.9099C27.0615 36.898 27.0273 36.876 26.9799 36.8443C26.885 36.7807 26.7389 36.6794 26.5588 36.5429C26.195 36.2672 25.7123 35.8632 25.236 35.3544C24.2426 34.2931 23.5146 33.0371 23.5146 31.7002V31.685C23.5146 30.3834 24.5697 29.3283 25.8714 29.3283H27.0208Z" fill="#367AF5"/>
<path fill-rule="evenodd" clip-rule="evenodd" d="M38.3221 67.8182L29.9033 59.1885L33.2586 55.9152L41.6774 64.5449L38.3221 67.8182Z" fill="#367AF5"/>
<path fill-rule="evenodd" clip-rule="evenodd" d="M57.6478 60.8224L50.6566 74.13L38.9521 68.2779L41.0484 64.0853L48.6436 67.8828L53.4981 58.6423L57.6478 60.8224Z" fill="#367AF5"/>
<path fill-rule="evenodd" clip-rule="evenodd" d="M31.3567 67.8828L26.5022 58.6423L22.3525 60.8224L29.3437 74.13L41.0482 68.2779L38.9519 64.0853L31.3567 67.8828Z" fill="#367AF5"/>
<path fill-rule="evenodd" clip-rule="evenodd" d="M50.0963 59.1885L41.6776 67.8182L38.3223 64.5449L46.741 55.9152L50.0963 59.1885Z" fill="#367AF5"/>
</svg>
