<svg width="70" height="70" viewBox="0 0 70 70" fill="none" xmlns="http://www.w3.org/2000/svg">
<mask id="mask0_767_119674" style="mask-type:alpha" maskUnits="userSpaceOnUse" x="0" y="0" width="70" height="70">
<path fill-rule="evenodd" clip-rule="evenodd" d="M25.3077 4.23664e-07C11.3306 9.76781e-07 -5.53117e-07 11.3306 0 25.3077L4.23664e-07 44.6923C7.29142e-07 58.6694 11.3306 70 25.3077 70H44.6923C47.0287 70 49.2911 69.6834 51.439 69.0908L39.3608 57.0126H28.6028C19.9787 57.0126 12.9874 50.0213 12.9874 41.3972L12.9874 28.6028C12.9874 19.9787 19.9787 12.9874 28.6028 12.9874L41.3972 12.9874C50.0213 12.9874 57.0126 19.9787 57.0126 28.6028V39.4869L69.0633 51.5377C69.6736 49.3604 70 47.0645 70 44.6923V25.3077C70 11.3306 58.6694 -3.05478e-07 44.6923 0L25.3077 4.23664e-07Z" fill="white"/>
<path fill-rule="evenodd" clip-rule="evenodd" d="M29.5335 18.4727C23.4252 18.4727 18.4734 23.4156 18.4734 29.5131V40.457C18.4734 46.5544 23.4252 51.4974 29.5335 51.4974H40.4969C40.8663 51.4974 41.2315 51.4793 41.5916 51.444L58.2314 68.0542L58.2332 68.0523L58.2332 68.056L67.9486 68.0377L67.967 58.3395L67.9633 58.3396L68.0567 58.2463L51.487 41.706C51.5332 41.2961 51.557 40.8793 51.557 40.457V29.5131C51.557 23.4156 46.6052 18.4727 40.4969 18.4727H29.5335Z" fill="white"/>
</mask>
<g mask="url(#mask0_767_119674)">
<rect x="-137" y="-51" width="0" height="216" fill="white"/>
<rect x="36" y="-51" width="250" height="216" fill="white" fill-opacity="0.35"/>
</g>
</svg>
