<svg width="30" height="30" viewBox="0 0 30 30" fill="none" xmlns="http://www.w3.org/2000/svg">
<path fill-rule="evenodd" clip-rule="evenodd" d="M15 4.6875C9.30456 4.6875 4.6875 9.30456 4.6875 15C4.6875 20.6954 9.30456 25.3125 15 25.3125C20.6954 25.3125 25.3125 20.6954 25.3125 15C25.3125 9.30456 20.6954 4.6875 15 4.6875ZM2.8125 15C2.8125 8.26903 8.26903 2.8125 15 2.8125C21.731 2.8125 27.1875 8.26903 27.1875 15C27.1875 21.731 21.731 27.1875 15 27.1875C8.26903 27.1875 2.8125 21.731 2.8125 15Z" fill="white"/>
<path d="M22.5 7.5L18.0938 11.9062M18.0938 11.9062C19.7788 13.5925 19.7788 16.4088 18.0938 18.0938M18.0938 11.9062C16.4088 10.2212 13.5925 10.2212 11.9062 11.9062M7.5 22.5L11.9062 18.0938M11.9062 18.0938C10.2212 16.4088 10.2212 13.5925 11.9062 11.9062M11.9062 18.0938C13.5912 19.7788 16.4075 19.7788 18.0938 18.0938M7.5 7.5L11.9062 11.9062M22.5 22.5L18.0938 18.0938" stroke="white" stroke-width="1.875" stroke-linecap="round" stroke-linejoin="round"/>
</svg>
