<svg width="32" height="32" viewBox="0 0 32 32" fill="none" xmlns="http://www.w3.org/2000/svg">
<path d="M16 4.00012L16.3934 3.08012C16.269 3.02693 16.1352 2.99951 16 2.99951C15.8648 2.99951 15.731 3.02693 15.6067 3.08012L16 4.00012ZM16 28.0001L15.504 28.8681C15.6551 28.9544 15.826 28.9998 16 28.9998C16.174 28.9998 16.345 28.9544 16.496 28.8681L16 28.0001ZM15.6054 3.08145L7.08269 6.73345L7.86669 8.57345L16.392 4.92012L15.6054 3.08145ZM5.66669 8.87878V18.0254H7.66669V8.87878H5.66669ZM10.2014 25.8388L15.504 28.8681L16.496 27.1321L11.1934 24.1014L10.2014 25.8388ZM16.496 28.8681L21.7987 25.8388L20.8067 24.1014L15.504 27.1321L16.496 28.8681ZM26.3334 18.0241V8.88012H24.3334V18.0268L26.3334 18.0241ZM24.92 6.73478L16.3934 3.08145L15.6067 4.91878L24.132 8.57345L24.92 6.73478ZM26.3334 8.88012C26.3334 7.94678 25.7774 7.10278 24.92 6.73478L24.132 8.57345C24.1919 8.59927 24.2429 8.64209 24.2787 8.69659C24.3145 8.7511 24.3335 8.81491 24.3334 8.88012H26.3334ZM21.7987 25.8388C23.1761 25.0517 24.321 23.9144 25.1174 22.5423C25.9137 21.1702 26.3332 19.6119 26.3334 18.0254H24.3334C24.3331 19.2592 24.0068 20.4709 23.3875 21.5379C22.7681 22.6049 21.8778 23.4893 20.8067 24.1014L21.7987 25.8388ZM5.66669 18.0254C5.66683 19.6119 6.08633 21.1702 6.88268 22.5423C7.67902 23.9144 8.82392 25.0517 10.2014 25.8388L11.1934 24.1014C10.122 23.4892 9.23158 22.6046 8.61225 21.5373C7.99292 20.4701 7.66672 19.2581 7.66669 18.0241L5.66669 18.0254ZM7.08002 6.73345C6.66056 6.91341 6.3031 7.21245 6.05189 7.59354C5.80067 7.97462 5.66675 8.42235 5.66669 8.87878H7.66669C7.66669 8.74545 7.74669 8.62412 7.86935 8.57078L7.08002 6.73345Z" fill="white"/>
<path d="M20 13.3335L14.6667 18.6668L12 16.0002" stroke="white" stroke-width="2" stroke-linecap="round" stroke-linejoin="round"/>
</svg>
