<svg width="60" height="50" viewBox="0 0 60 50" fill="none" xmlns="http://www.w3.org/2000/svg">
<path d="M0 7.7381H14.0413V11.9048H0V7.7381ZM0 0H14.0413V4.16667H0V0ZM25.1917 15.4167H0V19.5833H24.2478C26.9027 19.5833 33.0973 19.6429 35.3982 23.3929V21.0714C34.2773 17.381 30.9735 15.4167 25.1917 15.4167ZM25.2507 23.1548H0V27.3214H24.2478C30.1475 27.3214 33.8643 27.5595 35.3982 28.3929V26.5476C34.2183 23.631 29.2625 23.1548 25.2507 23.1548ZM25.1917 42.7976H0V38.631H24.2478C26.9027 38.631 33.0973 38.5714 35.3982 34.8214V37.1429C34.2773 40.8333 30.9735 42.7976 25.1917 42.7976ZM25.2507 35.0595H0V30.8929H24.2478C30.1475 30.8929 33.8643 30.6548 35.3982 29.8214V31.6667C34.2183 34.5833 29.2625 35.0595 25.2507 35.0595ZM41.5339 50H60.059V47.4405H42.0649C40.472 47.4405 36.6962 47.381 35.3392 45.1786V46.6071C35.9882 48.8095 37.9941 50 41.5339 50ZM41.4749 45.2976H60V42.7381H42.0649C38.4661 42.7381 36.2242 42.619 35.3392 42.0833V43.2143C36.0472 45 39.056 45.2976 41.4749 45.2976Z" fill="#17A1E6"/>
</svg>
