<svg width="75" height="80" viewBox="0 0 75 80" fill="none" xmlns="http://www.w3.org/2000/svg">
<path d="M68.1034 16.0345L42.931 1.55173C39.3103 -0.517242 34.8276 -0.517242 31.0345 1.55173L5.86203 16.0345C2.24137 18.1034 0 22.069 0 26.3793V55.3448C0 59.6552 2.24137 63.4483 5.86203 65.6897L31.2069 80V44.4827L23.9655 59.3103C23.7931 59.6552 23.6207 59.8276 23.4483 60C23.2759 60.1724 22.931 60.3448 22.4138 60.3448H10.862C10.5173 60.3448 10.3448 60.1724 10.3448 59.8276C10.3448 59.6552 10.3448 59.4827 10.5173 59.4827L20.1724 42.2414L10.5173 25.1724C10.5173 25 10.3448 25 10.3448 24.8276C10.3448 24.4827 10.5173 24.3103 10.862 24.3103H22.069C22.4138 24.3103 22.5862 24.4827 22.7586 24.6552C22.931 24.8276 23.1034 25 23.1034 25.3448L31.0345 40.5173V26.8966C31.0345 26.2069 31.0345 25.5173 31.2069 25C31.3793 24.4827 31.5517 24.138 31.7241 23.7931C32.069 23.4483 32.4138 23.2759 32.7586 23.1034C33.2759 22.931 33.7931 22.7586 34.4827 22.7586C35 22.7586 35.5173 22.5862 36.3793 22.5862C37.2414 22.5862 38.2759 22.4138 39.3103 22.4138C40.3448 22.4138 41.3793 22.2414 42.4138 22.2414C43.4483 22.2414 44.4827 22.2414 45.3448 22.2414C47.7586 22.2414 50 22.4138 52.069 22.931C54.138 23.2759 55.862 23.9655 57.2414 25C58.6207 26.0345 59.6552 27.2414 60.5173 28.7931C61.2069 30.3448 61.7241 32.4138 61.7241 34.6552V35.6897C61.7241 37.069 61.5517 38.2759 61.2069 39.3103C61.0345 39.8276 60.5173 40.862 60 41.5517C59.4827 42.4138 58.7931 43.1034 58.1034 43.6207C57.4138 44.138 56.7241 44.6552 56.0345 44.8276L62.931 57.7586C63.1034 57.931 63.1034 58.1034 63.1034 58.2759C63.1034 58.6207 62.931 58.7931 62.7586 58.9655C62.5862 59.1379 62.4137 59.138 62.069 59.138H51.8966C51.3793 59.138 51.2069 58.9655 51.0345 58.7931C50.862 58.6207 50.6897 58.4483 50.6897 58.1034L44.8276 46.3793H43.2759V79.8273L68.4483 65.3448C72.069 63.2759 74.3103 59.3103 74.3103 55V26.3793C74.138 22.069 71.8966 18.1034 68.1034 16.0345Z" fill="#6777EF"/>
<path d="M49.309 37.069C49.8262 36.5518 49.9987 35.8621 49.9987 35.1725V34.138C49.9987 33.2759 49.8262 32.5862 49.309 32.2414C48.7918 31.7242 47.9297 31.5518 46.7228 31.5518H42.9297V37.7586H46.7228C47.9297 37.9311 48.7918 37.5862 49.309 37.069Z" fill="#6777EF"/>
</svg>
