<svg width="102" height="52" viewBox="0 0 102 52" fill="none" xmlns="http://www.w3.org/2000/svg">
<path d="M80.6211 28.9953C79.1088 28.9953 77.8226 28.6501 76.7624 27.9596C75.7178 27.2534 75.0085 26.304 74.6343 25.1114L75.71 24.4758C76.0063 25.4958 76.5675 26.304 77.3938 26.9003C78.2357 27.4966 79.3115 27.7948 80.6211 27.7948C81.9463 27.7948 82.9597 27.4888 83.6613 26.8768C84.3785 26.2648 84.7371 25.4723 84.7371 24.4993C84.7371 23.5892 84.3941 22.8908 83.7081 22.4044C83.0221 21.9179 81.9541 21.4392 80.5042 20.9685C79.9741 20.7958 79.5843 20.6703 79.3349 20.5918C79.101 20.4977 78.758 20.3643 78.3059 20.1917C77.8538 20.0034 77.5186 19.8386 77.3003 19.6974C77.082 19.5561 76.817 19.3678 76.5052 19.1324C76.2089 18.897 75.9907 18.6616 75.8504 18.4262C75.71 18.1752 75.5853 17.8848 75.4762 17.5553C75.367 17.2101 75.3125 16.8334 75.3125 16.4254C75.3125 15.0915 75.7802 14.0244 76.7156 13.2241C77.6667 12.4081 78.8516 12.0001 80.2703 12.0001C81.5488 12.0001 82.6401 12.3218 83.5444 12.9652C84.4486 13.6086 85.1112 14.4403 85.5322 15.4603L84.4798 16.0488C83.7003 14.15 82.2971 13.2006 80.2703 13.2006C79.1478 13.2006 78.2513 13.4987 77.5809 14.095C76.9105 14.6914 76.5753 15.4525 76.5753 16.3783C76.5753 17.2728 76.8871 17.9398 77.5108 18.3792C78.1344 18.8186 79.1556 19.2736 80.5743 19.7444C81.4786 20.0426 82.1802 20.3015 82.6791 20.5212C83.1936 20.7252 83.7393 21.0155 84.3161 21.3922C84.9086 21.7531 85.3373 22.1925 85.6024 22.7104C85.8674 23.2125 85.9999 23.801 85.9999 24.4758C85.9999 25.8411 85.5088 26.9396 84.5266 27.7713C83.5444 28.5873 82.2426 28.9953 80.6211 28.9953Z" fill="#2A2A2A"/>
<path d="M70.6114 26.5237C68.9743 28.1714 66.9787 28.9953 64.6245 28.9953C62.2703 28.9953 60.2747 28.1714 58.6377 26.5237C57.0006 24.8603 56.1821 22.8516 56.1821 20.4977C56.1821 18.1438 57.0006 16.1429 58.6377 14.4952C60.2747 12.8318 62.2703 12.0001 64.6245 12.0001C66.9787 12.0001 68.9743 12.8318 70.6114 14.4952C72.2484 16.1429 73.0669 18.1438 73.0669 20.4977C73.0669 22.8516 72.2484 24.8603 70.6114 26.5237ZM59.503 25.6763C60.9061 27.0886 62.6133 27.7948 64.6245 27.7948C66.6357 27.7948 68.3351 27.0886 69.7227 25.6763C71.1258 24.2483 71.8274 22.522 71.8274 20.4977C71.8274 18.4733 71.1258 16.755 69.7227 15.3426C68.3351 13.9146 66.6357 13.2006 64.6245 13.2006C62.6133 13.2006 60.9061 13.9146 59.503 15.3426C58.1154 16.755 57.4216 18.4733 57.4216 20.4977C57.4216 22.522 58.1154 24.2483 59.503 25.6763Z" fill="#2A2A2A"/>
<path d="M47.1327 28.9953C44.6693 28.9953 42.6347 28.1793 41.0289 26.5472C39.423 24.8995 38.6201 22.883 38.6201 20.4977C38.6201 18.1124 39.423 16.1037 41.0289 14.4717C42.6347 12.8239 44.6693 12.0001 47.1327 12.0001C48.6294 12.0001 50.0013 12.361 51.2486 13.0829C52.4959 13.789 53.4625 14.7463 54.1485 15.9546L53.0493 16.5902C52.5037 15.5702 51.7007 14.7541 50.6406 14.1421C49.5804 13.5144 48.4111 13.2006 47.1327 13.2006C45.0123 13.2006 43.2662 13.9067 41.8942 15.3191C40.5378 16.7157 39.8596 18.4419 39.8596 20.4977C39.8596 22.5534 40.5378 24.2875 41.8942 25.6998C43.2662 27.0965 45.0123 27.7948 47.1327 27.7948C48.4111 27.7948 49.5882 27.481 50.664 26.8532C51.7397 26.2255 52.5504 25.386 53.0961 24.3346L54.1953 24.9701C53.5249 26.1942 52.5582 27.1749 51.2954 27.9125C50.0325 28.6344 48.645 28.9953 47.1327 28.9953Z" fill="#2A2A2A"/>
<path d="M31.2456 28.9953C29.7333 28.9953 28.4471 28.6501 27.3869 27.9596C26.3423 27.2534 25.633 26.304 25.2588 25.1114L26.3345 24.4758C26.6308 25.4958 27.192 26.304 28.0183 26.9003C28.8602 27.4966 29.936 27.7948 31.2456 27.7948C32.5708 27.7948 33.5842 27.4888 34.2858 26.8768C35.003 26.2648 35.3616 25.4723 35.3616 24.4993C35.3616 23.5892 35.0186 22.8908 34.3326 22.4044C33.6466 21.9179 32.5786 21.4392 31.1287 20.9685C30.5986 20.7958 30.2088 20.6703 29.9594 20.5918C29.7255 20.4977 29.3825 20.3643 28.9304 20.1917C28.4783 20.0034 28.1431 19.8386 27.9248 19.6974C27.7065 19.5561 27.4415 19.3678 27.1297 19.1324C26.8335 18.897 26.6152 18.6616 26.4749 18.4262C26.3345 18.1752 26.2098 17.8848 26.1007 17.5553C25.9916 17.2101 25.937 16.8334 25.937 16.4254C25.937 15.0915 26.4047 14.0244 27.3402 13.2241C28.2912 12.4081 29.4761 12.0001 30.8948 12.0001C32.1733 12.0001 33.2646 12.3218 34.1689 12.9652C35.0732 13.6086 35.7358 14.4403 36.1567 15.4603L35.1043 16.0488C34.3248 14.15 32.9216 13.2006 30.8948 13.2006C29.7723 13.2006 28.8758 13.4987 28.2054 14.095C27.535 14.6914 27.1998 15.4525 27.1998 16.3783C27.1998 17.2728 27.5117 17.9398 28.1353 18.3792C28.7589 18.8186 29.7801 19.2736 31.1989 19.7444C32.1031 20.0426 32.8047 20.3015 33.3036 20.5212C33.8181 20.7252 34.3638 21.0155 34.9406 21.3922C35.5331 21.7531 35.9618 22.1925 36.2269 22.7104C36.4919 23.2125 36.6244 23.801 36.6244 24.4758C36.6244 25.8411 36.1333 26.9396 35.1511 27.7713C34.1689 28.5873 32.8671 28.9953 31.2456 28.9953Z" fill="#2A2A2A"/>
<path d="M21.4145 24.5464L23.0048 28.7364H24.3144L17.9768 12.259H16.6672L10.3062 28.7364H11.6158L13.206 24.5464L13.6737 23.3694L17.322 13.789L20.9702 23.3694L21.4145 24.5464Z" fill="#9C292A"/>
<path d="M1.23946 27.5594H8.95687V28.7364H0V12.259H1.23946V27.5594Z" fill="#2A2A2A"/>
<path d="M43.2005 34.0414L37.7048 44.1868V50.5188H33.963V44.1868L28.4673 34.0414H32.7236L35.8339 40.397L38.9443 34.0414H43.2005Z" fill="#2A2A2A"/>
<path d="M26.4833 50.5188L25.6648 47.9295H19.5844L18.7659 50.5188H14.6733L20.2392 34.0414H25.01L30.5759 50.5188H26.4833ZM20.707 44.3987H24.5423L22.6246 38.3491L20.707 44.3987Z" fill="#2A2A2A"/>
<path d="M6.615 34.0414C8.87566 34.0414 10.7621 34.8339 12.2744 36.4189C13.8023 37.9882 14.5663 39.9419 14.5663 42.2801C14.5663 44.6184 13.8023 46.58 12.2744 48.1649C10.7621 49.7342 8.87566 50.5188 6.615 50.5188H0.0668945V34.0414H6.615ZM6.615 46.8938C7.90903 46.8938 8.95361 46.4779 9.74874 45.6462C10.5595 44.7988 10.9648 43.6768 10.9648 42.2801C10.9648 40.8835 10.5595 39.7693 9.74874 38.9376C8.95361 38.0902 7.90903 37.6665 6.615 37.6665H3.80867V46.8938H6.615Z" fill="#2A2A2A"/>
<path d="M86 6.64939C86.3995 6.13981 86.7559 5.64265 87.1555 5.17864C87.8487 4.37906 88.6478 3.72033 89.5408 3.17761C90.5827 2.54788 91.7068 2.19159 92.8975 2.10044C93.7749 2.03416 94.6366 2.1833 95.467 2.49402C97.2883 3.17346 98.7062 4.38734 99.6227 6.18538C99.9557 6.83996 100.195 7.5774 100.32 8.3107C100.571 9.74002 100.531 11.1859 100.308 12.6235C100.073 14.1481 99.6658 15.6271 99.1292 17.0564C98.4438 18.8793 97.5507 20.5945 96.642 22.3014C96.3443 22.8607 96.0153 23.4076 95.7451 24C95.8861 23.8426 96.0388 23.6934 96.172 23.5277C97.539 21.796 98.6827 19.9109 99.5757 17.8685C100.163 16.522 100.735 15.1548 101.201 13.7587C101.887 11.7038 102.177 9.57016 101.891 7.39512C101.667 5.69651 101.092 4.13462 100.101 2.75917C99.0861 1.35057 97.7113 0.563414 96.0937 0.211265C94.0687 -0.223743 92.1024 0.00411814 90.2498 0.977708C89.0786 1.59086 88.1308 2.51474 87.3474 3.61676C86.7638 4.42877 86.3525 5.32779 86.0627 6.29309C86.0313 6.40081 86.0235 6.51681 86 6.64939Z" fill="#9C292A"/>
</svg>
