<svg width="175" height="41" viewBox="0 0 175 41" fill="none" xmlns="http://www.w3.org/2000/svg">
<path d="M11.9776 8.72401C11.1357 9.41658 10.7147 10.3326 10.7147 11.4735C10.7147 12.6143 11.2292 13.52 12.257 14.1944C13.2861 14.8675 15.6601 15.6627 19.3815 16.5787C23.1029 17.4961 25.9927 18.8708 28.0496 20.7017C30.1065 22.5338 31.1357 25.2092 31.1357 28.724C31.1357 32.2414 29.8168 35.0923 27.1817 37.2804C24.5452 39.4686 21.0746 40.5613 16.7749 40.5613C10.5665 40.5613 4.97401 38.2601 0 33.6603L5.217 27.2648C9.44387 30.968 13.3524 32.817 16.9426 32.817C18.5499 32.817 19.8129 32.4727 20.7302 31.7801C21.6463 31.0889 22.1037 30.152 22.1037 28.9748C22.1037 27.7976 21.6177 26.862 20.6458 26.1694C19.6726 25.4795 17.7469 24.7778 14.8675 24.0657C10.3041 22.9821 6.96596 21.5696 4.85317 19.8311C2.74038 18.0925 1.68399 15.3625 1.68399 11.6411C1.68399 7.9197 3.02105 5.04938 5.69517 3.03015C8.36928 1.00962 11.7061 0 15.7095 0C18.3264 0 20.9446 0.448285 23.5629 1.34615C26.1798 2.24402 28.4628 3.51611 30.408 5.16112L25.9758 11.5567C22.5715 8.97609 19.0554 7.68581 15.4288 7.68581C13.9696 7.68711 12.8183 8.03274 11.9776 8.72401Z" fill="white"/>
<path d="M66.0304 0.897827H74.783V40.113H66.0304L47.3479 15.5405V40.113H38.5966V0.897827H46.7879L66.0304 26.1447V0.897827Z" fill="white"/>
<path d="M134.718 23.4524L141.675 0.899127H150.819L157.721 23.4524L165.518 0.899127H175L161.311 40.1143H154.802L146.221 12.8495L137.694 40.1143H131.185L117.495 0.897827H126.975L134.718 23.4524Z" fill="white"/>
<path d="M106.468 22.6234C104.21 24.8297 101.425 25.9342 98.1224 25.9342C94.8168 25.9342 92.0322 24.8297 89.7739 22.6234C87.5143 20.417 86.3839 17.6715 86.3839 14.3879C86.3839 11.1044 87.5143 8.35883 89.7739 6.15249C92.0335 3.94485 94.8168 2.84167 98.1224 2.84167C101.425 2.84167 104.21 3.94485 106.468 6.15249C108.728 8.35883 109.858 11.1044 109.858 14.3879C109.858 17.6715 108.728 20.417 106.468 22.6234ZM104.774 14.4035C104.774 12.4103 104.135 10.7094 102.855 9.30217C101.575 7.89495 100.003 7.19069 98.1354 7.19069C96.2695 7.19069 94.6973 7.89495 93.42 9.30217C92.1401 10.7094 91.4995 12.4103 91.4995 14.4035C91.4995 16.3968 92.1388 18.0925 93.42 19.4893C94.6973 20.8861 96.2695 21.5839 98.1354 21.5839C100.003 21.5839 101.574 20.8848 102.855 19.4893C104.135 18.0925 104.774 16.3968 104.774 14.4035Z" fill="white" stroke="white" stroke-width="2" stroke-miterlimit="10"/>
<path d="M110.052 36.107V38.0574H87.6962V36.107H110.052Z" fill="white" stroke="white" stroke-miterlimit="10"/>
</svg>
