<svg width="60" height="60" viewBox="0 0 60 60" fill="none" xmlns="http://www.w3.org/2000/svg">
<mask id="mask0_914_1048" style="mask-type:luminance" maskUnits="userSpaceOnUse" x="0" y="0" width="60" height="60">
<path d="M60 0H0V60H60V0Z" fill="white"/>
</mask>
<g mask="url(#mask0_914_1048)">
<path fill-rule="evenodd" clip-rule="evenodd" d="M0 0C0 16.5686 13.4315 30 30 30C13.4315 30 0 43.4316 0 60H3.6C3.6 45.4197 15.4197 33.6 30 33.6C44.5803 33.6 56.4 45.4197 56.4 60H60C60 43.4316 46.5684 30 30 30C46.5684 30 60 16.5686 60 0H56.4C56.4 14.5803 44.5803 26.4 30 26.4C15.4197 26.4 3.6 14.5803 3.6 0H0ZM7.2 0C7.2 12.5921 17.4079 22.8 30 22.8C42.5922 22.8 52.8 12.5921 52.8 0H49.2C49.2 10.6039 40.6038 19.2 30 19.2C19.3961 19.2 10.8 10.6039 10.8 0H7.2ZM14.4 0C14.4 8.61564 21.3844 15.6 30 15.6C38.6157 15.6 45.6 8.61564 45.6 0H42C42 6.62742 36.6273 12 30 12C23.3726 12 18 6.62742 18 0H14.4ZM30 37.2C42.5922 37.2 52.8 47.4078 52.8 60H49.2C49.2 49.3962 40.6038 40.8 30 40.8C19.3961 40.8 10.8 49.3962 10.8 60H7.2C7.2 47.4078 17.4079 37.2 30 37.2ZM30 44.4C38.6157 44.4 45.6 51.3843 45.6 60H42C42 53.3727 36.6273 48 30 48C23.3726 48 18 53.3727 18 60H14.4C14.4 51.3843 21.3844 44.4 30 44.4Z" fill="#E1D6F5"/>
</g>
</svg>
