<svg width="363" height="12" viewBox="0 0 363 12" fill="none" xmlns="http://www.w3.org/2000/svg">
<g clip-path="url(#clip0_61_10030)">
<path fill-rule="evenodd" clip-rule="evenodd" d="M360.58 4.5C356.57 4.5 353.32 7.85786 353.32 12L337.59 12C337.59 7.85786 334.339 4.5 330.33 4.5C326.32 4.5 323.07 7.85786 323.07 12L307.34 12C307.34 7.85786 304.089 4.5 300.08 4.5C296.07 4.5 292.82 7.85786 292.82 12L277.09 12C277.09 7.85786 273.839 4.5 269.83 4.5C265.82 4.5 262.57 7.85786 262.57 12L246.84 12C246.84 7.85786 243.589 4.5 239.58 4.5C235.57 4.5 232.32 7.85786 232.32 12L216.59 12C216.59 7.85786 213.339 4.5 209.33 4.5C205.32 4.5 202.07 7.85786 202.07 12L186.34 12C186.34 7.85786 183.089 4.5 179.08 4.5C175.07 4.5 171.82 7.85786 171.82 12L156.09 12C156.09 7.85786 152.839 4.5 148.83 4.5C144.82 4.5 141.57 7.85786 141.57 12L125.84 12C125.84 7.85786 122.589 4.5 118.58 4.5C114.57 4.5 111.32 7.85786 111.32 12L95.5897 12C95.5897 7.85786 92.3393 4.5 88.3297 4.5C84.3201 4.5 81.0697 7.85786 81.0697 12L65.3397 12C65.3397 7.85786 62.0893 4.5 58.0797 4.5C54.0701 4.5 50.8197 7.85786 50.8197 12L35.0897 12C35.0897 7.85786 31.8393 4.5 27.8297 4.5C23.8201 4.5 20.5697 7.85786 20.5697 12L4.83969 12C4.83969 8.73457 2.81961 5.95656 -3.09177e-07 4.92688L-5.24538e-07 -6.06728e-06L363 -2.19345e-05L363 4.92688C362.243 4.65042 361.428 4.5 360.58 4.5Z" fill="#9C292A"/>
</g>
<defs>
<clipPath id="clip0_61_10030">
<rect width="12" height="363" fill="white" transform="matrix(-4.37114e-08 -1 -1 4.37114e-08 363 12)"/>
</clipPath>
</defs>
</svg>
