<svg width="363" height="12" viewBox="0 0 363 12" fill="none" xmlns="http://www.w3.org/2000/svg">
<g clip-path="url(#clip0_61_9990)">
<path fill-rule="evenodd" clip-rule="evenodd" d="M360.58 7.5C356.57 7.5 353.32 4.14214 353.32 5.29891e-06L337.59 -1.11072e-06C337.59 4.14214 334.339 7.5 330.33 7.5C326.32 7.5 323.07 4.14214 323.07 -1.74541e-06L307.34 -1.47931e-06C307.34 4.14214 304.089 7.5 300.08 7.5C296.07 7.5 292.82 4.14214 292.82 -2.114e-06L277.09 -1.84791e-06C277.09 4.14214 273.839 7.5 269.83 7.5C265.82 7.5 262.57 4.14214 262.57 -2.4826e-06L246.84 -1.26283e-06C246.84 4.14214 243.589 7.5 239.58 7.5C235.57 7.5 232.32 4.14214 232.32 -1.89752e-06L216.59 -6.77752e-07C216.59 4.14214 213.339 7.5 209.33 7.5C205.32 7.5 202.07 4.14214 202.07 -1.31244e-06L186.34 -2.00002e-06C186.34 4.14214 183.089 7.5 179.08 7.5C175.07 7.5 171.82 4.14214 171.82 -2.63471e-06L156.09 -1.41494e-06C156.09 4.14214 152.839 7.5 148.83 7.5C144.82 7.5 141.57 4.14214 141.57 -2.04963e-06L125.84 -1.78354e-06C125.84 4.14214 122.589 7.5 118.58 7.5C114.57 7.5 111.32 4.14214 111.32 -2.41823e-06L95.5897 -1.19846e-06C95.5897 4.14214 92.3393 7.5 88.3297 7.5C84.3201 7.5 81.0697 4.14214 81.0697 -1.83315e-06L65.3397 -1.56705e-06C65.3397 4.14214 62.0893 7.5 58.0797 7.5C54.0701 7.5 50.8197 4.14214 50.8197 -2.20174e-06L35.0897 -9.81973e-07C35.0897 4.14214 31.8393 7.5 27.8297 7.5C23.8201 7.5 20.5697 4.14214 20.5697 -1.61666e-06L4.83969 -1.35057e-06C4.83969 3.26543 2.81961 6.04344 -3.09177e-07 7.07312L-5.24538e-07 12L363 12L363 7.07312C362.243 7.34958 361.428 7.5 360.58 7.5Z" fill="white"/>
</g>
<defs>
<clipPath id="clip0_61_9990">
<rect width="12" height="363" fill="white" transform="translate(363) rotate(90)"/>
</clipPath>
</defs>
</svg>
