<svg width="16" height="300" viewBox="0 0 16 300" fill="none" xmlns="http://www.w3.org/2000/svg">
<g clip-path="url(#clip0_55_7935)">
<path fill-rule="evenodd" clip-rule="evenodd" d="M0 0H10.3414C10.1203 0.625558 10 1.29873 10 2C10 5.31371 12.6863 8 16 8V21C12.6863 21 10 23.6863 10 27C10 30.3137 12.6863 33 16 33V46C12.6863 46 10 48.6863 10 52C10 55.3137 12.6863 58 16 58V71C12.6863 71 10 73.6863 10 77C10 80.3137 12.6863 83 16 83V96C12.6863 96 10 98.6863 10 102C10 105.314 12.6863 108 16 108V121C12.6863 121 10 123.686 10 127C10 130.314 12.6863 133 16 133V146C12.6863 146 10 148.686 10 152C10 155.314 12.6863 158 16 158V171C12.6863 171 10 173.686 10 177C10 180.314 12.6863 183 16 183V196C12.6863 196 10 198.686 10 202C10 205.314 12.6863 208 16 208V221C12.6863 221 10 223.686 10 227C10 230.314 12.6863 233 16 233V246C12.6863 246 10 248.686 10 252C10 255.314 12.6863 258 16 258V271C12.6863 271 10 273.686 10 277C10 280.314 12.6863 283 16 283V296C13.3876 296 11.1651 297.67 10.3414 300H0V0Z" fill="#9C292A"/>
</g>
<defs>
<clipPath id="clip0_55_7935">
<rect width="16" height="300" fill="white"/>
</clipPath>
</defs>
</svg>
