<svg width="16" height="300" viewBox="0 0 16 300" fill="none" xmlns="http://www.w3.org/2000/svg">
<g clip-path="url(#clip0_55_7927)">
<path fill-rule="evenodd" clip-rule="evenodd" d="M6 2C6 5.31371 3.31371 8 0 8V21C3.31371 21 6 23.6863 6 27C6 30.3137 3.31371 33 0 33V46C3.31371 46 6 48.6863 6 52C6 55.3137 3.31371 58 0 58V71C3.31371 71 6 73.6863 6 77C6 80.3137 3.31371 83 0 83V96C3.31371 96 6 98.6863 6 102C6 105.314 3.31371 108 0 108V121C3.31371 121 6 123.686 6 127C6 130.314 3.31371 133 0 133V146C3.31371 146 6 148.686 6 152C6 155.314 3.31371 158 0 158V171C3.31371 171 6 173.686 6 177C6 180.314 3.31371 183 0 183V196C3.31371 196 6 198.686 6 202C6 205.314 3.31371 208 0 208V221C3.31371 221 6 223.686 6 227C6 230.314 3.31371 233 0 233V246C3.31371 246 6 248.686 6 252C6 255.314 3.31371 258 0 258V271C3.31371 271 6 273.686 6 277C6 280.314 3.31371 283 0 283V296C2.61244 296 4.83492 297.67 5.65859 300H16V0H5.65859C5.87969 0.625558 6 1.29873 6 2Z" fill="white"/>
</g>
<defs>
<clipPath id="clip0_55_7927">
<rect width="16" height="300" fill="white"/>
</clipPath>
</defs>
</svg>
