<svg width="411" height="279" viewBox="0 0 411 279" fill="none" xmlns="http://www.w3.org/2000/svg">
<g opacity="0.1">
<mask id="mask0_1_470" style="mask-type:alpha" maskUnits="userSpaceOnUse" x="0" y="0" width="411" height="279">
<rect x="410.5" y="0.5" width="278" height="410" transform="rotate(90 410.5 0.5)" fill="url(#paint0_linear_1_470)" stroke="#6246E5"/>
</mask>
<g mask="url(#mask0_1_470)">
<path d="M136.506 371.92C67.1729 371.92 10.9663 315.635 10.9663 246.202C10.9663 176.769 67.1729 120.484 136.506 120.484C205.839 120.484 262.045 176.769 262.045 246.202C262.045 315.635 205.839 371.92 136.506 371.92Z" stroke="#6246E5"/>
<path d="M149.773 376.902C72.197 376.902 9.30797 313.925 9.30798 236.237C9.30798 158.55 72.197 95.5727 149.773 95.5727C227.349 95.5728 290.238 158.55 290.238 236.237C290.238 313.925 227.349 376.902 149.773 376.902Z" stroke="#6246E5"/>
<path d="M160.553 381.885C75.6493 381.885 6.82024 312.959 6.82024 227.934C6.82025 142.909 75.6493 73.9831 160.553 73.9831C245.456 73.9832 314.285 142.909 314.285 227.934C314.285 312.959 245.456 381.885 160.553 381.885Z" stroke="#6246E5"/>
<path d="M176.308 385.206C84.9932 385.206 10.9667 311.076 10.9667 219.63C10.9667 128.184 84.9932 54.0542 176.308 54.0542C267.623 54.0542 341.649 128.184 341.649 219.63C341.649 311.076 267.623 385.206 176.308 385.206Z" stroke="#6246E5"/>
<path d="M191.648 388.528C94.1509 388.528 15.1125 309.378 15.1125 211.742C15.1125 114.105 94.1509 34.9553 191.648 34.9553C289.145 34.9553 368.184 114.105 368.184 211.742C368.184 309.379 289.145 388.528 191.648 388.528Z" stroke="#6246E5"/>
<path d="M209.062 392.68C101.947 392.68 15.1125 305.723 15.1125 198.456C15.1125 91.1879 101.947 4.23143 209.062 4.23144C316.176 4.23144 403.01 91.1879 403.01 198.456C403.01 305.723 316.176 392.68 209.062 392.68Z" stroke="#6246E5"/>
</g>
</g>
<defs>
<linearGradient id="paint0_linear_1_470" x1="608.878" y1="11.5311" x2="384.42" y2="395.46" gradientUnits="userSpaceOnUse">
<stop stop-color="#747DEF"/>
<stop offset="1" stop-color="#5E3BE1"/>
</linearGradient>
</defs>
</svg>
