<svg width="390" height="438" viewBox="0 0 390 438" fill="none" xmlns="http://www.w3.org/2000/svg">
<path d="M392.934 276.956C421.92 266.863 453.852 263.149 477.246 281.846C497.599 298.114 504.253 327.569 498.932 353.017C493.608 378.472 478.224 400.489 461.064 419.741C398.831 489.568 311.455 530.85 223.917 563.041C123.96 599.802 19.727 627.2 -86.8292 632.99C-106.331 634.051 -126.943 634.137 -144.148 624.547C-159.259 616.13 -169.748 601.319 -179.065 586.626C-218.972 523.666 -247.225 453.256 -261.895 380.197C-264.903 365.22 -267.345 349.748 -264.524 334.806C-259.744 309.465 -240.974 290.374 -222.031 274.697C-200.411 256.804 -179.552 237.708 -158.036 219.423C-141.014 204.959 -123.901 190.604 -106.628 176.438C-72.1351 148.147 -37.0105 120.611 -0.813218 94.5616C35.3297 68.5543 72.5577 44.0345 111.135 21.8303C133.124 9.17753 157.893 -3.10861 182.88 2.0138C204.298 6.40492 221.277 22.7632 236.042 39.1745C261.964 67.9907 286.592 105.978 275.85 143.007C266.97 173.613 236.229 193.349 226.473 223.671C216.085 255.965 235.791 295.136 267.731 306.389C302.566 318.661 339.39 300.236 372.757 285.076C379.209 282.145 385.991 279.36 392.939 276.941L392.934 276.956Z" fill="url(#paint0_linear_161_392)"/>
<defs>
<linearGradient id="paint0_linear_161_392" x1="168.736" y1="17.3287" x2="331.969" y2="536.04" gradientUnits="userSpaceOnUse">
<stop stop-color="#337AB7"/>
<stop offset="1" stop-color="#2699D0"/>
</linearGradient>
</defs>
</svg>
