<svg width="1746" height="1291" viewBox="0 0 1746 1291" fill="none" xmlns="http://www.w3.org/2000/svg">
<path d="M194.043 824.902C121.558 830.431 48.7169 852.597 15.6266 915.336C-13.1596 969.922 0.279258 1040.17 35.9231 1090.38C71.58 1140.6 125.822 1173.84 181.302 1199.39C382.516 1292.07 611.291 1298.98 831.814 1286C1083.62 1271.18 1335.86 1231.99 1572.67 1143.68C1616.02 1127.52 1660.85 1108.2 1689.12 1071.09C1713.96 1038.51 1722.71 996.426 1729.03 955.707C1756.07 781.238 1750.75 601.63 1713.43 429.13C1705.79 393.765 1696.44 357.865 1676.17 328.095C1641.8 277.605 1582.98 253.926 1527.01 237.823C1463.14 219.444 1399.77 197.733 1335.75 178.404C1285.1 163.118 1234.36 148.152 1183.45 133.749C1081.78 104.984 979.457 78.4535 876.211 56.1664C773.123 33.9195 669.088 15.9293 564.315 4.24362C504.597 -2.40903 439.193 -5.63494 389.794 29.1409C347.451 58.9507 326.075 110.539 309.556 160.146C280.56 247.246 263.054 353.033 321.429 423.254C369.682 481.294 455.106 495.041 504.992 551.635C558.115 611.91 552.416 715.609 493.725 770.276C429.716 829.895 332.327 824.755 245.534 823.43C228.752 823.176 211.391 823.55 194.017 824.876L194.043 824.902Z" fill="url(#paint0_linear_4040_16)"/>
<defs>
<linearGradient id="paint0_linear_4040_16" x1="435" y1="49" x2="571.669" y2="1329.67" gradientUnits="userSpaceOnUse">
<stop stop-color="#337AB7"/>
<stop offset="1" stop-color="#2699D0"/>
</linearGradient>
</defs>
</svg>
