<svg width="69" height="56" viewBox="0 0 69 56" fill="none" xmlns="http://www.w3.org/2000/svg">
<path d="M6.45692 8.49769C11.192 3.30094 18.3572 0.666687 27.7498 0.666687H31.1248V10.2983L28.4113 10.8484C23.7875 11.7845 20.5712 13.6261 18.8499 16.3287C17.9518 17.7846 17.4424 19.4517 17.3717 21.1667H27.7498C28.6449 21.1667 29.5033 21.5267 30.1363 22.1674C30.7692 22.8082 31.1248 23.6772 31.1248 24.5834V48.5C31.1248 52.2686 28.0974 55.3334 24.3748 55.3334H4.1248C3.22969 55.3334 2.37125 54.9734 1.73831 54.3326C1.10538 53.6919 0.749798 52.8228 0.749798 51.9167V34.8334L0.759923 24.8601C0.729548 24.4809 0.0882981 15.495 6.45692 8.49769ZM61.4998 55.3334H41.2498C40.3547 55.3334 39.4962 54.9734 38.8633 54.3326C38.2304 53.6919 37.8748 52.8228 37.8748 51.9167V34.8334L37.8849 24.8601C37.8545 24.4809 37.2133 15.495 43.5819 8.49769C48.317 3.30094 55.4822 0.666687 64.8748 0.666687H68.2498V10.2983L65.5363 10.8484C60.9125 11.7845 57.6962 13.6261 55.9749 16.3287C55.0768 17.7846 54.5674 19.4517 54.4967 21.1667H64.8748C65.7699 21.1667 66.6284 21.5267 67.2613 22.1674C67.8942 22.8082 68.2498 23.6772 68.2498 24.5834V48.5C68.2498 52.2686 65.2224 55.3334 61.4998 55.3334Z" fill="white"/>
</svg>
