<svg width="387" height="420" viewBox="0 0 387 420" fill="none" xmlns="http://www.w3.org/2000/svg">
<path d="M354.023 84.1224L223.169 8.27586C204.347 -2.5594 181.045 -2.5594 161.327 8.27586L30.4727 84.1224C11.6514 94.9578 0 115.725 0 138.299V289.992C0 312.566 11.6514 332.43 30.4727 344.169L162.223 419.112V233.107L124.58 310.76C123.684 312.566 122.788 313.469 121.892 314.372C120.995 315.275 119.203 316.178 116.514 316.178H56.4643C54.6721 316.178 53.7758 315.275 53.7758 313.469C53.7758 312.566 53.7758 311.663 54.6721 311.663L104.863 221.369L54.6721 131.978C54.6721 131.075 53.7758 131.075 53.7758 130.172C53.7758 128.366 54.6721 127.463 56.4643 127.463H114.722C116.514 127.463 117.41 128.366 118.306 129.269C119.203 130.172 120.099 131.075 120.099 132.881L161.327 212.34V141.008C161.327 137.396 161.327 133.784 162.223 131.075C163.119 128.366 164.016 126.561 164.912 124.755C166.705 122.949 168.497 122.046 170.29 121.143C172.978 120.24 175.667 119.337 179.252 119.337C181.941 119.337 184.63 118.434 189.111 118.434C193.593 118.434 198.97 117.531 204.347 117.531C209.725 117.531 215.103 116.628 220.48 116.628C225.858 116.628 231.235 116.628 235.717 116.628C248.264 116.628 259.916 117.531 270.671 120.24C281.426 122.046 290.388 125.658 297.559 131.075C304.729 136.493 310.106 142.814 314.588 150.94C318.173 159.066 320.862 169.902 320.862 181.64V187.058C320.862 194.281 319.965 200.601 318.173 206.019C317.276 208.728 314.588 214.145 311.899 217.757C309.21 222.272 305.625 225.884 302.04 228.593C298.455 231.302 294.87 234.01 291.285 234.913L327.135 302.633C328.032 303.536 328.032 304.439 328.032 305.342C328.032 307.148 327.135 308.051 326.239 308.954C325.343 309.857 324.446 309.857 322.654 309.857H269.775C267.086 309.857 266.19 308.954 265.293 308.051C264.397 307.148 263.501 306.245 263.501 304.439L233.028 243.039H224.962V418.208L355.816 342.363C374.637 331.527 386.288 310.76 386.288 288.186V138.299C385.393 115.725 373.741 94.9578 354.023 84.1224Z" fill="#F2F7FF" fill-opacity="0.6"/>
</svg>
