<svg width="59" height="59" viewBox="0 0 59 59" fill="none" xmlns="http://www.w3.org/2000/svg">
<circle cx="29.5" cy="29.5" r="29.5" fill="#87EA4B"/>
<path d="M48.4293 18.8989C49.2019 18.1095 49.1883 16.8433 48.3989 16.0707C47.6095 15.2981 46.3433 15.3117 45.5707 16.1011L48.4293 18.8989ZM23.9286 40.9256L22.4858 42.3106L23.9286 40.9256ZM24.0722 40.9263L22.6428 39.5273L24.0722 40.9263ZM10.5572 29.8851L22.4858 42.3106L25.3713 39.5405L13.4428 27.1149L10.5572 29.8851ZM25.5015 42.3252L48.4293 18.8989L45.5707 16.1011L22.6428 39.5273L25.5015 42.3252ZM22.4858 42.3106C23.3067 43.1658 24.6723 43.1724 25.5015 42.3252L22.6428 39.5273C23.393 38.7609 24.6286 38.7668 25.3713 39.5405L22.4858 42.3106Z" fill="#252525"/>
</svg>
