<svg width="9" height="9" viewBox="0 0 9 9" fill="none" xmlns="http://www.w3.org/2000/svg">
<circle cx="4.5" cy="4.5" r="4.2" stroke="white" stroke-width="0.6"/>
<path d="M4.2184 5.161C4.22075 5.31451 4.34614 5.43756 4.49965 5.43756C4.65317 5.43756 4.77856 5.31334 4.7809 5.161L4.87465 2.63444C4.88051 2.53834 4.84536 2.44459 4.77739 2.37194C4.70473 2.29459 4.60395 2.25006 4.49965 2.25006C4.39536 2.25006 4.29458 2.29459 4.22192 2.37194C4.15395 2.44459 4.11879 2.53834 4.12465 2.63444L4.2184 5.161Z" fill="white"/>
<path d="M4.49976 6.75006C4.70686 6.75006 4.87476 6.58217 4.87476 6.37506C4.87476 6.16795 4.70686 6.00006 4.49976 6.00006C4.29265 6.00006 4.12476 6.16795 4.12476 6.37506C4.12476 6.58217 4.29265 6.75006 4.49976 6.75006Z" fill="white"/>
</svg>
