<svg width="12" height="12" viewBox="0 0 12 12" fill="none" xmlns="http://www.w3.org/2000/svg">
<circle cx="6" cy="6" r="5.7" fill="#DC2745" stroke="#252525" stroke-width="0.6"/>
<path d="M5.62535 6.88125C5.62848 7.08594 5.79567 7.25 6.00035 7.25C6.20504 7.25 6.37223 7.08437 6.37535 6.88125L6.50035 3.5125C6.50817 3.38438 6.46129 3.25938 6.37067 3.1625C6.27379 3.05938 6.13942 3 6.00035 3C5.86129 3 5.72692 3.05938 5.63004 3.1625C5.53942 3.25938 5.49254 3.38438 5.50035 3.5125L5.62535 6.88125Z" fill="#252525"/>
<path d="M6.00024 9C6.27639 9 6.50024 8.77614 6.50024 8.5C6.50024 8.22386 6.27639 8 6.00024 8C5.7241 8 5.50024 8.22386 5.50024 8.5C5.50024 8.77614 5.7241 9 6.00024 9Z" fill="#252525"/>
</svg>
