<svg width="475" height="417" viewBox="0 0 475 417" fill="none" xmlns="http://www.w3.org/2000/svg">
<path d="M183.443 109.522C185.3 109.901 187.064 110.755 189.183 111.494C189.871 111.895 191.322 112.249 191.62 110.453C192.031 108.23 192.203 106.27 192.787 104.465C198.129 88.2439 205.674 73.1795 216.098 59.6063C230.276 41.1457 247.284 25.8103 268.159 15.7228C301.285 -0.277783 336.149 -3.74566 372.058 4.06256C400.684 10.296 424.876 23.8753 442.584 47.8662C459.826 71.2571 469.73 97.7086 473.34 126.372L473.339 126.401C477.973 163.19 472.419 199.082 459.817 233.58C451.253 257.043 440.893 279.918 430.151 302.522C413.858 336.767 393.222 368.315 368.6 397.198C366.231 399.962 363.48 402.455 360.936 405.069L358.618 406.081C355.089 406.989 351.587 408.135 348.002 408.804C310.847 415.84 273.337 418.087 235.684 415.191C210.847 413.283 185.957 410.899 161.445 406.648C125.428 400.413 91.7123 387.342 62.3381 364.932C39.436 347.476 21.5831 325.652 10.0273 298.943C-1.81573 271.546 -1.4446 243.675 7.47143 215.64C18.6623 180.471 39.0259 151.803 69.3445 130.924C88.4835 117.754 110.18 110.589 133.157 107.452C150.064 105.132 166.813 106.109 183.443 109.522Z" fill="white"/>
</svg>
