<svg width="475" height="417" viewBox="0 0 475 417" fill="none" xmlns="http://www.w3.org/2000/svg">
<path d="M183.442 109.522C185.3 109.901 187.063 110.755 189.182 111.494C189.871 111.895 191.321 112.249 191.619 110.453C192.031 108.23 192.202 106.27 192.786 104.465C198.128 88.2439 205.674 73.1795 216.097 59.6063C230.276 41.1457 247.284 25.8103 268.158 15.7228C301.285 -0.277783 336.149 -3.74566 372.057 4.06256C400.684 10.296 424.875 23.8753 442.583 47.8662C459.826 71.2571 469.729 97.7086 473.339 126.372L473.339 126.401C477.972 163.19 472.419 199.082 459.817 233.58C451.253 257.043 440.892 279.918 430.151 302.522C413.857 336.767 393.222 368.315 368.599 397.198C366.23 399.962 363.48 402.455 360.935 405.069L358.617 406.081C355.088 406.989 351.586 408.135 348.001 408.804C310.847 415.84 273.337 418.087 235.683 415.191C210.846 413.283 185.956 410.899 161.444 406.648C125.428 400.413 91.7118 387.342 62.3376 364.932C39.4356 347.476 21.5826 325.652 10.0268 298.943C-1.81622 271.546 -1.44509 243.675 7.47094 215.64C18.6619 180.471 39.0254 151.803 69.344 130.924C88.483 117.754 110.179 110.589 133.156 107.452C150.064 105.132 166.812 106.109 183.442 109.522Z" fill="#DDDDDD"/>
</svg>
