<svg width="278" height="80" viewBox="0 0 278 80" fill="none" xmlns="http://www.w3.org/2000/svg">
<g clip-path="url(#clip0_1_343)">
<mask id="mask0_1_343" style="mask-type:luminance" maskUnits="userSpaceOnUse" x="-6" y="10" width="430" height="60">
<path d="M423.84 10H-5.50781V69.5798H423.84V10Z" fill="white"/>
</mask>
<g mask="url(#mask0_1_343)">
<path fill-rule="evenodd" clip-rule="evenodd" d="M75.2409 21.7856H82.8109C82.8874 21.7856 82.9638 21.8615 82.9638 21.9375L89.9986 42.1521C89.9986 42.2281 90.075 42.2281 90.075 42.1521L98.0273 21.8616C98.0273 21.7856 98.1038 21.7096 98.1803 21.7856H104.986C105.062 21.7856 105.062 21.8616 105.062 21.8616L86.2518 68.2943C86.2518 68.3703 86.1754 68.4463 86.0989 68.4463H79.8288C79.7523 68.4463 79.7523 68.4463 79.7523 68.3703C79.7523 68.3703 79.7523 68.3703 79.7523 68.2943L85.7166 53.0193C85.7166 52.9434 85.7166 52.8673 85.7166 52.7914L75.0116 21.9375C75.088 21.8615 75.088 21.8615 75.2409 21.7856C75.1645 21.7856 75.1645 21.7856 75.2409 21.7856ZM233.981 21.7856C246.062 21.7856 247.592 30.1449 247.592 37.5164C247.592 44.8879 246.062 53.2473 233.981 53.2473C221.9 53.2473 220.447 44.8119 220.447 37.5164C220.447 30.2209 221.9 21.7856 233.981 21.7856ZM238.569 46.6358C239.639 44.9639 240.098 42.0761 240.098 37.5164C240.098 32.1208 239.41 29.005 237.881 27.5611C236.963 26.7252 235.816 26.3452 233.981 26.3452C232.146 26.3452 230.999 26.7252 230.081 27.5611C228.552 29.005 227.864 32.1208 227.864 37.5164C227.864 42.0761 228.323 44.9639 229.393 46.6358C230.54 48.4597 232.375 48.6876 233.981 48.6876C235.587 48.6876 237.422 48.4597 238.569 46.6358ZM265.331 21.7856C276.801 21.7856 278.33 30.145 278.33 37.4405V53.0193C278.33 53.0953 278.254 53.1713 278.177 53.1713H270.99C270.913 53.1713 270.837 53.0953 270.837 53.0193C270.837 53.0193 270.837 36.7565 270.837 36.6045C270.837 32.3488 270.378 29.689 269.46 28.1691C268.39 26.4972 266.784 26.2692 265.331 26.2692H259.826C259.826 26.2692 259.749 26.2692 259.749 26.3452V53.0953C259.749 53.1713 259.673 53.2473 259.597 53.2473H252.409C252.332 53.2473 252.256 53.1713 252.256 53.0953V21.9375C252.256 21.8615 252.256 21.8615 252.332 21.7856H265.331ZM215.477 11.9062C215.553 11.9062 215.63 11.9822 215.63 12.0582V17.9858C215.63 18.0618 215.63 18.0618 215.553 18.1378H208.365C208.289 18.1378 208.289 18.1378 208.212 18.0618V12.1342C208.212 12.0582 208.289 11.9822 208.365 11.9822H215.477V11.9062ZM215.477 21.7856C215.553 21.7856 215.63 21.8616 215.63 21.8616V53.0193C215.63 53.0953 215.553 53.1713 215.477 53.1713H208.289C208.212 53.1713 208.136 53.0953 208.136 53.0193V21.8616C208.136 21.7856 208.212 21.7096 208.289 21.7096H215.477V21.7856ZM203.548 21.7856C203.625 21.7856 203.625 21.7856 203.701 21.8616V26.1172C203.701 26.1932 203.625 26.2692 203.548 26.2692C203.548 26.2692 198.119 26.2692 195.749 26.2692C195.749 26.2692 195.672 26.2692 195.672 26.3452V44.6599C195.672 48.6877 197.584 48.6876 198.349 48.6876H201.56C201.637 48.6876 201.713 48.7636 201.713 48.8396V53.0953C201.713 53.1713 201.637 53.2473 201.56 53.2473H196.361C191.62 53.2473 188.179 49.2956 188.179 43.824V16.6179C188.179 16.5419 188.255 16.4659 188.332 16.4659H195.519C195.596 16.4659 195.672 16.5419 195.672 16.6179V21.7856C195.672 21.7856 195.672 21.8616 195.749 21.8616L203.548 21.7856ZM153.158 21.7856C153.235 21.7856 153.311 21.7855 153.311 21.9375V26.1932C153.311 26.2692 153.235 26.3452 153.158 26.3452C153.158 26.3452 147.729 26.3452 145.359 26.3452C145.359 26.3452 145.282 26.3452 145.282 26.4212V44.7359C145.282 48.7636 147.194 48.7636 147.959 48.7636H151.094C151.17 48.7636 151.247 48.8396 151.247 48.9156V53.1713C151.247 53.2473 151.17 53.3233 151.094 53.3233H145.894C141.153 53.3233 137.712 49.3716 137.712 43.9V16.6939C137.712 16.6179 137.789 16.5419 137.865 16.5419H145.053C145.129 16.5419 145.206 16.6179 145.206 16.6939V21.8616V21.9375L153.158 21.7856ZM182.138 21.9375V53.0953C182.138 53.1713 182.062 53.2473 181.985 53.2473H174.798C174.721 53.2473 174.645 53.1713 174.645 53.1713V26.4212C174.645 26.4212 174.645 26.3452 174.568 26.3452H169.063C167.61 26.3452 166.004 26.5732 164.934 28.3971C164.016 30.069 163.557 32.9567 163.557 37.5164V44.3559C163.557 48.2317 165.087 48.7636 166.234 48.7636H171.204C171.28 48.7636 171.357 48.8396 171.357 48.8396V53.0953C171.357 53.1713 171.28 53.2473 171.204 53.2473H164.169C159.428 53.2473 155.987 49.2956 155.987 43.824V37.4405C155.987 30.145 157.44 21.7856 168.986 21.7856H181.832C182.138 21.7856 182.215 21.8615 182.138 21.9375ZM123.031 29.157C126.09 29.385 128.384 30.3729 129.837 32.2728C131.595 34.4007 132.513 37.4404 132.513 41.2402C132.513 51.7274 125.937 53.3233 122.037 53.3233H109.421C109.344 53.3233 109.268 53.2473 109.268 53.2473V48.9916C109.268 48.9156 109.344 48.8396 109.421 48.8396H119.59C124.484 48.8396 125.096 44.7359 125.096 42.4561V41.4682C125.096 37.8204 123.413 35.4646 120.737 35.3126L117.22 35.0086C111.562 34.6286 107.738 30.145 107.738 24.0654V23.6094C107.738 15.858 112.556 11.9822 119.208 11.9822H130.066C130.142 11.9822 130.219 12.0582 130.219 12.1342V16.3899C130.219 16.4659 130.142 16.5419 130.142 16.5419H120.355C117.296 16.5419 115.002 17.9098 115.002 22.9255C115.002 27.2572 116.99 28.7011 119.667 28.929L123.031 29.157ZM71.1883 21.9375V53.0953C71.1883 53.1713 71.1883 53.1713 71.1119 53.2473H63.9242C63.8478 53.2473 63.7713 53.2473 63.7713 53.1713V26.4212C63.7713 26.4212 63.7713 26.3452 63.6948 26.3452H58.1894C56.7366 26.3452 55.0543 26.5732 54.0603 28.3971C53.1427 30.069 52.6839 32.9567 52.6839 37.5164V44.3559C52.6839 48.2317 54.2132 48.7636 55.3602 48.7636H60.4069C60.4833 48.7636 60.5598 48.8396 60.5598 48.9156V53.1713C60.5598 53.2473 60.4833 53.3233 60.4069 53.3233H53.4486C48.7078 53.3233 45.2669 49.3716 45.2669 43.9V37.5164C45.2669 30.2209 46.7197 21.8616 58.2658 21.8616H71.1119C71.1119 21.7856 71.1883 21.8615 71.1883 21.9375ZM39.685 11.9822C39.7615 11.9822 39.8379 12.0582 39.8379 12.1342V53.0953C39.8379 53.1713 39.7615 53.2473 39.7615 53.2473H32.5738C32.4974 53.2473 32.4209 53.1713 32.4209 53.1713V12.1342C32.4209 12.0582 32.4974 11.9822 32.5738 11.9822H39.685ZM17.9691 11.9822C24.0098 11.9822 27.9095 17.0739 27.9095 24.9013C27.9095 28.9291 26.7625 32.3488 24.698 34.6286C23.0158 36.6045 20.5689 37.6684 17.9691 37.7444H10.9344C10.8579 37.7444 10.7815 37.7444 10.7815 37.6684V33.4127C10.7815 33.3367 10.8579 33.2607 10.9344 33.2607H15.9046C18.8867 33.2607 20.5689 30.297 20.5689 24.9013C20.5689 19.5057 18.8867 16.5419 15.9046 16.5419H7.64644C7.64644 16.5419 7.56997 16.5419 7.56997 16.6179V53.1713C7.56997 53.2473 7.49349 53.3233 7.41703 53.3233H0.152926C0.076462 53.3233 0 53.2473 0 53.1713V12.2102C0 12.1342 0.076462 12.0582 0.152926 12.0582L17.9691 11.9822Z" fill="#353030"/>
</g>
</g>
<defs>
<clipPath id="clip0_1_343">
<rect width="278" height="80" fill="white"/>
</clipPath>
</defs>
</svg>
