<svg width="203" height="80" viewBox="0 0 203 80" fill="none" xmlns="http://www.w3.org/2000/svg">
<path d="M203 58.9705L188.916 40.1162L201.784 23H196.951L186.485 36.964L176.019 23H171.216L184.054 40.1457L170 59H174.833L186.485 43.3863L198.167 59H203" fill="#353030"/>
<path d="M107 58.9705L92.9461 40.1162L105.784 23H100.981L90.5148 36.964L80.0485 23H75.2156L88.0836 40.1457L74 59H78.8329L90.5148 43.3863L102.167 59H107" fill="#353030"/>
<path d="M124.156 55.226H113.559V42.1351H124.156C128.184 42.1351 132.971 43.226 132.971 48.3857C132.971 54.3415 127.425 55.226 124.156 55.226ZM113.559 26.7445H124.156C127.016 26.7445 131.833 27.4521 131.833 32.4644C131.833 36.2383 129.03 38.5086 124.156 38.5086H113.559V26.7445ZM133.876 41.4865C133.117 40.8378 132.329 40.3366 131.512 39.9828C134.11 38.5676 135.832 35.8845 135.832 32.7887C135.832 30.4889 134.985 23 124.126 23H109.502V38.5381H104.627C103.985 39.3636 102.555 41.3391 102 42.1351H109.502V59H124.126C132.066 59 136.999 54.9607 136.999 48.4742C137.029 45.6437 135.949 43.226 133.876 41.4865Z" fill="#353030"/>
<path d="M156.53 56.1583C148.656 56.1583 143.16 49.9342 143.16 41C143.16 32.0658 148.656 25.8417 156.53 25.8417C164.374 25.8417 169.84 32.0658 169.84 41C169.84 49.9044 164.374 56.1583 156.53 56.1583ZM156.53 22C146.19 22 139 29.8025 139 41C139 52.1975 146.19 60 156.53 60C166.81 60 174 52.1975 174 41C174 29.8025 166.81 22 156.53 22Z" fill="#353030"/>
<path d="M27.5678 70.5421C22.8555 70.0925 18.0819 68.3964 13.9757 65.7127C10.5368 63.4649 9.76045 62.5454 9.76045 60.6995C9.76045 57.0008 13.8258 50.5163 20.7717 43.1327C24.7214 38.9368 30.2168 34.0189 30.8092 34.1483C31.9669 34.4072 41.2077 43.4392 44.667 47.6827C50.142 54.4125 52.6616 59.9161 51.3814 62.3683C50.4076 64.2346 44.381 67.8788 39.9547 69.2751C36.3047 70.4331 31.5106 70.9235 27.5678 70.5421ZM5.12304 56.8578C2.26977 52.4712 0.826114 48.1459 0.124714 41.8998C-0.106815 39.8359 -0.0250989 38.6575 0.649062 34.4208C1.48666 29.1419 4.48292 23.0388 8.09207 19.2789C9.63106 17.6782 9.76725 17.6373 11.6399 18.2708C13.9144 19.0405 16.3386 20.7161 20.1044 24.1286L22.3039 26.1176L21.1054 27.5957C15.5283 34.448 9.65149 44.1612 7.43834 50.1689C6.23302 53.4316 5.74953 56.7148 6.26707 58.077C6.61436 58.9966 6.29431 58.656 5.12304 56.8578ZM55.2425 57.6002C55.5217 56.2243 55.1675 53.6905 54.33 51.1362C52.5254 45.6052 46.4716 35.3063 40.9148 28.3109L39.1647 26.1108L41.0578 24.367C43.5298 22.092 45.2458 20.7297 47.0981 19.5786C48.5621 18.6658 50.6459 17.8621 51.5448 17.8621C52.0964 17.8621 54.0439 19.8851 55.617 22.0988C58.0549 25.5182 59.8458 29.6732 60.7515 33.9917C61.3371 36.7844 61.3848 42.758 60.8468 45.5371C60.4042 47.819 59.4645 50.782 58.552 52.7982C57.8642 54.3035 56.1618 57.2256 55.4127 58.1792C55.0314 58.656 55.0314 58.656 55.2425 57.6002ZM28.0717 16.8131C25.5045 15.5053 21.548 14.109 19.3621 13.7275C18.5926 13.5981 17.292 13.5232 16.4544 13.564C14.6498 13.6526 14.7315 13.564 17.6257 12.1949C20.0295 11.0574 22.0383 10.3899 24.7622 9.81773C27.8266 9.17064 33.5808 9.16383 36.5975 9.80411C39.8525 10.4921 43.6864 11.9225 45.8451 13.2507L46.4852 13.6458L45.0143 13.5709C42.0861 13.421 37.8232 14.6062 33.2403 16.8404C31.8579 17.5147 30.6594 18.0528 30.5709 18.0324C30.4892 18.0187 29.3588 17.467 28.0717 16.8131Z" fill="#353030"/>
</svg>
