<svg width="30" height="30" viewBox="0 0 30 30" fill="none" xmlns="http://www.w3.org/2000/svg">
<path d="M13.5066 29.9377C11.1972 29.7178 8.85776 28.8883 6.84537 27.5758C5.16003 26.4765 4.77958 26.0268 4.77958 25.124C4.77958 23.3151 6.77195 20.1438 10.176 16.5327C12.1116 14.4806 14.8048 12.0754 15.0952 12.1387C15.6625 12.2653 20.1912 16.6826 21.8866 18.758C24.5698 22.0493 25.8046 24.7409 25.1772 25.9402C24.6999 26.8529 21.7464 28.6352 19.5772 29.3181C17.7884 29.8844 15.4389 30.1243 13.5066 29.9377ZM2.50687 23.2452C1.10854 21.0998 0.401034 18.9845 0.0572914 15.9297C-0.0561769 14.9203 -0.0161293 14.344 0.314264 12.272C0.724752 9.69026 2.19317 6.70544 3.96194 4.86658C4.71617 4.08373 4.78291 4.06375 5.70067 4.37355C6.81533 4.74999 8.00341 5.56948 9.84894 7.23844L10.9269 8.21117L10.3395 8.93406C7.60627 12.2853 4.72618 17.0357 3.64156 19.9739C3.05085 21.5696 2.8139 23.1752 3.06754 23.8415C3.23774 24.2912 3.08089 24.1246 2.50687 23.2452ZM27.0694 23.6083C27.2063 22.9354 27.0327 21.6961 26.6222 20.4469C25.7378 17.7419 22.771 12.7051 20.0477 9.28384L19.1901 8.20784L20.1178 7.35504C21.3293 6.24239 22.1703 5.57614 23.078 5.01316C23.7955 4.56677 24.8167 4.17368 25.2573 4.17368C25.5276 4.17368 26.4821 5.16306 27.253 6.24573C28.4477 7.91802 29.3254 9.95009 29.7693 12.0621C30.0563 13.4279 30.0797 16.3495 29.816 17.7086C29.5991 18.8246 29.1386 20.2737 28.6914 21.2597C28.3543 21.996 27.52 23.4251 27.1529 23.8914C26.966 24.1246 26.966 24.1246 27.0694 23.6083ZM13.7536 3.66066C12.4954 3.02106 10.5564 2.33815 9.48518 2.1516C9.10806 2.0883 8.47063 2.05166 8.06015 2.07165C7.17576 2.11495 7.21581 2.07165 8.63416 1.40206C9.81223 0.84574 10.7967 0.519276 12.1317 0.23945C13.6334 -0.0770207 16.4535 -0.0803519 17.9319 0.232787C19.5271 0.569245 21.406 1.26881 22.4639 1.91841L22.7777 2.11162L22.0568 2.07498C20.6218 2.00169 18.5326 2.58133 16.2866 3.67399C15.6091 4.00378 15.0218 4.26695 14.9784 4.25696C14.9383 4.2503 14.3843 3.98046 13.7536 3.66066Z" fill="#353030"/>
</svg>
