<svg width="166" height="52" viewBox="0 0 166 52" fill="none" xmlns="http://www.w3.org/2000/svg">
<path d="M9.43125 35.389L0.296875 2.44531H8.26606L11.4672 17.379C12.2841 21.0572 12.8801 24.1938 13.2685 26.7886H13.5028C13.7708 24.9294 14.3736 21.813 15.3044 17.4325L18.6192 2.44531H26.5883L17.3401 35.389V51.1922H9.4247V35.389H9.43125Z" fill="#353030"/>
<path d="M28.9844 50.155C27.3773 49.0716 26.232 47.3861 25.5489 45.099C24.8727 42.8119 24.5312 39.7758 24.5312 35.977V30.8073C24.5312 26.9752 24.9196 23.8923 25.6964 21.5717C26.4732 19.251 27.6854 17.5523 29.3326 16.489C30.9802 15.4257 33.1431 14.8906 35.822 14.8906C38.4605 14.8906 40.5699 15.4323 42.1636 16.5158C43.7508 17.5991 44.9159 19.2978 45.6526 21.5984C46.3892 23.9057 46.7577 26.9752 46.7577 30.8073V35.977C46.7577 39.7758 46.3961 42.8253 45.6796 45.1257C44.9629 47.4331 43.7977 49.1185 42.1903 50.1817C40.5832 51.2452 38.4001 51.7801 35.6477 51.7801C32.8083 51.7866 30.5918 51.2384 28.9844 50.155ZM37.9983 44.5775C38.4402 43.4139 38.668 41.5212 38.668 38.8863V27.7913C38.668 25.2365 38.4471 23.364 37.9983 22.1869C37.5496 21.0032 36.7662 20.4147 35.6409 20.4147C34.5563 20.4147 33.7861 21.0032 33.3441 22.1869C32.8954 23.3707 32.6744 25.2365 32.6744 27.7913V38.8863C32.6744 41.5212 32.8886 43.4204 33.3174 44.5775C33.7459 45.7411 34.5159 46.3229 35.6409 46.3229C36.7662 46.3229 37.5496 45.7411 37.9983 44.5775Z" fill="#353030"/>
<path d="M72.6796 51.2037H66.3981L65.7016 46.8433H65.5276C63.8197 50.1336 61.2616 51.7787 57.8463 51.7787C55.4824 51.7787 53.7346 51.0029 52.6096 49.4583C51.4845 47.9065 50.9219 45.4857 50.9219 42.1954V15.5848H58.9514V41.727C58.9514 43.3189 59.1254 44.4489 59.4737 45.1246C59.8219 45.7999 60.4045 46.1409 61.2214 46.1409C61.9179 46.1409 62.5876 45.9271 63.2306 45.4991C63.8736 45.0708 64.3422 44.5291 64.6569 43.874V15.5781H72.6796V51.2037Z" fill="#353030"/>
<path d="M94.4968 8.90009H86.5276V51.1998H78.6723V8.90009H70.7031V2.45312H94.4968V8.90009Z" fill="#353030"/>
<path d="M113.859 51.2037H107.578L106.881 46.8433H106.707C105 50.1336 102.442 51.7787 99.026 51.7787C96.662 51.7787 94.9143 51.0029 93.7893 49.4583C92.6642 47.9065 92.1016 45.4857 92.1016 42.1954V15.5848H100.131V41.727C100.131 43.3189 100.305 44.4489 100.653 45.1246C101.002 45.7999 101.584 46.1409 102.401 46.1409C103.098 46.1409 103.767 45.9271 104.41 45.4991C105.053 45.0708 105.522 44.5291 105.837 43.874V15.5781H113.859V51.2037Z" fill="#353030"/>
<path d="M140.442 21.2734C139.953 19.0263 139.169 17.4012 138.085 16.3913C137 15.3815 135.506 14.8799 133.605 14.8799C132.131 14.8799 130.752 15.2945 129.473 16.1305C128.194 16.9665 127.202 18.0566 126.506 19.4142H126.446V0.648438H118.711V51.1942H125.341L126.158 47.8237H126.332C126.955 49.0274 127.885 49.9703 129.124 50.6727C130.363 51.3682 131.743 51.716 133.256 51.716C135.969 51.716 137.971 50.4654 139.25 47.9707C140.529 45.4694 141.172 41.5706 141.172 36.2607V30.6229C141.172 26.6436 140.924 23.5205 140.442 21.2734ZM133.082 35.8057C133.082 38.4005 132.975 40.4337 132.761 41.905C132.546 43.3763 132.191 44.4264 131.683 45.0415C131.18 45.6634 130.497 45.9711 129.647 45.9711C128.984 45.9711 128.374 45.8172 127.812 45.503C127.249 45.1953 126.794 44.7273 126.446 44.1119V23.895C126.713 22.9252 127.182 22.1361 127.845 21.5141C128.502 20.8922 129.225 20.5845 129.995 20.5845C130.812 20.5845 131.441 20.9055 131.884 21.5409C132.332 22.1829 132.64 23.253 132.814 24.7644C132.988 26.2758 133.076 28.4225 133.076 31.2112V35.8057H133.082Z" fill="#353030"/>
<path d="M152.552 37.8574C152.552 40.1445 152.619 41.8566 152.753 43.0003C152.886 44.1438 153.168 44.9732 153.596 45.5016C154.025 46.0231 154.681 46.2839 155.572 46.2839C156.771 46.2839 157.601 45.8158 158.043 44.8862C158.492 43.9566 158.733 42.4052 158.773 40.2383L165.697 40.6461C165.738 40.9538 165.758 41.3817 165.758 41.9235C165.758 45.2138 164.853 47.675 163.052 49.3001C161.251 50.9252 158.699 51.7411 155.404 51.7411C151.447 51.7411 148.674 50.5038 147.087 48.0227C145.493 45.5417 144.703 41.7096 144.703 36.5197V30.3002C144.703 24.9568 145.527 21.0511 147.174 18.5901C148.822 16.129 151.641 14.8984 155.639 14.8984C158.391 14.8984 160.507 15.4 161.981 16.4099C163.454 17.4197 164.492 18.9846 165.095 21.118C165.697 23.2514 165.999 26.194 165.999 29.9524V36.0517H152.552V37.8574ZM153.57 21.0712C153.161 21.5728 152.893 22.3954 152.753 23.539C152.619 24.6826 152.552 26.4147 152.552 28.7421V31.2969H158.425V28.7421C158.425 26.4548 158.344 24.7227 158.19 23.539C158.036 22.3553 157.755 21.526 157.346 21.0378C156.938 20.5563 156.309 20.3088 155.458 20.3088C154.601 20.3155 153.971 20.5696 153.57 21.0712Z" fill="#353030"/>
</svg>
