<svg width="12" height="12" viewBox="0 0 12 12" fill="none" xmlns="http://www.w3.org/2000/svg">
<path d="M6 0.000732422C2.68624 0.000732422 0 2.68707 0 6.00073C0 9.31458 2.68624 12.0007 6 12.0007C9.31376 12.0007 12 9.31458 12 6.00073C12 2.68707 9.31376 0.000732422 6 0.000732422ZM6 3.00073C6.41423 3.00073 6.75 3.33654 6.75 3.75073C6.75 4.16511 6.41423 4.50073 6 4.50073C5.58577 4.50073 5.25 4.16511 5.25 3.75073C5.25 3.33654 5.58577 3.00073 6 3.00073ZM7.125 9.00073H4.875C4.66791 9.00073 4.5 8.83301 4.5 8.62573C4.5 8.41864 4.66791 8.25073 4.875 8.25073H5.25V6.00073H4.875C4.66791 6.00073 4.5 5.83301 4.5 5.62573C4.5 5.41864 4.66791 5.25073 4.875 5.25073H6.375C6.58209 5.25073 6.75 5.41864 6.75 5.62573V8.25073H7.125C7.33209 8.25073 7.5 8.41864 7.5 8.62573C7.5 8.83301 7.33209 9.00073 7.125 9.00073Z" fill="#707070"/>
</svg>
