<svg width="44" height="44" viewBox="0 0 44 44" fill="none" xmlns="http://www.w3.org/2000/svg">
<path d="M41.7708 30.3381L36.3968 37.9511C36.1983 38.2075 35.9424 38.3756 35.6291 38.4286C35.3291 38.4773 35.0291 38.4065 34.7732 38.2297L27.8064 33.2825V41.8373C27.8064 42.4827 27.299 43 26.6505 43H17.3408C16.6922 43 16.1716 42.4739 16.1716 41.8373V33.2825L9.21811 38.2297C8.69309 38.6011 7.95619 38.4773 7.59442 37.9511L2.22042 30.3381C1.84103 29.8164 1.96459 29.0825 2.48961 28.7111L11.9183 22L2.48961 15.2932C1.96459 14.9175 1.84103 14.1924 2.22042 13.6619L7.59442 6.04881C7.95619 5.53158 8.69309 5.39893 9.21811 5.77918L16.1761 10.7175V2.17154C16.1761 1.51723 16.7011 1 17.3452 1H26.6593C27.3079 1 27.8152 1.52608 27.8152 2.17154V10.7263L34.782 5.77918C35.0335 5.59348 35.3335 5.53158 35.6335 5.58463C35.9512 5.63325 36.2115 5.80126 36.4057 6.04881L41.7885 13.6619C42.1502 14.1924 42.0399 14.9175 41.5193 15.2932L32.0686 22L41.5105 28.7111C42.0355 29.0825 42.1414 29.8164 41.7708 30.3381Z" fill="url(#paint0_linear_24527_570)"/>
<defs>
<linearGradient id="paint0_linear_24527_570" x1="15.289" y1="40.0769" x2="21.0407" y2="-1.61105" gradientUnits="userSpaceOnUse">
<stop stop-color="#03C068"/>
<stop offset="1" stop-color="#97E4C4"/>
</linearGradient>
</defs>
</svg>
