<svg width="56" height="50" viewBox="0 0 56 50" fill="none" xmlns="http://www.w3.org/2000/svg">
<path d="M29.6384 30.7185C28.8499 29.3527 26.8176 29.3526 26.029 30.7185L16.9834 46.386C16.1936 47.7541 17.2138 49.5117 18.7881 49.5117H36.8793C38.4536 49.5117 39.4738 47.7539 38.684 46.386L29.6384 30.7185ZM18.9677 47.3243L27.8337 31.9679L36.6998 47.3243H18.9677ZM55.7216 11.199L51.4219 3.75169C51.2386 3.43528 50.9754 3.17253 50.6587 2.98969C50.342 2.80685 49.9829 2.71033 49.6172 2.70977H41.0177C40.652 2.71033 40.2929 2.80684 39.9762 2.98966C39.6595 3.17248 39.3963 3.4352 39.213 3.75158L34.9132 11.199C34.7308 11.516 34.6348 11.8753 34.6348 12.241C34.6348 12.6066 34.7308 12.9659 34.9132 13.2829L39.2129 20.7302C39.3962 21.0466 39.6594 21.3094 39.9761 21.4922C40.2928 21.6751 40.6519 21.7716 41.0176 21.7722H49.6171C50.3593 21.7722 51.0508 21.3729 51.4218 20.7303L55.7216 13.2829C55.904 12.9659 56 12.6066 56 12.241C56 11.8753 55.904 11.516 55.7216 11.199ZM49.5574 19.5846H41.0775L36.8376 12.241L41.0775 4.89719H49.5574L53.7973 12.2409L49.5574 19.5846ZM19.0625 19.6883V17.0541C19.0087 15.6044 16.9282 15.6055 16.875 17.0541V19.5846H2.18753V4.89719H16.875V7.49325C16.9288 8.94293 19.0092 8.94183 19.0625 7.49325V4.7935C19.0625 3.6445 18.1277 2.70966 16.9787 2.70966H2.08384C0.934843 2.70966 0 3.6445 0 4.7935V19.6883C0 20.8373 0.934843 21.7722 2.08384 21.7722H16.9787C18.1277 21.7722 19.0625 20.8373 19.0625 19.6883Z" fill="white"/>
<path d="M18.8784 11.6337C18.5455 11.1385 17.8587 11.0021 17.3614 11.3319C16.1963 12.1917 17.3327 13.8976 18.5754 13.1508C19.0707 12.8195 19.2094 12.1299 18.8784 11.6337ZM22.3824 3.45148C26.5904 2.21235 31.2689 2.46228 35.306 4.16702C35.8564 4.39693 36.5072 4.12961 36.737 3.57978C36.97 3.02239 36.7072 2.38177 36.1498 2.14869C31.6544 0.250789 26.4533 -0.027794 21.7685 1.35199C21.1887 1.52153 20.8562 2.12901 21.0256 2.7087C21.1952 3.2884 21.8024 3.62123 22.3824 3.45148ZM18.1759 40.1614C18.4887 39.6446 18.3236 38.9721 17.8067 38.6593C12.7869 35.6196 9.44359 30.559 8.6342 24.7752C8.55052 24.1769 7.99752 23.7592 7.39944 23.8436C6.80115 23.9273 6.3841 24.48 6.46777 25.0783C7.36871 31.5164 11.0886 37.1485 16.6737 40.5304C17.1842 40.8396 17.8672 40.6711 18.1759 40.1614ZM48.2419 24.1221C47.6452 24.0303 47.0863 24.4398 46.9945 25.0368C46.1583 30.4703 43.0217 35.3146 38.3888 38.3276C37.8824 38.6569 37.7389 39.3344 38.0682 39.8408C38.3931 40.3402 39.0814 40.4865 39.5815 40.1614C44.7357 36.8093 48.2257 31.4179 49.1565 25.3697C49.2485 24.7725 48.839 24.214 48.2419 24.1221Z" fill="#74F0C3"/>
</svg>
