<svg width="56" height="56" viewBox="0 0 56 56" fill="none" xmlns="http://www.w3.org/2000/svg">
<g clip-path="url(#clip0_0_164)">
<path d="M55.6587 4.55879C55.5422 4.4691 55.4051 4.41009 55.2599 4.38715C55.1146 4.36422 54.966 4.37811 54.8275 4.42754L0.664997 17.5263C0.505837 17.5658 0.360883 17.649 0.246478 17.7665C0.132072 17.884 0.0527651 18.0311 0.0174973 18.1913C-0.016849 18.3507 -0.00550796 18.5165 0.0502163 18.6698C0.10594 18.823 0.203785 18.9574 0.332497 19.0575L12.6437 28.8225L12.25 50.7325C12.2475 50.9039 12.2953 51.0722 12.3875 51.2166C12.4797 51.361 12.6123 51.4753 12.7687 51.5451C12.9252 51.615 13.0987 51.6374 13.2678 51.6096C13.4369 51.5818 13.5941 51.505 13.72 51.3888L25.76 40.1188L34.3787 48.7463C34.4786 48.8466 34.6013 48.9213 34.7363 48.9638C34.8713 49.0064 35.0146 49.0156 35.154 48.9907C35.2933 48.9657 35.4245 48.9074 35.5364 48.8206C35.6482 48.7339 35.7374 48.6213 35.7962 48.4925L55.9212 5.61754C56.0024 5.43717 56.0207 5.23476 55.9731 5.04278C55.9255 4.85079 55.8148 4.68036 55.6587 4.55879ZM2.82625 18.8038L49.0875 7.61254L13.615 27.3525L2.82625 18.8038ZM14.3937 28.9275L47.145 10.6925L20.0375 33.04C19.9299 33.1256 19.8456 33.237 19.7925 33.3638L14.0787 46.3925L14.3937 28.9275ZM15.6362 47.1975L20.8775 35.245L24.5175 38.8763L15.6362 47.1975ZM34.7375 46.6288L21.8925 33.7838L52.6837 8.40004L34.7375 46.6288Z" fill="white"/>
<path fill-rule="evenodd" clip-rule="evenodd" d="M55.2618 4.38575C55.407 4.40868 55.5442 4.4677 55.6607 4.55739C55.8167 4.67895 55.9274 4.84939 55.975 5.04137C56.0226 5.23336 56.0043 5.43576 55.9232 5.61614L35.7982 48.4911C35.7393 48.6199 35.6502 48.7325 35.5383 48.8192C35.4264 48.906 35.2952 48.9643 35.1559 48.9893C35.0165 49.0142 34.8732 49.005 34.7382 48.9624C34.6032 48.9199 34.4805 48.8452 34.3807 48.7449L27.8367 42.1943L19.5924 33.8231L19.7944 33.3624C19.8476 33.2356 19.9318 33.1242 20.0394 33.0386L47.1469 10.6911L14.3957 28.9261L14.3736 30.1503L12.2758 28.5277L0.33442 19.0561C0.205708 18.956 0.107863 18.8216 0.0521393 18.6684C-0.00358584 18.5151 -0.014926 18.3493 0.0194196 18.1899C0.0546875 18.0297 0.133995 17.8826 0.248401 17.7651C0.362805 17.6476 0.50776 17.5644 0.66692 17.5249L54.8294 4.42614C54.9679 4.37671 55.1166 4.36282 55.2618 4.38575ZM49.0894 7.61114L2.82817 18.8024L13.6169 27.3511L49.0894 7.61114ZM21.8944 33.7824L34.7394 46.6274L52.6857 8.39864L21.8944 33.7824Z" fill="#74F0C3"/>
</g>
<defs>
<clipPath id="clip0_0_164">
<rect width="56" height="56" fill="white"/>
</clipPath>
</defs>
</svg>
