<svg width="167" height="165" viewBox="0 0 167 165" fill="none" xmlns="http://www.w3.org/2000/svg">
<path d="M161.91 80.0307C160.593 38.3731 125.989 5 83.5071 5C41.0248 5 5.05078 39.7058 5.05078 82.5044C5.05078 83.8585 5.08316 85.2019 5.14792 86.5347C5.56885 94.4782 7.18785 102.112 9.843 109.245C20.8737 138.865 49.6918 159.998 83.5071 159.998C117.322 159.998 145.309 139.462 156.675 110.504C160.085 101.824 161.953 92.3777 161.953 82.5044C161.953 81.6727 161.942 80.8517 161.91 80.0307Z" fill="url(#paint0_linear_9_1018)"/>
<g opacity="0.23" filter="url(#filter0_f_9_1018)">
<path fill-rule="evenodd" clip-rule="evenodd" d="M113.696 88.9816C114.076 86.8045 116.17 85.3438 118.374 85.7189C128.683 87.4738 137.758 89.6033 144.985 91.5404C147.143 92.1188 148.418 94.3161 147.832 96.4482C147.247 98.5802 145.023 99.8397 142.864 99.2612C135.839 97.3783 127.016 95.3078 116.999 93.6027C114.795 93.2276 113.316 91.1586 113.696 88.9816Z" fill="white"/>
</g>
<g opacity="0.23" filter="url(#filter1_f_9_1018)">
<path fill-rule="evenodd" clip-rule="evenodd" d="M46.2143 88.2414C46.6388 90.4104 45.2031 92.5087 43.0075 92.928C36.7847 94.1166 30.619 95.6915 24.5755 97.7268C22.4588 98.4396 20.158 97.3224 19.4364 95.2314C18.7149 93.1405 19.8458 90.8675 21.9624 90.1547C28.3901 87.99 34.9181 86.3249 41.4702 85.0735C43.6658 84.6541 45.7898 86.0725 46.2143 88.2414Z" fill="white"/>
</g>
<path fill-rule="evenodd" clip-rule="evenodd" d="M0.492188 82.5044C0.492188 37.1892 38.5374 0.5 83.5037 0.5C128.448 0.5 165.056 35.8018 166.459 79.8732C166.493 80.7647 166.504 81.6415 166.504 82.5044C166.504 92.9411 164.53 102.939 160.919 112.13C148.902 142.747 119.278 164.498 83.5037 164.498C47.718 164.498 17.2331 142.132 5.56454 110.799L5.56429 110.799C2.75244 103.244 1.04048 95.1661 0.595552 86.77L0.594562 86.7505C0.526259 85.3448 0.492188 83.9294 0.492188 82.5044ZM83.5037 9.5C43.5053 9.5 9.60262 42.2225 9.60262 82.5044C9.60262 83.7843 9.63314 85.0526 9.69405 86.3093C10.0918 93.7965 11.6176 100.983 14.1149 107.692C24.508 135.599 51.659 155.498 83.5037 155.498C115.36 155.498 141.71 136.178 152.424 108.877L152.425 108.875C155.634 100.709 157.394 91.8136 157.394 82.5044C157.394 81.7096 157.384 80.9504 157.354 80.2059L157.353 80.1712C156.113 40.9352 123.518 9.5 83.5037 9.5Z" fill="black"/>
<defs>
<filter id="filter0_f_9_1018" x="110.637" y="82.6602" width="40.3379" height="19.7417" filterUnits="userSpaceOnUse" color-interpolation-filters="sRGB">
<feFlood flood-opacity="0" result="BackgroundImageFix"/>
<feBlend mode="normal" in="SourceGraphic" in2="BackgroundImageFix" result="shape"/>
<feGaussianBlur stdDeviation="1.5" result="effect1_foregroundBlur_9_1018"/>
</filter>
<filter id="filter1_f_9_1018" x="16.2188" y="82" width="33.0701" height="18.9419" filterUnits="userSpaceOnUse" color-interpolation-filters="sRGB">
<feFlood flood-opacity="0" result="BackgroundImageFix"/>
<feBlend mode="normal" in="SourceGraphic" in2="BackgroundImageFix" result="shape"/>
<feGaussianBlur stdDeviation="1.5" result="effect1_foregroundBlur_9_1018"/>
</filter>
<linearGradient id="paint0_linear_9_1018" x1="5.05078" y1="82.499" x2="161.953" y2="82.499" gradientUnits="userSpaceOnUse">
<stop stop-color="#1AD7CE"/>
<stop offset="1" stop-color="#C35CF0"/>
</linearGradient>
</defs>
</svg>
