<svg width="167" height="165" viewBox="0 0 167 165" fill="none" xmlns="http://www.w3.org/2000/svg">
<path d="M161.909 80.0307C152.282 71.4689 129.929 56.6909 88.0726 53.6202C39.2655 50.027 13.0702 76.6934 5.14792 86.5347C5.08316 85.202 5.05078 83.8585 5.05078 82.5044C5.05078 39.7058 40.1721 5 83.5071 5C126.842 5 160.593 38.3731 161.909 80.0307Z" fill="url(#paint0_linear_9_1048)"/>
<g opacity="0.23" filter="url(#filter0_f_9_1048)">
<path fill-rule="evenodd" clip-rule="evenodd" d="M25.8958 54.8325C25.1143 55.6017 23.4352 57.0094 20.8719 57.302C16.9599 57.7485 13.4222 54.9777 12.9702 51.1131C12.6601 48.4623 13.8824 45.9854 15.9433 44.547C16.236 44.0449 16.589 43.3799 17.0976 42.4217C17.2464 42.1413 17.4085 41.8358 17.5864 41.502C19.3588 38.175 22.0197 33.3581 26.2212 28.4851C34.8851 18.4366 49.3905 8.96926 74.5081 8.56184C99.3751 8.15848 116.972 16.5289 128.371 25.1873C134.034 29.4883 138.132 33.8294 140.84 37.1375C142.196 38.7938 143.21 40.1989 143.903 41.2221C144.25 41.7341 144.517 42.1514 144.708 42.4581C144.803 42.6114 144.88 42.7372 144.937 42.8334C144.966 42.8815 144.99 42.9222 145.009 42.9553L145.034 42.9992L145.045 43.0168L145.049 43.0245C145.051 43.028 145.053 43.0314 138.846 46.4992L145.053 43.0314C146.992 46.4176 145.784 50.7152 142.357 52.6304C138.938 54.5403 134.603 53.3596 132.656 49.9947C132.655 49.9923 132.652 49.9885 132.649 49.9834C132.635 49.9599 132.604 49.9081 132.556 49.8299C132.458 49.6734 132.291 49.4117 132.053 49.0599C131.576 48.3556 130.814 47.2945 129.751 45.996C127.622 43.3946 124.309 39.8719 119.679 36.3558C110.495 29.3801 95.9807 22.3033 74.7422 22.6478C53.7544 22.9883 43.1068 30.6273 37.0776 37.62C33.9326 41.2676 31.8619 44.955 30.2062 48.063C30.085 48.2905 29.9602 48.5264 29.8327 48.7674C29.1733 50.0136 28.4421 51.3955 27.7679 52.4545C27.3557 53.102 26.7346 54.0067 25.8958 54.8325ZM132.647 49.9796C132.647 49.9792 132.647 49.9788 132.647 49.9784C132.646 49.9766 132.645 49.9748 132.644 49.973C132.644 49.9731 132.644 49.9731 132.644 49.9731L132.647 49.9784L132.647 49.9786L132.647 49.9796ZM15.5739 45.1363C15.5739 45.1362 15.5758 45.1336 15.5795 45.1288C15.5757 45.1339 15.5739 45.1364 15.5739 45.1363Z" fill="white"/>
</g>
<path fill-rule="evenodd" clip-rule="evenodd" d="M10.0127 74.7677C23.3134 62.4831 48.7673 46.2143 88.4078 49.1326C122.013 51.5982 143.59 61.4613 156.338 70.0441C150.473 35.6404 120.76 9.5 83.5037 9.5C45.3308 9.5 13.924 38.09 10.0127 74.7677ZM0.492188 82.5044C0.492188 37.2209 37.6526 0.5 83.5037 0.5C129.339 0.5 165.067 35.8426 166.459 79.8903C166.516 81.6921 165.479 83.3536 163.824 84.1125C162.169 84.8714 160.215 84.5813 158.858 83.3752C149.955 75.4571 128.547 61.1021 87.7319 58.1078L87.7308 58.1077C41.0055 54.6678 17.4268 74.9025 10.0127 84.1125C8.83204 85.5792 5.55194 91.3927 3.74654 90.8176C1.94115 90.2425 0.685515 88.6223 0.594566 86.7505C0.526263 85.3448 0.492188 83.9294 0.492188 82.5044Z" fill="black"/>
<path d="M156.672 110.505C145.306 139.464 116.834 160 83.504 160C50.1743 160 20.8706 138.867 9.83984 109.247C65.4036 86.3229 132.808 103.169 156.672 110.505Z" fill="url(#paint1_linear_9_1048)"/>
<path fill-rule="evenodd" clip-rule="evenodd" d="M15.7773 111.76C27.2374 137.501 53.6771 155.5 83.5055 155.5C113.142 155.5 138.711 138.26 150.486 113.367C137.961 109.777 117.844 104.963 94.7565 103.012C69.7354 100.898 41.5272 102.172 15.7773 111.76ZM95.533 94.045C122.748 96.3449 145.905 102.482 158.027 106.208C159.232 106.579 160.227 107.426 160.776 108.549C161.324 109.672 161.377 110.969 160.92 112.132C148.898 142.764 118.778 164.5 83.5055 164.5C48.2219 164.5 17.2407 142.149 5.56633 110.801C4.72405 108.539 5.83491 106.023 8.08595 105.094C36.7984 93.2486 68.3565 91.7483 95.533 94.045Z" fill="black"/>
<defs>
<filter id="filter0_f_9_1048" x="5.92236" y="1.54785" width="147.056" height="62.8013" filterUnits="userSpaceOnUse" color-interpolation-filters="sRGB">
<feFlood flood-opacity="0" result="BackgroundImageFix"/>
<feBlend mode="normal" in="SourceGraphic" in2="BackgroundImageFix" result="shape"/>
<feGaussianBlur stdDeviation="3.5" result="effect1_foregroundBlur_9_1048"/>
</filter>
<linearGradient id="paint0_linear_9_1048" x1="83.4747" y1="4.69079" x2="83.4747" y2="156.053" gradientUnits="userSpaceOnUse">
<stop stop-color="#1AD7CE"/>
<stop offset="1" stop-color="#C35CF0"/>
</linearGradient>
<linearGradient id="paint1_linear_9_1048" x1="83.2557" y1="4.6922" x2="83.2557" y2="156.054" gradientUnits="userSpaceOnUse">
<stop stop-color="#1AD7CE"/>
<stop offset="1" stop-color="#C35CF0"/>
</linearGradient>
</defs>
</svg>
