<svg width="59" height="56" viewBox="0 0 59 56" fill="none" xmlns="http://www.w3.org/2000/svg">
<path d="M52.0703 9C46.6616 2.71892 38.6021 0.5 29.6005 0.5C20.1293 0.5 10.1121 5.14391 4.71712 12C0.835716 16.9326 0.113281 21.1324 0.113281 27.8638C0.113281 33.618 1.80223 38.9826 4.71712 43.5C9.95176 51.6125 17.5219 55.5 27.9823 55.5C36.9839 55.5 46.6616 53.0087 52.0703 46.7276C56.4468 41.6452 58.8566 35.0592 58.8566 27.8638C58.8566 20.6685 56.4468 14.0824 52.0703 9Z" fill="black"/>
<path d="M28.6333 16.9993C32.9073 16.9993 36.3721 20.422 36.3721 24.6442C36.3721 28.8663 32.1714 31.3672 27.8974 31.3672C23.6234 31.3672 20.8945 28.8663 20.8945 24.6442C20.8945 20.422 24.3593 16.9993 28.6333 16.9993Z" fill="#E2FFFF"/>
</svg>
