<svg width="59" height="56" viewBox="0 0 59 56" fill="none" xmlns="http://www.w3.org/2000/svg">
<path d="M52.0078 9C46.5991 2.71892 38.5396 0.5 29.538 0.5C20.0668 0.5 10.0496 5.14391 4.65462 12C0.773216 16.9326 0.0507812 21.1324 0.0507812 27.8638C0.0507812 33.618 1.73973 38.9826 4.65462 43.5C9.88926 51.6125 17.4594 55.5 27.9198 55.5C36.9214 55.5 46.5991 53.0087 52.0078 46.7276C56.3843 41.6452 58.7941 35.0592 58.7941 27.8638C58.7941 20.6685 56.3843 14.0824 52.0078 9Z" fill="black"/>
<path d="M28.5708 31.3679C32.8448 31.3679 36.3096 27.9452 36.3096 23.723C36.3096 19.5009 32.1089 17 27.8349 17C23.5609 17 20.832 19.5009 20.832 23.723C20.832 27.9452 24.2968 31.3679 28.5708 31.3679Z" fill="#E2FFFF"/>
</svg>
