<svg width="74" height="18" viewBox="0 0 74 18" fill="none" xmlns="http://www.w3.org/2000/svg">
<path d="M4.78926 15.9998C2.40798 15.9861 0.438232 11.1251 0.438232 8.64954C0.438232 4.60566 3.47183 3.72035 4.64095 3.72035C5.16783 3.72035 5.73042 3.92725 6.22664 4.11035C6.57364 4.23807 6.93251 4.36991 7.13211 4.36991C7.25158 4.36991 7.53311 4.25775 7.78167 4.15935C8.31176 3.94832 8.97139 3.68604 9.73951 3.68604C9.74089 3.68604 9.74273 3.68604 9.74408 3.68604C10.3176 3.68604 12.0567 3.81191 13.1022 5.38204L13.3471 5.75007L12.9947 6.01604C12.4911 6.39597 11.5724 7.08904 11.5724 8.46188C11.5724 10.0878 12.6129 10.7132 13.1128 11.0139C13.3334 11.1467 13.5618 11.2835 13.5618 11.5829C13.5618 11.7784 12.0018 15.9756 9.7363 15.9756C9.18195 15.9756 8.79011 15.809 8.44448 15.662C8.09476 15.5133 7.79308 15.3851 7.29458 15.3851C7.04189 15.3851 6.72236 15.5046 6.38408 15.6314C5.9218 15.8039 5.39855 15.9998 4.80483 15.9998H4.78926Z" fill="white"/>
<path d="M9.97954 0C10.0385 2.12737 8.51713 3.60325 6.9975 3.51069C6.74709 1.81297 8.51694 0 9.97954 0Z" fill="white"/>
<path d="M22.03 5.00012H23.08L21.652 0.800117H20.428L19 5.00012H20.05L20.26 4.34012H21.82L22.03 5.00012ZM20.548 3.44012L21.04 1.89812L21.532 3.44012H20.548Z" fill="white"/>
<path d="M25.2049 2.00012L24.5809 3.90212L23.9569 2.00012H22.9609L24.0709 5.00012H25.0909L26.2009 2.00012H25.2049Z" fill="white"/>
<path d="M28.592 2.00012V2.28212C28.394 2.05412 28.1 1.91612 27.698 1.91612C26.912 1.91612 26.264 2.60612 26.264 3.50012C26.264 4.39412 26.912 5.08412 27.698 5.08412C28.1 5.08412 28.394 4.94612 28.592 4.71812V5.00012H29.492V2.00012H28.592ZM27.878 4.23212C27.464 4.23212 27.164 3.95012 27.164 3.50012C27.164 3.05012 27.464 2.76812 27.878 2.76812C28.292 2.76812 28.592 3.05012 28.592 3.50012C28.592 3.95012 28.292 4.23212 27.878 4.23212Z" fill="white"/>
<path d="M30.1523 5.00012H31.0523V0.620117H30.1523V5.00012Z" fill="white"/>
<path d="M32.1609 1.73612C32.4549 1.73612 32.7009 1.49012 32.7009 1.19612C32.7009 0.902117 32.4549 0.656117 32.1609 0.656117C31.8669 0.656117 31.6209 0.902117 31.6209 1.19612C31.6209 1.49012 31.8669 1.73612 32.1609 1.73612ZM31.7109 5.00012H32.6109V2.00012H31.7109V5.00012Z" fill="white"/>
<path d="M35.0635 1.91612C34.6615 1.91612 34.3675 2.05412 34.1695 2.28212V0.800117H33.2695V5.00012H34.1695V4.71812C34.3675 4.94612 34.6615 5.08412 35.0635 5.08412C35.8495 5.08412 36.4975 4.39412 36.4975 3.50012C36.4975 2.60612 35.8495 1.91612 35.0635 1.91612ZM34.8835 4.23212C34.4695 4.23212 34.1695 3.95012 34.1695 3.50012C34.1695 3.05012 34.4695 2.76812 34.8835 2.76812C35.2975 2.76812 35.5975 3.05012 35.5975 3.50012C35.5975 3.95012 35.2975 4.23212 34.8835 4.23212Z" fill="white"/>
<path d="M37.0077 5.00012H37.9077V0.620117H37.0077V5.00012Z" fill="white"/>
<path d="M39.3703 3.86012H41.5003C41.5243 3.74612 41.5363 3.62612 41.5363 3.50012C41.5363 2.59412 40.8883 1.91612 40.0123 1.91612C39.0643 1.91612 38.4163 2.60612 38.4163 3.50012C38.4163 4.39412 39.0523 5.08412 40.0783 5.08412C40.6483 5.08412 41.0923 4.87412 41.3863 4.46612L40.6663 4.05212C40.5463 4.18412 40.3363 4.28012 40.0903 4.28012C39.7603 4.28012 39.4843 4.17212 39.3703 3.86012ZM39.3523 3.18812C39.4363 2.88212 39.6643 2.71412 40.0063 2.71412C40.2763 2.71412 40.5463 2.84012 40.6423 3.18812H39.3523Z" fill="white"/>
<path d="M44.9868 5.08412C45.8688 5.08412 46.5768 4.39412 46.5768 3.50012C46.5768 2.60612 45.8688 1.91612 44.9868 1.91612C44.1048 1.91612 43.3968 2.60612 43.3968 3.50012C43.3968 4.39412 44.1048 5.08412 44.9868 5.08412ZM44.9868 4.20812C44.5968 4.20812 44.2968 3.92612 44.2968 3.50012C44.2968 3.07412 44.5968 2.79212 44.9868 2.79212C45.3768 2.79212 45.6768 3.07412 45.6768 3.50012C45.6768 3.92612 45.3768 4.20812 44.9868 4.20812Z" fill="white"/>
<path d="M48.8439 1.91612C48.4479 1.91612 48.1479 2.06012 47.9859 2.28212V2.00012H47.0859V5.00012H47.9859V3.36212C47.9859 2.93612 48.2139 2.74412 48.5439 2.74412C48.8319 2.74412 49.0659 2.91812 49.0659 3.29012V5.00012H49.9659V3.15812C49.9659 2.34812 49.4499 1.91612 48.8439 1.91612Z" fill="white"/>
<path d="M53.8419 2.86412V2.00012H53.2239V1.16012L52.3239 1.43012V2.00012H51.8439V2.86412H52.3239V3.92612C52.3239 4.76612 52.6659 5.12012 53.8419 5.00012V4.18412C53.4459 4.20812 53.2239 4.18412 53.2239 3.92612V2.86412H53.8419Z" fill="white"/>
<path d="M56.1095 1.91612C55.7135 1.91612 55.4135 2.06012 55.2515 2.28212V0.800117H54.3515V5.00012H55.2515V3.36212C55.2515 2.93612 55.4795 2.74412 55.8095 2.74412C56.0975 2.74412 56.3315 2.91812 56.3315 3.29012V5.00012H57.2315V3.15812C57.2315 2.34812 56.7155 1.91612 56.1095 1.91612Z" fill="white"/>
<path d="M58.6535 3.86012H60.7835C60.8075 3.74612 60.8195 3.62612 60.8195 3.50012C60.8195 2.59412 60.1715 1.91612 59.2955 1.91612C58.3475 1.91612 57.6995 2.60612 57.6995 3.50012C57.6995 4.39412 58.3355 5.08412 59.3615 5.08412C59.9315 5.08412 60.3755 4.87412 60.6695 4.46612L59.9495 4.05212C59.8295 4.18412 59.6195 4.28012 59.3735 4.28012C59.0435 4.28012 58.7675 4.17212 58.6535 3.86012ZM58.6355 3.18812C58.7195 2.88212 58.9475 2.71412 59.2895 2.71412C59.5595 2.71412 59.8295 2.84012 59.9255 3.18812H58.6355Z" fill="white"/>
<path d="M24.05 16.0001H25.8L23.42 9.00012H21.38L19 16.0001H20.75L21.1 14.9001H23.7L24.05 16.0001ZM21.58 13.4001L22.4 10.8301L23.22 13.4001H21.58Z" fill="white"/>
<path d="M29.3369 10.8601C28.6669 10.8601 28.1769 11.0901 27.8469 11.4701V11.0001H26.3469V18.0001H27.8469V15.5301C28.1769 15.9101 28.6669 16.1401 29.3369 16.1401C30.6469 16.1401 31.7269 14.9901 31.7269 13.5001C31.7269 12.0101 30.6469 10.8601 29.3369 10.8601ZM29.0369 14.7201C28.3469 14.7201 27.8469 14.2501 27.8469 13.5001C27.8469 12.7501 28.3469 12.2801 29.0369 12.2801C29.7269 12.2801 30.2269 12.7501 30.2269 13.5001C30.2269 14.2501 29.7269 14.7201 29.0369 14.7201Z" fill="white"/>
<path d="M35.5673 10.8601C34.8973 10.8601 34.4073 11.0901 34.0773 11.4701V11.0001H32.5773V18.0001H34.0773V15.5301C34.4073 15.9101 34.8973 16.1401 35.5673 16.1401C36.8773 16.1401 37.9573 14.9901 37.9573 13.5001C37.9573 12.0101 36.8773 10.8601 35.5673 10.8601ZM35.2673 14.7201C34.5773 14.7201 34.0773 14.2501 34.0773 13.5001C34.0773 12.7501 34.5773 12.2801 35.2673 12.2801C35.9573 12.2801 36.4573 12.7501 36.4573 13.5001C36.4573 14.2501 35.9573 14.7201 35.2673 14.7201Z" fill="white"/>
<path d="M38.8078 16.0001H40.3078V8.70012H38.8078V16.0001Z" fill="white"/>
<path d="M42.7455 14.1001H46.2955C46.3355 13.9101 46.3555 13.7101 46.3555 13.5001C46.3555 11.9901 45.2755 10.8601 43.8155 10.8601C42.2355 10.8601 41.1555 12.0101 41.1555 13.5001C41.1555 14.9901 42.2155 16.1401 43.9255 16.1401C44.8755 16.1401 45.6155 15.7901 46.1055 15.1101L44.9055 14.4201C44.7055 14.6401 44.3555 14.8001 43.9455 14.8001C43.3955 14.8001 42.9355 14.6201 42.7455 14.1001ZM42.7155 12.9801C42.8555 12.4701 43.2355 12.1901 43.8055 12.1901C44.2555 12.1901 44.7055 12.4001 44.8655 12.9801H42.7155Z" fill="white"/>
<path d="M52.2062 16.1401C53.7262 16.1401 54.8063 15.3401 54.8063 13.9901C54.8063 12.5101 53.6163 12.1401 52.5563 11.8201C51.4663 11.4901 51.2962 11.2701 51.2962 10.9501C51.2962 10.6701 51.5462 10.4201 52.0462 10.4201C52.6862 10.4201 53.0162 10.7301 53.2562 11.2301L54.6063 10.4401C54.0963 9.41012 53.1963 8.86012 52.0462 8.86012C50.8363 8.86012 49.6963 9.64012 49.6963 10.9901C49.6963 12.3301 50.7162 12.8301 51.7562 13.1201C52.8062 13.4101 53.2062 13.5801 53.2062 14.0101C53.2062 14.2801 53.0162 14.5801 52.2562 14.5801C51.4662 14.5801 51.0363 14.1901 50.7862 13.6101L49.4062 14.4101C49.7962 15.4401 50.7362 16.1401 52.2062 16.1401Z" fill="white"/>
<path d="M58.3394 12.4401V11.0001H57.3094V9.60012L55.8094 10.0501V11.0001H55.0094V12.4401H55.8094V14.2101C55.8094 15.6101 56.3794 16.2001 58.3394 16.0001V14.6401C57.6794 14.6801 57.3094 14.6401 57.3094 14.2101V12.4401H58.3394Z" fill="white"/>
<path d="M61.491 16.1401C62.961 16.1401 64.141 14.9901 64.141 13.5001C64.141 12.0101 62.961 10.8601 61.491 10.8601C60.021 10.8601 58.841 12.0101 58.841 13.5001C58.841 14.9901 60.021 16.1401 61.491 16.1401ZM61.491 14.6801C60.841 14.6801 60.341 14.2101 60.341 13.5001C60.341 12.7901 60.841 12.3201 61.491 12.3201C62.141 12.3201 62.641 12.7901 62.641 13.5001C62.641 14.2101 62.141 14.6801 61.491 14.6801Z" fill="white"/>
<path d="M66.4895 11.8901V11.0001H64.9895V16.0001H66.4895V13.7401C66.4895 12.7501 67.3695 12.5001 67.9895 12.6001V10.9001C67.3595 10.9001 66.6895 11.2201 66.4895 11.8901Z" fill="white"/>
<path d="M69.8841 14.1001H73.4341C73.4741 13.9101 73.4941 13.7101 73.4941 13.5001C73.4941 11.9901 72.4141 10.8601 70.9541 10.8601C69.3741 10.8601 68.2941 12.0101 68.2941 13.5001C68.2941 14.9901 69.3541 16.1401 71.0641 16.1401C72.0141 16.1401 72.7541 15.7901 73.2441 15.1101L72.0441 14.4201C71.8441 14.6401 71.4941 14.8001 71.0841 14.8001C70.5341 14.8001 70.0741 14.6201 69.8841 14.1001ZM69.8541 12.9801C69.9941 12.4701 70.3741 12.1901 70.9441 12.1901C71.3941 12.1901 71.8441 12.4001 72.0041 12.9801H69.8541Z" fill="white"/>
</svg>
