<svg width="79" height="20" viewBox="0 0 79 20" fill="none" xmlns="http://www.w3.org/2000/svg">
<g clip-path="url(#clip0_237_2)">
<path d="M11.5075 10.0018L1.46393 19.673C0.993605 19.3516 0.714365 18.817 0.719303 18.2473V1.75626C0.714365 1.18663 0.993605 0.65199 1.46393 0.330566L11.5075 10.0018Z" fill="#2196F3"/>
<path d="M15.0217 6.62364L11.5074 10.0018L1.46387 0.330532C1.50171 0.301203 1.54113 0.273918 1.58191 0.248803C2.11272 -0.0729183 2.77574 -0.0833047 3.31639 0.22156L15.0217 6.62364Z" fill="#4CAF50"/>
<path d="M19.2806 10.0017C19.2872 10.6447 18.9377 11.2387 18.3725 11.5454L15.0217 13.3798L11.5073 10.0017L15.0217 6.62354L18.3725 8.45788C18.9377 8.76462 19.2872 9.3586 19.2806 10.0017Z" fill="#F0BB1F"/>
<path d="M15.0217 13.3801L3.31639 19.7822C2.77455 20.0823 2.11404 20.0719 1.58191 19.7549C1.54113 19.7298 1.50171 19.7025 1.46387 19.6732L11.5074 10.002L15.0217 13.3801Z" fill="#F15A2B"/>
</g>
<path d="M31.024 4.88009H28.216V6.00009H29.712C29.512 6.53609 29.024 6.86409 28.28 6.86409C27.192 6.86409 26.52 6.16809 26.52 5.21609C26.52 4.23209 27.224 3.53609 28.168 3.53609C28.8 3.53609 29.304 3.82409 29.536 4.19209L30.624 3.56809C30.152 2.81609 29.248 2.28809 28.176 2.28809C26.528 2.28809 25.24 3.58409 25.24 5.20809C25.24 6.81609 26.504 8.11209 28.264 8.11209C29.832 8.11209 31.024 7.07209 31.024 5.36009V4.88009Z" fill="white"/>
<path d="M32.6256 6.76809V5.77609H34.6256V4.56009H32.6256V3.63209H34.8256V2.40009H31.3456V8.00009H34.8656V6.76809H32.6256Z" fill="white"/>
<path d="M38.9478 2.40009H34.7878V3.63209H36.2278V8.00009H37.5078V3.63209H38.9478V2.40009Z" fill="white"/>
<path d="M40.7081 2.40009V8.00009H41.9881V2.40009H40.7081Z" fill="white"/>
<path d="M46.3103 2.40009H42.1503V3.63209H43.5903V8.00009H44.8703V3.63209H46.3103V2.40009Z" fill="white"/>
<path d="M50.7426 8.11209C52.3506 8.11209 53.6546 6.84809 53.6546 5.20009C53.6546 3.55209 52.3506 2.28809 50.7426 2.28809C49.1346 2.28809 47.8306 3.55209 47.8306 5.20009C47.8306 6.84809 49.1346 8.11209 50.7426 8.11209ZM50.7426 6.86409C49.8306 6.86409 49.1106 6.20009 49.1106 5.20009C49.1106 4.20009 49.8306 3.53609 50.7426 3.53609C51.6546 3.53609 52.3746 4.20009 52.3746 5.20009C52.3746 6.20009 51.6546 6.86409 50.7426 6.86409Z" fill="white"/>
<path d="M57.0953 2.40009V5.44009L54.9353 2.40009H53.9753V8.00009H55.2553V4.96009L57.4153 8.00009H58.3753V2.40009H57.0953Z" fill="white"/>
<path d="M31.024 14.3921V14.6081C31.024 15.3068 30.776 15.8961 30.28 16.3761C29.784 16.8508 29.1307 17.0881 28.32 17.0881C27.4667 17.0881 26.7627 16.8108 26.208 16.2561C25.6533 15.6961 25.376 15.0108 25.376 14.2001C25.376 13.3894 25.6507 12.7068 26.2 12.1521C26.7493 11.5921 27.4453 11.3121 28.288 11.3121C28.8 11.3121 29.2693 11.4348 29.696 11.6801C30.128 11.9254 30.4613 12.2534 30.696 12.6641L30.32 12.8881C30.1333 12.5361 29.856 12.2534 29.488 12.0401C29.1253 11.8268 28.7253 11.7201 28.288 11.7201C27.5627 11.7201 26.9653 11.9601 26.496 12.4401C26.032 12.9148 25.8 13.5014 25.8 14.2001C25.8 14.8988 26.0347 15.4881 26.504 15.9681C26.9733 16.4428 27.5787 16.6801 28.32 16.6801C28.976 16.6801 29.5067 16.5014 29.912 16.1441C30.3173 15.7868 30.544 15.3361 30.592 14.7921H28.216V14.3921H31.024Z" fill="white"/>
<path d="M36.7026 16.2481C36.1426 16.8081 35.4599 17.0881 34.6546 17.0881C33.8493 17.0881 33.1666 16.8081 32.6066 16.2481C32.0466 15.6828 31.7666 15.0001 31.7666 14.2001C31.7666 13.4001 32.0466 12.7201 32.6066 12.1601C33.1666 11.5948 33.8493 11.3121 34.6546 11.3121C35.4599 11.3121 36.1426 11.5948 36.7026 12.1601C37.2626 12.7201 37.5426 13.4001 37.5426 14.2001C37.5426 15.0001 37.2626 15.6828 36.7026 16.2481ZM32.9026 15.9601C33.3826 16.4401 33.9666 16.6801 34.6546 16.6801C35.3426 16.6801 35.9239 16.4401 36.3986 15.9601C36.8786 15.4748 37.1186 14.8881 37.1186 14.2001C37.1186 13.5121 36.8786 12.9281 36.3986 12.4481C35.9239 11.9628 35.3426 11.7201 34.6546 11.7201C33.9666 11.7201 33.3826 11.9628 32.9026 12.4481C32.4279 12.9281 32.1906 13.5121 32.1906 14.2001C32.1906 14.8881 32.4279 15.4748 32.9026 15.9601Z" fill="white"/>
<path d="M43.2339 16.2481C42.6739 16.8081 41.9912 17.0881 41.1859 17.0881C40.3805 17.0881 39.6979 16.8081 39.1379 16.2481C38.5779 15.6828 38.2979 15.0001 38.2979 14.2001C38.2979 13.4001 38.5779 12.7201 39.1379 12.1601C39.6979 11.5948 40.3805 11.3121 41.1859 11.3121C41.9912 11.3121 42.6739 11.5948 43.2339 12.1601C43.7939 12.7201 44.0739 13.4001 44.0739 14.2001C44.0739 15.0001 43.7939 15.6828 43.2339 16.2481ZM39.4339 15.9601C39.9139 16.4401 40.4979 16.6801 41.1859 16.6801C41.8739 16.6801 42.4552 16.4401 42.9299 15.9601C43.4099 15.4748 43.6499 14.8881 43.6499 14.2001C43.6499 13.5121 43.4099 12.9281 42.9299 12.4481C42.4552 11.9628 41.8739 11.7201 41.1859 11.7201C40.4979 11.7201 39.9139 11.9628 39.4339 12.4481C38.9592 12.9281 38.7219 13.5121 38.7219 14.2001C38.7219 14.8881 38.9592 15.4748 39.4339 15.9601Z" fill="white"/>
<path d="M50.4771 14.3921V14.6081C50.4771 15.3068 50.2291 15.8961 49.7331 16.3761C49.2371 16.8508 48.5838 17.0881 47.7731 17.0881C46.9198 17.0881 46.2158 16.8108 45.6611 16.2561C45.1064 15.6961 44.8291 15.0108 44.8291 14.2001C44.8291 13.3894 45.1038 12.7068 45.6531 12.1521C46.2024 11.5921 46.8984 11.3121 47.7411 11.3121C48.2531 11.3121 48.7224 11.4348 49.1491 11.6801C49.5811 11.9254 49.9144 12.2534 50.1491 12.6641L49.7731 12.8881C49.5864 12.5361 49.3091 12.2534 48.9411 12.0401C48.5784 11.8268 48.1784 11.7201 47.7411 11.7201C47.0158 11.7201 46.4184 11.9601 45.9491 12.4401C45.4851 12.9148 45.2531 13.5014 45.2531 14.2001C45.2531 14.8988 45.4878 15.4881 45.9571 15.9681C46.4264 16.4428 47.0318 16.6801 47.7731 16.6801C48.4291 16.6801 48.9598 16.5014 49.3651 16.1441C49.7705 15.7868 49.9971 15.3361 50.0451 14.7921H47.6691V14.3921H50.4771Z" fill="white"/>
<path d="M51.9637 16.6001H54.6037V17.0001H51.5397V11.4001H51.9637V16.6001Z" fill="white"/>
<path d="M55.9091 16.6001H58.7091V17.0001H55.4851V11.4001H58.6691V11.8001H55.9091V13.9761H58.4691V14.3761H55.9091V16.6001Z" fill="white"/>
<path d="M63.7875 11.4001C64.2888 11.4001 64.7048 11.5654 65.0355 11.8961C65.3662 12.2268 65.5315 12.6401 65.5315 13.1361C65.5315 13.6321 65.3662 14.0454 65.0355 14.3761C64.7048 14.7014 64.2888 14.8641 63.7875 14.8641H62.3075V17.0001H61.8835V11.4001H63.7875ZM63.7875 14.4641C64.1715 14.4641 64.4862 14.3388 64.7315 14.0881C64.9822 13.8374 65.1075 13.5201 65.1075 13.1361C65.1075 12.7468 64.9822 12.4268 64.7315 12.1761C64.4862 11.9254 64.1715 11.8001 63.7875 11.8001H62.3075V14.4641H63.7875Z" fill="white"/>
<path d="M67.0028 16.6001H69.6428V17.0001H66.5788V11.4001H67.0028V16.6001Z" fill="white"/>
<path d="M74.4484 17.0001L73.9044 15.5761H71.0964L70.5524 17.0001H70.1044L72.2804 11.4001H72.7284L74.8964 17.0001H74.4484ZM71.2564 15.1761H73.7524L72.5044 11.9201L71.2564 15.1761Z" fill="white"/>
<path d="M78.8809 11.4001L76.8409 14.6961V17.0001H76.4169V14.6961L74.3769 11.4001H74.8569L76.6329 14.2881L78.4009 11.4001H78.8809Z" fill="white"/>
<defs>
<clipPath id="clip0_237_2">
<rect width="20" height="20" fill="white"/>
</clipPath>
</defs>
</svg>
