<svg width="245" height="113" viewBox="0 0 245 113" fill="none" xmlns="http://www.w3.org/2000/svg">
<path d="M196.962 66.7999C193.969 66.7999 191.423 66.1221 189.324 64.7665C187.257 63.38 185.853 61.516 185.112 59.1745L187.242 57.9267C187.828 59.9293 188.939 61.516 190.574 62.6868C192.241 63.8576 194.37 64.443 196.962 64.443C199.585 64.443 201.591 63.8422 202.979 62.6406C204.399 61.439 205.108 59.8831 205.108 57.9729C205.108 56.1859 204.429 54.8149 203.072 53.8598C201.714 52.9047 199.6 51.965 196.73 51.0407C195.681 50.7018 194.91 50.4553 194.416 50.3012C193.953 50.1164 193.274 49.8545 192.379 49.5156C191.485 49.1459 190.821 48.8224 190.389 48.5451C189.957 48.2678 189.432 47.8981 188.815 47.4359C188.229 46.9738 187.797 46.5116 187.519 46.0495C187.242 45.5565 186.995 44.9865 186.779 44.3395C186.563 43.6617 186.455 42.9223 186.455 42.1212C186.455 39.5024 187.38 37.4073 189.232 35.836C191.114 34.2339 193.459 33.4328 196.268 33.4328C198.798 33.4328 200.958 34.0644 202.748 35.3276C204.537 36.5908 205.849 38.2238 206.682 40.2264L204.599 41.3818C203.056 37.6538 200.279 35.7898 196.268 35.7898C194.046 35.7898 192.271 36.3752 190.944 37.5459C189.618 38.7167 188.954 40.211 188.954 42.0288C188.954 43.7849 189.571 45.0944 190.806 45.957C192.04 46.8197 194.061 47.7132 196.869 48.6375C198.659 49.2229 200.048 49.7313 201.035 50.1626C202.053 50.5631 203.133 51.1331 204.275 51.8725C205.448 52.5812 206.296 53.4438 206.821 54.4606C207.346 55.4465 207.608 56.6019 207.608 57.9267C207.608 60.6071 206.636 62.7638 204.692 64.3967C202.748 65.9989 200.171 66.7999 196.962 66.7999Z" fill="#2A2A2A"/>
<path d="M177.15 61.9474C173.91 65.1824 169.961 66.7999 165.301 66.7999C160.641 66.7999 156.692 65.1824 153.451 61.9474C150.211 58.6815 148.591 54.7379 148.591 50.1164C148.591 45.4949 150.211 41.5666 153.451 38.3316C156.692 35.0658 160.641 33.4328 165.301 33.4328C169.961 33.4328 173.91 35.0658 177.15 38.3316C180.391 41.5666 182.011 45.4949 182.011 50.1164C182.011 54.7379 180.391 58.6815 177.15 61.9474ZM155.164 60.2836C157.941 63.0565 161.32 64.443 165.301 64.443C169.282 64.443 172.645 63.0565 175.392 60.2836C178.169 57.4799 179.557 54.0908 179.557 50.1164C179.557 46.1419 178.169 42.7682 175.392 39.9953C172.645 37.1916 169.282 35.7898 165.301 35.7898C161.32 35.7898 157.941 37.1916 155.164 39.9953C152.418 42.7682 151.045 46.1419 151.045 50.1164C151.045 54.0908 152.418 57.4799 155.164 60.2836Z" fill="#2A2A2A"/>
<path d="M130.679 66.7999C125.804 66.7999 121.777 65.1978 118.598 61.9936C115.42 58.7585 113.831 54.7995 113.831 50.1164C113.831 45.4333 115.42 41.4896 118.598 38.2854C121.777 35.0503 125.804 33.4328 130.679 33.4328C133.641 33.4328 136.357 34.1415 138.826 35.5587C141.294 36.9452 143.207 38.8246 144.565 41.1969L142.39 42.4447C141.31 40.4421 139.721 38.84 137.622 37.6384C135.524 36.406 133.209 35.7898 130.679 35.7898C126.482 35.7898 123.026 37.1762 120.311 39.9491C117.626 42.6912 116.284 46.0803 116.284 50.1164C116.284 54.1525 117.626 57.557 120.311 60.3298C123.026 63.0719 126.482 64.443 130.679 64.443C133.209 64.443 135.539 63.8268 137.668 62.5944C139.798 61.362 141.402 59.7136 142.482 57.6494L144.658 58.8972C143.331 61.3004 141.418 63.226 138.918 64.674C136.419 66.0913 133.672 66.7999 130.679 66.7999Z" fill="#2A2A2A"/>
<path d="M99.2348 66.7999C96.2415 66.7999 93.6957 66.1221 91.5974 64.7665C89.5299 63.38 88.1258 61.516 87.3853 59.1745L89.5145 57.9267C90.1008 59.9293 91.2117 61.516 92.8471 62.6868C94.5135 63.8576 96.6427 64.443 99.2348 64.443C101.858 64.443 103.863 63.8422 105.252 62.6406C106.672 61.439 107.381 59.8831 107.381 57.9729C107.381 56.1859 106.702 54.8149 105.345 53.8598C103.987 52.9047 101.873 51.965 99.0033 51.0407C97.9542 50.7018 97.1827 50.4553 96.689 50.3012C96.2261 50.1164 95.5472 49.8545 94.6523 49.5156C93.7575 49.1459 93.094 48.8224 92.662 48.5451C92.23 48.2678 91.7054 47.8981 91.0882 47.4359C90.5019 46.9738 90.0699 46.5116 89.7922 46.0495C89.5145 45.5565 89.2676 44.9865 89.0516 44.3395C88.8356 43.6617 88.7276 42.9223 88.7276 42.1212C88.7276 39.5024 89.6533 37.4073 91.5048 35.836C93.3872 34.2339 95.7324 33.4328 98.5405 33.4328C101.071 33.4328 103.231 34.0644 105.021 35.3276C106.81 36.5908 108.122 38.2238 108.955 40.2264L106.872 41.3818C105.329 37.6538 102.552 35.7898 98.5405 35.7898C96.3187 35.7898 94.5443 36.3752 93.2174 37.5459C91.8905 38.7167 91.2271 40.211 91.2271 42.0288C91.2271 43.7849 91.8443 45.0944 93.0786 45.957C94.3129 46.8197 96.3341 47.7132 99.1422 48.6375C100.932 49.2229 102.321 49.7313 103.308 50.1626C104.326 50.5631 105.406 51.1331 106.548 51.8725C107.721 52.5812 108.569 53.4438 109.094 54.4606C109.619 55.4465 109.881 56.6019 109.881 57.9267C109.881 60.6071 108.909 62.7638 106.965 64.3967C105.021 65.9989 102.444 66.7999 99.2348 66.7999Z" fill="#2A2A2A"/>
<path d="M79.7764 58.0653L82.924 66.2916H85.5161L72.9722 33.9412H70.3801L57.79 66.2916H60.3821L63.5296 58.0653L64.4554 55.7546L71.6762 36.9452L78.897 55.7546L79.7764 58.0653Z" fill="#9C292A"/>
<path d="M39.8448 63.9808H55.1196V66.2916H37.3916V33.9412H39.8448V63.9808Z" fill="#2A2A2A"/>
<path d="M122.896 76.7071L112.019 96.6257V109.057H104.613V96.6257L93.7354 76.7071H102.16L108.316 89.1851L114.472 76.7071H122.896Z" fill="#2A2A2A"/>
<path d="M89.8081 109.057L88.1881 103.974H76.1534L74.5334 109.057H66.4331L77.4495 76.7071H86.892L97.9084 109.057H89.8081ZM78.3752 97.0416H85.9663L82.1707 85.1644L78.3752 97.0416Z" fill="#2A2A2A"/>
<path d="M50.4838 76.7071C54.9583 76.7071 58.6921 78.263 61.6853 81.3748C64.7094 84.4558 66.2215 88.2916 66.2215 92.8823C66.2215 97.4729 64.7094 101.324 61.6853 104.436C58.6921 107.517 54.9583 109.057 50.4838 109.057H37.5234V76.7071H50.4838ZM50.4838 101.94C53.0451 101.94 55.1126 101.124 56.6863 99.491C58.291 97.8273 59.0933 95.6244 59.0933 92.8823C59.0933 90.1402 58.291 87.9527 56.6863 86.3198C55.1126 84.656 53.0451 83.8242 50.4838 83.8242H44.9294V101.94H50.4838Z" fill="#2A2A2A"/>
<path d="M206.392 98.468H207.271V110.056H206.392V105.04C205.342 105.548 204.253 105.802 203.126 105.802C201.998 105.802 201.108 105.498 200.456 104.891C199.804 104.284 199.478 103.506 199.478 102.557V98.468H200.357V102.557C200.357 103.285 200.6 103.87 201.086 104.312C201.573 104.753 202.252 104.974 203.126 104.974C204.253 104.974 205.342 104.72 206.392 104.212V98.468Z" fill="#2A2A2A"/>
<path d="M191.716 98.2859C193.385 98.2859 194.8 98.8709 195.961 100.041C197.122 101.2 197.702 102.607 197.702 104.262C197.702 105.918 197.122 107.33 195.961 108.5C194.8 109.659 193.385 110.238 191.716 110.238C190.08 110.238 188.693 109.687 187.555 108.583C186.427 107.479 185.83 106.122 185.764 104.51H183.443V110.056H182.564V98.4681H183.443V103.683H185.797C185.941 102.149 186.571 100.868 187.687 99.8421C188.804 98.8047 190.147 98.2859 191.716 98.2859ZM191.716 109.394C193.142 109.394 194.347 108.897 195.331 107.904C196.326 106.9 196.823 105.686 196.823 104.262C196.823 102.838 196.326 101.63 195.331 100.637C194.347 99.6324 193.142 99.1302 191.716 99.1302C190.279 99.1302 189.069 99.6269 188.085 100.62C187.101 101.613 186.61 102.827 186.61 104.262C186.61 105.697 187.101 106.911 188.085 107.904C189.069 108.897 190.279 109.394 191.716 109.394Z" fill="#2A2A2A"/>
<path d="M169.843 110.056V109.278C170.661 109.378 171.28 109.118 171.7 108.5C172.131 107.871 172.346 106.751 172.346 105.14V98.468H179.692V110.056H178.796V99.2958H173.225V105.156C173.225 107.01 172.938 108.318 172.363 109.08C171.799 109.83 170.959 110.156 169.843 110.056Z" fill="#2A2A2A"/>
<path d="M169.374 110.056H168.197L162.377 104.345V110.056H161.499V98.468H162.377V103.865L168.031 98.468H169.208L163.339 104.097L169.374 110.056Z" fill="#2A2A2A"/>
<path d="M153.771 109.229H154.998V112.275H154.103V110.056H145.382V112.275H144.486V109.229H145.415C146.211 108.335 146.609 106.949 146.609 105.073V98.468H153.771V109.229ZM147.487 105.09C147.487 106.878 147.145 108.257 146.459 109.229H152.893V99.2958H147.487V105.09Z" fill="#2A2A2A"/>
<path d="M141.874 98.468H142.753V110.056H141.874V98.468Z" fill="#2A2A2A"/>
<path d="M139.008 98.468V110.056H138.113V99.2958H131.597V110.056H130.718V98.468H139.008Z" fill="#2A2A2A"/>
<path d="M178.877 89.9965L177.75 87.0498H171.93L170.803 89.9965H169.874L174.384 78.4084H175.312L179.806 89.9965H178.877ZM172.262 86.2221H177.435L174.848 79.4844L172.262 86.2221Z" fill="#2A2A2A"/>
<path d="M164.151 90.1786C162.404 90.1786 160.962 89.6048 159.823 88.457C158.684 87.2982 158.115 85.88 158.115 84.2025C158.115 82.5249 158.684 81.1123 159.823 79.9645C160.962 78.8057 162.404 78.2263 164.151 78.2263C165.212 78.2263 166.184 78.4801 167.069 78.9878C167.953 79.4844 168.638 80.1576 169.125 81.0074L168.345 81.4544C167.959 80.737 167.389 80.1631 166.638 79.7327C165.886 79.2913 165.057 79.0705 164.151 79.0705C162.647 79.0705 161.409 79.5672 160.437 80.5604C159.475 81.5427 158.994 82.7567 158.994 84.2025C158.994 85.6482 159.475 86.8677 160.437 87.861C161.409 88.8432 162.647 89.3344 164.151 89.3344C165.057 89.3344 165.891 89.1136 166.654 88.6722C167.417 88.2307 167.992 87.6403 168.379 86.9008L169.158 87.3478C168.683 88.2087 167.997 88.8984 167.102 89.4171C166.207 89.9248 165.223 90.1786 164.151 90.1786Z" fill="#2A2A2A"/>
<path d="M156.581 89.9965L155.454 87.0498H149.634L148.507 89.9965H147.578L152.088 78.4084H153.017L157.51 89.9965H156.581ZM149.966 86.2221H155.139L152.552 79.4844L149.966 86.2221Z" fill="#2A2A2A"/>
<path d="M144.152 78.4084C145.191 78.4084 146.053 78.7505 146.739 79.4347C147.424 80.119 147.767 80.9743 147.767 82.0007C147.767 83.0271 147.424 83.8824 146.739 84.5667C146.053 85.2399 145.191 85.5765 144.152 85.5765H141.085V89.9965H140.206V78.4084H144.152ZM144.152 84.7488C144.948 84.7488 145.6 84.4894 146.109 83.9707C146.628 83.452 146.888 82.7953 146.888 82.0007C146.888 81.195 146.628 80.5329 146.109 80.0141C145.6 79.4954 144.948 79.2361 144.152 79.2361H141.085V84.7488H144.152Z" fill="#2A2A2A"/>
<path d="M138.594 89.9965H137.416L131.597 84.2852V89.9965H130.718V78.4084H131.597V83.8051L137.25 78.4084H138.428L132.558 84.0369L138.594 89.9965Z" fill="#2A2A2A"/>
<path d="M197.788 18.4196C198.961 17.0136 200.008 15.6419 201.181 14.3617C203.216 12.1556 205.562 10.3381 208.184 8.84064C211.243 7.10317 214.544 6.12013 218.04 5.86865C220.616 5.68576 223.146 6.09727 225.584 6.95457C230.932 8.82921 235.095 12.1784 237.786 17.1394C238.764 18.9454 239.465 20.9801 239.833 23.0033C240.569 26.9469 240.454 30.9363 239.799 34.9027C239.109 39.1092 237.913 43.19 236.337 47.1336C234.325 52.1632 231.702 56.8955 229.034 61.6049C228.16 63.1481 227.194 64.657 226.401 66.2915C226.815 65.8572 227.263 65.4457 227.654 64.9884C231.668 60.2104 235.026 55.0094 237.648 49.3741C239.373 45.6591 241.052 41.8869 242.421 38.0348C244.433 32.3651 245.284 26.4783 244.445 20.4771C243.789 15.7905 242.099 11.4811 239.189 7.68614C236.211 3.79969 232.174 1.62785 227.424 0.656233C221.479 -0.543995 215.706 0.0846961 210.266 2.77092C206.827 4.46267 204.044 7.01172 201.744 10.0523C200.031 12.2927 198.823 14.7732 197.972 17.4366C197.88 17.7338 197.857 18.0538 197.788 18.4196Z" fill="#9C292A"/>
</svg>
