<svg width="109" height="59" viewBox="0 0 109 59" fill="none" xmlns="http://www.w3.org/2000/svg">
<mask id="path-1-inside-1_2001_21" fill="white">
<path fill-rule="evenodd" clip-rule="evenodd" d="M39.2802 37.3676L74.1361 51.7705L45.4997 13.7076L42.4533 25.0769L7.59741 10.674L36.2338 48.7369L39.2802 37.3676Z"/>
</mask>
<path fill-rule="evenodd" clip-rule="evenodd" d="M39.2802 37.3676L74.1361 51.7705L45.4997 13.7076L42.4533 25.0769L7.59741 10.674L36.2338 48.7369L39.2802 37.3676Z" fill="black"/>
<path d="M74.1361 51.7705L73.3723 53.619L80.1305 56.4116L75.7343 50.5681L74.1361 51.7705ZM39.2802 37.3676L40.044 35.5192L37.9381 34.649L37.3484 36.85L39.2802 37.3676ZM45.4997 13.7076L47.0979 12.5052L44.6302 9.2252L43.5678 13.19L45.4997 13.7076ZM42.4533 25.0769L41.6895 26.9253L43.7954 27.7955L44.3851 25.5945L42.4533 25.0769ZM7.59741 10.674L8.3612 8.82554L1.60296 6.03294L5.99921 11.8763L7.59741 10.674ZM36.2338 48.7369L34.6356 49.9393L37.1033 53.2193L38.1657 49.2545L36.2338 48.7369ZM74.8999 49.9221L40.044 35.5192L38.5164 39.216L73.3723 53.619L74.8999 49.9221ZM43.9015 14.91L72.5379 52.9729L75.7343 50.5681L47.0979 12.5052L43.9015 14.91ZM44.3851 25.5945L47.4315 14.2252L43.5678 13.19L40.5214 24.5592L44.3851 25.5945ZM6.83362 12.5224L41.6895 26.9253L43.2171 23.2285L8.3612 8.82554L6.83362 12.5224ZM37.832 47.5345L9.19561 9.47156L5.99921 11.8763L34.6356 49.9393L37.832 47.5345ZM37.3484 36.85L34.302 48.2192L38.1657 49.2545L41.2121 37.8853L37.3484 36.85Z" fill="#FF4800" mask="url(#path-1-inside-1_2001_21)"/>
<mask id="path-3-inside-2_2001_21" fill="white">
<path fill-rule="evenodd" clip-rule="evenodd" d="M94.6373 18.3982L95.842 35.0083L105.209 16.1759L100.117 17.2209L98.9128 0.610809L89.5459 19.4432L94.6373 18.3982Z"/>
</mask>
<path fill-rule="evenodd" clip-rule="evenodd" d="M94.6373 18.3982L95.842 35.0083L105.209 16.1759L100.117 17.2209L98.9128 0.610809L89.5459 19.4432L94.6373 18.3982Z" fill="black"/>
<path d="M95.842 35.0083L93.8472 35.153L94.3762 42.4463L97.6327 35.899L95.842 35.0083ZM94.6373 18.3982L96.632 18.2535L96.4672 15.9809L94.2351 16.439L94.6373 18.3982ZM105.209 16.1759L107 17.0666L108.828 13.3914L104.807 14.2167L105.209 16.1759ZM100.117 17.2209L98.1227 17.3656L98.2876 19.6383L100.52 19.1801L100.117 17.2209ZM98.9128 0.610809L100.908 0.46613L100.379 -6.82719L97.122 -0.279861L98.9128 0.610809ZM89.5459 19.4432L87.7552 18.5525L85.9273 22.2277L89.9481 21.4024L89.5459 19.4432ZM97.8368 34.8636L96.632 18.2535L92.6425 18.5428L93.8472 35.153L97.8368 34.8636ZM103.418 15.2852L94.0513 34.1176L97.6327 35.899L107 17.0666L103.418 15.2852ZM100.52 19.1801L105.611 18.135L104.807 14.2167L99.7154 15.2618L100.52 19.1801ZM96.918 0.755488L98.1227 17.3656L102.112 17.0763L100.908 0.46613L96.918 0.755488ZM91.3366 20.3339L100.703 1.50148L97.122 -0.279861L87.7552 18.5525L91.3366 20.3339ZM94.2351 16.439L89.1438 17.4841L89.9481 21.4024L95.0394 20.3573L94.2351 16.439Z" fill="#FF4800" mask="url(#path-3-inside-2_2001_21)"/>
</svg>
