<svg aria-hidden="true" xmlns="http://www.w3.org/2000/svg" xmlns:xlink="http://www.w3.org/1999/xlink"><symbol viewBox="0 0 24 24" fill="none" id="box" xmlns="http://www.w3.org/2000/svg">
<path d="M21 7.49927L17 9.49927M17 9.49927L16.5 9.74927L12 11.9993M17 9.49927V12.9993M17 9.49927L7.5 4.49927M12 11.9993L3 7.49927M12 11.9993V21.4993M15.578 3.38127L17.578 4.43127C19.729 5.56027 20.805 6.12427 21.403 7.13927C22 8.15327 22 9.41627 22 11.9413V12.0583C22 14.5823 22 15.8453 21.403 16.8593C20.805 17.8743 19.729 18.4393 17.578 19.5683L15.578 20.6173C13.822 21.5383 12.944 21.9993 12 21.9993C11.056 21.9993 10.178 21.5393 8.422 20.6173L6.422 19.5673C4.271 18.4383 3.195 17.8743 2.597 16.8593C2 15.8453 2 14.5823 2 12.0593V11.9423C2 9.41727 2 8.15427 2.597 7.14027C3.195 6.12527 4.271 5.56027 6.422 4.43227L8.422 3.38227C10.178 2.46027 11.056 1.99927 12 1.99927C12.944 1.99927 13.822 2.45927 15.578 3.38127Z" stroke="currentColor" stroke-width="1.5" stroke-linecap="round"/>
</symbol><symbol viewBox="0 0 24 24" fill="none" id="boxes" xmlns="http://www.w3.org/2000/svg">
<path fill-rule="evenodd" clip-rule="evenodd" d="M11.999 18.7757L16.8774 21.3015C17.0699 21.4011 17.2832 21.4537 17.5 21.4552C17.7167 21.4566 17.9307 21.4068 18.1245 21.3098L22.2384 19.2528C22.4667 19.1387 22.6588 18.9633 22.7931 18.7462C22.9274 18.5291 22.9986 18.2789 22.9987 18.0236V14.2232C22.9986 13.9679 22.9274 13.7177 22.7931 13.5006C22.6588 13.2835 22.4667 13.1081 22.2384 12.994L17.4989 10.6235L12.7415 13.0875C12.5177 13.2034 12.3301 13.3786 12.1992 13.5939C12.0682 13.8093 11.999 14.0564 11.999 14.3084V18.7757Z" stroke="currentColor" stroke-width="1.2" stroke-linecap="round" stroke-linejoin="round"/>
<path fill-rule="evenodd" clip-rule="evenodd" d="M1.74248 19.1595L5.87838 21.3017C6.07089 21.4013 6.28421 21.4539 6.50093 21.4553C6.71766 21.4568 6.93166 21.407 7.12547 21.3099L11.9997 18.8735V14.2234C11.9996 13.9681 11.9284 13.7179 11.7941 13.5008C11.6598 13.2837 11.4677 13.1083 11.2394 12.9942L6.49986 10.6237L1.74248 13.0877C1.51871 13.2036 1.33111 13.3788 1.20017 13.5941C1.06922 13.8094 0.99998 14.0566 1 14.3086V17.9385C0.99998 18.1905 1.06922 18.4377 1.20017 18.653C1.33111 18.8684 1.51871 19.0436 1.74248 19.1595ZM6.49986 10.5261L11.3782 13.0519C11.5707 13.1515 11.7841 13.2041 12.0008 13.2056C12.2175 13.207 12.4315 13.1572 12.6253 13.0602L17.4996 10.6237V5.97359C17.4994 5.71831 17.4282 5.46811 17.294 5.25101C17.1597 5.03391 16.9676 4.85848 16.7392 4.74437L12.6253 2.68742C12.4315 2.59041 12.2175 2.54059 12.0008 2.54202C11.7841 2.54346 11.5707 2.5961 11.3782 2.69567L7.24234 4.83786C7.01857 4.95379 6.83097 5.12899 6.70003 5.34432C6.56908 5.55965 6.49984 5.80682 6.49986 6.05883V10.5261Z" stroke="currentColor" stroke-width="1.2" stroke-linecap="round" stroke-linejoin="round"/>
<path d="M6.97545 5.36158L11.385 7.56565C11.5758 7.66101 11.7862 7.71066 11.9996 7.71066C12.2129 7.71066 12.4233 7.66101 12.6142 7.56565L16.9769 5.38495M9.66075 3.95361L14.7495 6.49867M15.1606 12.2034L20.2494 14.7485M4.16089 12.2034L9.24964 14.7485M12.4753 13.6114L16.8848 15.8154C17.0757 15.9108 17.2861 15.9604 17.4994 15.9604C17.7128 15.9604 17.9232 15.9108 18.114 15.8154L22.4754 13.6347M1.47559 13.6114L5.8851 15.8154C6.07594 15.9108 6.28636 15.9604 6.49971 15.9604C6.71305 15.9604 6.92347 15.9108 7.11432 15.8154L11.4757 13.6347M11.9996 7.87364V13.3735M17.4994 16.1234V20.9358M6.49971 16.1234V20.9358" stroke="currentColor" stroke-width="1.2" stroke-linecap="round" stroke-linejoin="round"/>
</symbol><symbol viewBox="0 0 44 45" fill="none" id="checkmark" xmlns="http://www.w3.org/2000/svg">
<path fill-rule="evenodd" clip-rule="evenodd" d="M27.0556 15.0632C27.1818 15.1334 27.293 15.2278 27.3828 15.341C27.4726 15.4541 27.5392 15.5839 27.5788 15.7228C27.6184 15.8617 27.6303 16.0071 27.6138 16.1506C27.5972 16.2941 27.5526 16.433 27.4824 16.5592L21.373 27.5592C21.3028 27.6855 21.2084 27.7967 21.0952 27.8864C20.982 27.9762 20.8523 28.0428 20.7134 28.0824C20.5744 28.1221 20.4291 28.134 20.2856 28.1174C20.1421 28.1009 20.0032 28.0562 19.877 27.986C19.7507 27.9158 19.6395 27.8214 19.5497 27.7083C19.46 27.5951 19.3934 27.4653 19.3537 27.3264C19.3141 27.1875 19.3022 27.0421 19.3188 26.8986C19.3353 26.7551 19.38 26.6163 19.4502 26.49L25.5596 15.49C25.6298 15.3638 25.7241 15.2526 25.8373 15.1628C25.9505 15.073 26.0802 15.0064 26.2192 14.9668C26.3581 14.9271 26.5034 14.9153 26.647 14.9318C26.7905 14.9484 26.9293 14.993 27.0556 15.0632Z" fill="currentColor"/>
<path fill-rule="evenodd" clip-rule="evenodd" d="M13.4415 21.4475C13.6238 21.2203 13.8887 21.0745 14.1783 21.0424C14.4678 21.0102 14.7583 21.0942 14.9859 21.2759L21.0976 26.1643C21.3254 26.3467 21.4715 26.612 21.5037 26.9021C21.5358 27.1921 21.4515 27.4831 21.2692 27.7109C21.0868 27.9388 20.8214 28.0849 20.5314 28.117C20.2413 28.1492 19.9504 28.0649 19.7226 27.8825L13.6131 22.9963C13.5003 22.9061 13.4063 22.7945 13.3366 22.6679C13.2669 22.5413 13.2228 22.4022 13.2069 22.2586C13.191 22.115 13.2035 21.9696 13.2437 21.8308C13.284 21.692 13.3512 21.5625 13.4415 21.4497" fill="currentColor"/>
<path fill-rule="evenodd" clip-rule="evenodd" d="M9.23512 9.59185C8.88716 9.93855 8.61318 10.3523 8.42978 10.8079C8.24637 11.2636 8.15736 11.7518 8.16812 12.2428C8.19012 13.4529 7.88212 14.7332 7.43552 15.842C6.98892 16.953 6.32232 18.0905 5.46872 18.9463C4.78558 19.6309 4.40193 20.5586 4.40193 21.5257C4.40193 22.4929 4.78558 23.4206 5.46872 24.1052C7.03072 25.6694 8.12192 28.2259 8.16812 30.4391C8.1855 31.3621 8.55311 32.2441 9.19649 32.9063C9.83988 33.5685 10.7109 33.9613 11.6331 34.0053C12.8431 34.0647 14.1169 34.4321 15.2345 34.9293C16.3499 35.4243 17.4763 36.1217 18.3321 36.9775C19.0168 37.6606 19.9445 38.0442 20.9116 38.0442C21.8788 38.0442 22.8065 37.6606 23.4911 36.9775C24.3469 36.1217 25.4711 35.4243 26.5887 34.9271C27.7063 34.4321 28.9801 34.0647 30.1901 34.0053C31.1125 33.9618 31.9839 33.5691 32.6273 32.9069C33.2708 32.2446 33.6383 31.3623 33.6551 30.4391C33.6991 28.2259 34.7903 25.6695 36.3545 24.1031C37.037 23.4185 37.4202 22.4913 37.4202 21.5247C37.4202 20.558 37.037 19.6308 36.3545 18.9463C35.4987 18.0905 34.8343 16.9531 34.3877 15.8443C33.9389 14.7333 33.6309 13.4507 33.6551 12.2428C33.6656 11.7516 33.5762 11.2634 33.3925 10.8077C33.2087 10.352 32.9343 9.93836 32.5859 9.59185C32.2261 9.23013 31.794 8.94834 31.3178 8.76487C30.8417 8.5814 30.3323 8.50036 29.8227 8.52705C27.6315 8.63705 25.0421 7.64265 23.4911 6.09165C22.8065 5.40851 21.8788 5.02485 20.9116 5.02485C19.9445 5.02485 19.0168 5.40851 18.3321 6.09165C16.7811 7.64265 14.1917 8.63705 12.0005 8.52705C11.4906 8.50005 10.9807 8.58093 10.5042 8.76441C10.0277 8.94789 9.59525 9.22985 9.23512 9.59185ZM5.96812 12.2824C6.00112 13.95 5.09252 16.2094 3.91112 17.3886C2.81555 18.4859 2.2002 19.973 2.2002 21.5235C2.2002 23.0741 2.81555 24.5612 3.91112 25.6585C5.07712 26.8223 5.93512 28.8375 5.96812 30.4809C5.99892 31.9373 6.56872 33.3849 7.67972 34.4959C8.70473 35.523 10.0759 36.1309 11.5253 36.2009C13.2655 36.2889 15.5447 37.2987 16.7767 38.5329C17.8739 39.6284 19.3611 40.2438 20.9116 40.2438C22.4622 40.2438 23.9493 39.6284 25.0465 38.5329C26.2785 37.2987 28.5577 36.2889 30.2979 36.2009C31.7473 36.1309 33.1185 35.523 34.1435 34.4959C35.2116 33.4293 35.8244 31.99 35.8529 30.4809C35.8881 28.8375 36.7461 26.8223 37.9099 25.6585C39.0055 24.5612 39.6209 23.0741 39.6209 21.5235C39.6209 19.973 39.0055 18.4859 37.9099 17.3886C36.7307 16.2094 35.8199 13.9501 35.8551 12.2846C35.872 11.4969 35.729 10.714 35.4348 9.98306C35.1407 9.25215 34.7014 8.58845 34.1435 8.03205C33.5657 7.45266 32.8723 7.00141 32.1085 6.70765C31.3448 6.4139 30.5277 6.28422 29.7105 6.32705C28.1397 6.40625 26.1575 5.64505 25.0465 4.53185C23.9492 3.4356 22.4616 2.81982 20.9105 2.81982C19.3595 2.81982 17.8718 3.4356 16.7745 4.53185C15.6657 5.64505 13.6813 6.40625 12.1105 6.32705C11.2937 6.28453 10.4771 6.41436 9.71371 6.70811C8.95035 7.00186 8.25734 7.45294 7.67972 8.03205C7.12214 8.58819 6.68302 9.25153 6.38885 9.98205C6.09467 10.7126 5.95155 11.4951 5.96812 12.2824Z" fill="currentColor"/>
</symbol><symbol viewBox="0 0 24 24" fill="none" id="factory" xmlns="http://www.w3.org/2000/svg">
<g clip-path="url(#dclip0_8_1308)">
<path d="M9.24998 18.876L2.73798 14.194M5.73998 11.521L10.883 15.334M5.63698 11.005L11.248 5.54M10.392 1.578L1.25698 10.25M16.294 7.382L13.994 5.032M0.750977 11.751C0.750977 12.414 1.01437 13.0499 1.48321 13.5188C1.95205 13.9876 2.58794 14.251 3.25098 14.251C3.91402 14.251 4.5499 13.9876 5.01874 13.5188C5.48758 13.0499 5.75098 12.414 5.75098 11.751C5.75098 11.088 5.48758 10.4521 5.01874 9.98323C4.5499 9.51439 3.91402 9.251 3.25098 9.251C2.58794 9.251 1.95205 9.51439 1.48321 9.98323C1.01437 10.4521 0.750977 11.088 0.750977 11.751ZM9.74898 3.25C9.74898 3.91304 10.0124 4.54893 10.4812 5.01777C10.95 5.48661 11.5859 5.75 12.249 5.75C12.912 5.75 13.5479 5.48661 14.0167 5.01777C14.4856 4.54893 14.749 3.91304 14.749 3.25C14.749 2.58696 14.4856 1.95107 14.0167 1.48223C13.5479 1.01339 12.912 0.75 12.249 0.75C11.5859 0.75 10.95 1.01339 10.4812 1.48223C10.0124 1.95107 9.74898 2.58696 9.74898 3.25ZM15.75 8.751C15.75 9.28143 15.9607 9.79014 16.3358 10.1652C16.7108 10.5403 17.2195 10.751 17.75 10.751C18.2804 10.751 18.7891 10.5403 19.1642 10.1652C19.5393 9.79014 19.75 9.28143 19.75 8.751C19.75 8.22057 19.5393 7.71186 19.1642 7.33679C18.7891 6.96171 18.2804 6.751 17.75 6.751C17.2195 6.751 16.7108 6.96171 16.3358 7.33679C15.9607 7.71186 15.75 8.22057 15.75 8.751Z" stroke="currentColor" stroke-width="1.5" stroke-linecap="round" stroke-linejoin="round"/>
<path d="M19.7 8.30012C20.1332 8.21932 20.579 8.23497 21.0055 8.34595C21.432 8.45694 21.8288 8.66053 22.1677 8.94226C22.5067 9.22399 22.7793 9.57693 22.9664 9.97598C23.1534 10.375 23.2503 10.8104 23.25 11.2511M20.25 14.2511C19.8093 14.2513 19.3739 14.1543 18.9749 13.9671C18.5759 13.78 18.223 13.5072 17.9414 13.1682C17.6597 12.8291 17.4563 12.4322 17.3454 12.0057C17.2346 11.5791 17.2191 11.1334 17.3 10.7001M1 23.2511H23M9.25 23.2511V18.0001C9.25 17.2045 9.56607 16.4414 10.1287 15.8788C10.6913 15.3162 11.4544 15.0001 12.25 15.0001C13.0456 15.0001 13.8087 15.3162 14.3713 15.8788C14.9339 16.4414 15.25 17.2045 15.25 18.0001V23.2501" stroke="currentColor" stroke-width="1.5" stroke-linecap="round" stroke-linejoin="round"/>
</g>
<defs>
<clipPath id="dclip0_8_1308">
<rect width="24" height="24" fill="currentColor"/>
</clipPath>
</defs>
</symbol><symbol viewBox="0 0 21 21" fill="none" id="fish" xmlns="http://www.w3.org/2000/svg">
<path d="M15.0006 4.87573C15.0006 5.09824 14.9346 5.31575 14.811 5.50075C14.6873 5.68576 14.5116 5.82995 14.3061 5.9151C14.1005 6.00025 13.8743 6.02253 13.6561 5.97912C13.4379 5.93571 13.2374 5.82856 13.0801 5.67123C12.9227 5.5139 12.8156 5.31344 12.7722 5.09521C12.7288 4.87698 12.7511 4.65078 12.8362 4.44522C12.9213 4.23965 13.0655 4.06395 13.2505 3.94033C13.4356 3.81671 13.6531 3.75073 13.8756 3.75073C14.1739 3.75073 14.4601 3.86926 14.6711 4.08024C14.882 4.29122 15.0006 4.57737 15.0006 4.87573ZM18.9381 12.2895C17.5243 14.2432 15.4196 15.5595 12.6849 16.2026C10.8024 16.6451 8.60306 16.7651 6.11119 16.571C6.26119 17.6848 6.47119 18.8579 6.74119 20.0904C6.78358 20.2846 6.74716 20.4877 6.63993 20.655C6.5327 20.8224 6.36344 20.9403 6.16931 20.9829C6.11639 20.9948 6.06231 21.0008 6.00806 21.0007C5.83708 21.0006 5.67127 20.9421 5.53811 20.8349C5.40494 20.7276 5.31242 20.5781 5.27587 20.411C4.97025 19.0135 4.73869 17.6817 4.58119 16.4154C3.31744 16.2585 1.98681 16.027 0.589312 15.7207C0.493098 15.6996 0.401985 15.6598 0.321175 15.6034C0.240365 15.5471 0.171441 15.4754 0.118338 15.3925C0.0110902 15.2249 -0.0252048 15.0216 0.0174371 14.8273C0.0600789 14.633 0.178165 14.4636 0.345717 14.3563C0.513269 14.2491 0.716562 14.2128 0.910874 14.2554C2.14212 14.5254 3.314 14.7357 4.4265 14.8864C4.23056 12.3964 4.35337 10.1989 4.79494 8.31824C5.43806 5.58355 6.75525 3.47886 8.70806 2.06323C10.0318 1.10323 12.3896 -0.0330157 16.0571 0.000734259C18.0437 0.0204218 19.8849 0.406672 20.1643 0.570734C20.2738 0.635264 20.3651 0.726559 20.4296 0.836047C20.5937 1.1173 20.9799 2.95386 20.9996 4.94042C21.0203 6.9673 20.679 9.88573 18.9381 12.2895ZM16.7106 12.552C14.6702 12.1471 12.796 11.1458 11.3253 9.67476C9.85464 8.20374 8.85369 6.32927 8.44931 4.28886C6.34181 6.56323 5.50369 10.1698 5.94056 15.057C10.8296 15.4957 14.4381 14.6585 16.7115 12.552H16.7106ZM19.1668 1.83448C17.9574 1.58745 16.724 1.47707 15.4899 1.50542C13.2081 1.56542 11.2984 2.11386 9.79369 3.13573C9.99822 5.20688 10.9142 7.14314 12.3858 8.61487C13.8574 10.0866 15.7935 11.0028 17.8646 11.2076C18.8874 9.70761 19.4359 7.79323 19.4959 5.51136C19.5242 4.27728 19.4139 3.04392 19.1668 1.83448Z" fill="currentColor"/>
</symbol><symbol viewBox="0 0 24 24" fill="none" id="globe" xmlns="http://www.w3.org/2000/svg">
<path d="M12 20.9993C13.1819 20.9993 14.3522 20.7665 15.4442 20.3142C16.5361 19.8619 17.5282 19.199 18.364 18.3632C19.1997 17.5275 19.8626 16.5353 20.3149 15.4434C20.7672 14.3515 21 13.1812 21 11.9993C21 10.8174 20.7672 9.64705 20.3149 8.55512C19.8626 7.46319 19.1997 6.47103 18.364 5.63531C17.5282 4.79958 16.5361 4.13664 15.4442 3.68435C14.3522 3.23206 13.1819 2.99927 12 2.99927M12 20.9993C10.8181 20.9993 9.64778 20.7665 8.55585 20.3142C7.46392 19.8619 6.47177 19.199 5.63604 18.3632C4.80031 17.5275 4.13738 16.5353 3.68508 15.4434C3.23279 14.3515 3 13.1812 3 11.9993C3 10.8174 3.23279 9.64705 3.68508 8.55512C4.13738 7.46319 4.80031 6.47103 5.63604 5.63531C6.47177 4.79958 7.46392 4.13664 8.55585 3.68435C9.64778 3.23206 10.8181 2.99927 12 2.99927M12 20.9993C14.761 20.9993 15.941 15.8363 15.941 11.9993C15.941 8.16227 14.761 2.99927 12 2.99927M12 20.9993C9.239 20.9993 8.059 15.8363 8.059 11.9993C8.059 8.16227 9.239 2.99927 12 2.99927M3.5 8.99927H20.5M3.5 14.9993H20.5" stroke="currentColor" stroke-width="1.3" stroke-linecap="round" stroke-linejoin="round"/>
</symbol><symbol viewBox="0 0 24 24" fill="none" id="handshake" xmlns="http://www.w3.org/2000/svg">
<path d="M23.8408 10.1154L21.4483 5.32848C21.3602 5.1523 21.2382 4.9952 21.0894 4.86615C20.9405 4.73711 20.7677 4.63866 20.5808 4.57641C20.3939 4.51417 20.1965 4.48935 20 4.50338C19.8035 4.51741 19.6117 4.57 19.4355 4.65817L17.104 5.82348L12.1924 4.52411C12.0664 4.49131 11.934 4.49131 11.808 4.52411L6.89645 5.82348L4.56489 4.65817C4.38872 4.57 4.1969 4.51741 4.0004 4.50338C3.8039 4.48935 3.60655 4.51417 3.41964 4.57641C3.23273 4.63866 3.05991 4.73711 2.91105 4.86615C2.7622 4.9952 2.64022 5.1523 2.55208 5.32848L0.159578 10.1144C0.0714119 10.2906 0.0188128 10.4824 0.00478447 10.6789C-0.00924383 10.8754 0.0155735 11.0728 0.0778192 11.2597C0.140065 11.4466 0.23852 11.6194 0.367561 11.7683C0.496603 11.9171 0.653703 12.0391 0.829891 12.1272L3.36114 13.3938L8.56333 17.1091C8.64003 17.1636 8.72618 17.2033 8.81739 17.2263L14.8174 18.7263C14.943 18.7578 15.0747 18.7562 15.1996 18.7217C15.3244 18.6872 15.4382 18.621 15.5299 18.5294L20.6927 13.3657L23.1696 12.1272C23.5252 11.9492 23.7955 11.6373 23.9212 11.2601C24.0469 10.8828 24.0177 10.4711 23.8399 10.1154H23.8408ZM18.6949 13.2438L15.469 10.66C15.3244 10.5443 15.1422 10.4861 14.9574 10.4967C14.7725 10.5072 14.5981 10.5858 14.4677 10.7172C12.798 12.3991 10.9371 12.1863 9.7502 11.4363L13.804 7.4988H16.7861L19.3371 12.5997L18.6949 13.2438ZM3.89364 5.9988L5.8127 6.95692L3.41552 11.7429L1.5002 10.7857L3.89364 5.9988ZM14.7686 17.1672L9.32083 15.806L4.70833 12.5116L7.33333 7.26161L12.0002 6.02505L12.919 6.26786L8.7002 10.3629L8.6927 10.3713C8.5339 10.5301 8.41278 10.7225 8.33828 10.9344C8.26379 11.1463 8.23782 11.3722 8.26229 11.5954C8.28677 11.8187 8.36106 12.0336 8.47969 12.2243C8.59832 12.415 8.75826 12.5766 8.9477 12.6972C10.8752 13.9282 13.2011 13.7285 15.033 12.2285L17.6252 14.3107L14.7686 17.1672ZM20.5811 11.7419L18.1886 6.96067L20.1068 5.9988L22.5002 10.7857L20.5811 11.7419ZM12.3546 20.4297C12.3141 20.5918 12.2206 20.7358 12.089 20.8387C11.9573 20.9416 11.7951 20.9976 11.628 20.9979C11.5664 20.9979 11.505 20.9903 11.4452 20.9754L7.53864 19.9985C7.44728 19.9759 7.36105 19.9361 7.28458 19.8813L4.81427 18.1169C4.66237 17.9977 4.56234 17.8244 4.53499 17.6332C4.50764 17.4421 4.55509 17.2477 4.66745 17.0907C4.77981 16.9336 4.94842 16.8259 5.13818 16.7901C5.32794 16.7542 5.52422 16.7929 5.68614 16.8982L8.0402 18.58L11.8127 19.5213C12.0056 19.5696 12.1715 19.6925 12.2738 19.863C12.3761 20.0335 12.4065 20.2377 12.3583 20.4307L12.3546 20.4297Z" fill="currentColor"/>
</symbol><symbol viewBox="0 0 24 24" fill="none" id="mail" xmlns="http://www.w3.org/2000/svg">
<path d="M18.25 4.24902H5.75C4.09315 4.24902 2.75 5.59217 2.75 7.24902V16.749C2.75 18.4059 4.09315 19.749 5.75 19.749H18.25C19.9069 19.749 21.25 18.4059 21.25 16.749V7.24902C21.25 5.59217 19.9069 4.24902 18.25 4.24902Z" stroke="currentColor" stroke-width="1.5" stroke-linecap="round" stroke-linejoin="round"/>
<path d="M2.75 7.99902L11.165 11.865C11.4269 11.9854 11.7118 12.0477 12 12.0477C12.2882 12.0477 12.5731 11.9854 12.835 11.865L21.25 7.99902" stroke="currentColor" stroke-width="1.5" stroke-linecap="round" stroke-linejoin="round"/>
</symbol><symbol viewBox="0 0 24 24" fill="none" id="phone" xmlns="http://www.w3.org/2000/svg">
<path fill-rule="evenodd" clip-rule="evenodd" d="M5.73303 2.04183C6.95003 0.831832 8.95403 1.04683 9.97303 2.40883L11.235 4.09283C12.065 5.20083 11.991 6.74883 11.006 7.72783L10.768 7.96583C10.741 8.06574 10.7383 8.17065 10.76 8.27183C10.823 8.67983 11.164 9.54383 12.592 10.9638C14.02 12.3838 14.89 12.7238 15.304 12.7878C15.4083 12.8088 15.5161 12.8057 15.619 12.7788L16.027 12.3728C16.903 11.5028 18.247 11.3398 19.331 11.9288L21.241 12.9688C22.878 13.8568 23.291 16.0808 21.951 17.4138L20.53 18.8258C20.082 19.2708 19.48 19.6418 18.746 19.7108C16.936 19.8798 12.719 19.6638 8.28603 15.2568C4.14903 11.1428 3.35503 7.55483 3.25403 5.78683C3.20403 4.89283 3.62603 4.13683 4.16403 3.60283L5.73303 2.04183ZM8.77303 3.30783C8.26603 2.63083 7.32203 2.57683 6.79003 3.10583L5.22003 4.66583C4.89003 4.99383 4.73203 5.35583 4.75203 5.70183C4.83203 7.10683 5.47203 10.3438 9.34403 14.1938C13.406 18.2318 17.157 18.3528 18.607 18.2168C18.903 18.1898 19.197 18.0358 19.472 17.7628L20.892 16.3498C21.47 15.7758 21.343 14.7298 20.525 14.2858L18.615 13.2468C18.087 12.9608 17.469 13.0548 17.085 13.4368L16.63 13.8898L16.1 13.3578C16.63 13.8898 16.629 13.8908 16.628 13.8908L16.627 13.8928L16.624 13.8958L16.617 13.9018L16.602 13.9158C16.5598 13.955 16.5143 13.9905 16.466 14.0218C16.386 14.0748 16.28 14.1338 16.147 14.1828C15.877 14.2838 15.519 14.3378 15.077 14.2698C14.21 14.1368 13.061 13.5458 11.534 12.0278C10.008 10.5098 9.41203 9.36783 9.27803 8.50183C9.20903 8.05983 9.26403 7.70183 9.36603 7.43183C9.42216 7.2799 9.50254 7.13806 9.60403 7.01183L9.63603 6.97683L9.65003 6.96183L9.65603 6.95583L9.65903 6.95283L9.66103 6.95083L9.94903 6.66483C10.377 6.23783 10.437 5.53083 10.034 4.99183L8.77303 3.30783Z" fill="currentColor"/>
</symbol><symbol viewBox="0 0 44 45" fill="none" id="price" xmlns="http://www.w3.org/2000/svg">
<path d="M8.66808 30.2071C5.83558 27.3728 4.41841 25.9574 3.89225 24.1186C3.36425 22.2798 3.81525 20.3273 4.71725 16.4241L5.23608 14.1728C5.99325 10.8874 6.37275 9.24477 7.49658 8.1191C8.62041 6.99344 10.2649 6.61577 13.5502 5.8586L15.8016 5.33793C19.7066 4.43777 21.6572 3.98677 23.4961 4.51293C25.3349 5.04093 26.7502 6.4581 29.5827 9.2906L32.9377 12.6456C37.8712 17.5773 40.3334 20.0413 40.3334 23.1029C40.3334 26.1664 37.8694 28.6304 32.9396 33.5603C28.0079 38.4919 25.5439 40.9559 22.4804 40.9559C19.4187 40.9559 16.9529 38.4919 12.0231 33.5621L8.66808 30.2071Z" stroke="currentColor" stroke-width="2"/>
<path d="M28.215 28.8375C29.2875 27.7613 29.4324 26.1663 28.5377 25.2698C27.643 24.3733 26.0462 24.52 24.9719 25.5943C23.8994 26.6687 22.3025 26.8135 21.4079 25.9188C20.5132 25.0242 20.658 23.4273 21.7324 22.3548M21.7324 22.3548L21.0834 21.7058M21.7324 22.3548C22.3392 21.7462 23.1129 21.4382 23.8334 21.4437M28.8622 29.4847L28.2132 28.8357C27.4799 29.5708 26.499 29.8715 25.6667 29.6992" stroke="currentColor" stroke-width="2" stroke-linecap="round"/>
<path d="M18.3719 19.4936C19.8038 18.0617 19.8038 15.7401 18.3719 14.3082C16.94 12.8762 14.6184 12.8762 13.1865 14.3082C11.7546 15.7401 11.7546 18.0617 13.1865 19.4936C14.6184 20.9255 16.94 20.9255 18.3719 19.4936Z" stroke="currentColor" stroke-width="2"/>
</symbol><symbol viewBox="0 0 24 24" fill="none" id="star" xmlns="http://www.w3.org/2000/svg">
<g clip-path="url(#kclip0_8_1300)">
<path d="M20.491 9.39761C20.491 11.6509 19.5959 13.8119 18.0026 15.4052C16.4093 16.9985 14.2483 17.8936 11.995 17.8936C9.74174 17.8936 7.58075 16.9985 5.98744 15.4052C4.39414 13.8119 3.49902 11.6509 3.49902 9.39761C3.49902 7.14433 4.39414 4.98334 5.98744 3.39003C7.58075 1.79672 9.74174 0.901611 11.995 0.901611C14.2483 0.901611 16.4093 1.79672 18.0026 3.39003C19.5959 4.98334 20.491 7.14433 20.491 9.39761Z" stroke="currentColor" stroke-width="1.5" stroke-linecap="round" stroke-linejoin="round"/>
<path d="M4.63571 13.5651L0.857422 20.1102L4.93914 19.0165L6.03456 23.0982L9.31228 17.4205M19.3648 13.5651L23.1431 20.1102L19.0597 19.0165L17.966 23.0982L14.6883 17.4205M12.3431 4.78453L13.514 7.13996C13.5394 7.1998 13.5806 7.25164 13.6331 7.28998C13.6856 7.32831 13.7475 7.3517 13.8123 7.35767L16.4129 7.75196C16.4873 7.76147 16.5574 7.79202 16.6151 7.84002C16.6728 7.88801 16.7155 7.95147 16.7384 8.02293C16.7613 8.09439 16.7632 8.17088 16.7441 8.24344C16.725 8.31599 16.6856 8.38159 16.6306 8.43253L14.7089 10.2565C14.68 10.3109 14.665 10.3715 14.665 10.4331C14.665 10.4947 14.68 10.5553 14.7089 10.6097L15.0774 13.1948C15.0934 13.2697 15.0872 13.3477 15.0597 13.4191C15.0321 13.4906 14.9843 13.5525 14.9221 13.5972C14.8599 13.642 14.786 13.6676 14.7095 13.671C14.6329 13.6745 14.5571 13.6555 14.4911 13.6165L12.1769 12.3925C12.117 12.3656 12.0522 12.3516 11.9866 12.3516C11.921 12.3516 11.8561 12.3656 11.7963 12.3925L9.48199 13.6165C9.41612 13.6545 9.34068 13.6726 9.26476 13.6686C9.18884 13.6647 9.11568 13.6389 9.05409 13.5943C8.9925 13.5497 8.9451 13.4883 8.91761 13.4174C8.89012 13.3466 8.8837 13.2693 8.89914 13.1948L9.33457 10.6097C9.35345 10.5498 9.35707 10.4861 9.3451 10.4244C9.33312 10.3627 9.30593 10.305 9.26599 10.2565L7.34771 8.4171C7.29616 8.36554 7.25991 8.3007 7.243 8.22978C7.22608 8.15886 7.22917 8.08464 7.2519 8.01536C7.27464 7.94609 7.31614 7.88448 7.37179 7.83737C7.42744 7.79026 7.49506 7.75951 7.56714 7.74853L10.166 7.37139C10.2307 7.36542 10.2927 7.34202 10.3452 7.30369C10.3977 7.26536 10.4389 7.21352 10.4643 7.15367L11.6351 4.79824C11.6663 4.73139 11.7156 4.67462 11.7774 4.63438C11.8392 4.59415 11.9111 4.57206 11.9849 4.57063C12.0586 4.5692 12.1313 4.58849 12.1946 4.6263C12.2579 4.66411 12.3094 4.71893 12.3431 4.78453Z" stroke="currentColor" stroke-width="1.5" stroke-linecap="round" stroke-linejoin="round"/>
</g>
<defs>
<clipPath id="kclip0_8_1300">
<rect width="24" height="24" fill="currentColor"/>
</clipPath>
</defs>
</symbol><symbol viewBox="0 0 44 45" fill="none" id="truck" xmlns="http://www.w3.org/2000/svg">
<path d="M14.6667 35.4559C15.6391 35.4559 16.5718 35.0696 17.2594 34.3819C17.947 33.6943 18.3333 32.7617 18.3333 31.7892C18.3333 30.8168 17.947 29.8841 17.2594 29.1965C16.5718 28.5089 15.6391 28.1226 14.6667 28.1226C13.6942 28.1226 12.7616 28.5089 12.0739 29.1965C11.3863 29.8841 11 30.8168 11 31.7892C11 32.7617 11.3863 33.6943 12.0739 34.3819C12.7616 35.0696 13.6942 35.4559 14.6667 35.4559ZM33 35.4559C33.9725 35.4559 34.9051 35.0696 35.5927 34.3819C36.2804 33.6943 36.6667 32.7617 36.6667 31.7892C36.6667 30.8168 36.2804 29.8841 35.5927 29.1965C34.9051 28.5089 33.9725 28.1226 33 28.1226C32.0275 28.1226 31.0949 28.5089 30.4073 29.1965C29.7196 29.8841 29.3333 30.8168 29.3333 31.7892C29.3333 32.7617 29.7196 33.6943 30.4073 34.3819C31.0949 35.0696 32.0275 35.4559 33 35.4559Z" stroke="currentColor" stroke-width="2" stroke-miterlimit="1.5" stroke-linecap="round" stroke-linejoin="round"/>
<path d="M18.4247 31.7892H27.4997V12.7226C27.4997 12.4308 27.3838 12.151 27.1775 11.9447C26.9712 11.7385 26.6914 11.6226 26.3997 11.6226H1.83301M10.358 31.7892H6.59967C6.45522 31.7892 6.31218 31.7608 6.17872 31.7055C6.04526 31.6502 5.924 31.5692 5.82186 31.467C5.71971 31.3649 5.63869 31.2436 5.58341 31.1102C5.52813 30.9767 5.49967 30.8337 5.49967 30.6892V21.7059" stroke="currentColor" stroke-width="2" stroke-linecap="round"/>
<path d="M3.66602 17.1226H10.9993" stroke="currentColor" stroke-width="2" stroke-linecap="round" stroke-linejoin="round"/>
<path d="M27.5 17.1226H37.785C37.9976 17.1226 38.2057 17.1843 38.384 17.3001C38.5623 17.416 38.7032 17.581 38.7897 17.7752L42.0713 25.1599C42.1339 25.3001 42.1663 25.4519 42.1667 25.6054V30.6892C42.1667 30.8337 42.1382 30.9767 42.0829 31.1102C42.0277 31.2436 41.9466 31.3649 41.8445 31.467C41.7423 31.5692 41.6211 31.6502 41.4876 31.7055C41.3542 31.7608 41.2111 31.7892 41.0667 31.7892H37.5833M27.5 31.7892H29.3333" stroke="currentColor" stroke-width="2" stroke-linecap="round"/>
</symbol></svg>