<svg width="27" height="22" viewBox="0 0 27 22" fill="none" xmlns="http://www.w3.org/2000/svg">
<path d="M21.3333 0L24 4H20L17.3333 0H14.6667L17.3333 4H13.3333L10.6667 0H8L10.6667 4H6.66667L4 0H2.66667C1.2 0 0.0133333 1.2 0.0133333 2.66667L0 18.6667C0 20.1333 1.2 21.3333 2.66667 21.3333H24C25.4667 21.3333 26.6667 20.1333 26.6667 18.6667V0H21.3333ZM12.3333 15L10.6667 18.6667L9 15L5.33333 13.3333L9 11.6667L10.6667 8L12.3333 11.6667L16 13.3333L12.3333 15ZM19.92 10.5867L18.6667 13.3333L17.4133 10.5867L14.6667 9.33333L17.4133 8.08L18.6667 5.33333L19.92 8.08L22.6667 9.33333L19.92 10.5867Z" fill="#191C1F"/>
</svg>
