<svg width="303" height="123" viewBox="0 0 303 123" fill="none" xmlns="http://www.w3.org/2000/svg">
<circle cx="184.187" cy="19.7044" r="0.680944" fill="#386392"/>
<path d="M193.718 27.195H200.528C192.863 12.8647 181.446 7.17884 165.8 8.62079M200.528 31.2806C165.119 49.6661 118.814 27.195 102.472 8.80943V34.6854C117.842 25.6681 131.424 18.7478 143.328 14.2774M165.8 8.62079C161.941 6.41386 152.589 2 146.052 2L143.328 14.2774M165.8 8.62079C159.098 9.2384 151.62 11.1637 143.328 14.2774M175.333 22.4283C172.382 20.6125 166.072 16.9808 164.438 16.9808C162.395 16.9808 158.309 23.7902 162.395 29.2378C163.757 30.5997 169.431 30.1457 172.609 29.9187M184.185 20.3855H183.504C183.128 20.3855 182.823 20.0806 182.823 19.7046C182.823 19.3285 183.128 19.0236 183.504 19.0236H184.185C184.561 19.0236 184.866 19.3285 184.866 19.7046C184.866 20.0806 184.561 20.3855 184.185 20.3855Z" stroke="#386392" stroke-width="3.5" stroke-linejoin="round"/>
<path d="M287.526 99.0833C284.478 99.0833 281.721 98.5612 279.257 97.5171C276.835 96.473 274.913 94.9695 273.493 93.0065C272.073 91.0436 271.343 88.7257 271.301 86.0527H280.698C280.823 87.8486 281.45 89.2686 282.577 90.3127C283.747 91.3568 285.334 91.8789 287.338 91.8789C289.385 91.8789 290.993 91.3986 292.162 90.438C293.332 89.4357 293.916 88.141 293.916 86.5539C293.916 85.2592 293.52 84.1942 292.726 83.3589C291.933 82.5236 290.93 81.8763 289.719 81.4169C288.55 80.9157 286.921 80.3728 284.833 79.7881C281.993 78.9528 279.675 78.1384 277.879 77.3448C276.125 76.5095 274.6 75.2775 273.305 73.6487C272.053 71.9781 271.426 69.7646 271.426 67.0081C271.426 64.4187 272.073 62.1634 273.368 60.2422C274.663 58.3211 276.48 56.8593 278.818 55.8569C281.157 54.8128 283.83 54.2908 286.837 54.2908C291.348 54.2908 295.002 55.3975 297.8 57.6111C300.64 59.7828 302.207 62.8316 302.499 66.7575H292.851C292.768 65.254 292.12 64.0219 290.909 63.0613C289.74 62.059 288.174 61.5578 286.211 61.5578C284.498 61.5578 283.12 61.9963 282.076 62.8734C281.074 63.7505 280.573 65.0243 280.573 66.6949C280.573 67.8643 280.948 68.8457 281.7 69.6393C282.494 70.391 283.454 71.0175 284.582 71.5187C285.751 71.9781 287.38 72.521 289.468 73.1475C292.308 73.9828 294.626 74.8181 296.422 75.6534C298.218 76.4887 299.763 77.7416 301.058 79.4122C302.353 81.0828 303 83.2754 303 85.9901C303 88.3289 302.395 90.5007 301.183 92.5054C299.972 94.5101 298.197 96.118 295.858 97.3292C293.52 98.4986 290.742 99.0833 287.526 99.0833Z" fill="#063160"/>
<path d="M242.809 54.9172C247.403 54.9172 251.434 55.8152 254.9 57.6111C258.408 59.4069 261.102 61.9755 262.982 65.3166C264.903 68.616 265.863 72.4584 265.863 76.8436C265.863 81.2289 264.903 85.0713 262.982 88.3707C261.102 91.6283 258.408 94.1551 254.9 95.9509C251.434 97.7468 247.403 98.6448 242.809 98.6448H227.523V54.9172H242.809ZM242.496 91.1898C247.09 91.1898 250.64 89.9368 253.146 87.431C255.652 84.9251 256.905 81.396 256.905 76.8436C256.905 72.2913 255.652 68.7413 253.146 66.1937C250.64 63.6043 247.09 62.3096 242.496 62.3096H236.294V91.1898H242.496Z" fill="#063160"/>
<path d="M198.633 99.0833C194.54 99.0833 190.781 98.1227 187.356 96.2015C183.932 94.2804 181.217 91.6283 179.212 88.2454C177.207 84.8207 176.205 80.9575 176.205 76.6557C176.205 72.3957 177.207 68.5743 179.212 65.1913C181.217 61.7666 183.932 59.0937 187.356 57.1725C190.781 55.2514 194.54 54.2908 198.633 54.2908C202.767 54.2908 206.526 55.2514 209.909 57.1725C213.334 59.0937 216.028 61.7666 217.991 65.1913C219.995 68.5743 220.998 72.3957 220.998 76.6557C220.998 80.9575 219.995 84.8207 217.991 88.2454C216.028 91.6283 213.334 94.2804 209.909 96.2015C206.484 98.1227 202.726 99.0833 198.633 99.0833ZM198.633 91.2524C201.264 91.2524 203.582 90.6677 205.586 89.4983C207.591 88.2871 209.157 86.5748 210.285 84.3613C211.413 82.1478 211.976 79.5792 211.976 76.6557C211.976 73.7322 211.413 71.1845 210.285 69.0128C209.157 66.7993 207.591 65.1078 205.586 63.9384C203.582 62.769 201.264 62.1843 198.633 62.1843C196.001 62.1843 193.663 62.769 191.616 63.9384C189.612 65.1078 188.045 66.7993 186.918 69.0128C185.79 71.1845 185.226 73.7322 185.226 76.6557C185.226 79.5792 185.79 82.1478 186.918 84.3613C188.045 86.5748 189.612 88.2871 191.616 89.4983C193.663 90.6677 196.001 91.2524 198.633 91.2524Z" fill="#063160"/>
<path d="M149.446 99.0833C145.353 99.0833 141.594 98.1227 138.17 96.2015C134.745 94.2804 132.03 91.6283 130.026 88.2454C128.021 84.8207 127.019 80.9575 127.019 76.6557C127.019 72.3957 128.021 68.5743 130.026 65.1913C132.03 61.7666 134.745 59.0937 138.17 57.1725C141.594 55.2514 145.353 54.2908 149.446 54.2908C153.581 54.2908 157.34 55.2514 160.723 57.1725C164.147 59.0937 166.841 61.7666 168.804 65.1913C170.809 68.5743 171.811 72.3957 171.811 76.6557C171.811 80.9575 170.809 84.8207 168.804 88.2454C166.841 91.6283 164.147 94.2804 160.723 96.2015C157.298 98.1227 153.539 99.0833 149.446 99.0833ZM149.446 91.2524C152.077 91.2524 154.395 90.6677 156.4 89.4983C158.405 88.2871 159.971 86.5748 161.098 84.3613C162.226 82.1478 162.79 79.5792 162.79 76.6557C162.79 73.7322 162.226 71.1845 161.098 69.0128C159.971 66.7993 158.405 65.1078 156.4 63.9384C154.395 62.769 152.077 62.1843 149.446 62.1843C146.815 62.1843 144.476 62.769 142.43 63.9384C140.425 65.1078 138.859 66.7993 137.731 69.0128C136.604 71.1845 136.04 73.7322 136.04 76.6557C136.04 79.5792 136.604 82.1478 137.731 84.3613C138.859 86.5748 140.425 88.2871 142.43 89.4983C144.476 90.6677 146.815 91.2524 149.446 91.2524Z" fill="#063160"/>
<path d="M122.929 54.9172V61.9963H104.698V73.2101H118.669V80.1639H104.698V98.6448H95.9277V54.9172H122.929Z" fill="#063160"/>
<path d="M53.8646 91.2524H73.5357V98.6448H43.7158V91.8789L63.2617 62.3096H43.7158V54.9172H73.5357V61.6831L53.8646 91.2524Z" fill="#063160"/>
<path d="M15.2858 54.9172C19.8799 54.9172 23.9102 55.8152 27.3767 57.6111C30.8849 59.4069 33.5787 61.9755 35.4581 65.3166C37.3793 68.616 38.3399 72.4584 38.3399 76.8436C38.3399 81.2289 37.3793 85.0713 35.4581 88.3707C33.5787 91.6283 30.8849 94.1551 27.3767 95.9509C23.9102 97.7468 19.8799 98.6448 15.2858 98.6448H0V54.9172H15.2858ZM14.9726 91.1898C19.5667 91.1898 23.1167 89.9368 25.6226 87.431C28.1285 84.9251 29.3814 81.396 29.3814 76.8436C29.3814 72.2913 28.1285 68.7413 25.6226 66.1937C23.1167 63.6043 19.5667 62.3096 14.9726 62.3096H8.77056V91.1898H14.9726Z" fill="#063160"/>
<path d="M259.899 122.994C259.674 122.994 259.485 122.917 259.332 122.765C259.18 122.612 259.104 122.424 259.104 122.198C259.104 121.973 259.18 121.784 259.332 121.632C259.485 121.479 259.674 121.403 259.899 121.403C260.117 121.403 260.302 121.479 260.455 121.632C260.607 121.784 260.683 121.973 260.683 122.198C260.683 122.424 260.607 122.612 260.455 122.765C260.302 122.917 260.117 122.994 259.899 122.994Z" fill="#386392"/>
<path d="M252.528 115.346L250.022 120.172V122.918H248.78V120.172L246.264 115.346H247.647L249.401 119.061L251.156 115.346H252.528Z" fill="#386392"/>
<path d="M239.776 115.346V116.359H237.761V122.918H236.519V116.359H234.492V115.346H239.776Z" fill="#386392"/>
<path d="M224.919 122.994C224.411 122.994 223.953 122.907 223.547 122.733C223.14 122.551 222.82 122.297 222.588 121.97C222.355 121.643 222.239 121.262 222.239 120.826H223.568C223.598 121.153 223.725 121.421 223.95 121.632C224.182 121.843 224.505 121.948 224.919 121.948C225.348 121.948 225.682 121.846 225.922 121.643C226.161 121.432 226.281 121.164 226.281 120.837C226.281 120.583 226.205 120.376 226.053 120.216C225.907 120.056 225.722 119.932 225.497 119.845C225.279 119.758 224.974 119.664 224.582 119.562C224.088 119.431 223.685 119.301 223.372 119.17C223.067 119.032 222.806 118.821 222.588 118.538C222.37 118.255 222.261 117.877 222.261 117.405C222.261 116.969 222.37 116.588 222.588 116.261C222.806 115.934 223.111 115.683 223.503 115.509C223.895 115.335 224.349 115.248 224.865 115.248C225.599 115.248 226.198 115.433 226.663 115.803C227.135 116.166 227.396 116.668 227.447 117.307H226.074C226.053 117.031 225.922 116.795 225.682 116.599C225.442 116.402 225.126 116.304 224.734 116.304C224.378 116.304 224.088 116.395 223.863 116.577C223.637 116.758 223.525 117.02 223.525 117.361C223.525 117.594 223.594 117.786 223.732 117.939C223.877 118.084 224.059 118.2 224.277 118.287C224.495 118.374 224.792 118.469 225.17 118.571C225.671 118.709 226.078 118.847 226.39 118.985C226.71 119.123 226.979 119.337 227.197 119.627C227.422 119.911 227.534 120.292 227.534 120.771C227.534 121.156 227.429 121.52 227.218 121.861C227.015 122.202 226.714 122.478 226.314 122.689C225.922 122.892 225.457 122.994 224.919 122.994Z" fill="#386392"/>
<path d="M213.51 121.371H210.339L209.795 122.918H208.498L211.211 115.335H212.649L215.362 122.918H214.055L213.51 121.371ZM213.161 120.357L211.93 116.838L210.688 120.357H213.161Z" fill="#386392"/>
<path d="M201.805 115.346V116.359H199.789V122.918H198.547V116.359H196.521V115.346H201.805Z" fill="#386392"/>
<path d="M180.188 122.994C179.963 122.994 179.774 122.917 179.621 122.765C179.469 122.612 179.393 122.424 179.393 122.198C179.393 121.973 179.469 121.784 179.621 121.632C179.774 121.479 179.963 121.403 180.188 121.403C180.406 121.403 180.591 121.479 180.744 121.632C180.896 121.784 180.972 121.973 180.972 122.198C180.972 122.424 180.896 122.612 180.744 122.765C180.591 122.917 180.406 122.994 180.188 122.994Z" fill="#386392"/>
<path d="M170.205 121.915H172.765V122.918H168.963V115.346H170.205V121.915Z" fill="#386392"/>
<path d="M160.049 121.371H156.878L156.334 122.918H155.037L157.75 115.335H159.188L161.901 122.918H160.594L160.049 121.371ZM159.7 120.357L158.469 116.838L157.227 120.357H159.7Z" fill="#386392"/>
<path d="M145.128 116.348V118.571H147.743V119.584H145.128V121.904H148.069V122.918H143.886V115.335H148.069V116.348H145.128Z" fill="#386392"/>
<path d="M135.052 122.918L133.309 119.889H132.361V122.918H131.119V115.346H133.734C134.315 115.346 134.805 115.447 135.205 115.651C135.612 115.854 135.913 116.127 136.109 116.468C136.312 116.809 136.414 117.191 136.414 117.612C136.414 118.106 136.269 118.556 135.978 118.963C135.695 119.362 135.256 119.635 134.66 119.78L136.534 122.918H135.052ZM132.361 118.898H133.734C134.199 118.898 134.547 118.781 134.78 118.549C135.02 118.316 135.139 118.004 135.139 117.612C135.139 117.22 135.023 116.915 134.791 116.697C134.558 116.472 134.206 116.359 133.734 116.359H132.361V118.898Z" fill="#386392"/>
<path d="M114.395 122.994C114.17 122.994 113.981 122.917 113.828 122.765C113.676 122.612 113.6 122.424 113.6 122.198C113.6 121.973 113.676 121.784 113.828 121.632C113.981 121.479 114.17 121.403 114.395 121.403C114.613 121.403 114.798 121.479 114.951 121.632C115.103 121.784 115.179 121.973 115.179 122.198C115.179 122.424 115.103 122.612 114.951 122.765C114.798 122.917 114.613 122.994 114.395 122.994Z" fill="#386392"/>
<path d="M103.539 116.348V118.571H106.154V119.584H103.539V121.904H106.481V122.918H102.297V115.335H106.481V116.348H103.539Z" fill="#386392"/>
<path d="M92.8143 121.915H95.3747V122.918H91.5723V115.346H92.8143V121.915Z" fill="#386392"/>
<path d="M84.503 117.601C84.503 117.986 84.4122 118.349 84.2307 118.691C84.0491 119.032 83.7585 119.312 83.359 119.529C82.9596 119.74 82.4475 119.845 81.8228 119.845H80.4501V122.918H79.208V115.346H81.8228C82.4039 115.346 82.8942 115.447 83.2937 115.651C83.7004 115.847 84.0019 116.116 84.198 116.457C84.4013 116.798 84.503 117.18 84.503 117.601ZM81.8228 118.832C82.295 118.832 82.6472 118.727 82.8797 118.516C83.1121 118.298 83.2283 117.993 83.2283 117.601C83.2283 116.773 82.7598 116.359 81.8228 116.359H80.4501V118.832H81.8228Z" fill="#386392"/>
<path d="M71.693 115.346V122.918H70.451V117.732L68.1412 122.918H67.2805L64.9598 117.732V122.918H63.7178V115.346H65.0579L67.7163 121.284L70.3638 115.346H71.693Z" fill="#386392"/>
<path d="M56.204 115.346V122.918H54.9619V115.346H56.204Z" fill="#386392"/>
<path d="M44.9986 122.994C44.4901 122.994 44.0325 122.907 43.6258 122.733C43.219 122.551 42.8994 122.297 42.667 121.97C42.4346 121.643 42.3184 121.262 42.3184 120.826H43.6476C43.6766 121.153 43.8037 121.421 44.0289 121.632C44.2613 121.843 44.5845 121.948 44.9986 121.948C45.4271 121.948 45.7612 121.846 46.0009 121.643C46.2406 121.432 46.3604 121.164 46.3604 120.837C46.3604 120.583 46.2842 120.376 46.1316 120.216C45.9864 120.056 45.8012 119.932 45.576 119.845C45.3581 119.758 45.053 119.664 44.6608 119.562C44.1669 119.431 43.7638 119.301 43.4515 119.17C43.1464 119.032 42.8849 118.821 42.667 118.538C42.4491 118.255 42.3401 117.877 42.3401 117.405C42.3401 116.969 42.4491 116.588 42.667 116.261C42.8849 115.934 43.19 115.683 43.5822 115.509C43.9744 115.335 44.4284 115.248 44.9441 115.248C45.6777 115.248 46.2769 115.433 46.7418 115.803C47.2139 116.166 47.4754 116.668 47.5262 117.307H46.1534C46.1316 117.031 46.0009 116.795 45.7612 116.599C45.5215 116.402 45.2056 116.304 44.8133 116.304C44.4574 116.304 44.1669 116.395 43.9417 116.577C43.7166 116.758 43.604 117.02 43.604 117.361C43.604 117.594 43.673 117.786 43.811 117.939C43.9563 118.084 44.1378 118.2 44.3557 118.287C44.5736 118.374 44.8714 118.469 45.2491 118.571C45.7503 118.709 46.1571 118.847 46.4694 118.985C46.789 119.123 47.0577 119.337 47.2756 119.627C47.5008 119.911 47.6134 120.292 47.6134 120.771C47.6134 121.156 47.5081 121.52 47.2974 121.861C47.094 122.202 46.7926 122.478 46.3931 122.689C46.0009 122.892 45.536 122.994 44.9986 122.994Z" fill="#386392"/>
</svg>
