<svg width="932" height="819" viewBox="0 0 932 819" fill="none" xmlns="http://www.w3.org/2000/svg">
<path d="M644.435 796.559C579.71 797.433 514.926 797.84 450.55 790.096C399.982 783.982 350.287 773.152 302.049 756.324C256.607 740.486 213.904 718.825 176.618 688.604C157.568 673.116 140.032 654.133 126.574 633.637C89.6962 577.214 78.1609 514.444 88.8223 447.889C93.716 417.552 103.737 388.613 120.34 362.759C142.886 327.648 171.957 298.825 207.728 276.756C238.314 257.832 270.881 243.683 305.661 235.065C325.702 230.057 346.209 226.913 367.648 222.72C363.454 221.323 359.958 219.693 356.288 218.994C323.43 212.705 290.397 211.191 257.132 216.141C211.923 222.837 169.336 237.394 131.934 263.655C72.6846 305.288 33.2435 361.944 12.0373 431.119C-4.85767 486.261 -4.91593 540.879 19.0866 594.275C42.5066 646.331 78.2192 688.662 123.777 722.318C182.211 765.524 248.975 790.329 320.109 801.683C368.522 809.428 417.634 813.504 466.63 816.648C540.91 821.423 614.782 816.124 687.838 801.45C694.887 800.053 701.762 797.724 708.695 795.861C686.906 794.871 665.642 796.385 644.377 796.676L644.435 796.559ZM928.039 245.08C920.232 189.006 900.074 137.416 865.527 91.9981C830.047 45.4156 782.042 19.3876 725.473 7.85839C654.514 -6.5822 585.885 1.0457 520.985 33.1877C480.088 53.4511 446.938 83.9044 419.44 120.413C399.225 147.257 384.718 176.953 374.581 208.862C373.474 212.414 373.183 216.257 372.426 220.624C386.349 203.796 398.933 187.318 412.857 172.062C437.093 145.685 465.057 123.849 496.284 106.031C532.753 85.1854 572.02 73.4233 613.675 70.3955C644.319 68.1828 674.555 73.1322 703.51 83.3804C767.128 105.798 816.765 145.917 848.749 205.252C860.4 226.855 868.673 251.31 873.159 275.417C881.956 322.582 880.558 370.387 872.809 417.901C864.537 468.269 850.38 517.122 831.562 564.403C807.676 624.611 776.333 681.326 744.64 737.749C734.212 756.265 722.793 774.258 713.239 793.823C718.191 788.64 723.551 783.691 728.153 778.217C775.983 721.037 815.891 658.733 847.176 591.247C867.799 546.702 887.665 501.633 903.978 455.459C927.98 387.564 938.059 317.108 928.039 245.138V245.08Z" fill="#9C292A"/>
</svg>
