<svg width="372" height="202" viewBox="0 0 372 202" fill="none" xmlns="http://www.w3.org/2000/svg">
<path d="M285.924 119.882C280.56 119.882 275.999 118.666 272.239 116.233C268.534 113.745 266.018 110.399 264.691 106.197L268.507 103.958C269.557 107.552 271.548 110.399 274.478 112.5C277.464 114.602 281.279 115.652 285.924 115.652C290.624 115.652 294.218 114.574 296.706 112.417C299.249 110.261 300.521 107.469 300.521 104.041C300.521 100.834 299.305 98.3731 296.872 96.6591C294.439 94.945 290.651 93.2586 285.509 91.5998C283.629 90.9916 282.247 90.5492 281.362 90.2728C280.533 89.941 279.316 89.471 277.713 88.8628C276.109 88.1993 274.921 87.6187 274.146 87.1211C273.372 86.6234 272.432 85.9599 271.327 85.1305C270.276 84.3011 269.502 83.4718 269.004 82.6424C268.507 81.7577 268.064 80.7348 267.677 79.5736C267.29 78.3572 267.097 77.0302 267.097 75.5925C267.097 70.8927 268.755 67.1328 272.073 64.3128C275.446 61.4376 279.648 60 284.68 60C289.214 60 293.084 61.1335 296.291 63.4005C299.498 65.6675 301.848 68.598 303.341 72.192L299.609 74.2655C296.844 67.5751 291.868 64.2299 284.68 64.2299C280.699 64.2299 277.519 65.2805 275.142 67.3816C272.764 69.4827 271.575 72.1644 271.575 75.4267C271.575 78.5783 272.681 80.9283 274.893 82.4765C277.105 84.0247 280.726 85.6282 285.758 87.2869C288.965 88.3375 291.453 89.2498 293.222 90.0239C295.047 90.7427 296.982 91.7657 299.028 93.0927C301.129 94.3644 302.65 95.9126 303.59 97.7373C304.53 99.5066 305 101.58 305 103.958C305 108.768 303.258 112.639 299.775 115.569C296.291 118.444 291.674 119.882 285.924 119.882Z" fill="#2A2A2A"/>
<path d="M250.425 111.173C244.619 116.979 237.542 119.882 229.192 119.882C220.843 119.882 213.766 116.979 207.96 111.173C202.154 105.312 199.251 98.2349 199.251 89.941C199.251 81.6471 202.154 74.5973 207.96 68.7915C213.766 62.9305 220.843 60 229.192 60C237.542 60 244.619 62.9305 250.425 68.7915C256.231 74.5973 259.133 81.6471 259.133 89.941C259.133 98.2349 256.231 105.312 250.425 111.173ZM211.029 108.188C216.005 113.164 222.06 115.652 229.192 115.652C236.325 115.652 242.352 113.164 247.273 108.188C252.25 103.156 254.738 97.0738 254.738 89.941C254.738 82.8082 252.25 76.7537 247.273 71.7773C242.352 66.7457 236.325 64.2299 229.192 64.2299C222.06 64.2299 216.005 66.7457 211.029 71.7773C206.108 76.7537 203.647 82.8082 203.647 89.941C203.647 97.0738 206.108 103.156 211.029 108.188Z" fill="#2A2A2A"/>
<path d="M167.156 119.882C158.42 119.882 151.204 117.007 145.509 111.256C139.814 105.451 136.966 98.3455 136.966 89.941C136.966 81.5365 139.814 74.459 145.509 68.7086C151.204 62.9029 158.42 60 167.156 60C172.464 60 177.33 61.2717 181.753 63.8152C186.177 66.3034 189.605 69.6762 192.038 73.9338L188.14 76.1731C186.204 72.5791 183.357 69.7039 179.597 67.5475C175.837 65.3357 171.69 64.2299 167.156 64.2299C159.636 64.2299 153.444 66.7181 148.578 71.6944C143.767 76.6155 141.362 82.6977 141.362 89.941C141.362 97.1843 143.767 103.294 148.578 108.271C153.444 113.192 159.636 115.652 167.156 115.652C171.69 115.652 175.865 114.546 179.68 112.335C183.495 110.123 186.37 107.165 188.306 103.46L192.204 105.699C189.826 110.012 186.398 113.468 181.919 116.067C177.441 118.61 172.52 119.882 167.156 119.882Z" fill="#2A2A2A"/>
<path d="M110.812 119.882C105.449 119.882 100.887 118.666 97.1275 116.233C93.4229 113.745 90.9071 110.399 89.5801 106.197L93.3953 103.958C94.4458 107.552 96.4364 110.399 99.3669 112.5C102.353 114.602 106.168 115.652 110.812 115.652C115.512 115.652 119.106 114.574 121.595 112.417C124.138 110.261 125.41 107.469 125.41 104.041C125.41 100.834 124.193 98.3731 121.76 96.6591C119.328 94.945 115.54 93.2586 110.398 91.5998C108.518 90.9916 107.136 90.5492 106.251 90.2728C105.421 89.941 104.205 89.471 102.602 88.8628C100.998 88.1993 99.8092 87.6187 99.0351 87.1211C98.261 86.6234 97.3211 85.9599 96.2152 85.1305C95.1646 84.3011 94.3905 83.4718 93.8929 82.6424C93.3953 81.7577 92.9529 80.7348 92.5659 79.5736C92.1788 78.3572 91.9853 77.0302 91.9853 75.5925C91.9853 70.8927 93.6441 67.1328 96.9617 64.3128C100.335 61.4376 104.537 60 109.568 60C114.102 60 117.973 61.1335 121.18 63.4005C124.387 65.6675 126.737 68.598 128.23 72.192L124.497 74.2655C121.733 67.5751 116.756 64.2299 109.568 64.2299C105.587 64.2299 102.408 65.2805 100.03 67.3816C97.6528 69.4827 96.464 72.1644 96.464 75.4267C96.464 78.5783 97.5699 80.9283 99.7816 82.4765C101.993 84.0247 105.615 85.6282 110.647 87.2869C113.854 88.3375 116.342 89.2498 118.111 90.0239C119.936 90.7427 121.871 91.7657 123.917 93.0927C126.018 94.3644 127.539 95.9126 128.479 97.7373C129.418 99.5066 129.888 101.58 129.888 103.958C129.888 108.768 128.147 112.639 124.663 115.569C121.18 118.444 116.563 119.882 110.812 119.882Z" fill="#2A2A2A"/>
<path d="M75.9468 104.207L81.5867 118.97H86.2313L63.7548 60.9123H59.1102L36.5508 118.97H41.1954L46.8352 104.207L48.494 100.06L61.4325 66.3034L74.371 100.06L75.9468 104.207Z" fill="#9C292A"/>
<path d="M4.39577 114.823H31.7657V118.97H0V60.9123H4.39577V114.823Z" fill="#2A2A2A"/>
<path d="M153.21 137.662L133.719 173.409V195.719H120.449V173.409L100.958 137.662H116.053L127.084 160.055L138.115 137.662H153.21Z" fill="#2A2A2A"/>
<path d="M93.9218 195.719L91.019 186.596H69.4548L66.5519 195.719H52.0376L71.7771 137.662H88.6967L108.436 195.719H93.9218ZM73.4359 174.155H87.0379L80.2369 152.84L73.4359 174.155Z" fill="#2A2A2A"/>
<path d="M23.4593 137.662C31.4767 137.662 38.1671 140.454 43.5305 146.039C48.9492 151.568 51.6585 158.452 51.6585 166.691C51.6585 174.929 48.9492 181.841 43.5305 187.425C38.1671 192.955 31.4767 195.719 23.4593 195.719H0.236328V137.662H23.4593ZM23.4593 182.947C28.0486 182.947 31.7532 181.481 34.5731 178.551C37.4483 175.565 38.8859 171.612 38.8859 166.691C38.8859 161.769 37.4483 157.844 34.5731 154.913C31.7532 151.927 28.0486 150.434 23.4593 150.434H13.5066V182.947H23.4593Z" fill="#2A2A2A"/>
<path d="M302.821 176.715H304.396V197.512H302.821V188.51C300.939 189.421 298.988 189.876 296.968 189.876C294.948 189.876 293.354 189.332 292.185 188.242C291.016 187.153 290.432 185.757 290.432 184.053V176.715H292.007V184.053C292.007 185.36 292.442 186.41 293.314 187.202C294.185 187.995 295.404 188.391 296.968 188.391C298.988 188.391 300.939 187.935 302.821 187.024V176.715Z" fill="#2A2A2A"/>
<path d="M276.525 176.388C279.516 176.388 282.051 177.438 284.131 179.537C286.21 181.617 287.25 184.142 287.25 187.113C287.25 190.084 286.21 192.62 284.131 194.719C282.051 196.799 279.516 197.838 276.525 197.838C273.594 197.838 271.108 196.848 269.068 194.868C267.048 192.887 265.978 190.451 265.859 187.559H261.7V197.512H260.125V176.715H261.7V186.074H265.919C266.176 183.32 267.305 181.023 269.306 179.181C271.306 177.319 273.713 176.388 276.525 176.388ZM276.525 196.323C279.08 196.323 281.239 195.432 283.002 193.649C284.784 191.847 285.676 189.668 285.676 187.113C285.676 184.558 284.784 182.39 283.002 180.607C281.239 178.805 279.08 177.903 276.525 177.903C273.95 177.903 271.782 178.795 270.019 180.577C268.256 182.36 267.375 184.539 267.375 187.113C267.375 189.688 268.256 191.867 270.019 193.649C271.782 195.432 273.95 196.323 276.525 196.323Z" fill="#2A2A2A"/>
<path d="M237.331 197.512V196.115C238.797 196.294 239.906 195.828 240.659 194.719C241.431 193.59 241.817 191.58 241.817 188.688V176.715H254.979V197.512H253.374V178.2H243.392V188.718C243.392 192.045 242.877 194.392 241.847 195.759C240.837 197.106 239.331 197.69 237.331 197.512Z" fill="#2A2A2A"/>
<path d="M236.491 197.512H234.382L223.954 187.262V197.512H222.379V176.715H223.954V186.4L234.085 176.715H236.194L225.677 186.816L236.491 197.512Z" fill="#2A2A2A"/>
<path d="M208.534 196.026H210.732V201.493H209.128V197.512H193.501V201.493H191.896V196.026H193.56C194.986 194.422 195.699 191.936 195.699 188.569V176.715H208.534V196.026ZM197.274 188.599C197.274 191.807 196.66 194.283 195.432 196.026H206.959V178.2H197.274V188.599Z" fill="#2A2A2A"/>
<path d="M187.215 176.715H188.79V197.512H187.215V176.715Z" fill="#2A2A2A"/>
<path d="M182.08 176.715V197.512H180.476V178.2H168.8V197.512H167.225V176.715H182.08Z" fill="#2A2A2A"/>
<path d="M253.519 161.512L251.499 156.223H241.071L239.05 161.512H237.387L245.468 140.715H247.131L255.183 161.512H253.519ZM241.665 154.738H250.934L246.3 142.646L241.665 154.738Z" fill="#2A2A2A"/>
<path d="M227.131 161.838C224.001 161.838 221.417 160.809 219.376 158.749C217.336 156.669 216.316 154.124 216.316 151.113C216.316 148.103 217.336 145.568 219.376 143.508C221.417 141.428 224.001 140.388 227.131 140.388C229.032 140.388 230.775 140.844 232.36 141.755C233.944 142.646 235.172 143.854 236.044 145.379L234.647 146.182C233.954 144.894 232.934 143.864 231.587 143.092C230.24 142.3 228.755 141.903 227.131 141.903C224.437 141.903 222.219 142.795 220.476 144.577C218.753 146.34 217.891 148.519 217.891 151.113C217.891 153.708 218.753 155.897 220.476 157.679C222.219 159.442 224.437 160.323 227.131 160.323C228.755 160.323 230.25 159.927 231.617 159.135C232.983 158.343 234.013 157.283 234.707 155.956L236.103 156.758C235.251 158.303 234.023 159.541 232.419 160.472C230.815 161.383 229.052 161.838 227.131 161.838Z" fill="#2A2A2A"/>
<path d="M213.568 161.512L211.548 156.223H201.12L199.099 161.512H197.436L205.517 140.715H207.18L215.232 161.512H213.568ZM201.714 154.738H210.983L206.348 142.646L201.714 154.738Z" fill="#2A2A2A"/>
<path d="M191.298 140.715C193.16 140.715 194.705 141.329 195.933 142.557C197.161 143.785 197.775 145.32 197.775 147.162C197.775 149.004 197.161 150.539 195.933 151.767C194.705 152.975 193.16 153.579 191.298 153.579H185.802V161.512H184.227V140.715H191.298ZM191.298 152.094C192.724 152.094 193.893 151.628 194.804 150.697C195.735 149.767 196.2 148.588 196.2 147.162C196.2 145.716 195.735 144.528 194.804 143.597C193.893 142.666 192.724 142.201 191.298 142.201H185.802V152.094H191.298Z" fill="#2A2A2A"/>
<path d="M181.337 161.512H179.228L168.8 151.262V161.512H167.225V140.715H168.8V150.4L178.931 140.715H181.04L170.523 150.816L181.337 161.512Z" fill="#2A2A2A"/>
<path d="M287.404 33.0566C289.506 30.5334 291.381 28.0717 293.483 25.7741C297.13 21.8149 301.334 18.5531 306.032 15.8658C311.514 12.7476 317.428 10.9834 323.692 10.5321C328.308 10.2039 332.842 10.9424 337.21 12.481C346.792 15.8453 354.252 21.8559 359.074 30.759C360.825 34.0002 362.082 37.6518 362.742 41.2828C364.061 48.3601 363.855 55.5195 362.68 62.6379C361.444 70.1871 359.3 77.5106 356.477 84.588C352.871 93.6142 348.173 102.107 343.392 110.559C341.826 113.328 340.095 116.036 338.673 118.97C339.415 118.19 340.219 117.452 340.919 116.631C348.111 108.056 354.128 98.7222 358.827 88.6088C361.918 81.9417 364.926 75.172 367.378 68.2588C370.984 58.0838 372.509 47.519 371.005 36.7491C369.83 28.3384 366.801 20.6045 361.588 13.7939C356.251 6.81906 349.018 2.92139 340.507 1.17769C329.854 -0.976292 319.509 0.151983 309.762 4.9728C303.601 8.00888 298.614 12.5835 294.493 18.0403C291.422 22.061 289.258 26.5126 287.734 31.2924C287.569 31.8258 287.527 32.4001 287.404 33.0566Z" fill="#9C292A"/>
</svg>
