<svg width="591" height="197" viewBox="0 0 591 197" fill="none" xmlns="http://www.w3.org/2000/svg">
<g opacity="0.3">
<g opacity="0.8" filter="url(#filter0_f_168_3)">
<rect x="121.188" y="92.1021" width="67" height="9.7552" transform="rotate(70.3266 121.188 92.1021)" fill="#ECA24A"/>
</g>
<g opacity="0.8" filter="url(#filter1_f_168_3)">
<rect x="178" y="88.0005" width="54" height="13" fill="#ECA24A"/>
</g>
<g opacity="0.8" filter="url(#filter2_f_168_3)">
<rect x="192" y="119" width="45" height="14" transform="rotate(90 192 119)" fill="#ECA24A"/>
</g>
<g opacity="0.8" filter="url(#filter3_f_168_3)">
<rect x="331.188" y="42.2817" width="42.902" height="13.2006" transform="rotate(128.846 331.188 42.2817)" fill="#ECA24A"/>
</g>
<g opacity="0.8" filter="url(#filter4_f_168_3)">
<rect x="438.68" y="29.2114" width="52" height="16" transform="rotate(90.7528 438.68 29.2114)" fill="#ECA24A"/>
</g>
</g>
<g filter="url(#filter5_di_168_3)">
<mask id="path-6-inside-1_168_3" fill="white">
<path d="M148.066 167H129.054L116.51 131.916H54.574L42.226 167H24.194L77.506 23.92H95.146L148.066 167ZM85.542 44.892L60.258 116.236H111.022L85.542 44.892ZM170.243 23.92H262.363V39.6H186.903V85.072H253.543V100.752H186.903V151.32H262.363V167H170.243V23.92ZM342.114 90.56H393.858V167H382.294L378.57 152.692C370.534 162.492 358.186 168.372 343.29 168.372C311.146 168.372 280.374 150.144 280.374 95.46C280.374 45.872 312.518 22.156 344.27 22.156C368.182 22.156 381.118 30.584 391.506 47.244L378.962 58.22C372.102 46.264 360.734 37.836 344.662 37.836C312.714 37.836 297.034 65.864 297.034 95.46C297.034 126.036 312.518 152.692 344.27 152.692C356.03 152.692 377.982 144.068 377.982 127.996V105.848H342.114V90.56ZM439.942 167H423.282V23.92H439.942V167ZM512.307 167.98C490.943 167.98 475.851 161.708 464.091 150.34V131.132C475.851 143.284 493.099 151.908 512.111 151.908C535.435 151.908 550.331 141.324 550.331 125.252C550.331 112.316 536.023 102.908 513.875 100.948C486.435 98.4 465.463 89.188 465.463 63.708C465.463 38.228 485.651 22.156 513.679 22.156C534.259 22.156 546.411 28.036 557.191 36.66V54.3C543.471 42.932 527.203 37.64 513.287 37.64C495.255 37.64 481.731 48.42 481.731 62.14C481.731 74.488 492.119 82.524 516.815 85.268C545.039 88.404 566.795 101.34 566.795 124.86C566.795 151.32 546.999 167.98 512.307 167.98Z"/>
</mask>
<path d="M148.066 167H129.054L116.51 131.916H54.574L42.226 167H24.194L77.506 23.92H95.146L148.066 167ZM85.542 44.892L60.258 116.236H111.022L85.542 44.892ZM170.243 23.92H262.363V39.6H186.903V85.072H253.543V100.752H186.903V151.32H262.363V167H170.243V23.92ZM342.114 90.56H393.858V167H382.294L378.57 152.692C370.534 162.492 358.186 168.372 343.29 168.372C311.146 168.372 280.374 150.144 280.374 95.46C280.374 45.872 312.518 22.156 344.27 22.156C368.182 22.156 381.118 30.584 391.506 47.244L378.962 58.22C372.102 46.264 360.734 37.836 344.662 37.836C312.714 37.836 297.034 65.864 297.034 95.46C297.034 126.036 312.518 152.692 344.27 152.692C356.03 152.692 377.982 144.068 377.982 127.996V105.848H342.114V90.56ZM439.942 167H423.282V23.92H439.942V167ZM512.307 167.98C490.943 167.98 475.851 161.708 464.091 150.34V131.132C475.851 143.284 493.099 151.908 512.111 151.908C535.435 151.908 550.331 141.324 550.331 125.252C550.331 112.316 536.023 102.908 513.875 100.948C486.435 98.4 465.463 89.188 465.463 63.708C465.463 38.228 485.651 22.156 513.679 22.156C534.259 22.156 546.411 28.036 557.191 36.66V54.3C543.471 42.932 527.203 37.64 513.287 37.64C495.255 37.64 481.731 48.42 481.731 62.14C481.731 74.488 492.119 82.524 516.815 85.268C545.039 88.404 566.795 101.34 566.795 124.86C566.795 151.32 546.999 167.98 512.307 167.98Z" fill="url(#paint0_linear_168_3)"/>
<path d="M148.066 167H129.054L116.51 131.916H54.574L42.226 167H24.194L77.506 23.92H95.146L148.066 167ZM85.542 44.892L60.258 116.236H111.022L85.542 44.892ZM170.243 23.92H262.363V39.6H186.903V85.072H253.543V100.752H186.903V151.32H262.363V167H170.243V23.92ZM342.114 90.56H393.858V167H382.294L378.57 152.692C370.534 162.492 358.186 168.372 343.29 168.372C311.146 168.372 280.374 150.144 280.374 95.46C280.374 45.872 312.518 22.156 344.27 22.156C368.182 22.156 381.118 30.584 391.506 47.244L378.962 58.22C372.102 46.264 360.734 37.836 344.662 37.836C312.714 37.836 297.034 65.864 297.034 95.46C297.034 126.036 312.518 152.692 344.27 152.692C356.03 152.692 377.982 144.068 377.982 127.996V105.848H342.114V90.56ZM439.942 167H423.282V23.92H439.942V167ZM512.307 167.98C490.943 167.98 475.851 161.708 464.091 150.34V131.132C475.851 143.284 493.099 151.908 512.111 151.908C535.435 151.908 550.331 141.324 550.331 125.252C550.331 112.316 536.023 102.908 513.875 100.948C486.435 98.4 465.463 89.188 465.463 63.708C465.463 38.228 485.651 22.156 513.679 22.156C534.259 22.156 546.411 28.036 557.191 36.66V54.3C543.471 42.932 527.203 37.64 513.287 37.64C495.255 37.64 481.731 48.42 481.731 62.14C481.731 74.488 492.119 82.524 516.815 85.268C545.039 88.404 566.795 101.34 566.795 124.86C566.795 151.32 546.999 167.98 512.307 167.98Z" fill="url(#paint1_linear_168_3)" fill-opacity="0.4"/>
<path d="M148.066 167V168H149.502L149.004 166.653L148.066 167ZM129.054 167L128.112 167.337L128.35 168H129.054V167ZM116.51 131.916L117.452 131.579L117.214 130.916H116.51V131.916ZM54.574 131.916V130.916H53.8658L53.6307 131.584L54.574 131.916ZM42.226 167V168H42.9342L43.1693 167.332L42.226 167ZM24.194 167L23.2569 166.651L22.7542 168H24.194V167ZM77.506 23.92V22.92H76.8114L76.5689 23.5708L77.506 23.92ZM95.146 23.92L96.0839 23.5731L95.8423 22.92H95.146V23.92ZM85.542 44.892L86.4837 44.5557L85.5384 41.9086L84.5994 44.558L85.542 44.892ZM60.258 116.236L59.3154 115.902L58.8426 117.236H60.258V116.236ZM111.022 116.236V117.236H112.441L111.964 115.9L111.022 116.236ZM148.066 166H129.054V168H148.066V166ZM129.996 166.663L117.452 131.579L115.568 132.253L128.112 167.337L129.996 166.663ZM116.51 130.916H54.574V132.916H116.51V130.916ZM53.6307 131.584L41.2827 166.668L43.1693 167.332L55.5173 132.248L53.6307 131.584ZM42.226 166H24.194V168H42.226V166ZM25.1311 167.349L78.4431 24.2691L76.5689 23.5708L23.2569 166.651L25.1311 167.349ZM77.506 24.92H95.146V22.92H77.506V24.92ZM94.2081 24.2669L147.128 167.347L149.004 166.653L96.0839 23.5731L94.2081 24.2669ZM84.5994 44.558L59.3154 115.902L61.2005 116.57L86.4845 45.226L84.5994 44.558ZM60.258 117.236H111.022V115.236H60.258V117.236ZM111.964 115.9L86.4837 44.5557L84.6002 45.2283L110.08 116.572L111.964 115.9ZM170.243 23.92V22.92H169.243V23.92H170.243ZM262.363 23.92H263.363V22.92H262.363V23.92ZM262.363 39.6V40.6H263.363V39.6H262.363ZM186.903 39.6V38.6H185.903V39.6H186.903ZM186.903 85.072H185.903V86.072H186.903V85.072ZM253.543 85.072H254.543V84.072H253.543V85.072ZM253.543 100.752V101.752H254.543V100.752H253.543ZM186.903 100.752V99.752H185.903V100.752H186.903ZM186.903 151.32H185.903V152.32H186.903V151.32ZM262.363 151.32H263.363V150.32H262.363V151.32ZM262.363 167V168H263.363V167H262.363ZM170.243 167H169.243V168H170.243V167ZM170.243 24.92H262.363V22.92H170.243V24.92ZM261.363 23.92V39.6H263.363V23.92H261.363ZM262.363 38.6H186.903V40.6H262.363V38.6ZM185.903 39.6V85.072H187.903V39.6H185.903ZM186.903 86.072H253.543V84.072H186.903V86.072ZM252.543 85.072V100.752H254.543V85.072H252.543ZM253.543 99.752H186.903V101.752H253.543V99.752ZM185.903 100.752V151.32H187.903V100.752H185.903ZM186.903 152.32H262.363V150.32H186.903V152.32ZM261.363 151.32V167H263.363V151.32H261.363ZM262.363 166H170.243V168H262.363V166ZM171.243 167V23.92H169.243V167H171.243ZM342.114 90.56V89.56H341.114V90.56H342.114ZM393.858 90.56H394.858V89.56H393.858V90.56ZM393.858 167V168H394.858V167H393.858ZM382.294 167L381.326 167.252L381.521 168H382.294V167ZM378.57 152.692L379.537 152.44L379.042 150.538L377.796 152.058L378.57 152.692ZM391.506 47.244L392.164 47.9966L392.804 47.4366L392.354 46.7149L391.506 47.244ZM378.962 58.22L378.094 58.7177L378.702 59.7763L379.62 58.9726L378.962 58.22ZM377.982 105.848H378.982V104.848H377.982V105.848ZM342.114 105.848H341.114V106.848H342.114V105.848ZM342.114 91.56H393.858V89.56H342.114V91.56ZM392.858 90.56V167H394.858V90.56H392.858ZM393.858 166H382.294V168H393.858V166ZM383.261 166.748L379.537 152.44L377.602 152.944L381.326 167.252L383.261 166.748ZM377.796 152.058C369.966 161.607 357.911 167.372 343.29 167.372V169.372C358.46 169.372 371.101 163.377 379.343 153.326L377.796 152.058ZM343.29 167.372C327.398 167.372 311.949 162.867 300.475 151.706C289.01 140.552 281.374 122.615 281.374 95.46H279.374C279.374 122.989 287.124 141.508 299.08 153.139C311.029 164.763 327.038 169.372 343.29 169.372V167.372ZM281.374 95.46C281.374 70.8914 289.331 52.8309 301.125 40.916C312.929 28.9923 328.64 23.156 344.27 23.156V21.156C328.147 21.156 311.911 27.1777 299.704 39.509C287.488 51.8491 279.374 70.4406 279.374 95.46H281.374ZM344.27 23.156C356.108 23.156 365.14 25.2419 372.473 29.3261C379.803 33.4094 385.522 39.5383 390.657 47.7731L392.354 46.7149C387.101 38.2897 381.158 31.8746 373.446 27.5789C365.735 23.2841 356.343 21.156 344.27 21.156V23.156ZM390.847 46.4914L378.303 57.4674L379.62 58.9726L392.164 47.9966L390.847 46.4914ZM379.829 57.7223C372.821 45.5079 361.148 36.836 344.662 36.836V38.836C360.319 38.836 371.383 47.0201 378.094 58.7177L379.829 57.7223ZM344.662 36.836C328.354 36.836 316.155 44.0068 308.063 54.9551C299.994 65.8721 296.034 80.5013 296.034 95.46H298.034C298.034 80.8227 301.913 66.6399 309.671 56.1439C317.406 45.6792 329.021 38.836 344.662 38.836V36.836ZM296.034 95.46C296.034 110.901 299.941 125.438 307.944 136.141C315.971 146.877 328.076 153.692 344.27 153.692V151.692C328.712 151.692 317.198 145.179 309.546 134.943C301.868 124.674 298.034 110.595 298.034 95.46H296.034ZM344.27 153.692C350.342 153.692 358.946 151.481 366.049 147.229C373.142 142.983 378.982 136.542 378.982 127.996H376.982C376.982 135.522 371.845 141.429 365.022 145.513C358.209 149.591 349.957 151.692 344.27 151.692V153.692ZM378.982 127.996V105.848H376.982V127.996H378.982ZM377.982 104.848H342.114V106.848H377.982V104.848ZM343.114 105.848V90.56H341.114V105.848H343.114ZM439.942 167V168H440.942V167H439.942ZM423.282 167H422.282V168H423.282V167ZM423.282 23.92V22.92H422.282V23.92H423.282ZM439.942 23.92H440.942V22.92H439.942V23.92ZM439.942 166H423.282V168H439.942V166ZM424.282 167V23.92H422.282V167H424.282ZM423.282 24.92H439.942V22.92H423.282V24.92ZM438.942 23.92V167H440.942V23.92H438.942ZM464.091 150.34H463.091V150.764L463.396 151.059L464.091 150.34ZM464.091 131.132L464.81 130.437L463.091 128.661V131.132H464.091ZM513.875 100.948L513.783 101.944L513.787 101.944L513.875 100.948ZM557.191 36.66H558.191V36.1794L557.816 35.8791L557.191 36.66ZM557.191 54.3L556.553 55.07L558.191 56.4272V54.3H557.191ZM516.815 85.268L516.926 84.2741L516.926 84.2741L516.815 85.268ZM512.307 166.98C491.169 166.98 476.337 160.786 464.787 149.621L463.396 151.059C475.366 162.63 490.718 168.98 512.307 168.98V166.98ZM465.091 150.34V131.132H463.091V150.34H465.091ZM463.373 131.827C475.298 144.15 492.797 152.908 512.111 152.908V150.908C493.402 150.908 476.405 142.418 464.81 130.437L463.373 131.827ZM512.111 152.908C523.91 152.908 533.686 150.233 540.542 145.426C547.428 140.598 551.331 133.639 551.331 125.252H549.331C549.331 132.937 545.787 139.306 539.394 143.788C532.971 148.291 523.637 150.908 512.111 150.908V152.908ZM551.331 125.252C551.331 118.362 547.505 112.496 540.962 108.151C534.434 103.816 525.143 100.941 513.964 99.9519L513.787 101.944C524.756 102.915 533.693 105.724 539.856 109.817C546.003 113.9 549.331 119.206 549.331 125.252H551.331ZM513.968 99.9523C500.305 98.6836 488.401 95.7642 479.936 90.0965C471.54 84.4757 466.463 76.1145 466.463 63.708H464.463C464.463 76.7815 469.873 85.7662 478.823 91.7585C487.704 97.7038 500.006 100.664 513.783 101.944L513.968 99.9523ZM466.463 63.708C466.463 51.2541 471.387 41.1492 479.705 34.1418C488.04 27.1207 499.85 23.156 513.679 23.156V21.156C499.481 21.156 487.183 25.2273 478.417 32.6122C469.634 40.0108 464.463 50.6819 464.463 63.708H466.463ZM513.679 23.156C534.013 23.156 545.949 28.9464 556.567 37.4409L557.816 35.8791C546.874 27.1256 534.505 21.156 513.679 21.156V23.156ZM556.191 36.66V54.3H558.191V36.66H556.191ZM557.83 53.53C543.934 42.0168 527.442 36.64 513.287 36.64V38.64C526.965 38.64 543.009 43.8472 556.553 55.07L557.83 53.53ZM513.287 36.64C494.945 36.64 480.731 47.6533 480.731 62.14H482.731C482.731 49.1867 495.566 38.64 513.287 38.64V36.64ZM480.731 62.14C480.731 68.6554 483.501 74.055 489.447 78.1304C495.33 82.1624 504.294 84.8828 516.705 86.2619L516.926 84.2741C504.641 82.9092 496.063 80.2396 490.578 76.4806C485.156 72.7649 482.731 67.9726 482.731 62.14H480.731ZM516.705 86.2619C530.713 87.8183 543.02 91.7989 551.799 98.2268C560.543 104.63 565.795 113.459 565.795 124.86H567.795C567.795 112.741 562.17 103.342 552.98 96.6132C543.825 89.9091 531.142 85.8537 516.926 84.2741L516.705 86.2619ZM565.795 124.86C565.795 137.818 560.961 148.299 551.934 155.563C542.881 162.849 529.507 166.98 512.307 166.98V168.98C529.8 168.98 543.67 164.781 553.188 157.122C562.732 149.441 567.795 138.362 567.795 124.86H565.795Z" fill="url(#paint2_linear_168_3)" mask="url(#path-6-inside-1_168_3)"/>
</g>
<defs>
<filter id="filter0_f_168_3" x="92.0017" y="72.1021" width="71.7419" height="106.373" filterUnits="userSpaceOnUse" color-interpolation-filters="sRGB">
<feFlood flood-opacity="0" result="BackgroundImageFix"/>
<feBlend mode="normal" in="SourceGraphic" in2="BackgroundImageFix" result="shape"/>
<feGaussianBlur stdDeviation="10" result="effect1_foregroundBlur_168_3"/>
</filter>
<filter id="filter1_f_168_3" x="158" y="68.0005" width="94" height="53" filterUnits="userSpaceOnUse" color-interpolation-filters="sRGB">
<feFlood flood-opacity="0" result="BackgroundImageFix"/>
<feBlend mode="normal" in="SourceGraphic" in2="BackgroundImageFix" result="shape"/>
<feGaussianBlur stdDeviation="10" result="effect1_foregroundBlur_168_3"/>
</filter>
<filter id="filter2_f_168_3" x="158" y="99.0005" width="54" height="85" filterUnits="userSpaceOnUse" color-interpolation-filters="sRGB">
<feFlood flood-opacity="0" result="BackgroundImageFix"/>
<feBlend mode="normal" in="SourceGraphic" in2="BackgroundImageFix" result="shape"/>
<feGaussianBlur stdDeviation="10" result="effect1_foregroundBlur_168_3"/>
</filter>
<filter id="filter3_f_168_3" x="273.997" y="14.002" width="77.1907" height="81.6934" filterUnits="userSpaceOnUse" color-interpolation-filters="sRGB">
<feFlood flood-opacity="0" result="BackgroundImageFix"/>
<feBlend mode="normal" in="SourceGraphic" in2="BackgroundImageFix" result="shape"/>
<feGaussianBlur stdDeviation="10" result="effect1_foregroundBlur_168_3"/>
</filter>
<filter id="filter4_f_168_3" x="401.998" y="9.00098" width="56.6819" height="92.2061" filterUnits="userSpaceOnUse" color-interpolation-filters="sRGB">
<feFlood flood-opacity="0" result="BackgroundImageFix"/>
<feBlend mode="normal" in="SourceGraphic" in2="BackgroundImageFix" result="shape"/>
<feGaussianBlur stdDeviation="10" result="effect1_foregroundBlur_168_3"/>
</filter>
<filter id="filter5_di_168_3" x="0.194092" y="2.15576" width="590.601" height="194.216" filterUnits="userSpaceOnUse" color-interpolation-filters="sRGB">
<feFlood flood-opacity="0" result="BackgroundImageFix"/>
<feColorMatrix in="SourceAlpha" type="matrix" values="0 0 0 0 0 0 0 0 0 0 0 0 0 0 0 0 0 0 127 0" result="hardAlpha"/>
<feOffset dy="4"/>
<feGaussianBlur stdDeviation="12"/>
<feComposite in2="hardAlpha" operator="out"/>
<feColorMatrix type="matrix" values="0 0 0 0 0.95 0 0 0 0 0.751529 0 0 0 0 0.518542 0 0 0 0.2 0"/>
<feBlend mode="normal" in2="BackgroundImageFix" result="effect1_dropShadow_168_3"/>
<feBlend mode="normal" in="SourceGraphic" in2="effect1_dropShadow_168_3" result="shape"/>
<feColorMatrix in="SourceAlpha" type="matrix" values="0 0 0 0 0 0 0 0 0 0 0 0 0 0 0 0 0 0 127 0" result="hardAlpha"/>
<feOffset dy="-7"/>
<feGaussianBlur stdDeviation="6"/>
<feComposite in2="hardAlpha" operator="arithmetic" k2="-1" k3="1"/>
<feColorMatrix type="matrix" values="0 0 0 0 1 0 0 0 0 1 0 0 0 0 1 0 0 0 0.6 0"/>
<feBlend mode="normal" in2="shape" result="effect2_innerShadow_168_3"/>
</filter>
<linearGradient id="paint0_linear_168_3" x1="86.875" y1="-1.42728e-06" x2="513.61" y2="268.578" gradientUnits="userSpaceOnUse">
<stop stop-color="#F9B58F"/>
<stop offset="0.315" stop-color="#F4954A"/>
<stop offset="0.665" stop-color="#F8B466"/>
<stop offset="1" stop-color="#ED8539"/>
</linearGradient>
<linearGradient id="paint1_linear_168_3" x1="236" y1="-2.43368e-06" x2="445.934" y2="205.125" gradientUnits="userSpaceOnUse">
<stop stop-color="#F3B367"/>
<stop offset="0.4" stop-color="#ECB778"/>
<stop offset="1" stop-color="white"/>
</linearGradient>
<linearGradient id="paint2_linear_168_3" x1="231.154" y1="3.09968e-06" x2="311.61" y2="183.37" gradientUnits="userSpaceOnUse">
<stop stop-color="#FFD7BA"/>
<stop offset="1" stop-color="#F7B280"/>
</linearGradient>
</defs>
</svg>
