<svg width="534" height="442" viewBox="0 0 534 442" fill="none" xmlns="http://www.w3.org/2000/svg">
<g clip-path="url(#clip0_0_550)">
<path d="M-1006.59 -203.774C-911.582 -85.1454 -790.517 11.9073 -654.581 79.7875C-587.295 113.385 -516.436 139.875 -443.512 158.267C-359.224 179.535 -272.019 186.748 -188.089 209.621C-28.7164 253.061 95.7095 369.687 249.257 426.667C396.02 481.127 555.653 485.192 709.742 468.371C788.316 459.793 866.225 445.952 943.597 429.884C1030.56 411.829 1119.42 394.662 1202.55 362.796C1223.01 354.951 1243.02 346.07 1262.49 336.021C1265.07 334.69 1262.81 330.78 1260.22 332.115C1178.37 374.361 1087.55 393.912 998.25 413.562C920.82 430.596 842.974 446.103 764.413 457.046C609.546 478.62 448.605 482.75 297.294 437.912C219.957 414.991 149.505 377.582 80.54 336.402C12.6279 295.85 -54.6529 253.013 -128.72 224.326C-209.617 193.008 -296.09 183.718 -380.706 167.49C-457.022 152.855 -531.55 130.132 -602.802 99.0554C-741.61 38.4566 -867.376 -52.05 -968.143 -165.195C-980.268 -178.807 -991.999 -192.757 -1003.38 -206.97C-1005.21 -209.248 -1008.38 -206.031 -1006.59 -203.774Z" fill="url(#paint0_linear_0_550)" fill-opacity="0.2"/>
<path d="M-1033.16 -178.34C-930.826 -64.438 -803.316 25.8288 -662.686 86.1834C-592.895 116.148 -520.023 138.853 -445.515 153.605C-359.669 170.6 -271.559 174.849 -186.605 196.519C-24.2519 237.899 103.482 354.249 258.595 412.625C406.671 468.346 567.647 472.899 723.623 459.587C803.424 452.775 882.762 441.41 961.894 429.258C1052.11 415.412 1144.34 404.715 1231.35 376.067C1252.23 369.201 1272.68 361.14 1292.62 351.872C1295.26 350.65 1292.97 346.747 1290.35 347.966C1203.75 388.173 1108.7 401.9 1015.21 416.435C935.485 428.835 855.74 441.319 775.5 450.023C620.044 466.86 459.439 469.952 308.224 424.59C229.681 401.051 158.137 362.511 87.6299 321.33C18.433 280.928 -50.4914 238.834 -125.882 210.744C-207.077 180.486 -293.347 172.622 -378.459 160.326C-456.493 149.055 -533.068 130.701 -607.122 103.492C-750.719 50.7085 -883.214 -32.6726 -991.493 -140.902C-1004.69 -154.092 -1017.49 -167.667 -1029.97 -181.546C-1031.92 -183.698 -1035.12 -180.506 -1033.16 -178.34Z" fill="url(#paint1_linear_0_550)" fill-opacity="0.2"/>
<path d="M-1059.75 -152.901C-950.377 -44.491 -817.069 38.0692 -672.566 90.8638C-598.866 117.793 -522.373 136.962 -444.726 148.241C-357.409 160.924 -268.4 162.725 -182.386 183.743C-18.4329 223.799 112.252 338.689 267.863 398.726C418.034 456.671 581.464 462.621 740.371 453.353C821.698 448.617 902.713 439.959 983.759 431.838C1075.92 422.608 1169.59 416.657 1258.93 390.563C1280.65 384.223 1301.93 376.614 1322.75 367.738C1325.41 366.603 1323.13 362.7 1320.48 363.831C1230.3 402.253 1132.25 412.857 1035.6 422.238C954.451 430.105 873.39 439.118 792.105 445.322C633.633 457.436 470.639 458.725 317.358 411.131C159.987 362.259 31.7281 252.574 -122.621 197.051C-203.631 167.912 -289.105 160.884 -374.106 152.157C-454.561 143.89 -533.803 130.037 -611.293 106.534C-759.439 61.6438 -898.634 -13.8411 -1014.6 -116.688C-1028.95 -129.419 -1042.92 -142.578 -1056.55 -156.093C-1058.61 -158.137 -1061.81 -154.946 -1059.75 -152.901Z" fill="url(#paint2_linear_0_550)" fill-opacity="0.2"/>
<path d="M-1086.33 -127.448C-969.531 -24.5707 -829.955 50.1129 -681.186 95.1201C-606.169 117.808 -528.892 133.017 -450.911 140.937C-360.54 150.124 -268.766 149.517 -179.886 170.234C-14.6646 208.773 118.482 321.35 273.911 383.538C426.416 444.562 592.716 453.732 755.144 449.57C837.427 447.465 919.568 442.032 1001.78 438.061C1096.61 433.474 1192.59 430.204 1284.92 405.99C1307.83 399.977 1330.34 392.605 1352.36 383.865C1355.03 382.807 1353.93 378.423 1351.22 379.492C1260.32 415.561 1162.56 425.171 1065.69 430.403C981.876 434.934 898.008 439.543 814.14 443.029C652.155 449.77 486.25 448.458 330.26 398.911C171.229 348.403 39.8374 239.011 -117.156 183.917C-199.369 155.062 -285.426 148.545 -371.708 142.71C-454.421 137.122 -536.174 127.591 -616.839 107.958C-769.497 70.8109 -915.318 3.43714 -1039.02 -93.859C-1054.08 -105.705 -1068.77 -117.989 -1083.13 -130.64C-1085.3 -132.562 -1088.52 -129.382 -1086.33 -127.448Z" fill="url(#paint3_linear_0_550)" fill-opacity="0.2"/>
<path d="M-1112.9 -102.013C-988.369 -4.81091 -842.303 61.595 -689.054 98.6185C-610.195 117.665 -529.571 129.005 -448.586 133.535C-357.227 138.645 -264.605 136.46 -174.876 157.032C-7.71586 195.359 128.342 306.502 284.963 370.387C439.26 433.308 607.444 446.393 772.425 447.979C858.17 448.798 943.961 447.3 1029.69 446.767C1124.58 446.185 1220.58 443.752 1313.2 421.081C1336.69 415.335 1359.81 408.208 1382.47 399.738C1385.16 398.735 1384.05 394.354 1381.32 395.366C1289.88 429.537 1192.27 438.842 1095.37 441.325C1008.07 443.547 920.567 443.344 833.237 443.611C668.033 444.139 499.613 438.47 341.349 386.311C181.602 333.669 47.693 225.311 -111.207 170.671C-194.485 142.034 -281.099 135.647 -368.485 132.377C-453.501 129.169 -537.736 124.012 -621.516 108.422C-777.928 79.3488 -929.568 21.0892 -1060.91 -69.3559C-1077.53 -80.8067 -1093.79 -92.7881 -1109.7 -105.205C-1111.98 -106.977 -1115.21 -103.792 -1112.9 -102.013Z" fill="url(#paint4_linear_0_550)" fill-opacity="0.2"/>
<path d="M-1139.03 -76.2108C-1005.57 15.7191 -851.409 73.3791 -692.385 102.016C-609.955 116.855 -526.442 123.775 -442.742 124.99C-350.302 126.327 -256.568 123.274 -165.907 144.489C2.30336 183.849 140.6 292.956 298.114 358.164C455.4 423.277 626.494 441.035 795.071 448.906C883.048 453.004 971.207 456.196 1059.25 458.125C1154.48 460.211 1250.83 457.811 1343.93 435.869C1367.19 430.389 1390.09 423.601 1412.6 415.604C1415.33 414.64 1414.21 410.26 1411.46 411.231C1319.25 443.967 1221.41 453.41 1124.11 454.159C1034.11 454.848 943.939 450.125 854.006 446.822C685.196 440.617 513.755 429.431 352.807 374.05C191.822 318.648 55.0266 210.752 -106.56 156.739C-190.94 128.531 -278.119 122.246 -366.528 121.191C-452.671 120.165 -538.268 119.198 -623.863 108.088C-786.234 86.997 -946.116 37.5216 -1086.62 -47.6374C-1103.65 -57.9687 -1120.34 -68.8083 -1136.74 -80.1156C-1139.15 -81.7723 -1141.41 -77.8607 -1139.03 -76.2108Z" fill="url(#paint5_linear_0_550)" fill-opacity="0.2"/>
<path d="M-1165.6 -50.7759C-1024.25 34.7204 -863.838 82.8885 -700.545 103.395C-614.079 114.26 -527.143 116.886 -440.093 115.197C-346.736 113.38 -252.253 109.74 -160.572 130.86C9.60586 170.061 150.746 277.892 309.327 345.267C469.557 413.346 643.427 437.526 815.619 452.347C906.139 460.139 996.99 467.828 1087.78 471.407C1183.01 475.156 1279.46 472.528 1372.75 451.285C1396.42 445.899 1419.76 439.26 1442.75 431.451C1445.48 430.516 1444.36 426.136 1441.6 427.078C1259.25 489.003 1062.86 467.166 874.706 452.622C701.774 439.257 526.877 421.017 362.806 361.455C201.216 302.8 61.7977 195.889 -102.059 142.486C-187.157 114.748 -274.765 108.435 -363.78 109.284C-451.859 110.137 -539.527 113.094 -627.473 106.262C-794.282 93.3156 -960.64 53.8903 -1109.4 -24.1949C-1127.68 -33.7915 -1145.66 -43.9838 -1163.32 -54.6768C-1165.82 -56.1864 -1168.1 -52.2709 -1165.6 -50.7759Z" fill="url(#paint6_linear_0_550)" fill-opacity="0.2"/>
<path d="M-1192.19 -25.3229C-1041.67 54.0758 -873.526 92.3948 -704.569 104.326C-615.218 110.633 -525.962 108.802 -436.567 104.472C-341.711 99.8778 -245.903 96.0619 -152.657 117.627C20.085 157.574 164.499 264.997 325.082 334.479C488.622 405.257 665.148 436.888 840.985 458.948C1025.97 482.158 1218 507.712 1402.33 466.704C1426.15 461.404 1449.67 454.905 1472.87 447.335C1475.63 446.44 1474.49 442.063 1471.72 442.962C1287.2 503.246 1091.37 483.737 902.145 461.779C724.812 441.203 546.228 414.91 378.477 351.298C215.74 289.578 73.3306 183.498 -92.7459 129.651C-179.149 101.631 -267.691 94.4267 -358.107 96.7651C-448.896 99.1079 -539.285 106.004 -630.189 103.454C-802.324 98.5885 -975.98 69.5226 -1133.75 -1.71023C-1152.75 -10.2933 -1171.46 -19.4975 -1189.91 -29.2239C-1192.48 -30.5901 -1194.77 -26.6853 -1192.19 -25.3229Z" fill="url(#paint7_linear_0_550)" fill-opacity="0.2"/>
<path d="M-1218.77 0.115795C-1058.91 73.0274 -883.198 100.838 -708.538 104.043C-616.909 105.733 -525.814 99.6332 -434.49 92.9749C-338.153 85.951 -241.015 82.0355 -146.162 103.849C29.6815 144.274 178.015 251.495 340.693 323.917C508.468 398.6 688.516 439.496 869.114 468.89C1055.08 499.165 1247.36 523.064 1433.65 481.839C1457.04 476.665 1480.16 470.412 1503.01 463.2C1505.77 462.335 1504.64 457.958 1501.86 458.828C1314.4 517.994 1115.74 502.082 924.429 473.021C744.693 445.722 564.885 409.78 395.486 342.144C230.927 276.448 84.5904 170.542 -84.7493 116.133C-172.44 87.9528 -262.124 80.0816 -353.849 83.6671C-446.392 87.2804 -538.45 97.6681 -631.113 99.459C-807.563 102.846 -986.946 85.1443 -1153.09 22.6205C-1174.52 14.5519 -1195.65 5.71578 -1216.49 -3.78513C-1219.11 -4.98262 -1221.42 -1.08863 -1218.77 0.115795Z" fill="url(#paint8_linear_0_550)" fill-opacity="0.2"/>
<path d="M-1244.81 25.7857C-1074.71 92.1157 -890.547 108.453 -709.349 102.558C-614.022 99.4605 -519.507 88.7554 -424.596 80.0961C-327.721 71.264 -230.314 68.4931 -134.959 90.9693C43.505 133.013 195.903 239.992 360.48 315.608C530.105 393.545 710.595 445.028 893.437 481.015C1080.39 517.824 1274.71 538.615 1462.85 497.529C1486.53 492.359 1509.97 486.16 1533.14 479.066C1535.91 478.215 1534.78 473.838 1531.99 474.693C1342.56 532.68 1140.74 521.491 948.051 486.748C763.721 453.519 581.103 405.742 408.592 332.006C244.21 261.76 94.8949 157.15 -76.2118 102.597C-165.063 74.2701 -255.941 65.5283 -348.879 70.0709C-444.659 74.7674 -539.777 88.5132 -635.502 94.4883C-817.703 105.881 -1004.19 99.2823 -1179.51 44.0586C-1201.13 37.2531 -1222.48 29.677 -1243.6 21.433C-1246.31 20.3682 -1247.5 24.7315 -1244.81 25.7857Z" fill="url(#paint9_linear_0_550)" fill-opacity="0.2"/>
<path d="M-1271.4 51.2243C-1092.62 109.964 -902.217 114.74 -716.109 100.188C-619.719 92.6519 -524.201 78.4117 -428.153 67.8495C-329.032 56.948 -229.401 53.749 -131.555 76.1011C49.9987 117.568 206.834 223.943 372.409 304.018C545.336 387.647 727.369 452.668 914.831 494.921C1103.3 537.392 1301.28 554.482 1491.59 513.385C1515.73 508.173 1539.61 501.984 1563.27 494.931C1566.06 494.106 1564.92 489.733 1562.13 490.559C1370.45 547.654 1166.36 540.505 971.786 502.33C782.095 465.118 597.038 402.884 421.525 322.162C255.934 246.002 101.824 141.108 -73.3637 87.0338C-163.753 59.1413 -256.195 50.67 -350.442 56.4596C-448.216 62.4586 -545.082 78.9844 -642.496 88.9704C-829.391 108.123 -1021.43 113.014 -1204.81 66.0282C-1226.82 60.386 -1248.6 53.9662 -1270.18 46.8862C-1272.95 45.9609 -1274.16 50.3281 -1271.4 51.2243Z" fill="url(#paint10_linear_0_550)" fill-opacity="0.2"/>
<path d="M-1297.98 76.6773C-1111.5 127.29 -916.185 120.463 -726.064 97.457C-628.127 85.6044 -531.055 67.9651 -433.221 55.4851C-331.303 42.4786 -228.7 38.6711 -127.793 61.1702C57.8429 102.578 221.038 209.201 388.214 294.963C563.598 384.926 745.951 464.524 938.043 511.123C1128.02 557.203 1328.84 570.447 1520.95 529.157C1545.32 523.917 1569.45 517.754 1593.38 510.804C1596.17 509.993 1595.03 505.621 1592.23 506.432C1398.54 562.718 1192.4 559.704 995.908 519.446C801.017 479.517 615.514 403.41 437.971 315.073C351.852 272.225 267.941 225.324 182.755 180.69C102.011 138.379 19.2367 98.6574 -68.2371 72.1966C-159.94 44.462 -253.759 35.7911 -349.213 42.4428C-448.336 49.3566 -546.231 68.2556 -644.498 82.1734C-837.248 109.468 -1035.76 126.793 -1228.34 88.4521C-1251.33 83.8777 -1274.14 78.4604 -1296.76 72.3208C-1299.58 71.5497 -1300.79 75.9023 -1297.98 76.6773Z" fill="url(#paint11_linear_0_550)" fill-opacity="0.2"/>
</g>
<defs>
<linearGradient id="paint0_linear_0_550" x1="-152.575" y1="-324.608" x2="232.157" y2="666.165" gradientUnits="userSpaceOnUse">
<stop stop-color="#74F0C3" stop-opacity="0"/>
<stop offset="0.387057" stop-color="#74F0C3" stop-opacity="0.29"/>
<stop offset="0.727083" stop-color="#74F0C3" stop-opacity="0.49"/>
<stop offset="0.984375" stop-color="#74F0C3" stop-opacity="0"/>
</linearGradient>
<linearGradient id="paint1_linear_0_550" x1="-156.155" y1="-305.324" x2="224.974" y2="685.601" gradientUnits="userSpaceOnUse">
<stop stop-color="#74F0C3" stop-opacity="0"/>
<stop offset="0.387057" stop-color="#74F0C3" stop-opacity="0.29"/>
<stop offset="0.727083" stop-color="#74F0C3" stop-opacity="0.49"/>
<stop offset="0.984375" stop-color="#74F0C3" stop-opacity="0"/>
</linearGradient>
<linearGradient id="paint2_linear_0_550" x1="-159.65" y1="-285.69" x2="219.588" y2="708.325" gradientUnits="userSpaceOnUse">
<stop stop-color="#74F0C3" stop-opacity="0"/>
<stop offset="0.387057" stop-color="#74F0C3" stop-opacity="0.29"/>
<stop offset="0.727083" stop-color="#74F0C3" stop-opacity="0.49"/>
<stop offset="0.984375" stop-color="#74F0C3" stop-opacity="0"/>
</linearGradient>
<linearGradient id="paint3_linear_0_550" x1="-163.137" y1="-265.921" x2="214.905" y2="732.254" gradientUnits="userSpaceOnUse">
<stop stop-color="#74F0C3" stop-opacity="0"/>
<stop offset="0.387057" stop-color="#74F0C3" stop-opacity="0.29"/>
<stop offset="0.727083" stop-color="#74F0C3" stop-opacity="0.49"/>
<stop offset="0.984375" stop-color="#74F0C3" stop-opacity="0"/>
</linearGradient>
<linearGradient id="paint4_linear_0_550" x1="-166.591" y1="-246.099" x2="210.598" y2="756.667" gradientUnits="userSpaceOnUse">
<stop stop-color="#74F0C3" stop-opacity="0"/>
<stop offset="0.387057" stop-color="#74F0C3" stop-opacity="0.29"/>
<stop offset="0.727083" stop-color="#74F0C3" stop-opacity="0.49"/>
<stop offset="0.984375" stop-color="#74F0C3" stop-opacity="0"/>
</linearGradient>
<linearGradient id="paint5_linear_0_550" x1="-169.944" y1="-226.569" x2="206.773" y2="781.306" gradientUnits="userSpaceOnUse">
<stop stop-color="#74F0C3" stop-opacity="0"/>
<stop offset="0.387057" stop-color="#74F0C3" stop-opacity="0.29"/>
<stop offset="0.727083" stop-color="#74F0C3" stop-opacity="0.49"/>
<stop offset="0.984375" stop-color="#74F0C3" stop-opacity="0"/>
</linearGradient>
<linearGradient id="paint6_linear_0_550" x1="-173.379" y1="-206.711" x2="202.873" y2="806.117" gradientUnits="userSpaceOnUse">
<stop stop-color="#74F0C3" stop-opacity="0"/>
<stop offset="0.387057" stop-color="#74F0C3" stop-opacity="0.29"/>
<stop offset="0.727083" stop-color="#74F0C3" stop-opacity="0.49"/>
<stop offset="0.984375" stop-color="#74F0C3" stop-opacity="0"/>
</linearGradient>
<linearGradient id="paint7_linear_0_550" x1="-176.819" y1="-186.825" x2="199.109" y2="831.051" gradientUnits="userSpaceOnUse">
<stop stop-color="#74F0C3" stop-opacity="0"/>
<stop offset="0.387057" stop-color="#74F0C3" stop-opacity="0.29"/>
<stop offset="0.727083" stop-color="#74F0C3" stop-opacity="0.49"/>
<stop offset="0.984375" stop-color="#74F0C3" stop-opacity="0"/>
</linearGradient>
<linearGradient id="paint8_linear_0_550" x1="-180.249" y1="-166.933" x2="195.46" y2="856.032" gradientUnits="userSpaceOnUse">
<stop stop-color="#74F0C3" stop-opacity="0"/>
<stop offset="0.387057" stop-color="#74F0C3" stop-opacity="0.29"/>
<stop offset="0.727083" stop-color="#74F0C3" stop-opacity="0.49"/>
<stop offset="0.984375" stop-color="#74F0C3" stop-opacity="0"/>
</linearGradient>
<linearGradient id="paint9_linear_0_550" x1="-183.572" y1="-147.346" x2="192.14" y2="880.981" gradientUnits="userSpaceOnUse">
<stop stop-color="#74F0C3" stop-opacity="0"/>
<stop offset="0.387057" stop-color="#74F0C3" stop-opacity="0.29"/>
<stop offset="0.727083" stop-color="#74F0C3" stop-opacity="0.49"/>
<stop offset="0.984375" stop-color="#74F0C3" stop-opacity="0"/>
</linearGradient>
<linearGradient id="paint10_linear_0_550" x1="-187.003" y1="-127.451" x2="188.66" y2="906.01" gradientUnits="userSpaceOnUse">
<stop stop-color="#74F0C3" stop-opacity="0"/>
<stop offset="0.387057" stop-color="#74F0C3" stop-opacity="0.29"/>
<stop offset="0.727083" stop-color="#74F0C3" stop-opacity="0.49"/>
<stop offset="0.984375" stop-color="#74F0C3" stop-opacity="0"/>
</linearGradient>
<linearGradient id="paint11_linear_0_550" x1="-190.442" y1="-107.562" x2="185.249" y2="931.043" gradientUnits="userSpaceOnUse">
<stop stop-color="#74F0C3" stop-opacity="0"/>
<stop offset="0.387057" stop-color="#74F0C3" stop-opacity="0.29"/>
<stop offset="0.727083" stop-color="#74F0C3" stop-opacity="0.49"/>
<stop offset="0.984375" stop-color="#74F0C3" stop-opacity="0"/>
</linearGradient>
<clipPath id="clip0_0_550">
<rect width="534" height="442" fill="white"/>
</clipPath>
</defs>
</svg>
