<svg width="165" height="44" viewBox="0 0 165 44" fill="none" xmlns="http://www.w3.org/2000/svg">
<path d="M52.9838 11.2542H44.1968V13.4168H50.6477C50.9545 13.4165 51.2584 13.4758 51.542 13.5913C51.8256 13.7067 52.0832 13.8761 52.3002 14.0897C52.5172 14.3034 52.6893 14.557 52.8066 14.8362C52.9239 15.1153 52.9841 15.4145 52.9838 15.7166V17.6053C52.9853 17.9077 52.9259 18.2074 52.809 18.4871C52.6921 18.7668 52.5201 19.0209 52.3029 19.2347C52.0856 19.4485 51.8275 19.6178 51.5434 19.7328C51.2593 19.8478 50.9548 19.9062 50.6477 19.9047H42V17.7421H50.787V15.5794H44.3361C44.0293 15.5798 43.7253 15.5205 43.4418 15.405C43.1582 15.2895 42.9005 15.1202 42.6836 14.9065C42.4666 14.6929 42.2945 14.4393 42.1772 14.1601C42.0599 13.8809 41.9997 13.5817 42 13.2796V11.3914C41.9985 11.089 42.0579 10.7893 42.1748 10.5096C42.2916 10.23 42.4637 9.97586 42.6809 9.76205C42.8981 9.54823 43.1563 9.37893 43.4404 9.26393C43.7245 9.14894 44.0289 9.09053 44.3361 9.09209H52.9838V11.2547V11.2542ZM63.6353 9.09162C64.9348 9.09162 65.9872 10.1121 65.9872 11.3914V17.6049C65.9872 18.8842 64.9348 19.9047 63.6353 19.9047H56.8752C56.568 19.9062 56.2635 19.8478 55.9793 19.7328C55.6952 19.6177 55.437 19.4484 55.2198 19.2345C55.0025 19.0207 54.8305 18.7665 54.7137 18.4868C54.5968 18.2071 54.5375 17.9073 54.5391 17.6049V11.3914C54.5375 11.089 54.5968 10.7892 54.7137 10.5095C54.8305 10.2298 55.0025 9.97561 55.2198 9.76174C55.437 9.54787 55.6952 9.37853 55.9793 9.26351C56.2635 9.14848 56.568 9.09006 56.8752 9.09162H63.6353ZM63.7747 11.2542H56.7358V17.7421H63.7747V11.2542ZM69.8986 17.6659H78.4689V19.9963H69.0477C68.6458 19.9957 68.2605 19.8382 67.9763 19.5584C67.6921 19.2786 67.5322 18.8993 67.5315 18.5036V9H69.8986V17.6655V17.6659ZM89.5553 9.09162C90.6071 9.09162 91.458 9.91381 91.458 10.9498V19.9047H89.2455V16.3561H82.2067V19.9047H80.01V10.9498C80.0084 10.7053 80.0561 10.463 80.1504 10.2368C80.2447 10.0107 80.3837 9.80524 80.5593 9.63238C80.7349 9.45952 80.9436 9.32271 81.1733 9.22988C81.403 9.13705 81.6491 9.09006 81.8975 9.09162H89.5553ZM89.2455 11.2542H82.2067V14.1935H89.2455V11.2542ZM102.238 9.09162H104.45V18.5036C104.45 19.2803 103.8 19.9047 103.012 19.9047H101.31C100.769 19.9197 100.289 19.6303 100.041 19.1586L95.7718 11.2542H95.1991V19.9047H93.0024V10.5081C93.0024 9.71601 93.6366 9.09162 94.426 9.09162H96.2204C96.7464 9.09162 97.2413 9.36599 97.4889 9.8377L101.758 17.7421H102.238V9.09162ZM115.54 9.09162C116.592 9.09162 117.442 9.91381 117.442 10.9498V19.9047H115.23V16.3561H108.192V19.9047H105.995V10.9498C105.993 10.7053 106.041 10.463 106.135 10.2368C106.23 10.0107 106.369 9.80524 106.544 9.63238C106.72 9.45952 106.928 9.32271 107.158 9.22988C107.388 9.13705 107.634 9.09006 107.882 9.09162H115.54ZM115.23 11.2542H108.192V14.1935H115.23V11.2542ZM52.7671 25.349H44.1968V27.5116H52.7671V29.6742H44.1968V33.9994H42V23.1864H52.7671V25.349ZM63.4091 23.1864C64.7082 23.1864 65.7605 24.2069 65.7605 25.4862V31.6996C65.7605 32.979 64.7082 33.9994 63.4091 33.9994H56.6485C56.3413 34.001 56.0368 33.9426 55.7526 33.8275C55.4685 33.7125 55.2103 33.5432 54.9931 33.3293C54.7759 33.1154 54.6038 32.8613 54.487 32.5816C54.3702 32.3018 54.3108 32.0021 54.3124 31.6996V25.4862C54.3108 25.1837 54.3702 24.884 54.487 24.6043C54.6038 24.3245 54.7759 24.0704 54.9931 23.8565C55.2103 23.6427 55.4685 23.4733 55.7526 23.3583C56.0368 23.2433 56.3413 23.1848 56.6485 23.1864H63.4091ZM63.548 25.349H56.5091V31.8368H63.548V25.349ZM76.5404 23.1864H78.7524V30.3747C78.7372 32.3851 77.0974 33.9994 75.0552 33.9994H70.9867C70.5028 34.0009 70.0234 33.9081 69.576 33.7264C69.1287 33.5448 68.7222 33.2778 68.38 32.941C68.0378 32.6041 67.7667 32.2039 67.5821 31.7635C67.3976 31.3231 67.3034 30.8511 67.3048 30.3747V23.1864H69.5016V29.9331C69.5017 30.438 69.7055 30.9221 70.0681 31.2791C70.4307 31.6361 70.9225 31.8367 71.4354 31.8368H74.6066C75.1195 31.8367 75.6113 31.6361 75.9739 31.2791C76.3365 30.9221 76.5403 30.438 76.5404 29.9331V23.1864ZM89.5328 23.1864H91.7449V32.5984C91.7449 33.375 91.0953 33.9994 90.3065 33.9994H88.6046C88.0629 34.0145 87.5838 33.7251 87.3361 33.2534L83.0662 25.349H82.494V33.9994H80.2973V24.6029C80.2973 23.8108 80.9315 23.1864 81.7204 23.1864H83.5148C84.0407 23.1864 84.5361 23.4608 84.7833 23.9329L89.0532 31.8368H89.5328V23.1864ZM101.04 23.1864C103.082 23.1864 104.722 24.8162 104.737 26.8111V30.3747C104.722 32.3851 103.082 33.9994 101.04 33.9994H93.2897V23.1864H101.04ZM102.525 27.2678C102.525 26.2017 101.659 25.349 100.591 25.349H95.4864V31.8368H100.591C101.104 31.8366 101.596 31.6359 101.959 31.279C102.321 30.922 102.525 30.4379 102.525 29.9331V27.2678ZM115.827 23.1864C116.879 23.1864 117.73 24.0086 117.73 25.0446V33.9994H115.518V30.4508H108.479V33.9994H106.282V25.0446C106.28 24.8001 106.328 24.5578 106.422 24.3317C106.517 24.1055 106.656 23.9001 106.831 23.7272C107.007 23.5543 107.215 23.4175 107.445 23.3247C107.675 23.2318 107.921 23.1848 108.169 23.1864H115.827ZM115.518 25.349H108.479V28.2882H115.518V25.349ZM119.274 23.1864H130.258V25.349H125.864V33.9994H123.668V25.349H119.274V23.1864ZM134.01 33.9994H131.814V23.1864H134.01V33.9994ZM144.656 23.1864C145.956 23.1864 147.008 24.2069 147.008 25.4862V31.6996C147.008 32.979 145.956 33.9994 144.656 33.9994H137.896C137.589 34.001 137.284 33.9426 137 33.8275C136.716 33.7125 136.458 33.5432 136.241 33.3293C136.023 33.1154 135.851 32.8613 135.735 32.5816C135.618 32.3018 135.558 32.0021 135.56 31.6996V25.4862C135.558 25.1837 135.618 24.884 135.735 24.6043C135.851 24.3245 136.023 24.0704 136.241 23.8565C136.458 23.6427 136.716 23.4733 137 23.3583C137.284 23.2433 137.589 23.1848 137.896 23.1864H144.656ZM144.796 25.349H137.757V31.8368H144.796V25.349ZM157.788 23.1864H160V32.5984C160 33.375 159.35 33.9994 158.562 33.9994H156.86C156.318 34.0145 155.839 33.7251 155.591 33.2534L151.321 25.349H150.749V33.9994H148.552V24.6029C148.552 23.8108 149.187 23.1864 149.976 23.1864H151.77C152.296 23.1864 152.791 23.4608 153.038 23.9329L157.308 31.8368H157.788V23.1864Z" fill="white"/>
<mask id="mask0_0_63" style="mask-type:luminance" maskUnits="userSpaceOnUse" x="2" y="9" width="29" height="26">
<path d="M2 9.29382H30.4088V34.7467H2V9.29382Z" fill="white"/>
</mask>
<g mask="url(#mask0_0_63)">
<path d="M30.2618 29.3617L25.5728 34.4001C25.4709 34.5097 25.3475 34.597 25.2103 34.6567C25.0731 34.7164 24.9251 34.7472 24.7755 34.7472H2.54474C2.46525 34.7473 2.38669 34.73 2.31459 34.6966C2.24249 34.6631 2.17861 34.6142 2.12744 34.5534C2.07626 34.4925 2.03905 34.4212 2.01841 34.3445C1.99776 34.2677 1.9942 34.1873 2.00796 34.1091C2.02612 34.0039 2.0744 33.9073 2.14657 33.8294L6.83994 28.791C6.94156 28.6819 7.06451 28.5948 7.20117 28.5352C7.33782 28.4756 7.48527 28.4447 7.63436 28.4444H29.8646C29.9707 28.4444 30.0745 28.4754 30.1632 28.5337C30.2519 28.592 30.3216 28.6749 30.3637 28.7723C30.4058 28.8698 30.4187 28.9774 30.4007 29.0821C30.3827 29.1867 30.3341 29.2839 30.2618 29.3617ZM25.5728 19.2159C25.4709 19.1064 25.3475 19.019 25.2103 18.9593C25.0731 18.8996 24.9251 18.8688 24.7755 18.8689H2.54474C2.46521 18.8687 2.38659 18.8859 2.31444 18.9193C2.24228 18.9528 2.17834 19.0016 2.12711 19.0625C2.07589 19.1233 2.03863 19.1947 2.01796 19.2715C1.99729 19.3483 1.99371 19.4287 2.00748 19.507C2.02564 19.6117 2.07392 19.7087 2.1461 19.7866L6.83946 24.8246C6.94104 24.9338 7.06397 25.0209 7.20063 25.0806C7.33729 25.1403 7.48475 25.1713 7.63388 25.1716H29.8642C29.9435 25.1716 30.022 25.1542 30.0939 25.1207C30.1659 25.0872 30.2296 25.0384 30.2807 24.9776C30.3318 24.9169 30.369 24.8457 30.3897 24.7691C30.4104 24.6924 30.4141 24.6122 30.4005 24.534C30.3825 24.4293 30.3343 24.3321 30.2618 24.2544L25.5728 19.2159ZM2.54378 15.5961H24.775C24.9246 15.5962 25.0725 15.5654 25.2096 15.5057C25.3467 15.446 25.47 15.3586 25.5718 15.2491L30.2614 10.2111C30.3337 10.1334 30.3818 10.0362 30.3998 9.93158C30.4177 9.82695 30.4048 9.71934 30.3625 9.62194C30.3203 9.52454 30.2505 9.44158 30.1618 9.38321C30.0732 9.32485 29.9694 9.29361 29.8632 9.29333H7.63436C7.48526 9.29355 7.3378 9.32442 7.20113 9.38404C7.06447 9.44365 6.94153 9.53074 6.83994 9.63988L2.14753 14.6788C2.07528 14.7565 2.02721 14.8535 2.00919 14.958C1.99117 15.0625 2.00399 15.17 2.04607 15.2673C2.08815 15.3647 2.15767 15.4476 2.24615 15.5061C2.33462 15.5646 2.43821 15.596 2.54426 15.5966L2.54378 15.5961Z" fill="url(#paint0_linear_0_63)"/>
</g>
<defs>
<linearGradient id="paint0_linear_0_63" x1="4.3979" y1="35.3537" x2="27.7581" y2="9.06725" gradientUnits="userSpaceOnUse">
<stop offset="0.08" stop-color="#9945FF"/>
<stop offset="0.3" stop-color="#8752F3"/>
<stop offset="0.5" stop-color="#5497D5"/>
<stop offset="0.6" stop-color="#43B4CA"/>
<stop offset="0.72" stop-color="#28E0B9"/>
<stop offset="0.97" stop-color="#19FB9B"/>
</linearGradient>
</defs>
</svg>
