<svg width="149" height="23" viewBox="0 0 149 23" fill="none" xmlns="http://www.w3.org/2000/svg">
<g clip-path="url(#clip0_0_7)">
<mask id="mask0_0_7" style="mask-type:luminance" maskUnits="userSpaceOnUse" x="0" y="0" width="149" height="23">
<path d="M0.00812531 0H148.992V22.14H0.00812531V0Z" fill="white"/>
</mask>
<g mask="url(#mask0_0_7)">
<path d="M25.0379 17.456L20.9512 21.8379C20.8628 21.9331 20.7558 22.009 20.6367 22.061C20.5177 22.113 20.3892 22.1399 20.2593 22.14H0.886808C0.794411 22.1399 0.704034 22.1129 0.626744 22.0623C0.549454 22.0117 0.488604 21.9396 0.451647 21.8549C0.41469 21.7702 0.403228 21.6766 0.418666 21.5855C0.434103 21.4944 0.47577 21.4098 0.538564 21.342L4.62063 16.9601C4.70902 16.865 4.81607 16.789 4.9351 16.737C5.05414 16.6851 5.18261 16.6582 5.3125 16.658H24.685C24.7782 16.6561 24.87 16.6818 24.9487 16.7319C25.0273 16.782 25.0894 16.8542 25.1272 16.9395C25.1649 17.0248 25.1765 17.1194 25.1606 17.2113C25.1447 17.3032 25.102 17.3883 25.0379 17.456ZM20.9512 8.62997C20.8625 8.53522 20.7553 8.45956 20.6364 8.40762C20.5174 8.35567 20.3891 8.32853 20.2593 8.32785H0.886808C0.794411 8.3279 0.704034 8.35489 0.626744 8.40552C0.549454 8.45615 0.488604 8.52822 0.451647 8.61291C0.41469 8.69759 0.403228 8.79121 0.418666 8.88231C0.434103 8.97341 0.47577 9.05803 0.538564 9.12581L4.62063 13.51C4.70936 13.6047 4.81648 13.6804 4.93543 13.7323C5.05439 13.7843 5.1827 13.8114 5.3125 13.8121H24.685C24.7772 13.8116 24.8673 13.7843 24.9442 13.7335C25.0212 13.6827 25.0816 13.6106 25.1183 13.526C25.155 13.4414 25.1663 13.348 25.1507 13.2571C25.1352 13.1662 25.0936 13.0818 25.0309 13.0141L20.9512 8.62997ZM0.886808 5.48194H20.2593C20.3892 5.48183 20.5177 5.45494 20.6367 5.40296C20.7558 5.35098 20.8628 5.27502 20.9512 5.17982L25.0379 0.797942C25.0858 0.747299 25.1219 0.686699 25.1437 0.620473C25.1654 0.554247 25.1723 0.484031 25.1637 0.414845C25.1552 0.345659 25.1315 0.27921 25.0943 0.22025C25.0571 0.16129 25.0074 0.111275 24.9486 0.0737795C24.8699 0.0237234 24.7782 -0.00195308 24.685 -2.04708e-05H5.3125C5.18261 0.000116253 5.05414 0.027013 4.9351 0.0789925C4.81607 0.130972 4.70902 0.206919 4.62063 0.302098L0.538564 4.68397C0.47577 4.75175 0.434103 4.83637 0.418666 4.92747C0.403228 5.01857 0.41469 5.11219 0.451647 5.19688C0.488604 5.28156 0.549454 5.35363 0.626744 5.40426C0.704034 5.45489 0.794411 5.48188 0.886808 5.48194Z" fill="url(#paint0_linear_0_7)"/>
<path d="M48.6562 9.36332H38.2919V5.95007H51.3499V2.53683H38.2573C37.8099 2.53433 37.3665 2.62 36.9523 2.78892C36.538 2.95784 36.1611 3.20671 35.8431 3.52132C35.5251 3.83593 35.2721 4.21011 35.0987 4.62248C34.9253 5.03486 34.8349 5.47736 34.8325 5.92471V9.38408C34.8343 9.83182 34.9243 10.2748 35.0974 10.6877C35.2705 11.1006 35.5234 11.4754 35.8415 11.7905C36.1596 12.1055 36.5367 12.3548 36.9512 12.524C37.3657 12.6932 37.8096 12.7791 38.2573 12.7766H48.6354V16.1898H35.0793V19.6031H48.6562C49.3299 19.6068 49.9896 19.4107 50.5518 19.0394C51.1141 18.6681 51.5535 18.1384 51.8146 17.5173C51.9881 17.105 52.0786 16.6625 52.0809 16.2152V12.7558C52.0792 12.3081 51.9891 11.8651 51.816 11.4522C51.6429 11.0393 51.39 10.6646 51.0719 10.3495C50.7538 10.0344 50.3767 9.78514 49.9622 9.61592C49.5477 9.4467 49.1039 9.36087 48.6562 9.36332ZM68.7344 2.53683H58.3309C57.656 2.53145 56.9948 2.72662 56.431 3.09759C55.8672 3.46856 55.4263 3.99861 55.1642 4.62052C54.9901 5.03341 54.8992 5.47662 54.8969 5.92471V16.2152C54.8992 16.6633 54.9901 17.1066 55.1642 17.5196C55.4262 18.1415 55.8672 18.6716 56.431 19.0425C56.9947 19.4135 57.656 19.6086 58.3309 19.6031H68.7344C69.1817 19.6056 69.6252 19.5199 70.0394 19.351C70.4536 19.1821 70.8305 18.9332 71.1486 18.6186C71.4666 18.304 71.7195 17.9298 71.8929 17.5174C72.0663 17.105 72.1568 16.6625 72.1592 16.2152V5.92471C72.1568 5.47738 72.0664 5.03489 71.8929 4.62255C71.7195 4.2102 71.4665 3.83609 71.1483 3.52159C70.8304 3.20688 70.4536 2.95792 70.0394 2.78895C69.6252 2.61998 69.1817 2.5343 68.7344 2.53683ZM68.709 16.1898H58.3563V5.95007H68.7044L68.709 16.1898ZM105.173 2.53683H95.0256C94.5783 2.53433 94.1348 2.62 93.7206 2.78892C93.3064 2.95784 92.9295 3.20671 92.6114 3.52132C92.2934 3.83593 92.0405 4.21011 91.8671 4.62248C91.6937 5.03486 91.6032 5.47736 91.6008 5.92471V19.6031H95.0602V13.9966H105.162V19.6031H108.621V5.92471C108.619 5.47539 108.528 5.03096 108.353 4.61703C108.178 4.20311 107.923 3.82787 107.602 3.51295C107.282 3.19803 106.902 2.94965 106.485 2.78212C106.068 2.61459 105.622 2.53122 105.173 2.53683ZM105.148 10.5833H95.0464V5.95007H105.148V10.5833ZM145.567 2.53683H135.42C134.972 2.53433 134.529 2.62 134.115 2.78892C133.7 2.95784 133.323 3.20671 133.005 3.52132C132.687 3.83593 132.434 4.21011 132.261 4.62248C132.088 5.03486 131.997 5.47736 131.995 5.92471V19.6031H135.454V13.9966H145.533V19.6031H148.992V5.92471C148.99 5.47738 148.899 5.03489 148.726 4.62255C148.552 4.2102 148.299 3.83609 147.981 3.52159C147.339 2.88624 146.471 2.53201 145.567 2.53683ZM145.533 10.5833H135.431V5.95007H145.533V10.5833ZM125.468 16.1898H124.084L119.137 3.9667C118.968 3.54495 118.676 3.18349 118.3 2.92871C117.923 2.67393 117.479 2.53746 117.025 2.53683H113.955C113.506 2.5344 113.066 2.66536 112.691 2.91313C112.316 3.16089 112.023 3.51431 111.849 3.92865C111.734 4.20365 111.674 4.49869 111.672 4.79695V19.6031H115.132V5.95007H116.515L121.46 18.1732C121.632 18.5942 121.926 18.9542 122.304 19.2073C122.682 19.4603 123.127 19.5949 123.582 19.5939H126.651C126.95 19.5955 127.245 19.5382 127.522 19.4254C127.798 19.3127 128.049 19.1465 128.261 18.9366C128.689 18.5127 128.931 17.9362 128.934 17.3337V2.53683H125.468V16.1898ZM78.6743 2.53683H75.2149V16.2152C75.2173 16.6635 75.3081 17.1069 75.4823 17.52C75.6564 17.9331 75.9104 18.3078 76.2297 18.6225C76.549 18.9372 76.9272 19.1858 77.3428 19.3541C77.7583 19.5223 78.203 19.607 78.6513 19.6031H89.0294V16.1898H78.6743V2.53683Z" fill="white"/>
</g>
</g>
<defs>
<linearGradient id="paint0_linear_0_7" x1="2.50118" y1="22.6681" x2="22.8146" y2="-0.232952" gradientUnits="userSpaceOnUse">
<stop offset="0.08" stop-color="#9945FF"/>
<stop offset="0.3" stop-color="#8752F3"/>
<stop offset="0.5" stop-color="#5497D5"/>
<stop offset="0.6" stop-color="#43B4CA"/>
<stop offset="0.72" stop-color="#28E0B9"/>
<stop offset="0.97" stop-color="#19FB9B"/>
</linearGradient>
<clipPath id="clip0_0_7">
<rect width="148.984" height="22.14" fill="white" transform="translate(0.00812531)"/>
</clipPath>
</defs>
</svg>
