<svg width="60" height="60" viewBox="0 0 60 60" fill="none" xmlns="http://www.w3.org/2000/svg">
<path fill-rule="evenodd" clip-rule="evenodd" d="M15.2143 0H0.214287V15C0.214287 22.6386 5.92398 28.9436 13.3083 29.8801C5.82045 30.7206 1.26608e-06 37.0734 6.55671e-07 44.7858L0 59.7858H15C22.6386 59.7858 28.9436 54.0759 29.8801 46.6917C30.7206 54.1797 37.0734 60 44.7858 60H59.7858V45C59.7858 37.3614 54.0759 31.0563 46.6917 30.12C54.1797 29.2795 60 22.9266 60 15.2143V0.214286L45 0.214285C37.3614 0.214285 31.0563 5.92398 30.12 13.3083C29.2795 5.82045 22.9266 0 15.2143 0Z" fill="#E1D6F5"/>
</svg>
