<svg width="111" height="108" viewBox="0 0 111 108" fill="none" xmlns="http://www.w3.org/2000/svg">
<g filter="url(#filter0_d_1_247)">
<path d="M26.0942 26.3449C26.2253 26.2648 28.5333 24.8285 29.9157 22.2902C30.4685 23.3049 31.2746 24.3876 32.4347 25.2245C31.7255 26.0062 30.7838 27.2106 30.045 28.7486C29.9548 28.5751 29.8576 28.3991 29.7526 28.2213C29.4564 27.7194 28.8059 27.5499 28.2993 27.8435C27.7928 28.1367 27.622 28.781 27.9179 29.2828C28.8009 30.7794 29.0314 32.1444 29.0331 32.1546C29.1126 32.6625 29.551 33.0388 30.0697 33.0453C30.0741 33.0453 30.0787 33.0453 30.0831 33.0453C30.596 33.0453 31.0369 32.6816 31.1285 32.1805C31.8183 28.4016 34.8104 25.8358 34.8389 25.8117C35.1162 25.5793 35.2545 25.2227 35.2053 24.8662C35.1562 24.5097 34.9263 24.2029 34.5962 24.0526C31.5994 22.6893 30.8984 18.9112 30.8921 18.8758C30.8029 18.3563 30.3418 17.9849 29.8067 18.0005C29.2745 18.0193 28.8387 18.4255 28.7872 18.9503C28.4523 22.3711 25.0112 24.5342 24.9765 24.5556C24.4789 24.8614 24.3248 25.5084 24.6325 26.0021C24.94 26.4965 25.5946 26.6499 26.0942 26.3449Z" fill="#7EF572"/>
<path d="M55.2916 46.0439C54.7049 46.0439 54.2292 46.5151 54.2292 47.096V50.9451C54.2292 51.5259 54.7049 51.997 55.2916 51.997C55.8784 51.997 56.3539 51.5259 56.3539 50.9451V47.096C56.3541 46.5151 55.8786 46.0439 55.2916 46.0439Z" fill="#7EF572"/>
<path d="M89.2567 47.1983L78.3133 41.6134C78.2838 41.5938 78.2545 41.5742 78.2228 41.5574L69.0253 36.7044C68.5074 36.4314 67.8641 36.6256 67.5882 37.1384C67.3122 37.6512 67.5084 38.2881 68.0261 38.5614L75.5145 42.5124L55.3424 53.9178L35.1993 42.518L42.6982 38.5613C43.2159 38.2879 43.4122 37.651 43.1362 37.1382C42.8605 36.6254 42.2168 36.4313 41.6991 36.7043L32.6555 41.4761C32.3992 41.5495 32.1699 41.7166 32.0272 41.964C31.7363 42.4686 31.9135 43.1113 32.4231 43.3992L53.2064 55.1505L44.3405 59.8444L24.0941 48.1887L29.0792 45.6445C29.6008 45.3783 29.8056 44.7439 29.5369 44.2273C29.2681 43.7109 28.6279 43.509 28.1057 43.7741L21.397 47.198C21.0522 47.3741 20.8317 47.7222 20.8216 48.1066C20.8119 48.4909 21.0144 48.8498 21.3498 49.043L43.7849 61.9586C43.9497 62.0533 44.1341 62.101 44.3187 62.101C44.4907 62.101 44.6629 62.0594 44.8194 61.9768L54.2292 56.995V80.6157L34.0633 69.2027V60.2704C34.0633 59.6896 33.5876 59.2184 33.001 59.2184C32.4143 59.2184 31.9386 59.6896 31.9386 60.2704V69.8132C31.9386 70.1909 32.1428 70.5396 32.4739 70.7269L54.4748 83.1781C54.5537 83.2723 54.6481 83.355 54.7585 83.4183C54.9233 83.5132 55.1076 83.5604 55.2917 83.5604C55.3153 83.5604 55.3388 83.5575 55.3621 83.5561C55.3857 83.5576 55.4092 83.5604 55.4326 83.5604C55.617 83.5604 55.8011 83.5132 55.9658 83.4183C56.076 83.355 56.1707 83.2725 56.2495 83.1781L78.2504 70.7269C78.5813 70.5396 78.7857 70.1909 78.7857 69.8132V60.4096C78.7857 59.8286 78.31 59.3574 77.7233 59.3574C77.1366 59.3574 76.661 59.8286 76.661 60.4096V69.2025L56.4952 80.6155V55.7117L77.7406 43.6881L86.5596 48.1889L66.3132 59.8446L61.2238 57.1497C60.7061 56.8767 60.063 57.0693 59.786 57.5815C59.5092 58.094 59.7045 58.7312 60.2218 59.0055L65.8338 61.9768C65.9906 62.0594 66.1628 62.101 66.3349 62.101C66.5196 62.101 66.704 62.0533 66.8687 61.9586L89.3039 49.043C89.6394 48.8498 89.8418 48.4909 89.8319 48.1066C89.8222 47.7225 89.6017 47.3743 89.2567 47.1983Z" fill="#7EF572"/>
<path d="M37.5275 27.4361C37.5332 27.4695 37.5421 27.5019 37.5511 27.5349C37.5597 27.5669 37.568 27.5985 37.5796 27.6293C37.5917 27.6613 37.6071 27.6919 37.6223 27.7228C37.6372 27.7529 37.6518 27.7829 37.6695 27.8115C37.6864 27.8388 37.7063 27.8646 37.7261 27.8905C37.7487 27.9205 37.7716 27.9498 37.7973 27.9773C37.8053 27.9859 37.8108 27.9957 37.8191 28.0039L54.538 44.6684L54.5383 44.6687C54.5445 44.6748 54.5518 44.6797 54.5581 44.6856C54.6008 44.726 54.6459 44.7634 54.6944 44.796C54.6977 44.7984 54.7005 44.8012 54.7039 44.8033C54.7557 44.8374 54.8107 44.8652 54.8674 44.8895C54.8744 44.8926 54.8808 44.8965 54.8881 44.8995C54.8898 44.9001 54.8912 44.9013 54.8928 44.902C54.9031 44.9062 54.9142 44.9076 54.9246 44.9113C54.9663 44.9265 55.0085 44.9391 55.0519 44.949C55.0634 44.9517 55.0744 44.9563 55.086 44.9587C55.0941 44.9602 55.1021 44.9607 55.11 44.9619C55.1691 44.9722 55.2288 44.9787 55.2894 44.9788C55.2902 44.9788 55.2908 44.979 55.2914 44.979H55.292C55.2927 44.979 55.2935 44.9788 55.2942 44.9788C55.3546 44.9787 55.4144 44.972 55.4735 44.9618C55.4815 44.9604 55.4895 44.96 55.4975 44.9585C55.5092 44.9562 55.5202 44.9515 55.5318 44.9487C55.5748 44.9388 55.6168 44.9263 55.6582 44.9113C55.6689 44.9074 55.68 44.906 55.6907 44.9017C55.6926 44.901 55.6938 44.8999 55.6956 44.8992C55.7028 44.8962 55.7094 44.8922 55.7166 44.8891C55.7729 44.8647 55.8279 44.837 55.8792 44.8032C55.8806 44.8023 55.882 44.8013 55.8833 44.8002C55.8844 44.7996 55.8852 44.7985 55.8864 44.7979C55.888 44.7968 55.8892 44.7953 55.891 44.7942C55.9385 44.7619 55.9829 44.7252 56.025 44.6855C56.0313 44.6794 56.0388 44.6744 56.045 44.6684L56.0454 44.6681L72.7642 28.0036C72.7725 27.9953 72.778 27.9856 72.786 27.9772C72.812 27.9497 72.8348 27.9202 72.8574 27.8902C72.8771 27.8643 72.8969 27.8385 72.9138 27.8113C72.9315 27.7826 72.9461 27.7524 72.9612 27.7222C72.9766 27.6913 72.9918 27.6608 73.0037 27.629C73.0153 27.5979 73.0236 27.5661 73.0325 27.5339C73.0415 27.5013 73.0503 27.469 73.0559 27.4358C73.0616 27.4029 73.0637 27.3695 73.0661 27.3358C73.0685 27.3014 73.0707 27.2676 73.0697 27.2331C73.0688 27.2014 73.065 27.1699 73.0611 27.1381C73.0565 27.1 73.051 27.0627 73.0421 27.0253C73.039 27.0124 73.0391 26.9995 73.0357 26.9866C73.0311 26.9697 73.0225 26.955 73.017 26.9383C73.0051 26.9014 72.9913 26.8652 72.975 26.8296C72.9615 26.8 72.9466 26.7715 72.9306 26.7436C72.9134 26.7135 72.8947 26.6841 72.874 26.6554C72.8528 26.6259 72.8306 26.5981 72.8066 26.5712C72.7946 26.5575 72.7857 26.5423 72.7728 26.5291L65.7162 19.3257C65.5162 19.1218 65.241 19.0064 64.9537 19.0064H45.6296C45.3421 19.0064 45.0672 19.1218 44.8671 19.3257L37.8105 26.5291C37.7979 26.5418 37.7896 26.5566 37.7778 26.5698C37.7532 26.5974 37.7302 26.626 37.7085 26.6565C37.6886 26.6844 37.6704 26.7128 37.6535 26.742C37.637 26.7708 37.6216 26.8 37.6077 26.8306C37.5918 26.8657 37.5784 26.9009 37.5666 26.9371C37.5611 26.954 37.5523 26.9689 37.5476 26.9863C37.544 26.9994 37.5442 27.0124 37.541 27.0256C37.5324 27.0627 37.5268 27.1 37.5222 27.1376C37.5183 27.1697 37.5145 27.2014 37.5136 27.2333C37.5126 27.2676 37.5148 27.3016 37.5174 27.3359C37.5199 27.3701 37.5221 27.4033 37.5275 27.4361ZM55.2916 41.1246L51.4373 31.7025H59.146L55.2916 41.1246ZM46.0792 21.1112H64.5044L69.9934 26.7144L64.5897 28.1665L61.6637 22.6466C61.3911 22.1321 60.7481 21.9345 60.229 22.2041C59.7095 22.4742 59.5095 23.11 59.7822 23.6246L63.1046 29.8918C63.2917 30.2443 63.658 30.4548 64.0452 30.4548C64.1376 30.4548 64.2312 30.443 64.3236 30.4181L68.4631 29.3058L58.2584 39.4773L61.7077 31.0454C61.8404 30.721 61.8017 30.3526 61.6041 30.0623C61.4065 29.7722 61.0764 29.5983 60.723 29.5983H49.8609C49.5076 29.5983 49.1774 29.7724 48.98 30.0623C48.7824 30.3526 48.7437 30.721 48.8762 31.0454L52.3254 39.4773L42.1208 29.3058L46.2602 30.4181C46.3527 30.443 46.4462 30.4548 46.5385 30.4548C46.9256 30.4548 47.2921 30.2443 47.479 29.8918L50.8017 23.6246C51.0744 23.11 50.8743 22.4741 50.3549 22.2041C49.8356 21.9344 49.1931 22.1319 48.9204 22.6466L45.9942 28.1665L40.5905 26.7144L46.0792 21.1112Z" fill="#7EF572"/>
<path d="M75.9176 33.5645C76.0489 33.4843 78.3567 32.0479 79.739 29.5097C80.2918 30.5245 81.0979 31.6071 82.2581 32.4441C81.5489 33.2259 80.6073 34.43 79.8685 35.9678C79.7782 35.7947 79.681 35.6185 79.5761 35.4406C79.2798 34.9386 78.6293 34.7695 78.1228 35.0627C77.6162 35.3559 77.4454 36.0003 77.7414 36.5019C78.6243 37.9985 78.8547 39.3638 78.8564 39.374C78.9361 39.8819 79.3744 40.2582 79.8928 40.2647C79.8974 40.2647 79.9018 40.2647 79.9063 40.2647C80.4193 40.2647 80.86 39.901 80.9516 39.3999C81.6414 35.621 84.6337 33.0551 84.6619 33.0311C84.9395 32.7987 85.0775 32.4421 85.0284 32.0856C84.9793 31.7291 84.7495 31.4222 84.4193 31.2718C81.4225 29.9087 80.7214 26.1304 80.7152 26.0952C80.6262 25.5752 80.1663 25.2068 79.6298 25.2199C79.0976 25.2387 78.6618 25.6449 78.6103 26.1697C78.2752 29.5903 74.8343 31.7536 74.7995 31.775C74.3019 32.0808 74.1479 32.7278 74.4556 33.2216C74.7636 33.7159 75.4182 33.8693 75.9176 33.5645Z" fill="#7EF572"/>
</g>
<defs>
<filter id="filter0_d_1_247" x="0.117992" y="0.747253" width="110.418" height="106.967" filterUnits="userSpaceOnUse" color-interpolation-filters="sRGB">
<feFlood flood-opacity="0" result="BackgroundImageFix"/>
<feColorMatrix in="SourceAlpha" type="matrix" values="0 0 0 0 0 0 0 0 0 0 0 0 0 0 0 0 0 0 127 0" result="hardAlpha"/>
<feOffset dy="3.45055"/>
<feGaussianBlur stdDeviation="10.3516"/>
<feComposite in2="hardAlpha" operator="out"/>
<feColorMatrix type="matrix" values="0 0 0 0 0.494118 0 0 0 0 0.94902 0 0 0 0 0.45098 0 0 0 1 0"/>
<feBlend mode="normal" in2="BackgroundImageFix" result="effect1_dropShadow_1_247"/>
<feBlend mode="normal" in="SourceGraphic" in2="effect1_dropShadow_1_247" result="shape"/>
</filter>
</defs>
</svg>
