<svg width="222" height="95" viewBox="0 0 222 95" fill="none" xmlns="http://www.w3.org/2000/svg">
<g opacity="0.1">
<mask id="mask0_1_207" style="mask-type:alpha" maskUnits="userSpaceOnUse" x="0" y="0" width="222" height="95">
<rect width="222" height="94.1518" fill="#D9D9D9"/>
</mask>
<g mask="url(#mask0_1_207)">
<path d="M-25.7676 -11.1L80.9818 95.1686" stroke="#82E97E" stroke-width="3"/>
<path d="M-36.6694 -11.0999L70.08 95.1687" stroke="#82E97E" stroke-width="3"/>
<path d="M-47.5713 -11.0999L59.1781 95.1687" stroke="#82E97E" stroke-width="3"/>
<path d="M-58.4729 -11.0999L48.2765 95.1687" stroke="#82E97E" stroke-width="3"/>
<path d="M-69.3748 -11.0999L37.3746 95.1687" stroke="#82E97E" stroke-width="3"/>
<path d="M-80.2766 -11.0999L26.4728 95.1687" stroke="#82E97E" stroke-width="3"/>
<path d="M-91.1782 -11.0999L15.5712 95.1687" stroke="#82E97E" stroke-width="3"/>
<path d="M115.956 -11.1L222.705 95.1686" stroke="#82E97E" stroke-width="3"/>
<path d="M126.857 -11.1L233.607 95.1686" stroke="#82E97E" stroke-width="3"/>
<path d="M137.759 -11.1L244.509 95.1686" stroke="#82E97E" stroke-width="3"/>
<path d="M148.661 -11.1L255.41 95.1686" stroke="#82E97E" stroke-width="3"/>
<path d="M159.563 -11.1L266.312 95.1686" stroke="#82E97E" stroke-width="3"/>
<path d="M170.465 -11.1L277.214 95.1686" stroke="#82E97E" stroke-width="3"/>
<path d="M-14.8657 -11.1L91.8837 95.1686" stroke="#82E97E" stroke-width="3"/>
<path d="M-3.96411 -11.1L102.785 95.1686" stroke="#82E97E" stroke-width="3"/>
<path d="M6.93774 -11.1L113.687 95.1686" stroke="#82E97E" stroke-width="3"/>
<path d="M17.8396 -11.1L124.589 95.1686" stroke="#82E97E" stroke-width="3"/>
<path d="M28.7412 -11.1L135.491 95.1686" stroke="#82E97E" stroke-width="3"/>
<path d="M39.6431 -11.1L146.392 95.1686" stroke="#82E97E" stroke-width="3"/>
<path d="M50.5449 -11.1L157.294 95.1686" stroke="#82E97E" stroke-width="3"/>
<path d="M61.4468 -11.1L168.196 95.1686" stroke="#82E97E" stroke-width="3"/>
<path d="M72.3485 -11.1L179.098 95.1686" stroke="#82E97E" stroke-width="3"/>
<path d="M83.2502 -11.1L190 95.1686" stroke="#82E97E" stroke-width="3"/>
<path d="M94.152 -11.1L200.901 95.1686" stroke="#82E97E" stroke-width="3"/>
<path d="M105.054 -11.1L211.803 95.1686" stroke="#82E97E" stroke-width="3"/>
<path d="M181.366 -11.1L288.116 95.1686" stroke="#82E97E" stroke-width="3"/>
<path d="M192.268 -16.3894L299.017 89.8792" stroke="#82E97E" stroke-width="3"/>
<path d="M203.17 -16.3894L309.919 89.8792" stroke="#82E97E" stroke-width="3"/>
<path d="M214.072 -16.3894L320.821 89.8792" stroke="#82E97E" stroke-width="3"/>
</g>
</g>
</svg>
