<svg width="60" height="60" viewBox="0 0 60 60" fill="none" xmlns="http://www.w3.org/2000/svg">
<path d="M30 6C34.0722 6 37.4998 9.1616 37.5 13.2139C37.5 15.9795 35.8884 18.3463 33.583 19.5537C32.2137 20.2708 31.5 21.1673 31.5 21.9287V27.082C33.1998 27.2695 34.79 27.7853 36.3506 28.6631L54.3584 38.793C56.9168 40.2321 58.5 42.9396 58.5 45.875C58.4999 50.3623 54.8623 53.9999 50.375 54H9.625C5.13775 53.9999 1.50013 50.3623 1.5 45.875C1.5 42.9396 3.08321 40.2321 5.6416 38.793L23.6494 28.6631C25.21 27.7853 26.8002 27.2695 28.5 27.082V21.9287C28.5 19.3767 30.6242 17.7168 32.1904 16.8965C33.5962 16.1603 34.5 14.7667 34.5 13.2139C34.4998 10.9547 32.5549 9 30 9C27.4451 9 25.5002 10.9547 25.5 13.2139C25.5 14.0423 24.8284 14.7139 24 14.7139C23.1716 14.7139 22.5 14.0423 22.5 13.2139C22.5002 9.1616 25.9278 6 30 6ZM30 30C28.2318 30 26.6799 30.4016 25.1211 31.2783L7.1123 41.4082C5.49871 42.316 4.5 44.0235 4.5 45.875C4.50013 48.7054 6.7946 50.9999 9.625 51H50.375C53.2054 50.9999 55.4999 48.7054 55.5 45.875C55.5 44.0235 54.5013 42.316 52.8877 41.4082L34.8789 31.2783C33.3201 30.4016 31.7682 30 30 30Z" fill="url(#paint0_linear_24527_883)"/>
<defs>
<linearGradient id="paint0_linear_24527_883" x1="30" y1="6" x2="30" y2="54" gradientUnits="userSpaceOnUse">
<stop stop-color="#11995A"/>
<stop offset="1" stop-color="#03C068"/>
</linearGradient>
</defs>
</svg>
