<svg width="60" height="60" viewBox="0 0 60 60" fill="none" xmlns="http://www.w3.org/2000/svg">
<path d="M54.62 56.733L55.0011 6.4089L54.9805 6.10785C54.9081 5.57791 54.6472 5.09223 54.2459 4.74064C53.8446 4.38905 53.3302 4.19534 52.7978 4.19531C49.876 4.19531 47.0739 5.36139 45.0079 7.43703C42.9419 9.51267 41.7812 12.3278 41.7812 15.2632V36.6612L41.8018 36.9623C41.8742 37.4922 42.1352 37.9779 42.5365 38.3295C42.9377 38.6811 43.4521 38.8748 43.9846 38.8748H54.5218" stroke="url(#paint0_linear_24527_867)" stroke-width="3" stroke-linecap="round"/>
<path d="M26.999 3.65234C27.8274 3.6524 28.499 4.32395 28.499 5.15234V16.1514C28.4988 22.5464 23.6954 27.819 17.5 28.5605V55.8457L17.4922 55.999C17.4151 56.7551 16.7764 57.3457 16 57.3457C15.2234 57.3457 14.5847 56.7543 14.5078 55.998L14.5 55.8447V28.5605C8.30393 27.8196 3.50024 22.5469 3.5 16.1514V5.15234C3.5 4.32392 4.17157 3.65234 5 3.65234C5.82843 3.65234 6.5 4.32392 6.5 5.15234V16.1514C6.50024 20.8872 9.96636 24.8121 14.5 25.5312V5.15137C14.5003 4.32316 15.1717 3.65234 16 3.65234C16.8284 3.65234 17.5 4.32392 17.5 5.15234V25.5312C22.033 24.8115 25.4988 20.8867 25.499 16.1514V5.15234C25.499 4.32392 26.1706 3.65234 26.999 3.65234Z" fill="url(#paint1_linear_24527_867)"/>
<defs>
<linearGradient id="paint0_linear_24527_867" x1="48.3912" y1="4.19531" x2="48.3912" y2="56.733" gradientUnits="userSpaceOnUse">
<stop stop-color="#11995A"/>
<stop offset="1" stop-color="#03C068"/>
</linearGradient>
<linearGradient id="paint1_linear_24527_867" x1="15.9995" y1="3.65234" x2="15.9995" y2="57.3457" gradientUnits="userSpaceOnUse">
<stop stop-color="#11995A"/>
<stop offset="1" stop-color="#03C068"/>
</linearGradient>
</defs>
</svg>
