<?xml version="1.0" standalone="no"?>
<!DOCTYPE svg PUBLIC "-//W3C//DTD SVG 20010904//EN"
 "http://www.w3.org/TR/2001/REC-SVG-20010904/DTD/svg10.dtd">
<svg version="1.0" xmlns="http://www.w3.org/2000/svg"
 width="520.000000pt" height="520.000000pt" viewBox="0 0 520.000000 520.000000"
 preserveAspectRatio="xMidYMid meet">
<metadata>
Created by potrace 1.14, written by Peter Selinger 2001-2017
</metadata>
<g transform="translate(0.000000,520.000000) scale(0.100000,-0.100000)"
fill="#000000" stroke="none">
<path d="M532 5180 c-255 -67 -438 -250 -511 -511 l-21 -75 0 -1990 c0 -1983
0 -1991 21 -2070 34 -130 90 -226 188 -324 99 -98 169 -140 309 -182 l95 -28
1982 0 c1956 0 1983 0 2061 20 136 35 237 92 335 190 98 98 155 198 189 335
19 78 20 119 20 2061 l0 1982 -26 88 c-71 247 -226 408 -477 497 l-62 22
-2015 2 c-1956 2 -2017 1 -2088 -17z m2273 -2297 c132 -395 264 -806 293 -913
29 -107 68 -242 86 -300 l33 -105 7 60 c20 158 229 845 483 1580 19 55 57 169
85 254 l50 154 237 -7 c130 -4 237 -9 239 -11 4 -4 -146 -433 -283 -810 -64
-176 -134 -369 -155 -430 -37 -107 -180 -506 -299 -830 -32 -88 -71 -197 -86
-243 l-27 -82 -275 2 -275 3 -43 127 c-24 70 -71 199 -104 286 -45 116 -61
173 -63 213 -1 37 -2 43 -5 19 -8 -80 -35 -228 -50 -275 -22 -68 -76 -175
-109 -214 -40 -48 -143 -118 -221 -150 -135 -55 -238 -73 -460 -79 -268 -6
-484 15 -765 75 l-78 16 0 219 c0 120 3 218 8 218 4 0 57 -11 117 -25 327 -73
813 -92 938 -37 56 25 103 80 122 144 20 67 19 191 -1 251 -30 89 -37 92 -487
198 -296 70 -383 97 -463 145 -85 51 -127 96 -169 180 -53 108 -69 206 -62
384 6 165 20 228 78 347 55 115 141 199 264 258 191 92 297 105 815 100 l385
-5 240 -717z"/>
<path d="M1734 3181 c-171 -28 -251 -112 -262 -275 -8 -129 28 -200 121 -234
29 -11 133 -39 232 -62 423 -98 509 -123 620 -177 62 -31 67 -32 49 -11 -23
26 -43 75 -113 278 -102 298 -162 465 -169 472 -11 10 -420 18 -478 9z"/>
<path d="M2550 2365 c19 -19 36 -35 39 -35 3 0 -10 16 -29 35 -19 19 -36 35
-39 35 -3 0 10 -16 29 -35z"/>
</g>
</svg>
