<svg width="180" height="60" viewBox="0 0 180 60" fill="none" xmlns="http://www.w3.org/2000/svg">
<path d="M86.3192 25.5621C83.6241 25.5621 81.4905 27.6923 81.4905 30.6509C81.4905 33.4911 83.6241 35.7396 86.3192 35.7396C89.0142 35.7396 91.1478 33.6095 91.1478 30.6509C91.1478 27.574 89.0142 25.5621 86.3192 25.5621ZM86.3192 33.6095C84.8593 33.6095 83.6241 32.3077 83.6241 30.5325C83.6241 28.7574 84.8593 27.4556 86.3192 27.4556C87.779 27.4556 89.0142 28.6391 89.0142 30.5325C89.0142 32.3077 87.779 33.6095 86.3192 33.6095ZM75.8759 25.5621C73.1809 25.5621 71.0473 27.6923 71.0473 30.6509C71.0473 33.4911 73.1809 35.7396 75.8759 35.7396C78.5709 35.7396 80.7045 33.6095 80.7045 30.6509C80.7045 27.574 78.5709 25.5621 75.8759 25.5621ZM75.8759 33.6095C74.4161 33.6095 73.1809 32.3077 73.1809 30.5325C73.1809 28.7574 74.4161 27.4556 75.8759 27.4556C77.3357 27.4556 78.5709 28.6391 78.5709 30.5325C78.5709 32.3077 77.3357 33.6095 75.8759 33.6095ZM63.4114 27.1006V29.2308H68.24C68.1277 30.4142 67.6785 31.3609 67.117 31.9527C66.4433 32.6627 65.3203 33.4911 63.4114 33.4911C60.3794 33.4911 58.1336 31.0059 58.1336 27.8107C58.1336 24.6154 60.4917 22.1302 63.4114 22.1302C64.9835 22.1302 66.2187 22.8402 67.117 23.6686L68.5768 22.1302C67.3416 20.9467 65.7695 20 63.5236 20C59.4811 20 56 23.5503 56 27.8107C56 32.071 59.4811 35.6213 63.5236 35.6213C65.7695 35.6213 67.3416 34.9112 68.6891 33.3728C70.0366 31.9527 70.4858 29.9408 70.4858 28.4024C70.4858 27.929 70.4858 27.4556 70.3735 27.1006H63.4114ZM114.392 28.7574C113.943 27.574 112.82 25.5621 110.35 25.5621C107.879 25.5621 105.858 27.574 105.858 30.6509C105.858 33.4911 107.879 35.7396 110.574 35.7396C112.708 35.7396 114.056 34.3195 114.505 33.4911L112.933 32.3077C112.371 33.1361 111.697 33.7278 110.574 33.7278C109.452 33.7278 108.778 33.2544 108.216 32.1893L114.617 29.3491L114.392 28.7574ZM107.879 30.4142C107.879 28.5207 109.339 27.4556 110.35 27.4556C111.136 27.4556 111.922 27.929 112.147 28.5207L107.879 30.4142ZM102.602 35.2663H104.735V20.4734H102.602V35.2663ZM99.2329 26.6272C98.6714 26.0355 97.7731 25.4438 96.6501 25.4438C94.292 25.4438 92.0461 27.6923 92.0461 30.5325C92.0461 33.3728 94.1797 35.503 96.6501 35.503C97.7731 35.503 98.6714 34.9112 99.1206 34.3195H99.2329V35.0296C99.2329 36.9231 98.2222 37.9882 96.6501 37.9882C95.4149 37.9882 94.5165 37.0414 94.292 36.213L92.4953 37.0414C93.0567 38.3432 94.4043 40 96.7624 40C99.2329 40 101.254 38.4615 101.254 34.7929V25.7988H99.2329V26.6272ZM96.7624 33.6095C95.3026 33.6095 94.0674 32.3077 94.0674 30.5325C94.0674 28.7574 95.3026 27.4556 96.7624 27.4556C98.2222 27.4556 99.3452 28.7574 99.3452 30.5325C99.3452 32.3077 98.2222 33.6095 96.7624 33.6095ZM124.162 20.4734H119.109V35.2663H121.242V29.7041H124.162C126.52 29.7041 128.766 27.929 128.766 25.0888C128.766 22.2485 126.52 20.4734 124.162 20.4734ZM124.274 27.574H121.242V22.4852H124.274C125.846 22.4852 126.745 23.9053 126.745 24.9704C126.632 26.2722 125.734 27.574 124.274 27.574ZM137.188 25.4438C135.616 25.4438 134.044 26.1538 133.482 27.6923L135.391 28.5207C135.84 27.6923 136.514 27.4556 137.3 27.4556C138.423 27.4556 139.434 28.1657 139.546 29.3491V29.4675C139.209 29.2308 138.311 28.8757 137.413 28.8757C135.391 28.8757 133.37 30.0592 133.37 32.1893C133.37 34.2012 135.054 35.503 136.851 35.503C138.311 35.503 138.985 34.7929 139.546 34.0828H139.658V35.2663H141.68V29.5858C141.455 26.9822 139.546 25.4438 137.188 25.4438ZM136.963 33.6095C136.29 33.6095 135.279 33.2544 135.279 32.3077C135.279 31.1243 136.514 30.7692 137.525 30.7692C138.423 30.7692 138.872 31.0059 139.434 31.2426C139.209 32.6627 138.086 33.6095 136.963 33.6095ZM148.754 25.7988L146.396 32.1893H146.284L143.813 25.7988H141.567L145.273 34.7929L143.139 39.7633H145.273L151 25.7988H148.754ZM129.889 35.2663H132.022V20.4734H129.889V35.2663Z" fill="#A29999"/>
<path d="M29.0009 19.2712C29.0009 18.5253 29.6972 18.1121 30.0445 18L42.1816 30.041L30.0154 42C29.587 41.977 29.1595 41.1614 29 40.7553V19.2721L29.0009 19.2712ZM46.0765 26.141L32.7822 18.678L43.2534 28.9958L46.0765 26.141ZM48.7102 27.7591L47.3749 26.9602L44.326 30.041L47.4277 33.0248L48.6423 32.3469C50.4219 31.3537 50.4598 28.8034 48.7102 27.7591ZM46.0765 33.8273L43.2542 31.0659L32.783 41.4174L46.0765 33.8273Z" fill="#353030"/>
</svg>
