<svg width="395" height="161" viewBox="0 0 395 161" fill="none" xmlns="http://www.w3.org/2000/svg">
<path d="M76.0394 157.08V125.84H0.359375V93.28L53.5994 3.08H104.199V100.76H129.719V125.84H104.199V157.08H76.0394ZM27.1994 100.76H76.0394V21.12H72.0794L27.1994 97.24V100.76Z" fill="url(#paint0_linear_921_2774)"/>
<path d="M196.983 160.16C178.796 160.16 164.203 155.173 153.203 145.2C142.203 135.08 136.703 119.827 136.703 99.44V60.72C136.703 40.92 142.203 25.8867 153.203 15.62C164.203 5.20667 178.796 0 196.983 0C215.316 0 229.909 5.20667 240.763 15.62C251.763 25.8867 257.263 40.92 257.263 60.72V99.44C257.263 119.827 251.763 135.08 240.763 145.2C229.909 155.173 215.316 160.16 196.983 160.16ZM196.983 135.08C207.983 135.08 216.049 132.073 221.183 126.06C226.463 120.047 229.103 111.467 229.103 100.32V59.4C229.103 48.1067 226.169 39.6 220.303 33.88C214.583 28.0133 206.809 25.08 196.983 25.08C186.863 25.08 178.943 28.0867 173.223 34.1C167.649 40.1133 164.863 48.5467 164.863 59.4V100.32C164.863 111.907 167.503 120.633 172.783 126.5C178.209 132.22 186.276 135.08 196.983 135.08Z" fill="url(#paint1_linear_921_2774)"/>
<path d="M340.959 157.08V125.84H265.279V93.28L318.519 3.08H369.119V100.76H394.639V125.84H369.119V157.08H340.959ZM292.119 100.76H340.959V21.12H336.999L292.119 97.24V100.76Z" fill="url(#paint2_linear_921_2774)"/>
<defs>
<linearGradient id="paint0_linear_921_2774" x1="0.359375" y1="0" x2="408.396" y2="108.352" gradientUnits="userSpaceOnUse">
<stop stop-color="#E3E3EF"/>
<stop offset="1" stop-color="#D6D6E8"/>
</linearGradient>
<linearGradient id="paint1_linear_921_2774" x1="0.359375" y1="0" x2="408.396" y2="108.352" gradientUnits="userSpaceOnUse">
<stop stop-color="#E3E3EF"/>
<stop offset="1" stop-color="#D6D6E8"/>
</linearGradient>
<linearGradient id="paint2_linear_921_2774" x1="0.359375" y1="0" x2="408.396" y2="108.352" gradientUnits="userSpaceOnUse">
<stop stop-color="#E3E3EF"/>
<stop offset="1" stop-color="#D6D6E8"/>
</linearGradient>
</defs>
</svg>
