<svg width="16" height="16" viewBox="0 0 16 16" fill="none" xmlns="http://www.w3.org/2000/svg">
<g clip-path="url(#clip0_5520_940)">
<mask id="mask0_5520_940" style="mask-type:luminance" maskUnits="userSpaceOnUse" x="0" y="0" width="16" height="16">
<path d="M0 0H16V16H0V0Z" fill="white"/>
</mask>
<g mask="url(#mask0_5520_940)">
<path fill-rule="evenodd" clip-rule="evenodd" d="M14.005 7.13416L5.5 2.21716C5.34798 2.12939 5.17554 2.08318 5.00001 2.08318C4.82447 2.08318 4.65203 2.12938 4.50001 2.21715C4.34799 2.30491 4.22175 2.43115 4.13398 2.58316C4.04621 2.73518 4 2.90762 4 3.08316V12.9172C4 13.0927 4.04621 13.2651 4.13398 13.4171C4.22175 13.5692 4.34799 13.6954 4.50001 13.7832C4.65203 13.8709 4.82447 13.9171 5.00001 13.9171C5.17554 13.9171 5.34798 13.8709 5.5 13.7832L14.005 8.86616C14.157 8.77838 14.2832 8.65215 14.371 8.50013C14.4588 8.34812 14.505 8.17568 14.505 8.00016C14.505 7.82463 14.4588 7.65219 14.371 7.50018C14.2832 7.34816 14.157 7.22193 14.005 7.13416ZM14.756 10.1642C16.421 9.20216 16.421 6.79816 14.756 5.83516L6.251 0.918156C4.585 -0.044844 2.5 1.15816 2.5 3.08316V12.9172C2.5 14.8422 4.585 16.0452 6.251 15.0812L14.756 10.1642Z" fill="#ADB0BD"/>
</g>
</g>
<defs>
<clipPath id="clip0_5520_940">
<rect width="16" height="16" fill="white"/>
</clipPath>
</defs>
</svg>
