<svg width="60" height="60" viewBox="0 0 60 60" fill="none" xmlns="http://www.w3.org/2000/svg">
<g clip-path="url(#clip0_1_402)">
<mask id="mask0_1_402" style="mask-type:luminance" maskUnits="userSpaceOnUse" x="0" y="0" width="60" height="60">
<path d="M59.9935 0.15625H0.0078125V59.9602H59.9935V0.15625Z" fill="white"/>
</mask>
<g mask="url(#mask0_1_402)">
<path d="M13.8345 36.0348V35.9078C13.3809 34.0539 13.1297 32.0915 13.1297 30.0582C13.1297 28.0248 13.3809 26.0625 13.8345 24.2086V24.0816C16.6013 12.2292 27.4025 3.15766 40.6219 2.12977C37.3114 0.873892 33.7423 0.15625 30.0007 0.15625C13.4633 0.15625 0.0078125 13.5711 0.0078125 30.0582C0.0078125 46.5454 13.4633 59.9601 30.0007 59.9601C33.7423 59.9601 37.3114 59.2425 40.6181 57.9866C27.4025 56.9625 16.6013 47.8873 13.8345 36.0348Z" fill="#353030"/>
<path d="M48.0083 6.20295C46.4225 5.92635 44.7916 5.76562 43.1232 5.76562C37.9644 5.76562 33.1656 7.17102 29.1016 9.55944C29.4014 9.54075 29.6977 9.50337 30.0013 9.50337C39.3179 9.50337 46.8724 18.7057 46.8724 30.0609C46.8724 41.4162 39.3179 50.6185 30.0013 50.6185C29.6977 50.6185 29.4014 50.5812 29.1016 50.5625C33.1619 52.9509 37.9644 54.3563 43.1232 54.3563C44.7916 54.3563 46.4225 54.1956 48.0083 53.919C55.2703 48.4545 59.9942 39.809 59.9942 30.0609C59.9942 20.3129 55.2703 11.6675 48.0083 6.20295Z" fill="#353030"/>
</g>
</g>
<defs>
<clipPath id="clip0_1_402">
<rect width="60" height="60" fill="white"/>
</clipPath>
</defs>
</svg>
