<svg width="60" height="60" viewBox="0 0 60 60" fill="none" xmlns="http://www.w3.org/2000/svg">
<g clip-path="url(#clip0_1_388)">
<path d="M41.7986 0H42.2353C42.3882 1.7525 42.1734 3.51737 41.6042 5.18372C41.0351 6.85008 40.124 8.38191 38.9281 9.68295C37.8997 11.0727 36.5323 12.1817 34.9535 12.9063C33.3747 13.631 31.6361 13.9477 29.9002 13.8268C29.7745 12.1175 30.0088 10.401 30.5882 8.78595C31.1677 7.17095 32.0796 5.69268 33.2663 4.44478C35.5195 2.04897 38.5279 0.481785 41.7986 0Z" fill="#353030"/>
<path d="M54.9996 44.0377V44.1562C53.8186 47.6115 52.0958 50.8613 49.8942 53.7863C47.9467 56.4072 45.5608 59.9364 41.3011 59.9364C37.6162 59.9364 35.175 57.6201 31.4016 57.5654C27.4109 57.5015 25.2166 59.5023 21.5667 60.0057H20.3212C17.7264 59.3741 15.4483 57.8383 13.904 55.6795C8.65644 49.537 5.53337 41.8927 4.99219 33.8659V31.1812C5.01423 28.3238 5.74134 25.5151 7.11024 22.9994C8.47913 20.4838 10.4483 18.3374 12.8465 16.7471C15.4818 15.0634 18.6309 14.3501 21.7436 14.7317C23.2344 14.9934 24.6948 15.4027 26.1028 15.9537C27.4612 16.6468 28.9395 17.08 30.4602 17.2304C31.5199 17.0816 32.5505 16.7741 33.5168 16.3184C36.5827 14.8916 39.9783 14.3022 43.3517 14.6113C45.3548 14.7958 47.292 15.4157 49.0252 16.4268C50.7584 17.4379 52.2447 18.8152 53.3782 20.4605C51.1535 21.6579 49.3419 23.4873 48.1768 25.713C47.0117 27.9387 46.5466 30.4588 46.8413 32.9485C47.0107 35.3692 47.866 37.6935 49.309 39.6548C50.752 41.6162 52.7243 43.1353 54.9996 44.0377Z" fill="#353030"/>
</g>
<defs>
<clipPath id="clip0_1_388">
<rect width="60" height="60" fill="white"/>
</clipPath>
</defs>
</svg>
