<svg width="60" height="60" viewBox="0 0 60 60" fill="none" xmlns="http://www.w3.org/2000/svg">
<path d="M59.4432 4.01339C59.088 3.68105 58.613 3.51042 58.1256 3.543C35.9733 5.01523 23.8821 5.01523 1.87512 3.543C1.38902 3.51089 0.912422 3.6807 0.557109 4.01304C0.20168 4.3455 0 4.81038 0 5.29695V42.3282C0 42.8145 0.201563 43.2792 0.556523 43.6115C0.911133 43.9441 1.39137 44.1146 1.87371 44.0823C23.9473 42.6229 36.0389 42.6229 58.1262 44.0823C58.6126 44.1146 59.0884 43.9439 59.4434 43.6115C59.7983 43.2792 60 42.8145 60 42.3282V5.29695C60 4.8105 59.7984 4.34585 59.4432 4.01339Z" fill="#353030"/>
<path d="M48.7072 53.0036L36.0951 49.6241V46.5622C34.0129 46.5202 31.9947 46.5 29.9962 46.5C28.0008 46.5 25.9859 46.5202 23.9076 46.562V49.624L11.2955 53.0036C10.3578 53.2548 9.80126 54.2187 10.0525 55.1564C10.263 55.9418 10.9731 56.4598 11.7493 56.4598C11.8999 56.4598 12.053 56.4402 12.2054 56.3994L25.4337 52.855C25.5098 52.865 34.4931 52.865 34.5692 52.855L47.7976 56.3994C47.9499 56.4403 48.1028 56.4598 48.2536 56.4598C49.0297 56.4598 49.7401 55.9418 49.9504 55.1564C50.2014 54.2187 49.6449 53.2548 48.7072 53.0036Z" fill="#353030"/>
</svg>
