<svg width="60" height="60" viewBox="0 0 60 60" fill="none" xmlns="http://www.w3.org/2000/svg">
<g clip-path="url(#clip0_1_392)">
<path fill-rule="evenodd" clip-rule="evenodd" d="M38.3798 5.52124L41.0061 0.796616C41.0506 0.740112 41.0815 0.674329 41.0964 0.604265C41.1113 0.5342 41.1098 0.461699 41.0922 0.392268C41.0745 0.322837 41.041 0.258303 40.9943 0.203571C40.9475 0.148838 40.8888 0.105346 40.8225 0.0763993C40.7607 0.038525 40.6915 0.014017 40.6194 0.00449037C40.5474 -0.00503626 40.4741 0.000634837 40.4044 0.0211299C40.3347 0.041625 40.2702 0.0764786 40.2151 0.123394C40.16 0.170309 40.1157 0.228221 40.0849 0.293312L37.4261 5.05352C35.0819 4.05438 32.5558 3.539 30.0028 3.539C27.4497 3.539 24.9236 4.05438 22.5795 5.05352L19.9172 0.293312C19.8864 0.228221 19.842 0.170309 19.787 0.123394C19.7319 0.0764786 19.6674 0.041625 19.5977 0.0211299C19.528 0.000634837 19.4547 -0.00503626 19.3826 0.00449037C19.3106 0.014017 19.2414 0.038525 19.1796 0.0763993C19.1132 0.105177 19.0542 0.148545 19.0073 0.203202C18.9604 0.257859 18.9268 0.322366 18.9089 0.391813C18.891 0.461261 18.8895 0.533819 18.9043 0.603966C18.919 0.674113 18.9499 0.740001 18.9943 0.796616L21.6171 5.51954C19.04 6.77263 16.8487 8.68346 15.2702 11.0542C13.7154 13.3533 12.8922 16.0592 12.9064 18.8241H47.0682C47.0825 16.0592 46.2593 13.3532 44.7044 11.0542C43.1296 8.68894 40.9469 6.77948 38.3798 5.52124ZM23.2193 12.3896C23.0874 12.5232 22.9293 12.6289 22.7547 12.7003C22.5802 12.7717 22.3927 12.8072 22.2038 12.8048C22.0175 12.8082 21.8326 12.773 21.6609 12.7015C21.4893 12.63 21.3347 12.5237 21.2072 12.3896C20.947 12.1235 20.8016 11.7681 20.8016 11.3982C20.8016 11.0283 20.947 10.6729 21.2072 10.4069C21.3347 10.2727 21.4893 10.1664 21.6609 10.0949C21.8326 10.0234 22.0175 9.98822 22.2038 9.99167C22.3927 9.98921 22.5802 10.0248 22.7547 10.0961C22.9293 10.1675 23.0874 10.2732 23.2193 10.4069C23.3536 10.5356 23.4605 10.6897 23.5334 10.86C23.6063 11.0303 23.6439 11.2133 23.6439 11.3982C23.6439 11.5831 23.6063 11.7661 23.5334 11.9364C23.4605 12.1067 23.3536 12.2608 23.2193 12.3896ZM38.7864 12.3896C38.6585 12.5238 38.5036 12.6301 38.3317 12.7016C38.1597 12.7731 37.9745 12.8082 37.788 12.8048C37.5991 12.8072 37.4116 12.7717 37.237 12.7003C37.0625 12.6289 36.9044 12.5232 36.7725 12.3896C36.6384 12.2607 36.5317 12.1066 36.4589 11.9363C36.3861 11.766 36.3486 11.5831 36.3486 11.3982C36.3486 11.2134 36.3861 11.0304 36.4589 10.8601C36.5317 10.6898 36.6384 10.5357 36.7725 10.4069C36.9044 10.2732 37.0625 10.1675 37.237 10.0961C37.4116 10.0248 37.5991 9.98921 37.788 9.99167C37.9746 9.98809 38.1598 10.0232 38.3317 10.0947C38.5037 10.1662 38.6586 10.2726 38.7864 10.4069C39.0465 10.6729 39.1919 11.0283 39.1919 11.3982C39.1919 11.7681 39.0465 12.1235 38.7864 12.3896ZM6.34459 19.7052C6.80815 19.5193 7.3051 19.4285 7.80528 19.4382C8.30064 19.4302 8.79245 19.5219 9.25075 19.7078C9.70905 19.8937 10.1242 20.1698 10.471 20.5194C10.8267 20.8534 11.1088 21.2564 11.2995 21.7031C11.4902 22.1499 11.5854 22.6307 11.5791 23.1155V38.6214C11.583 39.1113 11.488 39.5971 11.2995 40.0504C11.1111 40.5036 10.833 40.9151 10.4816 41.2609C10.1301 41.6066 9.71243 41.8796 9.25289 42.064C8.79336 42.2483 8.30122 42.3402 7.80528 42.3343C7.30509 42.3441 6.80811 42.2533 6.34454 42.0675C5.88098 41.8816 5.46051 41.6046 5.10871 41.2532C4.75038 40.9136 4.46697 40.5046 4.27628 40.0517C4.08558 39.5988 3.99172 39.1118 4.00057 38.6214V23.1155C3.99442 22.6308 4.08967 22.1499 4.28035 21.7032C4.47104 21.2565 4.75304 20.8534 5.10871 20.5194C5.46057 20.1681 5.88104 19.891 6.34459 19.7052ZM13.3411 45.668C13.1377 45.184 13.0378 44.6636 13.0475 44.1396V20.125H46.9503V44.1396C46.96 44.6636 46.8601 45.184 46.6567 45.668C46.4533 46.1521 46.1509 46.5895 45.7684 46.9527C45.3981 47.3251 44.9551 47.6193 44.4661 47.8174C43.9772 48.0155 43.4527 48.1134 42.9243 48.105H40.1539V56.2901C40.163 56.7804 40.0694 57.2672 39.879 57.7201C39.6886 58.173 39.4055 58.5821 39.0475 58.9218C38.3258 59.6153 37.3586 60.0033 36.3518 60.0033C35.345 60.0033 34.3779 59.6153 33.6561 58.9218C33.2978 58.5823 33.0144 58.1732 32.8237 57.7203C32.633 57.2674 32.5391 56.7805 32.5479 56.2901V48.105H27.4516V56.2901C27.4604 56.7805 27.3666 57.2674 27.1759 57.7203C26.9852 58.1732 26.7018 58.5823 26.3434 58.9218C25.9916 59.2731 25.5711 59.5501 25.1075 59.736C24.644 59.9219 24.147 60.0127 23.6468 60.003C23.1526 60.0102 22.6621 59.9181 22.205 59.7322C21.748 59.5463 21.3339 59.2706 20.988 58.9218C20.6297 58.5823 20.3463 58.1732 20.1556 57.7203C19.9649 57.2674 19.871 56.7805 19.8799 56.2901L19.8421 48.105H17.1095C16.5755 48.1155 16.0449 48.0188 15.5498 47.8208C15.0547 47.6227 14.6055 47.3273 14.2294 46.9527C13.8469 46.5895 13.5445 46.1521 13.3411 45.668ZM53.655 19.7C54.1182 19.8828 54.5395 20.1557 54.894 20.5025C55.253 20.8379 55.537 21.2438 55.7279 21.6941C55.9187 22.1445 56.0121 22.6292 56.0021 23.1173V38.6231C56.0109 39.1136 55.9171 39.6005 55.7264 40.0534C55.5357 40.5063 55.2523 40.9154 54.894 41.2549C54.5422 41.6063 54.1217 41.8834 53.6582 42.0692C53.1946 42.2551 52.6976 42.3459 52.1974 42.3361C51.7032 42.3434 51.2126 42.2513 50.7555 42.0654C50.2984 41.8796 49.8844 41.6038 49.5385 41.2549C49.1802 40.9154 48.8968 40.5063 48.7061 40.0534C48.5154 39.6005 48.4215 39.1136 48.4304 38.6231V23.1173C48.4205 22.6292 48.5139 22.1445 48.7048 21.6942C48.8956 21.2439 49.1796 20.838 49.5385 20.5025C49.8869 20.1582 50.3018 19.8865 50.7586 19.7037C51.2153 19.5209 51.7046 19.4306 52.1974 19.4383C52.6961 19.4282 53.1918 19.5172 53.655 19.7Z" fill="#353030"/>
</g>
<defs>
<clipPath id="clip0_1_392">
<rect width="60" height="60" fill="white"/>
</clipPath>
</defs>
</svg>
