<svg width="60" height="60" viewBox="0 0 60 60" fill="none" xmlns="http://www.w3.org/2000/svg">
<g clip-path="url(#clip0_1_382)">
<path fill-rule="evenodd" clip-rule="evenodd" d="M35.3588 5.00003H55.0053C56.3224 4.99578 57.5875 5.51736 58.524 6.45067C59.4605 7.38398 59.9921 8.65305 60.0025 9.98031V50.0261C59.9909 51.3535 59.4585 52.6223 58.5215 53.5555C57.5847 54.4886 56.3194 55.0102 55.0021 55.0064H34.9327C34.9662 54.6281 34.9122 54.247 34.7749 53.8933C33.7917 51.3712 33.1829 48.7169 32.9682 46.0158C36.9768 45.616 40.8605 44.3872 44.3765 42.4062C44.6609 42.247 44.9112 42.0324 45.1126 41.775C45.314 41.5175 45.4627 41.2222 45.5499 40.9063C45.6371 40.5905 45.6611 40.2603 45.6206 39.9349C45.5801 39.6096 45.4758 39.2956 45.3138 39.0113C44.9813 38.4352 44.4371 38.0142 43.7989 37.8396C43.1607 37.6649 42.4799 37.7505 41.9039 38.0779C39.1289 39.6408 36.0762 40.6392 32.9193 41.0164C33.0976 37.8299 33.6913 34.681 34.685 31.6506L35.9473 28.2875H27.7422C28.842 20.0188 34.5193 6.90818 35.3588 5.00003ZM44.6591 23.1833C45.0621 22.7771 45.2885 22.2262 45.2885 21.6519V18.5384C45.2885 17.964 45.0621 17.4131 44.6591 17.007C44.256 16.6008 43.7094 16.3726 43.1394 16.3726C42.5694 16.3726 42.0228 16.6008 41.6198 17.007C41.2167 17.4131 40.9903 17.964 40.9903 18.5384V21.6519C40.9903 22.2262 41.2167 22.7771 41.6198 23.1833C42.0228 23.5894 42.5694 23.8176 43.1394 23.8176C43.7094 23.8176 44.256 23.5894 44.6591 23.1833ZM15.444 42.1015C15.6511 42.3545 15.9061 42.5634 16.1941 42.7163C19.8309 44.6603 23.8329 45.8116 27.94 46.0953C28.172 49.139 28.8209 52.1356 29.8682 55H5.00039C3.68314 55.0039 2.41789 54.4822 1.48099 53.5491C0.544091 52.616 0.0116665 51.3471 0 50.0197V9.9803C0.0116665 8.65289 0.544091 7.38406 1.48099 6.45093C2.41789 5.5178 3.68314 4.99619 5.00039 5.00002H29.914C27.7002 10.2474 22.5546 23.2547 22.5546 30.7776V33.2661H29.0083C28.393 35.8349 28.0148 38.4554 27.8785 41.0943C24.6228 40.8124 21.4568 39.873 18.5688 38.3323C17.9858 38.0181 17.3034 37.9479 16.6694 38.1369C16.0354 38.3258 15.5007 38.7588 15.1811 39.342C15.0255 39.6301 14.9282 39.9465 14.895 40.2727C14.8617 40.599 14.8931 40.9287 14.9874 41.2426C15.0816 41.5566 15.2368 41.8485 15.444 42.1015ZM15.8626 16.9688C15.4596 17.3749 15.2331 17.9258 15.2331 18.5002V21.6121C15.2331 22.1865 15.4596 22.7374 15.8626 23.1435C16.2656 23.5497 16.8123 23.7778 17.3822 23.7778C17.9522 23.7778 18.4989 23.5497 18.9019 23.1435C19.3049 22.7374 19.5314 22.1865 19.5314 21.6121V18.5002C19.5314 17.9258 19.3049 17.3749 18.9019 16.9688C18.4989 16.5626 17.9522 16.3345 17.3822 16.3345C16.8123 16.3345 16.2656 16.5626 15.8626 16.9688Z" fill="#353030"/>
</g>
<defs>
<clipPath id="clip0_1_382">
<rect width="60" height="60" fill="white"/>
</clipPath>
</defs>
</svg>
