<svg width="60" height="60" viewBox="0 0 60 60" fill="none" xmlns="http://www.w3.org/2000/svg">
<g clip-path="url(#clip0_1_400)">
<path d="M59.7289 27.4316C59.6886 27.1396 59.6283 26.8507 59.5481 26.5668C59.5481 26.5668 59.3348 26.8119 58.9661 27.2771C58.8526 25.9838 58.6105 24.7046 58.2431 23.4577C57.7825 21.8931 57.1724 20.3747 56.421 18.9228C55.9525 17.9562 55.3997 17.0312 54.7689 16.1581C54.5364 15.8196 54.3038 15.5 54.0712 15.1993C52.9614 13.4521 51.6961 12.3796 50.232 10.3483C49.283 8.79731 48.6328 7.08788 48.3142 5.30555C47.907 6.3809 47.5956 7.48889 47.3833 8.61709C45.8722 7.15042 44.5725 6.09571 43.779 5.38013C39.9036 1.84309 40.3483 0 40.3483 0C40.3483 0 33.062 7.90151 36.2198 16.1244C37.3099 18.9232 39.1913 21.3578 41.6425 23.1417C44.7045 25.5867 47.9798 27.5061 49.7241 32.4353C48.3202 29.8419 46.2139 27.6801 43.638 26.1886C44.4179 27.9712 44.8136 29.8931 44.8003 31.8333C44.774 33.8565 44.2876 35.8483 43.3764 37.663C42.4653 39.4776 41.1526 41.0691 39.5344 42.3209C37.9163 43.5728 36.0336 44.4533 34.0242 44.898C32.0148 45.3428 29.9296 45.3405 27.9213 44.8912C26.7282 44.6752 25.572 44.295 24.487 43.7619C22.8889 42.8223 21.5011 41.5744 20.4073 40.0935L20.3874 40.0562L20.6387 40.1503C21.2087 40.3404 21.7916 40.4911 22.383 40.6013C24.7212 41.0891 27.1577 40.8116 29.3204 39.8112C31.5111 38.6446 32.8288 37.7603 33.8935 38.0995H33.9134C34.9599 38.4191 35.7932 37.4407 35.0377 36.4056C34.3951 35.5994 33.5421 34.9796 32.5694 34.6119C31.5967 34.2442 30.5407 34.1424 29.5138 34.3174C27.323 34.6193 25.3275 36.1428 22.4643 34.6725C22.2773 34.5832 22.0961 34.4824 21.922 34.3707C21.7286 34.257 22.542 34.5483 22.3486 34.408C21.725 34.0998 21.1213 33.7541 20.5411 33.3728C20.5031 33.3355 20.9676 33.5042 20.9279 33.4669C20.1868 32.9765 19.5486 32.3508 19.048 31.6238C18.7931 31.1827 18.6479 30.6887 18.6243 30.182C18.6008 29.6753 18.6995 29.1703 18.9125 28.7082C19.1796 28.2476 19.5857 27.8797 20.0747 27.6553C20.4362 27.8329 20.6748 27.9571 20.6748 27.9571C20.6748 27.9571 20.4941 27.6553 20.4236 27.5061C20.4615 27.4866 20.4814 27.5061 20.5212 27.4866C21.0078 27.6936 21.4805 27.9309 21.9365 28.1969C22.1945 28.3373 22.4193 28.5297 22.5963 28.7615C22.5963 28.7615 22.7318 28.7047 22.6342 28.4419C22.4978 28.1155 22.2607 27.8392 21.9564 27.6517H21.9943C22.2871 27.796 22.566 27.966 22.8276 28.1596C23.0629 27.6256 23.1752 27.0472 23.1566 26.4656C23.1798 26.146 23.1336 25.8253 23.021 25.5245C22.9234 25.3363 23.0789 25.2618 23.2542 25.4677C23.2199 25.3121 23.1678 25.1608 23.0988 25.0167V24.9972C23.143 24.932 23.1952 24.8723 23.2542 24.8196C23.3879 24.7044 23.5299 24.5988 23.679 24.5036C24.5892 23.9553 25.5431 23.4802 26.5313 23.0831C27.3266 22.7439 28.0045 22.4811 28.14 22.4066C28.3401 22.2787 28.5282 22.1337 28.7022 21.9733C29.366 21.4232 29.8177 20.6661 29.9819 19.8284C30.0018 19.7147 30.0018 19.6029 30.0199 19.4892V19.3383V19.3188V19.2992C29.9042 18.866 29.1486 18.5659 25.2136 18.2072C24.5334 18.0906 23.903 17.7807 23.4003 17.3158C22.8975 16.851 22.5444 16.2516 22.3848 15.5917V15.6113C22.3214 15.7514 22.2694 15.8963 22.2293 16.0445C22.2872 15.9131 22.3269 15.7622 22.3848 15.6113V15.5793C23.1439 13.672 24.493 12.0468 26.2421 10.9325C26.3397 10.8579 25.8354 10.952 25.9312 10.8757C26.265 10.7185 26.6078 10.5803 26.9579 10.462C27.1386 10.3874 26.2023 10.0482 25.3889 10.1228C24.8802 10.1414 24.3799 10.2565 23.9158 10.462C24.1092 10.2844 24.6912 10.0855 24.5556 10.0855C23.5071 10.288 22.4992 10.6568 21.5714 11.1775C21.57 11.0867 21.5898 10.9969 21.6292 10.9147C20.8992 11.2165 20.2592 11.6955 19.7692 12.3068C19.785 12.201 19.7916 12.0941 19.7891 11.9872C19.4431 12.2291 19.1302 12.5138 18.8582 12.8342L18.8383 12.8537C16.666 12.0294 14.2988 11.8334 12.0166 12.2891L11.9967 12.2695H12.0166C11.5425 11.9008 11.136 11.4552 10.8146 10.952H10.7748L10.7369 10.913C10.6013 10.6875 10.4459 10.462 10.2904 10.1796C10.1747 9.99142 10.0572 9.76591 9.94156 9.54041C9.94184 9.53778 9.94153 9.53511 9.94063 9.53262C9.93973 9.53012 9.93827 9.52785 9.93637 9.52598C9.93446 9.52411 9.93215 9.52268 9.92961 9.52179C9.92707 9.52091 9.92436 9.5206 9.92168 9.52088C9.88372 9.52088 9.84395 9.72863 9.80599 9.67181C9.40699 8.65854 9.21595 7.57776 9.24384 6.49167L9.21854 6.50943C8.58117 6.93266 8.09898 7.54574 7.84299 8.25841C7.70742 8.5212 7.64958 8.65438 7.57185 8.80353V8.74848C7.59947 8.62438 7.61879 8.49863 7.6297 8.37205L7.59174 8.40934C7.40213 8.6212 7.23946 8.85493 7.10731 9.10538C6.9936 9.34311 6.89637 9.58811 6.8163 9.83871C6.79641 9.876 6.8163 9.80143 6.8163 9.72507C6.8163 9.64872 6.83618 9.48004 6.8163 9.51733L6.78376 9.58835C5.95033 11.3981 5.42634 13.3304 5.23288 15.3076C5.17734 15.6374 5.15134 15.9713 5.15515 16.3055V16.3428C4.56043 16.9823 4.02846 17.6755 3.56631 18.4132C2.05733 20.8926 0.927584 23.5764 0.213295 26.3786C0.713517 25.3136 1.30745 24.2934 1.98831 23.3299C0.672735 26.6201 -0.00173865 30.1238 3.36583e-06 33.6587C0.231305 32.6212 0.522184 31.5974 0.871245 30.5922C0.659877 34.7768 1.49131 38.9489 3.29337 42.7463C5.73178 48.0332 9.75352 52.464 14.822 55.4473C16.8973 56.8031 19.1624 57.8552 21.5461 58.5706C21.857 58.6843 22.1859 58.7961 22.495 58.8902C22.3946 58.8543 22.2972 58.8103 22.204 58.7588C25.0348 59.5846 27.9725 60.0032 30.9255 60.0018C41.3713 60.0018 44.8437 56.1451 45.1509 55.7492C45.6695 55.2962 46.0911 54.7463 46.3909 54.1316C46.5843 54.057 46.7976 53.954 47.0109 53.8688L47.1465 53.812L47.3797 53.6983C48.9578 52.9809 50.4412 52.0776 51.7973 51.0083C53.8267 49.6032 55.2827 47.5362 55.9059 45.1753C56.2733 44.3186 56.294 43.3565 55.9637 42.4853C56.0794 42.3077 56.177 42.1461 56.2927 41.9526C58.5398 38.4614 59.8162 34.4526 59.9946 30.3258V29.9707C59.9692 29.1191 59.8804 28.2704 59.7289 27.4316Z" fill="#353030"/>
</g>
<defs>
<clipPath id="clip0_1_400">
<rect width="60" height="60" fill="white"/>
</clipPath>
</defs>
</svg>
