<svg width="60" height="60" viewBox="0 0 60 60" fill="none" xmlns="http://www.w3.org/2000/svg">
<g clip-path="url(#clip0_1_416)">
<path d="M30 0.15625C13.4297 0.15625 0 13.5421 0 30.0582C0 41.1079 6.03516 50.7443 14.9766 55.9071L20.9882 45.5699C15.6211 42.4628 12 36.6927 12 30.0582C12 20.1532 20.0626 12.117 30 12.117C39.9374 12.117 48 20.1532 48 30.0582C48 36.6927 44.3789 42.4628 39.0118 45.5699L45.0234 55.9071C53.9648 50.7443 60 41.1079 60 30.0582C60 13.5421 46.5703 0.15625 30 0.15625ZM30 21.0876C25.0313 21.0876 21 25.1057 21 30.0582C21 33.901 23.4374 37.1599 26.8594 38.4331L22.9453 59.0958C25.2071 59.6448 27.5626 59.9601 30 59.9601C32.4374 59.9601 34.7929 59.6448 37.0664 59.0958L33.1406 38.4331C36.5508 37.1599 39 33.901 39 30.0582C39 25.1057 34.9687 21.0876 30 21.0876Z" fill="#353030"/>
</g>
<defs>
<clipPath id="clip0_1_416">
<rect width="60" height="60" fill="white"/>
</clipPath>
</defs>
</svg>
