<svg width="60" height="60" viewBox="0 0 60 60" fill="none" xmlns="http://www.w3.org/2000/svg">
<g clip-path="url(#clip0_1_386)">
<path d="M55.383 48.1787C53.5976 47.4579 52.8373 46.5017 52.9069 45.0752C52.9259 43.8204 52.445 42.6093 51.5695 41.7076C52.2745 39.1789 52.2745 36.5063 51.5695 33.9775C50.4104 30.6472 46.8736 25.5603 43.2231 20.5597C41.9594 18.5008 41.3831 16.0954 41.5769 13.6892C41.6438 10.8232 41.1121 7.97461 40.0155 5.32451C39.3223 3.70286 38.1545 2.32751 36.6647 1.37828C35.175 0.429056 33.4327 -0.0498742 31.6656 0.00410956C29.4072 0.00512378 27.1989 0.667714 25.315 1.90957C21.6678 4.39039 22.1498 9.79709 22.4689 13.3728C22.513 13.8635 22.5537 14.3255 22.5775 14.7266C22.836 16.6965 22.7568 18.6958 22.3433 20.6393C21.7907 21.5159 21.1825 22.3564 20.5223 23.1556C19.6415 24.2996 18.6419 25.5941 17.8238 26.8024C16.766 28.6432 15.9183 30.5963 15.2968 32.6254C14.8659 33.9786 14.3315 35.2967 13.6981 36.5683C13.3487 37.1732 13.1222 37.8409 13.0317 38.5331C12.9411 39.2253 12.9882 39.9285 13.1703 40.6026C12.5799 41.0358 12.1145 41.6166 11.8211 42.2864C11.278 43.4269 10.1783 44.0412 7.88886 44.4744C7.45723 44.524 7.04131 44.6654 6.66918 44.889C6.29706 45.1127 5.9774 45.4133 5.73181 45.7707C5.53078 46.2348 5.42906 46.7357 5.43315 47.2412C5.43725 47.7468 5.54706 48.2459 5.75557 48.7067C6.07873 49.8089 5.96889 50.9924 5.44839 52.0167C5.34317 52.3315 5.22267 52.6936 5.10896 53.0829C5.01089 53.3598 4.97839 53.6555 5.01402 53.9471C5.04964 54.2386 5.15242 54.5179 5.31431 54.7632C6.17815 56.0663 8.70857 56.5249 11.2984 56.8278C12.974 57.1098 14.6136 57.574 16.1878 58.212C17.7287 58.8331 19.3321 59.287 20.9703 59.5658C21.1955 59.5939 21.4222 59.608 21.6492 59.6081C22.3926 59.6311 23.1275 59.4461 23.7709 59.074C24.4143 58.702 24.9403 58.1578 25.2895 57.503C27.4523 57.0727 29.6465 56.8175 31.8506 56.7398C34.0427 56.7117 36.2309 56.9332 38.3727 57.3998C38.8151 58.2739 39.4964 59.0054 40.3379 59.51C41.0239 59.8458 41.7802 60.014 42.5442 60.0007C43.2654 60.0111 43.9813 59.8763 44.6491 59.6044C45.3168 59.3325 45.9228 58.9292 46.4306 58.4185C48.5929 56.6658 50.958 55.1778 53.4754 53.9865C54.0151 53.6988 54.5191 53.4298 54.9604 53.1861C55.5437 52.9478 56.046 52.5471 56.4071 52.0318C56.7682 51.5166 56.973 50.9086 56.997 50.2805C56.9568 49.8132 56.7835 49.3671 56.4976 48.9948C56.2116 48.6224 55.8249 48.3393 55.383 48.1787ZM25.3438 47.9131C25.1741 46.7403 23.6467 45.5778 21.8715 44.2308C20.4702 43.3469 19.2639 42.1879 18.3262 40.8243C17.9517 39.4893 17.855 38.0921 18.042 36.7185C18.2291 35.3449 18.696 34.0239 19.4141 32.8369C20.1044 31.587 20.6596 30.2676 21.0705 28.9008C21.4456 27.5234 22.0287 26.211 22.7998 25.0086C23.9362 23.5801 24.6534 21.8657 24.872 20.0554C25.8421 21.12 27.1494 21.8201 28.5752 22.0387C28.7759 22.0393 28.9757 22.0125 29.1691 21.9592C30.4067 21.4905 31.5948 20.901 32.7161 20.1993C33.6624 19.5922 34.6733 19.0917 35.7302 18.7067C36.6195 19.9641 41.7839 31.2293 42.3117 34.8473C42.6083 36.8966 42.5249 38.9827 42.0656 41.002C41.862 40.9738 41.6568 40.9591 41.4513 40.958C40.0121 40.958 39.6319 41.7313 39.5318 42.1933C39.3189 44.1534 39.2237 46.1244 39.2467 48.0958C37.5122 50.2864 35.0596 51.7979 32.319 52.3653C30.9055 52.5783 29.4786 52.6914 28.049 52.7038C27.3448 52.7116 26.6409 52.6687 25.9429 52.5752L24.0455 50.4328C24.517 50.2224 24.9026 49.8583 25.1388 49.4003C25.3751 48.9424 25.448 48.4178 25.3455 47.9131H25.3438ZM27.7537 12.6231C27.6949 12.6479 27.6383 12.675 27.584 12.7044C27.5782 12.5757 27.5652 12.4474 27.545 12.3202C27.5116 11.8184 27.3067 11.3432 26.9645 10.9737C26.6224 10.6042 26.1636 10.3627 25.6646 10.2895C25.5964 10.2895 25.5283 10.2945 25.4609 10.3048C25.1945 10.3603 24.9472 10.484 24.7433 10.6638C24.5395 10.8437 24.3861 11.0733 24.2984 11.3303C24.497 10.122 25.1911 9.22681 26.0159 9.22681C26.9832 9.22681 27.8013 10.5129 27.8013 12.0342C27.7996 12.2314 27.7837 12.4282 27.7537 12.6231ZM35.2771 13.5302C35.368 13.2416 35.4138 12.9408 35.4129 12.6384C35.4424 12.3443 35.4135 12.0473 35.3277 11.7644C35.242 11.4815 35.1012 11.2182 34.9133 10.9897C34.7253 10.7611 34.4941 10.5718 34.2327 10.4325C33.9713 10.2932 33.6849 10.2066 33.3899 10.1778C32.7982 10.244 32.256 10.5386 31.8795 10.9985C31.503 11.4584 31.322 12.0471 31.3754 12.6384C31.3754 12.7309 31.3799 12.8234 31.389 12.9159L31.2193 12.8516C31.0915 12.4697 31.0268 12.0696 31.0275 11.667C30.9563 10.957 31.1655 10.2472 31.6107 9.68851C32.056 9.12984 32.7022 8.7663 33.412 8.67514C34.1221 8.7659 34.7687 9.12927 35.2143 9.68799C35.6599 10.2467 35.8693 10.9567 35.7981 11.667C35.8043 12.3244 35.6226 12.9702 35.2771 13.5302ZM34.3064 16.7454C34.2877 16.8283 34.247 16.8656 33.7972 17.094C33.5715 17.2091 33.2881 17.3529 32.9487 17.5645L32.7144 17.7049C31.5325 18.4771 30.2781 19.1328 28.9689 19.6628C28.5616 19.717 28.3104 19.5613 27.7453 19.1822C27.618 19.0959 27.4822 19.013 27.3379 18.9149C26.6204 18.5181 26.0177 17.9434 25.5882 17.2463C25.9276 16.9925 26.7439 16.3596 27.1665 15.9839C27.744 15.3555 28.4866 14.9011 29.31 14.6724C29.3315 14.6704 29.353 14.6704 29.3745 14.6724C30.2734 14.9241 31.155 15.2339 32.0135 15.5998C32.431 15.769 32.7908 15.9061 33.0454 15.9958C33.5315 16.1112 33.9711 16.3708 34.3064 16.7403V16.7454ZM41.4818 53.4078C42.0119 51.3357 42.3091 49.2113 42.3677 47.0737C42.349 46.7082 42.3151 46.3122 42.2846 45.9281C42.1948 45.2312 42.1761 44.527 42.2285 43.8263C42.2477 43.8174 42.2676 43.81 42.2879 43.8043C42.2224 44.4706 42.3469 45.1417 42.6472 45.7405C42.9474 46.3393 43.4112 46.8413 43.9851 47.1888C44.462 47.3855 44.9743 47.4828 45.4904 47.4748C46.8835 47.4547 48.229 46.9664 49.309 46.0888C49.6795 45.7096 50.0047 45.2888 50.278 44.8349C50.3394 45.0254 50.3619 45.2262 50.3442 45.4255C50.2856 46.1684 50.4254 46.9135 50.7494 47.585C51.0735 48.2565 51.5702 48.8304 52.189 49.2482L52.374 49.3447C52.8271 49.5782 54.0287 50.201 54.049 50.4954C54.0311 50.5333 54.0043 50.5664 53.971 50.5919C53.2114 51.0934 52.4136 51.5348 51.5848 51.9118C49.8585 52.6623 48.2417 53.6419 46.7785 54.8242C45.8451 55.9664 44.5532 56.7622 43.1111 57.0833C43.0122 57.0846 42.9138 57.0709 42.8191 57.0427C41.8501 56.7398 41.049 55.364 41.4818 53.4044V53.4078ZM8.52188 48.2938C8.40443 47.9186 8.37254 47.522 8.42854 47.1329C8.48964 46.8757 9.78624 46.5982 10.331 46.4814C11.0598 46.3687 11.7678 46.1492 12.4321 45.8299C13.081 45.3491 13.5777 44.6924 13.8627 43.938C14.0275 43.4836 14.302 43.0767 14.6621 42.7534C14.6899 42.7376 14.7217 42.73 14.7537 42.7314C15.3189 42.7314 16.5018 43.9008 17.184 44.9466C17.3537 45.2106 17.6779 45.7385 18.0479 46.3511C19.0673 48.1521 20.2105 49.8806 21.4693 51.5243C22.1838 52.279 23.3361 53.7242 23.0561 54.9748C22.7614 55.7751 22.2047 56.4529 21.4761 56.8988C21.3605 56.9222 21.2427 56.9329 21.1248 56.931C18.9977 56.5876 16.9306 55.9431 14.9862 55.0171L14.747 54.9189C13.5122 54.5164 12.2405 54.237 10.9505 54.0847C9.94738 53.9863 8.95987 53.7675 8.00935 53.4331C7.8006 53.203 8.04329 52.4533 8.25544 51.7934C8.42425 51.3101 8.55755 50.8152 8.65426 50.3127C8.73987 49.6375 8.69494 48.9522 8.52188 48.2938Z" fill="#353030"/>
</g>
<defs>
<clipPath id="clip0_1_386">
<rect width="60" height="60" fill="white"/>
</clipPath>
</defs>
</svg>
