<svg width="60" height="60" viewBox="0 0 60 60" fill="none" xmlns="http://www.w3.org/2000/svg">
<g clip-path="url(#clip0_1_422)">
<path d="M60.0033 42.6338C59.8627 34.8057 58.938 26.8897 57.4216 18.8998C56.1865 13.3486 51.7427 8.4045 44.6423 8.04239C39.4006 7.82677 38.3869 10.8127 32.4478 10.7553C30.8213 10.7447 29.1959 10.7447 27.5693 10.7553C21.6291 10.8127 20.6131 7.82677 15.3736 8.04239C8.27204 8.4045 3.69 13.3358 2.58961 18.8998C1.07204 26.8897 0.147426 34.8045 0.00797268 42.6326C-0.0260117 48.083 5.35524 51.7088 8.90602 51.9572C15.765 52.4752 21.2142 40.3803 25.3662 40.3791C28.4611 40.3967 31.5548 40.3979 34.6498 40.3791C38.8029 40.3791 44.2474 52.4764 51.1111 51.9584C54.6607 51.71 60.1814 48.0596 60.0045 42.6338H60.0033ZM22.3791 27.3596H19.1798V30.5588C19.1798 31.9088 18.0853 33.0033 16.7353 33.0033C15.3853 33.0033 14.2908 31.9088 14.2908 30.5588V27.3596H11.0916C9.74157 27.3596 8.64704 26.2651 8.64704 24.9151C8.64704 23.5651 9.74157 22.4705 11.0916 22.4705H14.2908V19.2713C14.2908 17.9213 15.3853 16.8268 16.7353 16.8268C18.0853 16.8268 19.1798 17.9213 19.1798 19.2713V22.4705H22.3791C23.7291 22.4705 24.8236 23.5651 24.8236 24.9151C24.8236 26.2651 23.7291 27.3596 22.3791 27.3596ZM42.1334 33.0022C40.2197 33.0537 38.6283 31.542 38.5767 29.6295C38.5263 27.71 40.0392 26.1162 41.9517 26.067C43.8666 26.019 45.4603 27.5295 45.5095 29.4443C45.5576 31.3592 44.047 32.9529 42.1334 33.0022ZM47.9049 23.7619C45.9912 23.8158 44.3963 22.3029 44.3435 20.3893C44.2955 18.4721 45.806 16.8807 47.7209 16.8279C49.6381 16.7776 51.2295 18.2904 51.281 20.2053C51.3314 22.119 49.8173 23.7139 47.9049 23.7619Z" fill="#353030"/>
</g>
<defs>
<clipPath id="clip0_1_422">
<rect width="60" height="60" fill="white"/>
</clipPath>
</defs>
</svg>
