<svg width="60" height="60" viewBox="0 0 60 60" fill="none" xmlns="http://www.w3.org/2000/svg">
<g clip-path="url(#clip0_1_398)">
<path d="M15.131 26.1676L6.5449 11.2942C9.57391 7.49663 13.4796 4.49131 17.9264 2.53652C22.3732 0.58173 27.2281 -0.264066 32.0739 0.0718123C36.9196 0.40769 41.6114 1.9152 45.746 4.46479C49.8807 7.01438 53.3345 10.5298 55.8107 14.709H31.3313C30.8913 14.671 30.4464 14.6504 29.9985 14.6504C26.5954 14.6545 23.2897 15.7873 20.5993 17.8715C17.9089 19.9556 15.9857 22.8733 15.131 26.1676ZM40.7374 19.0436H57.935C59.7052 23.5661 60.3516 28.4507 59.8188 33.2781C59.286 38.1055 57.59 42.7315 54.8762 46.7591C52.1624 50.7867 48.512 54.0957 44.2382 56.402C39.9643 58.7083 35.1948 59.9431 30.3388 60.0003L42.6085 38.747C44.676 35.7719 45.6225 32.1603 45.28 28.5535C44.9374 24.9466 43.328 21.5763 40.7374 19.0436ZM19.098 30.0019C19.098 27.8461 19.7372 25.7388 20.9348 23.9463C22.1324 22.1539 23.8345 20.7568 25.8261 19.9318C27.8176 19.1069 30.009 18.891 32.1231 19.3116C34.2373 19.7322 36.1793 20.7703 37.7035 22.2946C39.2278 23.819 40.2658 25.7611 40.6863 27.8755C41.1069 29.9898 40.891 32.1814 40.0661 34.173C39.2412 36.1647 37.8443 37.867 36.052 39.0647C34.2597 40.2624 32.1525 40.9016 29.9969 40.9016C27.1079 40.8979 24.3383 39.7485 22.2955 37.7055C20.2527 35.6625 19.1034 32.8927 19.0996 30.0035L19.098 30.0019ZM34.1095 44.8024L25.5202 59.6837C20.716 58.9582 16.1599 57.0769 12.2433 54.2016C8.32665 51.3263 5.16668 47.543 3.03493 43.1767C0.903174 38.8104 -0.136612 33.9917 0.00492528 29.1348C0.146463 24.2778 1.46509 19.5279 3.84749 15.2932L16.0967 36.5069C17.6339 39.7961 20.2868 42.4341 23.5844 43.9528C26.882 45.4714 30.611 45.7724 34.1095 44.8024Z" fill="#353030"/>
</g>
<defs>
<clipPath id="clip0_1_398">
<rect width="60" height="60" fill="white"/>
</clipPath>
</defs>
</svg>
