<svg width="190" height="865" viewBox="0 0 190 865" fill="none" xmlns="http://www.w3.org/2000/svg">
<g opacity="0.4">
<mask id="mask0_1_5" style="mask-type:alpha" maskUnits="userSpaceOnUse" x="0" y="0" width="190" height="892">
<rect y="892" width="892" height="190" transform="rotate(-90 0 892)" fill="#D9D9D9"/>
</mask>
<g mask="url(#mask0_1_5)">
<path d="M-22.4004 995.536L192.051 566.615" stroke="#82E97E" stroke-width="3"/>
<path d="M-22.4004 1039.34L192.051 610.418" stroke="#82E97E" stroke-width="3"/>
<path d="M-22.4004 1083.14L192.051 654.222" stroke="#82E97E" stroke-width="3"/>
<path d="M-22.4004 1126.95L192.051 698.025" stroke="#82E97E" stroke-width="3"/>
<path d="M-22.4004 1170.75L192.051 741.829" stroke="#82E97E" stroke-width="3"/>
<path d="M-22.4004 1214.55L192.051 785.633" stroke="#82E97E" stroke-width="3"/>
<path d="M-22.4004 1258.36L192.051 829.436" stroke="#82E97E" stroke-width="3"/>
<path d="M-22.4004 426.09L192.051 -2.83114" stroke="#82E97E" stroke-width="3"/>
<path d="M-22.4004 382.286L192.051 -46.6347" stroke="#82E97E" stroke-width="3"/>
<path d="M-22.4004 338.483L192.051 -90.4383" stroke="#82E97E" stroke-width="3"/>
<path d="M-22.4004 294.679L192.051 -134.242" stroke="#82E97E" stroke-width="3"/>
<path d="M-22.4004 250.876L192.051 -178.045" stroke="#82E97E" stroke-width="3"/>
<path d="M-22.4004 207.072L192.051 -221.849" stroke="#82E97E" stroke-width="3"/>
<path d="M-22.4004 951.732L192.051 522.811" stroke="#82E97E" stroke-width="3"/>
<path d="M-22.4004 907.929L192.051 479.008" stroke="#82E97E" stroke-width="3"/>
<path d="M-22.4004 864.125L192.051 435.204" stroke="#82E97E" stroke-width="3"/>
<path d="M-22.4004 820.322L192.051 391.401" stroke="#82E97E" stroke-width="3"/>
<path d="M-22.4004 776.518L192.051 347.597" stroke="#82E97E" stroke-width="3"/>
<path d="M-22.4004 732.715L192.051 303.794" stroke="#82E97E" stroke-width="3"/>
<path d="M-22.4004 688.911L192.051 259.99" stroke="#82E97E" stroke-width="3"/>
<path d="M-22.4004 645.107L192.051 216.186" stroke="#82E97E" stroke-width="3"/>
<path d="M-22.4004 601.303L192.051 172.382" stroke="#82E97E" stroke-width="3"/>
<path d="M-22.4004 557.5L192.051 128.579" stroke="#82E97E" stroke-width="3"/>
<path d="M-22.4004 513.696L192.051 84.7751" stroke="#82E97E" stroke-width="3"/>
<path d="M-22.4004 469.892L192.051 40.9714" stroke="#82E97E" stroke-width="3"/>
<path d="M-22.4004 163.268L192.051 -265.653" stroke="#82E97E" stroke-width="3"/>
<path d="M-33.0742 119.464L181.378 -309.457" stroke="#82E97E" stroke-width="3"/>
<path d="M-33.0742 75.6611L181.378 -353.26" stroke="#82E97E" stroke-width="3"/>
<path d="M-33.0742 31.8569L181.378 -397.064" stroke="#82E97E" stroke-width="3"/>
</g>
</g>
</svg>
