<svg width="24" height="20" viewBox="0 0 24 20" fill="none" xmlns="http://www.w3.org/2000/svg">
<path d="M24 2.36749C23.1177 2.76965 22.1682 3.04092 21.1719 3.16231C22.1891 2.53784 22.9691 1.54868 23.3369 0.368687C22.3855 0.947694 21.3322 1.36784 20.2102 1.59464C19.3123 0.613478 18.0325 0 16.6163 0C13.8973 0 11.6928 2.26058 11.6928 5.04921C11.6928 5.44437 11.7362 5.82954 11.8205 6.19973C7.72815 5.98891 4.09963 3.97912 1.67103 0.924214C1.24718 1.66958 1.00457 2.53684 1.00457 3.46306C1.00457 5.21457 1.8737 6.76025 3.19493 7.66548C2.38816 7.63901 1.62865 7.4117 0.964618 7.03352C0.964131 7.0545 0.964131 7.07599 0.964131 7.09747C0.964131 9.54339 2.66147 11.5837 4.9142 12.0483C4.50107 12.1632 4.06601 12.2251 3.61683 12.2251C3.29919 12.2251 2.9908 12.1936 2.69021 12.1342C3.31722 14.14 5.13538 15.6002 7.28969 15.6407C5.60453 16.9951 3.48188 17.8024 1.17459 17.8024C0.777541 17.8024 0.38536 17.7784 0 17.7314C2.17965 19.1647 4.76755 20 7.5479 20C16.6051 20 21.5573 12.3065 21.5573 5.63421C21.5573 5.4154 21.5529 5.19708 21.5436 4.98027C22.5053 4.26987 23.3404 3.38013 24 2.36749Z" fill="white"/>
</svg>
