<svg width="21" height="21" viewBox="0 0 21 21" fill="none" xmlns="http://www.w3.org/2000/svg">
<path fill-rule="evenodd" clip-rule="evenodd" d="M10.4599 20.9999L10.4693 21H10.466L10.4599 20.9999ZM10.534 21H10.5307L10.5401 20.9999L10.534 21ZM10.4278 20.9998L10.4379 20.9998H10.4321L10.4278 20.9998ZM10.5679 20.9998H10.5621L10.5722 20.9998L10.5679 20.9998ZM10.3969 20.9995L10.4037 20.9995L10.3982 20.9995H10.3969ZM10.6018 20.9995L10.5963 20.9995L10.6031 20.9995H10.6018ZM10.6356 20.9991L10.6333 20.9992L10.6424 20.9991L10.6356 20.9991ZM10.3576 20.9991L10.3667 20.9992L10.3644 20.9991L10.3576 20.9991ZM10.6695 20.9986L10.6639 20.9987L10.6752 20.9986L10.6695 20.9986ZM10.3248 20.9986L10.3361 20.9987L10.3305 20.9986L10.3248 20.9986ZM10.7033 20.9981L10.6958 20.9982L10.7062 20.998L10.7033 20.9981ZM10.2938 20.998L10.3042 20.9982L10.2967 20.9981L10.2938 20.998ZM10.2553 20.9972L10.2646 20.9974L10.2629 20.9974L10.2553 20.9972ZM10.7371 20.9974L10.7354 20.9974L10.7447 20.9972L10.7371 20.9974ZM10.2216 20.9963L10.2343 20.9967L10.2292 20.9966L10.2216 20.9963ZM10.7708 20.9966L10.7657 20.9967L10.7784 20.9963L10.7708 20.9966ZM10.8046 20.9957L10.7963 20.9959L10.8093 20.9955L10.8046 20.9957ZM10.1907 20.9955L10.2037 20.9959L10.1954 20.9957L10.1907 20.9955ZM10.1612 20.9946L10.1704 20.9949L10.1617 20.9946L10.1537 20.9944L10.1612 20.9946ZM10.8383 20.9946L10.8296 20.9949L10.8388 20.9946L10.8463 20.9944L10.8383 20.9946ZM10.872 20.9935L10.8674 20.9937L10.8815 20.9932L10.872 20.9935ZM10.1185 20.9932L10.1326 20.9937L10.128 20.9935L10.1185 20.9932ZM10.0878 20.992L10.1026 20.9926L10.0944 20.9923L10.0878 20.992ZM10.9056 20.9923L10.8974 20.9926L10.9122 20.992L10.9056 20.9923ZM10.0576 20.9908L10.0721 20.9914L10.0608 20.991L10.0576 20.9908ZM10.9392 20.991L10.9279 20.9914L10.9424 20.9908L10.9392 20.991ZM10.0154 20.989L10.0309 20.9897L10.0271 20.9895L10.0154 20.989ZM10.9729 20.9895L10.9691 20.9897L10.9846 20.989L10.9729 20.9895ZM9.98505 20.9876L10.0012 20.9883L9.99358 20.988L9.98505 20.9876ZM11.0064 20.988L10.9988 20.9883L11.015 20.9876L11.0064 20.988ZM9.95519 20.9861L9.97147 20.9869L9.96003 20.9863L9.95519 20.9861ZM11.04 20.9863L11.0285 20.9869L11.0448 20.9861L11.04 20.9863ZM11.0735 20.9846L11.0587 20.9854L11.0718 20.9847L11.0873 20.9838L11.0735 20.9846ZM9.92816 20.9847L9.94133 20.9854L9.92648 20.9846L9.91266 20.9838L9.92816 20.9847ZM11.107 20.9827L11.1004 20.9831L11.1171 20.9821L11.107 20.9827ZM9.88292 20.9821L9.89957 20.9831L9.89301 20.9827L9.88292 20.9821ZM9.85331 20.9804L9.86992 20.9813L9.85954 20.9808L9.85331 20.9804ZM11.1405 20.9808L11.1301 20.9813L11.1467 20.9804L11.1405 20.9808ZM9.82505 20.9786L9.84002 20.9795L9.82607 20.9787L9.81205 20.9778L9.82505 20.9786ZM11.1739 20.9787L11.16 20.9795L11.175 20.9786L11.188 20.9778L11.1739 20.9787ZM11.2073 20.9765L11.2023 20.9768L11.2182 20.9758L11.2073 20.9765ZM9.78182 20.9758L9.79769 20.9768L9.79269 20.9765L9.78182 20.9758ZM9.75224 20.9737L9.76783 20.9748L9.7593 20.9742L9.75224 20.9737ZM11.2407 20.9742L11.2322 20.9748L11.2478 20.9737L11.2407 20.9742ZM9.72275 20.9716L9.73707 20.9726L9.72595 20.9719L9.72275 20.9716ZM11.274 20.9719L11.2629 20.9726L11.2772 20.9716L11.274 20.9719ZM9.68309 20.9686L9.69564 20.9696L9.69261 20.9694L9.68309 20.9686ZM11.3074 20.9694L11.3044 20.9696L11.3169 20.9686L11.3074 20.9694ZM11.3407 20.9668L11.3347 20.9672L11.3474 20.9662L11.3407 20.9668ZM9.65258 20.9662L9.66533 20.9672L9.65934 20.9668L9.65258 20.9662ZM9.62284 20.9638L9.63367 20.9647L9.62604 20.9641L9.62284 20.9638ZM11.374 20.9641L11.3663 20.9647L11.3772 20.9638L11.374 20.9641ZM9.59011 20.961L9.59335 20.9613L9.59282 20.9613L9.59011 20.961ZM11.4072 20.9613L11.4067 20.9613L11.4099 20.961L11.4072 20.9613ZM11.4404 20.9584L11.4375 20.9586L11.4449 20.958L11.4404 20.9584ZM9.55512 20.958L9.56255 20.9586L9.55959 20.9584L9.55512 20.958ZM9.52436 20.9552L9.5299 20.9557L9.52645 20.9554L9.52436 20.9552ZM11.4735 20.9554L11.4701 20.9557L11.4756 20.9552L11.4735 20.9554ZM8.85938 20.8723C3.84238 20.0838 0 15.737 0 10.5C0 4.7049 4.7049 0 10.5 0C16.2951 0 21 4.7049 21 10.5C21 15.737 17.1576 20.0838 12.1406 20.8723V13.5352H14.5872L15.0527 10.5H12.1406V8.53039C12.1406 7.70003 12.5474 6.89062 13.8518 6.89062H15.1758V4.30664C15.1758 4.30664 13.9742 4.10156 12.8254 4.10156C10.427 4.10156 8.85938 5.55516 8.85938 8.18672V10.5H6.19336V13.5352H8.85938V20.8723Z" fill="white"/>
</svg>
