<svg width="21" height="21" viewBox="0 0 21 21" fill="none" xmlns="http://www.w3.org/2000/svg">
<path d="M16.8844 5.911C16.8844 6.06121 16.8548 6.20996 16.7973 6.34873C16.7399 6.48752 16.6555 6.61362 16.5494 6.71984C16.4432 6.82606 16.3171 6.91031 16.1782 6.9678C16.0395 7.02529 15.8908 7.05488 15.7406 7.05488C15.5903 7.05488 15.4416 7.02529 15.3028 6.9678C15.164 6.91031 15.0379 6.82606 14.9317 6.71984C14.8254 6.61362 14.7412 6.48752 14.6838 6.34873C14.6262 6.20996 14.5967 6.06121 14.5967 5.911C14.5967 5.60762 14.7171 5.31667 14.9317 5.10215C15.1463 4.88763 15.4372 4.76711 15.7406 4.76711C16.0439 4.76711 16.3349 4.88763 16.5494 5.10215C16.7639 5.31667 16.8844 5.60762 16.8844 5.911ZM20.5162 11.0745V11.0893L20.4507 15.235C20.4341 16.7301 19.8327 18.1593 18.7755 19.2166C17.7185 20.274 16.2894 20.8756 14.7943 20.8927L10.6338 20.9569H10.619L6.47335 20.8914C4.97824 20.8747 3.54905 20.2734 2.49168 19.2164C1.43429 18.1592 0.832716 16.7301 0.8157 15.235L0.751465 11.0745V11.0597L0.816935 6.91405C0.833624 5.41894 1.43488 3.98975 2.49204 2.93238C3.54919 1.87499 4.97824 1.27342 6.47335 1.25641L10.6338 1.19217H10.6486L14.7943 1.25764C16.2894 1.27433 17.7186 1.87559 18.7759 2.93274C19.8333 3.98989 20.4349 5.41894 20.452 6.91405L20.5162 11.0745ZM18.6756 11.0745L18.6114 6.94247C18.5998 5.92616 18.1909 4.95475 17.4723 4.23607C16.7536 3.5174 15.7822 3.10855 14.7659 3.097L10.6338 3.03276L6.50176 3.097C5.48546 3.10855 4.51405 3.5174 3.79537 4.23607C3.0767 4.95475 2.66784 5.92616 2.65629 6.94247L2.59206 11.0745L2.65629 15.2066C2.66784 16.2229 3.0767 17.1943 3.79537 17.913C4.51405 18.6317 5.48546 19.0405 6.50176 19.0521L10.6338 19.1163L14.7659 19.0521C15.7822 19.0405 16.7536 18.6317 17.4723 17.913C18.1909 17.1943 18.5998 16.2229 18.6114 15.2066L18.6756 11.0745ZM15.7084 11.0745C15.7084 12.4204 15.1738 13.7111 14.2221 14.6628C13.2705 15.6145 11.9797 16.1491 10.6338 16.1491C9.28796 16.1491 7.99721 15.6145 7.04554 14.6628C6.09387 13.7111 5.55923 12.4204 5.55923 11.0745C5.55923 9.72866 6.09387 8.43791 7.04554 7.48624C7.99721 6.53457 9.28796 5.99994 10.6338 5.99994C11.9797 5.99994 13.2705 6.53457 14.2221 7.48624C15.1738 8.43791 15.7084 9.72866 15.7084 11.0745ZM13.8678 11.0745C13.8678 10.2168 13.5272 9.39423 12.9206 8.78774C12.3141 8.18124 11.4915 7.84052 10.6338 7.84052C9.77611 7.84052 8.95353 8.18124 8.34703 8.78774C7.74054 9.39423 7.39982 10.2168 7.39982 11.0745C7.39982 11.9322 7.74054 12.7548 8.34703 13.3613C8.95353 13.9678 9.77611 14.3085 10.6338 14.3085C11.4915 14.3085 12.3141 13.9678 12.9206 13.3613C13.5272 12.7548 13.8678 11.9322 13.8678 11.0745Z" fill="white"/>
</svg>
