<svg width="1671" height="530" viewBox="0 0 1671 530" fill="none" xmlns="http://www.w3.org/2000/svg">
<g opacity="0.2">
<path d="M1669.22 340.04L1660.05 337.783C1659.5 336.043 1658.79 334.357 1657.93 332.743C1659.31 330.45 1662.2 325.622 1662.2 325.622C1662.76 324.7 1662.61 323.519 1661.85 322.759L1655.22 316.131C1654.46 315.369 1653.28 315.222 1652.36 315.778L1645.23 320.052C1643.62 319.202 1641.95 318.5 1640.22 317.953L1637.96 308.776C1637.7 307.733 1636.76 307 1635.69 307H1626.31C1625.24 307 1624.3 307.732 1624.04 308.776C1624.04 308.776 1622.48 315.181 1621.79 317.95C1619.94 318.534 1618.16 319.292 1616.47 320.216L1609.07 315.778C1608.15 315.229 1606.97 315.371 1606.21 316.131L1599.58 322.759C1598.82 323.519 1598.67 324.7 1599.23 325.622L1603.8 333.26C1603.06 334.714 1602.44 336.227 1601.95 337.776L1592.78 340.04C1591.73 340.301 1591 341.237 1591 342.312V351.688C1591 352.763 1591.73 353.702 1592.78 353.96L1601.95 356.217C1602.51 357.982 1603.23 359.696 1604.11 361.342L1600.02 368.162C1599.46 369.085 1599.61 370.266 1600.37 371.026L1607 377.654C1607.76 378.412 1608.94 378.556 1609.86 378.007C1609.86 378.007 1614.45 375.255 1616.7 373.91C1618.33 374.777 1620.03 375.493 1621.79 376.05L1624.04 385.224C1624.3 386.268 1625.24 387 1626.31 387H1635.69C1636.76 387 1637.7 386.267 1637.96 385.224L1640.21 376.05C1642.02 375.477 1643.76 374.738 1645.42 373.841C1647.72 375.226 1652.36 378.007 1652.36 378.007C1653.28 378.558 1654.46 378.416 1655.22 377.654L1661.85 371.026C1662.61 370.266 1662.76 369.085 1662.2 368.162L1657.99 361.142C1658.82 359.565 1659.51 357.915 1660.05 356.217L1669.22 353.96C1670.27 353.699 1671 352.763 1671 351.688V342.312C1671 341.237 1670.27 340.301 1669.22 340.04ZM1631 363.406C1621.95 363.406 1614.59 356.045 1614.59 347C1614.59 337.955 1621.95 330.594 1631 330.594C1640.05 330.594 1647.41 337.955 1647.41 347C1647.41 356.045 1640.05 363.406 1631 363.406Z" fill="white"/>
<path d="M1590.96 162.165L1570.08 157.031C1568.83 153.074 1567.21 149.236 1565.27 145.565C1568.4 140.348 1574.99 129.366 1574.99 129.366C1576.25 127.268 1575.91 124.581 1574.19 122.852L1559.11 107.773C1557.38 106.039 1554.7 105.705 1552.59 106.971L1536.37 116.692C1532.72 114.76 1528.9 113.162 1524.97 111.917L1519.84 91.041C1519.24 88.6664 1517.11 87 1514.66 87H1493.34C1490.89 87 1488.75 88.6664 1488.17 91.0406C1488.17 91.0406 1484.61 105.611 1483.04 111.912C1478.84 113.24 1474.79 114.963 1470.94 117.067L1454.11 106.971C1452.01 105.721 1449.33 106.044 1447.6 107.773L1432.52 122.852C1430.79 124.581 1430.46 127.268 1431.72 129.366L1442.12 146.742C1440.44 150.049 1439.04 153.49 1437.92 157.016L1417.04 162.165C1414.67 162.759 1413 164.889 1413 167.336V188.664C1413 191.111 1414.67 193.246 1417.04 193.835L1437.92 198.969C1439.19 202.983 1440.83 206.884 1442.83 210.627L1433.52 226.144C1432.26 228.243 1432.59 230.93 1434.32 232.658L1449.4 247.738C1451.12 249.462 1453.81 249.789 1455.91 248.54C1455.91 248.54 1466.35 242.281 1471.47 239.219C1475.17 241.193 1479.04 242.823 1483.04 244.088L1488.17 264.959C1488.75 267.334 1490.89 269 1493.34 269H1514.66C1517.11 269 1519.24 267.334 1519.83 264.959L1524.96 244.088C1529.07 242.786 1533.03 241.104 1536.79 239.063C1542.05 242.213 1552.59 248.54 1552.59 248.54C1554.69 249.795 1557.38 249.472 1559.11 247.738L1574.19 232.658C1575.91 230.93 1576.25 228.243 1574.99 226.144L1565.4 210.174C1567.29 206.586 1568.86 202.832 1570.08 198.969L1590.96 193.835C1593.33 193.241 1595 191.111 1595 188.664V167.336C1595 164.889 1593.33 162.759 1590.96 162.165ZM1504 215.324C1483.42 215.324 1466.68 198.578 1466.68 178C1466.68 157.422 1483.42 140.676 1504 140.676C1524.58 140.676 1541.32 157.422 1541.32 178C1541.32 198.578 1524.58 215.324 1504 215.324Z" fill="white"/>
<path d="M1589.36 486.562L1580.87 484.474C1580.36 482.865 1579.7 481.305 1578.91 479.812C1580.19 477.691 1582.86 473.226 1582.86 473.226C1583.38 472.373 1583.24 471.28 1582.54 470.577L1576.41 464.446C1575.7 463.741 1574.61 463.606 1573.76 464.12L1567.16 468.073C1565.68 467.287 1564.12 466.637 1562.53 466.131L1560.44 457.643C1560.2 456.678 1559.33 456 1558.34 456H1549.66C1548.67 456 1547.8 456.678 1547.56 457.643C1547.56 457.643 1546.12 463.567 1545.48 466.129C1543.77 466.669 1542.12 467.37 1540.56 468.225L1533.72 464.12C1532.86 463.612 1531.77 463.743 1531.07 464.446L1524.94 470.577C1524.23 471.28 1524.1 472.373 1524.61 473.226L1528.84 480.291C1528.16 481.635 1527.59 483.035 1527.13 484.468L1518.64 486.562C1517.68 486.803 1517 487.669 1517 488.664V497.336C1517 498.331 1517.68 499.199 1518.64 499.438L1527.13 501.526C1527.65 503.158 1528.32 504.744 1529.13 506.266L1525.34 512.575C1524.83 513.428 1524.97 514.521 1525.67 515.224L1531.8 521.355C1532.5 522.056 1533.59 522.189 1534.45 521.681C1534.45 521.681 1538.69 519.136 1540.77 517.891C1542.28 518.694 1543.85 519.356 1545.48 519.871L1547.56 528.357C1547.8 529.323 1548.67 530 1549.66 530H1558.34C1559.33 530 1560.2 529.322 1560.44 528.357L1562.52 519.871C1564.19 519.342 1565.8 518.658 1567.33 517.828C1569.47 519.109 1573.76 521.681 1573.76 521.681C1574.61 522.191 1575.7 522.06 1576.41 521.355L1582.54 515.224C1583.24 514.521 1583.38 513.428 1582.86 512.575L1578.97 506.082C1579.73 504.623 1580.37 503.097 1580.87 501.526L1589.36 499.438C1590.32 499.197 1591 498.331 1591 497.336V488.664C1591 487.669 1590.32 486.803 1589.36 486.562ZM1554 508.176C1545.63 508.176 1538.82 501.367 1538.82 493C1538.82 484.633 1545.63 477.824 1554 477.824C1562.37 477.824 1569.18 484.633 1569.18 493C1569.18 501.367 1562.37 508.176 1554 508.176Z" fill="white"/>
<path d="M142.357 30.5617L133.869 28.4742C133.359 26.8652 132.702 25.3048 131.911 23.8122C133.185 21.6908 135.863 17.2258 135.863 17.2258C136.376 16.3726 136.24 15.2801 135.537 14.5773L129.406 8.44597C128.703 7.74095 127.613 7.60552 126.757 8.11991L120.16 12.0727C118.676 11.2872 117.124 10.6372 115.526 10.1312L113.438 1.64303C113.197 0.677563 112.331 0 111.336 0H102.664C101.669 0 100.801 0.677562 100.562 1.64289C100.562 1.64289 99.1157 7.56722 98.4763 10.129C96.772 10.6689 95.1249 11.3697 93.556 12.225L86.7155 8.11991C85.8601 7.61174 84.772 7.74312 84.0669 8.44597L77.9356 14.5773C77.2328 15.2801 77.0972 16.3726 77.6096 17.2258L81.8397 24.2908C81.158 25.6352 80.5863 27.0346 80.1312 28.4679L71.643 30.5617C70.6776 30.8031 70 31.669 70 32.6641V41.3359C70 42.331 70.6776 43.1991 71.6429 43.4383L80.1332 45.5258C80.6478 47.1581 81.3167 48.7439 82.1276 50.2661L78.3422 56.5752C77.8298 57.4283 77.9654 58.5208 78.6683 59.2237L84.7996 65.355C85.5004 66.0558 86.5928 66.1891 87.4481 65.6811C87.4481 65.6811 91.693 63.1363 93.7721 61.8913C95.2774 62.6938 96.8525 63.3564 98.4764 63.8708L100.562 72.357C100.801 73.3226 101.669 74 102.664 74H111.336C112.331 74 113.197 73.3224 113.438 72.3571L115.524 63.871C117.194 63.3417 118.803 62.6578 120.334 61.8279C122.47 63.1087 126.757 65.6811 126.757 65.6811C127.61 66.1913 128.703 66.06 129.406 65.355L135.537 59.2237C136.24 58.5208 136.376 57.4283 135.863 56.5752L131.965 50.0818C132.734 48.6231 133.371 47.0967 133.869 45.5258L142.357 43.4383C143.323 43.1969 144 42.331 144 41.3359V32.6641C144 31.669 143.323 30.8031 142.357 30.5617ZM107 52.1758C98.6329 52.1758 91.8242 45.3671 91.8242 37C91.8242 28.6329 98.6329 21.8242 107 21.8242C115.367 21.8242 122.176 28.6329 122.176 37C122.176 45.3671 115.367 52.1758 107 52.1758Z" fill="white"/>
<path d="M37.1564 174.306L32.7976 175.378C32.5356 176.204 32.1985 177.006 31.7919 177.772C32.4464 178.861 33.8217 181.154 33.8217 181.154C34.0848 181.592 34.0152 182.153 33.6543 182.514L30.5058 185.663C30.1448 186.025 29.5849 186.094 29.1457 185.83L25.758 183.801C24.9958 184.204 24.1989 184.538 23.3782 184.797L22.3062 189.156C22.1822 189.652 21.7376 190 21.2266 190H16.7734C16.2624 190 15.8167 189.652 15.6939 189.156C15.6939 189.156 14.9513 186.114 14.6229 184.799C13.7478 184.521 12.902 184.162 12.0963 183.722L8.58362 185.83C8.14439 186.091 7.5856 186.024 7.22356 185.663L4.07505 182.514C3.71413 182.153 3.64451 181.592 3.90762 181.154L6.07985 177.526C5.72976 176.836 5.43623 176.117 5.20251 175.381L0.843719 174.306C0.347938 174.182 0 173.738 0 173.227V168.773C0 168.262 0.347937 167.817 0.843645 167.694L5.20355 166.622C5.46777 165.784 5.81125 164.969 6.2277 164.188L4.28383 160.948C4.02073 160.51 4.09034 159.949 4.45127 159.588L7.59978 156.439C7.95966 156.079 8.52061 156.011 8.95984 156.272C8.95984 156.272 11.1396 157.579 12.2073 158.218C12.9803 157.806 13.7891 157.466 14.623 157.201L15.6939 152.844C15.8167 152.348 16.2624 152 16.7734 152H21.2266C21.7376 152 22.1822 152.348 22.3061 152.844L23.3771 157.201C24.2349 157.473 25.0611 157.824 25.8471 158.251C26.9441 157.593 29.1456 156.272 29.1456 156.272C29.5837 156.01 30.1448 156.077 30.5057 156.439L33.6542 159.588C34.0151 159.949 34.0847 160.51 33.8216 160.948L31.8201 164.282C32.2147 165.031 32.542 165.815 32.7975 166.622L37.1563 167.694C37.6521 167.818 38 168.262 38 168.773V173.227C38 173.738 37.6521 174.182 37.1564 174.306ZM19 163.207C14.7034 163.207 11.207 166.703 11.207 171C11.207 175.297 14.7034 178.793 19 178.793C23.2966 178.793 26.793 175.297 26.793 171C26.793 166.703 23.2966 163.207 19 163.207Z" fill="white"/>
</g>
</svg>
