<svg width="48" height="40" viewBox="0 0 48 40" fill="none" xmlns="http://www.w3.org/2000/svg">
<path d="M12.4781 39.3C7.0875 39.3 3.64687 36.2719 3.64687 32.0625C3.64687 30.675 4.05937 28.9875 5.65312 25.5469H0L5.18437 14.4562H41.2781C42.1031 14.4562 42.6656 13.8375 42.6656 13.125C42.6656 12.4031 42.1031 11.7937 41.2781 11.7937H12.0656L14.6344 6.3C16.2281 2.91562 19.6688 0.703125 23.4094 0.703125H35.6812C42.7687 0.703125 48 5.57812 48 11.9438C48 19.4906 41.0719 25.5469 33.0656 25.5469H9.34688C8.625 27.0375 9.45 28.2188 11.1937 28.2188H30.0844C33.2156 28.2188 35.625 30.4219 35.625 33.2531C35.625 36.4875 32.4937 39.3094 28.95 39.3094H12.4781V39.3Z" fill="#353030"/>
</svg>
