<svg xmlns="http://www.w3.org/2000/svg" xmlns:xlink="http://www.w3.org/1999/xlink" width="316" height="244" fill="none">
  <g filter="url(#a)">
    <g clip-path="url(#b)">
      <path fill="url(#c)" fill-rule="evenodd" d="M201.214 128.643c-.342.287-5.858 4.779-6.667 5.444-.071.054-.287.234-.808.234-.431 0-7.331 0-7.762-.126-.306-.09-.863-.377-1.096-1.114-.234-.737-1.689-11.068-1.725-11.446-.054-.359-1.617-12.182-1.617-12.182s-.108-.791.395-1.348 6.163-5.57 6.307-5.696c.251-.233.664-.682 1.365-.754.665-.072 4.906 4.348 4.906 4.348l6.738 19.352s.772.754.611 2.354c-.018.143-.036.359-.378.718-.072.072-.161.144-.251.234l-.018-.018Z" clip-rule="evenodd"/>
      <path fill="url(#d)" fill-rule="evenodd" d="M201.214 128.643c-.324.269-5.588 4.563-6.595 5.39-.107.09-.395.287-.916.305-.377 0-5.84 0-7.349-.089-.198 0-.323-.018-.359-.036-.306-.09-.863-.378-1.096-1.114-.234-.737-1.689-11.069-1.725-11.446-.054-.359-1.617-12.183-1.617-12.183s-.108-.79.395-1.347c.503-.557 6.163-5.57 6.307-5.696.251-.234.665-.683 1.365-.755.665-.072 4.906 4.349 4.906 4.349l6.738 19.351s.772.755.611 2.354c-.018.144-.036.36-.378.719-.072.072-.161.144-.251.233l-.036-.035Z" clip-rule="evenodd"/>
      <path fill="url(#e)" fill-rule="evenodd" d="m201.609 126.684 5.821.054h.054s4.151-3.521 7.134-5.767c.557-.414-.126-.234-.431-.252-.144 0-10.314-.18-11.267 0-.952.162-1.599.737-1.796 1.581-.198.845.467 4.402.467 4.402l.018-.018Z" clip-rule="evenodd"/>
      <path fill="url(#f)" fill-rule="evenodd" d="M214.996 120.575s-4.816 3.702-5.822 4.654c-1.006.952-6.54 5.498-9.739 10.116-2.641 3.809-4.6 7.852-5.696 12.111-1.185 4.582-1.401 9.271-1.401 9.81 0 .396.018 2.408 1.905 2.408 2.174 0 20.16.018 20.375.018.737 0 1.725-.09 2.372-.503.701-.503 6.487-4.744 6.846-5.067.162-.144.377-.377.431-.629.234-1.096-.664-2.893-.664-2.893l-8.607-30.007v-.018Z" clip-rule="evenodd"/>
      <path fill="url(#g)" fill-rule="evenodd" d="M188.384 105.015s-.179-1.42-.125-1.905c.054-.377.251-1.024.88-1.33.162-.071.234-.143.988-.143 4.331.036 41.219 1.257 41.219 1.257s1.671 0 3.091 1.168c1.419 1.168 1.563 3.073 1.581 3.54 0 .467-.108 1.456-1.06 3.666-.809 1.779-4.205 9.469-5.642 15.057-1.384 4.672-3.162 10.691-4.043 18.777-.575 5.282-.593 5.642-.755 7.564 0 .144-.035.306-.071.45-.216.826-.683 1.168-1.114 1.257-.486.108-1.025.108-1.384.108-.341 0-18.256-.018-18.561-.018-1.509 0-2.102 0-2.372-.054-.18-.018-1.491-.305-1.617-1.976-.108-1.402.359-6.523 1.042-9.595.97-4.474 2.552-7.762 4.133-10.314 1.886-3.037 4.869-6.828 8.337-10.062.539-.503 1.276-1.15 1.276-1.15s.467-.377.126-.395c-.288 0-9.739-.162-10.44-.108-.485.036-1.276.036-1.851.449-.269.18-.593.539-.629.97-.054.935.126 1.941.324 3.486.09.719.197 1.312.162 1.779-.018.323-.054.575-.252.755-.18.161-.395.179-.827.179h-.718c-2.372 0-6.433-.036-6.613-.036-.287 0-1.491.018-1.796-1.383-.306-1.402-3.289-21.975-3.289-21.975v-.018Z" clip-rule="evenodd"/>
      <path fill="url(#h)" fill-rule="evenodd" d="M188.384 105.015s-.179-1.42-.125-1.905c.054-.377.251-1.024.88-1.33.162-.071.234-.143.988-.143 4.331.036 41.219 1.257 41.219 1.257s1.671 0 3.091 1.168c1.419 1.168 1.563 3.073 1.581 3.54 0 .467-.108 1.456-1.06 3.666-.809 1.779-4.205 9.469-5.642 15.057-1.384 4.672-3.162 10.691-4.043 18.777-.575 5.426-.593 5.678-.773 7.726-.161 1.024-.7 1.42-1.167 1.527-.486.108-1.025.108-1.384.108-.341 0-18.256-.018-18.561-.018-1.509 0-2.102 0-2.372-.054-.18-.018-1.491-.305-1.617-1.976-.108-1.402.359-6.523 1.042-9.595.97-4.474 2.552-7.762 4.133-10.314 1.886-3.037 4.869-6.828 8.337-10.062.539-.503 1.276-1.15 1.276-1.15s.467-.377.126-.395c-.288 0-9.739-.162-10.44-.108-.485.036-1.276.036-1.851.449-.269.18-.593.539-.629.97-.054.935.126 1.941.324 3.486.09.719.197 1.312.162 1.779-.018.323-.054.575-.252.755-.18.161-.395.179-.827.179h-.718c-2.372 0-6.433-.036-6.613-.036-.287 0-1.491.018-1.796-1.383-.306-1.402-3.289-21.975-3.289-21.975Z" clip-rule="evenodd"/>
      <path fill="#FCD661" fill-rule="evenodd" d="M188.977 104.907s-.197-1.42-.125-1.905c.072-.413.287-1.006 1.024-1.257.126-.036.413-.108 1.312-.09 5.965.108 39.943 1.275 39.943 1.275s1.833-.036 3.27 1.132c1.42 1.168 1.563 3.019 1.581 3.486 0 .467-.036 1.42-.988 3.63-.809 1.779-4.187 9.343-5.642 14.931-1.384 4.672-3.234 10.853-4.115 18.939-.575 5.426-.593 5.444-.754 7.493-.126 1.509-1.959 1.419-2.3 1.419-.809 0-18.508.09-18.795.09-.377 0-1.42-.036-2.03-.036-.342 0-1.258-.341-1.312-1.527-.072-1.474.323-6.163.88-9.595v-.072c1.096-4.51 2.3-7.331 3.953-10.134 0-.018.018-.036.036-.054 2.156-3.163 5.013-7.008 8.338-9.972.485-.432 1.293-1.258 1.509-1.492.072-.072.126-.144.162-.215.071-.144.107-.36-.216-.36-.431 0-10.152-.215-10.853-.162-.575.036-1.545.09-2.12.881 0 .018-.036.036-.036.054-.216.323-.323.719-.323 1.096 0 .215 0 .413.035.647.072.862.216 1.832.324 2.659.09.683.126 1.078.126 1.366 0 .431 0 .682-.252.79-.18.09-.269.09-.647.09h-2.3c-.988 0-4.923-.054-4.923-.054s-1.15 0-1.437-1.312c-.306-1.401-3.343-21.759-3.343-21.759l.018.018Z" clip-rule="evenodd"/>
      <path fill="url(#i)" fill-rule="evenodd" d="M188.977 104.907s-.197-1.42-.125-1.905c.072-.413.287-1.006 1.024-1.257.126-.036.413-.108 1.312-.09 5.965.108 39.943 1.275 39.943 1.275s1.833-.036 3.27 1.132c1.42 1.168 1.563 3.019 1.581 3.486 0 .467-.036 1.42-.988 3.63-.809 1.779-4.187 9.343-5.642 14.931-1.384 4.672-3.234 10.853-4.115 18.939-.575 5.426-.593 5.444-.754 7.493-.126 1.509-1.959 1.419-2.3 1.419-.809 0-18.508.09-18.795.09-.377 0-1.384-.036-2.03-.036-.342 0-1.258-.341-1.312-1.527-.072-1.474.323-6.163.88-9.595v-.072c1.096-4.51 2.3-7.331 3.953-10.134 0-.018.018-.036.036-.054 2.156-3.163 5.013-7.008 8.338-9.972.485-.432 1.293-1.258 1.509-1.492.072-.072.126-.144.162-.215.071-.144.107-.36-.216-.36-.431 0-10.152-.215-10.853-.162-.575.036-1.545.09-2.12.881 0 .018-.036.036-.036.054-.216.323-.323.719-.323 1.096 0 .215 0 .413.035.647.072.862.216 1.832.324 2.659.09.683.126 1.078.126 1.366 0 .431 0 .682-.252.79-.18.09-.269.09-.647.09h-2.3c-.988 0-4.923-.054-4.923-.054s-1.15 0-1.437-1.312c-.306-1.401-3.343-21.759-3.343-21.759l.018.018Z" clip-rule="evenodd"/>
      <path fill="url(#j)" fill-rule="evenodd" d="M188.977 104.907s-.197-1.42-.125-1.905c.072-.413.287-1.006 1.024-1.257.126-.036.413-.108 1.312-.09 5.965.108 39.943 1.275 39.943 1.275s1.833-.036 3.27 1.132c1.42 1.168 1.563 3.019 1.581 3.486 0 .467-.036 1.42-.988 3.63-.809 1.779-4.187 9.343-5.642 14.931-1.384 4.672-3.234 10.853-4.115 18.939-.575 5.426-.593 5.444-.754 7.493-.126 1.509-1.959 1.419-2.3 1.419-.809 0-18.508.09-18.795.09-.377 0-1.402-.036-2.03-.036-.342 0-1.258-.341-1.312-1.527-.072-1.474.323-6.163.88-9.595v-.072c1.096-4.51 2.3-7.331 3.953-10.134 0-.018.018-.036.036-.054 2.156-3.163 5.013-7.008 8.338-9.972.485-.432 1.293-1.258 1.509-1.492.072-.072.126-.144.162-.215.071-.144.107-.36-.216-.36-.431 0-10.152-.215-10.853-.162-.575.036-1.545.09-2.12.881 0 .018-.036.036-.036.054-.216.323-.323.719-.323 1.096 0 .215 0 .413.035.647.072.862.216 1.832.324 2.659.09.683.126 1.078.126 1.366 0 .431 0 .682-.252.79-.18.09-.269.09-.647.09h-2.3c-.988 0-4.923-.054-4.923-.054s-1.15 0-1.437-1.312c-.306-1.401-3.343-21.759-3.343-21.759l.018.018Z" clip-rule="evenodd"/>
      <path fill="#F6C300" fill-rule="evenodd" d="M188.977 104.907s-.197-1.42-.125-1.905c.072-.413.287-1.006 1.024-1.257.126-.036.413-.108 1.312-.09 5.965.108 39.943 1.275 39.943 1.275s1.833-.036 3.27 1.132c1.42 1.168 1.563 3.019 1.581 3.486 0 .467-.036 1.42-.988 3.63-.809 1.779-4.187 9.343-5.642 14.931-1.384 4.672-3.234 10.853-4.115 18.939-.575 5.426-.593 5.444-.754 7.493-.126 1.509-1.959 1.419-2.3 1.419-.809 0-18.508.09-18.795.09-.341 0-1.294-.036-1.923-.036h-.107c-.342 0-1.258-.341-1.312-1.527-.072-1.474.323-6.163.88-9.595v-.072c1.096-4.51 2.3-7.331 3.953-10.134 0-.018.018-.036.036-.054 2.156-3.163 5.013-7.008 8.338-9.972.485-.432 1.293-1.258 1.509-1.492.072-.072.126-.144.162-.215.071-.144.107-.36-.216-.36-.431 0-10.152-.215-10.853-.162-.575.036-1.545.09-2.12.881 0 .018-.036.036-.036.054-.216.323-.323.719-.323 1.096 0 .215 0 .413.035.647.072.862.216 1.832.324 2.659.09.683.126 1.078.126 1.366 0 .431 0 .682-.252.79-.18.09-.269.09-.647.09h-2.3c-.988 0-4.923-.054-4.923-.054s-1.15 0-1.437-1.312c-.306-1.401-3.343-21.759-3.343-21.759l.018.018Z" clip-rule="evenodd" opacity=".55"/>
      <path fill="url(#k)" fill-rule="evenodd" d="M188.977 104.907s-.197-1.42-.125-1.905c.072-.413.287-1.006 1.024-1.257.126-.036.413-.108 1.312-.09 5.965.108 39.943 1.275 39.943 1.275s1.833-.036 3.27 1.132c1.42 1.168 1.563 3.019 1.581 3.486 0 .467-.036 1.42-.988 3.63-.809 1.779-4.187 9.343-5.642 14.931-1.384 4.672-3.234 10.853-4.115 18.939-.575 5.426-.593 5.444-.754 7.493-.126 1.509-1.959 1.419-2.3 1.419-.809 0-18.508.09-18.795.09-.341 0-1.294-.036-1.923-.036h-.107c-.342 0-1.258-.341-1.312-1.527-.072-1.474.323-6.163.88-9.595v-.072c1.096-4.51 2.3-7.331 3.953-10.134 0-.018.018-.036.036-.054 2.156-3.163 5.013-7.008 8.338-9.972.485-.432 1.293-1.258 1.509-1.492.072-.072.126-.144.162-.215.071-.144.107-.36-.216-.36-.431 0-10.152-.215-10.853-.162-.575.036-1.545.09-2.12.881 0 .018-.036.036-.036.054-.216.323-.323.719-.323 1.096 0 .215 0 .413.035.647.072.862.216 1.832.324 2.659.09.683.126 1.078.126 1.366 0 .431 0 .682-.252.79-.18.09-.269.09-.647.09h-2.3c-.988 0-4.923-.054-4.923-.054s-1.15 0-1.437-1.312c-.306-1.401-3.343-21.759-3.343-21.759l.018.018Z" clip-rule="evenodd" opacity=".55"/>
      <path fill="url(#l)" d="M200.171 119.299h20.2142v3.07256H200.171z"/>
      <path fill="url(#m)" d="M200.891 151.642h20.6994v2.64133H200.891z"/>
      <path fill="#C10B12" fill-rule="evenodd" d="M189.391 103.991c.036-.378.306-.97 1.276-1.06h1.096c6.415.125 36.997 1.15 38.236 1.186 1.24.036 2.462.089 3.271.521 1.491.808 1.491 1.976 1.491 2.479 0 .935-.198 1.51-.952 3.522-.557 1.455-1.456 3.27-2.839 6.774-.899 2.282-1.887 5.66-2.875 8.733-1.438 4.528-2.911 9.469-3.845 17.698-.521 4.78-.719 7.421-.737 7.619-.108 1.06-.647 1.06-1.869 1.06h-20.016c-.288 0-.809 0-.791-1.222.036-2.659.539-6.397 1.186-9.128 1.132-4.168 2.246-6.486 3.683-8.894 1.474-2.48 4.331-6.073 7.637-9.2 2.911-2.749 4.456-3.863 4.636-4.025.215-.197.215-.287.143-.359-.089-.09-.431-.108-.844-.108-.054 0-13.368-.233-13.925-.215-1.384 0-2.39.431-2.965 1.742-.27.629-.252 1.025-.144 2.031.036.449.198 1.365.252 1.994.036.378.072.827.072 1.222 0 .324-.054.827-.845.827l-5.696-.054c-.269 0-1.024.018-1.24-1.042-.287-1.312-3.198-20.412-3.198-20.412s-.27-1.222-.216-1.707l.018.018Z" clip-rule="evenodd"/>
      <path fill="url(#n)" fill-rule="evenodd" d="M218.033 120.09c.215-.198.215-.287.143-.359-.089-.09-.431-.108-.844-.108-.054 0-13.368-.234-13.925-.216-1.384 0-2.39.431-2.965 1.743-.198.467-.234.791-.216 1.33v.629c0 .233.018.359.018.359s-.126-.719-.144-1.006c-.018-.288-.215-1.743.09-2.642.306-.898 1.186-1.94 2.426-2.192.916-.197 1.869-.179 2.965-.179 0 0 14.356.251 14.895.323.557.072 1.043.27 1.025.737-.018.467-.378.88-.665 1.186-1.204 1.096-3.235.844-3.235.844l.432-.431v-.018Z" clip-rule="evenodd"/>
      <path fill="url(#o)" fill-rule="evenodd" d="M200.281 123.163c.072.449.197 1.365.251 1.994.036.378.072.827.072 1.222 0 .324-.054.827-.844.827l-5.696-.054c-.27 0-1.024.018-1.24-1.042-.288-1.312-3.198-20.412-3.198-20.412s-.27-1.222-.216-1.707c.036-.378.305-.97 1.276-1.06h1.096l.898 1.132s-1.491-.162-1.114 2.282c.377 2.443 2.21 13.17 2.534 15.183.323 2.012.359 3.288 1.293 3.36.935.072 3.72.018 4.169-.018.449-.054.647-.162.539-1.204-.09-1.042-.162-1.581-.162-1.581s.126-.378.342 1.096v-.018Z" clip-rule="evenodd"/>
      <path fill="url(#p)" fill-rule="evenodd" d="M223.945 147.079c-.27 2.749-.378 4.258-.396 4.402-.107 1.06-.646 1.06-1.868 1.06h-20.017c-.287 0-.808 0-.791-1.222l1.833-2.443c.072 1.796.414 1.635 2.013 1.707 1.599.071 14.392-.072 16.477-.108 2.102-.036 1.868-.647 2.102-2.174.054-.36.108-.791.144-1.294l.503.072Z" clip-rule="evenodd"/>
      <path fill="url(#q)" fill-rule="evenodd" d="M204.809 152.541h-3.145c-.287 0-.808 0-.791-1.222.036-2.659.54-6.396 1.186-9.127 1.132-4.169 2.246-6.487 3.684-8.895 1.473-2.479 4.33-6.073 7.636-9.199 2.911-2.75 4.456-3.864 4.636-4.025 0 0 4.115-1.977-.449 2.048-4.564 4.043-5.175 4.869-7.924 8.104-2.749 3.234-4.043 6.127-5.139 8.948-1.096 2.821-1.905 7.888-1.833 9.667.072 1.779.414 1.635 2.013 1.707h.269l-.197 1.94.054.054Z" clip-rule="evenodd"/>
      <path fill="#B61623" fill-rule="evenodd" d="M220.172 152.541h1.492c1.221 0 1.761 0 1.868-1.06.018-.198.216-2.839.737-7.619.934-8.229 2.39-13.17 3.845-17.698.971-3.073 1.977-6.451 2.875-8.733 1.366-3.522 2.282-5.319 2.839-6.774.755-2.012.952-2.569.952-3.522 0 0-.125-.449-.557.917-.431 1.365-1.527 4.24-3.072 7.636-1.563 3.396-2.588 7.08-4.151 12.254-1.563 5.175-2.39 8.481-2.893 12.255-.503 3.773-.575 6.594-.808 8.103-.234 1.528 0 2.139-2.103 2.175h-1.132l.108 2.048v.018Z" clip-rule="evenodd"/>
      <path fill="url(#r)" fill-rule="evenodd" d="M199.257 127.188h.485c.79 0 .844-.503.844-.827 0-.395-.018-.826-.071-1.221-.072-.629-.198-1.528-.252-1.995-.216-1.455-.341-1.096-.341-1.096s.071.539.161 1.581c.09 1.042-.09 1.168-.539 1.204-.09 0-.251.018-.485.018l.18 2.3.018.036Z" clip-rule="evenodd"/>
      <path fill="url(#s)" fill-rule="evenodd" d="M192.464 124.169c.162 1.024.288 1.725.342 1.941.215 1.06.988 1.042 1.24 1.042h1.509l.521-2.246c-.27 0-.503 0-.683-.036-.647-.054-.862-.665-1.042-1.689-.09-.467-.162-1.042-.27-1.671l-1.617 2.623v.036Z" clip-rule="evenodd"/>
      <path fill="url(#t)" fill-rule="evenodd" d="M220.333 152.541h1.33c1.221 0 1.76 0 1.868-1.06 0-.144.126-1.653.396-4.402l-.504-.072c-.036.503-.089.934-.143 1.294-.234 1.527 0 2.138-2.103 2.174-.251 0-.682 0-1.221.018l.359 2.048h.018Z" clip-rule="evenodd"/>
      <path fill="url(#u)" fill-rule="evenodd" d="M204.09 152.541h-2.426c-.287 0-.808 0-.791-1.222l1.833-2.444c.072 1.797.414 1.636 2.013 1.707l-.629 1.959Z" clip-rule="evenodd"/>
      <path fill="url(#v)" fill-rule="evenodd" d="M223.01 152.217c.144-.161.216-.377.198-.7-.018-.324-.306-.36-.791-.36-.485 0-19.262.108-19.262.108-.305 0-.575.09-.79.234-.288.179-.539.485-.593.718-.054.378.449.324.449.324.934-.018 18.938 0 19.783 0 0 0 .647.036 1.006-.324Z" clip-rule="evenodd"/>
      <path fill="url(#w)" fill-rule="evenodd" d="M218.213 119.875s0-.108-.036-.144c-.09-.09-.431-.108-.845-.108-.054 0-13.368-.233-13.925-.215-1.384 0-2.39.431-2.965 1.743-.269.629-.251 1.024-.144 2.03 0 0-.179-1.33-.143-1.887.036-.557.359-2.192 1.761-2.892 1.078-.539 2.425-.414 3.539-.414 0 0 13.656.216 14.375.252.719.036.755.395.449.575-.305.18-1.689.88-1.851.988-.161.108-.197.144-.197.108l-.018-.036Z" clip-rule="evenodd"/>
      <path fill="url(#x)" fill-rule="evenodd" d="M218.213 119.839s-.054.144-.18.269c-.179.162-1.725 1.276-4.636 4.025-3.306 3.127-6.163 6.72-7.636 9.2-1.437 2.408-2.551 4.726-3.683 8.894-.647 2.624-1.115 6.217-1.186 8.841v.269s.125.324.521-.18c.395-.503.485-.862.503-1.329 0-.845.251-4.097 1.078-7.637 1.078-4.15 3.054-8.085 4.977-10.745 1.923-2.659 3.863-5.013 6.594-7.636 1.941-1.869 3.594-3.001 4.403-3.594 0 0 1.563-1.024 1.006-.988-.485.036-.611.126-.881.252-.197.089-.054.035-.467.215 0 0-.233.108-.377.144h-.036Z" clip-rule="evenodd"/>
      <path fill="url(#y)" fill-rule="evenodd" d="M199.741 127.188s-5.067-.036-5.247-.036c-.179 0-.664-.144-.413-.719.288-.683.845-.719 1.276-.719.431 0 3.971.036 4.151.036.269 0 .7 0 .826.467.126.45.036.683-.144.863-.161.144-.467.126-.467.126l.018-.018Z" clip-rule="evenodd"/>
      <path fill="url(#z)" fill-rule="evenodd" d="M190.667 102.931h1.096c6.415.125 36.997 1.15 38.236 1.185 1.24.036 2.462.09 3.271.522 1.491.808 1.491 1.976 1.491 2.479 0 0-.036-.683-.18-.952-.161-.27-.808-.899-1.886-.935l-40.321-1.275s-1.132-.162-1.186.341c-.054.503-.252.719-.252.719h-1.455s-.377-1.402.377-1.851c.414-.251.773-.251.773-.251l.036.018Z" clip-rule="evenodd"/>
      <path fill="url(#A)" fill-rule="evenodd" d="M189.445 103.937c-.054.485.162 1.761.162 1.761s2.551 16.782 3.108 19.962c.054.252.486.396.755-.593.126-.449.09-1.257 0-1.886-.09-.647-2.569-16.369-2.569-16.369l-.557-3.27-.899.395Z" clip-rule="evenodd"/>
      <path fill="url(#B)" d="M234.689 106.417c-.036-.108-.054-.216-.108-.324-.179-.395-.503-.808-1.042-1.078-.377-.216-.718-.377-2.012-.431-5.588-.18-39.315-1.312-40.087-1.348-.845-.036-.737.467-.719.593.108 1.024.252 2.013.252 2.013s.018-.054-.036-.504c-.054-.449-.09-1.042.305-1.275.395-.234.557-.18 1.006-.162.45.018 32.9 1.06 33.727 1.078.826 0 6.343.162 7.025.27.665.107 1.06.287 1.294.557.252.287.323.431.395.718 0 0 0 .108.036.234.018.162.018.341.018.341 0-.143 0-.467-.054-.7v.018Z"/>
      <path fill="url(#C)" fill-rule="evenodd" d="M220.98 118.814s-.09-.108-.647.072c-.611.18-1.258.611-1.258.611.269-.126.395-.216.88-.251.557-.036-1.006.988-1.006.988-.808.611-2.461 1.743-4.402 3.593-2.731 2.624-4.654 4.978-6.594 7.637-1.941 2.659-3.953 6.756-5.031 10.907-.845 3.539-1.025 6.612-1.043 7.474v.126c.198.072.324.27.324.467-.054-.125-.09-.305-.108-.503-.036-1.509.647-5.857 1.096-7.528.881-3.343 2.677-7.673 4.618-10.332 1.869-2.552 3.037-4.061 6.055-7.116 2.102-2.12 4.133-3.575 5.391-4.474.251-.179.988-.682 1.545-1.275 0 0 .269-.234.144-.378l.036-.018Z" clip-rule="evenodd"/>
      <path fill="url(#D)" fill-rule="evenodd" d="M190.829 104.62c0-.126.09-.899.934-.863.845.036 40.105 1.294 40.644 1.33.504.018 1.061.108 1.438.323.287.144.557.306.755.719.215.449.161 1.114.161 1.222-.072.952-.413 1.671-1.222 3.683-.521 1.312-1.419 3.001-2.677 6.325-.898 2.336-1.833 5.337-3.036 9.236-1.348 4.366-2.696 8.445-3.702 17.051-.359 3.379-.395 3.792-.593 5.93-.18 1.437-.772 1.312-2.102 1.312-.881 0-17.501.107-17.645.107-.665 0-1.599.126-1.671-1.078-.036-1.509.557-5.642.988-7.313.881-3.342 2.767-7.87 4.726-10.529 1.869-2.552 3.037-4.061 6.055-7.115 2.103-2.121 4.133-3.576 5.391-4.475.251-.179.988-.682 1.545-1.275.377-.414.485-.845-.036-1.06-.305-.126-.809-.144-1.581-.162-.485 0-15.004-.27-15.668-.27-1.132.018-2.839.647-3.325 2.534-.215.88-.053 2.174.09 3.468.036.359.072.629.09.826.054.449.108.953-.683.953-1.024 0-4.258-.054-4.618-.054-.359 0-1.006 0-1.203-1.007-.27-1.455-2.839-18.111-2.839-18.111s-.108-.629-.234-1.654l.018-.053Z" clip-rule="evenodd"/>
      <path fill="url(#E)" fill-rule="evenodd" d="M230.143 119.336c-.682 1.994-1.437 4.366-2.318 7.241-1.347 4.366-2.695 8.445-3.701 17.052-.359 3.378-.395 3.791-.593 5.929-.18 1.438-.773 1.312-2.102 1.312-.881 0-17.501.108-17.645.108-.665 0-1.599.125-1.671-1.078-.036-1.51.557-5.642.988-7.314.881-3.342 2.767-7.87 4.726-10.529 1.868-2.551 3.036-4.061 6.055-7.115 2.102-2.121 4.133-3.576 5.391-4.474.251-.18.988-.683 1.545-1.276l9.307.162.018-.018Z" clip-rule="evenodd"/>
      <path fill="url(#F)" fill-rule="evenodd" d="M101.167 126.218c-.108.143-.27.323-.468.521-.503.503-4.5276 4.474-5.3362 5.264-.0898.09-.5031.539-1.2398.522-.4312 0-8.0857-.144-8.463-.18-.1977 0-.3234-.036-.3773-.054-.3235-.108-.9344-.431-1.2219-1.24-.0719-.215-1.9945-12.164-2.0304-12.398-.0539-.395-1.4734-9.074-1.9226-11.859-.1078-.485-.1078-.988-.1078-.988s0-.719.1258-1.15c.1258-.575.5031-1.06.6289-1.222 1.1679-1.276 4.9233-5.3366 5.0311-5.4803.1257-.1617.7546-.7906 1.6351-.8265.7007-.036 6.0373 4.7978 6.0373 4.7978l7.1518 20.609s.808 1.024.952 2.48v.305c0 .09-.036.18-.054.27-.054.197-.162.431-.323.629h-.018Z" clip-rule="evenodd"/>
      <path fill="url(#G)" fill-rule="evenodd" d="m99.4232 124.51.7368.036 9.056.18s4.24-4.51 7.313-6.594c.629-.431 1.168-1.581-.09-1.653-.162 0-15.758-.503-15.758-.503s-1.3118 1.042-1.5094 1.976c-.2156.934.2516 6.558.2516 6.558Z" clip-rule="evenodd"/>
      <path fill="url(#H)" fill-rule="evenodd" d="M117.554 117.036s-4.959 4.384-6.038 5.426c-1.078 1.025-7.205 6.523-10.888 11.32-3.3783 4.403-4.9236 8.014-6.1095 12.578-1.2757 4.923-1.5093 9.092-1.5273 10.404 0 1.078.0899 2.947 2.1203 2.947h23.9155s1.779.035 2.48-.557c.683-.557 4.312-3.72 4.312-3.72s.97-.826 1.635-1.383c.503-.414.611-.917.719-1.24.126-.342.108-.629.108-.899 0-1.132-.36-2.12-.36-2.12l-10.385-32.774.018.018Z" clip-rule="evenodd"/>
      <path fill="url(#I)" fill-rule="evenodd" d="M117.554 117.036s-4.959 4.384-6.038 5.426c-1.078 1.025-7.205 6.523-10.888 11.32-3.3783 4.403-4.9236 8.014-6.1095 12.578-1.2757 4.923-1.5093 9.092-1.5273 10.404 0 1.078.0899 2.947 2.1203 2.947h23.9155s1.779.035 2.48-.557c.683-.557 4.312-3.72 4.312-3.72s.97-.826 1.635-1.383c.503-.414.611-.917.719-1.24.126-.342.108-.629.108-.899 0-1.132-.36-2.12-.36-2.12l-10.385-32.774.018.018Z" clip-rule="evenodd"/>
      <path fill="url(#J)" fill-rule="evenodd" d="M86.1809 100.739s-.3055-1.5636-.2156-2.1027c.0898-.4851.2695-1.3296 1.2577-1.5273.0899 0 .2516-.0359.3953-.0359.3953-.018 5.2827.2516 11.7692.6289 13.7455.7906 34.6425 2.0843 34.6425 2.0843s1.941.3237 3.522 1.6167c1.563 1.294 1.815 3.289 1.815 3.81 0 .521-.108 1.617-1.15 4.043-.881 1.958-4.025 7.852-5.606 13.997-1.528 5.264-2.983 10.673-3.863 20.358-.468 4.797-.414 6.127-.432 8.337v.341c0 .27-.054.504-.125.701-.396 1.294-1.636 1.42-1.995 1.42-.359 0-22.227.018-22.55.018-1.671 0-2.731-.054-3.019-.108-.197-.036-1.491-.395-1.5988-1.815-.0539-.701.1078-2.731.2875-4.744.1796-2.084.539-4.402.8803-6.037 1.024-4.941 2.821-8.337 4.618-11.302 2.084-3.468 5.067-6.648 8.643-9.882.611-.557 2.174-1.887 2.174-1.887s.431-.27.054-.288c-.306-.018-10.907-.521-11.698-.449-.772.054-2.443-.144-2.982 1.33-.162 1.365.233 2.983.341 4.007.108.862.306 1.509.234 2.03 0 .126-.036.198-.09.342-.054.125-.342.557-.935.557-.5925 0-8.6243-.054-8.768-.054-.1258 0-.7188 0-1.2398-.611-.1977-.234-.3594-.485-.4492-.917-.0539-.269-.1977-1.221-.4313-2.605-1.0421-6.253-3.4499-21.256-3.4499-21.256h-.0359Z" clip-rule="evenodd"/>
      <path fill="#F6C300" fill-rule="evenodd" d="M86.7745 100.739s-.1796-1.294-.1257-2.1025c.0539-.7008.3234-1.3836 1.5632-1.4734h.539c1.8687.0719 7.8701.3594 15.165.7906 3.881.2336 8.302.5031 12.272.7367 2.822.1617 5.571.3414 7.996.4851 2.21.1258 4.169.2516 5.75.3414 2.552.1617 4.097.2516 4.097.2516s1.94.3775 3.522 1.6535c1.563 1.293 1.814 3.288 1.814 3.809 0 .521-.107 1.617-1.149 4.043-.881 1.958-4.025 7.852-5.607 13.997-1.527 5.265-2.982 10.673-3.863 20.358-.485 4.995-.341 6.307-.449 8.714-.09 1.779-1.563 1.654-2.408 1.689-.341 0-21.903.018-22.226.018-.773 0-2.085.036-2.929-.305-.665-.27-.9704-.863-1.0064-1.491-.0539-.863.0719-3.091.3594-5.606.18-1.636.377-3.432.755-4.906.503-1.904.97-3.522 1.473-4.959.791-2.228 1.653-4.025 2.731-5.84 2.085-3.468 4.708-6.54 8.463-9.918.611-.557 2.875-2.462 2.875-2.462s.342-.647-.701-.593c-.305.018-11.266-.431-12.038-.395-.935.036-1.671.144-2.21.88-.306.414-.45.917-.45 1.438 0 1.15.324 2.3.414 3.162.09.629.197 1.258.197 1.707.036.414 0 .683-.143.845-.126.126-.342.161-.629.161-.216 0-6.2173-.035-7.9243-.053-.2875 0-.9883 0-1.4734-.414-.2875-.233-.539-.593-.6648-1.15-.3414-1.545-3.9351-23.448-3.9351-23.448l-.0539.036Z" clip-rule="evenodd"/>
      <path fill="url(#K)" fill-rule="evenodd" d="M139.35 105.248c0-.521-.252-2.515-1.815-3.809s-3.522-1.6172-3.522-1.6172 1.384 2.8752-.215 11.0142c-1.599 8.122-3.396 12.973-3.396 12.973-.198.647-.413 1.348-.629 2.085-2.12 7.331-2.911 14.841-3.306 20.412-.09 1.347-.036 2.317.108 3.036.449 2.246 1.796-1.922 2.156-5.678.88-9.685 2.336-15.111 3.863-20.358 1.581-6.145 4.726-12.038 5.606-13.997 1.042-2.426 1.168-3.522 1.15-4.043v-.018Z" clip-rule="evenodd"/>
      <path fill="#000" fill-rule="evenodd" d="M86.7745 100.739s-.1796-1.294-.1257-2.1025c.0539-.7008.3234-1.3836 1.5632-1.4734.2695 0 2.8569.0539 6.5404.2695 3.2343.1797 7.2956.4133 11.6976.6828.754.0359 1.653.0898 2.425.1437 1.618.0899 3.199.1797 4.798.2875 1.491.0899 3.126.1797 4.546.2696 1.815.1078 3.324.1976 4.941.2875 6.343.3593 10.853.7007 10.853.7007s1.941.3236 3.522 1.6176c1.563 1.293 1.815 3.288 1.815 3.809 0 .521-.108 1.617-1.15 4.043-.881 1.958-4.025 7.852-5.607 13.997-1.527 5.265-2.982 10.673-3.863 20.358-.485 4.995-.341 6.307-.449 8.714-.09 1.779-1.563 1.654-2.408 1.689-.341 0-21.903.018-22.226.018-.773 0-2.085.036-2.929-.305-.665-.27-.9704-.863-1.0064-1.491-.0539-.863.0719-3.091.3594-5.606.18-1.636.377-3.432.755-4.906.503-1.904.97-3.522 1.473-4.959.791-2.228 1.653-4.025 2.731-5.84 2.085-3.468 4.708-6.54 8.463-9.918.611-.557 2.875-2.462 2.875-2.462s.342-.647-.701-.593c-.305.018-11.266-.431-12.038-.395-.935.036-1.671.144-2.21.88-.306.414-.45.917-.45 1.438 0 1.15.324 2.3.414 3.162.09.629.197 1.258.197 1.707.036.414 0 .683-.143.845-.126.126-.342.161-.629.161-.216 0-6.2173-.035-7.9243-.053-.2875 0-.9882 0-1.4734-.414-.2875-.233-.539-.593-.6648-1.15-.3414-1.545-3.935-23.448-3.935-23.448l-.036.036Z" clip-rule="evenodd"/>
      <path fill="url(#L)" fill-rule="evenodd" d="M135.486 115.149c1.168-2.677 2.264-4.816 2.732-5.84 1.042-2.426 1.167-3.522 1.149-4.043 0-.521-.251-2.515-1.814-3.809-1.564-1.294-3.522-1.653-3.522-1.653s-1.563-.0898-4.115-.2515c-2.461-.1438-5.821-.3594-9.595-.575-.844-.0539-1.707-.1078-2.569-.1617-1.366-.0899-2.767-.1617-4.169-.2516-3.594-.2156-7.277-.4312-10.673-.6289-1.779-.1078-3.4858-.1976-5.067-.2875-4.0968-.2335-7.2951-.4132-8.6248-.4671-.3593 0-.9343.0359-1.0062.0359-1.2218.0719-1.5093.7726-1.5632 1.4734-.0539.8086.1257 2.102.1257 2.102s2.2461 13.548 3.1804 19.172c0 0 2.1203-2.946 10.4571-3.899 8.338-.952 35.074-.862 35.074-.862v-.054Z" clip-rule="evenodd" opacity=".55"/>
      <path fill="url(#M)" d="M100.843 152.127h23.8798v1.72495H100.843z"/>
      <path fill="#A72C56" fill-rule="evenodd" d="M87.5645 99.8042c.0359-.3235.1976-.8086.7546-1.0422.1617-.0719.4852-.1258 1.0062-.1258 4.5819.2696 43.4647 2.4438 43.4647 2.4438s.773.054 1.546.126c.377.036 1.096.036 1.814.377.665.323 1.33 1.006 1.456 1.168.431.629.467 1.204.467 1.527.018.953.413 1.438-.431 3.648-.773 1.958-4.043 7.241-6.612 16.189-1.456 4.798-2.139 7.709-3.217 15.65-.521 5.607-.629 8.877-.683 10.979-.035 1.959-.305 1.851-1.868 1.851-.935 0-23.071.018-23.251.018-.108 0-.306 0-.503-.036-.072 0-.126-.018-.18-.036-.126-.036-.251-.126-.359-.288-.072-.107-.126-.323-.162-.557v-.413c0-1.114.305-6.181.97-8.966.989-4.097 2.228-7.241 3.81-9.883 1.617-2.695 4.24-6.163 7.816-9.577 3.216-3.054 6.396-5.408 6.396-5.408s.27-.198.054-.234c-.575-.072-16.279-.467-16.98-.449-.988.036-2.407.288-2.9105 1.617-.539 1.564 0 3.756.1255 4.995.072.647.018.953-.054 1.132-.0355.108-.2152.396-.5926.396-.7546 0-2.9467-.054-3.5217-.036h-3.3421s-.3234 0-.6109-.162c-.2336-.144-.5391-.449-.6469-1.078-.539-2.947-3.5038-21.777-3.5038-21.777s-.2875-1.474-.2336-2.0129l-.0179-.0359Z" clip-rule="evenodd"/>
      <path fill="#AE0B17" fill-rule="evenodd" d="M88.5879 101.817s-.2156-1.294-.2695-2.2102c0-.1258 0-.9883 1.0062-.9703.9343 0 45.2794 2.5515 45.2794 2.5515s1.222.162 1.761.557c1.923 1.042 1.743 3.126 1.761 3.63 0 .952-.233 2.03-1.024 3.899-.809 1.976-3.198 5.3-5.929 14.374-1.025 3.36-1.833 6.505-2.534 10.709-.467 2.767-.898 5.427-1.15 8.841-.234 3.27-.323 6.971-.377 8.229 0 .252-.072.683-.27.916-.072.09-.108.108-.215.162-.09.054-.342.054-.342.054s.198 0 .288-.18c.072-.143.107-.233.09-.431 0-.233-.144-.395-.324-.485-.269-.144-.629-.108-.862-.108h-22.065c-.791.018-.935.539-1.06.917-.036.089.071.341.017.341h-.287c-.557 0-.827-.072-.988-.234-.09-.089-.162-.179-.216-.341-.018-.072-.054-.18-.072-.27 0 0 .09.18.288-.017.215-.234.467-.899.521-1.366 0-.054.197-5.265 1.132-8.769 1.365-5.103 3.162-8.66 5.247-11.643 2.407-3.108 3.647-4.528 6.414-7.169 1.204-1.276 3.306-2.893 3.953-3.414.467-.36 1.258-.881 1.923-1.402.179-.126 1.096-.808 1.258-.934.053-.054.089-.198.089-.252-.053-.089-.485 0-1.078.288 1.025-.557 1.33-.521 1.474-.377.072.233-1.258 1.185-1.15 1.096.754-.539 1.994-1.114 2.21-1.6.09-.197.054-.341-.306-.359-.377-.036-1.096-.054-2.353-.072-.755 0-16.531-.521-17.268-.449-.988.09-2.731.216-3.342 2.156 0 .036 0 .054-.018.09-.3234 1.491-.0718 2.839.054 4.061.0359.449.1257.934.1437 1.078.0543.503.2513 1.348 0 1.851-.0539.107-.1797.305-.557.305.1258-.036.4132-.323.3773-.844-.0359-.342-.3054-.539-.7726-.557h-.2875c-.9883 0-4.3663-.036-5.2467-.054-.1617 0-.3953.036-.5391.125-.3773.234-.8265.647-.5929 1.097.0539.107.1976.125.3773.197-.4133 0-.8804-.018-1.1859-.467-.1797-.252-.3055-.611-.3414-1.114.0539.036.0719.036.1438-.036.1437-.126.3234-.431.4312-.809.0898-.287.1258-.61.0898-.916-.2875-1.599-3.3241-19.693-3.3241-19.693l.018.018Z" clip-rule="evenodd"/>
      <path fill="url(#N)" fill-rule="evenodd" d="M123.32 115.85c.126-.27 0-.414-.521-.504-.269-.035-2.516 1.24-2.821 1.833-.09.18-.18.234-.18.234.09-.036.647-.324 1.096-.342.45-.018.108.324-.215.863-.108.18.557-.342.844-.557.773-.539 1.474-.952 1.779-1.545l.018.018Z" clip-rule="evenodd"/>
      <path fill="url(#O)" d="M122.603 115.85c-.395-.018-1.401-.072-2.156-.072-.898-.036-16.459-.467-17.268-.467-1.006 0-2.767.233-3.3775 2.228-.1977.88-.1797 1.707-.1258 2.479v.144-.144c0-.575.0539-1.15.2336-1.653.5027-1.33 1.9407-1.581 2.9107-1.617.665-.018 14.159.305 16.621.413.539 0 .305.252.305.252l2.839-1.492.144-.071h-.162.036Z"/>
      <path fill="url(#P)" fill-rule="evenodd" d="M89.5056 98.6182s42.2974 2.3898 44.3454 2.4978c2.049.108 2.049.377 2.606.701.557.323-.036 1.149-.252.826-.234-.323-.665-.862-2.138-.97-1.474-.126-42.6208-2.3181-43.8426-2.3541-1.2219-.0359-.9164 1.3831-.9164 1.3831s3.0366 18.49 3.3421 20.287c.3054 1.796.8804 1.742 1.2937 1.796.4132.036 4.1686.108 4.8694.072.7007-.036.8445-.269.8265-.772-.018-.503.1437-.45.1437-.45h.0539c.036.468.1258.935.1438 1.096.0539.504.2519 1.348 0 1.851-.0539.108-.1797.306-.557.306.1258-.036.4132-.324.3773-.845-.0359-.341-.3054-.539-.7726-.557h-.2875c-.9883 0-4.3663-.036-5.2467-.054-.1617 0-.3953.036-.5391.126-.3773.234-.8265.647-.5929 1.096.0539.108.1976.126.3773.198-.4133 0-.8804-.018-1.1859-.467-.1078-.144-.1797-.324-.2516-.557-.0539-.162-.0718-.324-.1078-.575.0539.036.0899.036.1797-.018.1438-.126.3235-.432.4313-.809.0898-.287.1257-.611.0898-.916-.2875-1.6-3.3241-19.676-3.3241-19.676s-.2156-1.293-.2695-2.2096c0-.1078 0-.7726.6109-.9523.1078-.036.2515-.0539.3414-.0539h.2515Z" clip-rule="evenodd"/>
      <path fill="url(#Q)" fill-rule="evenodd" d="M92.6502 121.007v.018c.0899.521.1977.88.3235 1.132.3054.611.6648.611.9523.629l-.4312.647c-.1618 0-.3953.035-.5391.125-.3773.234-.8265.647-.5929 1.096.0539.108.1976.126.3773.198-.4133 0-.8805-.018-1.1859-.467-.1078-.144-.1797-.324-.2516-.557-.0539-.162-.0718-.324-.1078-.575.0539.036.0899.036.1797-.018.1438-.126.3234-.431.4312-.809.0899-.287.1258-.611.0899-.916l.7367-.503h.0179Z" clip-rule="evenodd"/>
      <path fill="url(#R)" fill-rule="evenodd" d="M100.825 151.84s-.036-.072-.036-.126v-.431c0-1.114.306-6.181.97-8.984.989-4.097 2.228-7.241 3.81-9.883 1.617-2.695 4.24-6.181 7.816-9.577 3.216-3.054 6.396-5.39 6.396-5.39s1.654-.899 1.851-.773c.198.126.252.306-.215.629-.468.323-2.839 1.851-5.642 4.474-2.803 2.623-3.684 3.234-6.002 6.289-2.318 3.055-3.737 4.905-4.6 7.151-.862 2.246-1.85 3.81-2.659 7.457-.809 3.666-.431 3.36-.503 5.085-.072 1.725-.341 2.462-.467 3.055-.234.988-.665 1.222-.701 1.042l-.018-.018Z" clip-rule="evenodd"/>
      <path fill="url(#S)" fill-rule="evenodd" d="M101.185 152.469c-.198-.162-.252-.234-.288-.395-.018-.072-.054-.216-.072-.306 0 0 .072.198.27 0 .215-.233.467-.898.521-1.365 0-.054.197-5.265 1.132-8.769 1.365-5.103 3.162-8.66 5.247-11.643 2.407-3.109 3.485-4.42 6.27-7.062 1.204-1.275 3.45-3 4.115-3.504.467-.359 1.15-.862 1.833-1.365.341-.252 1.168-.863 1.33-.988.143-.108.125-.18.125-.216-.054-.09-.772.072-1.311.341.736-.431 1.078-.503 1.311-.539.18-.036.36-.036.432.036.071.072.018.216-.072.306-.18.197-.521.467-.953.79-.503.396-5.678 4.528-9.523 9.164-3.845 4.636-5.175 6.199-7.564 13.566-2.39 7.367-1.815 9.541-1.438 10.062.162.216.503.342.503.342s.737.251-.108.718c-.844.468-.61 1.043-.61 1.043s-.881 0-1.079-.162l-.071-.054Z" clip-rule="evenodd"/>
      <path fill="url(#T)" fill-rule="evenodd" d="M138.127 105.356c0 .953-.233 2.031-1.024 3.899-.808 1.977-3.198 5.301-5.929 14.375-1.025 3.36-1.833 6.505-2.534 10.709-.467 2.767-.898 5.426-1.15 8.84-.234 3.271-.323 6.972-.377 8.23 0 .251-.072.683-.27.916-.072.09-.126.144-.233.198-.09.054-.306.054-.306.054s.18 0 .27-.162c.072-.144.108-.269.108-.485 0-.234-.144-.395-.324-.485-.269-.144-.629-.108-.862-.108 0 0 .395-13.314 5.067-28.084 2.731-8.661 4.24-10.637 6.055-14.213 1.042-2.067 1.527-3.702 1.527-3.702l-.018.018Z" clip-rule="evenodd"/>
      <path fill="url(#U)" d="M102.729 141.598c-.935 3.504-1.132 8.733-1.132 8.769-.036.485-.306 1.132-.522 1.365-.197.198-.305-.036-.305-.018 0 .09.054.234.072.324.054.161.108.251.216.359.161.162.449.234 1.006.234h.287c.036 0-.054-.252-.018-.342.126-.377.27-.898 1.06-.916 0 0 1.258-.036 3.522-.054 2.264 0 3.252-.485 3.252-.485h-7.061s-.97.144-.899-1.366c.054-1.527.755-6.846.755-6.846l-.233-1.024Z"/>
      <path fill="url(#V)" fill-rule="evenodd" d="M91.2119 123.253s.0898.036.1797-.036c.1437-.126.3234-.432.4312-.809.0898-.287.1258-.611.0898-.916-.2875-1.599-3.3241-19.675-3.3241-19.675s-.2156-1.294-.2695-2.2106c0-.1257.0359-1.0062 1.0422-.9882 0 0-1.9226-.2516-1.8148 1.5268.0179.396.0898.845.0898.845l3.5757 22.263Z" clip-rule="evenodd"/>
      <path fill="url(#W)" fill-rule="evenodd" d="M92.7576 124.852c-.1797-.072-.3234-.09-.3773-.198-.2336-.449.2156-.862.5929-1.096.1438-.089.3774-.125.5391-.125.8804 0 4.2585.054 5.2467.054h.2875c.4672.035.7367.215.7726.557.036.521-.2515.808-.3773.844l-6.6842-.054v.018Z" clip-rule="evenodd"/>
      <mask id="X" width="64" height="18" x="84" y="93" maskUnits="userSpaceOnUse" style="mask-type:luminance">
        <path fill="#fff" d="M88.4449 93.6591c-1.9046 0-4.2764 6.7919-4.2764 6.7919l.8804 5.912 6.2529-.342 18.0042 1.42 13.71.808 14.392 1.761 10.386-4.151-4.205-7.7438-55.1441-4.4741v.018Z"/>
      </mask>
      <g mask="url(#X)">
        <path fill="#F9DEE1" fill-rule="evenodd" d="M88.8213 99.8223c0-.1257 0-.8085.9523-.7726.9344.0359 43.8244 2.4073 43.8244 2.4073s1.366.072 1.779.306c1.186.629 1.366 1.851 1.383 2.372.036 1.15-.071 1.653-.934 3.863-.808 1.976-2.372 6.325-4.959 15.435-1.33 4.707-2.803 9.433-3.72 19.369-.359 3.953-.341 4.367-.359 6.756-.036 1.761-.97 1.384-2.426 1.402-.97 0-11.194.018-11.499.018-.378 0-8.302.054-8.481.036-.324 0-2.48.485-2.408-1.348.126-3.18.144-4.402 1.024-7.906 1.348-5.426 3.36-8.786 5.373-11.535 2.605-3.558 4.869-5.607 6.738-7.565 2.282-2.372 5.282-4.492 6.343-5.247.449-.359 3.216-1.976.826-1.994-4.079.108-17.07-.629-19.675-.431-1.132.089-2.8391.539-2.9828 2.713-.0719 1.222-.036 2.03.1258 3.45.1437 1.365.1078 1.311-.1977 1.725-.3414.251-1.5812.125-3.0186.089-1.0242-.018-2.857-.107-2.857-.107s-.8984-.072-1.15-1.276c-.2875-1.599-3.36-19.675-3.36-19.675s-.2875-1.078-.3234-2.1026l-.018.0179Z" clip-rule="evenodd"/>
      </g>
      <path fill="url(#Y)" fill-rule="evenodd" d="M89.055 99.9662c.1437-.2516.4132-.4672.7906-.4672 1.7069 0 43.7704 2.408 43.7704 2.408s1.366.072 1.779.305c1.186.629 1.366 1.851 1.384 2.372.035 1.15-.072 1.186-.935 3.378-.808 1.977-2.372 6.325-4.959 15.435-.898 3.144-1.779 6.289-2.569 10.942-.396 2.336-.899 5.103-1.15 8.427-.324 4.205-.396 6.882-.396 6.954-.072 1.114-.611 1.15-1.15 1.15-.97 0-20.735.036-22.514.036-.862 0-1.15-.485-1.114-1.276v-.161c.126-3.055.162-4.313 1.006-7.745 1.132-4.689 3.324-8.858 5.373-11.589 2.515-3.342 4.438-5.427 6.396-7.295 2.229-2.138 5.589-4.672 6.667-5.427 0 0 .018 0 .036-.018.485-.377 3.252-2.012.88-2.03-3.144-.054-17.249-.665-19.837-.467-1.132.09-2.749.611-2.8927 2.785-.0719 1.222-.036 2.03.1257 3.45.0719.647.1079 1.006.1079 1.24 0 .197-.0899.377-.2157.521-.1078.107-.4312.197-.6109.197-.6289 0-1.4195 0-2.4976-.036-.8445-.018-2.1561-.018-2.6772-.036-.8086-.089-1.2578-.646-1.4015-1.365-.2696-1.474-2.9109-17.034-3.4499-20.394-.1079-.737-.0899-1.024.0718-1.3118l-.0179.018Z" clip-rule="evenodd"/>
      <path fill="url(#Z)" fill-rule="evenodd" d="M89.055 99.9662c.1437-.2516.4132-.4672.7906-.4672 1.7069 0 43.7704 2.408 43.7704 2.408s1.366.072 1.779.305c1.186.629 1.366 1.851 1.384 2.372.035 1.15-.072 1.186-.935 3.378-.808 1.977-2.372 6.325-4.959 15.435-.898 3.144-1.779 6.289-2.569 10.942-.396 2.336-.899 5.103-1.15 8.427-.324 4.205-.396 6.882-.396 6.954-.072 1.114-.611 1.15-1.15 1.15-.97 0-20.735.036-22.514.036-.862 0-1.15-.485-1.114-1.276v-.161c.126-3.055.162-4.313 1.006-7.745 1.132-4.689 3.324-8.858 5.373-11.589 2.515-3.342 4.438-5.427 6.396-7.295 2.229-2.138 5.589-4.672 6.667-5.427 0 0 .018 0 .036-.018.485-.377 3.252-2.012.88-2.03-3.144-.054-17.249-.665-19.837-.467-1.132.09-2.749.611-2.8927 2.785-.0719 1.222-.036 2.03.1257 3.45.0719.647.1079 1.006.1079 1.24 0 .197-.0899.377-.2157.521-.1078.107-.4312.197-.6109.197-.6289 0-1.4195 0-2.4976-.036-.8445-.018-2.1561-.018-2.6772-.036-.8086-.089-1.2578-.646-1.4015-1.365-.2696-1.474-2.9109-17.034-3.4499-20.394-.1079-.737-.0899-1.024.0718-1.3118l-.0179.018Z" clip-rule="evenodd"/>
      <path fill="url(#aa)" fill-rule="evenodd" d="M102.28 152.631c-.144 0-.234-.18-.18-.324.072-.216.234-.521.521-.755.198-.161.396-.287.719-.287h8.805c.305 0 12.451-.036 13.422-.036.233 0 .593.054.862.18.18.09.306.323.306.557 0 .143-.036.233-.072.341-.072.162-.216.234-.288.252h-.09l-24.023.036.018.036Z" clip-rule="evenodd"/>
      <mask id="ab" width="49" height="52" x="88" y="99" maskUnits="userSpaceOnUse" style="mask-type:luminance">
        <path fill="#fff" d="M89.055 99.9662c.1437-.2516.4132-.4672.7906-.4672 1.7069 0 43.7704 2.408 43.7704 2.408s1.366.072 1.779.305c1.186.629 1.366 1.851 1.384 2.372.035 1.15-.072 1.186-.935 3.378-.808 1.977-2.372 6.325-4.959 15.435-1.33 4.707-2.803 9.433-3.719 19.369-.342 3.828-.36 4.223-.396 6.433v.252c.036 1.491-.665 1.437-1.222 1.437-.97 0-20.663.036-22.442.036-.862 0-1.15-.485-1.114-1.276v-.161c.126-3.055.162-4.313 1.006-7.745 1.348-5.426 3.36-8.786 5.373-11.535 2.605-3.558 4.869-5.606 6.738-7.565 2.264-2.354 5.247-4.474 6.325-5.229 0 0 .018 0 .036-.018.485-.377 3.18-1.958.808-1.976-4.079.108-17.07-.629-19.675-.431-1.132.089-2.839.539-2.9827 2.713-.0719 1.222-.036 2.03.1257 3.45.0719.647.1079 1.006.1079 1.24 0 .197-.0899.377-.2157.521-.1078.107-.4312.197-.6109.197-.6289 0-1.4195 0-2.4976-.036-.8445-.018-2.1561-.018-2.6772-.036-.8086-.089-1.2578-.646-1.4015-1.365-.2696-1.474-2.9109-17.034-3.4499-20.394-.1079-.737-.0899-1.024.0718-1.3118h-.0179Z"/>
      </mask>
      <g mask="url(#ab)">
        <path fill="url(#ac)" d="M105.658 94.4141h42.369v36.4934h-42.369z" opacity=".8"/>
      </g>
      <path fill="url(#ad)" fill-rule="evenodd" d="M147.722 116.443c-.503.431-5.929 4.959-6.63 5.516-.126.09-.341.288-1.132.288-.521 0-7.708-.09-10.619-.216-.323 0-.575-.036-.773-.054-.377-.036-.844-.215-1.132-.413-.341-.234-.7-.593-.898-1.186-.342-1.06-4.798-34.5887-4.816-34.8223-.018-.2336-.036-.3414 0-.6469.036-.4132.108-.8445.539-1.3116.755-.8266 5.786-5.6061 5.984-5.8038.269-.2515 1.15-1.2578 2.713-1.2578.988 0 6.63 6.5405 6.63 6.5405l10.009 28.4439s.036.09.072.143c.215.27.682 1.366 1.024 3.325 0 .089-.162.736-.989 1.455h.018Z" clip-rule="evenodd"/>
      <path fill="url(#ae)" fill-rule="evenodd" d="M137.822 106.237c-.377-.036-.126 4.905-.413 4.707-.342-.233-10.655 10.045-10.853 9.452-.341-1.06-4.798-34.5891-4.816-34.8227-.017-.2336-.035-.3414 0-.6469.036-.4133.108-.8445.54-1.3117.754-.8265 5.785-5.6061 5.983-5.8037.269-.2516 1.15-1.2578 2.713-1.2578.988 0 6.63 6.5405 6.63 6.5405s.432 23.1793.234 23.1613l-.018-.018Z" clip-rule="evenodd"/>
      <path fill="url(#af)" fill-rule="evenodd" d="m147.273 111.016 1.006.054 12.272.234s6.253-5.157 7.098-5.75c.844-.593.575-.521.359-.593-.215-.072-18.543-.521-18.543-.521s-1.761 1.401-2.048 2.641c-.288 1.24-.126 3.935-.126 3.935h-.018Z" clip-rule="evenodd"/>
      <path fill="url(#ag)" fill-rule="evenodd" d="M168.062 105.086s-6.145 4.942-7.637 6.343c-1.491 1.402-9.523 8.391-13.62 14.734-4.096 6.343-6.235 11.715-7.69 18.022-1.455 6.307-1.437 11.087-1.473 11.859-.054 1.276.179 3.666 3 3.666h31.678c.863 0 1.42-.234 1.887-.557.018 0 6.432-4.654 6.99-5.085.431-.342.79-.899.844-1.366.018-.198-.162-.198-.18-.413-.072-1.581-.88-3.486-.88-3.486l-12.919-43.735v.018Z" clip-rule="evenodd"/>
      <path fill="url(#ah)" fill-rule="evenodd" d="M128.55 80.1828c-.198-1.4734.054-2.1382.269-2.5155.162-.2875.431-.5391.773-.7547.287-.1797.629-.3055 1.078-.3594.162-.0179.557-.0359 1.204-.0179 8.445.1617 60.319 2.246 60.319 2.246s2.623-.1976 4.762 1.5273c2.138 1.7249 2.443 4.4022 2.461 5.103.018.7007-.054 2.0843-1.473 5.3365-1.204 2.6234-6.253 13.7639-8.391 22.0109-2.067 6.882-4.977 15.92-6.289 27.833-.827 7.529-.917 8.481-1.15 11.104 0 .162.036.252.018.414-.18 2.353-2.031 2.371-2.516 2.371h-1.329c-3.917 0-30.421-.054-30.672-.054-.755 0-2.875-.449-3.001-2.353-.126-1.905.413-9.541 1.707-14.519 1.707-6.54 3.774-11.176 6.055-15.003 2.965-4.995 7.889-10.799 12.902-14.986.844-.718 2.174-1.886 2.174-1.886s.197-.18.287-.306c.054-.072.036-.233-.179-.251-.288-.018-7.098-.234-11.805-.288-1.977-.018-3.522-.072-4.025-.036-.378.018-.845.054-1.348.18-.88.198-1.797.665-2.264 1.797-.018.036-.036.09-.036.126-.18 1.76.288 3.575.413 5.336.072.97.234 2.48.234 2.57-.036.323-.126.575-.359.844-.072.108-.36.323-.611.377-.791.162-8.751-.125-11.482-.125-.413 0-.683-.036-.701-.036-.251-.036-1.922-.252-2.354-2.174-.467-2.067-4.492-32.0917-4.671-33.5471v.0359Z" clip-rule="evenodd"/>
      <path fill="url(#ai)" fill-rule="evenodd" d="M129.215 79.8588c-.054-.4851-.09-1.1859-.054-1.4734.126-.7187.557-1.6351 2.21-1.8148 1.33-.1617 60.858 2.1383 60.858 2.1383s.719 0 1.618.1617c.952.1617 2.102.5211 3.162 1.4374 3.54 3.0546 2.713 6.6483 1.078 10.17-1.204 2.6234-6.397 14.087-8.553 22.335-2.066 6.881-4.977 15.919-6.289 27.832-.862 7.996-.844 8.409-1.096 11.428-.197 2.228-1.958 2.066-2.659 2.066-.809 0-28.21-.125-28.659-.125h-2.983c-.97 0-2.498-.593-2.588-2.318-.107-2.174.324-9.146 1.636-14.123 1.707-6.541 3.863-11.23 6.109-15.094 2.677-4.617 7.816-10.349 12.793-14.734.629-.557 1.779-1.509 2.246-1.94.198-.18.377-.467.36-.701 0-.197-.252-.413-.611-.413-.036 0-15.166-.395-16.154-.324-.952.072-2.641.593-3.342 2.103-.072.161-.269.431-.198 1.581.09 1.168.611 5.929.611 6.469 0 .269.036 1.006-.79 1.131h-.971c-2.048-.035-10.098-.179-10.475-.179 0 0-2.174 0-2.605-1.941-.468-2.066-4.636-33.205-4.69-33.6901l.036.0179Z" clip-rule="evenodd"/>
      <path fill="url(#aj)" d="M135.361 113.137h10.4036v2.3718H135.361z"/>
      <path fill="url(#ak)" d="M146.286 102.571h26.0898v3.98894H146.286z"/>
      <path fill="url(#al)" d="M146.932 151.769h30.7256v2.26399H146.932z"/>
      <path fill="url(#am)" d="M133.079 112.849c-6.074 5.498-6.792 6.055-6.792 6.055.161.719 0 3.271 3.054 3.145 7.17-6.055 7.223-6.055 7.223-6.055-3.108 0-3.216-1.851-3.503-3.145h.018Z"/>
      <path fill="url(#an)" d="M121.939 87.0827c-.162-.9523-.521-2.5695.341-3.5038.773-.8265 5.786-5.6241 5.984-5.8037.197-.1977.844-.8266 1.779-1.1141-1.779.6289-1.743 2.264-1.294 5.121 0 0-3.037 2.2101-6.828 5.3006h.018Z"/>
      <path fill="#D21300" fill-rule="evenodd" d="M148.512 152.523c.234 0 28.067.072 29.414.072 1.887 0 2.552.198 2.767-1.563.036-.306.324-4.492 1.15-11.967 1.222-11.194 3.756-19.729 5.786-26.162 3.594-12.003 7.655-20.3219 8.751-22.9632 1.168-2.9648 1.455-3.9171 1.419-5.1928 0-.3594-.144-1.0422-.485-1.725-.305-.5929-.737-1.1859-1.761-1.7609-.162-.1078-1.186-.557-3.162-.6288-11.949-.5032-51.803-1.9586-58.882-2.1562h-.827s-1.168 0-1.599.7367c-.431.7367-.269 1.4195-.18 2.246l.09.8265S134.964 111.16 135 111.484c.018.161.054.305.072.395 0 0 .072.413.108.539.09.341.216.755.287.862.108.198.234.342.36.45.251.233.593.377.952.377 1.276 0 6.972.126 8.93.144h.144c.647 0 .791-.413.845-.521.161-.324.179-.647.107-1.905-.107-1.671-.736-4.69.018-6.576.701-1.779 2.785-2.372 4.223-2.444 1.222-.054 21.112.449 21.652.467.557.036.826.378.305.791-.665.521-2.498 1.689-6.738 5.588l-.018.018c-.306.287-8.265 7.636-12.416 14.824-4.223 7.313-5.57 13.368-6.361 18.651 0 0-.665 5.66-.665 7.385 0 0-.072 1.114.396 1.563.413.413.862.431 1.329.431h-.018Z" clip-rule="evenodd"/>
      <path fill="url(#ao)" fill-rule="evenodd" d="M147.452 143.144s-.665 5.66-.665 7.385c0 0-.072 1.114.395 1.563.414.413.863.431 1.33.431.234 0 28.066.072 29.414.072 1.887 0 2.552.198 2.767-1.563.036-.306.324-4.492 1.15-11.967 1.222-11.194 3.756-19.729 5.786-26.162 3.594-12.003 7.654-20.3218 8.75-22.9631 1.168-2.9648 1.456-3.9171 1.42-5.1929 0-.3593-.144-1.0421-.485-1.7249-.306-.593-.737-1.1859-1.761-1.7609-.162-.1078-1.186-.557-3.163-.6289 0 0 5.535.8445 4.385 5.66-.755 3.1984-4.744 11.3559-7.044 17.4117-2.318 6.073-5.013 14.68-6.576 21.795-1.563 7.115-2.893 18.705-3.127 21.256-.233 2.552-.539 2.785-3.36 2.785h-25.407c-1.527 0-2.318.198-2.318-1.958s.072-4.312.468-6.217l-1.977 1.779h.018Z" clip-rule="evenodd"/>
      <path fill="url(#ap)" fill-rule="evenodd" d="M175.411 152.595h2.497c1.887 0 2.552.197 2.767-1.564.018-.179.144-1.76.396-4.599l-.971-.45c-.036.324-.054.593-.072.791-.233 2.552-.539 2.785-3.36 2.785H175.5l-.089 3.037Z" clip-rule="evenodd"/>
      <path fill="url(#aq)" fill-rule="evenodd" d="M146.859 149.109s-.072 1.078-.072 1.42c0 0-.072 1.114.395 1.563.414.413.863.431 1.33.431h1.779l1.366-2.983h-.396c-1.527 0-2.318.198-2.318-1.958v-.503l-2.084 2.012v.018Z" clip-rule="evenodd"/>
      <path fill="url(#ar)" fill-rule="evenodd" d="M172.967 104.081c.503-.396.251-.755-.306-.791-.539-.036-20.43-.539-21.652-.467-1.437.072-3.521.665-4.222 2.444-.755 1.886-.144 4.905-.018 6.576 0 0-.126-.575-.27-1.689-.143-1.114-.359-4.456-.215-5.337.143-.88.395-1.76.79-2.389.396-.629 1.671-1.797 3.019-1.797s24.832.323 26.27.413c1.455.09 1.329.791 1.311 1.204 0 .413-.485.809-1.06 1.186-.575.377-3.378 1.815-3.755 1.527-.467-.359.125-.844.125-.844l-.017-.036Z" clip-rule="evenodd"/>
      <path fill="url(#as)" fill-rule="evenodd" d="M197.781 84.765c0-.3593-.144-1.0421-.485-1.7249-.306-.593-.737-1.1859-1.761-1.7609-.162-.1078-1.078-.557-3.055-.6468-11.948-.5391-51.91-1.9406-58.989-2.1383h-.827s-1.168 0-1.599.7367c-.431.7367-.269 1.4195-.18 2.2461l.09.8265s3.971 28.8746 4.007 29.1986c.018.161.054.305.072.395 0 0 .072.413.108.539.09.341.215.755.287.863.108.197.234.341.36.449.251.233.593.377.952.377 1.276 0 6.972.126 8.93.144h.144c.647 0 .809-.395.844-.521.144-.306.18-.629.09-1.923 0 0 0-.197-.036-.521-.036-.413-.107-1.06-.215-1.958-.036-.36-.054-.719-.072-1.097-.054-.952-.09-1.886-.162-1.868-.18 0 .108 3.09.09 4.654 0 .521-.557.88-.952.88-1.653 0-5.175-.036-6.253-.072-2.21-.09-2.21-.449-2.408-1.922-.323-2.372-3.126-27.8512-3.216-28.8215-.09-.9703 1.311-.7367 4.007-.6468 2.695.0898 55.575 1.8687 55.575 1.8687 2.121.0898 2.049.1617 3.019.8984.988.7367 1.689 1.5452 1.689 1.5452h-.054Z" clip-rule="evenodd"/>
      <path fill="url(#at)" fill-rule="evenodd" d="M143.93 114.251c.701 0 1.312.018 1.743.036h.144c.647 0 .809-.396.845-.521.143-.306.179-.629.089-1.923 0 0 0-.198-.035-.521-.036-.413-.108-1.06-.216-1.959-.036-.359-.054-.718-.072-1.096-.054-.952-.09-1.886-.162-1.868-.179 0 .108 3.09.09 4.653 0 .522-.557.881-.952.881h-1.509l.053 2.336-.018-.018Z" clip-rule="evenodd"/>
      <path fill="url(#au)" fill-rule="evenodd" d="M134.82 110.315c.054.432.108.755.126.953.018.125.036.215.036.215.018.162.053.306.071.396 0 0 .072.413.108.539.09.341.216.754.288.862.108.198.233.341.359.449.252.234.593.378.952.378h.971l1.994-3.181c-.952-.09-1.671-.449-1.797-1.311 0-.126-.036-.288-.072-.521-.053-.414-.161-1.025-.269-1.743l-2.749 2.946-.018.018Z" clip-rule="evenodd"/>
      <path fill="url(#av)" fill-rule="evenodd" d="M135.054 111.897c.018.144.126.234.27.27.125.018.269 0 .413-.09.305-.216.467-.503.395-1.096-.09-.593-4.33-30.2768-4.402-30.9236-.054-.6469 0-.8625.27-1.168.215-.2695.503-.3773.682-.3953 0 0-1.168 0-1.599.7367-.431.7367-.269 1.4195-.18 2.2461l.09.8265s3.971 28.8746 4.007 29.1986c.018.161.054.305.072.395h-.018Z" clip-rule="evenodd"/>
      <path fill="url(#aw)" fill-rule="evenodd" d="M136.527 114.107s8.356.18 9.038.162c.683-.018.989-.288.953-.755-.036-.467-.27-.719-.953-.719-.682 0-6.899-.107-7.492-.107s-1.024.125-1.348.449c-.305.287-.575.718-.198.988v-.018Z" clip-rule="evenodd"/>
      <path fill="url(#ax)" fill-rule="evenodd" d="M149.033 152.541c-.827 0-1.025-.071-1.115-.287-.089-.216.144-.593.414-.952.287-.36.629-.791 1.491-.827.863-.036.881-.018 1.689-.018 0 0 26.827.108 27.491.108.665 0 1.043.162 1.168.647.108.449-.035.88-.251 1.114-.216.233-.431.287-1.114.287-.198 0-29.791-.072-29.791-.072h.018Z" clip-rule="evenodd"/>
      <path fill="url(#ay)" fill-rule="evenodd" d="M173.237 103.667c0-.215-.233-.359-.575-.377-.539-.036-20.429-.539-21.669-.467-1.438.072-3.522.647-4.223 2.444-.323.826-.395 1.85-.359 2.892v.198-.126s-.09-.898-.126-1.671c-.036-.772-.162-2.497 1.42-4.007 1.563-1.527 3-1.275 4.15-1.275 1.15 0 23.467.521 24.257.539.701 0 .899.125.593.287-.898.503-1.922.791-2.839 1.24-.575.287-.647.449-.647.323h.018Z" clip-rule="evenodd"/>
      <path fill="url(#az)" fill-rule="evenodd" d="M146.788 150.528c0-1.725.665-7.385.665-7.385.79-5.282 2.12-11.32 6.361-18.651 4.24-7.331 12.416-14.823 12.416-14.823 4.258-3.917 6.091-5.067 6.756-5.588.323-.27.341-.504.143-.647-.107-.072.378-.144.899-.288.593-.161 1.509-.503 1.958-.575.683-.108.234-.072-.107.252-.342.341-.971.719-2.911 2.21-1.923 1.491-6.756 5.211-12.452 11.787-5.696 6.576-6.972 10.296-8.373 13.494-1.025 2.318-1.851 5.031-2.498 7.565-.377 1.545-.701 3-.934 4.294-.665 3.881-.575 4.654-.755 6.433 0 0-.018.323-.09.701-.054.269-.18.718-.287.916-.234.467-.396.719-.504.808-.107.072-.305-.053-.305-.485l.018-.018Z" clip-rule="evenodd"/>
      <path fill="url(#aA)" fill-rule="evenodd" d="M174.244 103.201c.593-.27 1.383-.629 2.12-.683.737-.054.144.611-.827 1.365-.736.575-1.617 1.366-5.192 4.313-3.576 2.946-4.852 4.474-7.96 7.6-3.109 3.127-3.378 4.025-5.409 6.972-2.012 2.929-2.821 4.51-3.737 6.433-.917 1.922-2.138 5.444-2.767 7.69-.629 2.246-1.366 6.127-1.564 7.565-.197 1.455-.431 4.132-.431 4.132h-.503c.18-1.761.09-2.551.755-6.414.215-1.276.539-2.75.934-4.295.629-2.533 1.474-5.229 2.498-7.564 1.401-3.199 2.695-6.918 8.373-13.495 5.678-6.576 10.511-10.313 12.452-11.787 1.401-1.078 2.12-1.581 2.533-1.886.863-.683-.988-.036-1.257.071l-.018-.017Z" clip-rule="evenodd"/>
      <path fill="#F9DEE1" fill-rule="evenodd" d="M132.324 80.2553s-.054.5031-.054.4671c-.036-.2695-.09-.539-.108-.8624-.036-.4133.144-.9703 1.114-.9523 1.132.0179 60.409 2.1382 60.894 2.228 1.024.0719 1.438.2336 1.959.5391.629.3773 1.024.9343 1.204 1.3476 0 .0179.071.1797-.108-.0539-.324-.4492-1.024-.9344-1.887-.9883-1.258-.0898-54.192-2.1921-61.074-2.4437-.449 0-.701-.0179-.736-.0179-.414 0-.504.0179-.683.1257-.396.2516-.485.6289-.485.6289l-.036-.0179Z" clip-rule="evenodd"/>
      <path fill="#FC0608" fill-rule="evenodd" d="M133.473 79.4102c1.258.0539 60.158 2.264 60.158 2.264s.88 0 1.671.0898c.683.0898 1.312.3414 1.743.8625.611.7546.718 1.6351.736 2.1202.054 1.5453-.521 2.3359-1.671 5.3006-1.096 2.6414-5.21 10.9067-8.804 22.8917-2.156 6.379-4.492 14.087-5.912 26.898-.539 4.87-.557 5.247-.826 7.96-.216 2.192-.018 2.228-1.995 2.228-1.311 0-28.246-.072-28.605-.072-.198 0-.449 0-.701-.089-.341-.09-.826-.486-.79-1.42.251-4.258.647-6.72 1.868-11.41 1.707-6.576 4.762-12.2 7.511-15.848 3.342-4.42 4.007-5.103 8.93-9.972 3.54-3.504 7.152-6.001 8.427-7.062.593-.485 1.276-1.042 1.851-1.527.467-.395.198-1.168-.413-1.168h-.629c-6.63-.126-24.724-.503-25.551-.503-1.312 0-3.522.97-4.061 3.576-.341 1.491.126 5.803.162 6.54.09 1.24-.485 1.204-.934 1.204-.881 0-8.032-.126-8.05-.126-.234 0-.827-.036-.988-.808-.144-.773-4.313-30.3846-4.349-30.6721-.036-.2875-.054-1.2937 1.222-1.2398v-.0179Z" clip-rule="evenodd"/>
    </g>
  </g>
  <defs>
    <linearGradient id="c" x1="180.856" x2="201.429" y1="110.208" y2="132.29" gradientUnits="userSpaceOnUse">
      <stop offset=".38" stop-color="#BC6800"/>
      <stop offset=".56" stop-color="#C26A00"/>
      <stop offset=".58" stop-color="#C67000"/>
      <stop offset=".61" stop-color="#D28001"/>
      <stop offset=".64" stop-color="#E79A01"/>
      <stop offset=".66" stop-color="#F4AD02"/>
      <stop offset=".68" stop-color="#C67A01"/>
      <stop offset=".7" stop-color="#A35400"/>
      <stop offset=".72" stop-color="#8F3D00"/>
      <stop offset=".73" stop-color="#873500"/>
      <stop offset=".74" stop-color="#853300"/>
      <stop offset=".78" stop-color="#883600"/>
      <stop offset=".8" stop-color="#903F01"/>
      <stop offset=".82" stop-color="#9F4E02"/>
      <stop offset=".84" stop-color="#B46304"/>
      <stop offset=".86" stop-color="#CF7F06"/>
      <stop offset=".88" stop-color="#F1A209"/>
    </linearGradient>
    <linearGradient id="d" x1="184.252" x2="197.674" y1="116.694" y2="121.401" gradientUnits="userSpaceOnUse">
      <stop offset=".38" stop-color="#BC6800"/>
      <stop offset=".54" stop-color="#C26A00" stop-opacity="0"/>
    </linearGradient>
    <linearGradient id="e" x1="200.638" x2="217.888" y1="118.221" y2="130.727" gradientUnits="userSpaceOnUse">
      <stop offset=".15" stop-color="#6C1300"/>
      <stop offset=".41" stop-color="#A04B00"/>
      <stop offset=".56" stop-color="#B86500"/>
      <stop offset=".97" stop-color="#BC6900"/>
    </linearGradient>
    <linearGradient id="f" x1="188.043" x2="223.441" y1="122.785" y2="160.734" gradientUnits="userSpaceOnUse">
      <stop offset=".34" stop-color="#6E1900"/>
      <stop offset=".36" stop-color="#8B3500"/>
      <stop offset=".38" stop-color="#A34D00"/>
      <stop offset=".4" stop-color="#B45E00"/>
      <stop offset=".43" stop-color="#BE6800"/>
      <stop offset=".46" stop-color="#C16B00"/>
      <stop offset=".5" stop-color="#DE8E05"/>
      <stop offset=".54" stop-color="#F6AB09"/>
      <stop offset=".56" stop-color="#FAC407"/>
      <stop offset=".57" stop-color="#F4C105"/>
      <stop offset=".59" stop-color="#D99803"/>
      <stop offset=".6" stop-color="#C67A01"/>
      <stop offset=".61" stop-color="#BA6800"/>
      <stop offset=".62" stop-color="#B66200"/>
      <stop offset=".68" stop-color="#B66300"/>
      <stop offset=".75" stop-color="#BB6700"/>
      <stop offset=".78" stop-color="#C06B00"/>
      <stop offset=".89" stop-color="#C16B00"/>
    </linearGradient>
    <linearGradient id="g" x1="188.241" x2="236" y1="128.05" y2="128.05" gradientUnits="userSpaceOnUse">
      <stop stop-color="#FBD049"/>
      <stop offset="1" stop-color="#FCD55E"/>
    </linearGradient>
    <linearGradient id="h" x1="190.612" x2="225.65" y1="124.744" y2="130.08" gradientUnits="userSpaceOnUse">
      <stop stop-color="#FACE3F"/>
      <stop offset=".07" stop-color="#FBD24F"/>
      <stop offset=".17" stop-color="#FCDA6D"/>
    </linearGradient>
    <linearGradient id="i" x1="195.464" x2="239.252" y1="130.512" y2="119.785" gradientUnits="userSpaceOnUse">
      <stop stop-color="#FBBC00"/>
      <stop offset=".36" stop-color="#FACE3D"/>
      <stop offset=".64" stop-color="#FBD14D"/>
      <stop offset=".74" stop-color="#FBD253"/>
      <stop offset="1" stop-color="#FCD55E"/>
    </linearGradient>
    <linearGradient id="j" x1="190.792" x2="236.755" y1="131.662" y2="120.396" gradientUnits="userSpaceOnUse">
      <stop stop-color="#F8BB00"/>
      <stop offset=".34" stop-color="#F6C300"/>
      <stop offset=".37" stop-color="#F7C818"/>
      <stop offset=".43" stop-color="#F9CF3B"/>
      <stop offset=".48" stop-color="#FBD554"/>
      <stop offset=".53" stop-color="#FCD863"/>
      <stop offset=".56" stop-color="#FCD968"/>
      <stop offset=".67" stop-color="#FCD65F"/>
      <stop offset=".8" stop-color="#FBD04C"/>
      <stop offset=".92" stop-color="#FBD255"/>
      <stop offset="1" stop-color="#FCD55E"/>
    </linearGradient>
    <linearGradient id="k" x1="188.852" x2="236" y1="127.834" y2="127.834" gradientUnits="userSpaceOnUse">
      <stop offset=".33" stop-color="#F8BA00"/>
      <stop offset=".47" stop-color="#FBCE43"/>
      <stop offset=".54" stop-color="#FCD866"/>
      <stop offset=".68" stop-color="#FBD356"/>
      <stop offset=".82" stop-color="#FBD049"/>
      <stop offset="1" stop-color="#F7C907"/>
    </linearGradient>
    <linearGradient id="n" x1="200.029" x2="221.483" y1="120.467" y2="120.467" gradientUnits="userSpaceOnUse">
      <stop offset=".37" stop-color="#A60D1A"/>
      <stop offset=".6" stop-color="#A90E1A"/>
      <stop offset=".76" stop-color="#B2131A"/>
      <stop offset=".85" stop-color="#BA171A"/>
      <stop offset=".92" stop-color="#BD171B"/>
      <stop offset=".97" stop-color="#C5151D"/>
      <stop offset="1" stop-color="#D0141F"/>
    </linearGradient>
    <linearGradient id="o" x1="194.998" x2="194.998" y1="127.206" y2="102.949" gradientUnits="userSpaceOnUse">
      <stop offset=".05" stop-color="#900D1B"/>
      <stop offset=".25" stop-color="#A33751"/>
      <stop offset=".45" stop-color="#B45E83"/>
    </linearGradient>
    <linearGradient id="p" x1="200.873" x2="223.945" y1="149.792" y2="149.792" gradientUnits="userSpaceOnUse">
      <stop offset=".04" stop-color="#D10C14"/>
      <stop offset=".23" stop-color="#BC0C15"/>
      <stop offset=".5" stop-color="#BA0F1A"/>
      <stop offset=".73" stop-color="#B61623"/>
    </linearGradient>
    <linearGradient id="q" x1="200.873" x2="219.74" y1="136.082" y2="136.082" gradientUnits="userSpaceOnUse">
      <stop offset=".08" stop-color="#BC0C15"/>
      <stop offset=".1" stop-color="#BD0C14"/>
      <stop offset=".2" stop-color="#C10B12"/>
    </linearGradient>
    <linearGradient id="r" x1="198.017" x2="202.94" y1="125.211" y2="123.702" gradientUnits="userSpaceOnUse">
      <stop offset=".11" stop-color="#8D1A28" stop-opacity="0"/>
      <stop offset=".19" stop-color="#961926" stop-opacity=".26"/>
      <stop offset=".33" stop-color="#AD1521" stop-opacity=".67"/>
      <stop offset=".44" stop-color="#C4121B"/>
      <stop offset=".57" stop-color="#B1141F" stop-opacity=".61"/>
      <stop offset=".77" stop-color="#8C1928" stop-opacity="0"/>
    </linearGradient>
    <linearGradient id="s" x1="196.345" x2="192.734" y1="125.786" y2="123.702" gradientUnits="userSpaceOnUse">
      <stop offset=".14" stop-color="#8D1928" stop-opacity="0"/>
      <stop offset=".23" stop-color="#9A1622" stop-opacity=".25"/>
      <stop offset=".4" stop-color="#AC121B" stop-opacity=".69"/>
      <stop offset=".51" stop-color="#B31118"/>
      <stop offset=".61" stop-color="#AB131C" stop-opacity=".66"/>
      <stop offset=".78" stop-color="#941825" stop-opacity=".13"/>
      <stop offset=".82" stop-color="#8D1A28" stop-opacity="0"/>
    </linearGradient>
    <linearGradient id="t" x1="220.62" x2="224.412" y1="150.547" y2="149.361" gradientUnits="userSpaceOnUse">
      <stop offset=".08" stop-color="#AF1E2D" stop-opacity="0"/>
      <stop offset=".29" stop-color="#BA1C29" stop-opacity=".42"/>
      <stop offset=".58" stop-color="#D11922"/>
      <stop offset=".75" stop-color="#C41822" stop-opacity=".46"/>
      <stop offset=".91" stop-color="#B61623" stop-opacity="0"/>
    </linearGradient>
    <linearGradient id="u" x1="201.287" x2="204.216" y1="150.097" y2="152.577" gradientUnits="userSpaceOnUse">
      <stop stop-color="#BD1E2E" stop-opacity="0"/>
      <stop offset=".13" stop-color="#C51523" stop-opacity=".4"/>
      <stop offset=".32" stop-color="#D6000A"/>
      <stop offset=".42" stop-color="#CE0611" stop-opacity=".59"/>
      <stop offset=".57" stop-color="#BA1724" stop-opacity="0"/>
    </linearGradient>
    <linearGradient id="v" x1="201.754" x2="223.208" y1="151.858" y2="151.858" gradientUnits="userSpaceOnUse">
      <stop stop-color="#9F1433"/>
      <stop offset=".15" stop-color="#752149"/>
      <stop offset=".5" stop-color="#742149"/>
      <stop offset=".86" stop-color="#752148"/>
      <stop offset=".91" stop-color="#7E1E43"/>
      <stop offset=".99" stop-color="#961636"/>
    </linearGradient>
    <linearGradient id="w" x1="203.389" x2="218.752" y1="113.784" y2="129.272" gradientUnits="userSpaceOnUse">
      <stop stop-color="#721B4A"/>
      <stop offset=".55" stop-color="#791D50"/>
      <stop offset=".59" stop-color="#821C4B"/>
      <stop offset=".65" stop-color="#9C193F"/>
      <stop offset=".68" stop-color="#AF1735"/>
      <stop offset=".81" stop-color="#BF1E2A"/>
    </linearGradient>
    <linearGradient id="x" x1="210.469" x2="210.469" y1="150.169" y2="117.952" gradientUnits="userSpaceOnUse">
      <stop stop-color="#A82B55"/>
      <stop offset=".1" stop-color="#A72C56"/>
      <stop offset=".25" stop-color="#AE2852"/>
      <stop offset=".42" stop-color="#BD214B"/>
      <stop offset=".54" stop-color="#C7264B"/>
      <stop offset=".72" stop-color="#DD314B"/>
      <stop offset=".96" stop-color="#EF2C38"/>
    </linearGradient>
    <linearGradient id="y" x1="194.027" x2="200.424" y1="126.451" y2="126.451" gradientUnits="userSpaceOnUse">
      <stop stop-color="#851931"/>
      <stop offset=".5" stop-color="#651C4B"/>
      <stop offset=".65" stop-color="#6A1C4A"/>
      <stop offset=".81" stop-color="#771E48"/>
      <stop offset=".84" stop-color="#7B1E47"/>
      <stop offset=".93" stop-color="#8A1E42"/>
      <stop offset="1" stop-color="#991E3C"/>
    </linearGradient>
    <linearGradient id="z" x1="189.409" x2="234.779" y1="105.033" y2="105.033" gradientUnits="userSpaceOnUse">
      <stop offset=".04" stop-color="#B58092"/>
      <stop offset=".14" stop-color="#BE8494"/>
      <stop offset=".47" stop-color="#D88E9B"/>
      <stop offset=".77" stop-color="#E8959F"/>
      <stop offset="1" stop-color="#ED97A0"/>
    </linearGradient>
    <linearGradient id="A" x1="189.948" x2="193.416" y1="104.835" y2="126.074" gradientUnits="userSpaceOnUse">
      <stop offset=".03" stop-color="#7D264E"/>
      <stop offset=".48" stop-color="#7D264E"/>
      <stop offset=".78" stop-color="#82254C"/>
      <stop offset=".79" stop-color="#82254B"/>
      <stop offset=".86" stop-color="#891C36"/>
      <stop offset=".92" stop-color="#8E1829"/>
      <stop offset=".99" stop-color="#8F1625"/>
    </linearGradient>
    <linearGradient id="B" x1="190.721" x2="234.743" y1="105.177" y2="105.177" gradientUnits="userSpaceOnUse">
      <stop offset=".04" stop-color="#BABACC"/>
      <stop offset=".2" stop-color="#CAC4D2"/>
      <stop offset=".51" stop-color="#E4D3DB"/>
      <stop offset=".78" stop-color="#F4DDE0"/>
      <stop offset="1" stop-color="#F9E0E2"/>
    </linearGradient>
    <linearGradient id="C" x1="211.438" x2="211.438" y1="150.42" y2="118.778" gradientUnits="userSpaceOnUse">
      <stop stop-color="#C31826" stop-opacity="0"/>
      <stop offset=".03" stop-color="#C81B2A" stop-opacity=".33"/>
      <stop offset=".1" stop-color="#CC1E2E"/>
      <stop offset=".19" stop-color="#D2394B"/>
      <stop offset=".33" stop-color="#D95E73"/>
      <stop offset=".4" stop-color="#DC6C82"/>
      <stop offset=".41" stop-color="#E0798E"/>
      <stop offset=".45" stop-color="#E794A6"/>
      <stop offset=".5" stop-color="#ECA9B8"/>
      <stop offset=".55" stop-color="#F0B8C5"/>
      <stop offset=".6" stop-color="#F2C0CD"/>
      <stop offset=".7" stop-color="#F3C3CF"/>
      <stop offset=".71" stop-color="#F3C7D2"/>
      <stop offset=".74" stop-color="#F4D4D9"/>
      <stop offset=".8" stop-color="#F5DBDE"/>
      <stop offset=".92" stop-color="#F5DDDF"/>
      <stop offset=".96" stop-color="#EBB1BB"/>
      <stop offset=".98" stop-color="#E69BA9"/>
      <stop offset="1" stop-color="#CC6275"/>
    </linearGradient>
    <linearGradient id="D" x1="186.229" x2="229.802" y1="128.302" y2="126.235" gradientUnits="userSpaceOnUse">
      <stop offset=".14" stop-color="#B70709"/>
      <stop offset=".3" stop-color="#D70405"/>
      <stop offset=".45" stop-color="#EF0202"/>
      <stop offset=".55" stop-color="#F80101"/>
      <stop offset=".99" stop-color="#FB0001"/>
    </linearGradient>
    <linearGradient id="E" x1="216.128" x2="216.128" y1="149.882" y2="117.611" gradientUnits="userSpaceOnUse">
      <stop stop-color="#FC171B"/>
      <stop offset=".99" stop-color="#FA2429" stop-opacity="0"/>
    </linearGradient>
    <linearGradient id="F" x1="72.5971" x2="101.023" y1="101.062" y2="128.518" gradientUnits="userSpaceOnUse">
      <stop offset=".18" stop-color="#F8B402"/>
      <stop offset=".2" stop-color="#F7BE01"/>
      <stop offset=".22" stop-color="#F6C200"/>
      <stop offset=".25" stop-color="#F1B402"/>
      <stop offset=".29" stop-color="#EBA304"/>
      <stop offset=".35" stop-color="#E69805"/>
      <stop offset=".42" stop-color="#E49106"/>
      <stop offset=".63" stop-color="#E38F06"/>
      <stop offset=".68" stop-color="#E89407"/>
      <stop offset=".72" stop-color="#EEA704"/>
      <stop offset=".76" stop-color="#F6C200"/>
      <stop offset=".77" stop-color="#E4A800"/>
      <stop offset=".78" stop-color="#D28E00"/>
      <stop offset=".79" stop-color="#BA6B00"/>
      <stop offset=".81" stop-color="#B56300"/>
      <stop offset=".82" stop-color="#B36000"/>
      <stop offset=".88" stop-color="#B66200"/>
      <stop offset=".9" stop-color="#B96500"/>
      <stop offset=".91" stop-color="#BE6D00"/>
      <stop offset=".93" stop-color="#CB8100"/>
      <stop offset=".95" stop-color="#E0A301"/>
      <stop offset=".97" stop-color="#F7C801"/>
    </linearGradient>
    <linearGradient id="G" x1="99.4411" x2="116.134" y1="114.412" y2="126.164" gradientUnits="userSpaceOnUse">
      <stop offset=".3" stop-color="#6C1300"/>
      <stop offset=".53" stop-color="#A04B00"/>
      <stop offset=".67" stop-color="#B86500"/>
      <stop offset=".97" stop-color="#BC6900"/>
    </linearGradient>
    <linearGradient id="H" x1="95.399" x2="128.299" y1="127.152" y2="162.442" gradientUnits="userSpaceOnUse">
      <stop offset=".13" stop-color="#8C3A00"/>
      <stop offset=".17" stop-color="#A04D00"/>
      <stop offset=".22" stop-color="#BA6600"/>
      <stop offset=".3" stop-color="#F1A309"/>
      <stop offset=".31" stop-color="#F6A90A"/>
      <stop offset=".42" stop-color="#E49707"/>
      <stop offset=".44" stop-color="#C77603"/>
      <stop offset=".45" stop-color="#B56201"/>
      <stop offset=".46" stop-color="#AE5B00"/>
      <stop offset=".64" stop-color="#B35F00"/>
      <stop offset=".74" stop-color="#B86400"/>
      <stop offset=".9" stop-color="#C26B00"/>
    </linearGradient>
    <linearGradient id="I" x1="95.399" x2="128.299" y1="127.152" y2="162.442" gradientUnits="userSpaceOnUse">
      <stop offset=".13" stop-color="#8C3A00" stop-opacity="0"/>
      <stop offset=".17" stop-color="#A04D00" stop-opacity="0"/>
      <stop offset=".22" stop-color="#BA6600" stop-opacity="0"/>
      <stop offset=".27" stop-color="#E59006" stop-opacity="0"/>
      <stop offset=".31" stop-color="#E6970A" stop-opacity=".22"/>
      <stop offset=".36" stop-color="#E8AB17" stop-opacity=".54"/>
      <stop offset=".43" stop-color="#ECCC2B" stop-opacity=".93"/>
      <stop offset=".44" stop-color="#EDD22F"/>
      <stop offset=".45" stop-color="#F1CC1E"/>
      <stop offset=".46" stop-color="#F7C100"/>
      <stop offset=".49" stop-color="#D99700" stop-opacity=".7"/>
      <stop offset=".52" stop-color="#C27600" stop-opacity=".41"/>
      <stop offset=".55" stop-color="#B36200" stop-opacity=".16"/>
      <stop offset=".57" stop-color="#AE5B00" stop-opacity="0"/>
      <stop offset=".68" stop-color="#B35F00" stop-opacity="0"/>
      <stop offset=".74" stop-color="#B86400" stop-opacity="0"/>
      <stop offset=".9" stop-color="#C26B00" stop-opacity="0"/>
    </linearGradient>
    <linearGradient id="J" x1="85.9473" x2="139.349" y1="125.768" y2="125.768" gradientUnits="userSpaceOnUse">
      <stop stop-color="#FCD962"/>
      <stop offset="1" stop-color="#FFE6A9"/>
    </linearGradient>
    <linearGradient id="K" x1="133.079" x2="127.725" y1="125.552" y2="124.205" gradientUnits="userSpaceOnUse">
      <stop stop-color="#FCD866"/>
      <stop offset=".03" stop-color="#F0C352"/>
      <stop offset=".1" stop-color="#DC9D2F"/>
      <stop offset=".16" stop-color="#CD8115"/>
      <stop offset=".21" stop-color="#C47105"/>
      <stop offset=".25" stop-color="#C16B00"/>
      <stop offset=".33" stop-color="#C8780F"/>
      <stop offset=".79" stop-color="#EDC05E"/>
      <stop offset="1" stop-color="#FBDC7D"/>
    </linearGradient>
    <linearGradient id="L" x1="139.35" x2="86.6308" y1="108.537" y2="108.537" gradientUnits="userSpaceOnUse">
      <stop offset=".33" stop-color="#F8BA00"/>
      <stop offset=".47" stop-color="#FBCE43"/>
      <stop offset=".54" stop-color="#FCD866"/>
      <stop offset=".68" stop-color="#FBD356"/>
      <stop offset=".82" stop-color="#FBD049"/>
      <stop offset="1" stop-color="#F7C907"/>
    </linearGradient>
    <linearGradient id="N" x1="121.344" x2="121.955" y1="115.868" y2="117.521" gradientUnits="userSpaceOnUse">
      <stop offset=".13" stop-color="#AE0B17"/>
      <stop offset=".29" stop-color="#C54B5E"/>
      <stop offset=".43" stop-color="#D77B93"/>
      <stop offset=".49" stop-color="#DE8EA8"/>
      <stop offset=".71" stop-color="#DD8CA6"/>
      <stop offset=".82" stop-color="#D8849F"/>
      <stop offset=".91" stop-color="#D07793"/>
      <stop offset=".98" stop-color="#C46482"/>
      <stop offset="1" stop-color="#C05E7C"/>
    </linearGradient>
    <linearGradient id="O" x1="99.6397" x2="122.765" y1="117.754" y2="117.754" gradientUnits="userSpaceOnUse">
      <stop stop-color="#7A1C4E"/>
      <stop offset=".25" stop-color="#791D50"/>
      <stop offset=".45" stop-color="#791D50"/>
      <stop offset=".63" stop-color="#761946"/>
      <stop offset=".71" stop-color="#7A1841"/>
      <stop offset=".93" stop-color="#81163A"/>
      <stop offset=".96" stop-color="#8A123B" stop-opacity=".78"/>
      <stop offset="1" stop-color="#A6073E" stop-opacity=".4"/>
    </linearGradient>
    <linearGradient id="P" x1="112.505" x2="112.505" y1="124.888" y2="98.6182" gradientUnits="userSpaceOnUse">
      <stop offset=".06" stop-color="#A90C16"/>
      <stop offset=".07" stop-color="#AD0D17"/>
      <stop offset=".12" stop-color="#C3101B"/>
      <stop offset=".18" stop-color="#D0121E"/>
      <stop offset=".23" stop-color="#D4131F"/>
      <stop offset=".25" stop-color="#D51A28"/>
      <stop offset=".33" stop-color="#DB3249"/>
      <stop offset=".41" stop-color="#DF4461"/>
      <stop offset=".49" stop-color="#E14E6F"/>
      <stop offset=".55" stop-color="#E25274"/>
      <stop offset=".65" stop-color="#E45C7A"/>
      <stop offset=".83" stop-color="#E8778B"/>
      <stop offset="1" stop-color="#ED97A0"/>
    </linearGradient>
    <linearGradient id="Q" x1="93.4049" x2="91.123" y1="123.972" y2="121.726" gradientUnits="userSpaceOnUse">
      <stop offset=".1" stop-color="#CF2334" stop-opacity="0"/>
      <stop offset=".19" stop-color="#D41E2C" stop-opacity=".3"/>
      <stop offset=".41" stop-color="#DC141E"/>
      <stop offset=".64" stop-color="#D61A28" stop-opacity=".44"/>
      <stop offset=".83" stop-color="#CE2233" stop-opacity="0"/>
    </linearGradient>
    <linearGradient id="R" x1="100.771" x2="121.758" y1="134.285" y2="134.285" gradientUnits="userSpaceOnUse">
      <stop stop-color="#BF0832"/>
      <stop offset=".23" stop-color="#B30445"/>
      <stop offset=".31" stop-color="#BE0E46"/>
      <stop offset=".4" stop-color="#C21246"/>
      <stop offset=".52" stop-color="#C81C46"/>
      <stop offset=".7" stop-color="#D43147"/>
      <stop offset="1" stop-color="#BE2F41"/>
    </linearGradient>
    <linearGradient id="S" x1="111.426" x2="111.426" y1="152.631" y2="116.604" gradientUnits="userSpaceOnUse">
      <stop stop-color="#AD0911" stop-opacity=".1"/>
      <stop offset=".01" stop-color="#BD0B12" stop-opacity=".35"/>
      <stop offset=".02" stop-color="#C70C13" stop-opacity=".63"/>
      <stop offset=".04" stop-color="#CA0C13"/>
      <stop offset=".07" stop-color="#D0242B"/>
      <stop offset=".11" stop-color="#D94149"/>
      <stop offset=".15" stop-color="#DF5961"/>
      <stop offset=".2" stop-color="#E36972"/>
      <stop offset=".25" stop-color="#E6737C"/>
      <stop offset=".32" stop-color="#E7767F"/>
      <stop offset=".54" stop-color="#ED9A9F"/>
      <stop offset=".56" stop-color="#F0A6AB"/>
      <stop offset=".6" stop-color="#F3B5BA"/>
      <stop offset=".65" stop-color="#F4BDC2"/>
      <stop offset=".72" stop-color="#F5C0C5"/>
      <stop offset=".73" stop-color="#F5C7CC"/>
      <stop offset=".76" stop-color="#F5D4D7"/>
      <stop offset=".8" stop-color="#F5DBDD"/>
      <stop offset=".89" stop-color="#F5DDDF"/>
      <stop offset=".9" stop-color="#E8D9DF"/>
      <stop offset=".91" stop-color="#DCD6DF"/>
      <stop offset=".94" stop-color="#D5D5DF"/>
      <stop offset="1" stop-color="#D3D4DF"/>
    </linearGradient>
    <linearGradient id="T" x1="147.363" x2="117.158" y1="116.371" y2="141.706" gradientUnits="userSpaceOnUse">
      <stop stop-color="#84141E"/>
      <stop offset=".51" stop-color="#86141E" stop-opacity=".49"/>
      <stop offset=".73" stop-color="#8D1520" stop-opacity=".27"/>
      <stop offset=".89" stop-color="#9A1522" stop-opacity=".11"/>
      <stop offset="1" stop-color="#A71624" stop-opacity="0"/>
    </linearGradient>
    <linearGradient id="U" x1="100.662" x2="106.897" y1="152.002" y2="145.767" gradientUnits="userSpaceOnUse">
      <stop offset=".28" stop-color="#CA0B11"/>
      <stop offset="1" stop-color="#C90A10" stop-opacity="0"/>
    </linearGradient>
    <linearGradient id="V" x1="89.7385" x2="89.7385" y1="123.289" y2="98.6182" gradientUnits="userSpaceOnUse">
      <stop stop-color="#AB1732"/>
      <stop offset=".25" stop-color="#B21F3E"/>
      <stop offset=".49" stop-color="#A72A55"/>
      <stop offset=".92" stop-color="#AB335A"/>
      <stop offset=".95" stop-color="#B54264"/>
      <stop offset=".97" stop-color="#BD4E6C"/>
    </linearGradient>
    <linearGradient id="W" x1="92.3264" x2="99.8191" y1="124.169" y2="124.169" gradientUnits="userSpaceOnUse">
      <stop stop-color="#9F1433"/>
      <stop offset=".22" stop-color="#8C1A3E"/>
      <stop offset=".5" stop-color="#78204A"/>
      <stop offset=".68" stop-color="#7F1E45"/>
      <stop offset=".96" stop-color="#931738"/>
      <stop offset=".99" stop-color="#961636"/>
    </linearGradient>
    <linearGradient id="Y" x1="85.4254" x2="132.269" y1="138.131" y2="111.089" gradientUnits="userSpaceOnUse">
      <stop offset=".11" stop-color="#F91D24"/>
      <stop offset=".61" stop-color="#F51115"/>
      <stop offset="1" stop-color="#D11015"/>
    </linearGradient>
    <linearGradient id="Z" x1="112.486" x2="116.978" y1="98.1514" y2="152.056" gradientUnits="userSpaceOnUse">
      <stop offset=".11" stop-color="#F90202"/>
      <stop offset=".61" stop-color="#F60102"/>
      <stop offset="1" stop-color="#F00101"/>
    </linearGradient>
    <linearGradient id="aa" x1="102.082" x2="126.717" y1="151.93" y2="151.93" gradientUnits="userSpaceOnUse">
      <stop stop-color="#9F1433"/>
      <stop offset=".2" stop-color="#752149"/>
      <stop offset=".5" stop-color="#742149"/>
      <stop offset=".8" stop-color="#752148"/>
      <stop offset=".87" stop-color="#7E1E43"/>
      <stop offset=".99" stop-color="#961636"/>
    </linearGradient>
    <linearGradient id="ad" x1="112.361" x2="148.765" y1="80.7043" y2="119.749" gradientUnits="userSpaceOnUse">
      <stop offset=".17" stop-color="#F8BA00"/>
      <stop offset=".18" stop-color="#F8B502"/>
      <stop offset=".21" stop-color="#F8B203"/>
      <stop offset=".51" stop-color="#F7B004"/>
      <stop offset=".65" stop-color="#F4A907"/>
      <stop offset=".71" stop-color="#F2A209"/>
      <stop offset=".75" stop-color="#EA9908"/>
      <stop offset=".76" stop-color="#D47F03"/>
      <stop offset=".77" stop-color="#C77001"/>
      <stop offset=".78" stop-color="#C26A00"/>
      <stop offset=".82" stop-color="#B66100"/>
      <stop offset=".86" stop-color="#B15E00"/>
      <stop offset=".92" stop-color="#BF6A00"/>
      <stop offset=".93" stop-color="#C16B00"/>
    </linearGradient>
    <linearGradient id="ae" x1="141.092" x2="125.855" y1="95.9589" y2="99.0315" gradientUnits="userSpaceOnUse">
      <stop offset=".09" stop-color="#F8BA00" stop-opacity="0"/>
      <stop offset=".17" stop-color="#E4A000" stop-opacity=".15"/>
      <stop offset=".29" stop-color="#CE8300" stop-opacity=".36"/>
      <stop offset=".4" stop-color="#BE6F00" stop-opacity=".56"/>
      <stop offset=".51" stop-color="#B46200" stop-opacity=".77"/>
      <stop offset=".62" stop-color="#B15E00" stop-opacity=".96"/>
      <stop offset=".63" stop-color="#B15E00" stop-opacity=".97"/>
      <stop offset=".71" stop-color="#B15E00"/>
      <stop offset=".97" stop-color="#BF6A00" stop-opacity=".09"/>
      <stop offset="1" stop-color="#C16B00" stop-opacity="0"/>
    </linearGradient>
    <linearGradient id="af" x1="153.759" x2="161.432" y1="101.188" y2="114.394" gradientUnits="userSpaceOnUse">
      <stop offset=".12" stop-color="#6F1700"/>
      <stop offset=".36" stop-color="#984300"/>
      <stop offset=".52" stop-color="#AF5C00"/>
      <stop offset=".64" stop-color="#AC5900"/>
      <stop offset=".73" stop-color="#A34F00"/>
      <stop offset=".81" stop-color="#943F00"/>
      <stop offset=".88" stop-color="#7F2800"/>
      <stop offset=".89" stop-color="#7C2500"/>
    </linearGradient>
    <linearGradient id="ag" x1="142.026" x2="179.741" y1="119.946" y2="160.41" gradientUnits="userSpaceOnUse">
      <stop offset=".08" stop-color="#711D00"/>
      <stop offset=".18" stop-color="#B76400"/>
      <stop offset=".19" stop-color="#C26F02"/>
      <stop offset=".22" stop-color="#D38004"/>
      <stop offset=".25" stop-color="#E08C06"/>
      <stop offset=".3" stop-color="#E79307"/>
      <stop offset=".41" stop-color="#E99507"/>
      <stop offset=".48" stop-color="#F8BD00"/>
      <stop offset=".52" stop-color="#C16B00"/>
      <stop offset=".62" stop-color="#B86500"/>
      <stop offset=".81" stop-color="#B76500"/>
      <stop offset=".91" stop-color="#B86500"/>
    </linearGradient>
    <linearGradient id="ah" x1="157.209" x2="184.646" y1="83.0577" y2="148.48" gradientUnits="userSpaceOnUse">
      <stop stop-color="#FDEE75"/>
      <stop offset="1" stop-color="#FFDF85"/>
    </linearGradient>
    <linearGradient id="ai" x1="164.325" x2="164.325" y1="146.467" y2="78.9604" gradientUnits="userSpaceOnUse">
      <stop stop-color="#F8CB24"/>
      <stop offset=".06" stop-color="#F9CD2E"/>
      <stop offset=".35" stop-color="#FBD557"/>
      <stop offset=".5" stop-color="#FCD867"/>
      <stop offset=".6" stop-color="#FCD969"/>
      <stop offset=".79" stop-color="#FCD968"/>
      <stop offset="1" stop-color="#FCD96A"/>
    </linearGradient>
    <linearGradient id="am" x1="129.575" x2="132.18" y1="116.047" y2="119.048" gradientUnits="userSpaceOnUse">
      <stop stop-color="#F2A209" stop-opacity="0"/>
      <stop offset=".19" stop-color="#F0AA09" stop-opacity=".41"/>
      <stop offset=".46" stop-color="#EFAE09"/>
      <stop offset=".51" stop-color="#E8A308" stop-opacity=".83"/>
      <stop offset=".6" stop-color="#D48504" stop-opacity=".53"/>
      <stop offset=".66" stop-color="#C16900" stop-opacity=".3"/>
    </linearGradient>
    <linearGradient id="an" x1="124.994" x2="126.88" y1="80.7219" y2="82.8961" gradientUnits="userSpaceOnUse">
      <stop stop-color="#F2A209" stop-opacity="0"/>
      <stop offset=".3" stop-color="#EF9F09"/>
      <stop offset=".79" stop-color="#F3AA04" stop-opacity=".11"/>
      <stop offset=".85" stop-color="#F4AC03" stop-opacity="0"/>
    </linearGradient>
    <linearGradient id="ao" x1="151.98" x2="190.037" y1="116.623" y2="116.623" gradientUnits="userSpaceOnUse">
      <stop offset=".04" stop-color="#D10C14"/>
      <stop offset=".23" stop-color="#C10B12"/>
      <stop offset=".52" stop-color="#C10C14"/>
      <stop offset=".63" stop-color="#C30E1B"/>
      <stop offset=".71" stop-color="#C61126"/>
      <stop offset=".77" stop-color="#CA1637"/>
      <stop offset=".8" stop-color="#CE1A45"/>
      <stop offset=".82" stop-color="#CA1947"/>
      <stop offset=".93" stop-color="#B31652"/>
      <stop offset="1" stop-color="#AB1556"/>
    </linearGradient>
    <linearGradient id="ap" x1="176.686" x2="182.508" y1="150.834" y2="148.031" gradientUnits="userSpaceOnUse">
      <stop offset=".26" stop-color="#CF2334" stop-opacity="0"/>
      <stop offset=".35" stop-color="#D71827" stop-opacity=".29"/>
      <stop offset=".57" stop-color="#E8000B"/>
      <stop offset=".65" stop-color="#E40612" stop-opacity=".7"/>
      <stop offset=".77" stop-color="#D81524" stop-opacity=".27"/>
      <stop offset=".85" stop-color="#CE2233" stop-opacity="0"/>
    </linearGradient>
    <linearGradient id="aq" x1="150.381" x2="147.236" y1="151.678" y2="148.857" gradientUnits="userSpaceOnUse">
      <stop offset=".26" stop-color="#CF2334" stop-opacity="0"/>
      <stop offset=".35" stop-color="#D71827" stop-opacity=".29"/>
      <stop offset=".57" stop-color="#E8000B"/>
      <stop offset=".65" stop-color="#E40612" stop-opacity=".7"/>
      <stop offset=".77" stop-color="#D81524" stop-opacity=".27"/>
      <stop offset=".85" stop-color="#CE2233" stop-opacity="0"/>
    </linearGradient>
    <linearGradient id="ar" x1="161.251" x2="161.826" y1="99.3911" y2="104.009" gradientUnits="userSpaceOnUse">
      <stop offset=".71" stop-color="#D11921"/>
      <stop offset=".77" stop-color="#C5181D"/>
      <stop offset=".85" stop-color="#BA171A"/>
      <stop offset=".9" stop-color="#BD181C"/>
      <stop offset=".93" stop-color="#C51D21"/>
      <stop offset=".96" stop-color="#D42529"/>
      <stop offset=".98" stop-color="#E93135"/>
      <stop offset="1" stop-color="#FF3D42"/>
    </linearGradient>
    <linearGradient id="as" x1="164.288" x2="164.288" y1="114.287" y2="78.4941" gradientUnits="userSpaceOnUse">
      <stop stop-color="#A90C16"/>
      <stop offset=".05" stop-color="#B00D17"/>
      <stop offset=".12" stop-color="#C2101B"/>
      <stop offset=".17" stop-color="#D4131F"/>
      <stop offset=".19" stop-color="#D51A28"/>
      <stop offset=".29" stop-color="#DB3249"/>
      <stop offset=".39" stop-color="#DF4461"/>
      <stop offset=".48" stop-color="#E14E6F"/>
      <stop offset=".55" stop-color="#E25274"/>
      <stop offset=".65" stop-color="#E45C7A"/>
      <stop offset=".83" stop-color="#E8778B"/>
      <stop offset="1" stop-color="#ED97A0"/>
    </linearGradient>
    <linearGradient id="at" x1="144.002" x2="148.297" y1="111.07" y2="109.597" gradientUnits="userSpaceOnUse">
      <stop offset=".12" stop-color="#CF2334" stop-opacity="0"/>
      <stop offset=".41" stop-color="#DC141E"/>
      <stop offset=".61" stop-color="#D81825" stop-opacity=".53"/>
      <stop offset=".85" stop-color="#CE2233" stop-opacity="0"/>
    </linearGradient>
    <linearGradient id="au" x1="138.629" x2="136.006" y1="112.507" y2="109.884" gradientUnits="userSpaceOnUse">
      <stop offset=".14" stop-color="#CF2334" stop-opacity="0"/>
      <stop offset=".43" stop-color="#DC141E"/>
      <stop offset=".58" stop-color="#D81825" stop-opacity=".53"/>
      <stop offset=".76" stop-color="#CE2233" stop-opacity="0"/>
    </linearGradient>
    <linearGradient id="av" x1="136.042" x2="131.46" y1="111.124" y2="77.7574" gradientUnits="userSpaceOnUse">
      <stop stop-color="#A72B55"/>
      <stop offset=".23" stop-color="#A62B56"/>
      <stop offset=".48" stop-color="#A62B56"/>
      <stop offset=".91" stop-color="#A62B56"/>
      <stop offset=".92" stop-color="#AD355D"/>
      <stop offset=".95" stop-color="#BC4A6B"/>
      <stop offset=".97" stop-color="#C55773"/>
      <stop offset=".99" stop-color="#C85B76"/>
    </linearGradient>
    <linearGradient id="aw" x1="136.33" x2="146.518" y1="113.478" y2="113.478" gradientUnits="userSpaceOnUse">
      <stop stop-color="#9F1433"/>
      <stop offset=".15" stop-color="#8D193D"/>
      <stop offset=".35" stop-color="#7E1E47"/>
      <stop offset=".5" stop-color="#78204A"/>
      <stop offset=".68" stop-color="#7C1F48"/>
      <stop offset=".85" stop-color="#871B40"/>
      <stop offset=".99" stop-color="#961636"/>
    </linearGradient>
    <linearGradient id="ax" x1="147.918" x2="180.225" y1="151.535" y2="151.535" gradientUnits="userSpaceOnUse">
      <stop stop-color="#9F1433"/>
      <stop offset=".15" stop-color="#752149"/>
      <stop offset=".5" stop-color="#742149"/>
      <stop offset=".86" stop-color="#752148"/>
      <stop offset=".91" stop-color="#7E1E43"/>
      <stop offset=".99" stop-color="#961636"/>
    </linearGradient>
    <linearGradient id="ay" x1="147.992" x2="171.279" y1="97.2887" y2="110.729" gradientUnits="userSpaceOnUse">
      <stop stop-color="#801D52"/>
      <stop offset=".25" stop-color="#791D50"/>
      <stop offset=".72" stop-color="#791D50"/>
      <stop offset=".88" stop-color="#80173C"/>
      <stop offset=".89" stop-color="#81163A"/>
      <stop offset=".93" stop-color="#85143A" stop-opacity=".94"/>
      <stop offset=".96" stop-color="#920F3C" stop-opacity=".87"/>
      <stop offset="1" stop-color="#A6073E" stop-opacity=".8"/>
    </linearGradient>
    <linearGradient id="az" x1="161.558" x2="161.558" y1="149.828" y2="103.326" gradientUnits="userSpaceOnUse">
      <stop stop-color="#C1073D"/>
      <stop offset=".03" stop-color="#B60442"/>
      <stop offset=".07" stop-color="#B30344"/>
      <stop offset=".21" stop-color="#BA0944"/>
      <stop offset=".41" stop-color="#CE1A45"/>
      <stop offset=".57" stop-color="#D82346"/>
      <stop offset=".63" stop-color="#DD2847"/>
      <stop offset=".98" stop-color="#DE3047"/>
      <stop offset="1" stop-color="#CC294F"/>
    </linearGradient>
    <linearGradient id="aA" x1="161.72" x2="162.924" y1="148.624" y2="103.201" gradientUnits="userSpaceOnUse">
      <stop stop-color="#D91326" stop-opacity="0"/>
      <stop offset=".02" stop-color="#DC2435" stop-opacity=".11"/>
      <stop offset=".06" stop-color="#E13F4E" stop-opacity=".33"/>
      <stop offset=".1" stop-color="#E45360" stop-opacity=".55"/>
      <stop offset=".14" stop-color="#E65F6A" stop-opacity=".77"/>
      <stop offset=".19" stop-color="#E7636E"/>
      <stop offset=".32" stop-color="#EA7E86"/>
      <stop offset=".45" stop-color="#EC9298"/>
      <stop offset=".54" stop-color="#ED9A9F"/>
      <stop offset=".56" stop-color="#F0A6AB"/>
      <stop offset=".6" stop-color="#F3B5BA"/>
      <stop offset=".65" stop-color="#F4BDC2"/>
      <stop offset=".72" stop-color="#F5C0C5"/>
      <stop offset=".73" stop-color="#F5C7CC"/>
      <stop offset=".76" stop-color="#F5D4D7"/>
      <stop offset=".8" stop-color="#F5DBDD"/>
      <stop offset=".89" stop-color="#F5DDDF"/>
    </linearGradient>
    <pattern id="l" width="1" height="1" patternContentUnits="objectBoundingBox">
      <use xlink:href="#aB" transform="scale(.00278 .02128)"/>
    </pattern>
    <pattern id="m" width="1" height="1" patternContentUnits="objectBoundingBox">
      <use xlink:href="#aC" transform="scale(.00262 .02564)"/>
    </pattern>
    <pattern id="M" width="1" height="1" patternContentUnits="objectBoundingBox">
      <use xlink:href="#aD" transform="scale(.00239 .03333)"/>
    </pattern>
    <pattern id="ac" width="1" height="1" patternContentUnits="objectBoundingBox">
      <use xlink:href="#aE" transform="scale(.00128 .00149)"/>
    </pattern>
    <pattern id="aj" width="1" height="1" patternContentUnits="objectBoundingBox">
      <use xlink:href="#aF" transform="scale(.00568 .04762)"/>
    </pattern>
    <pattern id="ak" width="1" height="1" patternContentUnits="objectBoundingBox">
      <use xlink:href="#aG" transform="scale(.00213 .01818)"/>
    </pattern>
    <pattern id="al" width="1" height="1" patternContentUnits="objectBoundingBox">
      <use xlink:href="#aH" transform="scale(.00177 .02941)"/>
    </pattern>
    <clipPath id="b">
      <path fill="#fff" d="M0 0h156v83.1928H0z" transform="translate(80 76.5352)"/>
    </clipPath>
    <filter id="a" width="316" height="243.193" x="0" y=".535156" color-interpolation-filters="sRGB" filterUnits="userSpaceOnUse">
      <feFlood flood-opacity="0" result="BackgroundImageFix"/>
      <feColorMatrix in="SourceAlpha" result="hardAlpha" values="0 0 0 0 0 0 0 0 0 0 0 0 0 0 0 0 0 0 127 0"/>
      <feOffset dy="4"/>
      <feGaussianBlur stdDeviation="40"/>
      <feColorMatrix values="0 0 0 0 1 0 0 0 0 0.741176 0 0 0 0 0 0 0 0 0.5 0"/>
      <feBlend in2="BackgroundImageFix" result="effect1_dropShadow_57_1671"/>
      <feBlend in="SourceGraphic" in2="effect1_dropShadow_57_1671" result="shape"/>
    </filter>
  </defs>
</svg>
