<svg width="32" height="32" viewBox="0 0 32 32" fill="none" xmlns="http://www.w3.org/2000/svg">
<path d="M24.3809 8.38101H25.9048M6.85714 0.761963H25.1429C28.5092 0.761963 31.2381 3.49089 31.2381 6.8572V25.1429C31.2381 28.5092 28.5092 31.2382 25.1429 31.2382H6.85714C3.49083 31.2382 0.761902 28.5092 0.761902 25.1429V6.8572C0.761902 3.49089 3.49083 0.761963 6.85714 0.761963ZM16 22.0953C12.6337 22.0953 9.90476 19.3664 9.90476 16.0001C9.90476 12.6338 12.6337 9.90482 16 9.90482C19.3663 9.90482 22.0952 12.6338 22.0952 16.0001C22.0952 19.3664 19.3663 22.0953 16 22.0953Z" stroke="#F2F2F2"/>
</svg>
