<svg width="32" height="29" viewBox="0 0 32 29" fill="none" xmlns="http://www.w3.org/2000/svg">
<path d="M31.1911 1.04761L31.69 1.01453C31.6767 0.813959 31.5445 0.640852 31.3546 0.575107C31.1646 0.509363 30.9538 0.563765 30.8193 0.713204L31.1911 1.04761ZM29.5175 7.48876C29.5175 7.21262 29.2937 6.98876 29.0175 6.98876C28.7414 6.98876 28.5175 7.21262 28.5175 7.48876H29.5175ZM16 9.42856V9.92856H16.5V9.42856H16ZM2.93541 1.04761L3.40367 0.872283C3.3339 0.685947 3.16029 0.558711 2.96159 0.548293C2.7629 0.537875 2.57693 0.646259 2.48806 0.824277L2.93541 1.04761ZM11.4286 20.8571L11.7824 21.2104C11.9048 21.0879 11.955 20.9107 11.9152 20.7422C11.8754 20.5736 11.7512 20.4377 11.5869 20.3829L11.4286 20.8571ZM0.761902 24.9932V24.4932C0.541634 24.4932 0.347313 24.6373 0.283408 24.8481C0.219502 25.0589 0.301069 25.2867 0.484255 25.409L0.761902 24.9932ZM27.3547 3.16653L26.9838 3.50187L27.164 3.70112L27.4295 3.66089L27.3547 3.16653ZM30.6922 1.08068C30.8064 2.80343 30.7076 3.92571 30.3935 4.81126C30.0831 5.68636 29.5444 6.38089 28.6716 7.21721L29.3635 7.93923C30.2868 7.0545 30.9507 6.23159 31.336 5.14559C31.7175 4.07003 31.8075 2.78753 31.69 1.01453L30.6922 1.08068ZM29.5175 9.0748V7.57822H28.5175V9.0748H29.5175ZM29.5175 7.57822V7.48876H28.5175V7.57822H29.5175ZM15.5 7.90475V9.42856H16.5V7.90475H15.5ZM22.5863 0.547607C18.6342 0.547607 15.5 3.99859 15.5 7.90475H16.5C16.5 4.49858 19.2374 1.54761 22.5863 1.54761V0.547607ZM28.5175 9.0748C28.5175 18.8022 20.3591 27.2143 10.6667 27.2143V28.2143C20.9309 28.2143 29.5175 19.3348 29.5175 9.0748H28.5175ZM2.46716 1.22293C3.60567 4.26364 7.91189 9.92856 16 9.92856V8.92856C8.43883 8.92856 4.43867 3.63656 3.40367 0.872283L2.46716 1.22293ZM2.48806 0.824277C0.267451 5.27236 -0.0911589 9.56313 1.42272 13.186C2.9366 16.8088 6.28216 19.6661 11.2702 21.3314L11.5869 20.3829C6.79417 18.7828 3.71965 16.0891 2.3454 12.8004C0.97114 9.51168 1.25635 5.53033 3.38277 1.27094L2.48806 0.824277ZM11.0747 20.5039C9.69694 21.8838 5.8167 24.4932 0.761902 24.4932V25.4932C6.13996 25.4932 10.2622 22.733 11.7824 21.2104L11.0747 20.5039ZM27.7255 2.83119C26.4581 1.42946 24.6248 0.547607 22.5863 0.547607V1.54761C24.3301 1.54761 25.8978 2.30077 26.9838 3.50187L27.7255 2.83119ZM27.4295 3.66089C28.9452 3.43135 30.4386 2.63167 31.5628 1.38201L30.8193 0.713204C29.8439 1.79747 28.5576 2.47864 27.2798 2.67217L27.4295 3.66089ZM0.484255 25.409C3.85277 27.6582 7.09248 28.2143 10.6667 28.2143V27.2143C7.21648 27.2143 4.19156 26.6819 1.03955 24.5774L0.484255 25.409Z" fill="#F2F2F2"/>
</svg>
