<svg width="100" height="108" viewBox="0 0 100 108" fill="none" xmlns="http://www.w3.org/2000/svg">
<path fill-rule="evenodd" clip-rule="evenodd" d="M75.4122 2.78255C58.6756 -0.927517 41.3194 -0.927517 24.5828 2.78255L22.7795 3.17821C18.0717 4.222 13.7478 6.5396 10.2882 9.87355C6.82861 13.2075 4.36873 17.4273 3.18183 22.0641C-1.06061 38.6421 -1.06061 56.0084 3.18183 72.5865C4.31373 77.0086 6.60453 81.0554 9.82201 84.3165C13.0395 87.5776 17.0692 89.9371 21.5027 91.1558L23.9764 105.8C24.0554 106.265 24.2586 106.701 24.5649 107.062C24.8713 107.422 25.2695 107.695 25.7182 107.851C26.1669 108.007 26.6496 108.041 27.116 107.95C27.5825 107.858 28.0157 107.644 28.3704 107.33L42.8984 94.4424C53.8042 95.1024 64.7494 94.2375 75.4122 91.8733L77.2209 91.4776C81.9287 90.4338 86.2525 88.1163 89.7121 84.7823C93.1717 81.4484 95.6316 77.2286 96.8185 72.5918C101.061 56.0137 101.061 38.6475 96.8185 22.0694C95.6312 17.4319 93.1705 13.2116 89.7099 9.87763C86.2493 6.54362 81.9243 4.22641 77.2155 3.18348L75.4122 2.78255ZM29.0726 21.6368C28.0839 21.4941 27.0758 21.6914 26.216 22.196H26.1415C24.1466 23.3566 22.3486 24.8178 20.8165 26.5376C19.5398 27.9989 18.8482 29.476 18.6674 30.9004C18.561 31.7444 18.6354 32.599 18.8855 33.4062L18.9812 33.4589C20.4175 37.6423 22.2901 41.6674 24.5775 45.4552C27.527 50.7753 31.1566 55.6957 35.3764 60.0944L35.5041 60.2737L35.7062 60.4214L35.8286 60.5639L35.9775 60.6905C40.4286 64.8878 45.402 68.5043 50.7768 71.4523C56.921 74.7705 60.6501 76.3373 62.8897 76.9914V77.0231C63.544 77.2235 64.1398 77.3132 64.7409 77.3132C66.6483 77.1734 68.4536 76.4046 69.8691 75.1292C71.598 73.6099 73.0609 71.8215 74.1993 69.8327V69.7958C75.2686 67.7911 74.9068 65.9026 73.3641 64.6206C70.2654 61.9356 66.9147 59.5509 63.3578 57.4989C60.9746 56.2169 58.5542 56.9924 57.5754 58.2902L55.4847 60.9068C54.4102 62.2045 52.4632 62.0251 52.4632 62.0251L52.41 62.0568C37.882 58.3799 34.0039 43.7934 34.0039 43.7934C34.0039 43.7934 33.8231 41.8099 35.169 40.797L37.7862 38.7079C39.0417 37.6951 39.9141 35.3 38.5682 32.9367C36.5127 29.4062 34.1127 26.0843 31.4026 23.0189C30.8116 22.2975 29.9826 21.8062 29.062 21.6315L29.0726 21.6368ZM53.6175 15.2958C52.9121 15.2958 52.2356 15.5737 51.7368 16.0683C51.2379 16.563 50.9577 17.2339 50.9577 17.9335C50.9577 18.633 51.2379 19.3039 51.7368 19.7986C52.2356 20.2933 52.9121 20.5712 53.6175 20.5712C60.3469 20.5712 65.9326 22.7499 70.3532 26.928C72.6247 29.2122 74.3961 31.9185 75.5558 34.8833C76.7208 37.8533 77.2528 41.0238 77.1145 44.1996C77.0998 44.546 77.1541 44.8919 77.2742 45.2174C77.3943 45.543 77.5779 45.842 77.8145 46.0972C78.2924 46.6126 78.9572 46.9187 79.6626 46.9481C80.368 46.9775 81.0563 46.7278 81.5761 46.2539C82.0959 45.78 82.4045 45.1207 82.4341 44.4212C82.5992 40.5147 81.9452 36.6167 80.5137 32.9736C79.076 29.3132 76.8961 25.9843 74.1089 23.193L74.0557 23.1403C68.5711 17.944 61.6289 15.2958 53.6175 15.2958ZM53.4367 23.9685C52.7312 23.9685 52.0547 24.2464 51.5559 24.7411C51.0571 25.2357 50.7768 25.9066 50.7768 26.6062C50.7768 27.3058 51.0571 27.9767 51.5559 28.4713C52.0547 28.966 52.7312 29.2439 53.4367 29.2439H53.5271C58.3786 29.5868 61.9109 31.1905 64.3845 33.8229C66.922 36.5345 68.236 39.9054 68.1349 44.073C68.1187 44.7726 68.3833 45.4499 68.8707 45.9559C69.358 46.4619 70.0281 46.7553 70.7335 46.7714C71.439 46.7875 72.122 46.525 72.6322 46.0417C73.1425 45.5584 73.4383 44.8939 73.4546 44.1943C73.5822 38.7238 71.8055 34.0023 68.2838 30.2357V30.2251C64.6824 26.3952 59.7405 24.3694 53.7931 23.9738L53.7027 23.9632L53.4367 23.9685ZM53.3356 32.8048C52.9796 32.7736 52.621 32.8139 52.2811 32.9233C51.9412 33.0326 51.627 33.2088 51.3572 33.4412C51.0875 33.6736 50.8678 33.9576 50.7111 34.2761C50.5545 34.5946 50.4642 34.9411 50.4456 35.295C50.427 35.6489 50.4805 36.0029 50.6029 36.3358C50.7253 36.6687 50.9141 36.9738 51.158 37.2328C51.402 37.4917 51.696 37.6993 52.0226 37.8431C52.3492 37.9869 52.7017 38.0639 53.059 38.0696C55.2826 38.1857 56.7029 38.8504 57.5966 39.7419C58.4957 40.6387 59.1659 42.0789 59.2883 44.3315C59.2949 44.6855 59.3734 45.0345 59.5189 45.3578C59.6644 45.6811 59.8741 45.972 60.1355 46.2132C60.3968 46.4544 60.7044 46.641 61.04 46.7618C61.3755 46.8826 61.7322 46.9352 62.0887 46.9164C62.4452 46.8977 62.7943 46.8079 63.1151 46.6525C63.4358 46.4971 63.7218 46.2793 63.9559 46.012C64.19 45.7447 64.3674 45.4334 64.4776 45.0966C64.5878 44.7599 64.6285 44.4046 64.5973 44.0519C64.4271 40.8867 63.427 38.0907 61.3789 36.0333C59.3202 33.9759 56.5167 32.9736 53.3356 32.8048Z" fill="#AB37F2"/>
</svg>
