<svg width="130" height="54" viewBox="0 0 130 54" fill="none" xmlns="http://www.w3.org/2000/svg">
<path d="M4.76911 25.5594H4.33305L0.878644 20.382H0.844577C0.878644 20.9951 0.892271 21.4652 0.892271 21.7445V25.5254H0.503906V19.728H0.912711L4.3603 24.8986C4.3603 24.4218 4.32623 23.9653 4.32623 23.5362V19.728H4.76911V25.5594Z" fill="#565656"/>
<path d="M6.24023 20.0207C6.24023 19.7618 6.32881 19.6324 6.49233 19.6324C6.5312 19.6315 6.56967 19.6404 6.6042 19.6582C6.63873 19.6761 6.66821 19.7023 6.68992 19.7346C6.74096 19.8209 6.76471 19.9206 6.75805 20.0207C6.76418 20.1186 6.74042 20.216 6.68992 20.3C6.66821 20.3322 6.63873 20.3585 6.6042 20.3764C6.56967 20.3942 6.5312 20.4031 6.49233 20.4022C6.32881 20.4022 6.24023 20.2728 6.24023 20.0207ZM6.69673 25.5592H6.30156V21.2197H6.69673V25.5592Z" fill="#565656"/>
<path d="M8.53689 23.6585L10.7513 21.2196H11.2282L9.53846 23.0726L11.3985 25.5591H10.9011L9.2523 23.3723L8.57096 24.0195V25.5591H8.17578V19.353H8.57096V22.4663V23.6585H8.53689Z" fill="#565656"/>
<path d="M12.0469 20.0207C12.0469 19.7618 12.1354 19.6324 12.299 19.6324C12.3378 19.6315 12.3763 19.6404 12.4108 19.6582C12.4454 19.6761 12.4748 19.7023 12.4966 19.7346C12.5476 19.8209 12.5714 19.9206 12.5647 20.0207C12.5708 20.1186 12.5471 20.216 12.4966 20.3C12.4748 20.3322 12.4454 20.3585 12.4108 20.3764C12.3763 20.3942 12.3378 20.4031 12.299 20.4022C12.1354 20.4022 12.0469 20.2728 12.0469 20.0207ZM12.5034 25.5592H12.1082V21.2197H12.5034V25.5592Z" fill="#565656"/>
<path d="M15.0987 25.2938C15.3276 25.2971 15.5562 25.2742 15.78 25.2257V25.5459C15.5595 25.6141 15.3294 25.6463 15.0987 25.6413C14.943 25.6541 14.7864 25.6334 14.6395 25.5805C14.4926 25.5277 14.3587 25.4438 14.247 25.3347C14.0438 25.055 13.9471 24.712 13.9744 24.3673V21.5674H13.334V21.3358L13.9744 21.1587L14.172 20.1709H14.3764V21.22H15.671V21.5674H14.3696V24.2924C14.351 24.5501 14.4129 24.8072 14.5468 25.0281C14.6083 25.1159 14.6914 25.1865 14.788 25.233C14.8847 25.2795 14.9916 25.3004 15.0987 25.2938Z" fill="#565656"/>
<path d="M19.3298 25.5592L19.2276 24.878C19.0475 25.1239 18.8147 25.3264 18.5462 25.4707C18.2934 25.5912 18.0154 25.6496 17.7354 25.641C17.3741 25.6636 17.018 25.5466 16.7407 25.314C16.6132 25.2008 16.5124 25.0609 16.4452 24.9043C16.3781 24.7477 16.3464 24.5782 16.3523 24.4079C16.3452 24.2117 16.39 24.0171 16.4821 23.8437C16.5742 23.6702 16.7104 23.5242 16.8769 23.4201C17.3405 23.1615 17.8658 23.0343 18.3963 23.0523H19.2207V22.7661C19.2448 22.4355 19.1559 22.1064 18.9686 21.8328C18.8673 21.721 18.7412 21.6344 18.6004 21.58C18.4596 21.5256 18.3081 21.5048 18.1578 21.5195C17.7212 21.5274 17.2932 21.642 16.911 21.8533L16.7611 21.5127C17.2022 21.2948 17.6864 21.1785 18.1783 21.172C18.3718 21.1572 18.5662 21.1829 18.7492 21.2474C18.9322 21.3119 19.0998 21.4139 19.2412 21.5467C19.5051 21.8722 19.6321 22.2874 19.5955 22.7048V25.5865L19.3298 25.5592ZM17.715 25.2799C17.9171 25.3014 18.1214 25.2774 18.313 25.2096C18.5047 25.1419 18.6787 25.0322 18.8224 24.8885C18.9661 24.7448 19.0759 24.5708 19.1436 24.3792C19.2114 24.1876 19.2354 23.9833 19.2139 23.7812V23.3316H18.4576C18.0049 23.3203 17.5561 23.4185 17.1495 23.6177C17.0227 23.6955 16.9195 23.8063 16.8511 23.9384C16.7826 24.0704 16.7515 24.2186 16.7611 24.3671C16.7536 24.4847 16.7724 24.6026 16.816 24.7121C16.8596 24.8217 16.9269 24.9202 17.0132 25.0006C17.2021 25.1811 17.4537 25.2812 17.715 25.2799Z" fill="#565656"/>
<path d="M25.8167 25.5594L23.6364 20.1708C23.6364 20.5046 23.6364 20.8521 23.6364 21.1859V25.5594H23.248V19.728H23.8476L25.8917 24.8578L27.9357 19.728H28.5489V25.5594H28.1401V21.1382C28.1395 20.8197 28.1554 20.5013 28.1878 20.1845H28.1537L25.9734 25.5594H25.8167Z" fill="#565656"/>
<path d="M32.8337 25.5593L32.7383 24.8781C32.5582 25.1239 32.3254 25.3264 32.057 25.4707C31.8017 25.5914 31.5215 25.6497 31.2393 25.6411C30.8797 25.667 30.5245 25.5494 30.2514 25.3141C30.1293 25.1981 30.0338 25.0571 29.9714 24.9006C29.9091 24.7442 29.8814 24.5762 29.8903 24.408C29.8846 24.2113 29.9307 24.0164 30.024 23.8431C30.1172 23.6697 30.2544 23.5239 30.4217 23.4202C30.8893 23.1592 31.4197 23.0319 31.9548 23.0523H32.7792V22.7662C32.8032 22.4356 32.7143 22.1065 32.5271 21.8329C32.4258 21.7211 32.2997 21.6345 32.1589 21.5801C32.0181 21.5257 31.8665 21.5049 31.7163 21.5196C31.2797 21.5275 30.8516 21.6421 30.4694 21.8534L30.3195 21.5127C30.7606 21.2949 31.2448 21.1785 31.7367 21.1721C31.9301 21.1582 32.1244 21.1842 32.3072 21.2487C32.4901 21.3132 32.6577 21.4146 32.7996 21.5468C33.0635 21.8722 33.1906 22.2875 33.1539 22.7049V25.5866L32.8337 25.5593ZM31.2393 25.28C31.4415 25.3015 31.6458 25.2774 31.8374 25.2097C32.029 25.142 32.2031 25.0322 32.3468 24.8886C32.4905 24.7449 32.6003 24.5708 32.668 24.3793C32.7357 24.1877 32.7598 23.9833 32.7383 23.7813V23.3317H31.9752C31.5156 23.3356 31.0639 23.4525 30.6602 23.6723C30.5334 23.75 30.4303 23.8609 30.3618 23.993C30.2934 24.125 30.2623 24.2732 30.2718 24.4216C30.2644 24.5393 30.2831 24.6572 30.3267 24.7667C30.3703 24.8763 30.4377 24.9748 30.5239 25.0552C30.7243 25.2199 30.9808 25.3005 31.2393 25.28Z" fill="#565656"/>
<path d="M37.2214 24.4353C37.232 24.6083 37.1981 24.7812 37.123 24.9374C37.0478 25.0936 36.9339 25.228 36.7921 25.3277C36.4167 25.5593 35.9787 25.6688 35.5385 25.6411C35.0698 25.6594 34.6033 25.5684 34.1758 25.3754V24.9462C34.5986 25.1592 35.0651 25.2711 35.5385 25.2732C35.8766 25.2953 36.2141 25.2221 36.5128 25.0621C36.6125 25.003 36.6955 24.9194 36.754 24.8192C36.8124 24.7191 36.8443 24.6057 36.8466 24.4898C36.8474 24.3846 36.8239 24.2807 36.7778 24.1861C36.7317 24.0916 36.6643 24.009 36.5809 23.9448C36.3173 23.7491 36.0224 23.5994 35.7088 23.502C35.3919 23.3985 35.0861 23.2639 34.7958 23.1001C34.6351 23.0015 34.4979 22.8689 34.3938 22.7118C34.3026 22.5549 34.2577 22.3754 34.2644 22.194C34.2603 22.0414 34.2959 21.8903 34.3675 21.7554C34.4391 21.6205 34.5444 21.5064 34.6732 21.4242C35.0167 21.2145 35.416 21.1147 35.8178 21.1381C36.2855 21.1322 36.7493 21.2227 37.1805 21.4038L37.0374 21.7649C36.6634 21.5998 36.2606 21.5096 35.8519 21.4992C35.5599 21.4868 35.2694 21.5477 35.007 21.6763C34.9148 21.7196 34.8365 21.7878 34.7811 21.8733C34.7257 21.9588 34.6954 22.0581 34.6936 22.16C34.6904 22.2635 34.7108 22.3664 34.7533 22.4608C34.7958 22.5552 34.8593 22.6387 34.9389 22.705C35.227 22.9046 35.5441 23.0585 35.8791 23.1614C36.179 23.2552 36.4671 23.3832 36.7376 23.5429C36.8994 23.6371 37.0371 23.7677 37.1396 23.9244C37.2138 24.0838 37.2421 24.2607 37.2214 24.4353Z" fill="#565656"/>
<path d="M38.735 25.5591H38.3398V19.353H38.735V25.5591Z" fill="#565656"/>
<path d="M42.8218 25.5593L42.7264 24.8781H42.6924C42.5123 25.1239 42.2795 25.3264 42.011 25.4707C41.7558 25.5914 41.4756 25.6497 41.1934 25.6411C41.0142 25.6548 40.8341 25.633 40.6634 25.5769C40.4927 25.5208 40.3347 25.4315 40.1987 25.3141C40.0766 25.1981 39.981 25.0571 39.9187 24.9006C39.8564 24.7442 39.8287 24.5762 39.8376 24.408C39.8319 24.2113 39.878 24.0164 39.9712 23.8431C40.0645 23.6697 40.2017 23.5239 40.369 23.4202C40.8365 23.1592 41.3669 23.0319 41.902 23.0523H42.7264V22.7662C42.7505 22.4356 42.6616 22.1065 42.4743 21.8329C42.373 21.7211 42.2469 21.6345 42.1061 21.5801C41.9653 21.5257 41.8138 21.5049 41.6636 21.5196C41.2269 21.5275 40.7989 21.6421 40.4167 21.8534L40.2668 21.5127C40.7079 21.2949 41.1921 21.1785 41.684 21.1721C41.8774 21.1582 42.0716 21.1842 42.2545 21.2487C42.4374 21.3132 42.605 21.4146 42.7469 21.5468C43.0108 21.8722 43.1378 22.2875 43.1012 22.7049V25.5866L42.8218 25.5593ZM41.2275 25.28C41.4296 25.3015 41.6339 25.2774 41.8256 25.2097C42.0172 25.142 42.1912 25.0322 42.3349 24.8886C42.4787 24.7449 42.5884 24.5708 42.6561 24.3793C42.7239 24.1877 42.7479 23.9833 42.7264 23.7813V23.3317H41.9633C41.5128 23.3209 41.0664 23.4191 40.662 23.6178C40.5352 23.6955 40.432 23.8064 40.3636 23.9385C40.2952 24.0705 40.2641 24.2187 40.2736 24.3671C40.2662 24.4848 40.2849 24.6027 40.3285 24.7122C40.3721 24.8218 40.4394 24.9203 40.5257 25.0007C40.7142 25.1818 40.9661 25.282 41.2275 25.28Z" fill="#565656"/>
<path d="M44.9081 23.6585L47.1224 21.2196H47.6062L45.896 23.0726L47.7493 25.5591H47.2791L45.6507 23.3723L44.9694 24.0195V25.5591H44.5742V19.353H44.9694V22.4663V23.6585H44.9081Z" fill="#565656"/>
<path d="M52.0682 23.3861C52.1047 23.9848 51.9205 24.5762 51.5504 25.0483C51.3735 25.2467 51.1543 25.403 50.9091 25.5055C50.6638 25.6081 50.3987 25.6544 50.1332 25.641C49.7785 25.6511 49.4284 25.5589 49.1248 25.3753C48.8237 25.1859 48.5864 24.9107 48.4434 24.5851C48.2818 24.2088 48.2028 23.8023 48.2118 23.3929C48.1744 22.7961 48.3588 22.2066 48.7296 21.7375C48.912 21.5485 49.1306 21.3983 49.3723 21.2957C49.614 21.193 49.8739 21.1401 50.1366 21.1401C50.3992 21.1401 50.6591 21.193 50.9008 21.2957C51.1426 21.3983 51.3612 21.5485 51.5435 21.7375C51.9112 22.2059 52.0975 22.7913 52.0682 23.3861ZM48.6615 23.3861C48.6303 23.883 48.7697 24.3757 49.0566 24.7826C49.196 24.9395 49.367 25.0651 49.5585 25.1511C49.7499 25.2371 49.9574 25.2816 50.1672 25.2816C50.3771 25.2816 50.5846 25.2371 50.776 25.1511C50.9674 25.0651 51.1385 24.9395 51.2778 24.7826C51.5647 24.3757 51.7041 23.883 51.673 23.3861C51.6958 22.9007 51.5568 22.4215 51.2778 22.0236C51.1432 21.8594 50.9721 21.7289 50.7781 21.6426C50.584 21.5562 50.3725 21.5164 50.1604 21.5263C49.9549 21.5119 49.7488 21.5442 49.5577 21.6209C49.3665 21.6976 49.1952 21.8167 49.0566 21.9691C48.761 22.3804 48.6144 22.8802 48.641 23.3861H48.6615Z" fill="#565656"/>
<path d="M54.221 25.5592L52.5449 21.2197H52.9469L54.0711 24.1695C54.2017 24.4942 54.3132 24.8263 54.405 25.1641C54.514 24.8031 54.623 24.4829 54.7388 24.1627L55.8699 21.2197H56.2719L54.5958 25.5592H54.221Z" fill="#565656"/>
<path d="M4.42839 0.953125V5.20407H2.8068V0.953125H0.490234V11.4374H2.8068V6.85948H4.42839V11.4374H6.75858V0.953125H4.42839Z" fill="#565656"/>
<path d="M12.4681 0.953125H9.8245L7.8418 11.4374H10.0289L10.3968 9.2302H11.9367L12.2637 11.4374H14.4031L12.4681 0.953125ZM10.6012 7.84047L11.1599 3.75302L11.7186 7.84047H10.6012Z" fill="#565656"/>
<path d="M19.2147 0.953125V8.54215C19.233 8.8838 19.1868 9.22584 19.0784 9.55038C19.0251 9.67409 18.9334 9.77734 18.8168 9.84482C18.7002 9.91231 18.565 9.94045 18.4312 9.92507C18.2922 9.94599 18.1502 9.92065 18.0271 9.85294C17.904 9.78523 17.8066 9.67892 17.7498 9.55038C17.6285 9.22859 17.5729 8.88577 17.5863 8.54215V0.953125H15.3038V8.1879C15.2822 8.83308 15.3768 9.47689 15.5832 10.0886C15.7519 10.57 16.0945 10.9709 16.5439 11.2126C17.1249 11.4925 17.7664 11.6236 18.4107 11.5941C19.0507 11.6245 19.6881 11.4933 20.264 11.2126C20.7126 10.9682 21.0566 10.5685 21.2315 10.0886C21.4405 9.47738 21.5374 8.83351 21.5176 8.1879V0.953125H19.2147Z" fill="#565656"/>
<path d="M22.3555 0.953125V2.67666H23.9362V11.4374H26.2664V2.67666H27.8335V0.953125H22.3555Z" fill="#565656"/>
<path d="M32.4037 0.953125H29.76L27.7773 11.4374H29.9781L30.346 9.2302H31.8858L32.2333 11.4374H34.3727L32.4037 0.953125ZM30.5368 7.84047L31.0955 3.75302L31.6542 7.84047H30.5368Z" fill="#565656"/>
<path d="M40.5057 6.369C40.9507 6.18008 41.3099 5.83303 41.5141 5.39483C41.7178 4.86289 41.8106 4.2949 41.7866 3.72579C41.8289 3.31872 41.7681 2.90755 41.6097 2.53015C41.4514 2.15276 41.2006 1.82128 40.8804 1.56626C40.094 1.10553 39.1871 0.891912 38.2777 0.953139H35.4297V11.4374H37.7463V6.74369H38.4276L39.5177 11.4374H41.9161L40.5057 6.369ZM39.361 5.04058C39.2383 5.17512 39.0853 5.27862 38.9147 5.34257C38.7442 5.40652 38.5609 5.4291 38.3799 5.40845H37.7326V2.50637H38.4889C38.6581 2.493 38.828 2.52143 38.9837 2.58914C39.1393 2.65685 39.2759 2.76177 39.3815 2.89468C39.5744 3.21414 39.6647 3.58503 39.6404 3.95741C39.662 4.33871 39.5644 4.71728 39.361 5.04058Z" fill="#565656"/>
<path d="M45.0239 9.87057L47.6266 2.26111V0.953125H42.9254V2.51998H45.3714L42.8027 10.0136V11.3761H47.6743V9.80925L45.0239 9.87057Z" fill="#565656"/>
<path d="M48.1582 0.953125V2.67666H49.7389V11.4374H52.0691V2.67666H53.6362V0.953125H48.1582Z" fill="#565656"/>
<path d="M60.4082 1.68166C60.1684 1.4208 59.8712 1.21919 59.5402 1.0927C59.2091 0.966208 58.8532 0.918293 58.5005 0.952729H55.9863V11.437H56.9743V6.4844H58.5141C58.8633 6.51243 59.2142 6.45798 59.5385 6.32545C59.8628 6.19291 60.1514 5.986 60.381 5.72141C60.8037 5.14928 61.0177 4.44967 60.9874 3.739C61.0357 3.00714 60.8313 2.28087 60.4082 1.68166ZM59.6111 5.29904C59.4262 5.46192 59.2099 5.58523 58.9755 5.66139C58.7412 5.73754 58.4937 5.76492 58.2484 5.74185H56.9743V1.69528H58.2416C58.6133 1.67814 58.9845 1.73845 59.3317 1.8724C59.5816 2.00022 59.7721 2.22003 59.8632 2.48552C59.9794 2.89273 60.03 3.31587 60.0131 3.739C60.0665 4.29008 59.9242 4.84238 59.6111 5.29904Z" fill="#565656"/>
<path d="M65.7628 6.08269C66.0011 6.04411 66.2271 5.95002 66.4224 5.80801C66.6177 5.666 66.7768 5.48006 66.887 5.2652C67.1224 4.75088 67.2344 4.18868 67.214 3.62341C67.2652 2.90922 67.0518 2.20116 66.6144 1.63419C66.3486 1.38418 66.0323 1.19402 65.6867 1.07651C65.3412 0.958997 64.9745 0.916866 64.6113 0.95295H62.2402V11.4372H63.2214V6.30069H64.8702L66.41 11.4509H67.3707L65.7628 6.08269ZM64.5568 5.56495H63.1941V1.6955H64.5568C64.7957 1.66684 65.038 1.69239 65.2656 1.77023C65.4933 1.84807 65.7005 1.97621 65.8718 2.14512C66.1457 2.587 66.27 3.10538 66.2261 3.62341C66.2706 4.14212 66.1386 4.66065 65.8513 5.09489C65.6841 5.26461 65.4812 5.39488 65.2572 5.4762C65.0332 5.55752 64.794 5.58784 64.5568 5.56495Z" fill="#565656"/>
<path d="M71.541 0.953125H70.5054L68.291 11.4374H69.2517L69.7832 8.63071H72.2837L72.8015 11.4374H73.769L71.541 0.953125ZM69.9262 7.92222L71.0368 2.26111L72.1542 7.92222H69.9262Z" fill="#565656"/>
<path d="M77.5566 6.09649L79.8732 0.953125H78.9261L77.1274 5.13594L75.2537 0.953125H74.3339L76.5687 5.98068L74.3066 11.4306H75.2537L76.9911 7.01617L79.0352 11.4374H79.9754L77.5566 6.09649Z" fill="#565656"/>
<path d="M81.0801 0.953125V11.4374H82.0612V0.953125H81.0801Z" fill="#565656"/>
<path d="M88.1381 7.66307C87.8308 7.15914 87.4547 6.70055 87.0207 6.30059L85.1674 4.54299C84.9352 4.33038 84.7415 4.07915 84.5951 3.80043C84.4821 3.55259 84.4262 3.28253 84.4316 3.01019C84.4175 2.81859 84.4463 2.62625 84.5158 2.44715C84.5854 2.26804 84.6939 2.10666 84.8336 1.97471C85.1349 1.73054 85.516 1.60675 85.9033 1.62728C86.1345 1.60595 86.3675 1.64205 86.5814 1.73237C86.7954 1.82269 86.9837 1.96443 87.1297 2.14502C87.4157 2.62288 87.5687 3.16859 87.5726 3.7255L88.4174 3.5075C88.4234 2.76273 88.1678 2.03949 87.6952 1.46378C87.4521 1.24793 87.1684 1.08257 86.8608 0.977317C86.5532 0.872061 86.2277 0.829008 85.9033 0.850661C85.2736 0.81734 84.6555 1.02984 84.1795 1.44334C83.9592 1.65786 83.7879 1.91747 83.6773 2.20438C83.5668 2.49129 83.5196 2.79872 83.539 3.10557C83.531 3.50097 83.6077 3.89352 83.7639 4.25686C83.9373 4.62056 84.183 4.94508 84.4861 5.2106L86.3462 6.98183C86.7186 7.31237 87.0462 7.69026 87.3205 8.10587C87.5289 8.44818 87.6353 8.84287 87.6271 9.24355C87.6596 9.44686 87.6442 9.65496 87.5821 9.85126C87.52 10.0476 87.4128 10.2266 87.2692 10.3742C87.1256 10.5218 86.9495 10.6337 86.7549 10.7012C86.5603 10.7686 86.3527 10.7897 86.1486 10.7627C85.9039 10.7857 85.6576 10.7421 85.4357 10.6366C85.2138 10.5311 85.0246 10.3675 84.8881 10.1632C84.5943 9.63852 84.4242 9.05369 84.3907 8.45331L83.5254 8.71218C83.5381 9.47051 83.7963 10.2043 84.2612 10.8036C84.4975 11.0631 84.7893 11.2659 85.115 11.3968C85.4406 11.5278 85.7916 11.5835 86.1417 11.5598C86.782 11.5903 87.4086 11.3676 87.886 10.9398C88.1178 10.712 88.2985 10.4375 88.416 10.1344C88.5335 9.83136 88.5851 9.50677 88.5673 9.18223C88.5639 8.6464 88.4156 8.12147 88.1381 7.66307Z" fill="#565656"/>
<g opacity="0.99">
<path d="M98.5968 26.7379L98.8898 31.2136C92.0763 30.839 80.9023 29.422 80.9023 24.1492C80.9023 19.1148 91.1225 17.5956 97.9768 17.1528L98.2629 21.5877C91.5858 22.0305 87.3615 23.2499 85.808 24.1492C87.3683 25.062 91.7289 26.3087 98.5968 26.7379Z" fill="#7AC943"/>
</g>
<g opacity="0.99">
<path d="M129.999 13.5152C129.999 19.7145 115.759 21.3427 107.672 21.765L107.958 17.3029C117.844 16.7579 124.051 14.8164 125.387 13.5152C124.072 12.2277 118.049 10.3338 108.449 9.75477H108.06C108.234 9.51165 108.382 9.25143 108.503 8.97816C108.766 8.41005 108.909 7.79412 108.924 7.16842C108.94 6.54272 108.826 5.92055 108.592 5.34033C116.795 5.8172 129.999 7.54755 129.999 13.5152Z" fill="#3FA9F5"/>
</g>
<g opacity="0.99">
<path d="M121.571 34.6675C121.571 39.0138 112.884 40.3831 106.432 40.7987L106.725 36.3025C109.867 36.146 112.978 35.5968 115.984 34.6675C113.057 33.7602 110.03 33.2156 106.97 33.0461L107.256 28.5908C113.572 29.0677 121.571 30.4983 121.571 34.6675Z" fill="#FF931E"/>
</g>
<g opacity="0.99">
<path d="M99.7283 44.0688L100.021 48.5718C95.3337 48.2448 87.8457 47.0526 87.8457 42.7403C87.8457 38.6529 94.516 37.3858 99.265 36.9771L99.558 41.4187C97.3753 41.5625 95.2226 42.0049 93.1602 42.7335C95.2752 43.4877 97.4867 43.9373 99.7283 44.0688Z" fill="#FF1D25"/>
<path d="M110.902 46.7122C110.902 47.0044 110.845 47.2937 110.733 47.5636C110.621 47.8335 110.456 48.0786 110.249 48.285C110.042 48.4913 109.797 48.6547 109.527 48.7659C109.256 48.8771 108.967 48.9339 108.674 48.933C108.429 48.933 107.53 48.933 105.908 48.8308L106.194 44.3823C107.387 44.43 108.477 44.4709 108.674 44.4709C108.968 44.4718 109.258 44.5305 109.529 44.6436C109.8 44.7567 110.046 44.922 110.253 45.1302C110.46 45.3383 110.623 45.5851 110.735 45.8566C110.846 46.128 110.903 46.4187 110.902 46.7122Z" fill="#FF1D25"/>
</g>
<path d="M97.7998 14.4346L97.8475 15.1158H0V14.4346H97.7998Z" fill="#474747"/>
<path d="M106.881 10.9536L106.466 17.3709L106.173 21.833L105.737 28.4888L105.451 32.9441L105.226 36.4048L105.151 37.5493L104.946 40.683V40.8873L104.722 44.2935L104.429 48.7488L104.211 52.155C104.151 52.4361 103.997 52.6882 103.773 52.869C103.55 53.0499 103.272 53.1486 102.984 53.1486C102.697 53.1486 102.418 53.0499 102.195 52.869C101.972 52.6882 101.817 52.4361 101.758 52.155L101.519 48.6467L101.233 44.1709L101.042 41.3097V40.9759V40.5535L100.804 36.868L100.436 31.275L100.15 26.8061L99.8023 21.4992L99.4753 17.0575L99.3526 15.116L99.3049 14.4348L99.0801 10.9536C100.212 11.79 101.583 12.2414 102.991 12.2414C104.399 12.2414 105.77 11.79 106.902 10.9536H106.881Z" fill="#565656"/>
<path d="M107.434 7.02943C107.433 7.56318 107.297 8.08795 107.039 8.55541C106.813 8.96789 106.513 9.3351 106.153 9.63858C105.256 10.3702 104.13 10.7632 102.972 10.749C102.156 10.7806 101.346 10.5932 100.627 10.2063C99.9084 9.81932 99.3063 9.24694 98.8835 8.5486C98.6266 8.08327 98.4907 7.56091 98.4883 7.02943C98.4882 6.63982 98.5621 6.25373 98.7063 5.89176C99.0767 5.08807 99.6785 4.41311 100.435 3.95319C101.191 3.49326 102.067 3.26927 102.951 3.30986C103.707 3.28851 104.456 3.45095 105.135 3.78321C105.814 4.11548 106.402 4.60762 106.848 5.21733C106.991 5.43088 107.11 5.65931 107.203 5.89857C107.349 6.25802 107.427 6.64142 107.434 7.02943Z" fill="#565656"/>
</svg>
