<svg width="100" height="28" viewBox="0 0 100 28" fill="none" xmlns="http://www.w3.org/2000/svg">
<g clip-path="url(#clip0_5533_26)">
<path d="M99.9856 12.0284C99.8022 5.68624 94.775 0.952734 88.372 0.767665C87.9416 0.767665 85.4792 0.728516 84.5796 0.728516C83.68 0.728516 81.2211 0.753429 80.7907 0.767665C74.4088 0.952734 69.3817 5.68624 69.1982 12.0284C69.1735 12.879 69.1735 14.8756 69.1982 15.744C69.3817 22.1005 74.4088 26.8197 80.8013 27.0048C81.6585 27.0297 83.2707 27.0582 84.5902 27.0582C85.9096 27.0582 87.5218 27.0404 88.372 27.0048C94.7644 26.8197 99.7916 22.1005 99.975 15.744C100.014 14.8934 100.014 12.879 99.9856 12.0284ZM94.2282 16.4381C94.0201 19.6412 91.607 21.5951 88.3755 21.7766C87.8358 21.8051 86.9891 21.9261 84.5902 21.9261C82.1912 21.9261 81.3481 21.8051 80.8083 21.7766C77.5768 21.5986 75.1638 19.6412 74.9556 16.4381C74.9345 16.1142 74.8886 15.0144 74.8886 13.8969C74.8886 12.7794 74.9345 11.6618 74.9556 11.338C75.1638 8.13485 77.5768 6.17382 80.8083 5.99943C81.3481 5.9674 82.1948 5.84995 84.5902 5.84995C86.9856 5.84995 87.8358 5.9674 88.3755 5.99943C91.607 6.17382 94.0201 8.13485 94.2282 11.338C94.2494 11.6583 94.2987 12.7616 94.2987 13.8862C94.2987 15.0109 94.2494 16.1142 94.2282 16.4381Z" fill="black"/>
<path d="M59.7969 16.4383C59.5853 19.6414 57.1722 21.5846 53.9407 21.759C53.401 21.7875 52.5543 21.9085 50.1589 21.9085C47.7635 21.9085 46.9168 21.7875 46.3771 21.759C43.142 21.5846 40.7325 19.6236 40.5208 16.4383C40.4997 16.1144 40.4538 15.0146 40.4538 13.8971C40.4538 12.7796 40.4997 11.662 40.5208 11.3382C40.7325 8.13505 43.142 6.17403 46.3771 5.99964C46.9168 5.96761 47.7635 5.85016 50.1589 5.85016C52.5543 5.85016 53.401 5.96761 53.9407 5.99964C57.1722 6.17403 59.5853 8.13505 59.7969 11.3382V11.3809H65.3251C64.8312 5.35901 60.118 0.956499 53.9478 0.774989C53.5174 0.774989 51.0585 0.73584 50.1589 0.73584C49.2593 0.73584 46.7969 0.760753 46.37 0.774989C39.9776 0.95294 34.9504 5.68644 34.7705 12.0286C34.7458 12.8792 34.7458 14.8758 34.7705 15.7442C34.9504 22.1007 39.9776 26.8199 46.3735 27.005C47.2308 27.0299 48.843 27.0584 50.1624 27.0584C51.4818 27.0584 53.094 27.0406 53.9513 27.005C60.118 26.8271 64.8241 22.4281 65.3286 16.4133H59.7969V16.4383Z" fill="black"/>
<path d="M50.1055 16.4131H59.7964C59.8176 16.0572 59.867 14.9895 59.867 13.8862C59.867 12.7829 59.8211 11.7508 59.7964 11.3735H50.1055V16.4131Z" fill="black"/>
<path d="M30.8052 12.0284C30.6324 5.68624 25.5946 0.952734 19.2022 0.767665C18.7718 0.767665 16.3129 0.728516 15.4133 0.728516C14.5137 0.728516 12.0513 0.753429 11.6244 0.767665C5.22844 0.952734 0.201276 5.68624 0.0178284 12.0284C-0.00333863 12.879 -0.00333863 14.8756 0.0178284 15.744C0.201276 22.1005 5.22844 26.8197 11.6244 27.0048C12.4817 27.0297 14.0762 27.0582 15.4133 27.0582V22.0578C13.0179 22.0578 12.1712 21.9367 11.6315 21.9083C8.39644 21.7303 5.98692 19.6412 5.77525 16.4452C5.75409 16.1213 5.70823 15.0216 5.70823 13.904C5.70823 12.7865 5.75409 11.669 5.77525 11.3451C5.98692 8.14197 8.39644 6.18094 11.6315 6.00655C12.1712 5.97452 13.0179 5.85707 15.4133 5.85707C17.8087 5.85707 18.6554 5.97452 19.1951 6.00655C22.4266 6.18094 24.8397 8.19179 25.0513 11.3878H15.4098V16.4167H30.8123C30.8123 16.4167 30.8687 14.9397 30.8052 12.0284Z" fill="black"/>
<path d="M25.4428 21.3459C25.4428 21.3459 24.5714 21.3174 24.081 21.3174C23.5906 21.3174 22.6699 21.3459 22.6699 21.3459C22.1115 21.3392 21.5731 21.5554 21.172 21.9473C20.7709 22.3393 20.5396 22.8753 20.5285 23.4386C20.4931 24.0098 20.4931 24.5828 20.5285 25.154C20.5468 25.7152 20.7802 26.2473 21.1796 26.6383C21.5791 27.0294 22.1133 27.2487 22.6699 27.2503C22.6699 27.2503 23.4601 27.2823 23.9963 27.2823C24.5326 27.2823 25.4286 27.2503 25.4286 27.2503C25.9876 27.257 26.5265 27.0403 26.9277 26.6475C27.3289 26.2548 27.5598 25.7179 27.57 25.154C27.6179 24.5832 27.6179 24.0094 27.57 23.4386C27.5589 22.8778 27.3296 22.344 26.9315 21.9524C26.5335 21.5608 25.9987 21.3429 25.4428 21.3459Z" fill="black"/>
</g>
<defs>
<clipPath id="clip0_5533_26">
<rect width="100" height="26.5432" fill="white" transform="translate(0 0.728516)"/>
</clipPath>
</defs>
</svg>
