<svg width="140" height="50" viewBox="0 0 140 50" fill="none" xmlns="http://www.w3.org/2000/svg">
<g clip-path="url(#clip0_631_1097)">
<path d="M31.8876 32.0181V35.2125H27.3181V48.9096H23.964V35.2125H19.3945V32.0181H31.8876Z" fill="#005288"/>
<path d="M43.263 48.9096L42.2422 45.8604H35.4852L34.4644 48.9096H30.8672L36.7977 32.0181H40.9297L46.9089 48.9096H43.263ZM36.5547 42.7629H41.2214L38.888 35.8417L36.5547 42.7629Z" fill="#005288"/>
<path d="M58.6241 32.0181H61.9783V48.9096H59.4019L52.1102 38.5521V48.9096H48.8047V32.0181H51.3325L58.6241 42.3273V32.0181Z" fill="#005288"/>
<path d="M71.2648 32.018C73.4523 31.9696 75.5912 32.8408 77.0981 34.438C80.2578 37.826 80.2578 43.0532 77.0981 46.4412C75.5912 48.0384 73.4523 48.9096 71.2648 48.8612H64.5078V32.018H71.2648ZM71.2648 45.7152C72.6259 45.7636 73.9384 45.2312 74.862 44.2632C75.7856 43.1984 76.3203 41.8432 76.2231 40.4396C76.2717 39.036 75.7856 37.6808 74.862 36.6644C73.9384 35.6964 72.6259 35.164 71.2648 35.2124H67.862V45.7636L71.2648 45.7152Z" fill="#005288"/>
<path d="M93.8192 44.0211C93.8678 45.3763 93.2845 46.6347 92.3123 47.5543C91.2914 48.4739 89.9303 48.9579 88.5692 48.9095H81.3262V32.018H87.9859C89.347 31.9696 90.6595 32.4536 91.6317 33.3732C92.6039 34.2444 93.1387 35.4544 93.1387 36.7612C93.1873 38.068 92.604 39.3263 91.5345 40.1491C92.9928 40.8751 93.8678 42.3755 93.8192 44.0211ZM84.6317 35.1156V38.8423H87.9859C89.0067 38.8423 89.8331 38.0196 89.8331 37.0032C89.8331 35.9868 89.0067 35.164 87.9859 35.164H84.6317V35.1156ZM88.5206 45.8119C89.6387 45.7635 90.4651 44.8439 90.4164 43.7307C90.3678 42.7143 89.5415 41.8915 88.5206 41.8431H84.6803V45.8119H88.5206Z" fill="#005288"/>
<path d="M118.125 48.9096L114.722 43.0533H112.194V48.9096H108.84V32.0181H115.645C118.757 32.0181 121.284 34.4865 121.284 37.5841C121.236 39.7137 119.972 41.6497 118.027 42.5209L121.77 48.9096H118.125ZM112.145 35.1157V40.1009H115.597C117.007 40.0041 118.027 38.7941 117.93 37.3905C117.833 36.1321 116.861 35.1641 115.597 35.0673H112.145V35.1157Z" fill="#005288"/>
<path d="M140 39.8104V41.1172C140.097 43.2952 139.222 45.4248 137.667 46.9736C136.063 48.474 133.875 49.2968 131.639 49.2C129.208 49.2968 126.875 48.3772 125.125 46.6832C123.424 45.0376 122.5 42.8112 122.549 40.4396C122.549 35.5512 126.583 31.5824 131.493 31.6308C134.458 31.6308 137.229 33.1312 138.833 35.5512L135.965 37.1968C135.188 35.8416 133.438 34.8736 131.396 34.8736C129.889 34.8252 128.431 35.406 127.41 36.4708C125.32 38.6972 125.32 42.182 127.41 44.4084C128.528 45.4732 130.083 46.0056 131.639 45.9572C134.215 45.9572 135.965 44.7472 136.597 42.7628H131.493V39.8104H140Z" fill="#005288"/>
<path d="M106.264 32.0181H95.8613V35.2125H106.264V32.0181Z" fill="#00AAE7"/>
<path d="M106.264 45.7148H95.8613V48.9092H106.264V45.7148Z" fill="#00AAE7"/>
<path d="M106.264 38.8423H95.8613V42.0367H106.264V38.8423Z" fill="#00AAE7"/>
<path d="M24.7923 28.146L18.5215 11.2544H20.3687L25.6673 25.8712L30.9173 11.2544H32.7645L26.5423 28.146H24.7923Z" fill="#005288"/>
<path d="M35.924 26.5488H44.1393V28.146H34.2227V11.2544H44.0421V12.8516H35.924V18.8048H43.4102V20.402H35.924V26.5488Z" fill="#005288"/>
<path d="M56.0002 28.146L52.0141 21.37H47.2502V28.146H45.5488V11.2544H52.3058C55.1252 11.2544 57.3613 13.5292 57.4099 16.3364C57.4099 17.4496 57.0697 18.5144 56.3891 19.3856C55.7572 20.2568 54.8336 20.886 53.7641 21.1764L57.8961 28.146H56.0002ZM47.2988 12.8516V19.7728H52.403C53.3266 19.7728 54.2016 19.434 54.7849 18.7564C55.4169 18.0788 55.7572 17.2076 55.7572 16.288C55.7572 15.3684 55.4169 14.4972 54.7849 13.8196C54.153 13.142 53.278 12.8032 52.403 12.8032L47.2988 12.8516Z" fill="#005288"/>
<path d="M60.7151 26.5488H67.0831L66.4998 28.146H59.0137V11.2544H60.7151V26.5488Z" fill="#005288"/>
<path d="M80.9384 28.146L79.3828 23.9836H71.362L69.8064 28.146H68.0078L74.5217 11.2544H76.2717L82.7856 28.146H80.9384ZM71.9453 22.3864H78.7509L75.3481 13.3356L71.9453 22.3864Z" fill="#005288"/>
<path d="M95.0842 11.2544H96.7856V28.146H95.3273L85.8481 14.4004V28.146H84.1953V11.2544H85.605L95.0842 25V11.2544Z" fill="#005288"/>
<path d="M104.902 11.2544C107.09 11.206 109.18 12.0772 110.638 13.7228C112.145 15.3199 112.972 17.4979 112.923 19.6759C112.972 21.9023 112.145 24.0319 110.638 25.6775C109.18 27.2747 107.09 28.1459 104.902 28.0975H98.3398V11.2544H104.902ZM104.902 26.5487C106.652 26.5971 108.305 25.8711 109.472 24.5643C110.687 23.2091 111.319 21.4667 111.27 19.6759C111.319 17.8851 110.687 16.1427 109.472 14.8359C108.354 13.5292 106.652 12.8032 104.902 12.8516H100.041V26.5487H104.902Z" fill="#005288"/>
<path d="M25.3741 18.9013C26.0061 17.4009 26.7839 15.1261 27.4158 13.5773C26.9783 6.02695 20.4158 0.267361 12.8325 0.799761C10.1589 0.99336 7.63108 1.91296 5.49219 3.51016C7.43663 3.36496 9.23524 3.99416 10.2075 5.39776C10.2561 5.44616 10.2561 5.49455 10.3047 5.54295C15.263 3.65536 20.8047 6.12375 22.7005 11.0605C22.9922 11.8833 23.1866 12.7061 23.2839 13.5773L25.3741 18.9013Z" fill="#00AAE7"/>
<path d="M13.7571 23.9836C8.4585 23.9836 4.13211 19.7245 4.13211 14.4489C4.13211 10.6253 6.46544 7.14047 10.0141 5.64007C8.021 4.67207 5.05572 4.72047 2.57656 6.41447C-1.84706 12.5129 -0.437333 21.0797 5.68767 25.5324C10.5488 29.0172 17.1113 29.0172 21.9238 25.4356L20.2224 21.4669C18.4724 23.1124 16.1391 23.9836 13.7571 23.9836Z" fill="#00AAE7"/>
</g>
<defs>
<clipPath id="clip0_631_1097">
<rect width="140" height="48.4967" fill="white" transform="translate(0 0.751465)"/>
</clipPath>
</defs>
</svg>
