<svg width="60" height="60" viewBox="0 0 60 60" fill="none" xmlns="http://www.w3.org/2000/svg">
<mask id="mask0_914_1063" style="mask-type:luminance" maskUnits="userSpaceOnUse" x="0" y="0" width="60" height="60">
<path d="M60 0H0V60H60V0Z" fill="white"/>
</mask>
<g mask="url(#mask0_914_1063)">
<path fill-rule="evenodd" clip-rule="evenodd" d="M30 10.0935C27.8321 10.0935 26.0748 11.8508 26.0748 14.0187H15.9813C15.9813 6.27639 22.2577 0 30 0C37.7424 0 44.0187 6.27639 44.0187 14.0187C44.0187 21.761 37.7424 28.0374 30 28.0374V17.9439C32.1678 17.9439 33.9252 16.1865 33.9252 14.0187C33.9252 11.8508 32.1678 10.0935 30 10.0935ZM49.9065 30C49.9065 27.8321 48.1491 26.0748 45.9813 26.0748V15.9813C53.7237 15.9813 60 22.2577 60 30C60 37.7424 53.7237 44.0187 45.9813 44.0187C38.2389 44.0187 31.9626 37.7424 31.9626 30H42.0561C42.0561 32.1678 43.8135 33.9252 45.9813 33.9252C48.1491 33.9252 49.9065 32.1678 49.9065 30ZM14.0187 33.9252C11.8508 33.9252 10.0935 32.1678 10.0935 30C10.0935 27.8321 11.8508 26.0748 14.0187 26.0748C16.1865 26.0748 17.9439 27.8321 17.9439 30H28.0374C28.0374 22.2577 21.761 15.9813 14.0187 15.9813C6.27639 15.9813 0 22.2577 0 30C0 37.7424 6.27639 44.0187 14.0187 44.0187V33.9252ZM30 49.9065C32.1678 49.9065 33.9252 48.1491 33.9252 45.9813H44.0187C44.0187 53.7237 37.7424 60 30 60C22.2577 60 15.9813 53.7237 15.9813 45.9813C15.9813 38.2389 22.2577 31.9626 30 31.9626V42.0561C27.8321 42.0561 26.0748 43.8135 26.0748 45.9813C26.0748 48.1491 27.8321 49.9065 30 49.9065Z" fill="#F2E8DE"/>
</g>
</svg>
