<svg width="120" height="28" viewBox="0 0 120 28" fill="none" xmlns="http://www.w3.org/2000/svg">
<path d="M117.356 0.666504L110.811 14.6939L108.349 9.37883H105.688L109.735 18.0729H111.886L119.999 0.666504H117.356Z" fill="#D52B1E"/>
<path d="M89.2792 26.7119H94.5481V17.0498C94.5481 14.8398 95.8243 13.2873 97.7204 13.2873C99.5435 13.2873 100.492 14.5658 100.492 16.4106V26.7119H105.76V15.406C105.76 11.5704 103.463 8.86718 99.7441 8.86718C97.374 8.86718 95.7149 9.89001 94.4752 11.753H94.3658V9.37859H89.2609L89.2792 26.7119ZM78.9237 8.90371C73.4177 8.90371 69.735 12.8672 69.735 18.0909C69.735 23.2781 73.4177 27.2781 78.9237 27.2781C84.4296 27.2781 88.1124 23.2781 88.1124 18.0909C88.1306 12.8672 84.4296 8.90371 78.9237 8.90371ZM78.8872 23.3695C76.3895 23.3695 75.0586 21.269 75.0586 18.0909C75.0586 14.8763 76.3713 12.8124 78.8872 12.8124C81.3849 12.8124 82.7705 14.8763 82.7705 18.0909C82.7887 21.269 81.4032 23.3695 78.8872 23.3695ZM54.7122 26.7119H69.5162V22.5475H61.1297V22.438L69.1516 13.4334V9.36033H54.7122V13.543H62.8252V13.6526L54.7122 22.7302V26.7119ZM47.9483 26.7119H53.2537V9.37859H47.9483V26.7119ZM35.642 26.7119H40.9291V18.7485C40.9291 15.132 43.0987 13.5247 46.3986 13.9813H46.508V9.41512C46.2345 9.30553 45.9246 9.28727 45.4323 9.28727C43.3722 9.28727 41.9866 10.237 40.8015 12.2644H40.6921V9.37859H35.642V26.7119ZM25.9428 23.3877C23.6092 23.3877 22.1871 21.8717 21.9136 19.5338H34.384C34.4205 15.8078 33.436 12.8306 31.3758 10.9676C29.9173 9.61604 28.003 8.86718 25.5599 8.86718C20.3457 8.86718 16.7359 12.8306 16.7359 18.0179C16.7359 23.2416 20.1816 27.2233 25.9063 27.2233C28.0759 27.2233 29.7897 26.6389 31.2117 25.6708C32.7249 24.6297 33.8188 23.0955 34.1105 21.5795H29.0422C28.5499 22.7119 27.4925 23.3877 25.9428 23.3877ZM25.6693 12.648C27.529 12.648 28.8052 14.0361 29.0239 16.0635H21.9501C22.3694 14.0179 23.4816 12.648 25.6693 12.648ZM6.19805 26.7119H11.7404L17.7568 9.37859H12.4515L9.07863 20.5201H9.00571L5.63287 9.37859H0.181641L6.19805 26.7119ZM47.9483 3.20508H53.2537V7.91741H47.9483V3.20508Z" fill="black"/>
</svg>
