<svg width="44" height="44" viewBox="0 0 44 44" fill="none" xmlns="http://www.w3.org/2000/svg">
<path fill-rule="evenodd" clip-rule="evenodd" d="M42.0026 22.0002C42.0026 33.0488 33.046 42.0054 21.9974 42.0054C10.9488 42.0054 1.99219 33.0488 1.99219 22.0002C1.99219 10.9516 10.9488 1.995 21.9974 1.995C27.3031 1.995 32.3915 4.10268 36.1432 7.85439C39.8949 11.6061 42.0026 16.6945 42.0026 22.0002Z" stroke="url(#paint0_linear_24527_763)" stroke-width="3" stroke-linecap="round" stroke-linejoin="round"/>
<path d="M21.999 30.7056C21.1706 30.7056 20.499 31.3772 20.499 32.2056C20.499 33.034 21.1706 33.7056 21.999 33.7056V30.7056ZM17.7122 19.1422L18.7573 18.0662C18.6992 18.0098 18.6367 17.9582 18.5703 17.9119L17.7122 19.1422ZM16.2832 16.2843L17.7824 16.3361C17.7829 16.3188 17.7832 16.3016 17.7832 16.2843H16.2832ZM21.999 13.2946C22.8274 13.2946 23.499 12.623 23.499 11.7946C23.499 10.9662 22.8274 10.2946 21.999 10.2946V13.2946ZM21.943 33.7069C22.7707 33.7408 23.4692 33.0972 23.5031 32.2695C23.5369 31.4418 22.8934 30.7433 22.0656 30.7094L21.943 33.7069ZM17.775 25.5929C17.8859 24.7719 17.3103 24.0165 16.4893 23.9056C15.6683 23.7947 14.9129 24.3704 14.802 25.1913L17.775 25.5929ZM23.4993 32.2052C23.4993 31.3768 22.8277 30.7052 21.9993 30.7052C21.1708 30.7052 20.4993 31.3768 20.4993 32.2052H23.4993ZM20.4993 36.2891C20.4993 37.1176 21.1708 37.7891 21.9993 37.7891C22.8277 37.7891 23.4993 37.1176 23.4993 36.2891H20.4993ZM21.9234 10.2968C21.0963 10.3434 20.4636 11.0517 20.5102 11.8788C20.5568 12.7059 21.2651 13.3386 22.0922 13.292L21.9234 10.2968ZM26.3435 13.5578L25.2377 14.5714L26.3435 13.5578ZM26.239 17.8161C26.1207 18.6361 26.6895 19.3966 27.5094 19.5149C28.3293 19.6332 29.0899 19.0645 29.2082 18.2445L26.239 17.8161ZM20.4993 11.7942C20.4993 12.6227 21.1708 13.2942 21.9993 13.2942C22.8277 13.2942 23.4993 12.6227 23.4993 11.7942H20.4993ZM23.4993 7.71033C23.4993 6.8819 22.8277 6.21033 21.9993 6.21033C21.1708 6.21033 20.4993 6.8819 20.4993 7.71033H23.4993ZM21.999 32.2056V33.7056C23.1326 33.7056 24.8382 33.4451 26.317 32.5986C27.8697 31.7097 29.2148 30.1278 29.2148 27.6616H27.7148H26.2148C26.2148 28.8306 25.6552 29.5207 24.8265 29.995C23.924 30.5117 22.7717 30.7056 21.999 30.7056V32.2056ZM27.7148 27.6616H29.2148C29.2148 26.1286 28.7382 24.9091 27.8888 23.9279C27.0892 23.0044 26.0242 22.3715 25.0095 21.8473C22.8614 20.7378 20.691 19.9445 18.7573 18.0662L17.7122 19.1422L16.6671 20.2182C19.0202 22.5039 21.8511 23.5925 23.6327 24.5128C24.5827 25.0035 25.2146 25.4225 25.6207 25.8916C25.9769 26.303 26.2148 26.8168 26.2148 27.6616H27.7148ZM17.7122 19.1422L18.5703 17.9119C18.0574 17.5542 17.7608 16.961 17.7824 16.3361L16.2832 16.2843L14.7841 16.2326C14.7275 17.8743 15.5068 19.4328 16.8541 20.3725L17.7122 19.1422ZM16.2832 16.2843H17.7832C17.7832 15.4398 17.9686 14.9095 18.1819 14.5667C18.3948 14.2245 18.6969 13.9707 19.0892 13.7775C19.9377 13.3595 21.0494 13.2946 21.999 13.2946V11.7946V10.2946C21.0425 10.2946 19.2963 10.3312 17.7634 11.0863C16.9651 11.4796 16.1956 12.0804 15.6347 12.9818C15.0741 13.8828 14.7832 14.9855 14.7832 16.2843H16.2832ZM22.0043 32.2082L22.0656 30.7094C20.7958 30.6575 19.6066 30.0728 18.79 29.099L17.6407 30.0628L16.4913 31.0267C17.8504 32.6474 19.8296 33.6204 21.943 33.7069L22.0043 32.2082ZM17.6407 30.0628L18.79 29.099C17.9734 28.1252 17.6049 26.8524 17.775 25.5929L16.2885 25.3921L14.802 25.1913C14.5189 27.2875 15.1322 29.4059 16.4913 31.0267L17.6407 30.0628ZM21.9993 32.2052H20.4993V36.2891H21.9993H23.4993V32.2052H21.9993ZM22.0078 11.7944L22.0922 13.292C23.2795 13.2251 24.4342 13.6947 25.2377 14.5714L26.3435 13.5578L27.4492 12.5443C26.0376 11.0042 24.0092 10.1792 21.9234 10.2968L22.0078 11.7944ZM26.3435 13.5578L25.2377 14.5714C26.0412 15.448 26.4088 16.6391 26.239 17.8161L27.7236 18.0303L29.2082 18.2445C29.5065 16.1768 28.8609 14.0844 27.4492 12.5443L26.3435 13.5578ZM21.9993 11.7942H23.4993V7.71033H21.9993H20.4993V11.7942H21.9993Z" fill="url(#paint1_linear_24527_763)"/>
<defs>
<linearGradient id="paint0_linear_24527_763" x1="21.9974" y1="1.995" x2="21.9974" y2="42.0054" gradientUnits="userSpaceOnUse">
<stop stop-color="#11995A"/>
<stop offset="1" stop-color="#03C068"/>
</linearGradient>
<linearGradient id="paint1_linear_24527_763" x1="22.007" y1="7.71033" x2="22.007" y2="36.2891" gradientUnits="userSpaceOnUse">
<stop stop-color="#11995A"/>
<stop offset="1" stop-color="#03C068"/>
</linearGradient>
</defs>
</svg>
