<svg width="44" height="44" viewBox="0 0 44 44" fill="none" xmlns="http://www.w3.org/2000/svg">
<path d="M22.0156 2.50232C22.697 2.50232 23.3069 2.60112 23.7021 2.74646L35.4023 7.12439L35.4062 7.12634C36.1854 7.41537 36.9786 8.05986 37.583 8.92908C38.1875 9.79838 38.5155 10.7663 38.5156 11.5961V15.5072C38.5156 16.4046 38.096 17.2246 37.3916 17.725L37.3838 17.7308L37.375 17.7367L13.832 34.9603C12.8368 35.6881 11.4876 35.6794 10.5273 34.9535L10.5225 34.9496L7.44336 32.6439C6.98165 32.2964 6.48271 31.6745 6.09766 30.9056C5.71238 30.1363 5.51567 29.3688 5.51562 28.7992V11.5961C5.5157 10.7663 5.8438 9.79838 6.44824 8.92908C7.05265 8.05986 7.84583 7.41537 8.625 7.12634L8.62891 7.12439L20.3291 2.74646C20.7243 2.60112 21.3342 2.50232 22.0156 2.50232Z" stroke="url(#paint0_linear_28524_152)" stroke-width="3"/>
<path d="M37.5586 23.6215C37.9318 23.3466 38.5156 23.5908 38.5156 24.14V28.1469C38.5156 28.7174 38.3214 29.4784 37.9434 30.2396C37.5668 30.9979 37.0793 31.6122 36.627 31.9594L25.1289 40.6664C24.4206 41.1893 23.4014 41.5023 22.3164 41.5023C21.2314 41.5023 20.2209 41.1893 19.5195 40.6566L19.5176 40.6547L17.7705 39.3334L17.7656 39.3304L17.707 39.2806C17.4332 39.0169 17.4508 38.5458 17.7764 38.306L17.7803 38.3031L37.5586 23.6215Z" stroke="url(#paint1_linear_28524_152)" stroke-width="3"/>
<defs>
<linearGradient id="paint0_linear_28524_152" x1="22.0156" y1="1.00232" x2="22.0156" y2="37.0023" gradientUnits="userSpaceOnUse">
<stop stop-color="#11995A"/>
<stop offset="1" stop-color="#03C068"/>
</linearGradient>
<linearGradient id="paint1_linear_28524_152" x1="28.0156" y1="22.0023" x2="28.0156" y2="43.0023" gradientUnits="userSpaceOnUse">
<stop stop-color="#11995A"/>
<stop offset="1" stop-color="#03C068"/>
</linearGradient>
</defs>
</svg>
