<svg width="44" height="44" viewBox="0 0 44 44" fill="none" xmlns="http://www.w3.org/2000/svg">
<path d="M10.7314 5.5H23.0244C26.2507 5.5 28.157 6.11284 29.3027 7.16113C30.4286 8.19134 31.1296 9.92999 31.2363 12.96L31.335 15.7422L33.6045 14.1299L36.6104 11.9951C37.6057 11.2947 38.3729 11.1062 38.8945 11.084C39.4234 11.0615 39.8083 11.2049 40.0352 11.3271L40.0605 11.3408C40.2938 11.4608 40.6368 11.6978 40.9258 12.1484C41.2106 12.5925 41.4999 13.3326 41.5 14.5527V29.4473C41.4999 30.6674 41.2106 31.4075 40.9258 31.8516C40.6368 32.3022 40.2938 32.5392 40.0605 32.6592L40.0527 32.6631L40.0459 32.667C39.8113 32.791 39.4576 32.9248 39.0049 32.9248C38.4721 32.9248 37.6651 32.7567 36.6182 32.0107L36.6162 32.0088L33.6045 29.8701L31.335 28.2578L31.2363 31.04C31.1296 34.07 30.4286 35.8087 29.3027 36.8389C28.157 37.8872 26.2507 38.5 23.0244 38.5H10.7314C7.53234 38.4999 5.54633 37.3949 4.33105 35.9307C3.07667 34.4193 2.5 32.3489 2.5 30.2285V13.7715C2.5 10.3902 3.16534 8.44577 4.30078 7.30566C5.43467 6.16715 7.36716 5.50003 10.7314 5.5ZM19.9512 11.4893C17.012 11.4893 14.5996 13.8902 14.5996 16.8574C14.5998 19.8246 17.012 22.2246 19.9512 22.2246C22.8903 22.2246 25.3026 19.8246 25.3027 16.8574C25.3027 13.8901 22.8904 11.4893 19.9512 11.4893Z" stroke="url(#paint0_linear_28524_414)" stroke-width="3"/>
<defs>
<linearGradient id="paint0_linear_28524_414" x1="22" y1="4" x2="22" y2="40" gradientUnits="userSpaceOnUse">
<stop stop-color="#11995A"/>
<stop offset="1" stop-color="#03C068"/>
</linearGradient>
</defs>
</svg>
