<svg width="240" height="47" viewBox="0 0 240 47" fill="none" xmlns="http://www.w3.org/2000/svg">
<path fill-rule="evenodd" clip-rule="evenodd" d="M27.5399 0.847174C24.8062 -0.282391 21.7362 -0.282391 19.0025 0.847174L10.4409 4.39496C9.08593 4.95552 7.8548 5.77775 6.81795 6.8146C5.7811 7.85145 4.95887 9.08258 4.39831 10.4375L0.850525 18.983C-0.283508 21.7214 -0.283508 24.7981 0.850525 27.5366L4.39831 36.1063C4.95875 37.4623 5.78085 38.6946 6.81765 39.7328C7.85446 40.771 9.08565 41.5947 10.4409 42.157L18.9864 45.6967C21.7248 46.8307 24.8015 46.8307 27.5399 45.6967L36.1097 42.157C38.8488 41.0217 41.0251 38.8454 42.1604 36.1063L45.7 27.5528C46.8341 24.8143 46.8341 21.7376 45.7 18.9992L42.1604 10.4375C41.5981 9.08229 40.7743 7.85111 39.7362 6.8143C38.698 5.7775 37.4657 4.9554 36.1097 4.39496L27.5399 0.847174ZM31.5989 19.9206C31.9988 19.2116 32.2103 18.4119 32.2132 17.5979C32.2132 16.9735 32.0902 16.3552 31.8513 15.7784C31.6123 15.2015 31.2621 14.6774 30.8206 14.2358C30.3791 13.7943 29.8549 13.4441 29.278 13.2052C28.7012 12.9662 28.0829 12.8432 27.4585 12.8432H14.8145V21.3887V33.5386H28.147C29.5994 33.5321 31.0015 33.0061 32.0998 32.0558C33.1981 31.1055 33.9202 29.7935 34.1355 28.3572C34.3507 26.9208 34.045 25.4549 33.2735 24.2243C32.502 22.9938 31.3156 22.0799 29.929 21.6479C30.6241 21.2243 31.199 20.6296 31.5989 19.9206Z" fill="#0054F9"/>
<path d="M65.0925 34.5754V40.1401H64.1367V34.5754H65.0925Z" fill="#272932"/>
<path d="M75.2507 34.5754H73.5092H72.5534H70.8281V35.3368H72.5534V40.1401H73.5092V35.3368H75.2507V34.5754Z" fill="#272932"/>
<path d="M91.1252 38.3258H92.081C92.0568 38.6721 91.9513 39.0079 91.7732 39.3059C91.5962 39.5903 91.3439 39.8202 91.0442 39.9701C90.6889 40.1427 90.2969 40.2261 89.9021 40.2131C89.5852 40.2191 89.2706 40.1584 88.9787 40.0349C88.7092 39.9072 88.4672 39.7284 88.2659 39.5084C88.0683 39.2685 87.9172 38.9938 87.8204 38.6984C87.7122 38.347 87.6602 37.9806 87.6665 37.613V37.1513C87.6608 36.7837 87.7127 36.4174 87.8204 36.0659C87.917 35.767 88.0742 35.4913 88.2821 35.2559C88.4747 35.0245 88.7188 34.8414 88.9949 34.7213C89.3261 34.5936 89.6795 34.5335 90.0342 34.5446C90.389 34.5558 90.7379 34.6379 91.0604 34.7861C91.3562 34.9392 91.6031 35.1721 91.7732 35.4584C91.9479 35.7644 92.0556 36.104 92.0891 36.4547H91.1333C91.1168 36.2404 91.059 36.0314 90.9632 35.8391C90.8839 35.6708 90.7535 35.5319 90.5906 35.4422C90.3883 35.347 90.1659 35.3026 89.9426 35.3126C89.744 35.307 89.5469 35.3487 89.3675 35.4341C89.2017 35.5158 89.0595 35.6385 88.9544 35.7905C88.8389 35.9686 88.7565 36.1662 88.7114 36.3737C88.6511 36.6393 88.6239 36.9114 88.6304 37.1837V37.6535C88.6254 37.9253 88.6499 38.1969 88.7033 38.4635C88.7426 38.6701 88.8194 38.8678 88.9301 39.0467C89.0289 39.2023 89.1654 39.3305 89.327 39.4193C89.504 39.5131 89.7018 39.5605 89.9021 39.557C90.1307 39.5677 90.3585 39.5233 90.5663 39.4274C90.7329 39.3476 90.8672 39.2133 90.947 39.0467C91.0647 38.8246 91.1259 38.5771 91.1252 38.3258Z" fill="#272932"/>
<path d="M102.434 37.208V37.5077C102.438 37.8917 102.383 38.2741 102.272 38.6416C102.167 38.9385 102.008 39.2132 101.802 39.4516C101.602 39.6836 101.353 39.8689 101.073 39.9943C100.472 40.2321 99.8029 40.2321 99.2019 39.9943C98.9222 39.8689 98.6733 39.6836 98.4729 39.4516C98.2595 39.216 98.0944 38.9408 97.9869 38.6416C97.8685 38.2755 97.8111 37.8924 97.8168 37.5077V37.208C97.8111 36.8232 97.8685 36.4401 97.9869 36.074C98.0919 35.7754 98.2543 35.5003 98.4648 35.264C98.6634 35.0321 98.9129 34.8491 99.1938 34.7294C99.4902 34.6057 99.8082 34.5421 100.129 34.5421C100.45 34.5421 100.768 34.6057 101.065 34.7294C101.346 34.8491 101.595 35.0321 101.794 35.264C102.005 35.4986 102.165 35.7744 102.264 36.074C102.382 36.4401 102.44 36.8232 102.434 37.208ZM101.478 37.5077V37.1999C101.481 36.9268 101.448 36.6545 101.381 36.3899C101.332 36.1757 101.244 35.9724 101.122 35.7905C101.014 35.6356 100.869 35.5103 100.7 35.426C100.521 35.3405 100.324 35.2962 100.125 35.2964C99.9289 35.296 99.735 35.3404 99.5583 35.426C99.391 35.5125 99.2467 35.6374 99.1371 35.7905C99.0142 35.9724 98.9263 36.1757 98.8779 36.3899C98.8107 36.6545 98.778 36.9268 98.7807 37.1999V37.5077C98.7776 37.7807 98.8103 38.0531 98.8779 38.3177C98.9241 38.5364 99.0151 38.7433 99.1452 38.9251C99.2526 39.0823 99.3973 39.2103 99.5664 39.2977C99.7438 39.3806 99.9376 39.4221 100.133 39.4192C100.329 39.4238 100.524 39.3822 100.7 39.2977C100.871 39.2124 101.016 39.0839 101.122 38.9251C101.249 38.7426 101.337 38.5358 101.381 38.3177C101.448 38.0531 101.481 37.7807 101.478 37.5077Z" fill="#272932"/>
<path d="M112.85 34.5754V40.1401H111.894L109.399 36.1549V40.1401H108.436V34.5754H109.399L111.902 38.5687V34.5754H112.85Z" fill="#272932"/>
<path d="M121.962 38.7064C121.964 38.6018 121.947 38.4977 121.913 38.3986C121.875 38.3044 121.813 38.2211 121.735 38.1556C121.622 38.067 121.497 37.996 121.363 37.945C121.171 37.8576 120.974 37.7845 120.771 37.7263C120.52 37.652 120.273 37.5599 120.034 37.4509C119.829 37.3597 119.635 37.2427 119.459 37.1026C119.299 36.977 119.167 36.8199 119.07 36.6409C118.978 36.452 118.93 36.2439 118.933 36.0334C118.926 35.8186 118.973 35.6053 119.069 35.413C119.165 35.2207 119.308 35.0554 119.483 34.9319C119.673 34.7885 119.887 34.6814 120.115 34.616C120.377 34.5339 120.651 34.4955 120.925 34.5026C121.292 34.4909 121.656 34.5687 121.986 34.7294C122.271 34.867 122.511 35.0799 122.683 35.3449C122.836 35.5877 122.921 35.8678 122.926 36.1549H121.97C121.973 35.9861 121.934 35.8192 121.857 35.6689C121.775 35.5243 121.65 35.4084 121.5 35.3368C121.316 35.2489 121.113 35.2072 120.909 35.2153C120.715 35.2096 120.523 35.2426 120.342 35.3125C120.208 35.3749 120.093 35.4729 120.01 35.596C119.935 35.7148 119.896 35.8525 119.897 35.9929C119.895 36.0923 119.92 36.1903 119.969 36.2764C120.025 36.3718 120.103 36.4524 120.196 36.5113C120.31 36.5967 120.435 36.665 120.569 36.7138C120.74 36.7884 120.916 36.8507 121.095 36.9001C121.374 36.9784 121.645 37.0814 121.905 37.2079C122.114 37.3034 122.308 37.4289 122.48 37.5805C122.626 37.7141 122.742 37.8769 122.821 38.0584C122.902 38.2476 122.94 38.4522 122.934 38.6578C122.941 38.873 122.895 39.0867 122.801 39.2801C122.706 39.4735 122.565 39.6408 122.391 39.7675C122.202 39.9071 121.987 40.0089 121.76 40.0672C121.496 40.1423 121.223 40.1778 120.95 40.1725C120.676 40.1763 120.403 40.1408 120.14 40.0672C119.888 39.9993 119.65 39.8898 119.435 39.7432C119.227 39.6012 119.055 39.4126 118.933 39.1924C118.795 38.9454 118.731 38.6646 118.746 38.3824H119.702C119.698 38.541 119.728 38.6985 119.791 38.8441C119.852 38.9708 119.944 39.0797 120.059 39.16C120.177 39.2418 120.308 39.3021 120.447 39.3382C120.604 39.374 120.764 39.393 120.925 39.3949C121.119 39.4007 121.312 39.3677 121.492 39.2977C121.63 39.2456 121.749 39.1523 121.832 39.0304C121.903 38.9357 121.948 38.824 121.962 38.7064Z" fill="#272932"/>
<path d="M131.941 34.5754H132.897V38.2933C132.912 38.6664 132.816 39.0356 132.622 39.3544C132.44 39.6372 132.182 39.8621 131.876 40.0024C131.544 40.1451 131.185 40.2169 130.823 40.213C130.456 40.2177 130.092 40.146 129.754 40.0024C129.45 39.8644 129.193 39.6388 129.017 39.3544C128.823 39.0356 128.727 38.6664 128.742 38.2933V34.5754H129.697V38.2933C129.691 38.5224 129.738 38.7499 129.835 38.9575C129.924 39.1182 130.06 39.2481 130.224 39.3301C130.412 39.4145 130.617 39.456 130.823 39.4516C131.027 39.457 131.23 39.4155 131.415 39.3301C131.583 39.2539 131.72 39.1224 131.803 38.9575C131.901 38.7499 131.948 38.5224 131.941 38.2933V34.5754Z" fill="#272932"/>
<path d="M139.944 39.3787V34.5754H138.988V40.1401H139.677H139.944H142.471V39.3787H139.944Z" fill="#272932"/>
<path d="M151.341 34.5754H149.591H148.635H146.91V35.3368H148.635V40.1401H149.591V35.3368H151.341V34.5754Z" fill="#272932"/>
<path d="M158.135 34.5754V40.1401H157.18V34.5754H158.135Z" fill="#272932"/>
<path d="M168.789 34.5754V40.1401H167.833L165.339 36.1549V40.1401H164.383V34.5754H165.339L167.842 38.5687V34.5754H168.789Z" fill="#272932"/>
<path d="M179.246 37.297V39.4192C179.14 39.551 179.017 39.6681 178.881 39.7675C178.677 39.9059 178.453 40.0124 178.217 40.0834C177.883 40.1792 177.536 40.2229 177.188 40.213C176.862 40.2166 176.538 40.1589 176.232 40.0429C175.946 39.9239 175.689 39.7442 175.479 39.5164C175.264 39.2818 175.099 39.0063 174.993 38.7064C174.875 38.3403 174.817 37.9572 174.823 37.5724V37.1836C174.808 36.798 174.855 36.4126 174.961 36.0415C175.057 35.7427 175.214 35.4669 175.422 35.2315C175.616 35.0049 175.86 34.8273 176.135 34.7131C176.812 34.4592 177.561 34.4766 178.225 34.7617C178.511 34.8997 178.753 35.116 178.922 35.3854C179.09 35.6673 179.195 35.9824 179.229 36.3088H178.29C178.266 36.1232 178.206 35.9442 178.112 35.7823C178.023 35.6308 177.894 35.5073 177.739 35.4259C177.549 35.3432 177.343 35.3005 177.136 35.3005C176.928 35.3005 176.722 35.3432 176.532 35.4259C176.362 35.5116 176.217 35.64 176.111 35.7985C175.992 35.9788 175.907 36.1791 175.86 36.3898C175.801 36.6557 175.774 36.9276 175.779 37.1998V37.5967C175.777 37.8692 175.807 38.141 175.868 38.4067C175.929 38.6205 176.025 38.823 176.151 39.0061C176.271 39.1623 176.427 39.2874 176.605 39.3706C176.796 39.4544 177.004 39.4959 177.212 39.4921C177.392 39.4957 177.571 39.4794 177.747 39.4435C177.865 39.4165 177.977 39.37 178.079 39.3058C178.153 39.267 178.219 39.2148 178.274 39.1519V38.0098H177.123V37.297H179.246Z" fill="#272932"/>
<path fill-rule="evenodd" clip-rule="evenodd" d="M99.1769 14.9978C98.7373 13.8591 98.1013 12.8063 97.2977 11.8875C96.4894 10.9487 95.4933 10.1899 94.3736 9.65996C93.2038 9.10114 91.9195 8.82375 90.6234 8.84997C89.3257 8.83546 88.0414 9.11226 86.865 9.65996C85.7506 10.1711 84.7485 10.8978 83.9166 11.7984C83.0882 12.7049 82.4248 13.7493 81.9564 14.8844C81.4932 16.0352 81.2566 17.2646 81.2598 18.5051C81.2624 19.727 81.4903 20.938 81.9321 22.0772C82.3735 23.2151 83.0094 24.2675 83.8113 25.1876C84.6325 26.0978 85.6265 26.8357 86.7354 27.3584C87.9292 27.9056 89.2292 28.1822 90.5424 28.1684C91.8206 28.1715 93.084 27.8951 94.244 27.3584C95.3628 26.8617 96.3688 26.1424 97.2005 25.2443C98.0328 24.3408 98.6967 23.2956 99.1607 22.1582C100.072 19.8584 100.072 17.2977 99.1607 14.9978H99.1769ZM95.7425 20.7893C95.5199 21.5345 95.166 22.234 94.6976 22.8548C94.2275 23.4549 93.6335 23.9467 92.9561 24.2966C92.2018 24.67 91.3676 24.8536 90.5262 24.8312C89.7117 24.8446 88.9051 24.67 88.1691 24.3209C87.4969 23.9738 86.9039 23.4911 86.4276 22.9034C85.952 22.2822 85.5875 21.5834 85.3503 20.8379C84.8696 19.3088 84.8696 17.669 85.3503 16.1399C85.5935 15.4085 85.9547 14.7217 86.4195 14.1068C86.8793 13.5042 87.4654 13.0093 88.1367 12.6569C88.8865 12.2678 89.722 12.0729 90.5667 12.09C91.369 12.0791 92.1617 12.2655 92.8752 12.6326C93.5597 12.9607 94.1565 13.4465 94.6166 14.0501C95.1089 14.6552 95.4826 15.3477 95.7182 16.0913C95.9875 16.848 96.1245 17.6453 96.1232 18.4484C96.1228 19.2441 95.9943 20.0345 95.7425 20.7893Z" fill="#272932"/>
<path fill-rule="evenodd" clip-rule="evenodd" d="M78.5711 19.9874C77.9276 19.1375 77.0225 18.5227 75.9953 18.2378C76.8582 17.8756 77.5743 17.2337 78.0284 16.4153C78.4605 15.6748 78.7015 14.8384 78.7298 13.9815C78.758 13.1246 78.5727 12.2741 78.1904 11.5067C77.857 10.7862 77.3368 10.1681 76.6838 9.71662C76.0145 9.2291 75.2031 8.97573 74.3753 8.99573H64.1855V28.0063H73.3871C74.4323 28.0186 75.4697 27.826 76.4408 27.4394C77.3266 27.1176 78.106 26.5569 78.6926 25.8194C79.2577 25.0336 79.5429 24.081 79.5026 23.114C79.5518 21.9968 79.2237 20.8955 78.5711 19.9874ZM67.8872 12.1466H72.9821C73.3523 12.1414 73.7158 12.2457 74.027 12.4463C74.3515 12.6373 74.6133 12.9188 74.7803 13.2563C74.9817 13.6436 75.082 14.0754 75.0719 14.5118C75.0856 14.9629 74.9734 15.4088 74.7479 15.7997C74.5583 16.1396 74.2778 16.4201 73.9379 16.6097C73.5952 16.8053 73.2066 16.9059 72.812 16.9013H71.4998V19.8254H73.5734C73.976 19.82 74.3701 19.9419 74.6993 20.1737C75.0499 20.3966 75.3307 20.7138 75.5093 21.089C75.7161 21.4862 75.8192 21.9292 75.809 22.3769C75.8104 22.8085 75.6987 23.233 75.485 23.6081C75.2694 23.9803 74.9664 24.2945 74.6021 24.5234C74.2355 24.7351 73.8186 24.8443 73.3952 24.8393H67.8872V12.1466Z" fill="#272932"/>
<path d="M106.393 8.96338H102.691V28.0064H106.393V8.96338Z" fill="#272932"/>
<path fill-rule="evenodd" clip-rule="evenodd" d="M117.492 12.8595L120.116 20.7245H117.856L117.2 23.3246H120.788L122.562 28.0712H126.369L119.371 9.0282H115.613L108.59 28.0712H112.397L117.492 12.8595Z" fill="#272932"/>
<path fill-rule="evenodd" clip-rule="evenodd" d="M132.088 28.0064H128.387V8.96338H136.811C137.651 8.95216 138.483 9.13511 139.241 9.49797C139.975 9.84545 140.631 10.3388 141.168 10.9479C141.705 11.5346 142.128 12.2157 142.416 12.9567C142.713 13.6901 142.867 14.4737 142.869 15.2652C142.871 16.0625 142.726 16.8534 142.44 17.5979C142.18 18.3163 141.778 18.9748 141.258 19.5338C140.743 20.0818 140.123 20.5199 139.435 20.8217L143.785 27.9821H139.735L135.822 21.5993H134.745V18.3593H136.762C137.206 18.3641 137.639 18.2217 137.993 17.9543C138.364 17.6517 138.658 17.266 138.852 16.8284C139.071 16.3395 139.181 15.809 139.176 15.2733C139.188 14.7226 139.057 14.1782 138.795 13.6938C138.57 13.2522 138.239 12.8735 137.831 12.5922C137.475 12.3291 137.043 12.1871 136.6 12.1872H132.121L132.088 28.0064Z" fill="#272932"/>
<path fill-rule="evenodd" clip-rule="evenodd" d="M152.094 17.9219L147.396 8.96338H143.379L150.272 21.2996V28.0064H153.941V21.3563L160.867 8.96338H156.865L152.094 17.9219Z" fill="#272932"/>
<path fill-rule="evenodd" clip-rule="evenodd" d="M166.658 15.7754V28.0064H162.965V8.96338H165.913L175.755 21.5183V8.98768H179.456V28.0064H176.37L166.658 15.7754Z" fill="#272932"/>
<path fill-rule="evenodd" clip-rule="evenodd" d="M200.183 14.9979C199.74 13.8606 199.104 12.8084 198.304 11.8875C197.494 10.9498 196.498 10.1912 195.38 9.65998C194.209 9.10201 192.925 8.82466 191.629 8.84998C190.332 8.83464 189.047 9.11148 187.871 9.65998C186.755 10.169 185.753 10.8961 184.922 11.7984C184.094 12.7049 183.431 13.7493 182.962 14.8845C182.499 16.0352 182.263 17.2646 182.266 18.5051C182.264 19.7274 182.492 20.9391 182.938 22.0772C183.38 23.2132 184.012 24.2651 184.809 25.1876C185.632 26.0961 186.625 26.8337 187.733 27.3584C188.929 27.9068 190.232 28.1835 191.548 28.1684C192.826 28.1708 194.09 27.8944 195.25 27.3584C196.365 26.8586 197.367 26.1397 198.198 25.2443C199.031 24.3408 199.694 23.2956 200.158 22.1582C201.07 19.8584 201.07 17.2977 200.158 14.9979H200.183ZM196.748 20.7893C196.519 21.5318 196.166 22.2301 195.703 22.8548C195.232 23.4532 194.638 23.9446 193.962 24.2966C193.207 24.6691 192.373 24.8526 191.532 24.8312C190.715 24.8435 189.906 24.669 189.167 24.3209C188.498 23.9692 187.906 23.4873 187.425 22.9034C186.955 22.28 186.594 21.5817 186.356 20.8379C186.103 20.0667 185.975 19.2601 185.975 18.4484C185.978 17.666 186.095 16.8882 186.324 16.1399C186.57 15.4081 186.934 14.7214 187.401 14.1069C187.859 13.5023 188.445 13.0071 189.118 12.657C189.868 12.2672 190.703 12.0722 191.548 12.09C192.351 12.0791 193.143 12.2655 193.857 12.6327C194.541 12.9607 195.138 13.4465 195.598 14.0502C196.09 14.6553 196.464 15.3478 196.7 16.0913C196.966 16.8484 197.101 17.6458 197.097 18.4484C197.107 19.2424 196.989 20.0328 196.748 20.7893Z" fill="#272932"/>
<path fill-rule="evenodd" clip-rule="evenodd" d="M204.915 8.96338L210.067 23.6081L215.162 8.96338H219.058L211.841 28.0064H208.269L201.027 8.96338H204.915Z" fill="#272932"/>
<path fill-rule="evenodd" clip-rule="evenodd" d="M236.974 13.4427C237.224 13.5874 237.458 13.7585 237.671 13.953L239.291 10.9479C238.696 10.5462 238.067 10.1966 237.412 9.90297C236.69 9.55914 235.935 9.28781 235.16 9.09297C234.336 8.88743 233.49 8.78674 232.641 8.79327C231.433 8.77826 230.236 9.01552 229.125 9.48987C228.108 9.90398 227.233 10.6047 226.606 11.5068C225.972 12.4654 225.652 13.5979 225.691 14.7467C225.657 15.5961 225.861 16.4382 226.282 17.1767C226.722 17.871 227.344 18.4313 228.081 18.7967C229.043 19.2689 230.05 19.646 231.086 19.9226C232.082 20.2142 232.949 20.4815 233.686 20.7326C234.3 20.9023 234.881 21.1762 235.403 21.5426C235.609 21.7188 235.771 21.9402 235.878 22.1896C235.984 22.4389 236.031 22.7095 236.015 22.98C235.999 23.2506 235.921 23.5139 235.787 23.7493C235.653 23.9847 235.466 24.1859 235.241 24.3371C234.544 24.7208 233.751 24.8979 232.957 24.8474C232.244 24.8474 231.533 24.7576 230.843 24.5801C230.182 24.4131 229.535 24.1965 228.907 23.9321C228.391 23.6928 227.891 23.4223 227.408 23.1221C227.104 22.9338 226.817 22.7197 226.55 22.4822L224.93 25.6736C225.689 26.2055 226.504 26.6536 227.36 27.0101C228.245 27.3636 229.162 27.6347 230.097 27.8201C231.033 28.0132 231.985 28.1109 232.941 28.1117C233.842 28.1166 234.742 28.0187 235.622 27.8201C236.425 27.6218 237.187 27.2846 237.873 26.8238C238.531 26.3845 239.066 25.7852 239.429 25.0823C239.823 24.2648 240.017 23.3653 239.996 22.4579C240.046 21.4702 239.782 20.492 239.242 19.6634C238.706 18.9069 237.972 18.3128 237.12 17.9462C236.083 17.4573 234.997 17.0799 233.88 16.8203C232.908 16.5692 232.106 16.3424 231.45 16.1237C230.913 15.9645 230.418 15.6878 230 15.3137C229.837 15.1543 229.71 14.9622 229.626 14.75C229.542 14.5379 229.504 14.3104 229.514 14.0826C229.496 13.7712 229.555 13.4601 229.686 13.1773C229.818 12.8945 230.017 12.6489 230.268 12.4626C230.951 12.0466 231.746 11.8514 232.544 11.9037C233.117 11.9032 233.687 11.985 234.237 12.1467C234.76 12.2752 235.272 12.4458 235.767 12.657C236.197 12.8745 236.602 13.1379 236.974 13.4427Z" fill="#272932"/>
<path d="M220.66 8.95526H223.86L222.564 16.0832H220.66V8.95526Z" fill="#272932"/>
</svg>
