<svg width="15" height="15" viewBox="0 0 15 15" fill="none" xmlns="http://www.w3.org/2000/svg">
<g clip-path="url(#clip0_40_12)">
<path d="M7.5 15C11.6411 15 15 11.6411 15 7.5C15 3.35892 11.6411 0 7.5 0C3.35892 0 0 3.35892 0 7.5C0 11.6411 3.35892 15 7.5 15ZM6.96427 3.21429C6.96427 2.91964 7.20535 2.67856 7.5 2.67856C7.79465 2.67856 8.03573 2.91964 8.03573 3.21429V7.24286L10.5134 9.22501C10.7438 9.40983 10.7813 9.74731 10.5964 9.97768C10.5464 10.0405 10.4828 10.0912 10.4105 10.126C10.3381 10.1607 10.2588 10.1787 10.1786 10.1786C10.0607 10.1786 9.94284 10.141 9.84376 10.0607L7.1652 7.91787C7.0393 7.81607 6.96431 7.66341 6.96431 7.5V3.21429H6.96427Z" fill="#FFB11A"/>
</g>
<defs>
<clipPath id="clip0_40_12">
<rect width="15" height="15" fill="white"/>
</clipPath>
</defs>
</svg>
