<svg width="67" height="69" viewBox="0 0 67 69" fill="none" xmlns="http://www.w3.org/2000/svg">
<path d="M12.3573 57.3345L7.65479 4.56995H59.3453L54.6365 57.3261L33.4687 63.195L12.3573 57.3345Z" fill="#1572B6"/>
<path d="M33.5 58.7101L50.6059 53.9677L54.6301 8.88513H33.5V58.7101Z" fill="#33A9DC"/>
<path d="M33.5 28.0012H42.0634L42.6539 21.3744H33.5V14.9026H49.7266L49.5716 16.6384L47.9824 34.4729H33.5V28.0012Z" fill="white"/>
<path d="M33.5401 44.8076L33.5107 44.816L26.3041 42.8688L25.8434 37.7076H19.3464L20.2531 47.8687L33.5086 51.5495L33.5401 51.5411V44.8076Z" fill="#EBEBEB"/>
<path d="M41.5128 34.1985L40.7339 42.8647L33.5168 44.8118V51.5453L46.7828 47.8687L46.8812 46.7758L48.0056 34.1985H41.5128Z" fill="white"/>
<path d="M33.5229 14.9026V21.3744H17.8909L17.7611 19.9193L17.466 16.6384L17.311 14.9026H33.5229ZM33.4999 28.0012V34.4729H26.3832L26.2534 33.0178L25.9602 29.7369L25.8053 28.0012H33.4999Z" fill="#EBEBEB"/>
</svg>
