<svg width="57" height="59" viewBox="0 0 57 59" fill="none" xmlns="http://www.w3.org/2000/svg">
<mask id="mask0_37202_21" style="mask-type:luminance" maskUnits="userSpaceOnUse" x="0" y="0" width="57" height="58">
<path d="M57 0.328674H0V57.8896H57V0.328674Z" fill="white"/>
</mask>
<g mask="url(#mask0_37202_21)">
<path d="M19 57.8897C24.244 57.8897 28.5 53.5917 28.5 48.2961V38.7026H19C13.756 38.7026 9.5 43.0005 9.5 48.2961C9.5 53.5917 13.756 57.8897 19 57.8897Z" fill="#0ACF83"/>
<path d="M9.5 29.1091C9.5 23.8135 13.756 19.5157 19 19.5157H28.5V38.7027H19C13.756 38.7027 9.5 34.4048 9.5 29.1091Z" fill="#A259FF"/>
<path d="M9.5 9.92217C9.5 4.62656 13.756 0.328674 19 0.328674H28.5V19.5156H19C13.756 19.5156 9.5 15.2178 9.5 9.92217Z" fill="#F24E1E"/>
<path d="M28.5 0.328674H38C43.244 0.328674 47.5 4.62656 47.5 9.92217C47.5 15.2178 43.244 19.5156 38 19.5156H28.5V0.328674Z" fill="#FF7262"/>
<path d="M47.5 29.1091C47.5 34.4048 43.244 38.7027 38 38.7027C32.756 38.7027 28.5 34.4048 28.5 29.1091C28.5 23.8135 32.756 19.5157 38 19.5157C43.244 19.5157 47.5 23.8135 47.5 29.1091Z" fill="#1ABCFE"/>
</g>
</svg>
