<svg width="58" height="60" viewBox="0 0 58 60" fill="none" xmlns="http://www.w3.org/2000/svg">
<mask id="mask0_37202_7" style="mask-type:luminance" maskUnits="userSpaceOnUse" x="0" y="0" width="58" height="60">
<path d="M58 0.339783H0V59.852H58V0.339783Z" fill="white"/>
</mask>
<g mask="url(#mask0_37202_7)">
<path d="M56.9061 27.4443L31.5827 1.46215C30.1253 -0.0342576 27.76 -0.0342576 26.3007 1.46215L21.0423 6.85776L27.7128 13.7024C29.263 13.1649 31.0406 13.5255 32.2763 14.7933C33.5179 16.0694 33.8668 17.909 33.3303 19.5046L39.759 26.1011C41.3144 25.5514 43.1089 25.9069 44.3512 27.1838C46.0874 28.9644 46.0874 31.8506 44.3512 33.6324C42.6146 35.4146 39.8018 35.4146 38.0642 33.6324C36.7584 32.2911 36.4357 30.3232 37.0969 28.6725L31.1016 22.5208L31.1009 38.7094C31.5355 38.9298 31.9325 39.2212 32.2763 39.5718C34.0125 41.3526 34.0125 44.2389 32.2763 46.0221C30.5398 47.8033 27.7256 47.8033 25.9915 46.0221C24.2553 44.2389 24.2553 41.3527 25.9915 39.572C26.4075 39.145 26.902 38.8067 27.4462 38.5768V22.2374C26.9011 22.0092 26.4065 21.6707 25.9915 21.2422C24.6761 19.8944 24.3597 17.914 25.0338 16.2567L18.4581 9.50885L1.0943 27.3241C-0.364766 28.822 -0.364766 31.2492 1.0943 32.7458L26.4181 58.7285C27.876 60.2251 30.2409 60.2251 31.7006 58.7285L56.906 32.8664C58.3645 31.3694 58.3647 28.9407 56.9061 27.4443Z" fill="#DE4C36"/>
</g>
</svg>
