<svg width="66" height="68" viewBox="0 0 66 68" fill="none" xmlns="http://www.w3.org/2000/svg">
<path d="M12.173 56.4788L7.53857 4.50183H58.4618L53.8211 56.4706L32.9693 62.2519L12.173 56.4788Z" fill="#E44F26"/>
<path d="M33 57.8339L49.8506 53.1623L53.8148 8.75256H33V57.8339Z" fill="#F1662A"/>
<path d="M33 28.0287H24.5644L23.9827 21.5009H33V15.1257H17.0156L17.1682 16.8375L18.7338 34.4039H33V28.0287ZM33 44.5844L32.9711 44.5927L25.872 42.6765L25.4182 37.5925H19.0182L19.9114 47.5998L32.9711 51.2257L33 51.2174V44.5844Z" fill="#EBEBEB"/>
<path d="M32.9775 28.0287V34.4039H40.8274L40.089 42.6724L32.9775 44.5905V51.2235L46.0475 47.5998L46.1424 46.5232L47.6398 29.7405L47.7965 28.0287H32.9775ZM32.9775 15.1257V21.5009H48.3762L48.504 20.0695L48.7948 16.8375L48.9474 15.1257H32.9775Z" fill="white"/>
</svg>
