<svg width="51" height="53" viewBox="0 0 51 53" fill="none" xmlns="http://www.w3.org/2000/svg">
<mask id="mask0_37202_223" style="mask-type:luminance" maskUnits="userSpaceOnUse" x="0" y="0" width="51" height="52">
<path d="M51 0.291382H0V51.2914H51V0.291382Z" fill="white"/>
</mask>
<g mask="url(#mask0_37202_223)">
<path d="M0 0.291382H51V51.2914H0V0.291382Z" fill="#F7DF1E"/>
<path d="M13.4099 42.9107L17.3126 40.5488C18.0657 41.8837 18.7506 43.0134 20.3935 43.0134C21.9684 43.0134 22.9615 42.3973 22.9615 40.0012V23.7054H27.7541V40.0689C27.7541 45.0328 24.8442 47.2924 20.5989 47.2924C16.765 47.2924 14.5397 45.3071 13.4099 42.9107ZM30.3572 42.3972L34.2596 40.1377C35.2869 41.8154 36.6221 43.0478 38.984 43.0478C40.9701 43.0478 42.2363 42.0548 42.2363 40.6855C42.2363 39.0422 40.9354 38.4602 38.7444 37.5019L37.5464 36.988C34.0886 35.5164 31.795 33.6676 31.795 29.7648C31.795 26.1701 34.5337 23.4313 38.8132 23.4313C41.86 23.4313 44.051 24.4927 45.6256 27.2657L41.8938 29.6622C41.0721 28.1902 40.1824 27.6083 38.8129 27.6083C37.4092 27.6083 36.5192 28.4984 36.5192 29.6622C36.5192 31.1 37.4092 31.6823 39.4631 32.5724L40.6613 33.0858C44.7353 34.8319 47.0289 36.612 47.0289 40.6171C47.0289 44.931 43.6398 47.2929 39.0866 47.2929C34.6362 47.2929 31.7607 45.1703 30.3572 42.3972Z" fill="black"/>
</g>
</svg>
