<svg aria-hidden="true" xmlns="http://www.w3.org/2000/svg" xmlns:xlink="http://www.w3.org/1999/xlink"><symbol viewBox="0 0 16 16" fill="none" id="arrow" xmlns="http://www.w3.org/2000/svg">
<path d="M7.29289 0.292892C7.68342 -0.0976314 8.31658 -0.0976315 8.70711 0.292892L15.0711 6.65685C15.4616 7.04738 15.4616 7.68054 15.0711 8.07107C14.6805 8.46159 14.0474 8.46159 13.6569 8.07107L8 2.41421L2.34315 8.07107C1.95262 8.46159 1.31946 8.46159 0.928932 8.07107C0.538407 7.68054 0.538407 7.04738 0.928932 6.65685L7.29289 0.292892ZM7 16L7 0.999999L9 0.999999L9 16L7 16Z" fill="currentColor"/>
</symbol><symbol viewBox="0 0 20 16" fill="none" id="mail" xmlns="http://www.w3.org/2000/svg">
<path d="M18 14H16V5.25L10 9L4 5.25V14H2V2H3.2L10 6.25L16.8 2H18M18 0H2C0.89 0 0 0.89 0 2V14C0 14.5304 0.210714 15.0391 0.585786 15.4142C0.960859 15.7893 1.46957 16 2 16H18C18.5304 16 19.0391 15.7893 19.4142 15.4142C19.7893 15.0391 20 14.5304 20 14V2C20 1.46957 19.7893 0.960859 19.4142 0.585786C19.0391 0.210714 18.5304 0 18 0Z" fill="currentColor"/>
</symbol><symbol viewBox="0 0 20 20" fill="none" id="telegram" xmlns="http://www.w3.org/2000/svg">
<path d="M10 0C4.48 0 0 4.48 0 10C0 15.52 4.48 20 10 20C15.52 20 20 15.52 20 10C20 4.48 15.52 0 10 0ZM14.64 6.8C14.49 8.38 13.84 12.22 13.51 13.99C13.37 14.74 13.09 14.99 12.83 15.02C12.25 15.07 11.81 14.64 11.25 14.27C10.37 13.69 9.87 13.33 9.02 12.77C8.03 12.12 8.67 11.76 9.24 11.18C9.39 11.03 11.95 8.7 12 8.49C12.0069 8.45819 12.006 8.42517 11.9973 8.3938C11.9886 8.36244 11.9724 8.33367 11.95 8.31C11.89 8.26 11.81 8.28 11.74 8.29C11.65 8.31 10.25 9.24 7.52 11.08C7.12 11.35 6.76 11.49 6.44 11.48C6.08 11.47 5.4 11.28 4.89 11.11C4.26 10.91 3.77 10.8 3.81 10.45C3.83 10.27 4.08 10.09 4.55 9.9C7.47 8.63 9.41 7.79 10.38 7.39C13.16 6.23 13.73 6.03 14.11 6.03C14.19 6.03 14.38 6.05 14.5 6.15C14.6 6.23 14.63 6.34 14.64 6.42C14.63 6.48 14.65 6.66 14.64 6.8Z" fill="currentColor"/>
</symbol></svg>