<?xml version="1.0" standalone="no"?>
<!DOCTYPE svg PUBLIC "-//W3C//DTD SVG 20010904//EN"
 "http://www.w3.org/TR/2001/REC-SVG-20010904/DTD/svg10.dtd">
<svg version="1.0" xmlns="http://www.w3.org/2000/svg"
 width="1776.000000pt" height="1776.000000pt" viewBox="0 0 1776.000000 1776.000000"
 preserveAspectRatio="xMidYMid meet">
<metadata>
Created by potrace 1.14, written by Peter Selinger 2001-2017
</metadata>
<g transform="translate(0.000000,1776.000000) scale(0.100000,-0.100000)"
fill="#000000" stroke="none">
<path d="M4715 8880 l0 -4160 298 0 c163 0 297 3 298 8 0 4 2 1681 3 3727 2
2046 4 3722 4 3724 1 2 792 -785 1757 -1750 966 -965 1759 -1753 1763 -1752 5
1 524 517 1154 1147 630 630 1149 1146 1151 1146 3 0 5 -144 4 -320 -1 -176 1
-320 4 -320 4 0 139 132 300 293 l294 292 1 753 c0 413 -1 752 -3 752 -2 0
-655 -652 -1452 -1450 -797 -797 -1452 -1450 -1455 -1450 -4 0 -798 792 -1766
1760 l-1759 1760 -298 0 -298 0 0 -4160z"/>
<path d="M12359 13038 c0 -2 -2 -411 -2 -909 l-2 -907 -1756 -1756 c-966 -966
-1759 -1756 -1762 -1756 -4 0 -659 653 -1456 1450 -798 798 -1452 1450 -1453
1450 -2 0 -3 -1324 -3 -2942 l0 -2943 294 -3 c172 -1 297 2 300 7 3 5 6 1006
5 2225 l0 2217 1153 -1153 c635 -634 1158 -1152 1163 -1151 5 2 797 790 1759
1753 963 962 1752 1750 1754 1750 2 0 3 -1270 3 -2822 l0 -2823 300 -3 299 -2
0 4157 0 4158 -297 3 c-164 1 -298 1 -299 0z"/>
<path d="M1878 10805 c-243 -244 -444 -449 -446 -454 -2 -6 -10 -11 -17 -11
-7 0 -15 -4 -17 -10 -1 -5 -317 -324 -701 -709 l-697 -700 662 -665 c365 -366
887 -890 1161 -1165 l498 -499 180 180 c98 99 179 183 179 187 0 4 -41 50 -91
102 -153 159 -774 799 -929 959 -84 87 -335 347 -564 583 -43 45 -135 139
-203 208 l-125 127 28 33 c16 18 46 52 68 76 21 24 440 446 931 939 l892 895
-96 96 c-53 53 -135 136 -183 184 l-87 88 -443 -444z"/>
<path d="M15170 11069 c-96 -97 -176 -181 -177 -185 -2 -5 403 -416 899 -914
496 -498 926 -934 956 -969 l54 -64 -80 -81 c-117 -118 -280 -285 -507 -521
-110 -114 -247 -256 -305 -316 -58 -59 -163 -167 -234 -241 -70 -73 -235 -243
-365 -377 -130 -134 -278 -287 -328 -340 -51 -52 -93 -98 -93 -101 0 -4 81
-88 180 -187 l180 -181 622 624 c343 344 625 629 626 634 2 6 10 10 18 10 8 0
14 3 14 8 0 4 234 243 521 530 l520 522 -246 248 c-925 928 -2054 2059 -2066
2068 -11 8 -50 -26 -189 -167z"/>
<path d="M11444 9160 c-159 -160 -291 -293 -293 -295 -1 -2 -4 -935 -5 -2074
l-1 -2071 301 0 300 0 0 2365 c0 1301 -3 2365 -6 2365 -4 0 -137 -131 -296
-290z"/>
</g>
</svg>
