<svg width="382" height="335" viewBox="0 0 382 335" fill="none" xmlns="http://www.w3.org/2000/svg">
<path d="M118.019 325.158C144.446 325.514 170.897 325.681 197.182 322.518C217.829 320.021 238.119 315.597 257.815 308.724C276.369 302.255 293.804 293.408 309.028 281.065C316.806 274.739 323.966 266.986 329.461 258.615C344.518 235.57 349.228 209.932 344.875 182.749C342.877 170.359 338.785 158.539 332.006 147.98C322.801 133.639 310.931 121.867 296.326 112.853C283.838 105.124 270.541 99.3448 256.34 95.825C248.157 93.7797 239.784 92.4955 231.031 90.7832C232.743 90.2124 234.171 89.5465 235.669 89.2611C249.085 86.6926 262.572 86.0743 276.154 88.0958C294.613 90.8307 312.001 96.7763 327.273 107.502C351.464 124.506 367.568 147.647 376.226 175.9C383.124 198.422 383.148 220.73 373.348 242.538C363.785 263.799 349.204 281.089 330.603 294.835C306.744 312.482 279.485 322.613 250.441 327.251C230.674 330.414 210.622 332.078 190.617 333.363C160.288 335.313 130.127 333.149 100.298 327.155C97.4197 326.585 94.6129 325.633 91.7822 324.872C100.679 324.468 109.361 325.086 118.043 325.205L118.019 325.158ZM2.22455 99.9156C5.41199 77.0132 13.6423 55.9421 27.7479 37.3919C42.2341 18.3661 61.8345 7.73538 84.9316 3.02649C113.904 -2.87152 141.925 0.243961 168.424 13.3718C185.122 21.648 198.657 34.0862 209.884 48.9977C218.138 59.9613 224.061 72.0903 228.2 85.123C228.652 86.5737 228.771 88.1433 229.08 89.927C223.395 83.0539 218.257 76.3235 212.572 70.0926C202.677 59.3192 191.259 50.4008 178.509 43.1234C163.619 34.6094 147.586 29.8054 130.579 28.5687C118.067 27.6649 105.721 29.6864 93.8993 33.8721C67.924 43.0283 47.6575 59.4143 34.5985 83.6485C29.8411 92.4717 26.4634 102.46 24.6318 112.306C21.04 131.57 21.6109 151.095 24.7745 170.501C28.1523 191.073 33.9325 211.026 41.6156 230.338C51.3683 254.929 64.1656 278.093 77.1057 301.138C81.3636 308.7 86.0258 316.049 89.9268 324.04C87.905 321.923 85.7166 319.902 83.8374 317.666C64.3084 294.312 48.0143 268.865 35.2408 241.301C26.8202 223.108 18.7089 204.7 12.0485 185.841C2.24832 158.111 -1.86682 129.334 2.22455 99.9393V99.9156Z" fill="white"/>
</svg>
