<svg width="214" height="96" viewBox="0 0 214 96" fill="none" xmlns="http://www.w3.org/2000/svg">
<path d="M59 93L59 6" stroke="black" stroke-width="5" stroke-linecap="round"/>
<path d="M59 93L59 6" stroke="black" stroke-width="5" stroke-linecap="round"/>
<path d="M59 93L59 6" stroke="black" stroke-width="5" stroke-linecap="round"/>
<path d="M59 93L59 6" stroke="black" stroke-width="5" stroke-linecap="round"/>
<path d="M114 93L114 3" stroke="black" stroke-width="5" stroke-linecap="round"/>
<path d="M114 93L114 3" stroke="black" stroke-width="5" stroke-linecap="round"/>
<path d="M114 93L114 3" stroke="black" stroke-width="5" stroke-linecap="round"/>
<path d="M114 93L114 3" stroke="black" stroke-width="5" stroke-linecap="round"/>
<path d="M31 54L187 54" stroke="black" stroke-width="5" stroke-linecap="round"/>
<path d="M31 54L187 54" stroke="black" stroke-width="5" stroke-linecap="round"/>
<path d="M31 54L187 54" stroke="black" stroke-width="5" stroke-linecap="round"/>
<path d="M31 54L187 54" stroke="black" stroke-width="5" stroke-linecap="round"/>
<path d="M3 93L211 93" stroke="black" stroke-width="5" stroke-linecap="round"/>
<path d="M3 93L211 93" stroke="black" stroke-width="5" stroke-linecap="round"/>
<path d="M3 93L211 93" stroke="black" stroke-width="5" stroke-linecap="round"/>
<path d="M3 93L211 93" stroke="black" stroke-width="5" stroke-linecap="round"/>
<path d="M163 93L163 3" stroke="black" stroke-width="5" stroke-linecap="round"/>
<path d="M163 93L163 3" stroke="black" stroke-width="5" stroke-linecap="round"/>
<path d="M163 93L163 3" stroke="black" stroke-width="5" stroke-linecap="round"/>
<path d="M163 93L163 3" stroke="black" stroke-width="5" stroke-linecap="round"/>
</svg>
