<svg width="126" height="33" viewBox="0 0 126 33" fill="none" xmlns="http://www.w3.org/2000/svg">
<path d="M20.5524 16.3909C20.518 12.7272 23.681 10.9448 23.8256 10.8618C22.0343 8.35755 19.2578 8.01539 18.2821 7.98811C15.9502 7.75281 13.6882 9.32605 12.5003 9.32605C11.2887 9.32605 9.45942 8.01085 7.48789 8.0495C4.95087 8.08701 2.57745 9.49543 1.27574 11.6825C-1.41066 16.1419 0.592876 22.6952 3.16665 26.2998C4.45413 28.0652 5.95856 30.0363 7.92772 29.967C9.8542 29.8908 10.5738 28.7893 12.8986 28.7893C15.2021 28.7893 15.8779 29.967 17.8861 29.9226C19.9537 29.8908 21.2554 28.1493 22.4978 26.368C23.9857 24.3446 24.5832 22.3519 24.6069 22.2496C24.5583 22.2337 20.5915 20.7821 20.5524 16.3909Z" fill="#353030"/>
<path d="M16.7587 5.61688C17.7948 4.37442 18.5038 2.68409 18.307 0.96875C16.8073 1.03241 14.9318 1.9634 13.8518 3.17857C12.8963 4.24938 12.0427 6.0045 12.2632 7.65505C13.9478 7.77554 15.6775 6.84001 16.7587 5.61688Z" fill="#353030"/>
<path fill-rule="evenodd" clip-rule="evenodd" d="M84.0895 20.2022C85.0249 19.3939 85.4908 18.347 85.4908 17.0602C85.4908 16.0144 85.1719 15.138 84.5329 14.4377C83.8916 13.7352 82.8945 13.1225 81.5371 12.5985C80.4274 12.179 79.6628 11.7903 79.2419 11.4311C78.7582 11.0423 78.5176 10.5478 78.5176 9.9499C78.5176 9.40995 78.7286 8.95412 79.1495 8.58013C79.6474 8.16181 80.3421 7.95151 81.2312 7.95151C82.3563 7.95151 83.3616 8.18341 84.2508 8.6472L84.8827 6.67154C83.9307 6.19298 82.738 5.95312 81.3024 5.95312C79.6924 5.95312 78.4049 6.34985 77.4399 7.14443C76.4714 7.93787 75.9877 8.95753 75.9877 10.2011C75.9877 12.104 77.3676 13.5511 80.1299 14.5389C81.1447 14.8993 81.8714 15.2892 82.3065 15.7086C82.744 16.1281 82.9621 16.6453 82.9621 17.2591C82.9621 17.948 82.6977 18.5005 82.1678 18.912C81.6355 19.3235 80.8945 19.5303 79.9426 19.5303C78.616 19.5303 77.3984 19.2075 76.2888 18.5641L75.7031 20.5841C76.7333 21.2127 78.0943 21.5265 79.792 21.5265C81.6308 21.5265 83.0617 21.0854 84.0895 20.2022ZM42.0255 21.2996H44.7178L39.6141 6.17188H36.4772L31.3984 21.2996H34.0196L35.4245 16.8561H40.5507L42.0255 21.2996ZM38.7724 11.0417L40.1061 14.9918H35.8702L37.1802 11.0417C37.524 9.78557 37.7742 8.83526 37.9295 8.19186H37.9769C38.367 9.68781 38.6313 10.6381 38.7724 11.0417ZM56.2151 20.1138C57.2607 19.0373 57.7836 17.5709 57.7836 15.7158C57.7836 14.055 57.3354 12.7159 56.4368 11.6974C55.5406 10.68 54.4202 10.1719 53.0782 10.1719C51.3616 10.1719 50.0824 10.8221 49.2395 12.1248H49.1921L49.051 10.3958H46.8281C46.8898 11.6235 46.9218 12.8205 46.9218 13.9868V25.7486H49.4493V20.0024H49.4967C50.1523 21.0346 51.2288 21.5506 52.7273 21.5506C54.1155 21.5506 55.2785 21.0721 56.2151 20.1138ZM54.4594 13.1786C54.9596 13.8674 55.2086 14.7427 55.2086 15.8044C55.2086 16.9571 54.943 17.8846 54.4119 18.5883C53.882 19.2908 53.141 19.6432 52.1891 19.6432C51.3782 19.6432 50.719 19.3704 50.2116 18.8236C49.7042 18.2768 49.4505 17.6073 49.4505 16.8138V14.9951C49.4505 14.8018 49.4896 14.5563 49.5679 14.2562C49.7232 13.6128 50.0551 13.0933 50.5625 12.6954C51.0687 12.301 51.6354 12.1009 52.259 12.1009C53.179 12.1009 53.9128 12.4601 54.4594 13.1786ZM70.8605 15.7158C70.8605 17.5709 70.3377 19.0373 69.2909 20.1138C68.3555 21.0721 67.1925 21.5506 65.8042 21.5506C64.3057 21.5506 63.2293 21.0346 62.5749 20.0024H62.5274V25.7486H59.9999V13.9868C59.9999 12.8205 59.9679 11.6235 59.9062 10.3958H62.1291L62.2702 12.1248H62.3176C63.1593 10.8221 64.4385 10.1719 66.1563 10.1719C67.4972 10.1719 68.6175 10.68 69.5161 11.6974C70.4112 12.7159 70.8605 14.055 70.8605 15.7158ZM68.2855 15.8044C68.2855 14.7427 68.0354 13.8674 67.5351 13.1786C66.9886 12.4601 66.2571 12.1009 65.336 12.1009C64.7112 12.1009 64.1457 12.301 63.6383 12.6954C63.1309 13.0933 62.8001 13.6128 62.6448 14.2562C62.5678 14.5563 62.5274 14.8018 62.5274 14.9951V16.8138C62.5274 17.6073 62.7811 18.2768 63.2862 18.8236C63.7936 19.3692 64.4527 19.6432 65.266 19.6432C66.218 19.6432 66.9589 19.2908 67.4889 18.5883C68.02 17.8846 68.2855 16.9571 68.2855 15.8044ZM93.8501 12.2086H91.0641V17.5047C91.0641 18.8517 91.5549 19.5247 92.5389 19.5247C92.9906 19.5247 93.3652 19.4871 93.6616 19.4121L93.7315 21.2525C93.2336 21.431 92.578 21.5208 91.7659 21.5208C90.7677 21.5208 89.9876 21.2286 89.4245 20.6455C88.8638 20.0612 88.5816 19.0813 88.5816 17.7047V12.2063H86.9219V10.3875H88.5816V8.39029L91.0641 7.67188V10.3875H93.8501V12.2086ZM104.918 19.8887C105.916 18.8122 106.416 17.4356 106.416 15.7589C106.416 14.1277 105.932 12.7966 104.963 11.7656C103.949 10.7027 102.606 10.1719 100.937 10.1719C99.2046 10.1719 97.8271 10.7107 96.8063 11.7883C95.7832 12.8648 95.2734 14.2494 95.2734 15.9397C95.2734 17.555 95.769 18.8952 96.7601 19.9569C97.7512 21.0186 99.0802 21.5495 100.749 21.5495C102.481 21.5495 103.871 20.997 104.918 19.8887ZM103.116 13.249C103.57 13.9686 103.794 14.8314 103.794 15.8374C103.794 16.8423 103.559 17.7141 103.093 18.4473C102.547 19.3317 101.789 19.775 100.824 19.775C99.8389 19.775 99.0754 19.3408 98.5289 18.4701C98.0748 17.7516 97.8508 16.8889 97.8508 15.8829C97.8508 14.8461 98.0748 13.9697 98.5289 13.249C99.0588 12.3794 99.8306 11.9441 100.847 11.9441C101.828 11.9441 102.586 12.3783 103.116 13.249ZM114.633 12.5272C114.383 12.4829 114.116 12.4601 113.837 12.4601C112.948 12.4601 112.26 12.7818 111.776 13.4264C111.355 13.9947 111.144 14.7131 111.144 15.5805V21.304H108.618L108.642 13.831C108.642 12.5738 108.61 11.4291 108.547 10.3969H110.748L110.841 12.484H110.911C111.178 11.7667 111.598 11.1893 112.175 10.7562C112.738 10.3663 113.346 10.1719 114.001 10.1719C114.235 10.1719 114.446 10.1878 114.633 10.2162V12.5272ZM125.854 16.4301C125.916 16.1311 125.946 15.7651 125.946 15.3308C125.946 13.9702 125.611 12.8243 124.943 11.8979C124.1 10.7316 122.859 10.1484 121.219 10.1484C119.55 10.1484 118.224 10.7316 117.242 11.8979C116.304 12.9903 115.836 14.3601 115.836 16.0049C115.836 17.6805 116.34 19.0161 117.345 20.0108C118.353 21.0054 119.737 21.5033 121.502 21.5033C122.968 21.5033 124.239 21.2794 125.315 20.8292L124.919 19.1469C123.998 19.4913 122.974 19.6629 121.851 19.6629C120.836 19.6629 120.01 19.4083 119.371 18.9002C118.667 18.3318 118.301 17.5077 118.271 16.4301H125.854ZM123.045 12.8391C123.388 13.3631 123.553 13.9838 123.536 14.7022V14.7011H118.271C118.348 13.969 118.598 13.3404 119.019 12.8164C119.532 12.1571 120.205 11.8285 121.031 11.8285C121.935 11.8285 122.608 12.165 123.045 12.8391Z" fill="#A29999"/>
</svg>
