<svg width="180" height="60" viewBox="0 0 180 60" fill="none" xmlns="http://www.w3.org/2000/svg">
<path d="M47.5524 29.3909C47.518 25.7272 50.681 23.9448 50.8256 23.8618C49.0343 21.3576 46.2578 21.0154 45.2821 20.9881C42.9502 20.7528 40.6882 22.3261 39.5003 22.3261C38.2887 22.3261 36.4594 21.0108 34.4879 21.0495C31.9509 21.087 29.5774 22.4954 28.2757 24.6825C25.5893 29.1419 27.5929 35.6952 30.1667 39.2998C31.4541 41.0652 32.9586 43.0363 34.9277 42.967C36.8542 42.8908 37.5738 41.7893 39.8986 41.7893C42.2021 41.7893 42.8779 42.967 44.8861 42.9226C46.9537 42.8908 48.2554 41.1493 49.4978 39.368C50.9857 37.3446 51.5832 35.3519 51.6069 35.2496C51.5583 35.2337 47.5915 33.7821 47.5524 29.3909Z" fill="#353030"/>
<path d="M43.7587 18.6169C44.7948 17.3744 45.5038 15.6841 45.307 13.9688C43.8073 14.0324 41.9318 14.9634 40.8518 16.1786C39.8963 17.2494 39.0427 19.0045 39.2632 20.655C40.9478 20.7755 42.6775 19.84 43.7587 18.6169Z" fill="#353030"/>
<path fill-rule="evenodd" clip-rule="evenodd" d="M111.09 33.2022C112.025 32.3939 112.491 31.347 112.491 30.0602C112.491 29.0144 112.172 28.138 111.533 27.4377C110.892 26.7352 109.895 26.1225 108.537 25.5985C107.427 25.179 106.663 24.7903 106.242 24.4311C105.758 24.0423 105.518 23.5478 105.518 22.9499C105.518 22.41 105.729 21.9541 106.149 21.5801C106.647 21.1618 107.342 20.9515 108.231 20.9515C109.356 20.9515 110.362 21.1834 111.251 21.6472L111.883 19.6715C110.931 19.193 109.738 18.9531 108.302 18.9531C106.692 18.9531 105.405 19.3498 104.44 20.1444C103.471 20.9379 102.988 21.9575 102.988 23.2011C102.988 25.104 104.368 26.5511 107.13 27.5389C108.145 27.8993 108.871 28.2892 109.306 28.7086C109.744 29.1281 109.962 29.6453 109.962 30.2591C109.962 30.948 109.698 31.5005 109.168 31.912C108.635 32.3235 107.895 32.5303 106.943 32.5303C105.616 32.5303 104.398 32.2075 103.289 31.5641L102.703 33.5841C103.733 34.2127 105.094 34.5265 106.792 34.5265C108.631 34.5265 110.062 34.0854 111.09 33.2022ZM69.0255 34.2996H71.7178L66.6141 19.1719H63.4772L58.3984 34.2996H61.0196L62.4245 29.8561H67.5507L69.0255 34.2996ZM65.7724 24.0417L67.1061 27.9918H62.8702L64.1802 24.0417C64.524 22.7856 64.7742 21.8353 64.9295 21.1919H64.9769C65.367 22.6878 65.6313 23.6381 65.7724 24.0417ZM83.2151 33.1138C84.2607 32.0373 84.7836 30.5709 84.7836 28.7158C84.7836 27.055 84.3354 25.7159 83.4368 24.6974C82.5406 23.68 81.4202 23.1719 80.0782 23.1719C78.3616 23.1719 77.0824 23.8221 76.2395 25.1248H76.1921L76.051 23.3958H73.8281C73.8898 24.6235 73.9218 25.8205 73.9218 26.9868V38.7486H76.4493V33.0024H76.4967C77.1523 34.0346 78.2288 34.5506 79.7273 34.5506C81.1155 34.5506 82.2785 34.0721 83.2151 33.1138ZM81.4594 26.1786C81.9596 26.8674 82.2086 27.7427 82.2086 28.8044C82.2086 29.9571 81.943 30.8846 81.4119 31.5883C80.882 32.2908 80.141 32.6432 79.1891 32.6432C78.3782 32.6432 77.719 32.3704 77.2116 31.8236C76.7042 31.2768 76.4505 30.6073 76.4505 29.8138V27.9951C76.4505 27.8018 76.4896 27.5563 76.5679 27.2562C76.7232 26.6128 77.0551 26.0933 77.5625 25.6954C78.0687 25.301 78.6354 25.1009 79.259 25.1009C80.179 25.1009 80.9128 25.4601 81.4594 26.1786ZM97.8605 28.7158C97.8605 30.5709 97.3377 32.0373 96.2909 33.1138C95.3555 34.0721 94.1925 34.5506 92.8042 34.5506C91.3057 34.5506 90.2293 34.0346 89.5749 33.0024H89.5274V38.7486H86.9999V26.9868C86.9999 25.8205 86.9679 24.6235 86.9062 23.3958H89.1291L89.2702 25.1248H89.3176C90.1593 23.8221 91.4385 23.1719 93.1563 23.1719C94.4972 23.1719 95.6175 23.68 96.5161 24.6974C97.4112 25.7159 97.8605 27.055 97.8605 28.7158ZM95.2855 28.8044C95.2855 27.7427 95.0354 26.8674 94.5351 26.1786C93.9886 25.4601 93.2571 25.1009 92.336 25.1009C91.7112 25.1009 91.1457 25.301 90.6383 25.6954C90.1309 26.0933 89.8001 26.6128 89.6448 27.2562C89.5678 27.5563 89.5274 27.8018 89.5274 27.9951V29.8138C89.5274 30.6073 89.7811 31.2768 90.2862 31.8236C90.7936 32.3692 91.4527 32.6432 92.266 32.6432C93.218 32.6432 93.9589 32.2908 94.4889 31.5883C95.02 30.8846 95.2855 29.9571 95.2855 28.8044ZM120.85 25.2086H118.064V30.5047C118.064 31.8517 118.555 32.5247 119.539 32.5247C119.991 32.5247 120.365 32.4871 120.662 32.4121L120.732 34.2525C120.234 34.431 119.578 34.5208 118.766 34.5208C117.768 34.5208 116.988 34.2286 116.425 33.6455C115.864 33.0612 115.582 32.0813 115.582 30.7047V25.2063H113.922V23.3875H115.582V21.3903L118.064 20.6719V23.3875H120.85V25.2086ZM131.918 32.8887C132.916 31.8122 133.416 30.4356 133.416 28.7589C133.416 27.1277 132.932 25.7966 131.963 24.7656C130.949 23.7027 129.606 23.1719 127.937 23.1719C126.205 23.1719 124.827 23.7107 123.806 24.7883C122.783 25.8648 122.273 27.2494 122.273 28.9397C122.273 30.555 122.769 31.8952 123.76 32.9569C124.751 34.0186 126.08 34.5495 127.749 34.5495C129.481 34.5495 130.871 33.997 131.918 32.8887ZM130.116 26.249C130.57 26.9686 130.794 27.8314 130.794 28.8374C130.794 29.8423 130.559 30.7141 130.093 31.4473C129.547 32.3317 128.789 32.775 127.824 32.775C126.839 32.775 126.075 32.3408 125.529 31.4701C125.075 30.7516 124.851 29.8889 124.851 28.8829C124.851 27.8461 125.075 26.9697 125.529 26.249C126.059 25.3794 126.831 24.9441 127.847 24.9441C128.828 24.9441 129.586 25.3783 130.116 26.249ZM141.633 25.5272C141.383 25.4829 141.116 25.4601 140.837 25.4601C139.948 25.4601 139.26 25.7818 138.776 26.4264C138.355 26.9947 138.144 27.7131 138.144 28.5805V34.304H135.618L135.642 26.831C135.642 25.5738 135.61 24.4291 135.547 23.3969H137.748L137.841 25.484H137.911C138.178 24.7667 138.598 24.1893 139.175 23.7562C139.738 23.3663 140.346 23.1719 141.001 23.1719C141.235 23.1719 141.446 23.1878 141.633 23.2162V25.5272ZM152.854 29.4301C152.916 29.1311 152.946 28.7651 152.946 28.3308C152.946 26.9702 152.611 25.8243 151.943 24.8979C151.1 23.7316 149.859 23.1484 148.219 23.1484C146.55 23.1484 145.224 23.7316 144.242 24.8979C143.304 25.9903 142.836 27.3601 142.836 29.0049C142.836 30.6805 143.34 32.0161 144.345 33.0108C145.353 34.0054 146.737 34.5033 148.502 34.5033C149.968 34.5033 151.239 34.2794 152.315 33.8292L151.919 32.1469C150.998 32.4913 149.974 32.6629 148.851 32.6629C147.836 32.6629 147.01 32.4083 146.371 31.9002C145.667 31.3318 145.301 30.5077 145.271 29.4301H152.854ZM150.045 25.8391C150.388 26.3631 150.553 26.9838 150.536 27.7022V27.7011H145.271C145.348 26.969 145.598 26.3404 146.019 25.8164C146.532 25.1571 147.205 24.8285 148.031 24.8285C148.935 24.8285 149.608 25.165 150.045 25.8391Z" fill="#A29999"/>
</svg>
