<svg width="123" height="24" viewBox="0 0 123 24" fill="none" xmlns="http://www.w3.org/2000/svg">
<path d="M58.3192 7.56213C55.6241 7.56213 53.4905 9.69231 53.4905 12.6509C53.4905 15.4911 55.6241 17.7396 58.3192 17.7396C61.0142 17.7396 63.1478 15.6095 63.1478 12.6509C63.1478 9.57397 61.0142 7.56213 58.3192 7.56213ZM58.3192 15.6095C56.8593 15.6095 55.6241 14.3077 55.6241 12.5325C55.6241 10.7574 56.8593 9.45562 58.3192 9.45562C59.779 9.45562 61.0142 10.6391 61.0142 12.5325C61.0142 14.3077 59.779 15.6095 58.3192 15.6095ZM47.8759 7.56213C45.1809 7.56213 43.0473 9.69231 43.0473 12.6509C43.0473 15.4911 45.1809 17.7396 47.8759 17.7396C50.5709 17.7396 52.7045 15.6095 52.7045 12.6509C52.7045 9.57397 50.5709 7.56213 47.8759 7.56213ZM47.8759 15.6095C46.4161 15.6095 45.1809 14.3077 45.1809 12.5325C45.1809 10.7574 46.4161 9.45562 47.8759 9.45562C49.3357 9.45562 50.5709 10.6391 50.5709 12.5325C50.5709 14.3077 49.3357 15.6095 47.8759 15.6095ZM35.4114 9.10059V11.2308H40.24C40.1277 12.4142 39.6785 13.3609 39.117 13.9527C38.4433 14.6627 37.3203 15.4911 35.4114 15.4911C32.3794 15.4911 30.1336 13.0059 30.1336 9.81065C30.1336 6.61539 32.4917 4.13018 35.4114 4.13018C36.9835 4.13018 38.2187 4.84024 39.117 5.66864L40.5768 4.13018C39.3416 2.94674 37.7695 2 35.5236 2C31.4811 2 28 5.5503 28 9.81065C28 14.071 31.4811 17.6213 35.5236 17.6213C37.7695 17.6213 39.3416 16.9112 40.6891 15.3728C42.0366 13.9527 42.4858 11.9408 42.4858 10.4024C42.4858 9.92899 42.4858 9.45562 42.3735 9.10059H35.4114ZM86.3924 10.7574C85.9433 9.57396 84.8203 7.56213 82.3499 7.56213C79.8794 7.56213 77.8582 9.57397 77.8582 12.6509C77.8582 15.4911 79.8794 17.7396 82.5745 17.7396C84.708 17.7396 86.0556 16.3195 86.5047 15.4911L84.9326 14.3077C84.3712 15.1361 83.6974 15.7278 82.5745 15.7278C81.4515 15.7278 80.7778 15.2544 80.2163 14.1893L86.617 11.3491L86.3924 10.7574ZM79.8794 12.4142C79.8794 10.5207 81.3392 9.45562 82.3499 9.45562C83.1359 9.45562 83.922 9.92899 84.1466 10.5207L79.8794 12.4142ZM74.6017 17.2663H76.7352V2.47337H74.6017V17.2663ZM71.2329 8.62722C70.6714 8.0355 69.7731 7.44379 68.6501 7.44379C66.292 7.44379 64.0461 9.69231 64.0461 12.5325C64.0461 15.3728 66.1797 17.503 68.6501 17.503C69.7731 17.503 70.6714 16.9112 71.1206 16.3195H71.2329V17.0296C71.2329 18.9231 70.2222 19.9882 68.6501 19.9882C67.4149 19.9882 66.5165 19.0414 66.292 18.213L64.4953 19.0414C65.0567 20.3432 66.4043 22 68.7624 22C71.2329 22 73.2541 20.4615 73.2541 16.7929V7.79882H71.2329V8.62722ZM68.7624 15.6095C67.3026 15.6095 66.0674 14.3077 66.0674 12.5325C66.0674 10.7574 67.3026 9.45562 68.7624 9.45562C70.2222 9.45562 71.3452 10.7574 71.3452 12.5325C71.3452 14.3077 70.2222 15.6095 68.7624 15.6095ZM96.1619 2.47337H91.1088V17.2663H93.2423V11.7041H96.1619C98.5201 11.7041 100.766 9.92899 100.766 7.08876C100.766 4.24852 98.5201 2.47337 96.1619 2.47337ZM96.2742 9.57396H93.2423V4.48521H96.2742C97.8463 4.48521 98.7447 5.90532 98.7447 6.97041C98.6324 8.27219 97.734 9.57396 96.2742 9.57396ZM109.188 7.44379C107.616 7.44379 106.044 8.15385 105.482 9.69231L107.391 10.5207C107.84 9.69231 108.514 9.45562 109.3 9.45562C110.423 9.45562 111.434 10.1657 111.546 11.3491V11.4675C111.209 11.2308 110.311 10.8757 109.413 10.8757C107.391 10.8757 105.37 12.0592 105.37 14.1893C105.37 16.2012 107.054 17.503 108.851 17.503C110.311 17.503 110.985 16.7929 111.546 16.0828H111.658V17.2663H113.68V11.5858C113.455 8.98225 111.546 7.44379 109.188 7.44379ZM108.963 15.6095C108.29 15.6095 107.279 15.2544 107.279 14.3077C107.279 13.1243 108.514 12.7692 109.525 12.7692C110.423 12.7692 110.872 13.0059 111.434 13.2426C111.209 14.6627 110.086 15.6095 108.963 15.6095ZM120.754 7.79882L118.396 14.1893H118.284L115.813 7.79882H113.567L117.273 16.7929L115.139 21.7633H117.273L123 7.79882H120.754ZM101.889 17.2663H104.022V2.47337H101.889V17.2663Z" fill="#A29999"/>
<path d="M1.00088 1.2712C1.00088 0.525251 1.6972 0.112112 2.04448 0L14.1816 12.041L2.01539 24C1.58702 23.977 1.15954 23.1614 1 22.7553V1.27208L1.00088 1.2712ZM18.0765 8.14095L4.78215 0.677972L15.2534 10.9958L18.0765 8.14095ZM20.7102 9.75908L19.3749 8.96017L16.326 12.041L19.4277 15.0248L20.6423 14.3469C22.4219 13.3537 22.4598 10.8034 20.7102 9.75908ZM18.0765 15.8273L15.2542 13.066L4.78303 23.4174L18.0765 15.8273Z" fill="#353030"/>
</svg>
