<svg width="51" height="32" viewBox="0 0 51 32" fill="none" xmlns="http://www.w3.org/2000/svg">
<g clip-path="url(#clip0_1_121)">
<path d="M32.3194 3.35156H18.7969V27.9981H32.3194V3.35156Z" fill="#A29999"/>
<path d="M19.6539 15.6734C19.6519 13.302 20.1819 10.9609 21.204 8.82674C22.2261 6.69247 23.7136 4.8207 25.5544 3.35236C23.6119 1.80733 21.3323 0.754715 18.9058 0.282363C16.4792 -0.189984 13.9762 -0.0683626 11.6056 0.637077C9.23501 1.34252 7.06557 2.61132 5.27839 4.33757C3.49121 6.06384 2.13809 8.19745 1.33199 10.5604C0.525878 12.9234 0.29016 15.4472 0.644505 17.921C0.998849 20.3949 1.93298 22.7472 3.36892 24.7815C4.80488 26.8158 6.70102 28.4732 8.89905 29.6153C11.0971 30.7575 13.5333 31.3512 16.0043 31.3469C19.4704 31.3515 22.8361 30.17 25.5544 27.9945C23.7136 26.5262 22.2261 24.6544 21.204 22.5202C20.1819 20.386 19.6519 18.045 19.6539 15.6734Z" fill="#353030"/>
<path d="M50.5555 15.6737C50.5652 18.6111 49.7561 21.4917 48.221 23.9849C46.6859 26.4782 44.487 28.4831 41.8766 29.7695C39.2663 31.056 36.3502 31.5719 33.4632 31.258C30.5762 30.9441 27.8352 29.8131 25.5547 27.9948C27.3943 26.5253 28.8809 24.6533 29.903 22.5193C30.9251 20.3854 31.4561 18.0449 31.4561 15.6737C31.4561 13.3025 30.9251 10.9621 29.903 8.82815C28.8809 6.6942 27.3943 4.82218 25.5547 3.35263C27.8352 1.53437 30.5762 0.403389 33.4632 0.0894727C36.3502 -0.224443 39.2663 0.291429 41.8766 1.57789C44.487 2.86435 46.6859 4.86926 48.221 7.36255C49.7561 9.8558 50.5652 12.7364 50.5555 15.6737Z" fill="#575555"/>
</g>
<defs>
<clipPath id="clip0_1_121">
<rect width="51" height="32" fill="white"/>
</clipPath>
</defs>
</svg>
