<svg width="73" height="24" viewBox="0 0 73 24" fill="none" xmlns="http://www.w3.org/2000/svg">
<path fill-rule="evenodd" clip-rule="evenodd" d="M18.2644 23.8114H11.9853L7.27667 5.1929C7.0532 4.33644 6.57865 3.57928 5.88063 3.22243C4.13862 2.32563 2.21907 1.61193 0.125 1.25197V0.535155H10.2402C11.6363 0.535155 12.6833 1.61192 12.8578 2.86247L15.3009 16.2927L21.5769 0.535155H27.6816L18.2644 23.8114ZM31.1717 23.8114H25.2415L30.1246 0.535155H36.0548L31.1717 23.8114ZM43.7271 6.98505C43.9016 5.7314 44.9486 5.0146 46.1702 5.0146C48.0897 4.83461 50.1807 5.19455 51.9257 6.08825L52.973 1.07677C51.228 0.359958 49.3082 0 47.5662 0C41.8106 0 37.6225 3.2241 37.6225 7.69875C37.6225 11.1028 40.5891 12.8902 42.6831 13.967C44.9486 15.0407 45.8212 15.7575 45.6467 16.8312C45.6467 18.4417 43.9016 19.1584 42.1596 19.1584C40.0655 19.1584 37.9715 18.6216 36.055 17.7248L35.0079 22.7394C37.102 23.6331 39.3675 23.993 41.4616 23.993C47.9152 24.17 51.9257 20.9489 51.9257 16.1143C51.9257 10.026 43.7271 9.6692 43.7271 6.98505ZM72.6796 23.8114L67.9708 0.535155H62.9129C61.8661 0.535155 60.8193 1.25197 60.4702 2.32563L51.7509 23.8114H57.8556L59.0742 20.4104H66.5749L67.2726 23.8114H72.6796ZM63.7855 6.80275L65.5275 15.5751H60.6445L63.7855 6.80275Z" fill="#353030"/>
</svg>
