<svg width="40" height="40" viewBox="0 0 40 40" fill="none" xmlns="http://www.w3.org/2000/svg">
<path d="M34.7333 7.68332C33.8821 6.83166 32.8714 6.15607 31.7589 5.69513C30.6465 5.23419 29.4541 4.99695 28.25 4.99695C27.0459 4.99695 25.8535 5.23419 24.7411 5.69513C23.6286 6.15607 22.6179 6.83166 21.7667 7.68332L20 9.44999L18.2333 7.68332C16.5138 5.96384 14.1817 4.99784 11.75 4.99784C9.31827 4.99784 6.98615 5.96384 5.26666 7.68332C3.54717 9.40281 2.58118 11.7349 2.58118 14.1667C2.58118 16.5984 3.54717 18.9305 5.26666 20.65L7.03333 22.4167L20 35.3833L32.9667 22.4167L34.7333 20.65C35.585 19.7987 36.2606 18.788 36.7215 17.6756C37.1825 16.5632 37.4197 15.3708 37.4197 14.1667C37.4197 12.9625 37.1825 11.7702 36.7215 10.6577C36.2606 9.5453 35.585 8.53458 34.7333 7.68332V7.68332Z" stroke="#100C46" stroke-width="2" stroke-linecap="round" stroke-linejoin="round"/>
</svg>
