<svg aria-hidden="true" xmlns="http://www.w3.org/2000/svg" xmlns:xlink="http://www.w3.org/1999/xlink"><symbol viewBox="0 0 25 24" fill="none" id="arrow" xmlns="http://www.w3.org/2000/svg">
<path fill-rule="evenodd" clip-rule="evenodd" d="M9.99889 5.01408C9.58495 4.60729 8.91384 4.60729 8.4999 5.01408C8.08597 5.42088 8.08597 6.08042 8.4999 6.48722L14.1101 12.0006L8.4999 17.5141C8.08597 17.9208 8.08597 18.5804 8.4999 18.9872C8.91384 19.394 9.58495 19.394 9.99889 18.9872L16.3585 12.7372C16.7725 12.3304 16.7725 11.6709 16.3585 11.2641L9.99889 5.01408Z" fill="currentColor"/>
</symbol><symbol viewBox="0 0 20 20" fill="none" id="arrows" xmlns="http://www.w3.org/2000/svg">
<g clip-path="url(#bclip0_2007_650)">
<path fill-rule="evenodd" clip-rule="evenodd" d="M1.24916 14.3751C1.24916 14.5408 1.31501 14.6998 1.43222 14.817C1.54943 14.9342 1.7084 15.0001 1.87416 15.0001H16.6154L12.6817 18.9326C12.5643 19.0499 12.4984 19.2091 12.4984 19.3751C12.4984 19.541 12.5643 19.7002 12.6817 19.8176C12.799 19.9349 12.9582 20.0008 13.1242 20.0008C13.2901 20.0008 13.4493 19.9349 13.5667 19.8176L18.5667 14.8176C18.6249 14.7595 18.671 14.6905 18.7026 14.6146C18.7341 14.5387 18.7503 14.4573 18.7503 14.3751C18.7503 14.2928 18.7341 14.2114 18.7026 14.1355C18.671 14.0596 18.6249 13.9906 18.5667 13.9326L13.5667 8.93256C13.4493 8.8152 13.2901 8.74927 13.1242 8.74927C12.9582 8.74927 12.799 8.8152 12.6817 8.93256C12.5643 9.04992 12.4984 9.20909 12.4984 9.37506C12.4984 9.54103 12.5643 9.7002 12.6817 9.81756L16.6154 13.7501H1.87416C1.7084 13.7501 1.54943 13.8159 1.43222 13.9331C1.31501 14.0503 1.24916 14.2093 1.24916 14.3751ZM18.7492 5.62506C18.7492 5.79082 18.6833 5.94979 18.5661 6.067C18.4489 6.18421 18.2899 6.25006 18.1242 6.25006H3.38291L7.31666 10.1826C7.37477 10.2407 7.42087 10.3097 7.45232 10.3856C7.48377 10.4615 7.49995 10.5429 7.49995 10.6251C7.49995 10.7072 7.48377 10.7886 7.45232 10.8645C7.42087 10.9405 7.37477 11.0094 7.31666 11.0676C7.25855 11.1257 7.18957 11.1718 7.11364 11.2032C7.03772 11.2347 6.95634 11.2508 6.87416 11.2508C6.79198 11.2508 6.71061 11.2347 6.63468 11.2032C6.55876 11.1718 6.48977 11.1257 6.43166 11.0676L1.43166 6.06756C1.37346 6.0095 1.32728 5.94053 1.29577 5.8646C1.26427 5.78867 1.24805 5.70727 1.24805 5.62506C1.24805 5.54285 1.26427 5.46145 1.29577 5.38552C1.32728 5.30958 1.37346 5.24061 1.43166 5.18256L6.43166 0.182557C6.54902 0.0651988 6.70819 -0.000732422 6.87416 -0.000732422C7.04013 -0.000732422 7.19931 0.0651988 7.31666 0.182557C7.43402 0.299915 7.49995 0.459087 7.49995 0.625057C7.49995 0.791027 7.43402 0.950199 7.31666 1.06756L3.38291 5.00006H18.1242C18.2899 5.00006 18.4489 5.06591 18.5661 5.18312C18.6833 5.30033 18.7492 5.4593 18.7492 5.62506Z" fill="currentColor"/>
</g>
<defs>
<clipPath id="bclip0_2007_650">
<rect width="20" height="20" fill="currentColor"/>
</clipPath>
</defs>
</symbol><symbol viewBox="0 0 21 21" fill="none" id="briefcase" xmlns="http://www.w3.org/2000/svg">
<path fill-rule="evenodd" clip-rule="evenodd" d="M6.94318 5.85944C6.94356 5.85944 6.94393 5.85944 6.94431 5.85944C6.94468 5.85944 6.94506 5.85944 6.94544 5.85944L13.8876 5.85944C13.888 5.85944 13.8884 5.85944 13.8888 5.85944C13.8891 5.85944 13.8895 5.85944 13.8899 5.85944H16.4929C17.0548 5.85944 17.2297 5.86334 17.3608 5.89246C17.8866 6.00927 18.2973 6.41992 18.4141 6.94573C18.4432 7.07679 18.4471 7.25177 18.4471 7.81361C18.4471 8.37544 18.4432 8.55043 18.4141 8.68148C18.2973 9.20729 17.8866 9.61794 17.3608 9.73476C17.2297 9.76388 17.0548 9.76777 16.4929 9.76777H14.5386V9.55243C14.5386 9.19345 14.2476 8.90243 13.8886 8.90243C13.5296 8.90243 13.2386 9.19345 13.2386 9.55243V9.76777L7.59431 9.76777V9.55243C7.59431 9.19345 7.30329 8.90243 6.94431 8.90243C6.58532 8.90243 6.29431 9.19345 6.29431 9.55243V9.76777H4.34015C3.77831 9.76777 3.60332 9.76388 3.47227 9.73476C2.94646 9.61794 2.53581 9.20729 2.41899 8.68148C2.38988 8.55043 2.38598 8.37544 2.38598 7.81361C2.38598 7.25177 2.38988 7.07679 2.41899 6.94573C2.53581 6.41992 2.94646 6.00927 3.47227 5.89246C3.60332 5.86334 3.77831 5.85944 4.34015 5.85944L6.94318 5.85944ZM6.29431 11.0678H4.34015L4.26405 11.0678C3.84401 11.068 3.52852 11.0681 3.25404 11.0168L3.25404 11.7115C3.25404 12.8631 3.25454 13.6877 3.30739 14.3345C3.35961 14.9737 3.4597 15.3817 3.62726 15.7106C3.95555 16.3549 4.4794 16.8788 5.12372 17.2071C5.45258 17.3746 5.86062 17.4747 6.49982 17.5269C7.1466 17.5798 7.97123 17.5803 9.12285 17.5803H11.7102C12.8618 17.5803 13.6865 17.5798 14.3332 17.5269C14.9724 17.4747 15.3805 17.3746 15.7094 17.2071C16.3537 16.8788 16.8775 16.3549 17.2058 15.7106C17.3734 15.3817 17.4735 14.9737 17.5257 14.3345C17.5785 13.6877 17.579 12.8631 17.579 11.7115V11.0168C17.3045 11.0681 16.9891 11.068 16.569 11.0678L16.4929 11.0678H14.5386V11.2885C14.5386 11.6475 14.2476 11.9385 13.8886 11.9385C13.5296 11.9385 13.2386 11.6475 13.2386 11.2885V11.0678L7.59431 11.0678V11.2885C7.59431 11.6475 7.30329 11.9385 6.94431 11.9385C6.58532 11.9385 6.29431 11.6475 6.29431 11.2885V11.0678ZM18.8766 10.3607C18.8782 10.3795 18.879 10.3985 18.879 10.4178V11.7115V11.7404V11.7405V11.7405V11.7406V11.7406C18.879 12.8569 18.879 13.7345 18.8214 14.4404C18.7626 15.1599 18.6406 15.7581 18.3641 16.3008C17.9112 17.1897 17.1885 17.9124 16.2995 18.3654C15.7569 18.6419 15.1587 18.7638 14.4391 18.8226C13.7332 18.8803 12.8556 18.8803 11.7394 18.8803H11.7393H11.7393H11.7392H11.7392H11.7102H9.12285H9.09389H9.09384H9.0938H9.09375H9.0937C7.97742 18.8803 7.09982 18.8803 6.39396 18.8226C5.67437 18.7638 5.0762 18.6419 4.53353 18.3654C3.6446 17.9124 2.92188 17.1897 2.46895 16.3008C2.19245 15.7581 2.0705 15.1599 2.0117 14.4404C1.95403 13.7344 1.95403 12.8568 1.95404 11.7404L1.95404 11.7115L1.95404 10.4178C1.95404 10.3985 1.95487 10.3795 1.95651 10.3607C1.55865 9.99564 1.27178 9.51187 1.14994 8.96343C1.08563 8.67396 1.08577 8.34261 1.08596 7.88971L1.08598 7.81361L1.08596 7.73751C1.08577 7.28461 1.08563 6.95325 1.14994 6.66379C1.37623 5.6452 2.17173 4.8497 3.19033 4.6234C3.47979 4.55909 3.81114 4.55923 4.26404 4.55942H4.26404L4.34015 4.55944H6.34527C6.65696 2.59164 8.36106 1.08722 10.4165 1.08722C12.472 1.08722 14.1761 2.59164 14.4878 4.55944H16.4929L16.569 4.55942C17.0219 4.55923 17.3533 4.55909 17.6427 4.6234C18.6613 4.8497 19.4568 5.6452 19.6831 6.66379C19.7474 6.95325 19.7473 7.2846 19.7471 7.73749L19.7471 7.81361L19.7471 7.88972C19.7473 8.34261 19.7474 8.67397 19.6831 8.96343C19.5613 9.51187 19.2744 9.99564 18.8766 10.3607ZM13.1635 4.55944C12.87 3.31411 11.7515 2.38722 10.4165 2.38722C9.08156 2.38722 7.96308 3.31411 7.66953 4.55944L13.1635 4.55944Z" fill="currentColor"/>
</symbol><symbol viewBox="0 0 10 8" fill="none" id="check" xmlns="http://www.w3.org/2000/svg">
<path d="M9 1L5.40204 5.31755C4.74647 6.10423 4.41869 6.49758 3.97812 6.51756C3.53755 6.53755 3.17549 6.17549 2.45139 5.45139L1 4" stroke="currentColor" stroke-width="1.5" stroke-linecap="round"/>
</symbol><symbol viewBox="0 0 26 27" fill="none" id="instagram" xmlns="http://www.w3.org/2000/svg">
<g clip-path="url(#eclip0_206_893)">
<path d="M3.5 9C3.5 7.80653 3.97411 6.66193 4.81802 5.81802C5.66193 4.97411 6.80653 4.5 8 4.5H17C18.1935 4.5 19.3381 4.97411 20.182 5.81802C21.0259 6.66193 21.5 7.80653 21.5 9V18C21.5 19.1935 21.0259 20.3381 20.182 21.182C19.3381 22.0259 18.1935 22.5 17 22.5H8C6.80653 22.5 5.66193 22.0259 4.81802 21.182C3.97411 20.3381 3.5 19.1935 3.5 18V9Z" fill="currentColor" stroke="currentColor" stroke-width="2" stroke-linecap="round" stroke-linejoin="round"/>
<path d="M9.125 13.5C9.125 14.3951 9.48058 15.2536 10.1135 15.8865C10.7464 16.5194 11.6049 16.875 12.5 16.875C13.3951 16.875 14.2536 16.5194 14.8865 15.8865C15.5194 15.2536 15.875 14.3951 15.875 13.5C15.875 12.6049 15.5194 11.7464 14.8865 11.1135C14.2536 10.4806 13.3951 10.125 12.5 10.125C11.6049 10.125 10.7464 10.4806 10.1135 11.1135C9.48058 11.7464 9.125 12.6049 9.125 13.5Z" stroke="currentColor" stroke-width="2" stroke-linecap="round" stroke-linejoin="round"/>
<path d="M17.5625 8.4375V8.44875" stroke="currentColor" stroke-width="2" stroke-linecap="round" stroke-linejoin="round"/>
</g>
<defs>
<clipPath id="eclip0_206_893">
<rect width="26" height="27" fill="currentColor"/>
</clipPath>
</defs>
</symbol><symbol viewBox="0 0 21 21" fill="none" id="layers" xmlns="http://www.w3.org/2000/svg">
<path fill-rule="evenodd" clip-rule="evenodd" d="M10.1537 2.01019C10.3218 1.93549 10.5136 1.93549 10.6817 2.01019L18.4942 5.48241C18.7289 5.58673 18.8802 5.81951 18.8802 6.07638C18.8802 6.33326 18.7289 6.56604 18.4942 6.67036L10.6817 10.1426C10.5136 10.2173 10.3218 10.2173 10.1537 10.1426L2.34123 6.67036C2.1065 6.56604 1.95522 6.33326 1.95522 6.07638C1.95522 5.81951 2.1065 5.58673 2.34123 5.48241L10.1537 2.01019ZM4.20566 6.07638L10.4177 8.8373L16.6298 6.07638L10.4177 3.31547L4.20566 6.07638ZM2.01126 10.1559C2.15706 9.82788 2.54119 9.68014 2.86923 9.82594L10.4177 13.1808L17.9662 9.82594C18.2943 9.68014 18.6784 9.82788 18.8242 10.1559C18.97 10.484 18.8223 10.8681 18.4942 11.0139L10.6817 14.4861C10.5137 14.5608 10.3218 14.5608 10.1537 14.4861L2.34125 11.0139C2.01321 10.8681 1.86547 10.484 2.01126 10.1559ZM2.86923 14.1619C2.54119 14.0161 2.15706 14.1638 2.01126 14.4919C1.86547 14.8199 2.01321 15.204 2.34125 15.3498L10.1537 18.8221C10.3218 18.8968 10.5137 18.8968 10.6817 18.8221L18.4942 15.3498C18.8223 15.204 18.97 14.8199 18.8242 14.4919C18.6784 14.1638 18.2943 14.0161 17.9662 14.1619L10.4177 17.5168L2.86923 14.1619Z" fill="currentColor"/>
</symbol><symbol viewBox="0 0 20 20" fill="none" id="list" xmlns="http://www.w3.org/2000/svg">
<path fill-rule="evenodd" clip-rule="evenodd" d="M2.5 3.125C2.33424 3.125 2.17527 3.19085 2.05806 3.30806C1.94085 3.42527 1.875 3.58424 1.875 3.75V5C1.875 5.16576 1.94085 5.32473 2.05806 5.44194C2.17527 5.55915 2.33424 5.625 2.5 5.625H3.75C3.91576 5.625 4.07473 5.55915 4.19194 5.44194C4.30915 5.32473 4.375 5.16576 4.375 5V3.75C4.375 3.58424 4.30915 3.42527 4.19194 3.30806C4.07473 3.19085 3.91576 3.125 3.75 3.125H2.5ZM3.75 3.75H2.5V5H3.75V3.75Z" fill="currentColor"/>
<path d="M6.25 4.375C6.25 4.20924 6.31585 4.05027 6.43306 3.93306C6.55027 3.81585 6.70924 3.75 6.875 3.75H18.125C18.2908 3.75 18.4497 3.81585 18.5669 3.93306C18.6842 4.05027 18.75 4.20924 18.75 4.375C18.75 4.54076 18.6842 4.69973 18.5669 4.81694C18.4497 4.93415 18.2908 5 18.125 5H6.875C6.70924 5 6.55027 4.93415 6.43306 4.81694C6.31585 4.69973 6.25 4.54076 6.25 4.375ZM6.875 8.75C6.70924 8.75 6.55027 8.81585 6.43306 8.93306C6.31585 9.05027 6.25 9.20924 6.25 9.375C6.25 9.54076 6.31585 9.69973 6.43306 9.81694C6.55027 9.93415 6.70924 10 6.875 10H18.125C18.2908 10 18.4497 9.93415 18.5669 9.81694C18.6842 9.69973 18.75 9.54076 18.75 9.375C18.75 9.20924 18.6842 9.05027 18.5669 8.93306C18.4497 8.81585 18.2908 8.75 18.125 8.75H6.875ZM6.875 13.75C6.70924 13.75 6.55027 13.8158 6.43306 13.9331C6.31585 14.0503 6.25 14.2092 6.25 14.375C6.25 14.5408 6.31585 14.6997 6.43306 14.8169C6.55027 14.9342 6.70924 15 6.875 15H18.125C18.2908 15 18.4497 14.9342 18.5669 14.8169C18.6842 14.6997 18.75 14.5408 18.75 14.375C18.75 14.2092 18.6842 14.0503 18.5669 13.9331C18.4497 13.8158 18.2908 13.75 18.125 13.75H6.875Z" fill="currentColor"/>
<path fill-rule="evenodd" clip-rule="evenodd" d="M1.875 8.75C1.875 8.58424 1.94085 8.42527 2.05806 8.30806C2.17527 8.19085 2.33424 8.125 2.5 8.125H3.75C3.91576 8.125 4.07473 8.19085 4.19194 8.30806C4.30915 8.42527 4.375 8.58424 4.375 8.75V10C4.375 10.1658 4.30915 10.3247 4.19194 10.4419C4.07473 10.5592 3.91576 10.625 3.75 10.625H2.5C2.33424 10.625 2.17527 10.5592 2.05806 10.4419C1.94085 10.3247 1.875 10.1658 1.875 10V8.75ZM2.5 8.75H3.75V10H2.5V8.75ZM2.5 13.125C2.33424 13.125 2.17527 13.1908 2.05806 13.3081C1.94085 13.4253 1.875 13.5842 1.875 13.75V15C1.875 15.1658 1.94085 15.3247 2.05806 15.4419C2.17527 15.5592 2.33424 15.625 2.5 15.625H3.75C3.91576 15.625 4.07473 15.5592 4.19194 15.4419C4.30915 15.3247 4.375 15.1658 4.375 15V13.75C4.375 13.5842 4.30915 13.4253 4.19194 13.3081C4.07473 13.1908 3.91576 13.125 3.75 13.125H2.5ZM3.75 13.75H2.5V15H3.75V13.75Z" fill="currentColor"/>
</symbol><symbol viewBox="0 0 20 20" fill="none" id="menu" xmlns="http://www.w3.org/2000/svg">
<path d="M0 1.875C0 1.37772 0.197544 0.900805 0.549175 0.549175C0.900805 0.197544 1.37772 0 1.875 0L18.125 0C18.6223 0 19.0992 0.197544 19.4508 0.549175C19.8025 0.900805 20 1.37772 20 1.875V4.375C20 4.87228 19.8025 5.34919 19.4508 5.70083C19.0992 6.05246 18.6223 6.25 18.125 6.25H1.875C1.37772 6.25 0.900805 6.05246 0.549175 5.70083C0.197544 5.34919 0 4.87228 0 4.375L0 1.875ZM1.875 1.25C1.70924 1.25 1.55027 1.31585 1.43306 1.43306C1.31585 1.55027 1.25 1.70924 1.25 1.875V4.375C1.25 4.54076 1.31585 4.69973 1.43306 4.81694C1.55027 4.93415 1.70924 5 1.875 5H18.125C18.2908 5 18.4497 4.93415 18.5669 4.81694C18.6842 4.69973 18.75 4.54076 18.75 4.375V1.875C18.75 1.70924 18.6842 1.55027 18.5669 1.43306C18.4497 1.31585 18.2908 1.25 18.125 1.25H1.875Z" fill="currentColor"/>
<path d="M2.5 3.125C2.5 2.95924 2.56585 2.80027 2.68306 2.68306C2.80027 2.56585 2.95924 2.5 3.125 2.5H6.875C7.04076 2.5 7.19973 2.56585 7.31694 2.68306C7.43415 2.80027 7.5 2.95924 7.5 3.125C7.5 3.29076 7.43415 3.44973 7.31694 3.56694C7.19973 3.68415 7.04076 3.75 6.875 3.75H3.125C2.95924 3.75 2.80027 3.68415 2.68306 3.56694C2.56585 3.44973 2.5 3.29076 2.5 3.125ZM16.0287 3.52875L15.5338 3.03375C15.4899 2.99004 15.4601 2.93431 15.448 2.87362C15.4359 2.81293 15.4421 2.75001 15.4658 2.69284C15.4895 2.63566 15.5296 2.58682 15.5811 2.55249C15.6326 2.51816 15.6931 2.49989 15.755 2.5H16.745C16.8069 2.49989 16.8674 2.51816 16.9189 2.55249C16.9704 2.58682 17.0105 2.63566 17.0342 2.69284C17.0579 2.75001 17.0641 2.81293 17.052 2.87362C17.0399 2.93431 17.0101 2.99004 16.9662 3.03375L16.4713 3.52875C16.4422 3.55785 16.4077 3.58094 16.3698 3.5967C16.3318 3.61245 16.2911 3.62056 16.25 3.62056C16.2089 3.62056 16.1682 3.61245 16.1302 3.5967C16.0923 3.58094 16.0578 3.55785 16.0287 3.52875ZM0 10C0 9.33696 0.263392 8.70107 0.732233 8.23223C1.20107 7.76339 1.83696 7.5 2.5 7.5H17.5C18.163 7.5 18.7989 7.76339 19.2678 8.23223C19.7366 8.70107 20 9.33696 20 10V16.25C20 16.913 19.7366 17.5489 19.2678 18.0178C18.7989 18.4866 18.163 18.75 17.5 18.75H2.5C1.83696 18.75 1.20107 18.4866 0.732233 18.0178C0.263392 17.5489 0 16.913 0 16.25V10ZM1.25 13.75V16.25C1.25 16.5815 1.3817 16.8995 1.61612 17.1339C1.85054 17.3683 2.16848 17.5 2.5 17.5H17.5C17.8315 17.5 18.1495 17.3683 18.3839 17.1339C18.6183 16.8995 18.75 16.5815 18.75 16.25V13.75H1.25ZM18.75 12.5V10C18.75 9.66848 18.6183 9.35054 18.3839 9.11612C18.1495 8.8817 17.8315 8.75 17.5 8.75H2.5C2.16848 8.75 1.85054 8.8817 1.61612 9.11612C1.3817 9.35054 1.25 9.66848 1.25 10V12.5H18.75ZM2.5 10.625C2.5 10.4592 2.56585 10.3003 2.68306 10.1831C2.80027 10.0658 2.95924 10 3.125 10H14.375C14.5408 10 14.6997 10.0658 14.8169 10.1831C14.9342 10.3003 15 10.4592 15 10.625C15 10.7908 14.9342 10.9497 14.8169 11.0669C14.6997 11.1842 14.5408 11.25 14.375 11.25H3.125C2.95924 11.25 2.80027 11.1842 2.68306 11.0669C2.56585 10.9497 2.5 10.7908 2.5 10.625ZM2.5 15.625C2.5 15.4592 2.56585 15.3003 2.68306 15.1831C2.80027 15.0658 2.95924 15 3.125 15H10.625C10.7908 15 10.9497 15.0658 11.0669 15.1831C11.1842 15.3003 11.25 15.4592 11.25 15.625C11.25 15.7908 11.1842 15.9497 11.0669 16.0669C10.9497 16.1842 10.7908 16.25 10.625 16.25H3.125C2.95924 16.25 2.80027 16.1842 2.68306 16.0669C2.56585 15.9497 2.5 15.7908 2.5 15.625Z" fill="currentColor"/>
</symbol><symbol viewBox="0 0 24 24" fill="none" id="message" xmlns="http://www.w3.org/2000/svg">
<path d="M4.875 3.75C3.97989 3.75 3.12145 4.10558 2.48851 4.73851C1.85558 5.37145 1.5 6.22989 1.5 7.125V16.875C1.5 17.7701 1.85558 18.6285 2.48851 19.2615C3.12145 19.8944 3.97989 20.25 4.875 20.25H19.125C20.0201 20.25 20.8785 19.8944 21.5115 19.2615C22.1444 18.6285 22.5 17.7701 22.5 16.875V7.125C22.5 6.22989 22.1444 5.37145 21.5115 4.73851C20.8785 4.10558 20.0201 3.75 19.125 3.75H4.875ZM21 7.80225L12 12.648L3 7.80225V7.125C3 6.62772 3.19754 6.15081 3.54917 5.79917C3.90081 5.44754 4.37772 5.25 4.875 5.25H19.125C19.6223 5.25 20.0992 5.44754 20.4508 5.79917C20.8025 6.15081 21 6.62772 21 7.125V7.80225ZM3 9.5055L11.6445 14.1608C11.7538 14.2196 11.8759 14.2504 12 14.2504C12.1241 14.2504 12.2462 14.2196 12.3555 14.1608L21 9.5055V16.875C21 17.3723 20.8025 17.8492 20.4508 18.2008C20.0992 18.5525 19.6223 18.75 19.125 18.75H4.875C4.37772 18.75 3.90081 18.5525 3.54917 18.2008C3.19754 17.8492 3 17.3723 3 16.875V9.5055Z" fill="currentColor"/>
</symbol><symbol viewBox="0 0 24 25" fill="none" id="messanger" xmlns="http://www.w3.org/2000/svg">
<g clip-path="url(#jclip0_206_887)">
<path d="M3 20.4996L4.3 16.5996C3.17644 14.9379 2.76999 12.97 3.15622 11.0619C3.54244 9.15378 4.69506 7.43526 6.39977 6.22586C8.10447 5.01647 10.2453 4.39849 12.4241 4.48683C14.6029 4.57517 16.6715 5.36382 18.2453 6.70615C19.819 8.04848 20.7909 9.85313 20.9801 11.7846C21.1693 13.716 20.563 15.6428 19.2739 17.2067C17.9848 18.7706 16.1007 19.8652 13.9718 20.2869C11.8429 20.7087 9.6142 20.4289 7.7 19.4996L3 20.4996Z" fill="currentColor" stroke="currentColor" stroke-width="2" stroke-linecap="round" stroke-linejoin="round"/>
<path d="M8 13.5L11 11.5L13 13.5L16 11.5" stroke="currentColor" stroke-width="2" stroke-linecap="round" stroke-linejoin="round"/>
</g>
<defs>
<clipPath id="jclip0_206_887">
<rect width="24" height="24" fill="currentColor" transform="translate(0 0.5)"/>
</clipPath>
</defs>
</symbol><symbol viewBox="0 0 20 21" fill="none" id="phone" xmlns="http://www.w3.org/2000/svg">
<path d="M4.56809 2.16037C4.4943 2.06545 4.40115 1.98731 4.29484 1.93115C4.18853 1.87499 4.07149 1.84209 3.95149 1.83465C3.83149 1.8272 3.71127 1.84537 3.59883 1.88795C3.48639 1.93053 3.3843 1.99655 3.29934 2.08162L2.00684 3.37537C1.40309 3.98037 1.18059 4.83662 1.44434 5.58787C2.54025 8.69676 4.32078 11.5196 6.65434 13.8479C8.98258 16.1814 11.8055 17.962 14.9143 19.0579C15.6656 19.3216 16.5218 19.0991 17.1268 18.4954L18.4193 17.2029C18.5044 17.1179 18.5704 17.0158 18.613 16.9034C18.6556 16.7909 18.6738 16.6707 18.6663 16.5507C18.6589 16.4307 18.626 16.3137 18.5698 16.2074C18.5136 16.1011 18.4355 16.0079 18.3406 15.9341L15.4568 13.6916C15.3553 13.6131 15.2374 13.5586 15.1118 13.5322C14.9863 13.5058 14.8564 13.5082 14.7318 13.5391L11.9943 14.2229C11.6289 14.3136 11.2462 14.3084 10.8834 14.2079C10.5205 14.1074 10.1898 13.9149 9.92309 13.6491L6.85309 10.5779C6.58706 10.3113 6.39436 9.98061 6.29362 9.61774C6.19289 9.25488 6.18754 8.87216 6.27809 8.50662L6.96309 5.76912C6.99404 5.6446 6.99639 5.51469 6.96998 5.38913C6.94357 5.26357 6.88908 5.14562 6.81059 5.04412L4.56809 2.16037ZM2.35559 1.13912C2.57433 0.920306 2.83712 0.750532 3.12651 0.64107C3.4159 0.531609 3.72527 0.484965 4.03407 0.504235C4.34286 0.523505 4.64403 0.608249 4.91756 0.75284C5.1911 0.89743 5.43075 1.09856 5.62059 1.34287L7.86309 4.22537C8.27434 4.75412 8.41934 5.44287 8.25684 6.09287L7.57309 8.83037C7.53798 8.97217 7.54002 9.12062 7.57899 9.26141C7.61796 9.40219 7.69256 9.53056 7.79559 9.63412L10.8668 12.7054C10.9705 12.8086 11.0991 12.8833 11.2401 12.9223C11.3812 12.9613 11.5299 12.9632 11.6718 12.9279L14.4081 12.2441C14.7289 12.1644 15.0636 12.1584 15.387 12.2266C15.7105 12.2948 16.0143 12.4354 16.2756 12.6379L19.1581 14.8804C20.1943 15.6866 20.2893 17.2179 19.3618 18.1441L18.0693 19.4366C17.1443 20.3616 15.7618 20.7679 14.4731 20.3141C11.1739 19.1548 8.17876 17.2663 5.71059 14.7891C3.23355 12.3213 1.34503 9.32658 0.185589 6.02787C-0.266911 4.74037 0.139339 3.35662 1.06434 2.43162L2.35559 1.13912Z" fill="currentColor"/>
</symbol><symbol viewBox="0 0 19 18" fill="none" id="picker" xmlns="http://www.w3.org/2000/svg">
<rect x="2.76758" y="4.5" width="13.5" height="11.25" rx="1.25" stroke="currentColor"/>
<path d="M3.51758 8.25H15.5176" stroke="currentColor" stroke-linecap="round"/>
<path d="M7.26758 12H11.7676" stroke="currentColor" stroke-linecap="round"/>
<path d="M6.51758 2.25L6.51758 5.25" stroke="currentColor" stroke-linecap="round"/>
<path d="M12.5176 2.25L12.5176 5.25" stroke="currentColor" stroke-linecap="round"/>
</symbol><symbol viewBox="0 0 21 21" fill="none" id="speed" xmlns="http://www.w3.org/2000/svg">
<path fill-rule="evenodd" clip-rule="evenodd" d="M8.03046 0.864784C8.03046 0.505798 8.32148 0.214783 8.68046 0.214783L12.1527 0.214783C12.5117 0.214783 12.8027 0.505798 12.8027 0.864783C12.8027 1.22377 12.5117 1.51478 12.1527 1.51478L8.68046 1.51478C8.32148 1.51478 8.03046 1.22377 8.03046 0.864784ZM3.25399 11.2814C3.25399 7.32571 6.46075 4.11895 10.4165 4.11895C14.3722 4.11895 17.579 7.32571 17.579 11.2814C17.579 15.2372 14.3722 18.4439 10.4165 18.4439L6.07621 18.4439C5.71723 18.4439 5.42621 18.735 5.42621 19.0939C5.42621 19.4529 5.71723 19.7439 6.07621 19.7439L10.4165 19.7439C15.0902 19.7439 18.879 15.9552 18.879 11.2814C18.879 6.60774 15.0902 2.81895 10.4165 2.81895C5.74278 2.81895 1.95399 6.60774 1.95399 11.2814C1.95399 11.6404 2.24501 11.9314 2.60399 11.9314C2.96298 11.9314 3.25399 11.6404 3.25399 11.2814ZM1.08594 13.891C1.08594 13.5321 1.37695 13.241 1.73594 13.241L6.07621 13.241C6.4352 13.241 6.72621 13.5321 6.72621 13.891C6.72621 14.25 6.4352 14.541 6.07621 14.541L1.73594 14.541C1.37695 14.541 1.08594 14.25 1.08594 13.891ZM2.82222 16.4925C2.82222 16.1335 3.11323 15.8425 3.47222 15.8425L8.68055 15.8425C9.03953 15.8425 9.33055 16.1335 9.33055 16.4925C9.33055 16.8515 9.03953 17.1425 8.68055 17.1425H3.47222C3.11323 17.1425 2.82222 16.8515 2.82222 16.4925ZM11.0667 8.68C11.0667 8.32101 10.7756 8.03 10.4167 8.03C10.0577 8.03 9.76666 8.32101 9.76666 8.68V12.1522C9.76666 12.5112 10.0577 12.8022 10.4167 12.8022C10.7756 12.8022 11.0667 12.5112 11.0667 12.1522L11.0667 8.68Z" fill="currentColor"/>
</symbol><symbol viewBox="0 0 28 27" fill="none" id="talk" xmlns="http://www.w3.org/2000/svg">
<path d="M28 13C28 19.7655 21.7315 25.25 14 25.25C12.6133 25.2531 11.2323 25.073 9.89275 24.7145C8.87075 25.2325 6.524 26.2265 2.576 26.874C2.226 26.93 1.96 26.566 2.09825 26.2405C2.71775 24.7775 3.27775 22.828 3.44575 21.05C1.302 18.8975 0 16.08 0 13C0 6.2345 6.2685 0.75 14 0.75C21.7315 0.75 28 6.2345 28 13ZM8.75 13C8.75 12.5359 8.56563 12.0908 8.23744 11.7626C7.90925 11.4344 7.46413 11.25 7 11.25C6.53587 11.25 6.09075 11.4344 5.76256 11.7626C5.43437 12.0908 5.25 12.5359 5.25 13C5.25 13.4641 5.43437 13.9092 5.76256 14.2374C6.09075 14.5656 6.53587 14.75 7 14.75C7.46413 14.75 7.90925 14.5656 8.23744 14.2374C8.56563 13.9092 8.75 13.4641 8.75 13ZM15.75 13C15.75 12.5359 15.5656 12.0908 15.2374 11.7626C14.9092 11.4344 14.4641 11.25 14 11.25C13.5359 11.25 13.0908 11.4344 12.7626 11.7626C12.4344 12.0908 12.25 12.5359 12.25 13C12.25 13.4641 12.4344 13.9092 12.7626 14.2374C13.0908 14.5656 13.5359 14.75 14 14.75C14.4641 14.75 14.9092 14.5656 15.2374 14.2374C15.5656 13.9092 15.75 13.4641 15.75 13ZM21 14.75C21.4641 14.75 21.9092 14.5656 22.2374 14.2374C22.5656 13.9092 22.75 13.4641 22.75 13C22.75 12.5359 22.5656 12.0908 22.2374 11.7626C21.9092 11.4344 21.4641 11.25 21 11.25C20.5359 11.25 20.0908 11.4344 19.7626 11.7626C19.4344 12.0908 19.25 12.5359 19.25 13C19.25 13.4641 19.4344 13.9092 19.7626 14.2374C20.0908 14.5656 20.5359 14.75 21 14.75Z" fill="currentColor"/>
</symbol><symbol viewBox="0 0 24 25" fill="none" id="telegram" xmlns="http://www.w3.org/2000/svg">
<g clip-path="url(#oclip0_206_907)">
<path d="M15 10.5L11 14.5L17 20.5L21 4.5L3 11.5L7 13.5L9 19.5L12 15.5" stroke="currentColor" stroke-width="2" stroke-linecap="round" stroke-linejoin="round"/>
</g>
<defs>
<clipPath id="oclip0_206_907">
<rect width="24" height="24" fill="currentColor" transform="translate(0 0.5)"/>
</clipPath>
</defs>
</symbol><symbol viewBox="0 0 19 19" fill="none" id="time" xmlns="http://www.w3.org/2000/svg">
<circle cx="9.48242" cy="9.78125" r="6.5" stroke="currentColor"/>
<path d="M12.8574 9.78125H9.63867C9.55238 9.78125 9.48242 9.71129 9.48242 9.625V7.15625" stroke="currentColor" stroke-linecap="round"/>
</symbol><symbol viewBox="0 0 24 25" fill="none" id="viber" xmlns="http://www.w3.org/2000/svg">
<path d="M7.96485 6.702C7.779 6.67495 7.58948 6.71236 7.42785 6.808H7.41385C7.03885 7.028 6.70085 7.305 6.41285 7.631C6.17285 7.908 6.04285 8.188 6.00885 8.458C5.98885 8.618 6.00285 8.78 6.04985 8.933L6.06785 8.943C6.33785 9.736 6.68985 10.499 7.11985 11.217C7.6743 12.2255 8.3566 13.1582 9.14985 13.992L9.17385 14.026L9.21185 14.054L9.23485 14.081L9.26285 14.105C10.0996 14.9006 11.0345 15.5862 12.0448 16.145C13.1998 16.774 13.9008 17.071 14.3218 17.195V17.201C14.4448 17.239 14.5568 17.256 14.6698 17.256C15.0284 17.2295 15.3678 17.0838 15.6338 16.842C15.9588 16.554 16.2338 16.215 16.4478 15.838V15.831C16.6488 15.451 16.5808 15.093 16.2908 14.85C15.7083 14.341 15.0785 13.889 14.4098 13.5C13.9618 13.257 13.5068 13.404 13.3228 13.65L12.9298 14.146C12.7278 14.392 12.3618 14.358 12.3618 14.358L12.3518 14.364C9.62085 13.667 8.89185 10.902 8.89185 10.902C8.89185 10.902 8.85785 10.526 9.11085 10.334L9.60285 9.938C9.83885 9.746 10.0028 9.292 9.74985 8.844C9.36345 8.17476 8.91229 7.54508 8.40285 6.964C8.29174 6.82725 8.13591 6.73411 7.96285 6.701L7.96485 6.702ZM12.5798 5.5C12.4472 5.5 12.3201 5.55268 12.2263 5.64645C12.1325 5.74021 12.0798 5.86739 12.0798 6C12.0798 6.13261 12.1325 6.25979 12.2263 6.35355C12.3201 6.44732 12.4472 6.5 12.5798 6.5C13.8438 6.5 14.8938 6.913 15.7248 7.705C16.1518 8.138 16.4848 8.651 16.7028 9.213C16.9218 9.776 17.0218 10.377 16.9958 10.979C16.9903 11.1116 17.0376 11.241 17.1274 11.3387C17.2173 11.4364 17.3422 11.4944 17.4748 11.5C17.6075 11.5056 17.7368 11.4582 17.8346 11.3684C17.9323 11.2786 17.9903 11.1536 17.9958 11.021C18.0269 10.2805 17.9039 9.54159 17.6348 8.851C17.3646 8.15714 16.9548 7.52612 16.4308 6.997L16.4208 6.987C15.3898 6.002 14.0858 5.5 12.5798 5.5Z" fill="currentColor"/>
<path d="M12.5449 7.14358C12.4123 7.14358 12.2851 7.19626 12.1914 7.29002C12.0976 7.38379 12.0449 7.51097 12.0449 7.64358C12.0449 7.77619 12.0976 7.90336 12.1914 7.99713C12.2851 8.0909 12.4123 8.14358 12.5449 8.14358H12.5619C13.4739 8.20858 14.1379 8.51258 14.6029 9.01158C15.0799 9.52558 15.3269 10.1646 15.3079 10.9546C15.3049 11.0872 15.3546 11.2156 15.4462 11.3115C15.5378 11.4074 15.6638 11.463 15.7964 11.4661C15.929 11.4691 16.0574 11.4194 16.1533 11.3278C16.2493 11.2362 16.3049 11.1102 16.3079 10.9776C16.3319 9.94058 15.9979 9.04558 15.3359 8.33158V8.32958C14.6589 7.60358 13.7299 7.21958 12.6119 7.14458L12.5949 7.14258L12.5449 7.14358Z" fill="currentColor"/>
<path d="M12.5264 8.81932C12.4595 8.81341 12.392 8.82105 12.3281 8.84178C12.2642 8.86251 12.2052 8.8959 12.1545 8.93996C12.1038 8.98401 12.0625 9.03784 12.033 9.09822C12.0036 9.15859 11.9866 9.22428 11.9831 9.29137C11.9796 9.35845 11.9897 9.42555 12.0127 9.48866C12.0357 9.55177 12.0712 9.60959 12.117 9.65868C12.1629 9.70777 12.2182 9.74712 12.2795 9.77438C12.3409 9.80163 12.4072 9.81624 12.4744 9.81732C12.8924 9.83932 13.1594 9.96532 13.3274 10.1343C13.4964 10.3043 13.6224 10.5773 13.6454 11.0043C13.6466 11.0714 13.6614 11.1376 13.6887 11.1989C13.7161 11.2601 13.7555 11.3153 13.8046 11.361C13.8537 11.4067 13.9116 11.4421 13.9747 11.465C14.0377 11.4879 14.1048 11.4979 14.1718 11.4943C14.2388 11.4908 14.3044 11.4737 14.3647 11.4443C14.425 11.4148 14.4788 11.3735 14.5228 11.3229C14.5668 11.2722 14.6002 11.2132 14.6209 11.1494C14.6416 11.0855 14.6492 11.0182 14.6434 10.9513C14.6114 10.3513 14.4234 9.82132 14.0384 9.43132C13.6514 9.04132 13.1244 8.85132 12.5264 8.81932Z" fill="currentColor"/>
<path fill-rule="evenodd" clip-rule="evenodd" d="M6.99214 3.50871C10.29 2.83043 13.71 2.83043 17.0079 3.50871L17.3592 3.58022C18.3233 3.77852 19.2087 4.21886 19.9171 4.85231C20.6256 5.48577 21.1292 6.28753 21.3722 7.16853C22.2093 10.2037 22.2093 13.3831 21.3722 16.4182C21.1292 17.2992 20.6256 18.101 19.9171 18.7344C19.2087 19.3679 18.3233 19.8082 17.3592 20.0065L17.0069 20.078C14.9413 20.503 12.8219 20.6631 10.7087 20.5539L7.9591 22.8176C7.85544 22.903 7.72876 22.9613 7.5923 22.9862C7.45584 23.0112 7.31459 23.0021 7.1833 22.9597C7.052 22.9173 6.93548 22.8433 6.84589 22.7453C6.7563 22.6474 6.69692 22.5291 6.67396 22.4028L6.21898 19.9026C5.34652 19.6528 4.55827 19.2013 3.92955 18.5913C3.30083 17.9813 2.85265 17.2331 2.62786 16.4182C1.79071 13.3831 1.79071 10.2036 2.62786 7.16853C2.87081 6.28753 3.37448 5.48577 4.0829 4.85231C4.79131 4.21886 5.67674 3.77852 6.6408 3.58022L6.99214 3.50871ZM16.669 4.90379C13.5943 4.27138 10.4057 4.27138 7.33104 4.90379L6.97866 4.97626C6.29539 5.11706 5.66789 5.42935 5.16587 5.87846C4.66385 6.32757 4.30694 6.89592 4.13478 7.5204C3.36133 10.3246 3.36133 13.2621 4.13478 16.0663C4.30702 16.6909 4.66409 17.2594 5.1663 17.7085C5.66852 18.1576 6.29623 18.4698 6.9797 18.6105L7.07298 18.6295C7.22387 18.6606 7.36127 18.7323 7.46761 18.8356C7.57395 18.9389 7.64439 19.069 7.66994 19.2093L7.97464 20.8857L9.91478 19.2885C9.99226 19.2245 10.0829 19.1755 10.1814 19.1444C10.2798 19.1132 10.3841 19.1006 10.4879 19.1073C12.5597 19.2425 14.6419 19.0996 16.669 18.6829L17.0203 18.6105C17.7038 18.4698 18.3315 18.1576 18.8337 17.7085C19.3359 17.2594 19.693 16.6909 19.8652 16.0663C20.6384 13.2628 20.6384 10.3249 19.8652 7.5204C19.693 6.8958 19.3359 6.32737 18.8337 5.87825C18.3315 5.42913 17.7038 5.1169 17.0203 4.97626L16.669 4.90379Z" fill="currentColor"/>
</symbol></svg>