<svg width="627" height="147" viewBox="0 0 627 147" fill="none" xmlns="http://www.w3.org/2000/svg">
<g filter="url(#filter0_f_32_46)">
<path d="M598.983 84.9275C598.485 81.1877 594.043 75.7506 589.875 71.3019C585.553 66.7069 580.599 62.1417 574.911 57.1817C574.905 57.1764 574.899 57.1712 574.893 57.1659C573.263 55.7462 571.578 54.3012 569.816 52.806C564.007 46.6862 553.479 47.4903 540.209 43.4745C527.837 39.9054 513.662 36.8909 495.303 37.1897C475.072 36.4766 457.039 36.8039 441.322 35.858C425.679 34.9634 412.713 32.7955 403.245 32.0932C399.743 31.7629 396.105 32.1895 386.436 32.1554C380.126 32.1368 371.652 31.9621 359.435 31.6034C352.953 31.414 345.381 31.1752 336.53 30.8772C307.218 30.2097 261.435 26.8893 219.196 27.5385C193.53 27.6443 169.17 27.8394 150.661 27.8802C137.166 27.8874 123.718 28.0434 110.181 26.5943C96.889 25.349 83.569 24.7061 69.9379 28.0661C58.2553 30.0518 53.0006 44.1018 43.1352 55.2826C38.4444 60.3285 34.1968 66.2658 34.3803 72.8706C34.465 79.6247 37.9092 86.646 42.4415 92.874C49.42 102.009 60.8181 107.341 71.9676 111.366C83.3202 115.212 94.8201 118.755 106.866 118.826C109.93 118.914 113.06 118.919 116.177 118.933C137.867 119.267 159.779 119.348 183.674 119.575C226.223 119.967 260.201 122.827 297.591 123.621C312.189 123.298 327.539 123.836 344.011 123.375C370.122 122.775 407.745 121.567 445.46 120.272C448.698 120.16 451.897 120.047 455.108 119.932C455.124 119.931 455.141 119.931 455.157 119.93C489.562 118.646 524.207 117.889 546.288 106.524C555.111 102.5 560.378 96.0354 564.692 90.4727C569.331 85.0503 570.226 79.4674 570.362 74.5544C570.317 64.6967 568.039 58.2582 564.31 53.6647C561.545 50.0968 558.548 46.9608 555.099 43.1378C549.554 36.6609 537.549 33.8402 525.283 30.7172C513.701 28.7304 498.743 30.8342 484.584 29.9913C484.474 29.9862 484.365 29.981 484.256 29.9757C479.548 29.9785 475.072 28.1696 475.399 27.7139C475.523 27.7797 479.695 28.9536 484.385 28.9793C499.371 29.9835 514.579 27.1683 526.92 30.0895C527.633 30.0259 531.114 30.684 535.18 31.8514C539.972 33.605 551.993 34.9472 561.555 48.1121C567.07 53.7574 571.598 62.2138 571.824 72.6656C572.822 83.2941 565.523 93.6917 556.17 102.143C558.871 99.9197 560.877 97.7701 562.579 95.8569C564.57 93.6008 566.004 91.7857 567.221 90.228C569.788 86.97 571.061 84.2594 571.982 79.409C572.938 73.7633 572.6 66.2058 569.686 58.4186C566.069 50.7411 559.962 44.0407 552.572 37.893C548.51 35.3033 544.915 33.9046 545.051 33.6205C545.155 33.4072 548.973 34.3983 553.19 37.101C553.27 37.1533 553.355 37.2097 553.436 37.2648C557.779 40.2221 560.154 44.0136 563.276 47.3489C566.219 50.7627 569.233 54.2944 570.827 58.593C573.742 66.8123 574.026 74.7908 572.721 80.8679C572.058 83.9649 570.956 86.4963 569.871 88.3202C569.009 89.8056 567.78 91.2945 567.114 92.1552C567.024 92.2693 566.852 92.4861 566.647 92.7384C566.644 92.7425 566.64 92.7467 566.637 92.7509C566.52 92.8957 565.929 93.6258 565.272 94.3761C565.136 94.5315 564.851 94.8546 564.499 95.2347C564.413 95.3353 564.328 95.4351 564.242 95.5343C563.045 96.923 561.78 98.3179 560.327 99.7609C554.797 105.387 543.704 113.48 517.954 117.318C494.567 121.468 454.331 121.902 404.391 123.665C407.771 123.578 411.154 123.488 414.534 123.397C423.048 123.168 431.588 122.926 440.148 122.672C443.407 122.576 446.659 122.478 449.947 122.377C455.245 122.214 460.555 122.046 465.878 121.87C469.442 121.753 473.061 121.625 476.661 121.468C476.669 121.467 476.677 121.467 476.685 121.467C481.657 121.25 486.689 120.984 491.72 120.628C493.483 120.503 495.243 120.367 496.951 120.22C503.847 119.668 510.622 118.643 518.27 117.642C519.202 117.539 520.25 117.413 521.027 117.3C521.862 117.18 522.662 117.051 523.412 116.92C524.075 116.804 524.706 116.686 525.31 116.566C525.39 116.55 525.471 116.533 525.552 116.517C526.227 116.381 526.869 116.242 527.486 116.103C528.101 115.964 528.692 115.823 529.273 115.679C529.278 115.677 529.284 115.676 529.289 115.675C529.896 115.523 530.354 115.405 530.994 115.232C531.796 115.014 532.483 114.818 533.313 114.57C534.113 114.331 534.949 114.069 535.784 113.795C536.625 113.519 537.468 113.23 538.33 112.923C539.185 112.617 540.059 112.292 540.928 111.955C541.798 111.618 542.68 111.262 543.554 110.895C544.435 110.524 545.319 110.138 546.197 109.735C548.237 108.801 550.146 107.882 551.596 107.134C553.031 106.396 553.835 105.976 553.901 106.091C553.961 106.201 553.277 106.841 551.894 107.763C550.492 108.697 548.604 109.724 546.54 110.679C545.987 110.936 545.423 111.19 544.852 111.44C544.518 111.587 544.176 111.734 543.836 111.879C542.924 112.266 541.997 112.644 541.055 113.012C540.12 113.377 539.169 113.733 538.2 114.079C537.233 114.425 536.244 114.763 535.237 115.09C534.234 115.415 533.2 115.733 532.146 116.038C531.118 116.335 529.938 116.654 528.876 116.919C528.1 117.113 527.139 117.337 526.334 117.511C525.493 117.694 524.664 117.86 523.858 118.008C523.052 118.156 522.273 118.285 521.513 118.4C521.432 118.412 521.351 118.424 521.27 118.436C520.599 118.535 519.955 118.619 519.352 118.69C518.674 118.769 518.078 118.836 517.496 118.909C516.86 118.989 516.472 119.042 515.993 119.108C509.663 120.059 501.564 121.156 493.961 121.741C492.973 121.821 492.046 121.893 491.098 121.963C486.101 122.334 481.081 122.62 476.091 122.858C472.428 123.034 468.841 123.175 465.175 123.314C459.836 123.517 454.467 123.713 449.106 123.905C445.808 124.022 442.509 124.138 439.201 124.252C430.522 124.552 421.835 124.841 413.128 125.119C404.434 125.396 395.67 125.663 386.927 125.912C378.178 126.162 369.162 126.401 360.372 126.597C353.963 126.739 347.317 126.853 341.231 126.908C337.95 126.938 334.706 126.954 331.559 126.945C331.547 126.945 331.536 126.945 331.525 126.945C328.716 126.936 325.976 126.911 323.227 126.829C317.284 126.541 311.787 126.524 306.005 126.622C300.268 126.7 294.507 126.649 288.761 126.442C283.03 126.24 277.255 125.903 271.516 125.609C265.743 125.307 260.112 125.015 254.157 124.726C246.352 124.348 238.587 124.001 230.626 123.692C222.723 123.387 214.75 123.125 206.761 122.934C203.967 122.867 201.166 122.81 198.367 122.764C198.356 122.764 198.345 122.764 198.334 122.764C193.153 122.679 187.954 122.63 182.755 122.606C174.72 122.568 166.666 122.593 158.575 122.632C150.485 122.668 142.341 122.739 134.142 122.677C125.894 122.527 117.634 122.575 109.12 122.551C101.572 122.546 93.595 121.757 86.4258 119.731C84.5174 119.241 82.6038 118.732 80.7065 118.197C71.6847 115.647 63.0327 112.608 55.0441 108.24C47.0811 103.977 39.7214 97.538 35.3524 89.404C30.7994 81.6563 27.978 70.7078 32.9383 62.0003C35.19 57.6546 38.3823 54.11 41.4967 50.7497C44.1404 47.709 46.4983 43.4431 49.1894 39.6631C51.861 35.8535 54.7618 32.0775 58.466 28.8672C62.0076 25.5201 67.5309 23.7616 71.8803 22.956C77.0223 21.7965 82.6943 21.133 87.9954 20.9577C93.3583 20.7664 98.6103 20.9237 103.842 21.2383C105.91 21.3608 108.079 21.5317 110.134 21.7292C113.143 22.0177 116.058 22.2715 118.972 22.4341C123.865 22.7115 128.701 22.8106 133.369 22.8529C138.081 22.8948 142.593 22.8616 147.022 22.8185C151.595 22.773 155.347 22.7218 159.848 22.6493C170.817 22.4981 177.602 22.4257 185.154 22.3485C186.64 22.3331 188.161 22.3172 189.743 22.3005C198.801 22.2102 207.835 22.1304 216.77 22.0734C225.779 22.0202 234.672 21.9669 243.677 22.0474C252.612 22.1077 261.629 22.5269 270.523 22.9204C279.413 23.313 288.307 23.6636 297.216 24.0069C306.111 24.349 315.207 24.6882 323.931 25.0068C328.975 25.1908 334.331 25.3857 339.307 25.5633C342.905 25.6917 346.432 25.8159 349.909 25.9349C351.315 25.9832 352.743 26.0314 354.12 26.0773C358.93 26.2375 363.613 26.3853 368.121 26.5094C372.608 26.6329 377.01 26.732 381.246 26.7829C385.515 26.8313 389.691 26.8462 393.814 26.7086C398.031 26.5162 402.019 26.4237 406.674 26.8182C409.716 27.054 412.676 27.3647 415.592 27.6647C419.968 28.1188 424.29 28.5586 428.642 28.919C433 29.2815 437.278 29.5624 441.6 29.7636C443.009 29.8299 444.463 29.8864 445.851 29.9302C450.156 30.0656 454.435 30.1227 458.711 30.1556C462.982 30.1876 467.217 30.1913 471.446 30.1937C475.688 30.1965 479.867 30.1943 484.143 30.2292C491.501 30.3284 498.176 30.4288 504.377 30.5134C510.625 30.6349 516.565 31.204 522.196 32.1525C523.242 32.3268 524.304 32.5168 525.349 32.7153C529.897 33.5807 534.234 34.6119 538.528 35.7418C543.952 37.2022 548.426 38.4868 553.725 39.202C558.878 40.0147 564.707 40.868 569.988 43.9179C575.527 47.4174 578.423 50.58 582.755 54.1932C586.848 57.7631 590.967 61.4566 595.254 65.884C599.387 70.434 604.21 74.6465 606.521 82.7276C606.992 84.7763 607.055 87.7339 605.382 90.3124C604.188 92.3702 601.295 93.8369 599.743 94.3724C596.309 95.6227 593.153 96.2775 589.948 96.9454C583.596 98.2264 577.208 99.1849 570.967 100.06C564.679 100.935 558.385 101.707 552.191 102.436C545.987 103.166 539.571 103.891 533.574 104.55C523.858 105.617 514.194 106.637 504.488 107.628C494.855 108.611 485.174 109.565 475.516 110.478C465.875 111.389 456.229 112.263 446.565 113.082C436.916 113.896 427.251 114.673 417.58 115.307C415.434 115.448 413.295 115.583 411.158 115.711C403.644 116.161 396.072 116.533 388.588 116.83C388.536 116.832 388.483 116.834 388.431 116.836C378.764 117.226 369.28 117.452 359.771 117.772C356.274 117.895 352.965 118.027 349.61 118.26C346.222 118.502 342.975 118.824 339.653 119.231C336.334 119.638 333.037 120.122 329.783 120.648C326.489 121.179 323.288 121.744 319.99 122.302C316.97 122.808 313.957 123.313 310.527 123.688C310.215 123.721 309.906 123.753 309.587 123.783C305.86 124.142 301.166 124.295 296.883 123.2C287.61 120.91 277.691 120.044 267.845 119.001C257.921 118.013 247.955 117.169 237.967 116.41C234.049 116.113 230.089 115.825 226.173 115.547C220.045 115.113 213.884 114.692 207.704 114.275C197.554 113.591 187.352 112.916 177.099 112.216C166.882 111.519 156.578 110.796 146.354 110.012C136.103 109.222 125.756 108.378 115.574 107.31C104.255 106.125 93.0425 104.985 81.6905 103.534C70.2925 102.197 59.0543 99.4547 47.9772 96.4618C45.1772 95.6586 42.3804 94.8116 39.4978 93.5496C38.0509 92.897 36.5835 92.1934 35.0329 90.9302C34.3195 90.3553 33.2634 89.2385 32.7631 88.1358C32.3897 87.2894 32.1918 86.8536 31.8963 86.2554C29.6629 81.6045 26.1724 77.7568 22.6696 72.4929C21.8394 71.091 20.794 69.5085 20.6799 66.8739C20.6033 65.6525 21.1909 63.8083 21.7535 63.0143C22.0576 62.5464 22.0485 62.4354 22.3413 61.6959C23.3176 58.9196 25.0931 55.7539 27.2124 53.4204C31.4232 48.6524 37.0066 45.5416 41.6877 42.8757C47.4473 39.5292 52.9738 35.6867 59.2805 32.3912C62.7397 30.6036 65.7662 29.2975 68.957 27.9838C74.7936 25.6211 80.5931 23.8775 86.5135 23.3699C92.6505 22.8204 97.6276 24.0827 102.735 24.1026C112.991 24.4717 123.177 24.4098 134.744 24.0782C136.969 24.0075 138.755 23.9348 140.96 23.8359C141.374 23.8172 141.815 23.7971 142.269 23.7759C145.145 23.6374 148.428 23.492 152.965 23.1668C161.937 22.5018 176.411 21.1025 194.597 21.2287C199.191 21.2089 202.147 21.4388 201.153 21.722C200.438 21.9214 198.017 22.0964 195.027 22.1942C200.545 22.1326 206.046 22.0928 211.537 22.0839C213.721 22.0805 215.782 22.1329 217.25 22.2281C218.709 22.3234 219.463 22.4516 219.33 22.5801C219.217 22.709 218.199 22.8288 216.57 22.922C214.91 23.0151 212.763 23.0749 210.569 23.0912C204.733 23.1346 198.92 23.2111 193.104 23.3109C187.276 23.4269 181.518 23.4678 175.648 23.7292C169.803 24.0076 164.009 24.5732 158.225 25.036C152.467 25.5116 146.68 25.8138 140.887 26.0147C135.038 26.2238 129.303 26.3573 123.486 26.4037C119.998 26.4313 116.461 26.426 112.995 26.3805C111.718 26.3637 110.444 26.3417 109.185 26.3136C108.169 26.2908 107.115 26.2629 106.057 26.2298C100.37 26.1675 95.2094 25.2803 89.111 25.1714C83.2085 25.2569 77.5179 26.7612 72.1507 28.7169C61.3074 32.5247 51.6792 39.0656 42.1057 44.8008C37.2519 47.5456 32.0895 50.6241 28.2585 55.2028C26.3314 57.4498 24.9068 60.3497 23.9972 62.9541C23.7122 63.8776 22.3218 65.7605 22.7693 67.6131C23.0871 69.3864 23.9325 70.6998 24.7381 71.9414C28.083 76.735 31.7224 80.8885 34.0499 85.8347C36.7514 92.3808 43.9405 92.7154 49.116 94.4943C60.0741 97.3669 71.1864 100 82.449 101.249C91.1349 102.316 99.7412 103.184 108.38 104.06C111.804 104.385 115.145 104.7 118.461 105.007C128.163 105.89 137.862 106.563 147.415 107.192C130.417 105.99 116.742 104.734 103.778 103.442C102.039 103.27 100.344 103.101 98.5892 102.924C81.0304 101.154 63.9174 99.3575 41.7793 92.0787C39.8299 91.2963 37.8844 90.4823 36.1466 88.9584C34.1528 87.1159 34.0261 85.1818 32.9872 83.5944C31.1541 80.3028 28.8917 77.3692 26.6715 74.4304C24.709 71.7616 21.0954 67.2874 23.838 63.6849C24.9133 60.8148 26.6022 57.131 28.9116 54.6886C33.4914 49.5645 39.3511 46.7358 44.2231 43.7675C49.1868 40.7855 53.7385 37.7482 58.2898 35.2042C67.5371 30.3468 76.0529 27.0447 84.0883 25.8749C92.2328 24.6696 98.8982 26.6037 104.781 26.5484C128.307 27.2653 138.41 26.632 147.88 26.465C161.175 25.8724 186.99 24.282 199.947 24.3587C204.655 24.2914 208.46 24.4822 208.438 24.7587C208.421 25.0355 204.585 25.2938 199.881 25.3613C193.042 25.5077 182.608 25.3997 171.999 25.9883C161.374 26.6792 150.426 27.5993 142.452 27.642C135.381 27.6817 127.205 28.267 104.001 27.5199C98.2019 27.5522 91.5329 25.6409 83.7483 26.9372C76.0106 28.1502 67.5687 31.4108 58.5393 36.212C54.0759 38.7247 49.5408 41.7463 44.5711 44.7269C39.6434 47.7066 33.942 50.506 29.5604 55.4667C25.4372 60.2123 21.5625 68.4027 27.5553 73.9393C29.7627 76.8575 32.0638 79.8518 33.931 83.2306C34.9579 84.8494 35.2834 86.9707 36.9334 88.3176C38.494 89.6399 40.3839 90.4524 42.2977 91.2056C63.3881 98.0981 79.8602 100.04 97.2232 101.775C98.8945 101.945 100.622 102.119 102.375 102.293C102.385 102.294 102.396 102.295 102.407 102.296C118.34 103.908 135.802 105.429 159.315 107.028C213.473 110.621 286.729 115.285 303.392 119.749C306.741 119.821 309.996 119.449 313.418 118.95C326.476 116.922 342.505 113.076 378.75 112.54C386.671 112.252 395.951 111.862 406.051 111.28C421.203 110.29 435.908 108.948 448.69 107.761C459.719 106.732 469.883 105.659 479.721 104.573C482.554 104.26 485.401 103.94 488.25 103.618C495.114 102.841 501.978 102.046 508.665 101.275C513.988 100.661 519.587 99.9968 525.478 99.2833C536.194 97.98 548.026 96.5317 561.305 94.7809C567.881 93.8985 574.935 92.9186 582.266 91.6688C585.959 91.0313 589.717 90.3432 593.45 89.4132C597.25 88.4729 600.711 87.25 600.289 85.2147C599.521 78.8193 592.184 71.7887 586.601 66.2219C580.726 60.5484 574.551 55.2582 568.767 50.481C563.455 46.3814 556.015 45.8173 548.842 44.5295C541.352 43.1721 535.116 40.8015 528.711 39.4778C537.926 41.5194 546.552 44.5385 554.214 45.4754C561.933 46.6779 566.99 48.5316 571.651 53.0471C573.439 54.5715 575.136 56.0364 576.756 57.4596C587.787 67.4066 597.673 75.8984 599.972 84.7628C601.375 88.1525 592.375 89.3363 586.946 90.5008C581.054 91.6063 575.476 92.4187 570.369 93.1319C560.109 94.5495 551.366 95.5489 543.664 96.4626C528.254 98.2687 516.913 99.5572 504.917 100.927C498.594 101.647 491.616 102.442 484.096 103.275C469.067 104.938 451.875 106.775 433.364 108.388C416.122 109.913 396.872 111.223 376.37 112.054C376.362 112.055 376.354 112.055 376.346 112.055C372.344 112.223 368.293 112.378 364.197 112.543C351.736 112.937 338.826 114.103 326.144 116.442C319.788 117.535 313.469 118.879 307.137 119.337C300.799 120.044 294.697 117.683 288.305 116.923C285.598 116.523 282.343 116.109 278.603 115.691C257.036 113.229 218.995 110.896 172.624 107.634C162.429 106.901 151.869 106.099 139.787 105.075C136.114 104.763 132.328 104.43 128.321 104.057C111.261 102.121 89.9844 101.428 62.9194 95.5273C52.0338 92.1903 37.5762 93.17 32.4527 78.3979C30.5233 75.5512 28.2284 72.884 26.4455 70.0995C25.5722 68.7171 24.9036 67.179 25.2145 66.1012C25.54 65.2822 26.7008 62.774 27.2536 61.4025C29.9789 55.2198 36.075 51.0383 42.3846 47.5414C54.7908 40.1294 67.0039 31.9444 80.8913 28.8095C86.1572 27.577 91.0263 27.6656 96.5787 28.3979C101.944 28.8109 107.243 28.9592 112.505 29.0529C123.021 29.2229 133.348 29.0481 143.581 28.6705C164.092 27.697 183.767 25.9759 203.717 26.0287C203.725 26.0286 203.733 26.0285 203.742 26.0284C208.438 25.979 212.141 26.1874 211.963 26.4648C211.811 26.7421 207.861 26.9856 203.165 27.0368C183.188 26.9766 163.681 28.768 143.105 29.6906C132.887 30.0601 122.561 30.2271 112.067 30.0472C101.546 30.3319 90.7985 27.2374 80.8068 29.8553C67.3653 32.9632 55.3942 40.9187 42.9413 48.3764C36.5941 51.8875 30.7022 55.9799 28.1387 61.8768C27.8081 62.6201 27.5397 63.3789 27.1838 64.289C26.8432 65.2462 26.0721 66.3866 26.1717 66.404C25.9884 66.9624 26.5076 68.3764 27.3784 69.7015C29.1328 72.4016 31.4736 75.1426 33.4406 78.0687C35.3828 80.6545 37.3885 85.559 38.2661 86.4244C40.0492 88.0543 43.303 89.1999 46.2045 90.146C52.1644 92.0244 58.1627 93.36 63.8104 94.7079C91.1733 100.496 112.875 101.319 130.179 103.218C134.36 103.6 138.305 103.941 142.065 104.256C153.971 105.252 163.925 106.005 173.574 106.698C218.473 109.855 255.077 112.096 276.775 114.478C280.632 114.892 284.019 115.303 286.893 115.705C293.202 116.352 299.284 118.764 305.234 118.419C311.298 118.222 317.535 116.924 323.793 115.833C336.297 113.502 349.209 112.02 361.671 111.635C365.71 111.465 369.754 111.312 373.73 111.15C373.738 111.15 373.746 111.149 373.754 111.149C394.239 110.347 413.822 109.081 431.378 107.548C449.163 106.015 464.701 104.37 479.204 102.784C486.989 101.931 494.484 101.086 501.885 100.248C514.622 98.8034 526.629 97.4441 542.506 95.5887C550.48 94.6456 559.415 93.6273 569.825 92.1964C575.003 91.4769 580.633 90.66 586.552 89.5563C592.071 88.5256 600.673 86.6323 598.983 84.9275ZM186.497 22.3072C175.206 22.2806 165.724 23.1376 158.954 23.7058C164.746 23.2637 170.584 22.7335 176.496 22.5116C179.889 22.3836 183.178 22.3646 186.497 22.3072ZM407.493 112.199C405.671 112.322 403.826 112.442 401.962 112.557C407.076 112.277 412.188 111.961 417.298 111.61C423.56 111.18 429.821 110.687 436.078 110.168C426.112 110.983 416.494 111.674 407.493 112.199ZM601.289 85.143C601.609 88.0547 597.966 89.2621 594.458 90.1881C590.939 91.1097 587.358 91.786 583.934 92.3976C577.05 93.6101 570.451 94.5508 564.244 95.4044C551.762 97.0958 540.486 98.475 529.846 99.7837C523.707 100.534 517.751 101.247 511.851 101.932C509.417 102.214 506.97 102.499 504.504 102.785C518.865 101.315 532.052 99.8931 542.843 98.68C558.965 96.8668 571.576 95.3566 582.103 93.6601C587.372 92.7977 592.126 91.9538 596.405 90.7175C600.927 89.8142 603.498 86.2308 601.863 82.4203C600.333 78.1682 597.377 74.6051 594.401 71.1799C591.86 68.3784 589.039 65.616 586.122 62.9117C582.032 59.1199 577.451 55.1967 573.034 51.5174C568.758 47.4955 563.613 45.2371 557.963 44.2473C552.349 43.203 546.409 42.588 540.941 40.833C535.762 39.3979 530.553 38.1091 525.495 37.119C525.214 37.064 524.91 37.0052 524.619 36.9501C519.266 35.9289 513.998 35.2752 509.132 35.011C504.18 34.7388 500.037 34.7946 496.339 34.7796C491.704 34.7829 487.001 34.5961 482.332 34.5872C477.657 34.5577 473 34.5624 468.352 34.5544C463.693 34.5467 459.079 34.5311 454.448 34.4701C452.947 34.4502 451.382 34.4241 449.896 34.3923C449.214 34.3777 448.527 34.3616 447.843 34.3437C456.911 34.639 466.309 34.6829 476.009 34.7887C489.968 35.1936 505.113 34.2796 521.146 36.9592C528.008 38.1211 535.078 39.8811 542.363 41.9849C549.938 44.3714 558.273 44.1421 565.428 47.3465C572.118 50.6216 578.572 57.5998 585.235 63.5349C591.473 69.692 599.941 76.8245 601.289 85.143ZM310.982 28.9033C314.91 29.0378 320.667 29.2288 328.091 29.4632C329.846 29.5185 331.7 29.5762 333.636 29.6359C333.59 29.6342 333.543 29.6327 333.497 29.631C328.692 29.4505 324.253 29.2811 319.462 29.098C310.926 28.7716 302.618 28.4468 294.253 28.1094C285.84 27.77 277.438 27.4189 269.05 27.0316C260.657 26.6422 252.256 26.2546 243.905 26.1767C235.49 26.0817 227.162 26.1093 218.755 26.1391C216.054 26.1497 213.395 26.1625 210.705 26.1772C216.68 26.1756 222.943 26.1711 229.488 26.1874C234.774 26.2024 240.188 26.2244 245.957 26.3266C248.155 26.3665 250.809 26.4289 253.908 26.5398C266.174 27.0206 285.544 28.0628 310.982 28.9033ZM143.634 26.7616C141.698 26.7699 139.737 26.7721 137.82 26.7647C132.361 26.7423 127.01 26.658 121.775 26.4194C118.101 26.2547 114.434 25.9781 110.878 25.6252C109.376 25.4796 107.893 25.3324 106.432 25.217C103.938 25.0255 101.492 24.8808 99.062 24.779C116.014 26.0141 133.234 27.1473 150.739 26.879C150.969 26.8785 151.202 26.8776 151.437 26.8771C148.8 26.8404 146.196 26.8025 143.634 26.7616Z" fill="white" fill-opacity="0.5"/>
</g>
<defs>
<filter id="filter0_f_32_46" x="0.673096" y="0.874512" width="626.136" height="146.073" filterUnits="userSpaceOnUse" color-interpolation-filters="sRGB">
<feFlood flood-opacity="0" result="BackgroundImageFix"/>
<feBlend mode="normal" in="SourceGraphic" in2="BackgroundImageFix" result="shape"/>
<feGaussianBlur stdDeviation="10" result="effect1_foregroundBlur_32_46"/>
</filter>
</defs>
</svg>
