<svg width="257" height="140" viewBox="0 0 257 140" fill="none" xmlns="http://www.w3.org/2000/svg">
<path d="M3.37814 38.6828C6.11912 35.4693 10.1015 32.1198 13.2456 29.78C14.2306 29.0459 14.0492 29.7668 14.7348 29.2844C16.0817 28.3379 17.1222 27.1826 18.4808 26.3025C18.9342 26.0112 18.8541 26.9532 19.3194 26.6365C21.8642 24.9016 23.9995 22.9484 26.5018 21.1362C32.6667 16.6755 38.7679 12.3313 44.886 7.97817C48.0846 5.79966 50.3378 3.67367 54.9894 1.2465C55.6405 0.950741 56.3516 0.631849 57.5036 0.413537C58.499 0.102142 61.08 0.608654 61.3232 0.796117C62.5044 1.18547 64.8132 2.61088 65.8874 4.53124C67.9645 8.30997 67.1205 11.2482 66.6311 13.5116C65.0175 19.4771 61.4122 24.4793 59.1612 29.2555C58.8933 29.8112 59.5866 29.7724 59.5728 29.8987C59.3424 31.8626 58.5974 30.746 57.8802 31.714C55.0456 35.5295 52.455 39.9919 50.5974 44.0192C49.814 45.7293 51.721 44.6005 50.271 45.9738C50.1716 46.0701 49.8322 45.3604 49.5377 45.7879C48.8683 46.7569 47.9937 48.7789 47.5642 49.5746C46.7367 51.0949 46.6213 51.3623 45.9661 52.8404C45.0615 54.8824 43.8403 57.1507 43.2923 59.4106C43.1759 59.9012 43.9832 59.4459 43.8612 60.236C43.7461 60.986 43.1269 63.1663 42.7743 63.8528C42.4266 64.5421 42.0256 64.0984 41.8784 64.1966C40.6491 64.9868 41.2154 67.8753 41.1502 68.2019C39.9301 74.2762 37.4992 79.0055 35.465 84.3737C33.9167 88.4591 32.3737 92.8429 30.6389 96.6377C28.5761 101.139 26.4361 104.763 24.2869 109.047C24.0612 109.493 25.0012 109.321 24.7266 109.867C21.7492 115.778 18.3988 121.398 14.5729 126.683C14.1963 127.202 14.0566 126.157 13.6499 126.65C12.477 128.01 10.2452 130.989 9.86912 131.431C8.81115 128.948 9.50206 130.533 10.0731 129.749C10.6258 129.287 10.9583 128.56 10.8837 127.748C12.1497 127.134 14.8931 124.275 16.9335 123.112C18.287 122.287 17.7366 123.859 18.8633 122.295C19.1185 121.943 18.277 121.891 18.6923 121.397C20.434 119.324 22.6677 117.372 24.3407 115.241C24.6794 114.807 24.1727 114.512 24.2101 114.331C24.5437 112.83 27.049 112.266 27.4529 112.007C30.5317 110 32.2092 107.95 34.6354 105.64C35.2017 105.102 34.0081 105.194 34.5355 104.656C37.2657 101.884 40.2713 99.1591 43.3247 96.8461C44.0071 96.3315 43.8621 97.3373 44.2103 97.1164C45.7443 96.1359 45.2117 94.9702 46.6808 94.0217C46.9894 93.8212 47.2031 94.3728 47.2931 94.3745C48.6944 94.4128 48.4764 92.8047 48.6586 92.6063C50.9334 90.0865 53.4898 89.7759 55.8625 87.5629C56.1462 87.2972 55.0231 87.31 55.8504 86.5954C61.369 81.825 67.6699 77.322 73.9487 73.7204C74.9277 73.1578 74.56 74.0465 74.6553 74.0602C76.1728 74.2564 76.0233 72.7206 76.301 72.4737C78.5103 70.5567 81.3756 70.0873 82.185 67.6774C92.965 61.6855 103.119 55.3743 114.515 51.0544C114.66 50.9994 114.718 51.7218 115.006 51.6098C118.461 50.2858 117.35 49.6828 119.025 47.4616C119.448 46.9024 121.807 47.5042 122.009 47.539C122.736 47.6656 122.573 48.8344 122.791 48.8239C124.563 48.7225 122.963 45.8109 125.103 44.9115C125.172 44.8892 125.127 45.5649 125.327 45.5472C125.942 45.4972 126.416 45.046 127.03 45.0299C128.473 44.9922 129.421 46.3303 131.045 44.8062C131.254 44.6168 130.277 42.9338 132.333 42.4193C133.148 42.1866 136.815 41.33 138.015 41.3677C139.15 41.3699 138.426 42.0525 138.51 42.0693C141.439 42.6577 140.331 43.0945 141.708 44.2967C142.983 45.553 142.735 42.7377 143.319 42.483C143.818 42.1904 146.035 43.352 146.356 43.764C146.745 44.1523 146.065 44.3051 146.413 44.5781C148.714 46.6056 148.251 43.9326 149.469 44.1772C152.601 45.2425 151.863 48.7363 151.929 50.6905C151.963 51.2939 152.365 50.7339 152.475 51.2852C152.825 53.3448 152.08 54.4968 152.246 56.9106C152.279 57.2965 153.094 59.3715 151.837 60.3393C151.661 60.4631 151.299 59.8763 150.951 60.6151C150.437 61.7151 149.541 63.8277 149.2 65.0893C148.939 66.0489 150.17 65.3276 149.431 66.3874C149.099 66.8587 149.056 65.7032 148.468 66.6001C147.897 67.4743 146.811 69.8203 146.366 70.7317C145.945 71.606 146.761 71.4253 146.765 71.5147C146.777 72.0515 146.162 73.899 146.076 74.0526C142.078 81.6506 136.893 87.5817 132.522 94.5455C132.175 95.0925 132.982 95.1282 132.935 95.2157C131.902 97.1985 131.412 94.7284 130.031 95.6394C131.293 96.2538 130.565 96.857 129.791 98.2065C129.414 98.8638 130.09 98.841 130.094 98.9289C130.107 100.315 128.797 100.33 128.507 100.365C127.434 100.498 127.724 101.692 127.004 101.781C126.285 101.875 126.338 100.481 125.461 101.699C125.613 102.332 127.318 102.197 126.814 103.242C124.944 107.162 119.286 112.924 117.099 115.555C114.9 118.215 114.307 119.113 112.917 120.59C110.5 123.132 111.956 122.838 110.987 124.773C109.886 126.877 108.74 124.509 108.134 124.455C107.54 124.387 107.742 124.976 107.294 125.093C106.842 125.214 107.091 124.34 106.434 125.003C105.73 125.723 104.878 128.295 105.176 128.793C105.736 129.928 107.033 130.142 105.807 131.14C105.765 131.186 105.251 130.756 105.133 130.94C105.083 130.924 105.386 130.895 105.01 130.02C104.306 128.992 103.448 129.472 103.533 129.429C103.408 129.494 103.527 129.46 103.596 129.426C103.785 129.333 103.973 129.218 104.189 129.073C104.584 128.813 105.026 128.478 105.442 128.151C106.281 127.49 107.081 126.809 107.921 126.074C109.563 124.639 111.142 123.207 112.8 121.82C113.245 121.45 113.378 122.303 113.645 122.092C116.449 119.855 114.734 119.937 115.142 117.653C116.08 119.165 117.58 119.138 119.473 117.183C120.585 116.035 119.867 115.693 120.204 114.574C120.3 114.241 121.467 113.77 121.357 113.371C120.999 112.067 119.304 111.967 121.597 110.308C121.7 110.236 121.889 110.958 122.21 110.676C124.262 108.883 123.606 107.813 125.53 105.569C127.026 103.822 130.385 101.34 132.271 99.5121C133.643 100.886 135.028 98.766 134.738 97.1215C135.949 95.914 137.162 94.5134 138.438 93.4245C138.873 93.0528 139.018 93.7195 139.111 93.7096C140.539 93.5793 140.129 92.1141 140.351 91.8022C142.636 88.406 146.101 87.1973 148.329 84.0803C148.407 83.972 147.687 82.8192 149.148 82.9006C149.244 82.9098 148.656 84.1775 150.103 83.0636C151.568 81.9355 154.581 80.4284 156.184 78.3399C156.564 77.8418 157.076 76.028 158.562 75.9346C158.761 75.924 158.865 76.3356 159.182 76.3576C160.201 76.4206 159.659 75.1103 161.081 75.4569C162.515 75.794 164.529 75.2974 165.976 73.1351C166.023 73.0681 165.814 71.8568 166.431 71.3915C167.457 70.6181 169.015 69.6791 170.037 68.8694C170.526 68.481 169.798 68.1998 169.876 68.1233C172.94 65.2481 175.705 63.8578 179.486 61.2822C180.174 60.8152 181.493 58.6559 183.236 58.2397C185.124 57.8008 185.68 61.505 188.402 58.4672C189.558 57.2032 188.642 52.667 192.342 52.6143C196.587 48.7958 201.492 46.5925 205.741 42.6369C205.93 42.4607 205.908 41.0481 206.404 40.7172C207.173 40.206 207.894 40.3659 208.441 40.0262C210.717 38.6313 212.443 36.8697 214.677 35.4353C215.508 34.9016 215.544 35.5582 216.516 34.9378C217.472 34.3295 217.775 33.2314 219.265 32.6698C220.379 32.2566 222.289 32.8109 223.662 32.127C222.891 30.8449 223.876 30.2353 225.251 28.8852C225.523 28.6202 224.902 28.3997 225.021 28.2489C225.504 27.6209 226.303 27.6241 226.717 27.0171C226.819 26.8703 226.553 26.4343 226.62 26.2902C227.185 25.0427 229.44 24.9971 229.811 25.0049C231.32 24.9689 231.42 24.1322 232.421 23.8785C233.417 23.63 232.356 24.7015 233.424 24.2736C235.56 23.432 238.156 21.8381 240.209 20.7529C241.05 20.3047 240.155 20.0145 240.267 19.9365C241.889 18.8629 243.971 18.6293 244.374 16.9426C247.019 19.531 245.366 16.3743 247.752 15.254C247.947 15.1602 249.273 16.2175 248.747 16.9798C248.297 17.7117 246.456 18.318 245.684 19.0102C245.471 19.2023 244.759 21.2781 244.647 21.4438C243.506 22.844 242.188 20.7482 242.033 20.6731C240.442 19.8454 239.576 22.2329 239.179 22.5898C237.448 24.1662 235.561 24.8691 234.102 26.1854C233.101 27.0724 233.905 28.487 233.018 28.9708C230.153 30.5381 227.924 29.2678 226.392 32.5887C226.063 33.3012 227.581 34.4294 224.811 34.5673C224.645 34.5699 222.477 34.4638 222.034 35.7282C221.986 35.8827 222.276 36.3114 222.162 36.439C221.394 37.2872 220.537 37.3645 219.592 38.239C218.693 39.0827 217.63 40.1614 216.344 40.8301C215.601 41.2118 214.154 41.0388 213.679 41.0804C212.323 41.1913 211.956 42.8072 210.903 42.5388C209.837 42.2749 210.28 40.4283 208.409 41.0876C209.124 42.229 209.784 43.4523 210.469 44.6243C207.067 46.9591 203.444 49.0253 200.155 51.4993C199.744 51.8099 200.596 52.083 200.166 52.4318C198.324 53.9212 196.422 54.6824 194.568 56.3158C193.12 57.5935 192.008 59.3816 190.516 60.7464C188.612 60.2531 186.667 62.3794 184.851 63.5891C184.231 64.0007 184.03 63.6373 183.534 63.8475C181.671 64.649 183.228 65.17 182.929 65.6692C181.639 67.8112 179.548 65.5352 177.451 67.2541C177.339 67.3439 176.935 69.7343 176.801 69.9684C175.965 71.4625 176.245 69.6767 175.389 70.1901C173.797 71.1497 172.649 71.5499 171.279 73.2372C170.892 73.7225 170.32 75.4742 168.927 75.5661C168.742 75.5801 168.473 75.1018 168.356 75.1536C166.264 76.1326 167.269 77.5122 166.606 78.7752C165.936 80.0444 163.628 80.3805 163.111 80.36C161.741 80.3314 163.505 79.5655 163.495 79.4638C163.376 78.2484 162.365 79.2792 161.447 79.9034C160.274 78.7012 159.119 79.7555 160.497 80.5574C160.65 80.6433 161.226 79.9825 161.447 79.9034C161.716 81.7877 160.536 83.0018 158.065 83.0244C156.909 83.0338 157.034 81.8563 155.159 83.7643C154.306 84.6318 155.419 85.2112 154.793 86.1222C153.345 88.2163 150.206 89.3896 148.352 91.1286C147.68 91.7592 148.803 91.6534 148.359 92.1004C147.155 93.2667 145.78 93.9695 144.848 95.3323C144.763 95.4553 145.468 95.6687 145.131 96.0396C142.578 98.8644 139.935 101.066 137.051 104.11C135.669 105.57 133.467 108.434 131.969 109.91C129.395 112.454 125.641 115.014 123.66 117.421C122.379 118.975 123.146 119.126 122.879 120.054C122.343 121.872 119.17 122.908 118.715 123.03C118.71 123.023 119.791 121.684 118.909 122.108C118.035 121.997 118.726 123.013 118.715 123.03C118.406 123.126 115.896 125.484 115.475 126.087C115.26 126.403 115.852 126.692 115.732 126.848C114.278 128.717 112.754 130.5 111.016 132.245C110.11 133.134 109.382 133.898 107.844 135.03C107.573 135.218 107.366 135.371 106.847 135.654C106.5 135.832 106.126 136.047 105.271 136.263C104.691 136.379 102.782 136.895 100.511 135.389C98.1607 133.703 98.0049 131.424 98.0422 130.459C98.8443 126.259 98.8147 127.949 99.1978 127.041C99.7198 126.279 100.273 125.617 100.65 125.177C100.715 125.112 101.197 125.632 101.342 125.477C103.483 123.201 103.72 121.552 104.77 119.401C105.731 117.369 106.971 116.071 108.743 115.756C109.683 114.317 111.601 112.721 112.672 111.863C113.766 110.977 112.815 109.981 112.867 109.869C114.526 106.304 116.433 105.086 118.911 101.966C120.064 100.522 122.108 97.4003 123.158 95.6779C123.994 94.3077 124.809 93.7115 125.486 92.3947C125.578 92.2167 124.967 92.0324 124.983 91.9695C125.328 90.2158 126.09 91.7071 126.5 91.5812C127.991 91.1234 128.851 90.7866 129.659 88.7951C129.848 88.3342 128.863 85.9808 129.244 85.182C129.742 84.1458 130.144 84.9252 130.642 83.8286C130.685 83.7353 130.28 83.4944 130.696 82.8937C132.629 80.0913 134.822 77.0861 136.518 74.0514C136.754 73.6318 135.8 73.7919 136.127 73.1831C137.646 70.3555 139.292 67.3061 140.867 64.7128C141.251 64.0875 141.537 64.7194 141.744 64.6395C143.003 64.1521 142.318 62.2507 142.366 62.0556C143.779 57.1393 145.721 52.2 144.494 51.2396C144.342 51.0757 143.463 52.2937 144.239 51.2828C144.337 51.2427 144.711 49.9463 144.086 50.637C144.049 50.6823 144.125 51.4159 143.725 51.1895C143.249 50.9381 141.873 51.1331 140.316 50.4468C139.881 50.2296 138.995 48.9878 137.896 50.2121C137.794 50.289 136.445 52.934 135.334 51.6038C135.149 51.3878 134.818 49.6996 133.445 51.0359C133.192 51.2941 133.859 51.4711 133.132 51.9577C132.02 52.7069 130.204 52.9047 128.944 54.2427C128.724 54.4769 128.045 56.0061 126.773 55.6221C126.575 55.5616 126.62 54.924 126.107 55.0845C123.653 55.8539 121.367 57.3862 118.813 58.2444C117.908 58.5511 117.92 57.5221 116.931 57.7549C115.936 57.9906 114.043 58.7147 113.315 59.572C112.583 60.431 114.269 61.1791 112.949 62.0133C107.227 65.6525 100.647 68.2539 94.7514 71.4015C93.8756 71.8786 94.8428 71.9225 93.585 72.6573C88.9731 75.3177 81.4503 80.7272 77.0045 82.5311C73.4185 83.9723 76.9096 80.6878 74.3412 82.0625C73.1025 82.7311 72.8766 84.9839 72.6389 85.224C70.3316 87.5833 68.0638 88.372 65.8887 90.3666C65.4414 90.7786 66.3332 90.9477 65.9463 91.2941C64.6286 92.4832 62.9967 93.4055 61.7254 94.5216C61.1575 95.0228 61.6006 95.3347 61.0372 95.7487C59.691 96.7473 58.4295 97.5242 56.8695 98.2159C56.7273 98.279 57.0666 97.1318 56.1098 97.9207C54.569 99.1944 52.3602 100.488 50.9722 102.405C50.5634 102.974 51.3403 103.879 49.6931 104.259C49.3492 104.34 48.6715 103.014 48.2401 105.088C48.1585 105.44 47.179 108.618 45.4072 108.808C44.9395 108.858 43.4425 108.655 42.962 109.365C42.9005 109.464 43.6692 109.619 43.2128 110.138C41.6035 111.954 39.7231 113.673 38.0801 115.56C37.6435 116.063 38.815 115.846 38.1495 116.582C36.3113 118.615 33.7667 120.901 31.7235 122.649C30.9645 123.297 31.0625 122.422 30.969 122.431C29.4575 122.565 29.9038 123.978 29.687 124.303C28.3109 126.33 26.5888 127.185 25.1318 128.875C24.7272 129.342 25.4789 129.475 25.4317 129.602C24.9195 130.886 24.7928 129.422 24.1377 129.902C22.2098 131.318 20.9187 132.756 18.7254 134.922C17.6781 135.852 19.3658 135.394 18.3755 136.22C16.9552 137.361 15.3514 138.388 13.1392 139.122C11.9987 139.472 10.8175 139.814 8.78887 139.742C7.76052 139.658 6.49534 139.636 4.42214 138.445C2.28591 137.461 -0.154277 133.09 0.452044 130.309C1.05858 127.009 1.46676 127.383 1.57507 126.985C1.75328 126.665 1.92065 126.382 2.09983 126.086C2.47496 125.466 2.82537 124.925 3.13296 124.469C3.79691 123.477 4.41432 122.62 5.07645 121.725C5.55884 121.081 5.77343 121.803 5.96906 121.728C7.33476 121.205 7.17612 119.11 7.26374 118.738C7.71721 116.952 8.49075 116.616 9.1801 115.255C12.6038 108.531 17.1446 100.511 20.2416 94.1679C24.2822 85.9027 27.3828 79.3736 29.9995 70.9917C30.1652 70.4578 29.2833 70.763 29.4163 70.3004C31.2774 64.3449 32.4763 58.8141 35.0699 51.5956C35.2712 51.0415 34.3043 51.5645 34.6028 50.6817C35.21 48.8735 36.2164 46.6996 37.2137 45.1207C37.7013 44.345 37.7256 45.7047 38.205 44.9227C39.3194 43.1149 40.3737 41.1468 41.2611 39.216C41.6379 38.3941 40.3636 39.2638 40.9053 38.2203C44.5776 31.117 48.4308 24.5002 52.5579 18.3409C52.8383 17.9177 54.348 18.1787 54.5518 17.0806C54.2168 16.8364 53.7808 16.6389 53.4008 16.4247C54.4165 14.1146 55.3252 11.699 55.5652 10.2669C55.722 9.57466 55.4531 9.34282 55.8791 10.3092C56.0081 10.6725 56.9355 11.6392 57.331 11.742C58.177 11.9194 55.5658 11.4928 59.009 11.8622C61.4531 11.4339 59.4833 11.7626 58.7629 12.3731C57.8156 12.9747 56.7192 13.7608 55.5715 14.5837C53.2864 16.2221 51.0184 17.862 48.7608 19.5415C48.3793 19.8255 49.5043 19.9493 48.7667 20.5038C44.5265 23.6939 40.5772 26.9921 35.8655 29.7316C35.3989 30.0048 34.765 28.7615 33.6555 29.9081C33.4598 30.1106 31.716 31.7411 31.4273 32.3579C31.3909 32.445 32.1272 32.6695 31.5464 33.1635C28.1571 36.0335 24.5227 38.8809 21.0032 41.4959C20.4365 41.9159 20.5417 40.911 20.1343 41.2062C17.2388 43.3142 14.7917 46.3429 12.1689 48.2899C10.4041 49.6226 10.0652 48.2506 8.42659 48.3968C8.18983 48.4183 7.32922 49.4643 6.74493 49.1323C5.27112 48.2774 4.24706 46.5654 2.63098 45.7121C2.26245 45.534 1.31011 47.5876 1.30965 45.969C1.30814 45.8504 2.04536 44.3612 2.0553 43.8557C2.06285 43.4974 1.20497 43.4673 1.3595 42.8329C1.49512 42.2248 2.3529 42.0956 2.69564 41.2099C3.0471 40.3167 2.21589 40.0574 3.37814 38.6828ZM117.621 107.78C118.931 107.135 117.14 105.537 116.744 107.006C116.727 107.078 117.555 107.814 117.621 107.78ZM202.456 47.5264C200.467 47.6597 200.412 49.6197 201.875 49.5649C203.331 49.5148 203.058 47.4866 202.456 47.5264ZM216.302 36.8706C214.196 37.2978 215.851 40.2768 217.216 38.5166C217.295 38.4158 216.424 36.8461 216.302 36.8706ZM11.9647 44.0575C11.9267 44.0491 11.1873 44.7592 11.1963 44.7969C11.3658 45.711 12.8284 44.3047 11.9647 44.0575ZM230.348 26.7247C229.606 26.6422 228.359 28.0462 229.32 28.1187C230.099 28.172 231.279 26.8209 230.348 26.7247ZM150.785 50.93C150.822 50.9019 150.711 50.1742 150.514 50.2393C149.902 50.4287 150.244 51.3337 150.785 50.93ZM255.044 10.7056C251.594 13.0702 247.682 13.0227 251.644 10.0041C252.369 9.48241 250.745 11.918 251.772 11.386C253.597 10.4584 253.707 8.20104 256.022 7.88246C256.41 7.83461 255.218 10.5737 255.04 10.7132C255.041 10.7107 255.042 10.7081 255.044 10.7056ZM120.366 108.917C120.411 108.91 121.055 108.108 121.044 108.07C120.774 107.168 119.472 108.789 120.366 108.917ZM112.338 52.9139C112.255 52.8792 110.09 53.9468 110.048 54.0407C109.517 55.7247 113.887 53.5736 112.338 52.9139ZM132.337 99.5176C132.554 98.1724 133.421 97.1204 134.734 97.1246C133.931 97.904 133.144 98.7295 132.337 99.5176Z" fill="white"/>
</svg>
