<svg width="209" height="124" viewBox="0 0 209 124" fill="none" xmlns="http://www.w3.org/2000/svg">
<path d="M1.28195 113.478C2.79207 110.741 5.19928 107.337 7.15591 104.82C7.76976 104.028 7.85567 104.685 8.2947 104.15C9.15609 103.1 9.65599 101.926 10.5351 100.915C10.8288 100.58 11.0995 101.404 11.3947 101.044C13.0139 99.063 14.171 96.9536 15.7036 94.874C23.2665 84.6353 30.6467 74.5013 39.4595 64.7803C42.3789 61.58 46.2418 58.3053 48.9911 54.8869C49.3088 54.4922 48.6701 54.3171 48.6991 54.2134C49.1666 52.5995 49.6946 53.786 50.4892 53.1522C53.603 50.6762 56.5828 47.5243 58.9948 44.5928C60.01 43.3553 58.0661 43.7265 59.6342 43.0055C59.7426 42.9542 59.9243 43.678 60.2734 43.4008C61.0818 42.7523 62.2625 41.3227 62.8418 40.7759C63.9458 39.74 64.0861 39.5812 65.0666 38.5467C66.4098 37.1378 68.188 35.7047 69.5172 34.0947C69.7992 33.7501 68.9297 33.7347 69.336 33.147C69.7379 32.564 71.0677 31.2429 71.6082 30.8949C72.1482 30.5472 72.3299 31.088 72.4896 31.0879C73.8223 31.1032 74.3318 28.6135 74.5052 28.3844C77.6074 24.3201 81.1522 21.7658 84.484 18.3468C86.9985 15.764 89.5123 12.8424 91.9276 10.4241C94.9017 7.67784 96.935 4.82066 101.381 2.33561C101.838 2.09157 100.941 1.70172 101.524 1.39971C103.291 0.737049 103.923 -0.536442 108.354 0.259692C109.385 0.503536 111.356 1.71493 112.195 3.44797C112.968 4.97266 113.041 6.11922 113.073 7.18319C112.999 11.1453 111.765 13.7287 110.585 16.3565C110.333 16.8887 109.97 15.9631 109.688 16.4582C107.979 19.5168 104.581 23.6907 106.29 26.7668C105.207 28.7518 103.855 31.1782 102.415 32.7122C101.48 33.7137 101.423 32.2478 100.966 33.8045C100.862 34.1557 101.639 34.0297 101.439 34.5358C100.589 36.6795 99.261 38.7614 98.4926 40.9098C98.34 41.343 98.8984 41.4988 98.9281 41.6605C99.1498 43.0066 97.0912 43.969 96.8198 44.2677C94.751 46.5797 93.9836 48.6351 92.6569 51.0955C92.3499 51.6644 93.3801 51.3461 93.1089 51.9063C91.6909 54.812 90.0789 57.7336 88.3349 60.3749C87.9458 60.9609 87.6645 60.0929 87.449 60.3581C86.5069 61.5311 87.4454 62.3838 86.57 63.5214C86.3869 63.7622 85.9676 63.3628 85.8885 63.3838C84.6482 63.7141 85.5241 64.989 85.453 65.1974C84.5694 67.8599 82.5544 68.796 81.6689 71.304C81.5667 71.6016 82.4908 71.2376 82.167 72.0531C79.9966 77.538 77.7778 83.3423 75.7283 88.8596C75.4097 89.7239 75.0675 88.9569 74.9899 88.9958C73.7661 89.6528 74.9393 90.5778 74.9169 90.8802C74.7138 93.2287 73.1388 95.1684 74.4341 97.0288C73.2385 101.814 72.6793 106.771 72.6325 111.52C72.6276 112.718 72.6477 113.884 72.7599 114.935C72.7719 115.099 72.9532 115.152 72.6485 114.624C72.3785 114.061 71.0902 113.767 71.0438 113.868C70.721 113.972 71.3147 113.797 71.6519 113.582C73.3585 112.563 75.3711 110.814 77.2922 109.33C77.3934 109.247 77.7192 109.878 77.9202 109.711C80.2594 107.768 79.1093 107.458 79.505 105.123C79.619 104.519 81.7723 104.413 81.952 104.379C82.5952 104.279 82.9971 105.33 83.1689 105.257C84.5766 104.618 81.9366 102.627 83.1663 101.221C83.2092 101.18 83.5036 101.766 83.6529 101.687C84.1172 101.443 84.2669 100.905 84.7278 100.694C85.7957 100.203 87.2832 100.935 87.6641 99.0722C87.7111 98.8331 86.0803 97.8589 87.2453 96.6493C87.7205 96.157 89.6175 93.9189 90.2606 93.3643C90.8895 92.825 90.9754 93.6452 91.0334 93.6182C93.0902 92.4679 92.7893 93.3176 94.4156 93.2481C96.0367 93.179 93.7174 91.5721 93.7814 91.0235C93.8443 90.4771 95.4217 89.6772 95.8611 89.525C96.2963 89.3771 96.2549 90.0034 96.5863 89.8231C98.7787 88.6178 96.2286 88.1257 96.4128 87.2461C96.8552 85.1595 99.357 85.4827 100.641 84.3673C100.987 84.0671 100.386 84.0243 100.626 83.6941C101.581 82.39 102.713 82.1134 103.522 80.3666C103.653 80.0814 103.752 78.1421 105.083 78.0707C105.272 78.0627 105.384 78.699 105.94 78.2799C106.772 77.6541 108.129 76.4039 108.778 75.4934C109.255 74.8222 107.992 74.8909 108.9 74.3449C109.304 74.1039 109.069 75.0538 109.796 74.5739C110.516 74.0988 112.052 72.5406 112.626 71.9599C113.208 71.3692 112.432 71.2204 112.45 71.1426C112.568 70.6768 113.506 69.3466 113.609 69.2522C118.725 64.3039 124.524 60.8739 130.261 56.9674C130.721 56.659 130.056 56.2619 130.123 56.2086C131.66 54.9863 131.251 57.3065 132.673 57.2261C131.87 56.0955 132.621 55.9067 133.928 55.2477C134.584 54.9418 134.059 54.5592 134.103 54.485C134.996 53.2953 136.72 54.4218 136.949 54.8477C137.523 56.0245 138.333 55.5713 138.428 56.355C138.407 57.0744 137.241 56.9683 138.059 57.8398C138.67 57.7973 138.889 56.0298 139.822 56.8333C143.997 60.7271 140.725 68.5432 139.673 71.0111C138.574 73.7437 138.25 74.6062 137.395 76.0902C135.827 78.7106 137.159 78.1125 136.72 80.0141C136.259 81.9246 134.562 80.0191 133.986 80.0337C133.414 80.0383 133.75 80.5322 133.351 80.6978C132.952 80.8617 132.969 80.0732 132.523 80.7098C132.081 81.3438 131.901 83.6248 132.24 84.1161C132.962 85.1567 134.458 84.8729 133.12 86.4869C133.042 86.5789 132.675 85.9477 132.406 86.3146C130.287 89.2405 128.471 92.4612 126.45 95.4191C126.169 95.8298 125.759 95.1183 125.589 95.3542C123.836 97.7914 125.349 97.4067 125.808 99.4037C124.421 98.323 123.054 98.6512 122.093 100.742C121.527 101.994 122.316 102.082 122.466 103.098C122.513 103.4 121.683 104.091 121.951 104.388C122.845 105.328 124.329 104.937 123.155 106.811C123.103 106.895 122.587 106.424 122.45 106.73C121.615 108.656 122.611 109.662 122.632 111.375C122.622 111.447 122.777 111.597 122.493 110.92C122.586 110.632 120.646 109.349 119.968 109.765C119.549 109.887 119.446 110.017 119.433 110.037C119.496 110.076 120.063 109.574 120.462 109.181C121.415 108.206 122.293 107.217 122.911 106.346C124.535 107.414 125.246 105.409 124.525 103.998C125.341 102.735 126.007 101.436 126.854 100.332C127.138 99.9638 127.475 100.506 127.556 100.486C128.829 100.18 128.013 98.9821 128.123 98.6842C129.323 95.5665 131.536 93.6246 132.23 90.4009C132.254 90.2853 131.164 89.4727 132.441 89.2034C132.527 89.1875 132.546 90.4135 133.324 89.1156C134.103 87.8147 136.109 85.6976 136.571 83.59C136.684 83.0802 136.358 81.4211 137.604 80.9475C137.771 80.8861 138.036 81.2045 138.319 81.1391C139.226 80.923 138.208 79.9537 139.583 79.8694C140.959 79.7847 142.476 78.8558 142.816 76.6402C142.829 76.5708 142.136 75.6051 142.478 75.0388C143.025 74.1352 143.964 72.9487 144.507 71.9929C144.767 71.5351 144.018 71.4919 144.053 71.4065C145.504 68.1446 147.299 66.2588 149.476 63.1475C149.884 62.5648 150.127 60.4051 151.464 59.6215C152.923 58.7777 154.917 61.779 156.03 58.5537C156.509 57.2204 153.924 53.5123 157.123 52.6414C159.382 48.3951 162.758 45.4751 165.552 41.6608C165.679 41.49 165.446 40.1172 165.84 39.8137C166.506 39.298 167.153 39.5167 167.588 39.2822C169.611 38.337 171.194 36.9185 173.097 35.8923C173.816 35.5029 173.859 36.1312 174.719 35.6606C175.582 35.1854 175.762 34.2151 177.081 33.8313C178.08 33.5414 179.737 34.3001 180.971 33.7257C180.21 32.4368 181.012 31.9702 182.151 30.7474C182.372 30.5099 181.804 30.2615 181.893 30.127C182.247 29.5715 182.945 29.6225 183.253 29.0607C183.327 28.9252 183.045 28.4995 183.088 28.3654C183.455 27.2075 185.386 27.2462 185.729 27.243C187.013 27.252 187.018 26.4194 187.834 26.1763C188.647 25.9309 187.924 26.9562 188.782 26.5262C190.564 25.6302 192.459 23.9393 193.906 22.5409C194.483 21.9776 193.609 21.8836 193.68 21.792C194.763 20.5362 196.047 19.6972 196.073 18.1307C199.011 20.3927 196.689 17.1597 199.293 16.8121C199.497 16.7953 200.261 18.274 199.764 18.7357C199.283 19.1919 198.181 19.1557 197.695 19.9574C197.405 20.2846 198.314 21.4697 198.133 21.8829C197.651 23.6175 195.61 22.1095 195.473 22.0672C193.814 21.7017 193.805 24.0249 193.541 24.4163C192.386 26.1836 190.823 26.9892 189.724 28.3097C189.003 29.1665 189.882 30.5348 189.141 31.0163C186.681 32.5908 184.607 31.2486 183.44 34.3652C183.182 35.0305 184.63 36.2201 182.126 36.1572C181.968 36.1542 179.992 35.8867 179.668 37.0319C179.627 37.1767 179.9 37.6163 179.798 37.7301C179.101 38.4858 178.33 38.4692 177.513 39.1853C176.695 39.9019 175.733 40.806 174.59 41.2605C173.899 41.5372 172.613 41.1584 172.197 41.1222C171.015 41.0093 170.672 42.4773 169.738 42.0532C168.821 41.6319 169.089 39.9558 167.622 40.2818C168.294 41.4536 168.949 42.6857 169.64 43.8609C167.778 45.2717 165.406 47.4571 163.466 50.1437C163.22 50.4888 164.059 50.5722 163.81 50.9542C162.807 52.505 161.42 53.5901 160.494 55.3307C159.753 56.7204 159.501 58.5059 158.779 59.9955C156.952 59.9924 156.101 62.3301 155.079 63.7337C154.719 64.2286 154.389 63.9802 154.047 64.2839C152.763 65.4423 154.329 65.485 154.277 65.9846C154.052 68.1292 151.339 66.6655 150.222 68.7042C150.16 68.8158 150.824 70.9242 150.809 71.1527C150.728 72.6119 150.208 71.0498 149.692 71.6939C148.749 72.8733 147.89 73.5755 147.434 75.3344C147.303 75.8488 147.583 77.419 146.404 77.8912C146.25 77.9535 145.814 77.6225 145.734 77.6983C144.332 79.0936 145.792 79.9764 145.761 81.2049C145.725 82.4409 143.877 83.3278 143.415 83.459C142.213 83.8077 143.423 82.6791 143.372 82.5941C142.758 81.5955 142.31 82.7523 141.779 83.5225C140.256 82.8214 139.696 84.0281 141.228 84.3363C141.396 84.3689 141.622 83.6472 141.779 83.5225C142.804 85.0463 142.277 86.4176 140.17 87.0492C139.184 87.3426 138.79 86.3305 137.949 88.4676C137.569 89.4333 138.767 89.6472 138.603 90.5861C138.213 92.7574 135.959 94.5992 135.058 96.5541C134.736 97.2558 135.651 96.91 135.45 97.3988C134.921 98.6924 133.861 99.6127 133.398 100.922C133.352 101.048 134.087 101.09 133.867 101.494C132.242 104.504 130.449 106.805 128.502 109.913C128.049 110.631 127.423 111.784 126.745 112.884C126.303 113.569 126.085 113.951 125.42 114.76C125.092 115.142 124.935 115.349 124.337 115.869C123.31 116.31 124.202 117.652 119.076 117.164C114.628 115.349 115.439 113.318 115.102 112.596C114.972 111.674 115.035 111.181 115.061 110.88C115.124 110.245 115.283 109.456 115.39 109.121C115.629 108.291 115.953 107.314 116.29 106.46C116.976 104.701 117.822 102.972 118.224 101.674C118.784 99.9313 118.03 100.051 117.932 99.1569C117.761 97.3851 120.299 95.7603 120.669 95.5678C120.679 95.5636 120.157 96.9708 120.813 96.4072C121.649 96.3065 120.664 95.5849 120.669 95.5678C120.909 95.4242 122.401 92.8479 122.562 92.2837C122.649 91.9707 122.014 91.8361 122.07 91.678C123.424 87.9226 125.174 84.4513 127.24 81.1853C127.283 81.1314 127.852 81.5495 127.945 81.4184C129.27 79.5819 129.156 77.9367 129.5 76.0954C129.832 74.2753 130.56 73.0973 132.075 72.6294C132.467 71.3747 133.654 69.8205 134.29 68.9516C134.945 68.0352 133.67 67.51 133.672 67.4192C133.605 64.6534 134.584 63.2773 134.466 61.859C134.452 61.5647 134.209 61.2513 134.291 61.4191C134.797 61.5421 131.89 60.7726 135.832 61.72C137.265 61.678 135.811 61.5763 135.239 62.1858C135.139 62.269 135.535 62.7451 135.512 62.7836C134.938 63.9192 134.65 62.3958 134.317 62.2782C133.069 61.8914 132.265 61.777 131.093 63.0884C130.824 63.3896 131.047 65.8024 130.56 66.298C129.909 66.9508 129.75 66.1235 129.08 66.8424C129.024 66.9027 129.302 67.2815 128.837 67.6033C126.661 69.1227 124.273 70.7622 122.121 72.7609C121.833 73.0261 122.706 73.2461 122.3 73.6382C120.382 75.4918 118.236 77.519 116.114 79.1497C115.588 79.5515 115.507 78.8911 115.296 78.8824C114.009 78.8409 114.118 80.6842 113.994 80.8489C111.066 84.8025 107.61 86.7291 104.674 90.8802C104.516 91.107 104.204 93.6576 102.638 93.5324C102.532 93.5262 100.954 93.3696 101.063 94.5759C101.07 94.651 101.954 94.6478 101.228 95.3721C100.5 96.0975 99.7625 97.6121 98.2849 98.2019C97.8171 98.3902 96.1737 98.3251 96.0614 100.015C96.0524 100.134 96.4752 103.175 94.7731 102.704C94.4971 102.622 93.2972 101.43 92.9114 103.196C92.8404 103.534 93.4832 103.367 93.1408 104.121C92.5998 105.298 91.2133 106.205 90.7502 107.877C90.6687 108.173 90.8073 109.754 89.5349 109.882C89.3363 109.901 89.0964 109.322 88.7248 109.647C86.9899 111.154 85.6105 113.258 83.7128 114.704C83.0029 115.255 82.6499 114.305 81.8566 114.779C81.0773 115.24 79.6729 116.319 79.1687 117.351C78.7003 118.345 80.5436 118.646 79.4176 119.797C78.7269 120.474 78.0468 121.094 77.0283 121.804C75.8125 122.312 75.7061 124.034 69.7421 123.669C65.8499 123.217 63.2493 118.87 63.1705 117.764C62.8364 116.466 62.8487 115.761 62.8166 115.41C62.7604 114.522 62.7503 113.596 62.7715 112.696C62.87 109.329 63.3487 106.239 63.7588 103.17C63.8842 102.267 63.2744 102.954 63.4361 101.606C63.9829 96.6427 65.3561 88.1847 67.6368 84.402C69.4309 81.4013 68.8822 85.6694 69.9554 83.3033C70.4701 82.1787 69.2728 80.385 69.3157 80.0819C69.7193 77.1003 71.1199 75.4213 71.8639 72.8673C72.0202 72.3367 71.1866 72.5891 71.3266 72.1426C71.8022 70.6102 72.7303 69.1738 73.2978 67.738C73.5522 67.0919 73.0235 66.9959 73.3242 66.422C74.0404 65.0478 74.8119 63.9237 75.8853 62.8449C75.9831 62.747 76.1758 63.8292 76.6794 62.8587C77.4891 61.3079 78.8813 59.6257 79.3515 57.616C79.4893 57.0192 78.4369 56.4527 79.7555 55.6968C80.0317 55.5381 81.1474 56.4995 80.7307 54.6133C80.6624 54.2968 80.3304 51.3206 81.8516 50.7445C82.252 50.5921 83.6713 50.4152 83.8381 49.7048C83.8568 49.6063 83.1103 49.6461 83.3285 49.0992C84.1097 47.1731 85.185 45.2968 85.9998 43.3395C86.2174 42.814 85.2355 43.2458 85.5782 42.4733C86.5157 40.3565 88.0235 37.8869 89.254 36.007C89.7081 35.3157 89.9279 36.0756 90.0084 36.0513C91.3262 35.642 90.4306 34.5238 90.512 34.2051C91.0321 32.234 92.2856 31.1688 92.9805 29.4683C93.1721 29.0025 92.4522 29.0315 92.4484 28.9172C92.4359 27.75 93.0801 28.956 93.4946 28.4208C94.6576 26.924 95.52 25.1045 96.2701 23.3933C96.5406 22.772 95.5549 23.1341 95.8029 22.5837C97.2579 19.3137 98.8581 16.0128 100.369 13.1588C100.648 12.6363 101.041 13.1794 101.205 13.1053C102.367 12.5576 101.595 11.0002 101.556 10.7219C101.391 9.4398 101.98 9.09684 102.025 8.31894C102.475 7.50696 100.121 6.20581 103.713 10.4037C104.665 11.0765 104.702 10.8855 105.288 11.0917C107.154 11.4484 107.014 11.1823 107.146 11.2096C107.231 11.1833 106.786 11.31 106.419 11.4872C105.487 11.9939 105.478 11.7861 104.177 13.1008C102.94 14.3155 101.734 15.472 100.625 16.5356C94.8611 22.0587 90.1888 26.0414 85.0586 31.5639C84.7272 31.9194 85.6025 32.0832 85.3241 32.3959C81.7757 36.3371 77.9314 39.9523 74.4266 43.9872C74.1429 44.3122 75.083 44.3425 74.6439 44.8817C73.7419 45.9965 72.4619 47.3047 71.2979 48.2199C70.7278 48.6707 70.9448 47.5525 70.3789 48.0159C69.0822 49.0709 67.812 50.3607 66.7412 51.68C66.2811 52.2485 67.5595 51.9316 66.9192 52.6336C62.5777 57.4177 58.384 62.1737 53.3057 66.3746C52.9512 66.6695 51.6059 65.9702 51.179 66.8594C51.4326 67.1854 51.7899 67.5038 52.0913 67.8188C45.8759 74.884 40.1185 81.4378 34.6324 89.0042C34.4036 89.3206 35.4269 89.2212 34.9884 89.8351C32.4508 93.3947 30.2378 97.0362 27.108 100.379C26.7983 100.712 25.7841 99.7649 25.2306 100.986C25.1313 101.205 24.1979 102.969 24.164 103.568C24.1635 103.651 24.8964 103.693 24.5625 104.242C22.614 107.428 20.3873 110.663 18.0497 113.63C17.6719 114.108 17.444 113.197 17.1673 113.538C15.2241 115.936 13.8691 119.05 11.7403 121.215C10.3088 122.666 9.72634 121.404 8.18096 121.658C7.96495 121.691 7.2679 122.704 6.6712 122.386C5.17237 121.587 3.9528 120.074 2.31614 119.282C1.96091 119.117 1.44055 120.652 1.17317 119.362C1.15316 119.28 1.54289 118.127 1.42496 117.725C1.34832 117.44 0.583071 117.36 0.566379 116.872C0.548317 116.386 1.28247 116.31 1.36273 115.577C1.44249 114.837 0.641864 114.645 1.28195 113.478ZM136.856 64.8445C137.637 63.9944 135.266 63.6359 135.712 64.6079C135.735 64.6564 136.817 64.8875 136.856 64.8445ZM164.078 46.3354C162.37 46.7531 163.047 48.4314 164.253 48.2093C165.492 47.9513 164.584 46.2267 164.078 46.3354ZM174.542 37.4809C172.692 37.596 174.156 40.6682 175.364 39.1723C175.434 39.0865 174.651 37.4731 174.542 37.4809ZM10.541 117.389C10.5068 117.384 10.0105 118.103 10.0239 118.14C10.4119 118.945 11.4085 117.499 10.541 117.389ZM186.439 28.8832C185.754 28.8117 184.83 30.0995 185.685 30.1998C186.38 30.2784 187.303 28.9669 186.439 28.8832ZM101.537 85.1173C101.5 85.1054 101.054 85.5501 101.213 85.6758C101.723 86.0786 102.171 85.3099 101.537 85.1173ZM206.549 16.3691C203.016 16.8169 200.113 14.6595 204.228 14.1179C204.965 14.0349 202.844 15.3008 203.808 15.3669C205.547 15.4936 206.381 13.586 208.232 14.2687C208.558 14.394 206.752 16.3459 206.543 16.374C206.545 16.3724 206.547 16.3708 206.549 16.3691ZM139.782 64.6638C139.821 64.6449 139.931 63.7979 139.897 63.7661C139.177 63.2659 138.966 64.919 139.782 64.6638ZM76.1635 111.427C76.0802 111.424 74.6279 112.737 74.615 112.822C74.6973 114.458 77.7297 111.731 76.1635 111.427ZM122.973 106.344C122.84 105.115 123.303 104.172 124.522 104.001C123.99 104.794 123.526 105.546 122.973 106.344Z" fill="white"/>
</svg>
