<svg width="143" height="34" viewBox="0 0 143 34" fill="none" xmlns="http://www.w3.org/2000/svg">
<path d="M17.9723 12.6125C17.9723 13.4551 17.7578 14.2595 17.3288 15.0256C16.9151 15.7917 16.3482 16.4658 15.6281 17.0481C14.9233 17.615 14.0882 18.067 13.123 18.404C12.173 18.7411 11.1618 18.9096 10.0893 18.9096C9.70626 18.9096 9.39983 18.8637 9.17 18.7718C8.9555 18.6645 8.71035 18.4653 8.43456 18.1742C7.66848 19.8443 7.04029 21.3841 6.55 22.7937C6.07503 24.188 5.69965 25.5439 5.42386 26.8616C4.84164 26.7237 4.36667 26.4785 3.99895 26.1261C3.63123 25.7891 3.29415 25.3601 2.98772 24.8391C3.14094 24.548 3.3248 24.165 3.5393 23.69C3.7538 23.215 4.01427 22.6328 4.3207 21.9433C4.62713 21.2385 4.97953 20.4035 5.3779 19.4382C5.79158 18.4577 6.27421 17.3162 6.82579 16.0139C7.07094 15.4163 7.28544 14.8954 7.4693 14.4511C7.65316 14.0067 7.81404 13.593 7.95193 13.21C8.08982 12.8116 8.2124 12.4209 8.31965 12.0379C8.44222 11.6549 8.5648 11.2335 8.68737 10.7739C7.96725 11.0037 7.30076 11.2718 6.68789 11.5782C6.09035 11.8847 5.5924 12.2064 5.19404 12.5435C5.05614 12.4516 4.91059 12.3137 4.75737 12.1298C4.61947 11.946 4.48924 11.7468 4.36667 11.5323C4.24409 11.3025 4.13684 11.0726 4.04491 10.8428C3.95298 10.613 3.89936 10.4061 3.88404 10.2223C4.32836 9.91585 4.87994 9.6324 5.53877 9.37193C6.1976 9.11146 6.9024 8.8893 7.65316 8.70544C8.40392 8.50626 9.17766 8.35304 9.97439 8.24579C10.7864 8.13854 11.5602 8.08491 12.2956 8.08491C13.1689 8.08491 13.958 8.19982 14.6628 8.42965C15.3676 8.64415 15.9651 8.95058 16.4554 9.34895C16.9457 9.74731 17.3211 10.2223 17.5816 10.7739C17.842 11.3254 17.9723 11.9383 17.9723 12.6125ZM13.8814 9.85456C13.2992 9.85456 12.7016 9.90053 12.0888 9.99245L12.3646 10.4061C12.2113 10.6053 12.0198 10.9041 11.79 11.3025C11.5602 11.7008 11.3074 12.1834 11.0316 12.7503C10.7558 13.3019 10.4494 13.9225 10.1123 14.6119C9.79053 15.3014 9.44579 16.0292 9.07807 16.7953C10.2732 16.7953 11.361 16.688 12.3416 16.4735C13.3222 16.2437 14.1572 15.9373 14.8467 15.5542C15.5515 15.1558 16.0954 14.6962 16.4784 14.1753C16.8768 13.6543 17.076 13.0951 17.076 12.4975C17.076 11.7008 16.8078 11.065 16.2716 10.59C15.7353 10.0997 14.9386 9.85456 13.8814 9.85456ZM22.9343 24.4944C22.6432 24.2492 22.444 23.9428 22.3368 23.5751C22.2449 23.2074 22.1989 22.8933 22.1989 22.6328C22.1989 22.3111 22.2372 22.0353 22.3138 21.8054C22.2525 21.8054 22.1146 21.928 21.9001 22.1732C21.6856 22.4183 21.4481 22.7094 21.1877 23.0465C20.9425 23.3836 20.6974 23.713 20.4522 24.0347C20.2071 24.3565 20.0232 24.594 19.9007 24.7472C19.7015 24.9617 19.51 25.1302 19.3261 25.2528C19.1576 25.3754 19.0197 25.4443 18.9124 25.4596C18.6673 25.4443 18.4068 25.3907 18.131 25.2988C17.8705 25.2222 17.6177 25.1073 17.3726 24.954C17.1428 24.8008 16.9359 24.617 16.7521 24.4025C16.5835 24.188 16.4686 23.9428 16.4073 23.667C16.4073 23.238 16.415 22.8856 16.4303 22.6098C16.4609 22.334 16.5146 22.0353 16.5912 21.7135C16.7291 21.1313 16.9283 20.4725 17.1887 19.737C17.4645 19.0016 17.7786 18.2815 18.131 17.5767C18.4834 16.8565 18.8741 16.1901 19.3031 15.5772C19.7474 14.949 20.2147 14.4587 20.705 14.1063C20.8429 14.1063 21.0038 14.1216 21.1877 14.1523C21.3715 14.1676 21.5554 14.2059 21.7392 14.2672C21.9384 14.3285 22.1223 14.4051 22.2908 14.497C22.4747 14.5736 22.6279 14.6809 22.7505 14.8188C22.6126 14.972 22.2602 15.4853 21.6933 16.3586C21.1417 17.2319 20.5212 18.4883 19.8317 20.1277C19.7551 20.2963 19.6632 20.5414 19.5559 20.8632C19.4487 21.1849 19.3414 21.522 19.2342 21.8744C19.1269 22.2268 19.035 22.5715 18.9584 22.9086C18.8971 23.2457 18.8664 23.5138 18.8664 23.713C18.8664 23.8356 18.8818 23.9275 18.9124 23.9888C18.9584 24.0501 18.9967 24.096 19.0273 24.1267C19.2571 24.0347 19.5483 23.7819 19.9007 23.3682C20.2531 22.9546 20.7433 22.3187 21.3715 21.4607C21.5247 21.2462 21.7009 21.0011 21.9001 20.7253C22.1146 20.4495 22.3291 20.1584 22.5436 19.8519C22.7581 19.5302 22.9573 19.2008 23.1412 18.8637C23.3404 18.5266 23.5012 18.1895 23.6238 17.8525C23.6851 17.6686 23.7617 17.4541 23.8536 17.2089C23.9609 16.9485 24.0835 16.6804 24.2214 16.4046C24.3746 16.1288 24.5431 15.853 24.727 15.5772C24.9262 15.2861 25.156 15.018 25.4164 14.7728C25.6156 14.7728 25.8301 14.7958 26.06 14.8418C26.2898 14.8877 26.5043 14.949 26.7035 15.0256C26.918 15.0869 27.1018 15.1635 27.255 15.2554C27.4083 15.332 27.5232 15.4163 27.5998 15.5082C27.324 16.1824 27.0176 16.8489 26.6805 17.5077C26.3434 18.1665 26.0293 18.8177 25.7382 19.4612C25.4471 20.0894 25.2019 20.7176 25.0028 21.3458C24.8036 21.974 24.704 22.5868 24.704 23.1844C24.704 23.5061 24.727 23.7896 24.7729 24.0347C24.8342 24.2646 24.8955 24.4637 24.9568 24.6323C25.0181 24.7855 25.0717 24.9157 25.1177 25.023C25.179 25.1302 25.2096 25.2222 25.2096 25.2988C25.2096 25.3141 25.1943 25.3371 25.1636 25.3677C25.1483 25.383 25.133 25.3907 25.1177 25.3907C25.0104 25.3907 24.8725 25.3677 24.704 25.3218C24.5354 25.2758 24.3439 25.2068 24.1294 25.1149C23.9302 25.0383 23.7234 24.9464 23.5089 24.8391C23.3097 24.7319 23.1182 24.617 22.9343 24.4944ZM27.4881 24.5404C27.5647 24.096 27.6949 23.5138 27.8788 22.7937C28.078 22.0582 28.3078 21.2845 28.5683 20.4725C28.8287 19.6451 29.1045 18.8177 29.3956 17.9904C29.6867 17.163 29.9702 16.4199 30.246 15.7611C30.4452 15.2861 30.6214 14.9184 30.7746 14.6579C30.9278 14.3821 31.0963 14.1523 31.2802 13.9684C31.4947 13.9991 31.7169 14.0527 31.9467 14.1293C32.1765 14.2059 32.3987 14.2978 32.6132 14.4051C32.8277 14.5123 33.0192 14.6273 33.1877 14.7498C33.3563 14.8571 33.4865 14.9643 33.5784 15.0716C33.1648 15.5619 32.797 16.1211 32.4753 16.7493C32.1689 17.3775 31.8548 18.1819 31.533 19.1625C32.3604 18.427 33.0882 17.7222 33.7163 17.0481C34.3598 16.3739 34.9574 15.6232 35.509 14.7958C35.6009 14.7192 35.7618 14.6809 35.9916 14.6809C36.2061 14.6809 36.4129 14.7192 36.6121 14.7958C36.8113 14.8571 36.9492 14.949 37.0258 15.0716C36.75 15.807 36.6121 16.5348 36.6121 17.2549C36.6121 17.9291 36.7117 18.4347 36.9109 18.7718C36.8956 18.8637 36.7883 19.0399 36.5891 19.3004C36.4053 19.5608 36.1984 19.806 35.9686 20.0358C35.5549 19.8213 35.1872 19.5302 34.8655 19.1625C34.5437 18.7794 34.3062 18.3657 34.153 17.9214C33.4329 18.427 32.82 18.925 32.3144 19.4153C31.8088 19.8902 31.3721 20.4265 31.0044 21.024C30.652 21.6063 30.3456 22.2804 30.0851 23.0465C29.84 23.8126 29.6025 24.7242 29.3727 25.7814C29.2348 25.7661 29.0662 25.7125 28.867 25.6205C28.6832 25.5439 28.4917 25.4443 28.2925 25.3218C28.1086 25.1992 27.9401 25.0689 27.7869 24.9311C27.6337 24.7932 27.5341 24.6629 27.4881 24.5404ZM45.5367 15.4853C45.4754 16.4352 45.3069 17.2549 45.0311 17.9444C44.7553 18.6185 44.3569 19.2161 43.836 19.737C43.3304 20.2426 42.7098 20.7023 41.9744 21.116C41.239 21.5296 40.381 21.928 39.4004 22.3111C39.4004 22.403 39.3927 22.5026 39.3774 22.6098C39.3774 22.7018 39.3774 22.8013 39.3774 22.9086C39.3774 23.1078 39.3927 23.3146 39.4234 23.5291C39.454 23.7436 39.5076 23.9428 39.5842 24.1267C39.6608 24.3105 39.7681 24.4637 39.906 24.5863C40.0439 24.6936 40.2201 24.7472 40.4346 24.7472C40.8483 24.7472 41.2543 24.6553 41.6526 24.4714C42.051 24.2875 42.4264 24.0654 42.7788 23.8049C43.1465 23.5291 43.4836 23.238 43.79 22.9316C44.1118 22.6098 44.3952 22.3187 44.6404 22.0582C44.7936 22.1961 44.9238 22.3264 45.0311 22.4489C44.3416 23.3682 43.5832 24.1343 42.7558 24.7472C41.9438 25.3447 41.17 25.7278 40.4346 25.8963C39.3774 25.7737 38.55 25.3907 37.9525 24.7472C37.3703 24.0884 37.0791 23.2993 37.0791 22.38C37.0791 21.7518 37.1634 21.116 37.3319 20.4725C37.5158 19.8136 37.761 19.1854 38.0674 18.5879C38.3891 17.975 38.7569 17.4005 39.1705 16.8642C39.5995 16.328 40.0515 15.8606 40.5265 15.4623C41.0168 15.0639 41.5148 14.7498 42.0204 14.52C42.5413 14.2902 43.0546 14.1753 43.5602 14.1753C44.265 14.2672 44.9238 14.7039 45.5367 15.4853ZM43.9509 16.2437C43.5372 16.305 43.1082 16.4735 42.6639 16.7493C42.2195 17.0251 41.7982 17.3928 41.3998 17.8525C41.0168 18.3121 40.6644 18.8484 40.3426 19.4612C40.0209 20.0741 39.7681 20.7329 39.5842 21.4377C40.81 20.8249 41.8288 20.0741 42.6409 19.1854C43.4529 18.2815 43.8896 17.3009 43.9509 16.2437ZM72.6133 15.2095C73.1189 15.2095 73.5096 15.3474 73.7854 15.6232C74.0765 15.8989 74.222 16.282 74.222 16.7723C74.222 16.8949 74.2067 17.0251 74.1761 17.163C74.1607 17.2856 74.1378 17.3928 74.1071 17.4847C73.9079 17.4541 73.6858 17.4311 73.4406 17.4158C73.1955 17.3851 72.9044 17.3698 72.5673 17.3698C71.9085 17.3698 71.242 17.4311 70.5678 17.5537C69.8937 17.6609 69.2502 17.7529 68.6373 17.8295C68.2849 18.6415 67.9631 19.4306 67.672 20.1967C67.3809 20.9474 67.1281 21.6369 66.9136 22.2651C66.7144 22.8933 66.5535 23.4372 66.431 23.8968C66.3237 24.3565 66.2624 24.7012 66.2471 24.9311C67.4882 24.6706 68.7369 24.4484 69.9933 24.2646C71.2649 24.0807 72.5979 23.9428 73.9922 23.8509C74.1607 24.1113 74.2986 24.3948 74.4059 24.7012C74.5285 25.0077 74.5897 25.3371 74.5897 25.6895C74.5897 25.7814 74.5897 25.881 74.5897 25.9882C74.5897 26.0955 74.5744 26.2027 74.5438 26.31C74.1148 26.2947 73.6628 26.2794 73.1878 26.264C72.7128 26.264 72.0923 26.264 71.3262 26.264C70.8206 26.264 70.338 26.2717 69.8783 26.287C69.434 26.3177 68.982 26.356 68.5224 26.4019C68.0627 26.4479 67.5724 26.5092 67.0515 26.5858C66.5459 26.6624 65.9713 26.7543 65.3278 26.8616C64.623 26.5858 63.9412 25.9116 63.2824 24.8391C63.5428 24.2875 63.9029 23.4525 64.3626 22.334C64.8375 21.2002 65.4351 19.6911 66.1552 17.8065C65.4657 17.592 65.0137 17.2089 64.7992 16.6574C64.8758 16.5808 65.098 16.4888 65.4657 16.3816C65.8334 16.259 66.2854 16.1364 66.8217 16.0139C67.0515 15.4163 67.243 14.8954 67.3962 14.4511C67.5648 14.0067 67.7103 13.593 67.8329 13.21C67.9555 12.8116 68.0627 12.4286 68.1547 12.0609C68.2619 11.6778 68.3615 11.2642 68.4534 10.8198C67.9172 10.7892 67.4958 10.6436 67.1894 10.3832C66.883 10.1074 66.7297 9.75497 66.7297 9.32596C66.7297 9.20339 66.7451 9.05784 66.7757 8.8893C66.8217 8.72076 66.8676 8.5752 66.9136 8.45263C67.22 8.4986 67.5111 8.52924 67.7869 8.54456C68.078 8.55988 68.4534 8.56754 68.9131 8.56754C69.8783 8.56754 70.7823 8.54456 71.625 8.4986C72.4677 8.43731 73.2261 8.37602 73.9003 8.31474C74.5897 8.25345 75.1796 8.19982 75.6699 8.15386C76.1602 8.09257 76.5356 8.06193 76.7961 8.06193C77.1485 8.06193 77.4626 8.24579 77.7383 8.61351C78.0141 8.98123 78.221 9.50216 78.3589 10.1763C77.8839 10.1304 77.4932 10.0997 77.1868 10.0844C76.8957 10.0691 76.6352 10.0614 76.4054 10.0614C75.5627 10.0614 74.7889 10.1074 74.0841 10.1993C73.3947 10.2759 72.7282 10.3602 72.0847 10.4521C71.9927 10.59 71.8855 10.7662 71.7629 10.9807C71.6557 11.1952 71.5101 11.494 71.3262 11.877C71.1424 12.2601 70.9126 12.7427 70.6368 13.3249C70.3763 13.9071 70.0545 14.6349 69.6715 15.5082C70.2537 15.4163 70.7976 15.3474 71.3033 15.3014C71.8242 15.2401 72.2609 15.2095 72.6133 15.2095ZM76.6973 23.5291C76.6973 22.855 76.8582 21.9127 77.1799 20.7023C77.5017 19.4765 77.9537 18.0516 78.5359 16.4275C79.4858 13.8382 80.3745 11.6855 81.2019 9.96947C82.0446 8.23813 82.8643 6.88982 83.661 5.92456C83.8448 5.9552 84.067 6.03181 84.3275 6.15438C84.6033 6.27696 84.8714 6.41485 85.1319 6.56807C85.3923 6.70596 85.6222 6.85152 85.8213 7.00474C86.0358 7.15795 86.1737 7.28053 86.235 7.37246C85.0399 8.78205 83.9904 10.2989 83.0864 11.923C82.1825 13.5471 81.3551 15.4087 80.6043 17.5077C79.9608 19.3157 79.4705 20.9474 79.1334 22.403C78.7964 23.8432 78.6278 25.046 78.6278 26.0112C78.6278 26.2717 78.6278 26.4326 78.6278 26.4939C78.6278 26.5551 78.6355 26.6164 78.6508 26.6777C78.4363 26.6471 78.2525 26.5935 78.0992 26.5168C77.946 26.4402 77.8464 26.3483 77.8005 26.2411C77.7698 26.1644 77.6856 26.0495 77.5477 25.8963C77.4098 25.7584 77.2872 25.6512 77.1799 25.5746C77.042 25.4826 76.9271 25.2451 76.8352 24.8621C76.7433 24.4637 76.6973 24.0194 76.6973 23.5291ZM90.2896 15.4853C90.2283 16.4352 90.0598 17.2549 89.784 17.9444C89.5082 18.6185 89.1099 19.2161 88.5889 19.737C88.0833 20.2426 87.4628 20.7023 86.7273 21.116C85.9919 21.5296 85.1339 21.928 84.1533 22.3111C84.1533 22.403 84.1457 22.5026 84.1303 22.6098C84.1303 22.7018 84.1303 22.8013 84.1303 22.9086C84.1303 23.1078 84.1457 23.3146 84.1763 23.5291C84.2069 23.7436 84.2606 23.9428 84.3372 24.1267C84.4138 24.3105 84.521 24.4637 84.6589 24.5863C84.7968 24.6936 84.973 24.7472 85.1875 24.7472C85.6012 24.7472 86.0072 24.6553 86.4056 24.4714C86.804 24.2875 87.1793 24.0654 87.5317 23.8049C87.8995 23.5291 88.2365 23.238 88.543 22.9316C88.8647 22.6098 89.1482 22.3187 89.3933 22.0582C89.5465 22.1961 89.6768 22.3264 89.784 22.4489C89.0945 23.3682 88.3361 24.1343 87.5088 24.7472C86.6967 25.3447 85.923 25.7278 85.1875 25.8963C84.1303 25.7737 83.303 25.3907 82.7054 24.7472C82.1232 24.0884 81.8321 23.2993 81.8321 22.38C81.8321 21.7518 81.9164 21.116 82.0849 20.4725C82.2688 19.8136 82.5139 19.1854 82.8203 18.5879C83.1421 17.975 83.5098 17.4005 83.9235 16.8642C84.3525 16.328 84.8045 15.8606 85.2795 15.4623C85.7697 15.0639 86.2677 14.7498 86.7733 14.52C87.2942 14.2902 87.8075 14.1753 88.3131 14.1753C89.0179 14.2672 89.6768 14.7039 90.2896 15.4853ZM88.7038 16.2437C88.2902 16.305 87.8611 16.4735 87.4168 16.7493C86.9725 17.0251 86.5511 17.3928 86.1528 17.8525C85.7697 18.3121 85.4173 18.8484 85.0956 19.4612C84.7738 20.0741 84.521 20.7329 84.3372 21.4377C85.5629 20.8249 86.5818 20.0741 87.3938 19.1854C88.2059 18.2815 88.6426 17.3009 88.7038 16.2437ZM86.7112 31.8488C86.7112 31.7568 86.7418 31.6726 86.8031 31.596C86.8644 31.5194 86.9334 31.4427 87.01 31.3661C87.1938 31.5347 87.3547 31.6649 87.4926 31.7568C87.6152 31.8488 87.7377 31.9254 87.8603 31.9867C87.9676 32.048 88.0825 32.0863 88.2051 32.1016C88.3276 32.1169 88.4732 32.1246 88.6417 32.1246C89.4384 32.1246 90.1969 31.9101 90.917 31.4811C91.6371 31.0674 92.3113 30.4622 92.9394 29.6654C93.5829 28.8687 94.1652 27.8958 94.6861 26.7467C95.207 25.5975 95.6667 24.2952 96.0651 22.8396C95.8812 23.0235 95.6514 23.2304 95.3756 23.4602C95.1151 23.6747 94.8393 23.8815 94.5482 24.0807C94.2571 24.2799 93.966 24.4637 93.6749 24.6323C93.3991 24.8008 93.1616 24.9234 92.9624 25C92.702 24.954 92.4568 24.8468 92.227 24.6782C92.0125 24.4944 91.821 24.2722 91.6524 24.0118C91.4839 23.7513 91.3536 23.4602 91.2617 23.1384C91.1698 22.8013 91.1238 22.4489 91.1238 22.0812C91.1238 21.4837 91.2311 20.8708 91.4456 20.2426C91.6754 19.6144 91.9742 19.0016 92.3419 18.404C92.7096 17.7912 93.1386 17.2166 93.6289 16.6804C94.1345 16.1441 94.6631 15.6768 95.2147 15.2784C95.7816 14.8801 96.3485 14.566 96.9154 14.3361C97.4976 14.091 98.0645 13.9684 98.6161 13.9684C99.1524 13.9684 99.5507 14.0833 99.8112 14.3132C100.087 14.5277 100.286 14.903 100.409 15.4393C100.24 15.3474 100.026 15.3014 99.7652 15.3014C99.3975 15.3014 98.9685 15.447 98.4782 15.7381C98.0032 16.0292 97.5129 16.4122 97.0073 16.8872C96.517 17.3468 96.0267 17.8831 95.5365 18.496C95.0462 19.0935 94.6095 19.7064 94.2265 20.3346C93.8587 20.9627 93.5523 21.5756 93.3072 22.1732C93.0773 22.7707 92.9624 23.307 92.9624 23.7819C92.9624 23.8892 92.9701 23.9581 92.9854 23.9888C93.0007 24.0041 93.0237 24.0118 93.0544 24.0118C93.1922 24.0118 93.3761 23.9351 93.6059 23.7819C93.8511 23.6287 94.1192 23.4372 94.4103 23.2074C94.7167 22.9622 95.0308 22.6864 95.3526 22.38C95.6744 22.0582 95.9808 21.7365 96.2719 21.4147C96.9307 20.6793 97.5283 19.8596 98.0645 18.9556C98.6161 18.0363 99.0528 17.1477 99.3745 16.2896C99.7882 16.3203 100.156 16.3892 100.478 16.4965C100.799 16.6037 101.022 16.7187 101.144 16.8412C100.623 18.0363 100.202 19.0399 99.8801 19.8519C99.5737 20.664 99.3056 21.3841 99.0758 22.0123C98.6621 23.1154 98.2714 24.119 97.9037 25.023C97.5513 25.9423 97.1835 26.785 96.8005 27.5511C96.4328 28.3325 96.0267 29.0526 95.5824 29.7114C95.1534 30.3856 94.6631 31.0291 94.1115 31.6419C93.8511 31.933 93.5523 32.1858 93.2152 32.4004C92.8935 32.6302 92.5564 32.8217 92.204 32.9749C91.8669 33.1281 91.5298 33.243 91.1928 33.3196C90.871 33.3963 90.5722 33.4346 90.2965 33.4346C89.9287 33.4346 89.5534 33.3886 89.1703 33.2967C88.7873 33.2201 88.4349 33.1051 88.1131 32.9519C87.776 32.814 87.4849 32.6455 87.2398 32.4463C86.9946 32.2625 86.8184 32.0633 86.7112 31.8488ZM109.629 15.7151C109.782 15.7151 109.959 15.7457 110.158 15.807C110.372 15.853 110.564 15.9219 110.732 16.0139C110.901 16.0905 111.039 16.1747 111.146 16.2667C111.269 16.3586 111.33 16.4429 111.33 16.5195C111.023 17.163 110.74 17.8142 110.48 18.473C110.219 19.1165 109.997 19.737 109.813 20.3346C109.629 20.9321 109.484 21.4913 109.376 22.0123C109.284 22.5332 109.238 22.9852 109.238 23.3682C109.238 23.7973 109.284 24.1573 109.376 24.4484C109.468 24.7242 109.622 24.9234 109.836 25.046C109.652 25.1685 109.415 25.2681 109.124 25.3447C108.832 25.4213 108.572 25.4596 108.342 25.4596C107.515 25.4596 107.101 24.8927 107.101 23.7589C107.101 22.8856 107.392 21.6905 107.974 20.1737C107.668 20.8785 107.316 21.545 106.917 22.1732C106.519 22.786 106.113 23.3299 105.699 23.8049C105.286 24.2799 104.864 24.6706 104.435 24.977C104.021 25.2681 103.638 25.4443 103.286 25.5056C102.719 25.475 102.259 25.2068 101.907 24.7012C101.555 24.1803 101.378 23.5215 101.378 22.7247C101.378 21.8667 101.562 20.9627 101.93 20.0128C102.298 19.0629 102.765 18.1819 103.332 17.3698C103.914 16.5578 104.542 15.8836 105.217 15.3474C105.891 14.7958 106.542 14.5047 107.17 14.474C107.323 14.52 107.492 14.6119 107.676 14.7498C107.875 14.8877 108.059 15.0486 108.227 15.2325C108.411 15.4163 108.564 15.6078 108.687 15.807C108.809 15.9909 108.878 16.1518 108.894 16.2896C108.281 16.3816 107.645 16.6804 106.986 17.186C106.343 17.6916 105.753 18.3044 105.217 19.0246C104.696 19.7294 104.267 20.4878 103.93 21.2998C103.592 22.1119 103.424 22.8703 103.424 23.5751C103.424 23.8662 103.531 24.0501 103.746 24.1267C104.19 24.0347 104.703 23.6594 105.286 23.0005C105.868 22.3264 106.573 21.2922 107.4 19.8979C107.553 19.6221 107.722 19.3157 107.906 18.9786C108.105 18.6415 108.304 18.2891 108.503 17.9214C108.702 17.5537 108.894 17.186 109.078 16.8182C109.277 16.4352 109.461 16.0675 109.629 15.7151ZM116.219 13.8535C116.617 13.9761 116.993 14.2519 117.345 14.6809C117.697 15.0946 117.958 15.5542 118.126 16.0598C117.958 16.4735 117.697 16.9715 117.345 17.5537C116.993 18.1359 116.64 18.7335 116.288 19.3463C115.935 19.9439 115.614 20.5184 115.323 21.07C115.047 21.6063 114.886 22.0506 114.84 22.403C115.085 22.1425 115.353 21.8437 115.644 21.5067C115.951 21.1543 116.242 20.8095 116.518 20.4725C116.809 20.1201 117.077 19.806 117.322 19.5302C117.567 19.2391 117.759 19.0246 117.897 18.8867C118.188 18.5802 118.532 18.2278 118.931 17.8295C119.329 17.4158 119.743 17.0327 120.172 16.6804C120.616 16.3126 121.061 16.0062 121.505 15.7611C121.949 15.5006 122.355 15.3704 122.723 15.3704C123.121 15.3704 123.451 15.5082 123.711 15.784C123.987 16.0445 124.201 16.3203 124.355 16.6114C124.355 16.642 124.293 16.688 124.171 16.7493C124.064 16.7953 123.903 16.9408 123.688 17.186C123.474 17.4618 123.229 17.8448 122.953 18.3351C122.692 18.8101 122.432 19.331 122.171 19.8979C121.926 20.4495 121.719 21.0164 121.551 21.5986C121.382 22.1808 121.298 22.7094 121.298 23.1844C121.298 23.5674 121.344 23.8126 121.436 23.9198C121.543 24.0271 121.689 24.0807 121.873 24.0807C122.041 24.0807 122.217 24.0424 122.401 23.9658C122.585 23.8892 122.731 23.8509 122.838 23.8509C122.899 23.8815 122.945 23.9505 122.976 24.0577C123.022 24.1496 123.045 24.2339 123.045 24.3105C122.922 24.4178 122.777 24.525 122.608 24.6323C122.439 24.7395 122.263 24.8391 122.079 24.9311C121.896 25.023 121.712 25.0996 121.528 25.1609C121.359 25.2222 121.206 25.2528 121.068 25.2528C120.624 25.2528 120.256 25.1839 119.965 25.046C119.689 24.9234 119.467 24.7549 119.299 24.5404C119.145 24.3258 119.038 24.073 118.977 23.7819C118.915 23.4755 118.885 23.1537 118.885 22.8167C118.885 22.6328 118.9 22.426 118.931 22.1961C118.961 21.9663 119.023 21.6982 119.115 21.3918C119.207 21.07 119.337 20.6946 119.505 20.2656C119.674 19.8213 119.888 19.2927 120.149 18.6798C120.118 18.6798 119.911 18.7871 119.528 19.0016C119.145 19.2161 118.732 19.5455 118.287 19.9898C117.567 20.6793 116.916 21.3611 116.334 22.0353C115.767 22.7094 115.185 23.4602 114.587 24.2875C114.25 24.7625 113.951 25.1609 113.691 25.4826C113.446 25.8197 113.231 26.0419 113.047 26.1491C112.726 25.9653 112.488 25.7048 112.335 25.3677C112.182 25.046 112.067 24.7089 111.99 24.3565C111.99 24.0654 112.028 23.6977 112.105 23.2533C112.197 22.809 112.312 22.3187 112.45 21.7825C112.603 21.2309 112.787 20.6563 113.001 20.0588C113.216 19.4612 113.453 18.8637 113.714 18.2661C114.296 16.9178 114.825 15.8606 115.3 15.0946C115.79 14.3285 116.096 13.9148 116.219 13.8535ZM125.045 20.9551C125.045 20.0818 125.221 19.2391 125.574 18.427C125.941 17.5996 126.416 16.8719 126.999 16.2437C127.596 15.6002 128.27 15.0869 129.021 14.7039C129.787 14.3055 130.576 14.1063 131.388 14.1063C132.185 14.1063 132.798 14.3055 133.227 14.7039C133.656 15.1022 133.87 15.6691 133.87 16.4046C133.87 16.757 133.817 17.1017 133.709 17.4388C133.617 17.7605 133.487 18.0516 133.319 18.3121C133.166 18.5726 132.982 18.7871 132.767 18.9556C132.553 19.1088 132.338 19.1854 132.124 19.1854C131.94 19.1854 131.748 19.1318 131.549 19.0246C131.365 18.902 131.212 18.7488 131.089 18.5649C132.116 17.6303 132.629 16.7799 132.629 16.0139C132.629 15.5695 132.453 15.3474 132.101 15.3474C131.794 15.3474 131.411 15.4929 130.952 15.784C130.492 16.0751 130.048 16.4582 129.619 16.9332C128.96 17.6686 128.454 18.4883 128.102 19.3923C127.765 20.2809 127.596 21.2156 127.596 22.1961C127.596 23.4372 127.872 24.1803 128.423 24.4254C128.653 24.3948 128.921 24.3258 129.228 24.2186C129.534 24.1113 129.864 23.9735 130.216 23.8049C130.568 23.6211 130.929 23.4142 131.296 23.1844C131.679 22.9546 132.047 22.7094 132.399 22.4489C132.461 22.4949 132.514 22.5639 132.56 22.6558C132.606 22.7477 132.629 22.832 132.629 22.9086C132.369 23.2304 132.07 23.5444 131.733 23.8509C131.396 24.1573 131.043 24.4408 130.676 24.7012C130.308 24.9464 129.948 25.1532 129.596 25.3218C129.258 25.5056 128.96 25.6205 128.699 25.6665C128.194 25.6205 127.719 25.4596 127.274 25.1839C126.83 24.9234 126.439 24.5787 126.102 24.1496C125.78 23.7206 125.52 23.2304 125.321 22.6788C125.137 22.1272 125.045 21.5526 125.045 20.9551ZM142.786 15.4853C142.724 16.4352 142.556 17.2549 142.28 17.9444C142.004 18.6185 141.606 19.2161 141.085 19.737C140.579 20.2426 139.959 20.7023 139.223 21.116C138.488 21.5296 137.63 21.928 136.649 22.3111C136.649 22.403 136.642 22.5026 136.626 22.6098C136.626 22.7018 136.626 22.8013 136.626 22.9086C136.626 23.1078 136.642 23.3146 136.672 23.5291C136.703 23.7436 136.757 23.9428 136.833 24.1267C136.91 24.3105 137.017 24.4637 137.155 24.5863C137.293 24.6936 137.469 24.7472 137.684 24.7472C138.097 24.7472 138.503 24.6553 138.902 24.4714C139.3 24.2875 139.675 24.0654 140.028 23.8049C140.396 23.5291 140.733 23.238 141.039 22.9316C141.361 22.6098 141.644 22.3187 141.889 22.0582C142.043 22.1961 142.173 22.3264 142.28 22.4489C141.591 23.3682 140.832 24.1343 140.005 24.7472C139.193 25.3447 138.419 25.7278 137.684 25.8963C136.626 25.7737 135.799 25.3907 135.201 24.7472C134.619 24.0884 134.328 23.2993 134.328 22.38C134.328 21.7518 134.412 21.116 134.581 20.4725C134.765 19.8136 135.01 19.1854 135.316 18.5879C135.638 17.975 136.006 17.4005 136.42 16.8642C136.849 16.328 137.301 15.8606 137.776 15.4623C138.266 15.0639 138.764 14.7498 139.269 14.52C139.79 14.2902 140.304 14.1753 140.809 14.1753C141.514 14.2672 142.173 14.7039 142.786 15.4853ZM141.2 16.2437C140.786 16.305 140.357 16.4735 139.913 16.7493C139.469 17.0251 139.047 17.3928 138.649 17.8525C138.266 18.3121 137.913 18.8484 137.592 19.4612C137.27 20.0741 137.017 20.7329 136.833 21.4377C138.059 20.8249 139.078 20.0741 139.89 19.1854C140.702 18.2815 141.139 17.3009 141.2 16.2437Z" fill="white"/>
<path d="M55.9956 20.3695C55.9956 21.4741 55.1002 22.3695 53.9956 22.3695C52.891 22.3695 51.9956 21.4741 51.9956 20.3695C51.9956 19.2649 52.891 18.3695 53.9956 18.3695C55.1002 18.3695 55.9956 19.2649 55.9956 20.3695Z" fill="#F536B0"/>
</svg>
