<svg width="155" height="43" viewBox="0 0 155 43" fill="none" xmlns="http://www.w3.org/2000/svg">
<path d="M15.5814 11.3084C15.9326 11.4562 16.293 11.6503 16.6626 11.8906C17.0323 12.1124 17.3743 12.3434 17.6885 12.5837C18.0027 12.824 18.2614 13.0643 18.4648 13.3046C18.6866 13.5263 18.8067 13.7112 18.8252 13.859C18.511 13.7851 18.1968 13.7389 17.8825 13.7204C17.5683 13.6835 17.2818 13.665 17.0231 13.665C16.1913 13.665 15.3596 13.8683 14.5278 14.2749C13.7146 14.6816 12.9383 15.236 12.1989 15.9384C11.4596 16.6408 10.7757 17.4633 10.1473 18.4059C9.51887 19.3486 8.97362 20.3559 8.51154 21.4279C8.06794 22.5 7.71676 23.609 7.45799 24.7549C7.19922 25.9009 7.06984 27.0284 7.06984 28.1374C7.06984 29.579 7.31012 30.6511 7.79069 31.3534C8.27125 32.0558 8.97362 32.407 9.89778 32.407C10.3414 32.407 10.8219 32.3146 11.3395 32.1297C11.857 31.9634 12.3838 31.7231 12.9198 31.4089C13.4558 31.0947 13.9826 30.7158 14.5001 30.2722C15.0176 29.8286 15.4982 29.3388 15.9418 28.8028C16.5887 28.0265 17.1709 27.1485 17.6885 26.1689C18.206 25.1708 18.6404 24.1172 18.9915 23.0083C19.3612 21.8993 19.6384 20.7625 19.8233 19.5981C20.0266 18.4152 20.1283 17.26 20.1283 16.1325C20.1283 15.6889 20.119 15.3192 20.1005 15.0235C20.082 14.7093 20.0543 14.4505 20.0174 14.2472C19.9989 14.0254 19.9804 13.8498 19.9619 13.7204C19.9434 13.591 19.9249 13.4801 19.9065 13.3877C20.1283 13.4986 20.3685 13.6372 20.6273 13.8036C20.9046 13.9515 21.1541 14.1825 21.3759 14.4967C21.6162 14.7925 21.8102 15.1898 21.9581 15.6889C22.1244 16.1879 22.2076 16.8349 22.2076 17.6296C22.2076 18.9235 22.0505 20.1988 21.7363 21.4557C21.4406 22.694 21.0155 23.877 20.461 25.0044C19.9249 26.1319 19.2873 27.1855 18.5479 28.1651C17.8086 29.1447 17.0138 30.0042 16.1636 30.7435C15.0546 31.7231 13.8717 32.4809 12.6148 33.0169C11.358 33.5529 10.1473 33.821 8.98286 33.821C7.2824 33.821 5.97933 33.2757 5.07365 32.1852C4.18646 31.1132 3.74286 29.5236 3.74286 27.4165C3.74286 26.289 3.863 25.0969 4.10328 23.84C4.36205 22.5831 4.71323 21.3448 5.15683 20.1249C5.61891 18.905 6.16416 17.7498 6.79259 16.6593C7.42102 15.5503 8.1049 14.5799 8.84423 13.7481C9.60205 12.8979 10.4061 12.2233 11.2563 11.7242C12.125 11.2252 13.0122 10.9757 13.9179 10.9757C14.2136 10.9757 14.4909 11.0034 14.7496 11.0588C15.0084 11.0958 15.2856 11.179 15.5814 11.3084ZM26.9455 18.0455C27.4261 18.1934 27.8789 18.5261 28.3041 19.0436C28.7292 19.5426 29.0434 20.0971 29.2467 20.7071C29.0434 21.2061 28.7292 21.8068 28.3041 22.5092C27.8789 23.2116 27.4538 23.9324 27.0287 24.6717C26.6036 25.3926 26.2155 26.0857 25.8643 26.7511C25.5316 27.398 25.3375 27.934 25.282 28.3592C25.5778 28.0449 25.9012 27.6845 26.2524 27.2779C26.6221 26.8528 26.9733 26.4369 27.306 26.0303C27.6571 25.6052 27.9806 25.2262 28.2763 24.8935C28.5721 24.5424 28.8031 24.2836 28.9695 24.1173C29.3206 23.7476 29.7365 23.3225 30.2171 22.8419C30.6976 22.3429 31.1967 21.8808 31.7142 21.4557C32.2502 21.0121 32.7862 20.6424 33.3223 20.3467C33.8583 20.0325 34.3481 19.8753 34.7917 19.8753C35.2722 19.8753 35.6696 20.0417 35.9838 20.3744C36.3165 20.6886 36.5753 21.0213 36.7601 21.3725C36.7601 21.4095 36.6862 21.4649 36.5383 21.5388C36.409 21.5943 36.2149 21.7699 35.9561 22.0656C35.6974 22.3983 35.4016 22.8604 35.0689 23.4519C34.7547 24.0248 34.4405 24.6533 34.1263 25.3371C33.8305 26.0025 33.581 26.6864 33.3777 27.3888C33.1744 28.0911 33.0727 28.7288 33.0727 29.3018C33.0727 29.7639 33.1282 30.0596 33.2391 30.189C33.3685 30.3184 33.5441 30.3831 33.7659 30.3831C33.9692 30.3831 34.1817 30.3369 34.4035 30.2444C34.6253 30.152 34.8009 30.1058 34.9303 30.1058C35.0042 30.1428 35.0597 30.226 35.0967 30.3553C35.1521 30.4662 35.1798 30.5679 35.1798 30.6603C35.032 30.7897 34.8564 30.9191 34.6531 31.0485C34.4497 31.1779 34.2372 31.298 34.0154 31.4089C33.7936 31.5198 33.5718 31.6122 33.35 31.6861C33.1467 31.7601 32.9618 31.797 32.7955 31.797C32.2595 31.797 31.8159 31.7139 31.4647 31.5475C31.132 31.3996 30.864 31.1963 30.6607 30.9376C30.4758 30.6788 30.3465 30.3738 30.2725 30.0226C30.1986 29.653 30.1616 29.2648 30.1616 28.8582C30.1616 28.6364 30.1801 28.3869 30.2171 28.1096C30.254 27.8324 30.328 27.5089 30.4389 27.1393C30.5498 26.7511 30.7069 26.2983 30.9102 25.7807C31.1135 25.2447 31.3723 24.6071 31.6865 23.8677C31.6495 23.8677 31.4 23.9971 30.9379 24.2559C30.4758 24.5146 29.9768 24.912 29.4408 25.448C28.5721 26.2798 27.7865 27.1023 27.0842 27.9156C26.4003 28.7288 25.6979 29.6345 24.9771 30.6326C24.5704 31.2056 24.21 31.6861 23.8958 32.0743C23.6001 32.4809 23.3413 32.7489 23.1195 32.8783C22.7314 32.6565 22.4449 32.3423 22.26 31.9357C22.0752 31.5475 21.9366 31.1409 21.8442 30.7158C21.8442 30.3646 21.8904 29.921 21.9828 29.385C22.0937 28.849 22.2323 28.2575 22.3987 27.6106C22.5835 26.9452 22.8053 26.2521 23.0641 25.5312C23.3228 24.8104 23.6093 24.0895 23.9235 23.3687C24.6259 21.7422 25.2636 20.4668 25.8365 19.5426C26.428 18.6185 26.7977 18.1194 26.9455 18.0455ZM37.3989 29.7177C37.3989 28.9044 37.593 27.7677 37.9811 26.3075C38.3693 24.8289 38.9145 23.1099 39.6169 21.1507C40.7629 18.027 41.8349 15.4301 42.833 13.36C43.8496 11.2714 44.8384 9.64487 45.7995 8.48042C46.0213 8.51739 46.2893 8.60981 46.6036 8.75767C46.9363 8.90554 47.2597 9.07189 47.5739 9.25672C47.8881 9.42307 48.1654 9.59866 48.4057 9.78349C48.6644 9.96832 48.8308 10.1162 48.9047 10.2271C47.463 11.9275 46.1969 13.7574 45.1064 15.7166C44.0159 17.6758 43.0178 19.9216 42.1121 22.4538C41.3358 24.6348 40.7444 26.6032 40.3377 28.3592C39.9311 30.0966 39.7278 31.5475 39.7278 32.712C39.7278 33.0262 39.7278 33.2202 39.7278 33.2942C39.7278 33.3681 39.737 33.442 39.7555 33.516C39.4967 33.479 39.2749 33.4143 39.0901 33.3219C38.9053 33.2295 38.7851 33.1186 38.7297 32.9892C38.6927 32.8968 38.5911 32.7582 38.4247 32.5733C38.2584 32.407 38.1105 32.2776 37.9811 32.1852C37.8148 32.0743 37.6761 31.7878 37.5652 31.3257C37.4543 30.8452 37.3989 30.3091 37.3989 29.7177ZM54.4033 27.1947C53.9782 28.544 53.5531 29.7731 53.128 30.8821C52.7029 31.9911 52.25 33.0077 51.7695 33.9319C51.2889 34.8745 50.7714 35.734 50.2169 36.5103C49.6624 37.305 49.0524 38.0536 48.387 38.756C47.5368 39.6432 46.6589 40.3178 45.7532 40.7799C44.8475 41.2605 43.9418 41.5007 43.0361 41.5007C42.5741 41.5007 42.112 41.4453 41.6499 41.3344C41.2063 41.242 40.7904 41.1034 40.4023 40.9185C39.9957 40.7522 39.6445 40.5489 39.3487 40.3086C39.0345 40.0868 38.8127 39.8465 38.6833 39.5877C38.6833 39.3659 38.8127 39.1719 39.0715 39.0055C39.2933 39.2088 39.4781 39.3659 39.626 39.4768C39.7739 39.5877 39.9217 39.6801 40.0696 39.7541C40.199 39.828 40.3468 39.8742 40.5132 39.8927C40.661 39.9112 40.8366 39.9204 41.04 39.9204C42.0935 39.9204 43.1193 39.6062 44.1174 38.9778C45.134 38.3678 46.0859 37.4899 46.9731 36.3439C47.8788 35.2164 48.7013 33.8394 49.4406 32.2129C50.1799 30.6049 50.8084 28.8028 51.3259 26.8066C51.0856 27.1762 50.7899 27.6291 50.4387 28.1651C50.0875 28.7011 49.6994 29.2371 49.2742 29.7731C48.8491 30.2907 48.4055 30.762 47.9434 31.1871C47.4998 31.6122 47.0655 31.8987 46.6404 32.0466C46.3446 32.0281 46.0304 31.9634 45.6977 31.8525C45.3835 31.7601 45.0785 31.6214 44.7828 31.4366C44.5056 31.2518 44.256 31.03 44.0342 30.7712C43.8124 30.5125 43.6646 30.2167 43.5906 29.884C43.5906 29.348 43.6091 28.9229 43.6461 28.6087C43.6831 28.276 43.7478 27.9156 43.8402 27.5274C44.0065 26.825 44.2468 26.0303 44.561 25.1431C44.8937 24.2559 45.2726 23.3872 45.6977 22.5369C46.1413 21.6682 46.6219 20.8642 47.1394 20.1249C47.6754 19.3671 48.2299 18.7756 48.8029 18.3505C48.9508 18.3505 49.1356 18.369 49.3574 18.4059C49.5792 18.4244 49.8103 18.4706 50.0505 18.5446C50.2908 18.6185 50.5219 18.7109 50.7437 18.8218C50.9655 18.9142 51.1595 19.0436 51.3259 19.2099C51.1226 19.3948 50.679 20.014 49.9951 21.0675C49.3112 22.1211 48.5534 23.6367 47.7216 25.6144C47.6292 25.8177 47.5183 26.1134 47.3889 26.5016C47.2596 26.8897 47.1302 27.2964 47.0008 27.7215C46.8899 28.1466 46.7882 28.5625 46.6958 28.9691C46.6034 29.3757 46.5572 29.6992 46.5572 29.9395C46.5572 30.0873 46.5757 30.1982 46.6127 30.2722C46.6681 30.3461 46.7143 30.4016 46.7513 30.4385C47.084 30.3831 47.5276 30.1151 48.0821 29.6345C48.6366 29.1355 49.265 28.3684 49.9674 27.3333C50.411 26.6679 50.8176 26.0118 51.1873 25.3649C51.5569 24.6995 51.9173 24.0341 52.2685 23.3687C52.6382 22.7033 53.0171 22.0194 53.4052 21.317C53.7934 20.6147 54.2093 19.8938 54.6529 19.1545C54.8931 19.1545 55.1519 19.1822 55.4292 19.2377C55.7064 19.2931 55.9744 19.3671 56.2332 19.4595C56.4919 19.5334 56.7137 19.6258 56.8986 19.7367C57.1019 19.8291 57.2498 19.9308 57.3422 20.0417C56.7692 21.2616 56.2332 22.4538 55.7341 23.6182C55.2351 24.7826 54.7915 25.9748 54.4033 27.1947ZM88.9236 33.5437C88.8867 33.5622 88.8497 33.5714 88.8127 33.5714C88.7758 33.5714 88.7018 33.5714 88.5909 33.5714C88.3322 33.5714 88.0272 33.5252 87.676 33.4328C87.3433 33.3589 87.0106 33.2572 86.6779 33.1278C86.3637 33.0169 86.0864 32.8876 85.8462 32.7397C85.6244 32.5918 85.4857 32.4624 85.4303 32.3515C85.4118 32.0928 85.4026 31.8248 85.4026 31.5475C85.4026 31.2703 85.4026 31.0023 85.4026 30.7435C85.4026 28.6734 85.5504 26.5108 85.8462 24.2559C86.1604 22.0009 86.6687 19.5611 87.371 16.9365C87.445 16.6777 87.5189 16.3543 87.5928 15.9661C87.6852 15.5595 87.7777 15.1252 87.8701 14.6631C87.4265 15.0143 86.8997 15.578 86.2898 16.3543C85.6798 17.1121 85.0329 18.0178 84.349 19.0713C83.6836 20.1064 83.009 21.2523 82.3251 22.5092C81.6597 23.7476 81.0498 25.0137 80.4953 26.3075C79.9408 27.5829 79.4602 28.849 79.0536 30.1058C78.6654 31.3627 78.4251 32.5271 78.3327 33.5992C77.4455 33.3404 76.8263 33.0816 76.4752 32.8229C76.1425 32.5641 75.9761 32.2499 75.9761 31.8802C75.9761 31.5475 76.0778 31.0762 76.2811 30.4662C76.4844 29.8563 76.7709 29.1355 77.1405 28.3037C77.5102 27.472 77.9631 26.5478 78.4991 25.5312C79.0351 24.4962 79.6265 23.3872 80.2735 22.2042C81.0128 20.855 81.7336 19.5889 82.436 18.4059C83.1568 17.223 83.8592 16.151 84.5431 15.1898C85.227 14.2287 85.8924 13.397 86.5393 12.6946C87.2047 11.9922 87.8608 11.4562 88.5077 11.0866C88.7665 11.0866 89.1085 11.1513 89.5336 11.2806C89.9772 11.41 90.4023 11.5671 90.8089 11.752C91.234 11.9368 91.6037 12.1309 91.9179 12.3342C92.2506 12.519 92.4354 12.6761 92.4724 12.8055C92.2136 13.323 91.9087 14.0993 91.5575 15.1344C91.2063 16.1695 90.8459 17.3431 90.4762 18.6555C90.125 19.9678 89.7831 21.3632 89.4504 22.8419C89.1362 24.3021 88.8867 25.7068 88.7018 27.0561C89.1269 26.0395 89.6167 24.986 90.1712 23.8955C90.7442 22.7865 91.3449 21.6959 91.9734 20.6239C92.6018 19.5334 93.2395 18.4799 93.8864 17.4633C94.5518 16.4467 95.1987 15.5225 95.8271 14.6908C96.4555 13.8406 97.0378 13.1012 97.5738 12.4728C98.1283 11.8444 98.6181 11.3823 99.0432 11.0866C99.302 11.0866 99.6439 11.1513 100.069 11.2806C100.513 11.41 100.938 11.5671 101.344 11.752C101.769 11.9368 102.139 12.1309 102.453 12.3342C102.786 12.519 102.971 12.6761 103.008 12.8055C102.416 13.859 101.899 15.1436 101.455 16.6593C101.012 18.1749 100.633 19.7644 100.319 21.4279C100.023 23.0914 99.7918 24.7457 99.6254 26.3907C99.4776 28.0172 99.4036 29.4774 99.4036 30.7712C99.4036 31.1963 99.4036 31.6399 99.4036 32.102C99.4036 32.5641 99.4221 33.0447 99.4591 33.5437C99.2003 33.5437 98.8861 33.5067 98.5164 33.4328C98.1652 33.3774 97.8141 33.2942 97.4629 33.1833C97.1302 33.0724 96.8252 32.943 96.548 32.7951C96.2707 32.6658 96.0766 32.5179 95.9657 32.3515C95.9473 32.0928 95.938 31.8248 95.938 31.5475C95.938 31.2703 95.938 31.0023 95.938 30.7435C95.938 28.6734 96.0859 26.5108 96.3816 24.2559C96.6958 22.0009 97.2041 19.5611 97.9065 16.9365C97.9804 16.6777 98.0636 16.3266 98.156 15.883C98.2484 15.4394 98.3408 14.9773 98.4332 14.4967C97.9157 14.7555 97.3243 15.2545 96.6589 15.9939C96.0119 16.7147 95.3465 17.6019 94.6627 18.6555C93.9973 19.6905 93.3319 20.8457 92.6665 22.1211C92.0196 23.3964 91.4281 24.6995 90.8921 26.0303C90.3746 27.3426 89.931 28.6549 89.5613 29.9672C89.2101 31.261 88.9976 32.4532 88.9236 33.5437ZM106.003 32.4624C104.95 32.3515 104.109 31.8895 103.48 31.0762C102.852 30.2629 102.538 29.2279 102.538 27.971C102.538 27.2317 102.649 26.4646 102.87 25.6698C103.092 24.8751 103.406 24.108 103.813 23.3687C104.22 22.6109 104.7 21.8993 105.255 21.2339C105.809 20.5685 106.41 19.9955 107.057 19.5149C108.073 18.7571 109.025 18.3782 109.912 18.3782C110.504 18.6924 111.086 19.3486 111.659 20.3467C111.752 20.3467 111.835 20.3467 111.909 20.3467C111.983 20.3282 112.066 20.3189 112.158 20.3189C113.138 20.3189 113.628 21.1877 113.628 22.9251C113.628 24.0895 113.433 25.1985 113.045 26.2521C112.676 27.2871 112.149 28.2298 111.465 29.08C110.8 29.9302 109.996 30.6511 109.053 31.2425C108.129 31.8155 107.112 32.2222 106.003 32.4624ZM107.417 23.7291C107.103 24.1542 106.807 24.6163 106.53 25.1153C106.253 25.6144 106.012 26.1227 105.809 26.6402C105.606 27.1393 105.449 27.6291 105.338 28.1096C105.227 28.5717 105.171 28.9876 105.171 29.3573C105.171 29.8008 105.245 30.226 105.393 30.6326C105.541 31.0392 105.707 31.2703 105.892 31.3257C106.724 31.1409 107.482 30.7989 108.166 30.2999C108.868 29.7824 109.469 29.1447 109.968 28.3869C110.485 27.6291 110.883 26.7696 111.16 25.8085C111.456 24.8473 111.604 23.8215 111.604 22.731C111.604 22.2504 111.576 21.8715 111.52 21.5943C111.465 21.317 111.373 21.0768 111.243 20.8734C110.43 21.1137 109.7 21.5019 109.053 22.0379C108.425 22.5739 107.879 23.1376 107.417 23.7291ZM121.014 18.5446C121.383 18.5446 121.808 18.6555 122.289 18.8772C122.77 19.099 123.195 19.3855 123.564 19.7367C123.472 18.9974 123.352 18.3043 123.204 17.6574C123.075 16.992 122.871 16.3081 122.594 15.6057C122.335 14.9034 121.984 14.1363 121.54 13.3046C121.097 12.4728 120.542 11.5209 119.877 10.4489C119.932 10.2825 120.053 10.0885 120.237 9.86667C120.441 9.64487 120.662 9.44155 120.903 9.25672C121.162 9.0534 121.42 8.87781 121.679 8.72995C121.956 8.58208 122.215 8.48966 122.455 8.4527C122.973 9.02568 123.463 9.74653 123.925 10.6152C124.387 11.4655 124.793 12.3896 125.145 13.3877C125.496 14.3673 125.764 15.3839 125.949 16.4375C126.152 17.491 126.254 18.4983 126.254 19.4595C126.254 20.4206 126.143 21.4095 125.921 22.426C125.718 23.4426 125.422 24.4407 125.034 25.4203C124.664 26.3814 124.23 27.2964 123.731 28.1651C123.232 29.0338 122.686 29.8101 122.095 30.494C121.522 31.1779 120.921 31.7323 120.293 32.1575C119.664 32.6011 119.036 32.8783 118.408 32.9892C117.132 32.8413 116.153 32.4255 115.469 31.7416C114.803 31.0762 114.471 30.152 114.471 28.9691C114.471 28.3407 114.563 27.6568 114.748 26.9175C114.951 26.1781 115.21 25.448 115.524 24.7272C115.857 23.9879 116.236 23.2763 116.661 22.5924C117.104 21.89 117.567 21.2616 118.047 20.7071C118.546 20.1526 119.045 19.6813 119.544 19.2931C120.043 18.905 120.533 18.6555 121.014 18.5446ZM118.186 31.8802C118.833 31.6584 119.48 31.1686 120.126 30.4108C120.773 29.653 121.356 28.7658 121.873 27.7492C122.391 26.7141 122.807 25.6144 123.121 24.4499C123.453 23.267 123.62 22.1303 123.62 21.0398C123.62 20.7256 123.62 20.5315 123.62 20.4576C123.62 20.3836 123.611 20.3097 123.592 20.2358C123.148 20.4206 122.677 20.7348 122.178 21.1784C121.679 21.622 121.18 22.1395 120.681 22.731C120.182 23.304 119.711 23.9324 119.267 24.6163C118.823 25.3002 118.426 25.9841 118.075 26.6679C117.724 27.3518 117.446 28.008 117.243 28.6364C117.04 29.2648 116.938 29.8193 116.938 30.2999C116.938 31.2241 117.354 31.7508 118.186 31.8802ZM136.889 20.014C136.815 21.1599 136.612 22.1488 136.279 22.9805C135.947 23.7938 135.466 24.5146 134.838 25.1431C134.228 25.753 133.479 26.3075 132.592 26.8066C131.705 27.3056 130.67 27.7862 129.487 28.2483C129.487 28.3592 129.478 28.4793 129.459 28.6087C129.459 28.7196 129.459 28.8397 129.459 28.9691C129.459 29.2094 129.478 29.4589 129.515 29.7177C129.552 29.9764 129.616 30.2167 129.709 30.4385C129.801 30.6603 129.93 30.8452 130.097 30.993C130.263 31.1224 130.476 31.1871 130.734 31.1871C131.234 31.1871 131.723 31.0762 132.204 30.8544C132.684 30.6326 133.137 30.3646 133.562 30.0504C134.006 29.7177 134.413 29.3665 134.782 28.9968C135.17 28.6087 135.512 28.2575 135.808 27.9433C135.993 28.1096 136.15 28.2667 136.279 28.4146C135.448 29.5236 134.533 30.4478 133.535 31.1871C132.555 31.9079 131.622 32.37 130.734 32.5733C129.459 32.4255 128.461 31.9634 127.74 31.1871C127.038 30.3923 126.687 29.4404 126.687 28.3314C126.687 27.5736 126.788 26.8066 126.992 26.0303C127.213 25.2355 127.509 24.4777 127.879 23.7568C128.267 23.0175 128.711 22.3244 129.21 21.6775C129.727 21.0305 130.272 20.4668 130.845 19.9862C131.437 19.5057 132.038 19.1268 132.647 18.8495C133.276 18.5723 133.895 18.4337 134.505 18.4337C135.355 18.5446 136.15 19.0713 136.889 20.014ZM134.976 20.9289C134.477 21.0028 133.96 21.2061 133.424 21.5388C132.888 21.8715 132.379 22.3151 131.899 22.8696C131.437 23.4241 131.012 24.071 130.624 24.8104C130.235 25.5497 129.93 26.3445 129.709 27.1947C131.187 26.4554 132.416 25.5497 133.396 24.4777C134.376 23.3872 134.902 22.2042 134.976 20.9289ZM138.145 29.7177C138.145 28.9044 138.339 27.7677 138.727 26.3075C139.116 24.8289 139.661 23.1099 140.363 21.1507C141.509 18.027 142.581 15.4301 143.579 13.36C144.596 11.2714 145.585 9.64487 146.546 8.48042C146.768 8.51739 147.036 8.60981 147.35 8.75767C147.683 8.90554 148.006 9.07189 148.32 9.25672C148.634 9.42307 148.912 9.59866 149.152 9.78349C149.411 9.96832 149.577 10.1162 149.651 10.2271C148.209 11.9275 146.943 13.7574 145.853 15.7166C144.762 17.6758 143.764 19.9216 142.858 22.4538C142.082 24.6348 141.491 26.6032 141.084 28.3592C140.677 30.0966 140.474 31.5475 140.474 32.712C140.474 33.0262 140.474 33.2202 140.474 33.2942C140.474 33.3681 140.483 33.442 140.502 33.516C140.243 33.479 140.021 33.4143 139.836 33.3219C139.652 33.2295 139.531 33.1186 139.476 32.9892C139.439 32.8968 139.337 32.7582 139.171 32.5733C139.005 32.407 138.857 32.2776 138.727 32.1852C138.561 32.0743 138.422 31.7878 138.312 31.3257C138.201 30.8452 138.145 30.3091 138.145 29.7177ZM154.29 20.4576C154.272 20.8087 154.207 21.1784 154.096 21.5666C154.004 21.9362 153.884 22.2782 153.736 22.5924C153.588 22.8881 153.431 23.1376 153.264 23.341C153.098 23.5443 152.941 23.6459 152.793 23.6459C152.59 23.6274 152.47 23.4888 152.433 23.2301C152.433 23.1746 152.451 23.0914 152.488 22.9805C152.544 22.8511 152.599 22.7125 152.654 22.5647C152.71 22.4168 152.756 22.2689 152.793 22.1211C152.848 21.9732 152.876 21.8438 152.876 21.7329C152.876 21.4741 152.812 21.2616 152.682 21.0952C152.571 20.9104 152.414 20.818 152.211 20.818C151.471 20.818 150.908 21.2801 150.52 22.2042C150.131 23.1284 149.937 24.4869 149.937 26.2798C149.937 26.4646 149.947 26.5755 149.965 26.6125C150.353 26.594 150.695 26.5848 150.991 26.5848C151.305 26.5663 151.61 26.557 151.906 26.557C151.924 26.594 151.934 26.6679 151.934 26.7788C151.934 26.9452 151.897 27.0653 151.823 27.1393C151.398 27.2317 151.056 27.3149 150.797 27.3888C150.557 27.4442 150.372 27.4997 150.242 27.5551C150.113 27.6106 150.03 27.6753 149.993 27.7492C149.974 27.8047 149.965 27.8878 149.965 27.9987C149.965 28.1466 149.965 28.2945 149.965 28.4423C149.984 28.5902 149.993 28.775 149.993 28.9968C149.993 30.5494 149.568 31.797 148.717 32.7397C147.886 33.6823 146.721 34.2276 145.224 34.3755C144.965 34.357 144.697 34.283 144.42 34.1537C144.143 34.0243 143.875 33.8579 143.616 33.6546C143.376 33.4513 143.163 33.2202 142.978 32.9615C142.794 32.7212 142.664 32.4717 142.59 32.2129C142.59 31.5105 142.738 30.8452 143.034 30.2167C143.33 29.5698 143.727 29.0061 144.226 28.5255C144.744 28.0265 145.344 27.6291 146.028 27.3333C146.731 27.0191 147.488 26.8343 148.302 26.7788C148.302 26.3168 148.255 25.8639 148.163 25.4203C148.071 24.9767 147.969 24.5516 147.858 24.145C147.766 23.7199 147.673 23.3132 147.581 22.9251C147.488 22.5184 147.442 22.1211 147.442 21.7329C147.442 21.2339 147.544 20.7441 147.747 20.2635C147.95 19.7644 148.218 19.3116 148.551 18.905C148.884 18.4799 149.272 18.1194 149.716 17.8237C150.159 17.528 150.621 17.3247 151.102 17.2138C151.305 17.2692 151.573 17.4356 151.906 17.7128C152.257 17.9716 152.599 18.2673 152.932 18.6C153.264 18.9327 153.56 19.2746 153.819 19.6258C154.078 19.9585 154.235 20.2358 154.29 20.4576ZM145.141 33.1001C145.585 32.9153 146 32.6473 146.389 32.2961C146.795 31.9449 147.146 31.5475 147.442 31.1039C147.738 30.6603 147.969 30.189 148.135 29.6899C148.32 29.1909 148.413 28.7011 148.413 28.2205C148.043 28.276 147.636 28.4516 147.193 28.7473C146.749 29.0246 146.333 29.3665 145.945 29.7731C145.557 30.1613 145.233 30.5679 144.975 30.993C144.716 31.4181 144.586 31.7878 144.586 32.102C144.586 32.5086 144.771 32.8413 145.141 33.1001Z" fill="white"/>
<path d="M69.9631 25.0648C69.9631 26.3973 68.8829 27.4775 67.5504 27.4775C66.2179 27.4775 65.1377 26.3973 65.1377 25.0648C65.1377 23.7323 66.2179 22.6521 67.5504 22.6521C68.8829 22.6521 69.9631 23.7323 69.9631 25.0648Z" fill="#F536B0"/>
</svg>
