<svg width="826" height="799" viewBox="0 0 826 799" fill="none" xmlns="http://www.w3.org/2000/svg">
<g opacity="0.2">
<path d="M-1094 821.478H-1073.78V837.799H-1094V821.478Z" fill="#41683D"/>
<path d="M-1094 850.493H-1087.93V855.933H-1094V850.493Z" fill="#41683D"/>
<path d="M-930.23 850.493H-924.164V855.933H-930.23V850.493Z" fill="#41683D"/>
<path d="M-1094 739.874H-1087.93V745.314H-1094V739.874Z" fill="#41683D"/>
<path d="M-1094 656.457H-1087.93V661.897H-1094V656.457Z" fill="#41683D"/>
<path d="M-1094 491.436H-1057.61V496.876H-1094V491.436Z" fill="#41683D"/>
<path d="M-932.251 491.436H-910.011V496.876H-932.251V491.436Z" fill="#41683D"/>
<path d="M-932.251 573.04H-916.077V578.48H-932.251V573.04Z" fill="#41683D"/>
<path d="M-1071.76 656.457H-1065.69V661.897H-1071.76V656.457Z" fill="#41683D"/>
<path d="M-930.23 656.457H-924.164V661.897H-930.23V656.457Z" fill="#41683D"/>
<path d="M-930.23 409.832H-924.164V415.273H-930.23V409.832Z" fill="#41683D"/>
<path d="M-1094 409.832H-1087.93V415.273H-1094V409.832Z" fill="#41683D"/>
<path d="M-1094 324.602H-1087.93V330.042H-1094V324.602Z" fill="#41683D"/>
<path d="M-1094 221.237H-1039.41V226.677H-1094V221.237Z" fill="#41683D"/>
<path d="M-1094 2.9615e-05H-1077.83V5.44028H-1094V2.9615e-05Z" fill="#41683D"/>
<path d="M-930.23 77.977H-914.055V83.4172H-930.23V77.977Z" fill="#41683D"/>
<path d="M-1094 79.7904H-1085.91V85.2306H-1094V79.7904Z" fill="#41683D"/>
<path d="M-1094 187.811H-1039.41V208.543H-1094V187.811Z" fill="#41683D"/>
<path d="M-1069.74 324.602H-1063.67V330.042H-1069.74V324.602Z" fill="#41683D"/>
<path d="M-1094 335.482H-1087.93V340.922H-1094V335.482Z" fill="#41683D"/>
<path d="M-1069.74 335.482H-1063.67V340.922H-1069.74V335.482Z" fill="#41683D"/>
<path d="M-930.23 738.061H-924.164V743.501H-930.23V738.061Z" fill="#41683D"/>
<path d="M-905.967 656.457H-899.902V661.897H-905.967V656.457Z" fill="#41683D"/>
<path d="M-1094 859.56H-1087.93V865H-1094V859.56Z" fill="#41683D"/>
<path d="M-930.23 859.56H-924.164V865H-930.23V859.56Z" fill="#41683D"/>
<path d="M392.688 792.463H224.874V796.09H392.688V792.463Z" fill="#41683D"/>
<path d="M392.688 821.478H372.47V837.799H392.688V821.478Z" fill="#41683D"/>
<path d="M392.688 850.493H386.623V855.933H392.688V850.493Z" fill="#41683D"/>
<path d="M228.918 850.493H222.852V855.933H228.918V850.493Z" fill="#41683D"/>
<path d="M392.688 739.874H386.623V745.314H392.688V739.874Z" fill="#41683D"/>
<path d="M392.688 656.457H386.623V661.897H392.688V656.457Z" fill="#41683D"/>
<path d="M392.688 491.436H356.295V496.876H392.688V491.436Z" fill="#41683D"/>
<path d="M230.94 491.436H208.699V496.876H230.94V491.436Z" fill="#41683D"/>
<path d="M230.94 573.04H214.765V578.48H230.94V573.04Z" fill="#41683D"/>
<path d="M370.448 656.457H364.382V661.897H370.448V656.457Z" fill="#41683D"/>
<path d="M228.918 656.457H222.852V661.897H228.918V656.457Z" fill="#41683D"/>
<path d="M228.918 409.832H222.852V415.273H228.918V409.832Z" fill="#41683D"/>
<path d="M392.688 409.832H386.623V415.273H392.688V409.832Z" fill="#41683D"/>
<path d="M392.688 324.602H386.623V330.042H392.688V324.602Z" fill="#41683D"/>
<path d="M392.688 221.237H338.098V226.677H392.688V221.237Z" fill="#41683D"/>
<path d="M392.688 2.9615e-05H376.514V5.44028H392.688V2.9615e-05Z" fill="#41683D"/>
<path d="M228.918 77.977H212.743V83.4172H228.918V77.977Z" fill="#41683D"/>
<path d="M392.688 79.7904H384.601V85.2306H392.688V79.7904Z" fill="#41683D"/>
<path d="M392.688 159.581H338.098V208.543H392.688V159.581Z" fill="#41683D"/>
<path d="M368.426 324.602H362.361V330.042H368.426V324.602Z" fill="#41683D"/>
<path d="M392.688 335.482H386.623V340.922H392.688V335.482Z" fill="#41683D"/>
<path d="M368.426 335.482H362.361V340.922H368.426V335.482Z" fill="#41683D"/>
<path d="M228.918 738.061H222.852V743.501H228.918V738.061Z" fill="#41683D"/>
<path d="M204.656 656.457H198.59V661.897H204.656V656.457Z" fill="#41683D"/>
<path d="M392.688 859.56H386.623V865H392.688V859.56Z" fill="#41683D"/>
<path d="M228.918 859.56H222.852V865H228.918V859.56Z" fill="#41683D"/>
<path d="M-245.213 72.5367L-77.3989 72.5367V68.9099L-245.213 68.9098V72.5367Z" fill="#41683D"/>
<path d="M-245.213 43.522L-224.994 43.522V27.2013L-245.213 27.2013V43.522Z" fill="#41683D"/>
<path d="M-245.213 14.5074L-239.147 14.5074V9.06711L-245.213 9.0671V14.5074Z" fill="#41683D"/>
<path d="M-81.4426 14.5074L-75.377 14.5074V9.06713L-81.4426 9.06713V14.5074Z" fill="#41683D"/>
<path d="M-245.213 125.126H-239.148V119.686H-245.213V125.126Z" fill="#41683D"/>
<path d="M-245.213 208.543H-239.148V203.103H-245.213V208.543Z" fill="#41683D"/>
<path d="M-245.213 373.564H-208.82L-208.82 368.124H-245.213L-245.213 373.564Z" fill="#41683D"/>
<path d="M-83.4645 373.564H-61.2241V368.124H-83.4645V373.564Z" fill="#41683D"/>
<path d="M-83.4645 291.96H-67.2896V286.52H-83.4645L-83.4645 291.96Z" fill="#41683D"/>
<path d="M-222.973 208.543H-216.907V203.103H-222.973V208.543Z" fill="#41683D"/>
<path d="M-81.4426 208.543H-75.377V203.103H-81.4426V208.543Z" fill="#41683D"/>
<path d="M-81.4427 455.168H-75.3771V449.727H-81.4427V455.168Z" fill="#41683D"/>
<path d="M-245.213 455.168H-239.148V449.727H-245.213V455.168Z" fill="#41683D"/>
<path d="M-245.213 540.398H-239.148V534.958H-245.213V540.398Z" fill="#41683D"/>
<path d="M-245.213 643.763H-190.623V638.323H-245.213V643.763Z" fill="#41683D"/>
<path d="M-245.213 865H-229.038V859.56H-245.213V865Z" fill="#41683D"/>
<path d="M-81.4427 787.023H-65.2679V781.583H-81.4427V787.023Z" fill="#41683D"/>
<path d="M-245.213 785.21H-237.126V779.769H-245.213V785.21Z" fill="#41683D"/>
<path d="M-220.951 540.398H-214.885V534.958H-220.951V540.398Z" fill="#41683D"/>
<path d="M-245.213 529.518H-239.148V524.078H-245.213V529.518Z" fill="#41683D"/>
<path d="M-220.951 529.518H-214.885V524.078H-220.951V529.518Z" fill="#41683D"/>
<path d="M-81.4426 126.939H-75.377V121.499H-81.4426V126.939Z" fill="#41683D"/>
<path d="M-57.1803 208.543H-51.1147V203.103H-57.1803V208.543Z" fill="#41683D"/>
<path d="M-245.213 5.44025L-239.147 5.44025V9.51204e-07L-245.213 0V5.44025Z" fill="#41683D"/>
<path d="M-81.4426 5.44028L-75.377 5.44028V2.66337e-05L-81.4426 2.56825e-05V5.44028Z" fill="#41683D"/>
<path d="M826 72.5367H658.186V68.9099H826V72.5367Z" fill="#41683D"/>
<path d="M826 43.5221H805.781V27.2013H826V43.5221Z" fill="#41683D"/>
<path d="M826 14.5074H819.934V9.06716H826V14.5074Z" fill="#41683D"/>
<path d="M662.229 14.5074H656.164V9.06716H662.229V14.5074Z" fill="#41683D"/>
<path d="M826 125.126H819.934V119.686H826V125.126Z" fill="#41683D"/>
<path d="M826 208.543H819.934V203.103H826V208.543Z" fill="#41683D"/>
<path d="M826 373.564H789.606V368.124H826V373.564Z" fill="#41683D"/>
<path d="M664.251 373.564H642.011V368.124H664.251V373.564Z" fill="#41683D"/>
<path d="M664.251 291.96H648.076V286.52H664.251V291.96Z" fill="#41683D"/>
<path d="M803.759 208.543H797.694V203.103H803.759V208.543Z" fill="#41683D"/>
<path d="M662.229 208.543H656.164V203.103H662.229V208.543Z" fill="#41683D"/>
<path d="M662.229 455.168H656.164V449.727H662.229V455.168Z" fill="#41683D"/>
<path d="M826 455.168H819.934V449.727H826V455.168Z" fill="#41683D"/>
<path d="M826 540.398H819.934V534.958H826V540.398Z" fill="#41683D"/>
<path d="M826 643.763H771.41V638.323H826V643.763Z" fill="#41683D"/>
<path d="M826 865H809.825V859.56H826V865Z" fill="#41683D"/>
<path d="M662.229 787.023H646.055V781.583H662.229V787.023Z" fill="#41683D"/>
<path d="M826 785.21H817.912V779.769H826V785.21Z" fill="#41683D"/>
<path d="M826 705.419H771.41V656.457H826V705.419Z" fill="#41683D"/>
<path d="M801.738 540.398H795.672V534.958H801.738V540.398Z" fill="#41683D"/>
<path d="M826 529.518H819.934V524.078H826V529.518Z" fill="#41683D"/>
<path d="M801.738 529.518H795.672V524.078H801.738V529.518Z" fill="#41683D"/>
<path d="M662.229 126.939H656.164V121.499H662.229V126.939Z" fill="#41683D"/>
<path d="M637.967 208.543H631.902V203.103H637.967V208.543Z" fill="#41683D"/>
<path d="M826 5.44031H819.934V5.74351e-05H826V5.44031Z" fill="#41683D"/>
<path d="M662.229 5.44031H656.164V5.74351e-05H662.229V5.44031Z" fill="#41683D"/>
<path d="M-704.754 678.473H-536.94V682.1H-704.754V678.473Z" fill="#41683D"/>
</g>
</svg>
