<svg width="420" height="38" viewBox="0 0 420 38" fill="none" xmlns="http://www.w3.org/2000/svg">
<path d="M124.736 9.71586C132.956 9.71586 138.774 15.589 138.774 23.8532C138.774 32.1174 132.966 37.9905 124.736 37.9905C121.617 37.9905 118.851 36.9563 116.677 35.1441L115.809 37.1176H109V0.948814H118.089V11.5471C120.005 10.3705 122.266 9.72534 124.736 9.71586ZM129.485 23.8627C129.485 20.3995 126.958 17.8092 123.505 17.8092C120.053 17.8092 117.516 20.39 117.516 23.8627C117.516 27.3069 120.044 29.8876 123.496 29.8876C126.929 29.8876 129.485 27.2974 129.485 23.8627Z" fill="#80DC6A"/>
<path d="M170.503 23.578C170.503 24.3845 170.436 25.1815 170.312 25.9975H150.475C151.076 29.0527 153.022 30.6277 155.921 30.6277C158.067 30.6277 159.86 29.6979 160.747 28.1418H169.902C168.023 34.2047 162.625 38 155.921 38C147.595 38 141.416 31.9466 141.416 23.8152C141.416 15.6649 147.538 9.6779 155.921 9.6779C164.533 9.6779 170.503 15.7883 170.503 23.578ZM150.647 20.9403H161.452C160.642 18.2836 158.715 16.8509 155.95 16.8509C153.251 16.8509 151.381 18.3026 150.647 20.9403Z" fill="#80DC6A"/>
<path d="M192.304 37.1271H185.971C180.068 37.1271 176.473 33.5406 176.473 27.6295V17.591H171.59V15.4467L183.549 2.77054H185.447V10.5413H192.161V17.591H185.676V26.0449C185.676 27.9426 186.83 29.1001 188.766 29.1001H192.304V37.1271Z" fill="#80DC6A"/>
<path d="M214.458 18.1793H208.469V37.1271H199.266V18.1793H194.85L194.831 10.9873H199.38V8.44444C199.38 3.1216 202.317 0 207.982 0H214.401V7.02122H210.338C208.974 7.02122 208.154 7.82772 208.154 9.18452V10.9873H214.448V18.1793H214.458Z" fill="white"/>
<path d="M235.353 10.418V18.796H231.777C228.515 18.796 227.151 20.2192 227.151 23.6065V37.1271H217.948V10.5603H224.109L225.54 13.5111C227.418 11.3383 229.717 10.437 232.902 10.437H235.353V10.418Z" fill="white"/>
<path d="M236.841 23.8342C236.841 15.5985 243.106 9.6779 251.823 9.6779C260.501 9.6779 266.805 15.589 266.805 23.8342C266.805 32.0414 260.501 37.9905 251.823 37.9905C243.097 37.9905 236.841 32.0414 236.841 23.8342ZM251.804 29.7738C255.161 29.7738 257.564 27.3543 257.564 23.8342C257.564 20.3331 255.151 17.8946 251.804 17.8946C248.447 17.8946 246.044 20.3141 246.044 23.8342C246.044 27.3543 248.447 29.7738 251.804 29.7738Z" fill="white"/>
<path d="M312 20.4469V37.1081H302.797V21.576C302.797 18.8055 301.767 17.4582 299.822 17.4582C297.294 17.4582 295.997 19.1945 295.997 22.5343V37.1081H287.042V21.576C287.042 18.8814 286.022 17.4582 284.105 17.4582C281.606 17.4582 280.243 19.242 280.243 22.5343V37.1081H271.03V10.5413H277.505L278.822 13.3973C280.748 11.1581 283.552 9.75381 286.632 9.75381C289.894 9.75381 292.631 11.2055 294.29 13.6629C296.207 11.2529 299.173 9.75381 302.492 9.75381C308.195 9.75381 312 14.1943 312 20.4469Z" fill="white"/>
<path d="M75.668 22.0031L60.6649 7.00001L0.000421345 7.00001" stroke="url(#paint0_linear_54_1069)" stroke-width="1.56552"/>
<path d="M100 23.4886L44.0189 23.4886L27.7112 7.18099L3.3325 7.18099" stroke="url(#paint1_linear_54_1069)" stroke-width="1.56552"/>
<path d="M344.332 22.0031L359.335 7.00001L420 7.00001" stroke="url(#paint2_linear_54_1069)" stroke-width="1.56552"/>
<path d="M320 23.4886L375.981 23.4886L392.289 7.18099L416.667 7.18099" stroke="url(#paint3_linear_54_1069)" stroke-width="1.56552"/>
<defs>
<linearGradient id="paint0_linear_54_1069" x1="75.668" y1="14.5015" x2="0.000419289" y2="14.5015" gradientUnits="userSpaceOnUse">
<stop offset="0.0364583" stop-color="#7EF572" stop-opacity="0"/>
<stop offset="0.447917" stop-color="#7EF572"/>
<stop offset="1" stop-color="#7EF572" stop-opacity="0"/>
</linearGradient>
<linearGradient id="paint1_linear_54_1069" x1="127" y1="15.3348" x2="-6.99999" y2="15.3348" gradientUnits="userSpaceOnUse">
<stop offset="0.0364583" stop-color="#7EF572" stop-opacity="0"/>
<stop offset="0.447917" stop-color="#7EF572"/>
<stop offset="1" stop-color="#7EF572" stop-opacity="0"/>
</linearGradient>
<linearGradient id="paint2_linear_54_1069" x1="344.332" y1="14.5015" x2="420" y2="14.5015" gradientUnits="userSpaceOnUse">
<stop offset="0.0364583" stop-color="#7EF572" stop-opacity="0"/>
<stop offset="0.447917" stop-color="#7EF572"/>
<stop offset="1" stop-color="#7EF572" stop-opacity="0"/>
</linearGradient>
<linearGradient id="paint3_linear_54_1069" x1="293" y1="15.3348" x2="427" y2="15.3348" gradientUnits="userSpaceOnUse">
<stop offset="0.0364583" stop-color="#7EF572" stop-opacity="0"/>
<stop offset="0.447917" stop-color="#7EF572"/>
<stop offset="1" stop-color="#7EF572" stop-opacity="0"/>
</linearGradient>
</defs>
</svg>
