<svg width="1920" height="79" viewBox="0 0 1920 79" fill="none" xmlns="http://www.w3.org/2000/svg">
<path d="M452.807 29.0001L406.807 75.0001L220.807 75" stroke="url(#paint0_linear_1_624)" stroke-width="4"/>
<path d="M874.807 27.0001L268.807 27L218.807 77L-114 77" stroke="url(#paint1_linear_1_624)" stroke-width="4"/>
<path d="M1438 29.0001L1484 75.0001L1670 75" stroke="url(#paint2_linear_1_624)" stroke-width="4"/>
<path d="M1016 27.0001L1622 27L1672 77L2004.81 77" stroke="url(#paint3_linear_1_624)" stroke-width="4"/>
<path d="M852.767 12.2727C863.093 12.2727 870.401 19.6914 870.401 30.1303C870.401 40.5693 863.105 47.988 852.767 47.988C848.849 47.988 845.375 46.6816 842.644 44.3925L841.554 46.8854H833V1.1985H844.417V14.5858C846.825 13.0996 849.664 12.2846 852.767 12.2727ZM858.732 30.1423C858.732 25.7678 855.558 22.4959 851.221 22.4959C846.884 22.4959 843.698 25.7558 843.698 30.1423C843.698 34.4929 846.872 37.7528 851.209 37.7528C855.522 37.7528 858.732 34.4809 858.732 30.1423Z" fill="#80DC6A"/>
<path d="M910.257 29.7828C910.257 30.8015 910.173 31.8082 910.018 32.839H885.1C885.854 36.6981 888.298 38.6876 891.94 38.6876C894.636 38.6876 896.888 37.5131 898.002 35.5476H909.502C907.142 43.206 900.362 48 891.94 48C881.482 48 873.719 40.3536 873.719 30.0824C873.719 19.7873 881.41 12.2247 891.94 12.2247C902.758 12.2247 910.257 19.9431 910.257 29.7828ZM885.315 26.4509H898.888C897.87 23.0951 895.45 21.2854 891.976 21.2854C888.586 21.2854 886.238 23.1191 885.315 26.4509Z" fill="#80DC6A"/>
<path d="M937.643 46.8974H929.688C922.273 46.8974 917.756 42.367 917.756 34.9004V22.2202H911.623V19.5116L926.645 3.49963H929.029V13.3154H937.463V22.2202H929.317V32.8989C929.317 35.2959 930.766 36.7581 933.198 36.7581H937.643V46.8974Z" fill="#80DC6A"/>
<path d="M965.472 22.9633H957.948V46.8974H946.388V22.9633H940.841L940.817 13.8787H946.532V10.6667C946.532 3.94307 950.221 0 957.337 0H965.4V8.86891H960.296C958.583 8.86891 957.553 9.88764 957.553 11.6015V13.8787H965.46V22.9633H965.472Z" fill="white"/>
<path d="M991.719 13.1596V23.7423H987.227C983.13 23.7423 981.417 25.5401 981.417 29.8187V46.8974H969.856V13.3393H977.595L979.392 17.0667C981.752 14.3221 984.639 13.1835 988.64 13.1835H991.719V13.1596Z" fill="white"/>
<path d="M993.588 30.1064C993.588 19.7034 1001.46 12.2247 1012.41 12.2247C1023.31 12.2247 1031.23 19.6914 1031.23 30.1064C1031.23 40.4734 1023.31 47.988 1012.41 47.988C1001.45 47.988 993.588 40.4734 993.588 30.1064ZM1012.38 37.609C1016.6 37.609 1019.62 34.5528 1019.62 30.1064C1019.62 25.6839 1016.59 22.6037 1012.38 22.6037C1008.17 22.6037 1005.15 25.6599 1005.15 30.1064C1005.15 34.5528 1008.17 37.609 1012.38 37.609Z" fill="white"/>
<path d="M1088 25.8277V46.8734H1076.44V27.2539C1076.44 23.7543 1075.15 22.0524 1072.7 22.0524C1069.53 22.0524 1067.9 24.2457 1067.9 28.4644V46.8734H1056.65V27.2539C1056.65 23.8502 1055.37 22.0524 1052.96 22.0524C1049.82 22.0524 1048.11 24.3056 1048.11 28.4644V46.8734H1036.54V13.3154H1044.67L1046.32 16.9228C1048.74 14.0944 1052.26 12.3206 1056.13 12.3206C1060.23 12.3206 1063.67 14.1543 1065.75 17.2584C1068.16 14.2142 1071.89 12.3206 1076.06 12.3206C1083.22 12.3206 1088 17.9296 1088 25.8277Z" fill="white"/>
<defs>
<linearGradient id="paint0_linear_1_624" x1="452.807" y1="52.0001" x2="220.807" y2="52" gradientUnits="userSpaceOnUse">
<stop offset="0.0364583" stop-color="#7EF572" stop-opacity="0"/>
<stop offset="0.447917" stop-color="#7EF572"/>
<stop offset="1" stop-color="#7EF572" stop-opacity="0"/>
</linearGradient>
<linearGradient id="paint1_linear_1_624" x1="874.807" y1="52.0001" x2="-97.1934" y2="52" gradientUnits="userSpaceOnUse">
<stop offset="0.0364583" stop-color="#7EF572" stop-opacity="0"/>
<stop offset="0.447917" stop-color="#7EF572"/>
<stop offset="1" stop-color="#7EF572" stop-opacity="0"/>
</linearGradient>
<linearGradient id="paint2_linear_1_624" x1="1438" y1="52.0001" x2="1670" y2="52" gradientUnits="userSpaceOnUse">
<stop offset="0.0364583" stop-color="#7EF572" stop-opacity="0"/>
<stop offset="0.447917" stop-color="#7EF572"/>
<stop offset="1" stop-color="#7EF572" stop-opacity="0"/>
</linearGradient>
<linearGradient id="paint3_linear_1_624" x1="1016" y1="52.0001" x2="1988" y2="52" gradientUnits="userSpaceOnUse">
<stop offset="0.0364583" stop-color="#7EF572" stop-opacity="0"/>
<stop offset="0.447917" stop-color="#7EF572"/>
<stop offset="1" stop-color="#7EF572" stop-opacity="0"/>
</linearGradient>
</defs>
</svg>
