<svg width="668" height="668" viewBox="0 0 668 668" fill="none" xmlns="http://www.w3.org/2000/svg">
<path d="M224.647 568.449C264.313 568.984 304.016 569.234 343.468 564.488C374.459 560.741 404.914 554.104 434.476 543.791C462.325 534.085 488.496 520.81 511.346 502.29C523.021 492.797 533.768 481.164 542.015 468.603C564.615 434.024 571.685 395.556 565.151 354.769C562.152 336.177 556.011 318.441 545.835 302.597C532.018 281.079 514.202 263.415 492.28 249.891C473.536 238.293 453.578 229.622 432.263 224.341C419.981 221.272 407.413 219.345 394.274 216.775C396.845 215.919 398.987 214.92 401.236 214.492C421.373 210.638 441.617 209.71 462.004 212.743C489.71 216.847 515.809 225.768 538.73 241.862C575.041 267.376 599.212 302.098 612.208 344.491C622.562 378.285 622.598 411.757 607.888 444.48C593.535 476.382 571.649 502.325 543.729 522.951C507.918 549.429 467.002 564.631 423.408 571.589C393.739 576.335 363.641 578.833 333.614 580.76C288.092 583.687 242.82 580.439 198.048 571.447C193.728 570.59 189.515 569.163 185.266 568.021C198.619 567.414 211.651 568.342 224.683 568.52L224.647 568.449ZM50.8423 230.478C55.6266 196.114 67.98 164.497 89.1522 136.663C110.896 108.115 140.315 92.1641 174.983 85.0985C218.47 76.2486 260.529 80.9234 300.303 100.621C325.366 113.04 345.682 131.703 362.534 154.077C374.923 170.528 383.813 188.727 390.025 208.282C390.704 210.459 390.882 212.814 391.346 215.491C382.813 205.178 375.101 195.079 366.568 185.73C351.716 169.564 334.578 156.183 315.441 145.263C293.09 132.488 269.026 125.28 243.498 123.424C224.718 122.068 206.188 125.101 188.444 131.382C149.455 145.12 119.036 169.707 99.4347 206.07C92.294 219.309 87.2241 234.297 84.475 249.07C79.0837 277.975 79.9407 307.272 84.6892 336.391C89.7591 367.258 98.435 397.198 109.967 426.174C124.606 463.072 143.814 497.829 163.237 532.407C169.628 543.755 176.626 554.782 182.481 566.772C179.446 563.596 176.162 560.563 173.341 557.208C144.028 522.166 119.572 483.983 100.399 442.625C87.7597 415.326 75.5848 387.706 65.5878 359.408C50.878 317.799 44.7013 274.62 50.8423 230.514V230.478Z" fill="#9C292A"/>
</svg>
