<svg width="610" height="273" viewBox="0 0 610 273" fill="none" xmlns="http://www.w3.org/2000/svg">
<path d="M28.2662 41.4493L29.2869 43.3499C28.9638 43.6642 28.5567 43.8783 28.1147 43.9665C27.6727 44.0546 27.2146 44.0131 26.7956 43.8468C23.9686 43.0208 21.1349 42.2216 18.3012 41.4225C17.8513 41.2949 17.388 41.221 16.9582 41.127C16.6829 41.3687 16.374 41.5165 16.2867 41.7448C16.2028 42.0247 16.0208 42.2649 15.7741 42.4215C15.5275 42.5782 15.2327 42.6407 14.9437 42.5977C13.8968 42.5655 12.8544 42.4442 11.828 42.2351C9.96732 41.8566 8.07277 41.6698 6.17401 41.6776C6.45604 43.0208 7.6983 43.4103 8.30936 44.3639C8.40594 44.61 8.40594 44.8835 8.30936 45.1295C8.25706 45.206 8.18691 45.2686 8.10501 45.3118C8.02312 45.3551 7.93194 45.3778 7.83931 45.378C7.09395 45.2437 6.34859 45.0825 5.61666 44.8877C4.40472 44.5882 3.12787 44.6968 1.98389 45.1967C1.51384 45.3847 1.10421 45.7339 1.25194 46.2645C1.39524 46.6977 1.66693 47.0772 2.0309 47.3524C2.35285 47.554 2.7367 47.6327 3.112 47.574C5.03919 47.2853 6.84549 48.165 8.75925 48.118C9.74635 48.118 10.532 48.7426 11.1498 49.7432C10.7267 49.9245 10.3373 50.126 9.92765 50.2603C9.51804 50.3946 8.85326 50.3342 8.58466 50.623C8.17879 51.0888 7.66217 51.445 7.08244 51.6586C6.50271 51.8722 5.87853 51.9364 5.26747 51.8452L5.87855 53.9741C6.75821 54.4173 7.59757 54.8337 8.42351 55.2702C8.92041 55.5322 9.37031 56.009 9.88736 56.0828C12.0697 56.3985 13.0434 58.0976 14.1245 59.6489C14.796 60.5689 15.1519 61.6636 13.9096 62.671C13.5873 62.9262 13.6813 63.7119 13.5403 64.4708C13.0787 64.8169 12.5434 65.0516 11.9761 65.1564C11.4088 65.2613 10.8249 65.2335 10.2701 65.0751C9.34141 64.8679 8.40218 64.711 7.45655 64.605C7.11723 64.5408 6.76761 64.5565 6.43541 64.6509C6.10322 64.7454 5.79761 64.9159 5.54281 65.149C6.32711 65.7714 7.31796 66.0737 8.31609 65.9952C10.3148 66.0626 12.2519 66.7037 13.8962 67.842C15.1318 68.6949 16.6695 69.1381 17.6163 70.7029C17.1321 70.9371 16.6082 71.0784 16.0719 71.1193C15.1385 70.9917 14.2387 70.6223 13.312 70.4141C12.9581 70.3053 12.5822 70.2889 12.2202 70.3665C11.8582 70.4441 11.522 70.6131 11.2438 70.8574C9.82023 72.0125 8.24221 71.764 6.75149 70.7701C5.62338 70.0112 5.60996 70.0314 4.11924 69.8433L3.55516 71.9789C3.70512 72.0932 3.87305 72.1817 4.05206 72.2408C4.61612 72.3147 5.18692 72.3214 5.75769 72.3953C6.90917 72.4935 7.98001 73.0265 8.75253 73.8861C9.37702 74.6249 10.0955 75.3838 11.0692 75.4509C12.8151 75.5785 14.1984 76.5792 15.7697 77.1366C16.35 77.3184 16.8577 77.6797 17.2197 78.1685C17.5817 78.6572 17.7793 79.2482 17.7842 79.8564C17.2219 79.8217 16.6631 79.7454 16.1121 79.6281C13.9231 78.9565 11.7608 78.2849 9.56506 77.6604C8.91258 77.5666 8.25006 77.5666 7.59758 77.6604L7.63787 77.5597C7.5903 78.0317 7.62208 78.5084 7.73189 78.9699C7.96814 79.4258 8.08241 79.935 8.06358 80.4481C8.04475 80.9612 7.89345 81.4607 7.62443 81.898C7.43641 82.2069 7.68486 82.7912 7.75201 83.4224L5.73752 84.094C5.73752 84.3425 5.63009 84.5776 5.73752 84.6917C6.07327 85.1417 6.46274 85.5513 6.83207 85.9811L10.4582 85.5513L10.9752 84.6179C12.4122 84.9201 13.8626 85.2222 15.3063 85.5513C15.3869 85.5513 15.4071 85.867 15.4675 86.0752C15.0915 86.2968 14.6953 86.5117 14.3193 86.7467C14.2655 86.7467 14.3192 86.9213 14.2454 87.1698L15.5884 88.0227C16.0018 88.2488 16.4009 88.5 16.7836 88.7749C17.153 89.0771 17.8379 89.0637 17.9252 89.7419C17.7279 89.8097 17.5223 89.8504 17.3141 89.8628C13.8895 89.4196 10.9483 87.5526 7.71844 86.505C7.39656 86.3438 7.102 86.133 6.84551 85.8804C4.79073 86.1961 2.72924 86.4983 0.674463 86.834C0.117122 86.9281 -0.09105 87.331 0.0365342 87.969C2.99111 89.3726 5.97254 90.8164 9.33673 91.2395C11.6198 91.5283 13.6276 92.6834 15.7159 93.5565C18.2408 94.6108 20.8462 95.4973 23.1024 97.1359C23.9678 97.7303 25.001 98.0317 26.0503 97.9955C30.0792 97.7336 33.383 99.6476 36.8949 100.997C37.7554 101.381 38.6364 101.718 39.5339 102.005C41.8304 102.609 44.1135 103.193 46.1951 104.436C46.5884 104.691 47.0287 104.864 47.49 104.946C47.9513 105.028 48.4242 105.016 48.8811 104.913C49.4746 104.729 50.1041 104.694 50.7142 104.811C51.3243 104.929 51.8963 105.194 52.3796 105.584C53.0121 106.012 53.7658 106.224 54.5284 106.189C55.3691 106.302 56.1952 106.504 56.9928 106.793C57.279 106.832 57.5384 106.982 57.7145 107.211C57.8906 107.44 57.9691 107.729 57.9329 108.015C57.9329 108.177 58.2418 108.485 58.4566 108.532C59.202 108.7 58.9938 109.043 58.7521 109.513C58.6447 109.728 58.7521 110.05 58.7521 110.52L61.5925 110.695C61.653 109.52 60.0481 109.822 60.1757 108.801C62.9087 108.633 63.2176 108.707 65.4335 109.741C66.1959 110.121 67.0183 110.367 67.8643 110.467C69.8184 110.661 71.5911 111.568 73.3639 112.374C73.6894 112.579 73.9834 112.83 74.2368 113.119C73.9615 113.865 73.6996 114.55 73.4646 115.181C74.2972 116.423 75.5798 116.605 76.7012 117.068C76.9672 117.164 77.2059 117.323 77.3968 117.532C77.5878 117.741 77.7251 117.993 77.7971 118.266C77.8692 118.54 77.8736 118.826 77.8102 119.102C77.7468 119.378 77.6174 119.634 77.4331 119.848C77.0291 120.243 76.5088 120.497 75.9491 120.574C74.4382 120.735 72.9072 120.842 71.477 120.083C71.0808 119.875 70.6443 119.754 69.8452 119.412C70.7367 121.336 72.2706 122.889 74.1831 123.804C75.2723 124.359 76.2033 125.181 76.889 126.194C77.5747 127.206 77.993 128.375 78.1046 129.593C78.0873 129.968 78.1973 130.338 78.4167 130.643C78.6361 130.948 78.9521 131.169 79.3133 131.272C80.5824 131.655 81.8918 131.943 83.1744 132.252C84.0003 132.467 84.8196 132.682 85.6254 132.924C85.8873 133.004 86.2969 133.172 86.2969 133.374C86.7468 134.939 88.3852 135.845 88.5799 137.732L86.8139 141.554C86.0954 142.118 85.0949 142.151 84.007 142.044C83.0749 142.012 82.1416 142.044 81.2136 142.138C81.7911 144.253 83.3087 145.16 85.0881 145.778C85.3232 146.611 85.5515 147.41 85.8201 148.35C86.3976 148.195 86.834 148.068 87.2705 147.974C87.533 147.88 87.8155 147.857 88.0897 147.907C90.1042 148.746 92.065 149.572 94.0056 150.506C95.1203 151.036 95.3486 152.151 94.751 153.36C94.6704 153.534 94.5764 153.702 94.4958 153.877C94.4152 154.052 94.4555 154.051 94.3951 154.287C95.0196 155.106 95.7381 155.972 96.3693 156.886C96.6916 157.349 97.1684 157.9 97.1281 158.376C96.9737 160.21 97.4907 162.198 96.0806 163.749C96.5926 164.514 97.0525 165.313 97.4571 166.14C97.625 166.523 97.4235 167.06 97.3698 167.691L95.2345 168.295C95.2345 168.463 95.1136 168.698 95.1875 168.792C95.7649 169.558 96.3827 170.303 96.4096 171.318C96.4096 172.056 96.5976 172.889 95.6776 173.285C94.7577 173.681 95.315 175.3 94.1198 175.461C93.2714 175.499 92.4217 175.42 91.5949 175.226C90.299 175.004 89.5805 176.032 88.3785 176.569L84.4704 176.052C84.7054 175.448 84.8531 175.052 85.0277 174.608L83.396 172.735H83.4833C83.388 172.998 83.3358 173.274 83.3288 173.554C83.3825 174.011 83.6444 174.44 83.1207 174.823C82.5969 175.206 82.2142 175.616 81.6031 175.428C80.7721 175.25 79.9774 174.932 79.2529 174.487C78.3377 173.796 77.2412 173.385 76.0968 173.305C74.9889 173.198 74.0085 172.466 72.7394 172.916C71.6583 173.312 70.7786 172.52 69.7579 171.989C69.8989 171.445 70.0064 171.002 70.1205 170.565C69.3752 170.122 68.6701 170.371 67.9314 170.646C66.8235 171.049 65.917 170.941 65.3529 169.672C65.1755 169.334 64.8991 169.057 64.5606 168.88C64.4349 168.795 64.2915 168.74 64.1415 168.719C63.9914 168.698 63.8385 168.711 63.6943 168.758C63.5501 168.804 63.4184 168.883 63.309 168.988C63.1997 169.093 63.1156 169.221 63.0631 169.363C63.6515 170.166 64.3027 170.92 65.0105 171.62C65.4604 172.016 66.2124 172.043 66.7899 172.291C66.9019 172.364 66.9943 172.464 67.0587 172.581C67.1231 172.698 67.1577 172.829 67.1592 172.963C67.1222 173.096 67.0533 173.218 66.9585 173.319C66.8638 173.419 66.746 173.495 66.6153 173.54C65.7827 173.608 64.9433 173.54 64.0502 173.574L63.4593 175.542L60.3503 175.32C59.9474 174.319 60.9479 174.044 61.3508 173.5C61.4938 173.354 61.6061 173.181 61.6813 172.99C61.7564 172.8 61.7929 172.597 61.7885 172.392C61.7841 172.188 61.739 171.986 61.6558 171.799C61.5725 171.613 61.4529 171.444 61.3038 171.304C60.0279 171.304 59.0274 170.572 58.1008 169.538C57.3286 168.658 56.3482 168.974 55.9184 170.129C55.4887 171.284 55.0522 172.641 54.5754 173.89C54.1927 174.924 55.9184 175.904 54.4881 177.093L56.5026 178.329C56.3952 179.034 56.281 179.753 56.1534 180.532C55.0186 180.464 53.9912 180.256 53.4674 179.464C52.8698 178.524 52.1244 178.745 51.5134 179.02C50.4075 179.575 49.3336 180.192 48.2969 180.867C48.2649 181.597 48.1682 182.323 48.0082 183.036C47.706 183.977 46.7189 183.601 46.0608 183.842C45.6042 184.386 46.2153 184.655 46.3362 185.051C46.4287 185.554 46.4803 186.064 46.4906 186.576C47.2091 186.455 47.8336 186.401 48.4581 186.233C49.8011 185.85 51.1911 185.441 52.5341 184.984C53.3609 184.776 54.1512 184.443 54.8776 183.997C57.0196 182.425 59.5781 181.868 62.029 181.264C64.0435 180.753 66.0177 180.061 67.9784 179.383C68.4809 179.11 69.0339 178.943 69.6035 178.893C71.8395 179.135 73.948 178.423 76.1103 178.181C76.482 178.111 76.8613 178.091 77.2384 178.121C79.8841 178.591 82.5163 178.161 85.1553 178.033C86.0904 177.921 87.0383 177.987 87.9487 178.228C88.6614 178.489 89.42 178.601 90.1777 178.557C90.9354 178.513 91.676 178.314 92.3537 177.973C92.7635 177.733 93.223 177.59 93.6967 177.556C95.3097 177.553 96.9164 177.756 98.4778 178.161C98.8347 178.279 99.1601 178.477 99.4289 178.74C99.6977 179.003 99.9029 179.324 100.029 179.679C100.459 180.619 99.7536 181.075 99.3239 181.693C99.7805 182.123 100.486 182.486 100.62 182.989C100.841 183.836 101.674 183.701 102.084 184.232C102.638 184.876 103.288 185.431 104.011 185.877C105.273 186.764 105.475 187.133 105.502 189.094C105.5 189.426 105.578 189.753 105.729 190.049C105.879 190.344 106.099 190.599 106.368 190.793C107.18 191.418 107.919 192.136 108.826 192.956L107.355 195.682L111.088 197.025C111.317 197.569 111.559 198.187 111.841 198.785C112.076 199.275 112.371 199.738 112.72 200.356L111.115 201.491L107.214 199.873C105.475 200.652 106.375 202.102 106.16 203.271C105.676 203.445 105.246 203.64 104.817 203.754C104.353 203.854 103.885 203.931 103.413 203.983L103.91 205.917C105.058 206.897 106.482 206.521 107.718 206.763C107.874 206.895 108.016 207.044 108.141 207.206C109.081 208.845 108.879 209.604 107.214 210.342C106.44 210.7 105.619 210.949 104.776 211.081C104.164 211.121 103.57 211.304 103.042 211.615C102.514 211.927 102.066 212.358 101.735 212.874C100.674 214.466 99.7671 214.54 98.1219 213.546L95.9664 212.243C96.0268 212.915 95.9194 213.391 96.1074 213.553C96.6052 213.927 96.9649 214.455 97.1301 215.055C97.2954 215.656 97.2569 216.294 97.0206 216.87C100.15 216.548 102.325 217.636 103.642 220.571L102.366 221.511C102.46 221.632 102.527 221.82 102.654 221.88C103.326 222.169 104.085 222.37 104.743 222.72C105.149 222.867 105.494 223.145 105.726 223.509C105.958 223.873 106.063 224.304 106.025 224.734C105.891 225.688 106.462 226.145 107.113 226.561C107.426 226.782 107.784 226.931 108.161 226.997C110.686 227.273 112.331 229.052 114.124 230.53C114.842 231.148 115.769 231.47 116.716 231.43C118.415 231.364 120.117 231.395 121.812 231.524C122.941 231.662 124.039 231.987 125.062 232.484C126.65 233.293 128.392 233.751 130.172 233.827C130.556 233.817 130.938 233.876 131.3 234.002C134.228 235.17 137.344 235.62 140.399 236.198C141.337 236.344 142.23 236.699 143.011 237.239C143.758 237.834 144.689 238.152 145.644 238.139C147.356 238.139 149.001 238.703 150.727 238.743C152.07 238.743 153.413 239.549 154.81 239.912C155.522 240.16 156.283 240.24 157.032 240.147C158.353 239.922 159.71 240.076 160.947 240.59C163.479 241.403 165.997 242.269 168.481 243.223C169.36 243.593 170.336 243.669 171.261 243.437C172.409 243.102 173.497 243.296 174.619 243.283C176.318 243.283 177.936 243.881 179.682 243.666C180.514 243.558 181.515 244.102 182.321 244.566C183.462 245.237 184.49 246.07 185.678 246.903L190.667 245.929C192.01 245.667 193.414 246.07 193.964 247.084C194.515 248.098 195.227 248.259 196.18 248.306C199.115 248.441 202.049 248.588 204.984 248.77C205.836 248.823 206.676 249.032 207.522 249.159L211.739 249.791C211.929 249.808 212.117 249.84 212.303 249.885C216.265 251.033 220.408 250.811 224.437 251.429C226.216 251.704 228.036 251.678 229.809 251.846C232.366 252.068 234.861 252.757 237.168 253.88C237.497 254.08 237.87 254.196 238.255 254.217C238.639 254.238 239.022 254.164 239.371 254.001C240.065 253.685 240.845 253.61 241.587 253.786C243.078 253.974 244.595 254.001 246.093 254.156C247.409 254.29 248.716 254.474 250.014 254.706C252.284 255.038 254.593 254.981 256.843 254.539C258.717 254.213 260.629 254.161 262.517 254.384C264.761 254.69 267.033 254.73 269.286 254.505C269.473 254.459 269.666 254.445 269.857 254.465C273.396 255.338 277.055 254.465 280.601 255.197C280.883 255.237 281.169 255.251 281.454 255.237C287.994 255.412 294.521 255.774 301.048 256.238C307.199 256.681 313.37 256.983 319.527 257.379C321.99 257.54 324.452 257.688 326.914 257.823C329.546 257.957 332.192 258.313 334.844 258.494C341.949 258.904 349.013 259.925 356.144 259.931C357.339 259.931 358.535 260.462 359.73 260.737C360.65 260.945 361.57 261.153 362.496 261.335C362.95 261.357 363.399 261.425 363.839 261.536C365.256 262.208 366.774 262.262 368.278 262.476C370.346 262.772 372.388 263.262 374.456 263.484C375.684 263.553 376.915 263.487 378.129 263.289C378.438 263.256 378.706 262.886 378.995 262.658C380.09 261.785 380.083 261.791 381.339 262.658C381.916 263.157 382.65 263.44 383.413 263.457C384.041 263.511 384.656 263.658 385.24 263.893C385.428 263.813 385.556 263.799 385.596 263.732C386.771 261.778 388.477 261.872 390.296 262.483C391.264 262.844 392.253 263.147 393.258 263.39C394.001 263.481 394.715 263.738 395.346 264.142C395.914 264.498 396.563 264.703 397.233 264.74C399.865 264.948 402.511 265.082 405.143 265.237C405.427 265.284 405.718 265.271 405.996 265.196C408.01 264.303 409.911 264.934 411.831 265.492C412.099 265.539 412.372 265.557 412.644 265.546C413.564 265.028 414.141 263.974 415.511 264.048L417.525 265.331C417.669 265.694 417.779 266.069 417.854 266.452C417.878 266.791 418.009 267.114 418.227 267.375C418.445 267.635 418.74 267.82 419.07 267.903C420.916 268.306 422.609 269.246 424.556 269.367C425.872 269.525 427.204 269.476 428.504 269.219C429.806 268.88 431.179 268.929 432.453 269.36C432.993 269.554 433.564 269.647 434.138 269.635C435.383 269.645 436.604 269.968 437.69 270.576C438.476 270.952 439.282 271.247 440.148 270.824C442.277 269.756 444.546 270.273 446.561 270.824C448.683 271.395 450.865 271.496 453.027 272.255C453.37 271.885 453.699 271.543 453.994 271.214C454.204 270.945 454.504 270.762 454.839 270.698C455.173 270.634 455.52 270.693 455.814 270.864C457.157 271.697 458.554 271.382 459.951 271.14C460.4 271.001 460.864 270.915 461.334 270.885C462.005 270.952 462.677 271.086 462.798 271.959C462.798 272.234 462.885 272.631 463.066 272.738C463.37 272.932 463.728 273.022 464.087 272.993C464.241 272.993 464.45 272.584 464.476 272.322C464.483 271.894 464.449 271.467 464.376 271.046C466.054 270.757 467.619 270.092 469.338 270.529C469.613 270.596 469.929 270.831 470.151 270.757C471.883 270.2 473.226 270.999 474.603 271.872C474.891 272.053 475.422 271.872 476.113 271.798L473.965 267.52C473.855 267.363 473.788 267.18 473.77 266.989C473.755 266.625 473.843 266.264 474.025 265.948C474.11 265.862 474.21 265.794 474.322 265.747C474.433 265.7 474.552 265.676 474.673 265.676C474.794 265.676 474.913 265.7 475.025 265.747C475.136 265.794 475.237 265.862 475.321 265.948C476.664 267.104 478.007 268.306 479.437 269.582C480.008 269.34 480.592 269.071 481.197 268.843C481.801 268.615 482.258 268.521 482.781 268.366C482.855 268.158 482.996 267.977 482.969 267.815C482.882 267.278 482.419 266.681 482.969 266.244C483.419 265.908 483.954 265.706 484.514 265.66C485.089 265.72 485.653 265.864 486.186 266.09C486.327 265.7 486.347 265.203 486.582 265.069C487.354 264.626 487.992 265.176 488.811 265.64L490.02 268.232C490.329 268.104 490.551 268.077 490.651 267.95C490.994 267.513 491.323 267.036 491.625 266.56C491.253 265.983 490.92 265.382 490.631 264.76C490.546 264.562 490.502 264.348 490.502 264.132C490.502 263.917 490.547 263.703 490.632 263.505C490.717 263.307 490.843 263.129 490.999 262.981C491.156 262.833 491.342 262.718 491.544 262.644C491.971 262.454 492.424 262.327 492.887 262.268C495.251 262.1 497.628 261.98 499.999 261.845C500.378 261.871 500.759 261.848 501.133 261.778C503.02 261.174 504.921 261.583 506.814 261.644C508.386 261.684 508.379 261.724 508.829 263.37C508.884 263.55 508.954 263.725 509.037 263.893C509.123 264.028 509.222 264.154 509.332 264.27C509.688 264.142 510.225 264.115 510.501 263.833C511.669 262.618 512.099 262.255 513.321 261.818C513.146 261.494 512.894 261.217 512.588 261.012C512.281 260.807 511.929 260.68 511.562 260.643C511.004 260.529 510.413 260.529 509.876 260.361C509.536 260.238 509.249 260.001 509.064 259.689C508.96 259.289 508.923 258.873 508.956 258.461L515.1 257.957C515.295 257.285 515.517 256.614 515.772 255.761C515.584 255.089 515.362 254.283 515.154 253.524C515.866 252.893 516.558 252.544 517.33 252.853C518.102 253.162 518.78 253.155 519.344 252.443C519.707 252.007 520.184 252.235 520.687 252.296C521.427 252.403 522.177 252.403 522.917 252.296C523.172 252.262 523.36 251.758 523.588 251.463C523.306 251.281 522.917 250.872 522.762 250.946C521.419 251.49 520.137 251.187 518.827 250.946C518.449 250.953 518.071 250.921 517.699 250.852C516.645 250.408 515.725 251.812 514.698 251.04C513.847 250.443 512.829 250.132 511.79 250.153C511.694 250.158 511.599 250.139 511.513 250.099C511.426 250.059 511.35 249.998 511.292 249.922C511.234 249.846 511.195 249.757 511.179 249.663C511.163 249.569 511.17 249.472 511.199 249.381C511.36 249.053 511.625 248.786 511.951 248.622C512.166 248.501 512.502 248.622 512.784 248.622C514.102 248.664 515.421 248.615 516.732 248.474C518.323 248.122 519.961 248.035 521.58 248.219C522.007 248.242 522.434 248.222 522.856 248.159C523.085 247.339 523.299 246.54 523.528 245.714C523.633 245.575 523.758 245.45 523.897 245.345C525.879 244.196 528.103 243.529 530.39 243.397C532.405 243.229 534.372 243.055 536.333 242.726C538.092 242.43 539.812 241.893 541.557 241.503C542.184 241.305 542.841 241.216 543.498 241.241C545.781 241.517 548.01 241.517 550.159 240.503C550.609 240.349 551.093 240.325 551.556 240.436C552.776 240.64 553.984 240.909 555.175 241.241C556.196 241.537 557.116 241.913 558.143 241.1C558.459 240.865 559.198 241.194 559.748 241.262C560.04 241.276 560.315 241.4 560.52 241.607C560.725 241.815 560.845 242.092 560.856 242.383C560.829 242.655 560.741 242.917 560.597 243.15C560.454 243.382 560.26 243.579 560.03 243.726C558.331 244.579 556.612 245.284 554.584 244.767C553.375 244.554 552.142 244.502 550.918 244.613C550.746 244.657 550.587 244.741 550.452 244.857C550.318 244.974 550.213 245.12 550.146 245.284C550.005 245.627 550.663 246.325 550.992 246.238C551.811 246.023 552.61 245.761 553.597 245.459L555.612 247.769C556.133 247.604 556.662 247.465 557.197 247.353C557.64 247.27 558.096 247.27 558.54 247.353C560.695 247.85 561.226 247.823 563.28 246.815C563.618 246.637 563.991 246.538 564.372 246.524C564.754 246.51 565.133 246.582 565.483 246.735C566.183 247.018 566.961 247.044 567.679 246.809C568.615 246.653 569.565 246.601 570.512 246.654C573.064 246.654 575.609 246.124 578.174 246.567C578.931 246.649 579.693 246.472 580.336 246.063C581.424 245.479 582.089 245.788 582.633 246.889C583.049 247.742 583.378 248.629 583.794 249.576L587.313 249.475C587.662 248.803 587.642 248.353 587.031 248.172C586.762 248.085 586.44 248.172 586.198 248.024C586.075 247.965 585.965 247.881 585.876 247.777C585.787 247.673 585.721 247.551 585.681 247.42C585.681 247.245 585.963 246.943 586.185 246.869C586.557 246.793 586.934 246.748 587.313 246.735C589.556 246.372 590.039 245.815 590.274 243.377C590.272 243.237 590.254 243.097 590.221 242.961C588.656 242.894 587.065 242.585 585.561 243.498C585.246 243.704 584.875 243.807 584.5 243.793C584.321 243.765 584.152 243.697 584.004 243.593C583.856 243.489 583.734 243.354 583.647 243.196C583.635 243.025 583.665 242.854 583.736 242.698C583.806 242.542 583.914 242.406 584.05 242.303C584.63 241.975 585.231 241.685 585.849 241.436C586.201 241.286 586.512 241.056 586.759 240.765C587.007 240.474 587.182 240.129 587.273 239.757C587.205 239.53 587.064 239.331 586.87 239.193C586.676 239.056 586.442 238.987 586.205 238.998C583.956 238.851 581.699 238.736 579.457 238.562C578.785 238.508 578.409 238.884 577.899 239.092C577.55 239.24 577.053 239.032 576.556 238.972C578.221 236.708 579.591 236.09 581.652 236.836C582.121 237.063 582.64 237.166 583.159 237.135C583.679 237.104 584.182 236.941 584.62 236.661C584.864 236.512 585.147 236.44 585.433 236.453C586.715 236.5 587.817 235.976 588.978 235.553C590.14 235.13 591.295 234.566 592.699 235.13C592.873 236.406 593.37 237.561 594.921 237.857C595.243 237.917 595.492 238.327 595.774 238.575L595.734 238.696C596.278 237.353 597.459 236.816 598.742 236.326C600.837 235.526 602.878 234.559 605.054 233.639C604.9 233.136 604.658 232.766 604.725 232.464C604.853 231.846 605.323 231.269 605.316 230.678C605.316 230.208 604.765 229.764 604.571 229.261C604.51 229.12 604.853 228.817 605.02 228.589C604.134 227.985 603.409 227.877 602.758 228.408C601.65 229.385 600.203 229.889 598.729 229.811L601.052 232.35C599.655 233.532 597.943 232.907 596.466 233.31C596.069 233.399 595.656 233.384 595.266 233.266C594.877 233.149 594.524 232.932 594.243 232.639C594.391 231.913 594.552 231.128 594.76 230.093C593.787 230.345 592.8 230.542 591.805 230.684C590.664 230.772 589.616 230.684 588.851 229.469C588.085 228.253 586.266 228.555 585.493 229.751C585.198 230.228 585.03 230.792 584.714 231.248C584.44 231.55 584.128 231.816 583.788 232.041L585.802 233.27C584.312 234.613 582.74 234.217 581.048 234.042C581.236 233.291 581.335 232.52 581.344 231.745C581.186 231.048 580.947 230.372 580.632 229.731C580.315 229.481 579.946 229.304 579.552 229.213C579.159 229.123 578.75 229.121 578.355 229.207C577.684 229.321 577.012 229.382 576.388 229.536C575.835 229.677 575.257 229.686 574.699 229.564C574.142 229.442 573.621 229.19 573.178 228.831C571.949 227.944 570.68 227.105 569.478 226.185C569.229 225.998 569.021 225.761 568.87 225.488C568.718 225.216 568.625 224.915 568.598 224.604C568.571 224.293 568.61 223.981 568.711 223.686C568.813 223.391 568.976 223.122 569.189 222.894C569.485 222.531 569.935 222.29 570.21 221.914C570.404 221.558 570.536 221.172 570.6 220.772C569.545 220.168 568.713 219.697 567.41 220.033C565.489 220.523 563.455 220.275 561.481 220.033C560.789 219.846 560.133 219.544 559.54 219.14C559.493 218.2 559.453 217.454 559.412 216.595L560.722 216.037C561.023 216.602 561.386 217.131 561.803 217.616C562.21 217.876 562.668 218.045 563.146 218.113C563.414 218.204 563.698 218.236 563.979 218.207C565.29 217.992 566.593 217.752 567.887 217.488C568.048 217.488 568.169 217.246 568.431 217.011C567.954 216.024 567.329 214.996 567.544 213.754C567.605 213.385 567.625 212.861 567.867 212.693C569.351 211.686 569.297 209.919 570.324 208.429C568.478 208.22 566.933 207.723 565.301 207.885C564.402 207.979 563.287 207.918 562.958 207.213C562.765 206.696 562.412 206.254 561.951 205.951C561.49 205.648 560.944 205.5 560.393 205.527C559.369 205.412 558.332 205.515 557.351 205.83C556.635 206.079 555.857 206.082 555.139 205.838C554.422 205.595 553.806 205.119 553.389 204.486C553.275 204.332 553.228 204.137 553.127 203.976C553.012 203.831 552.888 203.692 552.758 203.56C551.046 205.151 550.502 205.312 548.279 204.735C547.567 204.547 546.936 204.265 546.265 204.93C546.03 205.151 545.204 204.748 544.821 204.668C543.76 205.124 542.867 205.729 541.9 205.87C541.459 205.875 541.025 205.764 540.641 205.549C540.257 205.333 539.936 205.02 539.711 204.641C539.711 203.607 540.282 202.888 541.228 202.989C542.383 203.116 543.243 202.485 544.196 202.19C544.462 202.118 544.705 201.979 544.901 201.787C545.277 201.384 545.519 200.813 545.956 200.517C546.729 199.968 547.568 199.516 548.454 199.174C549.689 198.718 550.978 198.422 552.355 198.026C552.589 199.486 553.326 200.818 554.437 201.793C554.752 202.085 555.132 202.297 555.545 202.414C555.958 202.531 556.393 202.548 556.814 202.465C558.036 202.21 559.238 201.981 560.171 201.082C560.922 200.492 561.465 199.678 561.722 198.758C561.957 197.657 562.293 196.548 563.381 195.89C562.374 195.313 561.414 194.722 560.42 194.205C558.714 193.325 558.701 193.345 556.76 193.412L556.726 193.553L556.834 193.439C556.679 191.122 554.927 190.135 553.107 188.993C552.557 189.232 551.963 189.352 551.364 189.345C550.764 189.338 550.173 189.205 549.629 188.953C546.607 189.101 543.585 188.335 540.597 188.678C539.855 188.809 539.091 188.658 538.455 188.255C538.247 188.12 538.173 187.791 538.052 187.583C538.233 186.71 538.959 186.535 539.563 186.435C541.154 186.166 542.766 185.998 544.378 185.837C545.412 185.736 546.466 185.763 547.5 185.649C549.019 185.537 550.471 184.976 551.67 184.037C553.262 182.768 555.404 182.842 557.304 182.325C561.091 181.29 565.046 181.425 568.867 180.612C570.882 180.176 572.983 180.075 574.87 178.947C575.79 178.396 577.066 178.443 578.187 178.215C579.834 177.787 581.505 177.457 583.19 177.227C585.354 177.048 587.5 176.7 589.61 176.186C591.624 175.696 593.733 175.515 595.801 175.179C596.362 175.134 596.918 175.033 597.459 174.877C598.587 174.347 599.872 174.263 601.059 174.642C601.609 174.8 602.199 174.737 602.704 174.467C604.006 173.742 605.49 173.346 606.484 172.036C607.095 171.237 608.116 170.753 608.922 170.095C609.291 169.737 609.634 169.354 609.949 168.947C609.358 168.759 608.962 168.477 608.7 168.571C607.189 169.101 605.705 168.819 604.195 168.625C603.524 168.583 602.851 168.583 602.18 168.625C601.247 168.625 600.877 167.993 601.153 167.1C601.428 166.207 602.16 165.797 603.167 165.468C602.891 165.014 602.579 164.583 602.234 164.179C601.69 163.655 601.045 163.239 600.501 162.708C599.561 161.775 599.521 161.244 600.226 160.21C600.441 159.894 600.736 159.639 600.938 159.317C601.307 158.817 601.524 158.221 601.561 157.601C601.598 156.981 601.453 156.364 601.146 155.824C600.595 154.804 600.051 154.401 598.843 154.575C595.962 155.005 593.081 155.489 590.214 156.006C588.437 156.226 586.685 156.617 584.983 157.174C582.357 158.195 579.611 158.027 576.925 158.444C574.615 158.8 574.017 157.577 575.172 155.307C574.024 153.165 571.916 153.185 569.962 153.212C567.276 153.212 564.664 153.622 562.011 153.756C560.782 153.806 559.55 153.746 558.331 153.575C558.139 153.549 557.959 153.468 557.812 153.342C557.665 153.215 557.557 153.05 557.502 152.864C557.446 152.678 557.446 152.481 557.5 152.295C557.554 152.108 557.661 151.942 557.808 151.815C558.654 151.054 559.592 150.402 560.601 149.874C562.051 149.203 563.609 148.793 565.301 148.209C565.382 147.571 565.469 146.866 565.57 146.087C565.748 145.889 565.951 145.715 566.174 145.57C567.721 144.841 569.396 144.423 571.103 144.341C573.368 144.149 575.596 143.657 577.731 142.877C578.893 142.453 580.101 142.205 581.229 141.775C582.525 141.312 583.855 140.855 585.144 140.351C585.285 140.298 585.346 140.049 585.513 139.767C585.119 139.446 584.656 139.218 584.161 139.102C583.665 138.985 583.149 138.983 582.653 139.096C580.222 139.452 577.798 139.807 575.36 140.137C574.895 140.213 574.419 140.202 573.957 140.103C572.963 139.834 571.996 139.465 570.902 139.102C570.948 138.626 571.044 138.155 571.19 137.699C571.392 137.282 571.802 136.967 572.05 136.564C572.181 136.394 572.272 136.197 572.319 135.988C572.366 135.779 572.367 135.562 572.322 135.352C572.276 135.142 572.186 134.945 572.057 134.774C571.927 134.603 571.762 134.462 571.573 134.361C571.338 134.2 571.043 134.133 570.814 133.972C570.536 133.739 570.273 133.488 570.029 133.219C570.19 132.319 570.365 131.305 570.573 130.157C570.301 129.729 570.063 129.28 569.861 128.814C569.655 128.435 569.597 127.992 569.699 127.573C569.8 127.153 570.054 126.787 570.412 126.544C570.828 126.242 570.996 125.611 571.311 125.073C570.949 124.664 570.64 124.294 570.331 123.985C568.316 122.065 568.666 122.642 569.659 120.204C569.929 119.706 570.243 119.234 570.6 118.794C570.861 118.398 571.096 117.988 571.338 117.585L570.271 116.679V116.86L570.331 116.726C570.271 116.601 570.224 116.47 570.19 116.336L570.237 116.39C568.988 117.008 567.511 117.001 566.309 117.733C565.16 117.437 563.911 117.908 562.804 117.296C561.696 116.685 560.292 116.82 559.077 116.39C558.9 116.331 558.714 116.307 558.528 116.321C558.342 116.335 558.161 116.386 557.996 116.47C556.485 117.458 554.94 117.27 553.356 116.786C553.048 116.731 552.734 116.713 552.422 116.732C552.167 116.41 551.751 116.061 551.623 115.671C551.579 115.478 551.494 115.297 551.374 115.139C551.255 114.981 551.103 114.85 550.929 114.756C550.755 114.661 550.563 114.605 550.365 114.59C550.168 114.575 549.969 114.603 549.783 114.671C548.959 114.901 548.076 114.8 547.326 114.389C546.479 113.961 545.53 113.779 544.586 113.865C543.303 113.979 542.356 112.925 541.356 112.24C541.002 111.863 540.526 111.625 540.013 111.568C538.328 111.454 536.655 111.024 534.963 111.434C534.772 111.452 534.579 111.409 534.413 111.313C533.07 110.641 531.727 110.426 530.384 111.521L528.43 109.889C527.698 109.976 527.704 111.091 526.758 110.762C525.529 110.346 526.22 109.285 525.818 108.445L523.4 108.203C523.231 108.469 523.087 108.75 522.97 109.043C522.635 110.218 521.956 110.796 520.667 110.655C519.966 110.66 519.267 110.73 518.579 110.863L518.868 108.848C517.807 107.888 516.752 107.565 515.665 108.714L513.146 107.955C512.776 107.6 512.523 107.139 512.424 106.636C512.324 106.132 512.382 105.611 512.589 105.141C513.529 104.745 514.557 104.281 515.611 103.872C515.952 103.711 516.333 103.657 516.705 103.717C518.204 104.037 519.762 103.923 521.198 103.388C522.482 103.024 523.837 102.987 525.139 103.281C525.494 103.424 525.867 103.514 526.247 103.549C528.45 103.281 530.276 104.456 532.177 105.154C532.506 105.337 532.865 105.457 533.238 105.51C534.835 105.446 536.427 105.287 538.005 105.034C539.194 104.721 540.443 104.721 541.631 105.034L543.444 105.611L547.258 103.596C547.574 103.629 547.886 103.687 548.192 103.771C548.6 103.909 549.041 103.919 549.456 103.799C549.87 103.679 550.237 103.435 550.508 103.099C552.395 101.085 554.732 100.413 557.418 100.635C558.361 100.665 559.304 100.549 560.212 100.292C560.581 100.205 560.849 99.7215 561.172 99.4125C559.627 99.2984 558.237 99.1506 556.841 99.0902C555.995 99.0566 555.142 99.1775 554.296 99.1708C553.915 99.1992 553.535 99.0951 553.222 98.876C552.909 98.657 552.681 98.3365 552.577 97.9687C552.355 96.9277 552.577 96.2897 553.497 95.8331C554.84 95.1615 556.183 94.4563 557.599 93.8183C557.951 93.6906 558.336 93.6906 558.687 93.8183C559.48 94.1004 560.238 94.4899 560.863 94.7518C562.092 94.4966 563.186 94.2817 564.274 94.0803C565.118 94.0083 565.946 93.802 566.725 93.4692C567.105 93.1799 567.583 93.0503 568.057 93.108C568.531 93.1657 568.964 93.4061 569.263 93.778C569.544 93.9912 569.846 94.1757 570.163 94.3287L570.116 94.416C570.123 94.2265 570.168 94.0404 570.249 93.8688C570.329 93.6973 570.444 93.5441 570.586 93.4184C570.728 93.2927 570.894 93.1973 571.074 93.1379C571.255 93.0785 571.445 93.0564 571.634 93.0729C572.769 93.1065 573.648 92.5357 574.541 91.9581C574.387 91.0851 574.246 90.2724 574.105 89.4934C571.896 88.701 571.896 88.701 569.371 90.165C568.746 90.165 568.699 89.6748 568.484 89.2517C568.334 88.953 568.087 88.7138 567.783 88.5725C567.48 88.4312 567.138 88.396 566.812 88.4727C565.026 88.6338 563.24 88.7749 561.44 88.9092C560.492 89.0407 559.529 88.8 558.754 88.2376C558.182 87.8001 557.491 87.546 556.772 87.5088C556.053 87.4717 555.339 87.6532 554.725 88.0294C553.53 88.6405 552.308 89.1107 551.012 88.2309C550.844 88.8085 550.737 89.1711 550.602 89.621C549.987 89.7119 549.383 89.8719 548.803 90.0979C547.917 90.5939 547.056 91.1341 546.224 91.7164C546.157 92.4417 546.07 93.2744 545.989 94.1004C545.808 96.048 544.928 97.0956 543.082 97.3441C542.526 97.3033 541.969 97.4123 541.47 97.6597C541.19 97.851 540.854 97.9431 540.516 97.9212C540.178 97.8993 539.856 97.7647 539.603 97.5389C538.932 97.0218 538.213 97.2299 537.502 97.1225C535.534 96.827 533.58 97.0218 531.626 96.9613C531.199 96.9666 530.776 96.8834 530.383 96.7169C529.99 96.5505 529.636 96.3044 529.343 95.9943C528.823 95.4631 528.246 94.9902 527.624 94.5839C527.362 94.416 526.952 94.5034 526.543 94.4631C527.093 96.78 526.731 97.3307 524.716 96.8337C522.407 96.3636 520.035 96.2841 517.699 96.5987C516.947 96.6591 516.182 96.8606 515.497 96.0547C515.671 95.7793 515.826 95.2421 516.054 95.2085C517.248 94.9301 518.478 94.835 519.7 94.9264C521.218 95.1749 522.48 95.0339 523.541 93.9325C524.602 92.8312 525.844 92.4148 526.798 91.3604C527.146 90.9653 527.591 90.6681 528.089 90.4984C528.588 90.3287 529.122 90.2925 529.638 90.3934C530.874 90.6284 531.975 90.2456 533.345 89.6143C533.681 89.4532 534.117 89.198 534.399 89.2987C535.621 89.7151 536.83 89.3927 538.039 89.4397C538.623 89.5441 539.187 89.7389 539.711 90.0173C539.899 91.6761 539.926 93.1535 540.731 94.5302C542.692 92.8714 542.746 93.449 541.645 90.2792C542.148 89.151 543.397 88.9361 544.264 88.2645C544.572 88.0227 545.204 88.2645 545.479 87.7541C545.701 87.331 545.962 86.9348 546.238 86.4781C545.318 86.2766 544.713 85.9408 544.069 86.4781C543.782 86.7101 543.416 86.8209 543.048 86.787C542.628 86.7029 542.193 86.7265 541.785 86.8556C541.376 86.9848 541.007 87.2153 540.711 87.5257C540.352 87.8481 539.92 88.0778 539.452 88.1948C538.984 88.3118 538.494 88.3127 538.025 88.1973C536.615 88.0093 535.232 87.5929 533.855 88.3115C533.673 88.3789 533.473 88.3789 533.291 88.3115C530.693 87.4788 528.033 88.4256 525.415 88.0429C524.669 87.9354 523.917 87.8481 523.172 87.7608L519.848 87.3847C519.176 86.7132 518.377 85.8133 517.404 84.7858C518.061 84.2126 518.847 83.808 519.695 83.6067C520.543 83.4055 521.428 83.4137 522.272 83.6306C524.374 84.2082 526.408 83.7851 528.463 83.6306C528.935 83.5156 529.387 83.3324 529.806 83.0867C529.558 82.7307 529.444 82.3681 529.242 82.3144C527.073 81.7435 525.159 80.2997 522.917 80.3332C521.97 80.7563 522.373 82.0256 521.278 82.2942C520.442 82.4437 519.581 82.2709 518.868 81.8107C518.485 80.7295 520.07 80.2862 519.693 79.2722C519.317 78.2581 520.164 77.6805 520.197 76.7806C519.947 75.79 519.445 74.8809 518.74 74.1413C517.605 72.8922 516.417 71.6498 516.054 69.8634C515.94 69.3195 515.288 68.8897 514.852 68.3726C515.067 67.2309 516.027 66.7541 517.014 66.4317C517.735 66.2203 518.385 65.8163 518.894 65.2632C519.304 64.8659 519.796 64.5647 520.336 64.3812C520.876 64.1976 521.45 64.1365 522.017 64.2021C523.071 64.2424 524.119 64.3029 524.703 65.3572L528.06 61.5897C529.121 61.4621 529.981 62.3418 530.693 61.3748V61.442C530.907 61.1398 531.075 60.6294 531.364 60.5689C532.801 60.2533 534.151 59.5549 535.709 59.6825C537.904 59.8571 539.939 59.0109 542.222 58.5072L541.443 57.5133C541.161 57.473 540.94 57.3655 540.812 57.4327C538.63 58.5945 536.783 58.064 535.178 56.244C534.507 56.3313 533.835 56.4522 533.204 56.4992C532.058 56.5778 530.912 56.3458 529.887 55.8276C529.718 55.7395 529.576 55.6084 529.474 55.4477C529.373 55.2869 529.315 55.1022 529.308 54.9122C529.3 54.7221 529.343 54.5335 529.432 54.3652C529.52 54.197 529.652 54.0551 529.813 53.9539C530.201 53.6954 530.65 53.5447 531.116 53.5174C531.738 53.5603 532.354 53.666 532.956 53.8331C532.956 53.2958 533.063 52.866 532.895 52.6444C532.257 51.7848 531.686 50.9453 532.318 49.9178C530.646 48.6418 528.47 48.4269 527.812 46.56C525.126 45.9556 522.507 46.4324 520.083 45.3646C519.868 44.4109 519.66 43.511 519.411 42.5306C518.579 42.4835 517.833 42.4432 517.088 42.3895C516.141 42.3291 515.423 42.0336 515.43 40.8852C515.43 40.3345 514.993 40.0659 514.536 39.898C514.08 39.7301 513.469 39.5689 512.831 39.3742C512.045 38.3735 511.421 37.252 512.542 35.6335L514.865 34.5926V34.4381L514.805 34.5993C514.986 34.5993 517.941 33.968 518.095 33.874C519.532 33.001 521.198 32.5645 522.467 31.3691C523.192 30.6975 524.246 30.9258 525.153 30.7512L525.119 30.8788C525.119 30.7311 525.119 30.5833 525.153 30.4356L525.744 30.6236L525.663 30.5564L527.194 29.8849C527.153 29.7187 527.079 29.5625 526.976 29.4253C526.874 29.2881 526.745 29.1727 526.597 29.0858C526.45 28.9989 526.287 28.9423 526.117 28.9192C525.947 28.8961 525.775 28.9071 525.609 28.9514C524.988 29.0148 524.387 29.2077 523.844 29.5176C523.302 29.8276 522.83 30.2478 522.46 30.7512C521.367 30.4697 520.298 30.1014 519.264 29.6498C518.408 29.0968 517.605 28.4651 516.867 27.7627C516.746 26.6009 517.88 26.2786 518.438 25.4257C517.169 24.5996 515.906 23.7803 514.657 22.9543C514.065 22.6563 513.523 22.2665 513.052 21.7992C512.267 20.7918 511.145 20.456 510.064 19.9389L510.125 19.9994C509.785 19.8186 509.397 19.7486 509.015 19.7992C508.633 19.8497 508.277 20.0184 507.996 20.2814C507.123 20.9933 506.324 21.7857 505.465 22.5715C503.222 22.7192 500.871 22.7327 498.575 23.0684C496.93 23.3102 495.694 22.2827 494.21 22.1215C494.036 22.1215 493.928 21.6716 493.76 21.45C492.767 20.2075 491.813 18.9316 490.752 17.7563C489.691 16.5811 489.49 15.8558 490.248 14.4723C490.515 14.0433 490.804 13.6285 491.115 13.2299L488.597 10.5772C488.12 10.7586 488.415 11.7122 487.475 11.7861C486.118 11.9666 484.772 12.229 483.446 12.5718C483.372 12.5718 483.319 12.6994 483.211 12.8068C482.976 13.6194 483.883 13.7806 484.158 14.338C484.561 15.2044 484.413 15.8356 483.567 16.2117C482.956 16.4871 482.305 16.6482 481.7 16.9236C480.586 17.434 479.457 17.9511 479.102 19.0323C477.741 19.4723 476.297 19.588 474.883 19.3699C473.47 19.1518 472.128 18.6062 470.963 17.7765C469.486 19.2741 467.424 19.1196 465.806 20.033C465.873 20.6575 465.934 21.2082 465.987 21.7522C466.144 21.6549 466.313 21.5803 466.491 21.5305C466.653 21.5398 466.812 21.5785 466.961 21.6447C466.847 21.7723 466.706 22.0275 466.618 22.0141C466.401 21.9339 466.197 21.8206 466.014 21.6783C464.503 23.243 462.489 23.5318 460.548 23.834C458.534 24.1833 456.519 24.6936 454.505 25.1772C452.705 25.5801 450.771 25.4122 448.898 25.4592C448.615 25.4263 448.348 25.3146 448.126 25.1369C447.974 25.0264 447.869 24.8637 447.83 24.6802C447.786 24.362 447.763 24.0411 447.763 23.7199C448.989 22.8642 450.451 22.4112 451.946 22.4237C453.565 22.4976 454.37 21.6178 454.76 20.1874V20.2747C454.577 20.0602 454.335 19.9035 454.064 19.8236C453.794 19.7437 453.506 19.7441 453.236 19.8248C452.043 20.0943 450.81 20.133 449.603 19.9389C449.138 19.8677 448.663 19.9115 448.22 20.0665C446.098 20.7381 443.814 20.7918 441.82 21.9133C441.545 22.0611 440.88 22.0678 440.799 21.9133C440.215 20.8523 439.242 21.1276 438.349 21.0739C438.214 21.1948 438.073 21.3089 437.932 21.4231C438.013 21.2821 438.1 21.141 438.187 21C437.147 20.6441 436.643 19.771 436.106 18.9181L435.971 18.7704H436.173C436.139 18.5085 436.173 18.0585 436.045 18.0048C435.623 17.812 435.166 17.7047 434.702 17.6892C434.085 17.6892 433.467 17.8906 432.849 17.8705C432.231 17.8503 431.741 17.6153 431.177 17.5549C430.622 17.4303 430.046 17.4303 429.492 17.5549C427.752 18.2264 425.926 18.0317 424.12 18.2667C422.313 18.5018 420.728 18.5756 419.05 18.851C417.543 19.0535 416.011 18.953 414.544 18.5555C413.724 18.3349 412.86 18.3466 412.046 18.5891C411.141 18.8585 410.196 18.9698 409.253 18.9181C408.581 18.8778 408.306 19.4218 407.91 19.6367C407.734 19.5347 407.566 19.4202 407.406 19.2942C405.613 17.5951 404.445 17.528 402.625 19.2942C402.162 19.7442 401.604 19.6972 401.201 20.0665V19.9859C401.148 20.4292 400.98 20.5971 400.59 20.2344L400.671 20.2881C398.126 20.9597 395.581 21.6984 392.935 20.8523C392.203 20.6172 391.438 21.3627 390.766 20.6978V20.6374L388.456 21.9066C387.416 21.5708 386.529 20.6374 385.314 20.9664C385.268 20.9817 385.22 20.9866 385.172 20.9808C385.125 20.975 385.079 20.9586 385.038 20.9329C383.454 19.4621 381.681 20.0598 379.949 20.4829C379.487 20.5913 379.012 20.6365 378.538 20.6172C377.686 20.663 376.833 20.5769 376.007 20.362C375.087 20.0195 375.067 21.5037 374.174 21.0336C373.739 20.8991 373.285 20.8401 372.831 20.859H372.891C372.617 20.9409 372.356 21.0583 372.112 21.2082C370.806 22.2963 369.227 23.0048 367.546 23.2565C367.291 23.2968 367.096 23.7602 366.807 24.1027L364.262 21.8999C364.041 22.0141 363.591 22.276 363.094 22.5043C362.597 22.7327 362.053 22.9543 361.509 23.1759C361.357 23.8692 361.132 24.5444 360.838 25.1906C360.556 25.6943 360.213 26.2382 359.3 25.7279C358.575 25.3249 358.112 25.7816 357.991 26.5875C357.729 28.3806 357.057 29.1327 355.419 29.4013C354.956 29.4752 354.472 29.4551 354.002 29.4954C353.532 29.5357 353.095 29.6028 352.505 29.67C352.283 30.4087 352.048 31.1944 351.833 31.9197L348.61 32.0473C348.236 32.1204 347.853 32.134 347.475 32.0876C345.165 31.3422 342.775 31.5974 340.438 31.5907C339.504 31.5907 338.578 31.3959 337.651 31.8056C337.198 31.9411 336.72 31.9687 336.254 31.8862C334.468 31.7653 332.689 31.584 330.882 31.4899C329.204 31.3892 327.599 30.731 325.86 30.993C325.192 30.9949 324.546 30.7565 324.04 30.3214C323.467 29.8842 322.796 29.5944 322.086 29.4773C321.375 29.3602 320.646 29.4194 319.964 29.6498C318.017 30.2005 316.425 29.4685 314.988 28.4544C314.256 27.9306 313.739 27.6015 312.9 27.9642C312.779 28.0179 312.564 27.8366 312.389 27.756H312.477C312.298 27.6909 312.123 27.6146 311.953 27.5277C310.715 26.644 309.205 26.2254 307.689 26.3457C306.829 27.1717 307.817 28.1052 307.628 29.032C307.172 29.5491 306.709 30.3281 305.889 30.1871C305.07 30.0461 304.002 29.999 303.391 29.0723C303.091 28.5832 302.651 28.195 302.129 27.9575C301.815 27.8718 301.536 27.6919 301.328 27.442C301.12 27.1922 300.994 26.8845 300.967 26.5606C300.907 26.1442 300.457 25.7816 300.175 25.3988C300.094 25.252 299.984 25.1241 299.85 25.0236C299.716 24.9231 299.562 24.8524 299.399 24.8162C299.235 24.7799 299.066 24.779 298.902 24.8135C298.739 24.8479 298.584 24.917 298.449 25.016C297.274 25.7614 296.435 24.969 295.501 24.4384C295.434 24.4049 295.501 24.1027 295.562 23.7669C293.843 23.6527 292.164 23.1356 290.465 24.0959C289.961 24.378 289.169 24.143 288.511 24.1497V24.0892C288.142 24.8078 287.698 25.3585 286.745 25.1167C285.926 24.9152 285.086 24.7944 284.26 24.6332L284.341 24.6936C283.818 24.8818 283.275 25.0102 282.723 25.0764C281.124 25.0237 279.562 25.5643 278.338 26.5942C277.707 27.1449 277.109 26.8695 276.485 26.6882L276.397 26.8427L276.552 26.7151L275.101 26.1711L275.155 26.2383C273.812 26.6143 272.543 26.8225 271.549 25.5667C271.052 24.9354 270.522 25.4055 269.904 25.4727L269.017 24.0489L262.974 23.646C262.591 22.9274 261.289 22.7461 260.832 21.6313C260.767 21.5807 260.692 21.5444 260.613 21.5247C260.533 21.5051 260.45 21.5025 260.369 21.5171C259.294 21.7454 259.22 20.9194 258.952 20.174C257.985 19.9927 256.937 19.5024 255.977 19.6703C253.734 20.0397 251.7 19.2136 249.605 18.8443C248.51 18.6234 247.402 18.4776 246.287 18.4077C245.529 18.3742 244.864 18.5085 244.273 17.8906C244.176 17.7958 244.058 17.7251 243.928 17.6843C243.799 17.6434 243.661 17.6336 243.528 17.6556C241.943 18.1391 240.573 17.4944 239.17 16.9236C238.753 16.749 238.31 16.6348 237.874 16.4938L237.994 16.5408C237.256 17.0847 236.651 17.1385 236.134 16.2117C236 15.9699 235.517 15.9364 235.188 15.802V15.7147C234.019 17.1049 232.502 16.8497 231.058 16.4602C230.737 16.3505 230.424 16.2227 230.118 16.0774C228.887 15.5006 227.496 15.3631 226.176 15.6879C225.861 15.7965 225.516 15.7837 225.209 15.6521C224.903 15.5206 224.656 15.2795 224.517 14.976C224.213 14.6259 223.799 14.3892 223.342 14.3045C223.232 14.2612 223.112 14.2453 222.994 14.2581C222.876 14.2709 222.763 14.312 222.664 14.3779C222.565 14.4438 222.484 14.5326 222.426 14.6367C222.369 14.7408 222.338 14.8572 222.335 14.976H222.523L222.315 14.929L220.932 13.9619C220.766 14.3968 220.525 14.7992 220.22 15.1506C219.979 15.3057 219.698 15.3881 219.411 15.3881C219.124 15.3881 218.843 15.3057 218.602 15.1506C218.091 14.8887 217.547 14.7141 217.03 14.4791C216.119 14.0101 215.079 13.8521 214.069 14.0291C213.159 14.2948 212.187 14.2547 211.302 13.9149C210.929 13.6956 210.494 13.6069 210.064 13.6629C209.635 13.7188 209.237 13.9162 208.932 14.2239C208.845 14.3179 208.496 14.3246 208.455 14.2574C207.65 13.0016 206.394 14.7477 205.393 13.7336C204.802 13.1225 203.661 13.062 202.768 12.7464C202.768 13.3508 202.372 13.7269 201.902 13.418C200.794 12.7464 199.511 13.1896 198.363 12.7061C197.231 12.3131 196.067 12.0188 194.884 11.8264C194.743 11.8264 194.555 11.9875 194.387 12.0681L194.347 12.0211C194.186 12.1957 194.011 12.5181 193.857 12.5181C193.105 12.4845 192.36 12.3233 191.614 12.2964C191.161 12.3158 190.711 12.3811 190.271 12.4912V12.4106L189.633 12.6792H189.687L186.967 13.653C186.805 13.6492 186.645 13.6126 186.497 13.5456C185.591 12.9345 184.752 12.3972 183.503 12.5449C181.804 12.6789 180.099 12.3978 178.533 11.7256H178.601C177.862 12.33 176.969 11.6114 176.203 12.001C174.86 10.8593 173.242 11.598 171.751 11.4771C171.751 11.598 171.704 11.7861 171.852 11.5174L168.26 10.8459C167.877 9.9661 166.682 9.35499 166.809 8.01185C167.078 7.75631 167.405 7.56875 167.761 7.46478C168.117 7.36082 168.493 7.34346 168.857 7.41414C170.825 7.54845 172.819 7.41414 174.787 7.64247C176.061 7.68123 177.335 7.5799 178.587 7.34028C179.879 7.23888 181.159 7.014 182.408 6.66871C183.219 6.41386 184.07 6.30694 184.919 6.35307C186.605 6.46724 188.277 6.74257 189.962 6.9709C193.703 7.4813 197.389 8.28046 201.069 9.13336C201.868 9.26774 202.676 9.34628 203.486 9.36841L206.072 7.6156C209.698 7.48971 213.304 8.21418 216.601 9.73107L221.066 7.27312C221.147 5.75537 219.582 5.13753 219.676 3.81453H219.77L216.292 5.58075C215.974 5.34051 215.681 5.06822 215.419 4.76815C215.235 4.43031 214.928 4.17628 214.561 4.05875C214.195 3.94122 213.798 3.9692 213.451 4.13687C212.632 4.64727 212.034 4.26448 211.356 4.08316C210.362 3.81453 209.375 3.53919 208.402 3.22355C207.811 3.03551 207.253 2.76016 206.528 2.45795C206.528 2.72658 206.528 2.94148 206.528 3.12952C206.528 3.31756 206.441 3.4653 206.354 3.80109L204.863 3.57276C204.789 3.16982 204.735 2.90118 204.688 2.61912H204.762C204.413 2.61912 203.815 2.74672 203.762 2.61912C203.553 2.1423 203.258 1.77967 202.774 1.77296C201.68 1.77296 200.585 1.10138 199.491 1.77296V1.90726C199.491 1.84682 199.531 1.77966 199.545 1.71922C198.893 1.59133 198.233 1.51277 197.57 1.48418C197.1 1.46611 196.641 1.62962 196.288 1.94085C195.616 2.84747 194.757 2.90789 193.75 2.78701C190.65 2.36513 187.524 2.16094 184.396 2.1759C183.641 2.10034 182.892 1.97923 182.153 1.81325C180.642 1.6655 179.118 1.67893 177.627 1.45059C176.136 1.22226 174.867 0.77903 173.477 0.470107C172.642 0.333172 171.798 0.250176 170.952 0.22163C169.723 0.141041 168.488 0.0805884 167.051 0C166.883 0.268628 166.641 0.671577 166.379 1.01408C166.217 1.25041 165.992 1.43783 165.731 1.55616C165.469 1.6745 165.18 1.71926 164.895 1.68565C163.767 1.68565 162.646 1.65207 161.538 1.61849C159.852 1.57148 159.852 1.56477 159.141 3.2034C156.623 3.66679 154.118 3.93541 151.68 2.59227C151.197 3.03551 150.767 3.38472 150.391 3.78094C149.91 4.31072 149.295 4.6999 148.61 4.9069C147.925 5.1139 147.197 5.13093 146.503 4.95619C145.404 4.60673 144.211 4.70819 143.186 5.23826C142.937 5.90983 143.945 6.64855 143.079 7.34698C142.786 7.59256 142.439 7.76605 142.067 7.85353C141.695 7.941 141.308 7.94002 140.936 7.85066C140.265 7.72306 139.701 7.34698 139.063 7.17909C138.89 7.15799 138.714 7.17274 138.546 7.22241C138.379 7.27209 138.223 7.35562 138.089 7.46786C137.821 7.69619 138.13 8.54908 138.526 8.66325C139.412 8.99326 140.334 9.21864 141.272 9.33482C143.259 9.29612 145.244 9.4672 147.195 9.84522C147.465 9.92851 147.755 9.91182 148.014 9.79821C148.988 9.19379 149.894 9.76463 150.76 9.99297C151.949 10.3019 153.03 10.8392 154.353 10.4429C154.897 10.2818 155.615 10.6914 156.253 10.8392C155.897 12.0211 155.904 12.0278 154.628 13.2031C153.072 12.9141 151.473 12.9415 149.928 13.2837C149.364 13.3282 148.797 13.2966 148.242 13.1896C147.393 13.0689 146.527 13.1731 145.731 13.4918C145.284 13.7765 144.749 13.8904 144.225 13.8127C143.701 13.735 143.222 13.4709 142.877 13.0688C142.602 12.8043 142.263 12.6167 141.893 12.5248C141.523 12.4329 141.135 12.4398 140.769 12.5449C140.715 13.371 140.668 14.1769 140.607 15.1036C139.936 15.1574 139.379 15.1641 138.835 15.2648C137.968 15.4193 137.095 16.1848 137.23 16.9437C137.532 18.6495 136.491 19.5763 135.464 20.6172C134.195 20.8187 132.778 20.4023 131.636 21.3828C131.885 22.182 132.523 22.276 133.201 22.1954C133.675 22.1314 134.141 22.0166 134.591 21.8529C135.253 21.5771 135.97 21.459 136.686 21.508C137.401 21.5569 138.095 21.7716 138.714 22.135C139.936 22.8065 141.306 22.6051 142.608 22.8065C143.091 22.8375 143.544 23.0526 143.872 23.4076C144.201 23.7625 144.381 24.2301 144.375 24.7138C144.403 25.14 144.277 25.5622 144.019 25.9028C143.761 26.2433 143.389 26.4793 142.971 26.5673C142.505 26.6278 142.034 26.6278 141.568 26.5673C141.282 26.5371 141.004 26.4624 140.742 26.3457C140.305 26.1577 139.889 25.936 139.325 25.6741C138.901 25.735 138.484 25.8408 138.083 25.9898C136.096 26.8685 133.988 27.4456 131.831 27.7023C131.263 27.7335 130.712 27.9059 130.228 28.2037C129.744 28.5016 129.342 28.9155 129.058 29.4081C128.581 30.2341 127.446 30.0058 127.043 29.0723C126.64 28.1388 126.372 27.3262 126.056 26.4464C124.847 26.5405 123.639 26.6211 122.43 26.7285C122.053 26.7461 121.682 26.8232 121.329 26.9568C118.811 28.0515 116.138 27.991 113.479 27.9776C112.223 27.9776 111.021 27.8769 110.068 28.9648C109.799 29.2737 109.215 29.3275 108.765 29.4484C108.127 29.623 107.469 29.7506 106.824 29.8916V29.8244C106.683 29.952 106.502 30.2072 106.401 30.1804C105.058 29.7841 104.105 30.2408 103.313 31.5235C103.6 31.7684 103.935 31.95 104.298 32.0565C104.66 32.1629 105.04 32.1919 105.414 32.1414C106.997 31.8476 108.633 32.0985 110.054 32.8532C110.624 33.1881 111.264 33.3861 111.924 33.4315C112.583 33.4769 113.244 33.3686 113.855 33.1151C114.297 32.9233 114.788 32.8725 115.261 32.9699C115.733 33.0672 116.164 33.3079 116.494 33.6591C116.716 33.874 116.716 34.3307 116.87 34.8142L115.05 34.9888C115.05 35.103 115.05 35.3246 115.164 35.3985C115.984 35.9693 116.944 35.9223 117.891 36.0096C119.522 36.1641 119.905 36.6342 120.16 38.3332C120.328 39.5085 120.671 39.8577 121.678 39.8778L125.62 39.9651C125.997 39.9124 126.38 40.0042 126.693 40.2221C127.005 40.4401 127.224 40.7681 127.305 41.1404C127.415 41.4027 127.479 41.6823 127.493 41.9664C127.406 43.2088 128.05 44.0953 128.769 45.0221C129.803 46.3652 129.743 46.4525 128.91 48.7761C127.724 49.0118 126.5 48.975 125.331 48.6687C124.7 48.4941 124.042 48.4135 123.397 48.2859V48.1986C124.317 49.4074 125.277 50.2737 127.063 49.9917C128.494 49.7701 129.078 50.9856 129.367 52.228C128.695 53.457 127.634 53.1615 126.681 53.1682V53.0742C126.623 53.5336 126.623 53.9983 126.681 54.4576C126.866 55.0299 127.09 55.5886 127.352 56.1298C126.6 57.4125 125.754 58.0505 124.431 57.7819C124.243 57.7819 123.981 57.6543 123.874 57.7416C122.464 58.8698 121.45 57.8558 120.315 57.1842C119.688 56.913 119.033 56.7147 118.361 56.5932C118.421 57.1909 118.616 57.6879 118.461 57.8424C118.106 58.1156 117.696 58.3101 117.26 58.4132C117.08 58.4839 116.881 58.4839 116.702 58.4132C115.245 57.5536 113.983 58.4132 112.673 58.9437C110.663 57.8649 108.482 57.1381 106.227 56.7947C106.131 56.7916 106.036 56.7664 105.952 56.7208C105.374 56.4279 104.853 56.0345 104.414 55.559C104.172 55.1762 104.374 54.5046 104.414 53.8398L102.158 52.3623C101.486 51.9191 100.432 52.3086 99.8678 51.2341C101.379 50.67 102.997 51.7714 104.468 50.5625C104.029 50.316 103.613 50.0306 103.225 49.7096C102.853 49.2852 102.51 48.8365 102.198 48.3665C103.46 46.795 105.139 46.9696 106.697 47.1174C109.641 47.4698 112.617 47.4698 115.561 47.1174C115.379 46.4458 114.762 46.4458 114.332 46.2175C113.734 45.9354 113.103 45.7205 112.478 45.4855C111.854 45.2504 111.417 45.1161 110.954 44.9549C110.686 44.1557 111.364 44.149 111.626 43.8401C111.518 43.7259 111.424 43.5379 111.297 43.5178C110.37 43.3297 109.437 43.1887 108.51 43.0141C108.232 42.9634 107.96 42.8847 107.697 42.779C107.315 42.6111 107.026 42.2686 107.221 41.8926C107.415 41.5165 107.845 41.1874 108.013 41.221C109.987 41.9866 112.042 41.9933 114.117 42.2485C116.192 42.5037 118.018 43.0477 119.966 43.4439C120.409 43.5312 120.872 43.5379 121.309 43.5782C121.725 42.7052 121.275 42.3425 120.691 42.1948C119.677 41.9463 118.636 41.8053 117.609 41.6239C116.667 41.5211 115.759 41.2151 114.948 40.7269C114.136 40.2387 113.44 39.5801 112.908 38.7966C112.514 38.2525 111.99 37.8157 111.383 37.526C110.777 37.2363 110.108 37.1029 109.437 37.1378C108.423 37.1378 107.63 36.6879 106.63 36.3655C104.615 38.4138 102.272 37.2722 100.002 36.8625C99.5925 35.835 100.801 35.7947 101.184 35.0627C99.6126 34.9351 98.3032 34.2031 96.8192 34.7202C96.329 34.8881 96.2686 34.7202 94.8853 33.7128L96.141 32.7995L94.9994 31.6108L93.9049 30.5363C92.6998 30.6845 91.4862 30.7518 90.2721 30.7378C89.0408 30.5747 87.8224 30.3256 86.6259 29.9923L85.7462 32.007C83.3624 32.6786 81.2875 34.2904 78.7962 34.9754C78.2389 35.1298 77.8024 35.7477 77.225 36.2178L79.6222 38.9511C78.7761 40.7374 77.1981 41.2411 75.8014 41.9664L75.7544 41.9194C75.5395 42.9604 76.4863 43.5983 76.8288 44.6057C76.0633 44.6729 75.4455 44.6997 74.8143 44.7937C74.4348 44.845 74.0669 44.9609 73.7265 45.1362C73.3303 45.3579 72.7864 45.6063 72.6521 45.969C71.8731 48.0307 69.9661 48.1382 68.3881 48.0509C66.4995 47.8674 64.5941 47.9648 62.7341 48.3396C60.8203 48.8164 59.1819 48.0374 57.6173 47.0704C57.3426 46.8379 57.1147 46.5553 56.9458 46.2376C56.5765 45.6936 56.2743 45.1228 55.905 44.5654V44.4781C55.905 44.7534 55.9452 45.0355 55.9654 45.4116C55.2939 45.8347 54.5284 45.4855 53.83 45.6332C53.1317 45.7809 52.3595 46.0227 51.6141 46.1167C50.869 46.194 50.1187 46.2075 49.3713 46.157C48.332 46.1412 47.296 46.0333 46.2757 45.8347C43.5226 45.1631 40.7762 44.458 38.0566 43.6655C37.1904 43.4103 36.1966 43.2491 35.6728 42.2821C35.5074 42.0696 35.2673 41.9279 35.0013 41.8858C33.1346 41.6306 31.2678 41.3754 29.3943 41.2143C29.0653 41.1807 28.7228 41.4426 28.3669 41.5702L28.2662 41.4493ZM107.449 75.4308L107.234 75.33L107.442 75.4845L107.61 75.5449L107.449 75.4308ZM469.875 20.7179C470.547 20.4493 470.741 20.8993 470.936 21.3895C470.987 21.2165 471.061 21.0515 471.158 20.8993C471.259 20.7918 471.453 20.6709 471.567 20.6978C471.647 20.7254 471.718 20.7706 471.778 20.8299C471.837 20.8892 471.882 20.9611 471.91 21.0403C472.037 21.7119 471.608 21.9402 470.788 21.6581C470.292 21.5104 469.895 21.2686 469.902 20.6642C469.674 20.7717 469.405 20.9664 469.479 20.456L469.875 20.7179ZM101.117 55.8679C101.273 55.9495 101.417 56.0511 101.547 56.1701C101.637 56.3078 101.703 56.46 101.741 56.6201C101.607 56.6671 101.412 56.788 101.338 56.741C101.222 56.6314 101.148 56.4838 101.13 56.3246C101.11 56.1461 101.11 55.9659 101.13 55.7873H100.956L101.117 55.8679ZM71.6113 103.798C70.6779 103.798 69.7445 103.798 68.8178 103.711C68.7507 103.711 68.697 103.449 68.4485 102.871C69.6841 103.173 70.8054 102.636 71.5844 103.878C71.6488 103.84 71.7191 103.813 71.7925 103.798C71.8328 103.798 71.8798 103.858 71.9268 103.892L71.6113 103.798ZM121.047 73.4496C121.235 73.4496 121.537 73.3758 121.577 73.4496C122.249 74.645 122.517 75.8404 121.383 76.9619C121.008 77.1104 120.593 77.1187 120.213 76.9855C119.833 76.8522 119.514 76.5863 119.314 76.2366C119.314 74.7995 120.604 74.3562 121.094 73.3757L120.657 73.5302L121.047 73.4496ZM98.4845 55.7135L98.8672 55.1359L99.3776 55.5389C99.2404 55.6042 99.0962 55.6537 98.9478 55.6866C98.7712 55.6999 98.5939 55.6999 98.4174 55.6866C98.4939 55.7762 98.5489 55.8822 98.5781 55.9963C98.6073 56.1105 98.6101 56.2298 98.5861 56.3452C98.5621 56.4606 98.512 56.5689 98.4397 56.662C98.3674 56.755 98.2748 56.8303 98.1689 56.882C97.775 57.1255 97.3225 57.2577 96.8595 57.2648C95.5581 57.0947 94.2387 57.1196 92.9446 57.3387C92.7159 57.3993 92.4726 57.3688 92.2659 57.2536C92.0592 57.1383 91.9054 56.9473 91.8367 56.7208C94.5227 54.2696 94.9591 54.1957 97.9473 55.5926C98.1145 55.6524 98.288 55.693 98.4644 55.7135H98.4845ZM34.3298 96.5046C33.7802 96.5008 33.232 96.4491 32.6914 96.3502C31.3484 95.9674 30.0054 95.4503 28.6019 95.1011C27.0642 94.7183 25.7347 94.0937 25.1438 92.6834C23.8008 92.0991 22.3369 92.1999 21.3968 90.85C21.5892 90.2486 21.8921 89.6883 22.2899 89.198C22.6193 88.9996 22.9966 88.8947 23.3811 88.8947C23.7656 88.8947 24.1429 88.9996 24.4723 89.198C25.087 89.4541 25.6687 89.7832 26.2047 90.1784C26.7194 90.5991 27.1937 91.0667 27.6216 91.5753C28.9646 93.0595 30.3546 94.4564 32.3623 95.0608C32.7782 95.1665 33.1672 95.3588 33.5039 95.6249C33.8406 95.891 34.1174 96.2251 34.3164 96.6054L34.444 96.6524L34.3298 96.5046ZM575.723 232.054C576.475 231.604 576.515 230.174 577.959 230.543C577.937 231.068 577.975 231.593 578.073 232.108C578.284 232.672 578.544 233.216 578.852 233.733C578.476 234.875 577.838 235.479 576.737 235.52C575.79 235.52 574.843 235.58 573.903 235.674C572.963 235.768 571.546 235.822 571.217 236.937C570.882 238.172 570.123 238.28 569.203 238.481C568.283 238.683 567.376 238.918 566.477 239.153C565.698 239.374 564.939 239.233 564.831 238.569C564.61 237.225 563.777 236.675 562.669 236.225C562.266 236.057 561.998 235.6 561.588 235.405C561.178 235.211 560.655 235.661 560.574 234.734C562.362 234.545 564.027 233.732 565.275 232.437C565.99 231.813 566.805 231.313 567.685 230.96C568.246 230.622 568.902 230.478 569.552 230.55C569.975 230.723 570.435 230.788 570.889 230.74C571.344 230.692 571.78 230.532 572.157 230.275C572.358 230.14 572.584 230.048 572.821 230.006C573.059 229.963 573.303 229.97 573.537 230.026C573.772 230.082 573.993 230.186 574.185 230.332C574.378 230.478 574.538 230.662 574.655 230.872C575.005 231.318 575.394 231.731 575.817 232.108L575.723 232.054ZM83.3087 68.386C82.4529 68.6659 81.5488 68.7668 80.6524 68.6825C79.7559 68.5981 78.8865 68.3303 78.0979 67.8957C77.5997 67.6147 77.0863 67.3613 76.5602 67.1369C76.138 66.9519 75.6768 66.8735 75.2172 66.9086C74.2301 67.0832 73.2766 67.4055 72.2626 67.6741C72.5983 68.1644 72.6722 68.7151 72.1753 68.5942C70.6129 68.2225 69.0745 67.7561 67.5688 67.1973C66.8974 66.9489 65.9774 66.6198 65.6685 66.0489C65.4753 65.7282 65.2172 65.4514 64.9108 65.2363C64.6043 65.0212 64.2563 64.8725 63.8891 64.7998C62.7341 64.3969 61.5523 64.0544 60.1891 63.6313L61.1158 62.7247L61.0755 62.812C60.0212 62.409 60.404 61.0793 59.5042 60.4413C56.5026 60.1727 53.8367 58.7221 51.1373 57.379C50.9426 57.4596 50.7143 57.4864 50.6136 57.614C49.4116 59.1385 47.9276 59.1989 46.2824 58.4938C45.4867 58.1808 44.7128 57.8151 43.9658 57.3991C43.5091 57.1372 42.8981 56.9156 42.8847 56.1701C43.0313 55.7717 43.2804 55.419 43.6071 55.1478C43.9337 54.8765 44.3261 54.6964 44.7447 54.6255C45.2584 54.5142 45.7892 54.5067 46.3058 54.6036C46.8225 54.7005 47.3145 54.8998 47.753 55.1897C48.5185 55.7269 49.1967 56.4321 50.439 56.385C50.533 55.9955 50.6337 55.5657 50.7277 55.1292C50.8217 54.6927 50.9292 54.1151 51.0501 53.5107L46.2489 50.858C46.504 50.4551 46.6249 50.0723 46.9204 49.891C47.2822 49.6593 47.6906 49.5103 48.1165 49.4546C48.5425 49.3988 48.9755 49.4378 49.3847 49.5686C50.3972 49.8139 51.3967 50.1098 52.3796 50.4551C53.9839 51.0415 55.6349 51.4908 57.3151 51.7982C58.9027 52.0195 60.4568 52.4368 61.9417 53.0406C63.6491 53.8409 65.4972 54.2973 67.3808 54.3838C68.5694 54.4241 69.7579 54.9815 70.933 55.3642C72.276 55.812 73.619 56.291 74.962 56.8014C77.2518 57.6946 79.5349 58.6079 81.8046 59.5683C82.4502 59.9701 83.0571 60.4311 83.6176 60.945C81.1196 60.804 79.3737 61.7979 77.2048 61.0457C77.4935 61.7173 77.836 62.1471 77.8024 62.5366C77.6883 63.8798 78.4739 64.6924 79.5013 65.2229C80.3206 65.646 81.2203 65.8945 82.2343 66.3176C82.5767 66.8951 82.9931 67.607 83.4094 68.3323L83.5639 68.5002L83.3087 68.386ZM368.587 25.0496C369.312 25.2511 369.849 25.4391 370.407 25.5465C371.13 25.7283 371.87 25.8318 372.616 25.8555C375.611 25.7816 378.599 25.3921 381.607 25.7614C382.264 25.7653 382.918 25.6863 383.554 25.5264C385.788 25.1571 388.074 25.2531 390.269 25.8085C390.941 25.9898 391.807 26.151 392.029 27.2725C391.29 28.1321 390.498 28.9715 389.088 28.9514C388.531 28.8742 387.965 28.9955 387.489 29.2939C385.703 31.1407 383.696 30.5766 381.748 29.858C380.671 29.4702 379.503 29.4072 378.391 29.6767C377.209 29.9386 376.087 30.4624 374.926 30.8184C374.493 30.9606 374.033 30.9974 373.583 30.9258C373.133 30.8452 372.737 30.4154 372.294 30.3818C371.85 30.3483 371.434 30.6841 370.991 30.7579C370.481 30.8717 369.951 30.8557 369.448 30.7114C368.946 30.567 368.489 30.299 368.117 29.9319C367.848 29.0991 367.593 28.2933 367.338 27.4874C367.734 26.7352 368.11 26.0032 368.587 25.0496ZM228.956 20.6575C230.507 19.4352 230.507 19.3949 230.971 19.4151C232.669 19.4621 234.382 19.4554 236.074 19.6367C237.291 19.8604 238.545 19.7632 239.713 19.3547C240.058 19.1946 240.438 19.1225 240.817 19.1448C241.197 19.1671 241.565 19.283 241.889 19.4823C242.402 19.7253 242.951 19.8841 243.514 19.9524C245.817 20.3822 248.087 20.9799 250.431 21.2082C250.992 21.29 251.548 21.4044 252.096 21.5507C252.626 21.6716 252.989 21.9939 252.848 22.5379C252.795 22.7092 252.708 22.8681 252.593 23.0054C252.478 23.1427 252.336 23.2554 252.176 23.3371C249.813 24.1631 247.308 23.8609 244.877 24.1967C244.59 24.219 244.304 24.1381 244.071 23.9683C242.675 22.9207 240.714 23.2498 239.371 22.0812C239.143 21.8865 238.646 21.9738 238.276 21.9939C235.64 22.1008 232.999 21.907 230.407 21.4164C229.889 21.2345 229.401 20.9789 228.956 20.6575ZM120.644 65.4579C119.093 65.1154 117.441 64.9744 115.984 64.3767C113.479 63.3492 110.961 62.362 108.476 61.3345C108.423 60.6629 108.376 60.0384 108.308 59.2056C109.403 59.2795 110.323 59.2728 111.256 59.4273C112.284 59.6019 113.271 59.9444 114.305 60.166C115.5 60.4145 116.709 60.9584 117.924 60.3876C118.449 60.1599 119.02 60.0595 119.59 60.0945C120.161 60.1295 120.715 60.299 121.208 60.5891C121.806 60.8644 122.41 61.1196 123.122 61.4285C123.847 60.6495 124.559 59.8235 125.727 59.9578C126.781 60.0787 127.99 59.8235 128.856 61.1532C127.285 61.7039 125.962 62.4493 124.451 61.6972C123.999 62.0744 123.601 62.5129 123.269 63C123.054 63.6196 122.603 64.1289 122.014 64.417C121.516 64.7067 121.056 65.0562 120.644 65.4579ZM413.557 260.798C413.181 261.315 412.953 261.933 412.536 262.141C411.871 262.501 411.115 262.66 410.361 262.597C408.666 262.397 406.956 262.375 405.257 262.53C404.313 262.545 403.37 262.462 402.444 262.282C402.198 262.258 401.96 262.182 401.745 262.06C401.53 261.938 401.343 261.772 401.196 261.574C401.049 261.375 400.946 261.147 400.892 260.906C400.839 260.665 400.837 260.415 400.886 260.173C401.383 259.993 401.899 259.872 402.424 259.81C404.693 259.757 406.99 259.965 409.232 259.703C409.99 259.565 410.768 259.591 411.514 259.78C412.26 259.969 412.957 260.316 413.557 260.798ZM71.3426 49.1992C72.9274 48.3732 74.1294 47.6613 75.4119 47.1106C75.886 46.8796 76.4244 46.8163 76.9391 46.931C77.4538 47.0457 77.9144 47.3315 78.2456 47.7419C78.4053 47.9788 78.5827 48.2033 78.7761 48.4135C80.334 49.7566 80.4615 50.7371 78.9641 52.1609C78.8025 52.2754 78.6264 52.368 78.4404 52.4362C75.7074 52.5235 73.4109 51.4759 71.3426 49.1992ZM66.6825 71.4014C67.394 70.847 68.2458 70.5019 69.1425 70.4046C70.0392 70.3073 70.9452 70.4618 71.759 70.8507C73.1727 71.4085 74.6397 71.8202 76.1371 72.0796C78.0308 72.4221 79.2193 73.3287 79.4946 75.5248C78.6351 75.4753 77.7802 75.3654 76.9362 75.1957C75.009 74.6853 73.102 74.0943 71.1949 73.5033C69.6639 73.0332 68.0993 72.6371 66.6825 71.4014ZM226.794 19.7307C226.626 21.3895 226.344 21.7454 225.068 21.4231C223.05 20.912 220.971 20.6859 218.89 20.7515C218.425 20.8233 217.949 20.7675 217.512 20.5901C217.076 20.4127 216.696 20.1204 216.413 19.7442C216.45 19.3065 216.657 18.9008 216.99 18.6135C217.322 18.3263 217.754 18.1802 218.192 18.2063C218.747 18.0791 219.326 18.1093 219.864 18.2936C220.851 18.9652 221.811 18.757 222.839 18.6226C223.539 18.4903 224.26 18.5215 224.946 18.7137C225.632 18.9059 226.264 19.2539 226.794 19.7307ZM24.338 49.1657C24.0569 49.2345 23.7658 49.2526 23.4784 49.2194C19.8971 47.9703 16.3449 46.701 12.8218 45.4116C12.5331 45.3041 12.3249 44.9616 12.0294 44.6863C12.2955 44.3834 12.6504 44.1723 13.0435 44.0831C13.4366 43.9939 13.8478 44.031 14.2185 44.1893C15.0968 44.4651 15.9947 44.6738 16.9045 44.8139C18.0259 44.9549 19.1607 44.9348 20.3224 44.9818C21.558 46.4861 23.8746 46.8622 24.338 49.1657ZM120.436 78.5536C120.127 79.3326 119.549 79.1311 119.019 79.017C116.91 78.5334 114.788 78.0969 112.7 77.5395C111.328 77.221 110.03 76.6394 108.879 75.827C108.752 75.733 108.745 75.4979 108.637 75.2092C109.732 74.3697 110.874 74.007 112.243 74.645C112.965 75.0893 113.769 75.3839 114.607 75.5114C115.742 75.5114 116.568 76.1225 117.454 76.5791C118.483 77.1832 119.478 77.8423 120.436 78.5536ZM508.258 78.379C509.258 78.0633 509.964 77.7745 510.695 77.6201C511.165 77.5621 511.639 77.6845 512.021 77.9625C512.404 78.2404 512.667 78.6533 512.757 79.1177C512.864 79.8564 512.878 80.6086 513.005 81.3406C513.047 81.5736 513.001 81.8137 512.878 82.0155C512.754 82.2172 512.56 82.3666 512.334 82.4353C510.669 83.3016 509.258 82.4353 507.795 81.804C507.42 81.6029 507.14 81.2627 507.015 80.8569C506.889 80.4511 506.928 80.0121 507.123 79.6348C507.478 79.196 507.857 78.7768 508.258 78.379ZM504.122 42.9469C504.618 41.409 505.82 40.9322 507.137 40.6972C507.868 40.5628 508.647 40.6569 509.379 40.5293C509.964 40.4218 510.588 40.2942 510.944 40.7979C511.3 41.3016 511.797 41.8791 511.239 42.5775C510.136 43.1067 508.939 43.4117 507.717 43.4751C506.496 43.5385 505.273 43.359 504.122 42.9469ZM94.2541 63.638C91.7964 64.2491 89.7081 64.4909 87.6264 63.6984C87.2504 63.5574 87.0019 63.094 86.6997 62.7918C87.9957 61.2539 87.9957 61.2472 88.9963 61.1935C90.012 61.0846 91.0383 61.2546 91.9647 61.6853C92.8911 62.116 93.6826 62.7911 94.2541 63.638ZM558.157 127.847C558.525 128.099 558.869 128.384 559.184 128.7C559.3 128.818 559.385 128.963 559.431 129.122C559.478 129.281 559.484 129.448 559.45 129.61C559.416 129.772 559.343 129.924 559.237 130.051C559.131 130.177 558.995 130.276 558.842 130.338C557.293 130.829 555.63 130.829 554.081 130.338C553.964 130.301 553.859 130.232 553.778 130.139C553.697 130.046 553.644 129.933 553.623 129.812C553.602 129.691 553.615 129.566 553.66 129.452C553.705 129.337 553.781 129.237 553.879 129.163C554.184 128.816 554.573 128.553 555.007 128.398C555.995 128.156 557.029 128.035 558.157 127.847ZM562.642 226.756C563.67 225.574 565.046 225.58 565.563 224.392C565.621 224.286 565.7 224.194 565.794 224.12C565.889 224.045 565.997 223.991 566.113 223.96C566.229 223.928 566.35 223.921 566.469 223.937C566.588 223.954 566.703 223.994 566.806 224.056C567.303 224.291 567.343 224.728 567.376 225.245C567.425 225.62 567.351 226.001 567.164 226.331C566.978 226.66 566.689 226.92 566.342 227.071C565.531 227.544 564.588 227.737 563.656 227.622C563.294 227.568 563.005 227.091 562.642 226.756ZM72.6252 107.156C73.7936 107.727 74.915 108.23 75.9827 108.841C76.1214 108.953 76.2303 109.097 76.2995 109.261C76.3686 109.426 76.3959 109.604 76.3789 109.782C76.2925 109.938 76.1713 110.073 76.0246 110.176C75.8779 110.278 75.7096 110.345 75.5328 110.373C75.077 110.428 74.6146 110.365 74.1898 110.191C72.9878 109.634 71.8194 109.003 70.651 108.371C70.5637 108.324 70.6107 108.042 70.5771 107.7L72.6252 107.156ZM519.277 208.818C520.129 208.288 521.08 207.938 522.071 207.788C523.063 207.638 524.075 207.691 525.045 207.945C525.233 207.985 525.448 208.355 525.482 208.617C525.497 208.748 525.482 208.881 525.438 209.006C525.394 209.13 525.322 209.243 525.227 209.335C523.387 210.557 521.58 210.181 519.277 208.818ZM563.106 215.695C563.106 215.319 563.159 214.855 563.22 214.392C563.256 214.112 563.331 213.839 563.441 213.579C563.568 213.272 563.795 213.017 564.085 212.856C564.376 212.695 564.712 212.638 565.04 212.693C565.365 212.793 565.643 213.006 565.827 213.292C566.01 213.579 566.085 213.921 566.04 214.258C565.956 214.9 565.688 215.504 565.268 215.997C564.664 216.494 563.885 216.407 563.106 215.695ZM397.73 27.5612C396.608 27.5612 395.5 27.6351 394.372 27.5612C394.253 27.5677 394.135 27.5496 394.023 27.5082C393.912 27.4667 393.81 27.4027 393.724 27.3201C393.639 27.2376 393.571 27.1383 393.525 27.0284C393.48 26.9185 393.457 26.8004 393.459 26.6815C393.468 26.4454 393.563 26.2208 393.727 26.05C393.89 25.8793 394.11 25.7742 394.345 25.7547C394.799 25.6287 395.258 25.5256 395.722 25.4458C397.038 25.2981 397.528 25.795 397.73 27.5612ZM558.385 238.112C558.078 238.626 557.66 239.065 557.162 239.398C556.663 239.73 556.097 239.947 555.504 240.033C555.277 240.088 555.037 240.055 554.832 239.94C554.628 239.826 554.475 239.638 554.403 239.415C554.337 239.292 554.298 239.156 554.288 239.017C554.278 238.878 554.298 238.739 554.345 238.607C554.393 238.476 554.467 238.357 554.564 238.256C554.661 238.156 554.777 238.077 554.907 238.025C555.439 237.72 556.045 237.567 556.658 237.582C557.271 237.598 557.869 237.781 558.385 238.112ZM396.77 258.487C397.179 259.233 397.273 259.831 396.548 260.28C395.823 260.73 395.279 260.28 394.708 259.998C394.35 259.854 394.059 259.581 393.891 259.234C393.724 258.886 393.692 258.488 393.802 258.118L396.77 258.487ZM510.481 257.816C509.977 257.534 509.493 257.22 509.03 256.876C508.936 256.77 508.87 256.642 508.837 256.505C508.804 256.367 508.806 256.224 508.841 256.087C508.877 255.95 508.946 255.824 509.043 255.72C509.139 255.617 509.259 255.538 509.393 255.492C509.737 255.327 510.118 255.251 510.499 255.273C510.881 255.294 511.251 255.411 511.575 255.613C511.844 255.788 511.965 256.184 512.213 256.58L510.481 257.816ZM571.943 241.436C572.063 242.269 571.748 242.82 570.929 242.719C569.868 242.585 568.827 242.269 567.679 242.047C569.042 240.375 570.512 241.282 571.943 241.436ZM509.493 86.693C509.446 86.5117 509.393 86.3371 509.352 86.1557C509.331 86.0461 509.337 85.9327 509.37 85.826C509.403 85.7192 509.462 85.6225 509.542 85.5444C509.622 85.4664 509.721 85.4096 509.828 85.3791C509.936 85.3487 510.049 85.3455 510.158 85.37C510.429 85.4392 510.687 85.5502 510.924 85.6991C511.156 85.8588 511.322 86.0969 511.392 86.3696C511.463 86.6423 511.432 86.9313 511.307 87.1833C511.246 87.2993 511.16 87.4004 511.056 87.4794C510.951 87.5583 510.83 87.6132 510.702 87.6399C510.165 87.7474 509.863 87.3579 509.614 86.9684C509.567 86.8676 509.534 86.7736 509.493 86.693ZM561.87 207.401C560.876 208.556 560.876 208.556 559.5 208.2C559.768 206.34 559.856 206.3 561.87 207.401ZM42.6228 100.171C43.061 99.9946 43.5095 99.8443 43.9658 99.7215C44.2781 99.6326 44.61 99.6403 44.918 99.7433C45.2259 99.8464 45.4955 100.04 45.6915 100.299C45.7312 100.379 45.7518 100.468 45.7518 100.558C45.7518 100.647 45.7312 100.736 45.6915 100.816C45.2349 101.656 44.5433 101.098 43.9792 101.004C43.6032 100.944 43.2741 100.594 42.6228 100.171ZM495.09 41.6642C494.781 42.2082 494.687 42.6783 494.418 42.7925C493.993 42.9688 493.521 43.0018 493.075 42.8865C492.961 42.8512 492.855 42.7928 492.764 42.7148C492.673 42.6369 492.6 42.5411 492.547 42.4334C492.495 42.3257 492.465 42.2084 492.46 42.0888C492.455 41.9692 492.475 41.8498 492.518 41.7381C492.54 41.6206 492.59 41.51 492.663 41.4156C492.736 41.3211 492.831 41.2455 492.939 41.1949C493.048 41.1444 493.166 41.1204 493.286 41.1249C493.405 41.1295 493.522 41.1624 493.626 41.221C493.989 41.3687 494.365 41.4359 495.09 41.6642ZM558.64 197.469C558.216 197.873 557.767 198.252 557.297 198.603C557.219 198.657 557.131 198.694 557.039 198.713C556.946 198.732 556.85 198.732 556.758 198.714C556.665 198.695 556.577 198.657 556.499 198.604C556.421 198.55 556.354 198.482 556.303 198.402C556.234 198.309 556.183 198.203 556.155 198.091C556.126 197.978 556.12 197.861 556.137 197.746C556.154 197.632 556.193 197.521 556.253 197.422C556.313 197.322 556.391 197.235 556.485 197.166C557.109 196.797 557.72 196.689 558.64 197.469ZM563.139 242.826C563.308 242.51 563.549 242.237 563.843 242.032C564.137 241.826 564.476 241.694 564.831 241.644C565.295 242.148 565.671 242.705 564.966 243.263C564.819 243.368 564.652 243.443 564.475 243.482C564.299 243.521 564.116 243.524 563.938 243.491C563.636 243.444 563.401 243.082 563.139 242.853V242.826ZM39.8226 99.0432C40.1382 97.9619 40.1382 97.9619 40.4941 97.9821C41.8371 98.0627 42.0252 98.2238 42.2333 99.567L39.8226 99.0432ZM94.1265 71.8849C94.1265 71.717 94.0593 71.4887 94.1265 71.3879C94.6301 70.8238 96 71.0051 96.2216 71.6431C96.2407 71.7229 96.2287 71.8069 96.188 71.8782C96.0624 72.0295 95.9052 72.1514 95.7274 72.2353C95.5495 72.3192 95.3554 72.363 95.1588 72.3636C94.9622 72.3643 94.7678 72.3218 94.5895 72.239C94.4111 72.1563 94.253 72.0354 94.1265 71.8849ZM381.775 35.5261C381.516 35.1709 381.279 34.8009 381.063 34.418C381.003 34.2971 381.063 33.9613 381.184 33.9344C381.431 33.8441 381.702 33.8441 381.95 33.9344C382.494 34.1896 382.453 34.5993 381.775 35.5261ZM529.504 196.535C529.594 196.679 529.658 196.839 529.692 197.005C529.692 197.368 529.692 197.818 529.148 197.73C529.021 197.684 528.907 197.609 528.814 197.511C528.721 197.413 528.651 197.295 528.611 197.166C528.497 196.703 528.873 196.562 529.282 196.495C529.367 196.493 529.451 196.507 529.531 196.535H529.504ZM425.993 260.301C426.243 260.176 426.514 260.099 426.792 260.072C427.108 260.072 427.605 259.911 427.665 260.529C427.081 261.207 426.57 260.939 426.02 260.301H425.993ZM100.922 73.7317C101.193 73.5755 101.485 73.4579 101.788 73.3825C102.046 73.4165 102.297 73.4889 102.534 73.5974C102.312 73.825 102.053 74.0135 101.768 74.1548C101.634 74.2085 101.379 73.96 100.949 73.7317H100.922ZM535.682 196.488C535.501 196.488 535.272 196.522 535.165 196.428C535.057 196.334 535.091 196.105 535.064 195.931L535.769 196.004C535.756 196.166 535.729 196.327 535.682 196.488ZM201.949 3.0758C201.895 3.00193 201.808 2.92805 201.808 2.85417C201.808 2.7803 201.908 2.71987 201.969 2.65943L202.17 3.03551L201.949 3.0758ZM88.1233 143.374C88.1832 143.422 88.2334 143.481 88.2711 143.548C88.2711 143.548 88.1905 143.635 88.1435 143.682C88.0888 143.63 88.0434 143.569 88.0092 143.501C88.0092 143.501 88.083 143.414 88.1233 143.374ZM480.505 267.889L480.33 267.782L480.485 267.688L480.505 267.889ZM278.58 28.0314L278.714 28.1119L278.6 28.1858L278.58 28.0314Z" fill="white"/>
</svg>
