<svg width="1671" height="443" viewBox="0 0 1671 443" fill="none" xmlns="http://www.w3.org/2000/svg">
<path d="M1669.22 253.04L1660.05 250.783C1659.5 249.043 1658.79 247.357 1657.93 245.743C1659.31 243.45 1662.2 238.622 1662.2 238.622C1662.76 237.7 1662.61 236.519 1661.85 235.759L1655.22 229.131C1654.46 228.369 1653.28 228.222 1652.36 228.778L1645.23 233.052C1643.62 232.202 1641.95 231.5 1640.22 230.953L1637.96 221.776C1637.7 220.733 1636.76 220 1635.69 220H1626.31C1625.24 220 1624.3 220.732 1624.04 221.776C1624.04 221.776 1622.48 228.181 1621.79 230.95C1619.94 231.534 1618.16 232.292 1616.47 233.216L1609.07 228.778C1608.15 228.229 1606.97 228.371 1606.21 229.131L1599.58 235.759C1598.82 236.519 1598.67 237.7 1599.23 238.622L1603.8 246.26C1603.06 247.714 1602.44 249.227 1601.95 250.776L1592.78 253.04C1591.73 253.301 1591 254.237 1591 255.312V264.688C1591 265.763 1591.73 266.702 1592.78 266.96L1601.95 269.217C1602.51 270.982 1603.23 272.696 1604.11 274.342L1600.02 281.162C1599.46 282.085 1599.61 283.266 1600.37 284.026L1607 290.654C1607.76 291.412 1608.94 291.556 1609.86 291.007C1609.86 291.007 1614.45 288.255 1616.7 286.91C1618.33 287.777 1620.03 288.493 1621.79 289.05L1624.04 298.224C1624.3 299.268 1625.24 300 1626.31 300H1635.69C1636.76 300 1637.7 299.267 1637.96 298.224L1640.21 289.05C1642.02 288.477 1643.76 287.738 1645.42 286.841C1647.72 288.226 1652.36 291.007 1652.36 291.007C1653.28 291.558 1654.46 291.416 1655.22 290.654L1661.85 284.026C1662.61 283.266 1662.76 282.085 1662.2 281.162L1657.99 274.142C1658.82 272.565 1659.51 270.915 1660.05 269.217L1669.22 266.96C1670.27 266.699 1671 265.763 1671 264.688V255.312C1671 254.237 1670.27 253.301 1669.22 253.04ZM1631 276.406C1621.95 276.406 1614.59 269.045 1614.59 260C1614.59 250.955 1621.95 243.594 1631 243.594C1640.05 243.594 1647.41 250.955 1647.41 260C1647.41 269.045 1640.05 276.406 1631 276.406Z" fill="white" fill-opacity="0.14"/>
<path d="M1590.96 75.1653L1570.08 70.0313C1568.83 66.0738 1567.21 62.2362 1565.27 58.5653C1568.4 53.3477 1574.99 42.3662 1574.99 42.3662C1576.25 40.2679 1575.91 37.5809 1574.19 35.8522L1559.11 20.7725C1557.38 19.0386 1554.7 18.7055 1552.59 19.9706L1536.37 29.6923C1532.72 27.7603 1528.9 26.1618 1524.97 24.9173L1519.84 4.04097C1519.24 1.66644 1517.11 0 1514.66 0H1493.34C1490.89 0 1488.75 1.66644 1488.17 4.04061C1488.17 4.04061 1484.61 18.6113 1483.04 24.912C1478.84 26.2396 1474.79 27.9633 1470.94 30.067L1454.11 19.9706C1452.01 18.7208 1449.33 19.0439 1447.6 20.7725L1432.52 35.8522C1430.79 37.5809 1430.46 40.2679 1431.72 42.3662L1442.12 59.7422C1440.44 63.0488 1439.04 66.4904 1437.92 70.0156L1417.04 75.1653C1414.67 75.7589 1413 77.8885 1413 80.3359V101.664C1413 104.111 1414.67 106.246 1417.04 106.835L1437.92 111.969C1439.19 115.983 1440.83 119.884 1442.83 123.627L1433.52 139.144C1432.26 141.243 1432.59 143.93 1434.32 145.658L1449.4 160.738C1451.12 162.462 1453.81 162.789 1455.91 161.54C1455.91 161.54 1466.35 155.281 1471.47 152.219C1475.17 154.193 1479.04 155.823 1483.04 157.088L1488.17 177.959C1488.75 180.334 1490.89 182 1493.34 182H1514.66C1517.11 182 1519.24 180.334 1519.83 177.959L1524.96 157.088C1529.07 155.786 1533.03 154.104 1536.79 152.063C1542.05 155.213 1552.59 161.54 1552.59 161.54C1554.69 162.795 1557.38 162.472 1559.11 160.738L1574.19 145.658C1575.91 143.93 1576.25 141.243 1574.99 139.144L1565.4 123.174C1567.29 119.586 1568.86 115.832 1570.08 111.969L1590.96 106.835C1593.33 106.241 1595 104.111 1595 101.664V80.3359C1595 77.8885 1593.33 75.7589 1590.96 75.1653ZM1504 128.324C1483.42 128.324 1466.68 111.578 1466.68 91C1466.68 70.4216 1483.42 53.6758 1504 53.6758C1524.58 53.6758 1541.32 70.4216 1541.32 91C1541.32 111.578 1524.58 128.324 1504 128.324Z" fill="white" fill-opacity="0.14"/>
<path d="M1589.36 399.562L1580.87 397.474C1580.36 395.865 1579.7 394.305 1578.91 392.812C1580.19 390.691 1582.86 386.226 1582.86 386.226C1583.38 385.373 1583.24 384.28 1582.54 383.577L1576.41 377.446C1575.7 376.741 1574.61 376.606 1573.76 377.12L1567.16 381.073C1565.68 380.287 1564.12 379.637 1562.53 379.131L1560.44 370.643C1560.2 369.678 1559.33 369 1558.34 369H1549.66C1548.67 369 1547.8 369.678 1547.56 370.643C1547.56 370.643 1546.12 376.567 1545.48 379.129C1543.77 379.669 1542.12 380.37 1540.56 381.225L1533.72 377.12C1532.86 376.612 1531.77 376.743 1531.07 377.446L1524.94 383.577C1524.23 384.28 1524.1 385.373 1524.61 386.226L1528.84 393.291C1528.16 394.635 1527.59 396.035 1527.13 397.468L1518.64 399.562C1517.68 399.803 1517 400.669 1517 401.664V410.336C1517 411.331 1517.68 412.199 1518.64 412.438L1527.13 414.526C1527.65 416.158 1528.32 417.744 1529.13 419.266L1525.34 425.575C1524.83 426.428 1524.97 427.521 1525.67 428.224L1531.8 434.355C1532.5 435.056 1533.59 435.189 1534.45 434.681C1534.45 434.681 1538.69 432.136 1540.77 430.891C1542.28 431.694 1543.85 432.356 1545.48 432.871L1547.56 441.357C1547.8 442.323 1548.67 443 1549.66 443H1558.34C1559.33 443 1560.2 442.322 1560.44 441.357L1562.52 432.871C1564.19 432.342 1565.8 431.658 1567.33 430.828C1569.47 432.109 1573.76 434.681 1573.76 434.681C1574.61 435.191 1575.7 435.06 1576.41 434.355L1582.54 428.224C1583.24 427.521 1583.38 426.428 1582.86 425.575L1578.97 419.082C1579.73 417.623 1580.37 416.097 1580.87 414.526L1589.36 412.438C1590.32 412.197 1591 411.331 1591 410.336V401.664C1591 400.669 1590.32 399.803 1589.36 399.562ZM1554 421.176C1545.63 421.176 1538.82 414.367 1538.82 406C1538.82 397.633 1545.63 390.824 1554 390.824C1562.37 390.824 1569.18 397.633 1569.18 406C1569.18 414.367 1562.37 421.176 1554 421.176Z" fill="white" fill-opacity="0.14"/>
<path d="M142.357 110.562L133.869 108.474C133.359 106.865 132.702 105.305 131.911 103.812C133.185 101.691 135.863 97.2258 135.863 97.2258C136.376 96.3726 136.24 95.2801 135.537 94.5773L129.406 88.446C128.703 87.7409 127.613 87.6055 126.757 88.1199L120.16 92.0727C118.676 91.2872 117.124 90.6372 115.526 90.1312L113.438 81.643C113.197 80.6776 112.331 80 111.336 80H102.664C101.669 80 100.801 80.6776 100.562 81.6429C100.562 81.6429 99.1157 87.5672 98.4763 90.129C96.772 90.6689 95.1249 91.3697 93.556 92.225L86.7155 88.1199C85.8601 87.6117 84.772 87.7431 84.0669 88.446L77.9356 94.5773C77.2328 95.2801 77.0972 96.3726 77.6096 97.2258L81.8397 104.291C81.158 105.635 80.5863 107.035 80.1312 108.468L71.643 110.562C70.6776 110.803 70 111.669 70 112.664V121.336C70 122.331 70.6776 123.199 71.6429 123.438L80.1332 125.526C80.6478 127.158 81.3167 128.744 82.1276 130.266L78.3422 136.575C77.8298 137.428 77.9654 138.521 78.6683 139.224L84.7996 145.355C85.5004 146.056 86.5928 146.189 87.4481 145.681C87.4481 145.681 91.693 143.136 93.7721 141.891C95.2774 142.694 96.8525 143.356 98.4764 143.871L100.562 152.357C100.801 153.323 101.669 154 102.664 154H111.336C112.331 154 113.197 153.322 113.438 152.357L115.524 143.871C117.194 143.342 118.803 142.658 120.334 141.828C122.47 143.109 126.757 145.681 126.757 145.681C127.61 146.191 128.703 146.06 129.406 145.355L135.537 139.224C136.24 138.521 136.376 137.428 135.863 136.575L131.965 130.082C132.734 128.623 133.371 127.097 133.869 125.526L142.357 123.438C143.323 123.197 144 122.331 144 121.336V112.664C144 111.669 143.323 110.803 142.357 110.562ZM107 132.176C98.6329 132.176 91.8242 125.367 91.8242 117C91.8242 108.633 98.6329 101.824 107 101.824C115.367 101.824 122.176 108.633 122.176 117C122.176 125.367 115.367 132.176 107 132.176Z" fill="white" fill-opacity="0.14"/>
<path d="M37.1564 254.306L32.7976 255.378C32.5356 256.204 32.1985 257.006 31.7919 257.772C32.4464 258.861 33.8217 261.154 33.8217 261.154C34.0848 261.592 34.0152 262.153 33.6543 262.514L30.5058 265.663C30.1448 266.025 29.5849 266.094 29.1457 265.83L25.758 263.801C24.9958 264.204 24.1989 264.538 23.3782 264.797L22.3062 269.156C22.1822 269.652 21.7376 270 21.2266 270H16.7734C16.2624 270 15.8167 269.652 15.6939 269.156C15.6939 269.156 14.9513 266.114 14.6229 264.799C13.7478 264.521 12.902 264.162 12.0963 263.722L8.58362 265.83C8.14439 266.091 7.5856 266.024 7.22356 265.663L4.07505 262.514C3.71413 262.153 3.64451 261.592 3.90762 261.154L6.07985 257.526C5.72976 256.836 5.43623 256.117 5.20251 255.381L0.843719 254.306C0.347938 254.182 0 253.738 0 253.227V248.773C0 248.262 0.347937 247.817 0.843645 247.694L5.20355 246.622C5.46777 245.784 5.81125 244.969 6.2277 244.188L4.28383 240.948C4.02073 240.51 4.09034 239.949 4.45127 239.588L7.59978 236.439C7.95966 236.079 8.52061 236.011 8.95984 236.272C8.95984 236.272 11.1396 237.579 12.2073 238.218C12.9803 237.806 13.7891 237.466 14.623 237.201L15.6939 232.844C15.8167 232.348 16.2624 232 16.7734 232H21.2266C21.7376 232 22.1822 232.348 22.3061 232.844L23.3771 237.201C24.2349 237.473 25.0611 237.824 25.8471 238.251C26.9441 237.593 29.1456 236.272 29.1456 236.272C29.5837 236.01 30.1448 236.077 30.5057 236.439L33.6542 239.588C34.0151 239.949 34.0847 240.51 33.8216 240.948L31.8201 244.282C32.2147 245.031 32.542 245.815 32.7975 246.622L37.1563 247.694C37.6521 247.818 38 248.262 38 248.773V253.227C38 253.738 37.6521 254.182 37.1564 254.306ZM19 243.207C14.7034 243.207 11.207 246.703 11.207 251C11.207 255.297 14.7034 258.793 19 258.793C23.2966 258.793 26.793 255.297 26.793 251C26.793 246.703 23.2966 243.207 19 243.207Z" fill="white" fill-opacity="0.14"/>
</svg>
