<svg width="26" height="17" viewBox="0 0 26 17" fill="none" xmlns="http://www.w3.org/2000/svg">
<path fill-rule="evenodd" clip-rule="evenodd" d="M12.251 4.48744C12.251 3.5786 12.013 2.79961 11.5383 2.14752C10.7472 1.08552 9.40601 0.541389 7.51032 0.513672H0V15.8456H7.00312C7.79275 15.8456 8.52323 15.7785 9.19899 15.6399C9.87476 15.4999 10.4588 15.2446 10.9542 14.8697C11.3949 14.5429 11.7616 14.1403 12.0544 13.6633C12.5172 12.9426 12.7479 12.1272 12.7479 11.2183C12.7479 10.3372 12.5453 9.58739 12.1431 8.97178C11.7364 8.35471 11.139 7.90394 10.3465 7.61801C10.8684 7.35543 11.2633 7.06367 11.5324 6.74565C12.013 6.17672 12.251 5.42252 12.251 4.48744ZM22.7304 3.13662H16.0703V1.22852H22.7304V3.13662ZM16.8457 9.05498C16.9551 8.31683 17.2228 7.73185 17.6472 7.30005C18.0715 6.86825 18.6719 6.65234 19.4408 6.65234C20.1506 6.65234 20.7436 6.85512 21.2256 7.26212C21.7018 7.67204 21.9709 8.26723 22.0256 9.05498H16.8457ZM22.1426 4.73949C22.9456 5.09252 23.6065 5.6527 24.127 6.41711C24.6017 7.09107 24.9063 7.87299 25.0453 8.7614C25.1266 9.28073 25.1592 10.0335 25.1459 11.0123H16.772C16.8223 12.1487 17.2186 12.9467 17.9757 13.4033C18.434 13.6878 18.9856 13.8307 19.6333 13.8307C20.315 13.8307 20.8724 13.6571 21.2998 13.3114C21.5349 13.1232 21.7419 12.8635 21.9193 12.5309H24.9876C24.9063 13.202 24.5337 13.8861 23.8742 14.5805C22.845 15.6819 21.4033 16.2334 19.5505 16.2334C18.02 16.2334 16.67 15.7695 15.5033 14.8387C14.3307 13.9095 13.748 12.3953 13.748 10.3004C13.748 8.33543 14.2759 6.82849 15.3303 5.77961C16.3875 4.73366 17.7553 4.20703 19.4396 4.20703C20.4406 4.20703 21.3412 4.385 22.1426 4.73949ZM3.09763 13.1846V9.09557H6.9245C7.58992 9.1014 8.10894 9.18893 8.47861 9.35523C9.13959 9.65429 9.46786 10.2013 9.46786 11.0008C9.46786 11.9431 9.12776 12.5792 8.44608 12.9147C8.07197 13.0941 7.54555 13.1846 6.87127 13.1846H3.09763ZM3.09766 3.17578V6.55873H6.87721C7.55002 6.55873 8.09862 6.43182 8.52153 6.17799C8.94148 5.92415 9.15293 5.47484 9.15293 4.83297C9.15293 4.11671 8.87494 3.64551 8.31894 3.41502C7.83689 3.25602 7.22471 3.17578 6.48092 3.17578H3.09766Z" fill="white" fill-opacity="0.72"/>
</svg>
