<svg width="45" height="45" viewBox="0 0 45 45" fill="none" xmlns="http://www.w3.org/2000/svg">
<g clip-path="url(#clip0_459_123296)">
<path d="M25.189 16.1236L27.1483 10.8299L13.9141 5.93164L5.09724 29.7531L31.5655 39.5497L38.4231 21.0218L25.189 16.1236ZM11.3706 29.0656L8.72372 28.0859L9.70338 25.4391L12.3502 26.4188L11.3706 29.0656ZM13.3299 23.7719L10.683 22.7923L11.6627 20.1454L14.3095 21.1251L13.3299 23.7719ZM15.2892 18.4783L12.6423 17.4986L13.622 14.8518L16.2688 15.8314L15.2892 18.4783ZM17.2485 13.1846L14.6016 12.205L15.5813 9.55813L18.2281 10.5378L17.2485 13.1846ZM16.6642 31.0249L14.0174 30.0452L14.997 27.3984L17.6439 28.3781L16.6642 31.0249ZM18.6235 25.7312L15.9767 24.7516L16.9563 22.1048L19.6032 23.0844L18.6235 25.7312ZM20.5828 20.4376L17.936 19.4579L18.9157 16.8111L21.5625 17.7907L20.5828 20.4376ZM22.5421 15.1439L19.8953 14.1643L20.875 11.5174L23.5218 12.4971L22.5421 15.1439ZM29.8984 35.9232L19.311 32.0046L20.2907 29.3577L22.9375 30.3374L23.9172 27.6905L21.2704 26.7109L22.25 24.0641L24.8968 25.0437L25.8765 22.3969L23.2297 21.4172L24.2093 18.7704L34.7966 22.689L29.8984 35.9232ZM31.1702 24.3562L28.5233 23.3765L27.5437 26.0234L30.1905 27.003L31.1702 24.3562ZM29.2108 29.6499L26.564 28.6702L25.5844 31.317L28.2312 32.2967L29.2108 29.6499Z" fill="white"/>
</g>
<defs>
<clipPath id="clip0_459_123296">
<rect width="33.8677" height="33.8677" fill="white" transform="translate(12.7369 0.982422) rotate(20.3107)"/>
</clipPath>
</defs>
</svg>
