<svg width="21" height="21" viewBox="0 0 21 21" fill="none" xmlns="http://www.w3.org/2000/svg">
<path fill-rule="evenodd" clip-rule="evenodd" d="M10.3192 0.134728C7.74263 0.134728 7.3358 0.134732 6.25092 0.202097C5.16603 0.269462 4.35236 0.40419 3.74211 0.67365C3.06406 0.94311 2.45382 1.27994 1.91138 1.88622C1.30113 2.49251 0.962093 3.03143 0.690872 3.70508C0.41965 4.37873 0.284052 5.11974 0.216247 6.19758C0.148442 7.27542 0.148438 7.67961 0.148438 10.4416C0.148438 13.2035 0.148442 13.6077 0.216247 14.6856C0.284052 15.7634 0.41965 16.5718 0.690872 17.1781C0.962093 17.8517 1.30113 18.458 1.91138 18.9969C2.52163 19.6032 3.06406 19.94 3.74211 20.2095C4.42016 20.479 5.16603 20.6137 6.25092 20.6811C7.3358 20.7484 7.74262 20.7484 10.5226 20.7484C13.3705 20.7484 13.7095 20.7484 14.7944 20.6811C15.8793 20.6137 16.6929 20.479 17.3032 20.2095C17.9812 19.94 18.5915 19.6032 19.1339 18.9969C19.7442 18.3906 20.0832 17.8517 20.3544 17.1781C20.6256 16.5044 20.7613 15.7634 20.8291 14.6856C20.8969 13.6077 20.8969 13.2709 20.8969 10.6437V10.1048C20.8969 7.54488 20.8969 7.14069 20.8291 6.06285C20.7613 4.98501 20.6256 4.17663 20.3544 3.57035C20.0832 2.8967 19.7442 2.29041 19.1339 1.75149C18.5237 1.1452 17.9812 0.808382 17.3032 0.538922C16.6251 0.269462 15.8793 0.134729 14.7944 0.067364C13.7095 -1.02891e-06 13.3705 0 10.7261 0H10.3192V0.134728ZM17.4388 4.98501C17.4388 5.65866 16.8963 6.19758 16.2183 6.19758C15.5402 6.19758 14.9978 5.65866 14.9978 4.98501C14.9978 4.31136 15.5402 3.77244 16.2183 3.77244C16.8285 3.70508 17.4388 4.31136 17.4388 4.98501ZM10.5905 13.9446C8.6919 13.9446 7.13238 12.3952 7.13238 10.5089C7.13238 8.62272 8.6919 7.07333 10.5905 7.07333C12.489 7.07333 14.0485 8.62272 14.0485 10.5089C14.0485 12.3952 12.489 13.9446 10.5905 13.9446ZM10.5905 5.18711C13.5739 5.18711 15.9471 7.54488 15.9471 10.5089C15.9471 13.473 13.5739 15.8308 10.5905 15.8308C7.60702 15.8308 5.23384 13.473 5.23384 10.5089C5.23384 7.54488 7.67482 5.18711 10.5905 5.18711ZM10.5905 2.02095C13.3705 2.02095 13.7095 2.02095 14.7944 2.08831C15.8115 2.15568 16.3539 2.29041 16.7607 2.42514C17.2354 2.62723 17.5744 2.82933 17.9812 3.16615C18.3203 3.50298 18.5915 3.83981 18.7271 4.37873C18.8627 4.71555 19.0661 5.32184 19.0661 6.33231C19.1339 7.41015 19.1339 7.74698 19.1339 10.5089C19.1339 13.2709 19.1339 13.6077 19.0661 14.6856C18.9983 15.6961 18.8627 16.235 18.7271 16.6392C18.5237 17.1107 18.3203 17.4475 17.9812 17.8517C17.6422 18.1886 17.3032 18.458 16.7607 18.5927C16.4217 18.7275 15.8115 18.9296 14.7944 18.9296C13.7095 18.9969 13.3705 18.9969 10.5905 18.9969C7.81043 18.9969 7.4714 18.9969 6.38651 18.9296C5.36943 18.8622 4.827 18.7275 4.42016 18.5927C3.94553 18.3907 3.60651 18.1886 3.19968 17.8517C2.86065 17.5149 2.58942 17.1781 2.45381 16.6392C2.3182 16.3023 2.11479 15.6961 2.11479 14.6856C2.04698 13.6077 2.04698 13.2709 2.04698 10.5089C2.04698 7.74698 2.04698 7.41015 2.11479 6.33231C2.18259 5.32184 2.3182 4.78292 2.45381 4.37873C2.65723 3.90717 2.86065 3.57034 3.19968 3.16615C3.5387 2.82933 3.87772 2.55987 4.42016 2.42514C4.75919 2.29041 5.36943 2.08831 6.38651 2.08831C7.4714 2.02095 7.81043 2.02095 10.5905 2.02095Z" fill="white" fill-opacity="0.72"/>
</svg>
