<svg width="40" height="40" viewBox="0 0 40 40" fill="none" xmlns="http://www.w3.org/2000/svg">
<path d="M0 20C0 8.9543 8.9543 0 20 0C31.0457 0 40 8.9543 40 20C40 31.0457 31.0457 40 20 40C8.9543 40 0 31.0457 0 20Z" fill="#CBFF77"/>
<path d="M13.572 28C13.5376 28 13.4862 28 13.4519 28C11.7874 27.8518 10.2259 27.1107 9.0591 25.925C6.31363 23.1583 6.31363 18.6624 9.0591 15.8957L12.817 12.108C14.1554 10.7575 15.9571 10 17.8789 10C19.8008 10 21.6025 10.7411 22.9409 12.108C25.6864 14.8747 25.6864 19.3705 22.9409 22.1372L21.0705 24.0311C20.5729 24.5252 19.7665 24.5417 19.2517 24.0806C18.7369 23.603 18.7197 22.8289 19.2002 22.3349L21.0705 20.441C22.8894 18.613 22.8894 15.6322 21.0705 13.8207C19.3718 12.108 16.3861 12.108 14.6702 13.8207L10.9123 17.6084C9.09343 19.4364 9.09343 22.4172 10.9123 24.2288C11.6501 24.9863 12.6454 25.4474 13.6921 25.5462C14.3956 25.6121 14.9104 26.2214 14.8417 26.8966C14.7903 27.5224 14.224 28 13.572 28Z" fill="#414142"/>
<path d="M21.719 30C19.9057 30 18.2057 29.3004 16.9429 28.0101C14.3524 25.3984 14.3524 21.1543 16.9429 18.5426L18.7076 16.7548C19.1771 16.2884 19.9381 16.2729 20.4238 16.7081C20.9095 17.159 20.9257 17.8897 20.4724 18.3561L18.7076 20.1438C16.9914 21.8694 16.9914 24.6833 18.7076 26.3933C20.3105 28.0101 23.1276 28.0256 24.7466 26.3933L28.2924 22.8178C30.0086 21.0922 30.0086 18.2783 28.2924 16.5682C27.5962 15.8531 26.6571 15.4179 25.6695 15.3246C25.0057 15.2624 24.52 14.6872 24.5848 14.0498C24.6495 13.4124 25.2324 12.9305 25.9124 13.0082C27.4828 13.1637 28.9562 13.8477 30.0571 14.967C32.6476 17.5787 32.6476 21.8228 30.0571 24.4345L26.5114 28.0101C25.2324 29.3004 23.5324 30 21.719 30Z" fill="#414142"/>
</svg>
