<svg width="36" height="36" viewBox="0 0 36 36" fill="none" xmlns="http://www.w3.org/2000/svg">
<path d="M0 18C0 8.05887 8.05887 0 18 0C27.9411 0 36 8.05887 36 18C36 27.9411 27.9411 36 18 36C8.05887 36 0 27.9411 0 18Z" fill="#414142"/>
<path fill-rule="evenodd" clip-rule="evenodd" d="M13.6897 12.1071C13.6897 13.1167 12.9298 13.9245 11.7096 13.9245H11.6873C10.5124 13.9245 9.75293 13.1167 9.75293 12.1071C9.75293 11.0762 10.5356 10.291 11.7327 10.291C12.9298 10.291 13.667 11.0762 13.6897 12.1071ZM13.4603 15.3604V25.8745H9.96094V15.3604H13.4603ZM26.0795 25.8753L26.0796 19.8468C26.0796 16.6173 24.3533 15.1143 22.0505 15.1143C20.1926 15.1143 19.3607 16.1348 18.8963 16.8507V15.3614H15.3965C15.4426 16.348 15.3965 25.8756 15.3965 25.8756H18.8963V20.0036C18.8963 19.6894 18.919 19.3759 19.0115 19.1509C19.2644 18.5232 19.8403 17.8732 20.8071 17.8732C22.0739 17.8732 22.5802 18.8373 22.5802 20.2502V25.8753H26.0795Z" fill="#CBFF77"/>
</svg>
