<svg width="40" height="40" viewBox="0 0 40 40" fill="none" xmlns="http://www.w3.org/2000/svg">
<path d="M0 20C0 8.9543 8.9543 0 20 0C31.0457 0 40 8.9543 40 20C40 31.0457 31.0457 40 20 40C8.9543 40 0 31.0457 0 20Z" fill="#CBFF77"/>
<path fill-rule="evenodd" clip-rule="evenodd" d="M14.4325 12.3522C14.4325 13.6598 13.4482 14.7061 11.8678 14.7061H11.8389C10.3172 14.7061 9.3335 13.6598 9.3335 12.3522C9.3335 11.017 10.3472 10 11.8977 10C13.4482 10 14.403 11.017 14.4325 12.3522ZM14.134 16.5664V30.1845H9.60156V16.5664H14.134ZM30.4793 30.184L30.4795 22.3758C30.4795 18.1929 28.2435 16.2461 25.2609 16.2461C22.8545 16.2461 21.7771 17.5679 21.1756 18.4951V16.5662H16.6426C16.7023 17.8441 16.6426 30.1843 16.6426 30.1843H21.1756V22.5789C21.1756 22.1719 21.205 21.7659 21.3248 21.4745C21.6524 20.6614 22.3982 19.8195 23.6504 19.8195C25.2912 19.8195 25.947 21.0683 25.947 22.8983V30.184H30.4793Z" fill="#404142"/>
</svg>
