<svg width="36" height="36" viewBox="0 0 36 36" fill="none" xmlns="http://www.w3.org/2000/svg">
<path d="M0 18C0 8.05887 8.05887 0 18 0C27.9411 0 36 8.05887 36 18C36 27.9411 27.9411 36 18 36C8.05887 36 0 27.9411 0 18Z" fill="#DBDAD8"/>
<path d="M12.4766 25C12.448 25 12.4051 25 12.3765 25C10.9895 24.8683 9.68828 24.2095 8.71592 23.1556C6.42803 20.6963 6.42803 16.6999 8.71592 14.2407L11.8475 10.8737C12.9628 9.67337 14.4643 9 16.0658 9C17.6673 9 19.1687 9.65874 20.2841 10.8737C22.572 13.333 22.572 17.3294 20.2841 19.7887L18.7255 21.4721C18.3108 21.9112 17.6387 21.9259 17.2097 21.516C16.7808 21.0915 16.7665 20.4035 17.1668 19.9643L18.7255 18.2809C20.2412 16.656 20.2412 14.0064 18.7255 12.3962C17.3098 10.8738 14.8217 10.8738 13.3918 12.3962L10.2603 15.763C8.74452 17.3879 8.74452 20.0375 10.2603 21.6478C10.8751 22.3212 11.7045 22.731 12.5767 22.8189C13.163 22.8774 13.592 23.4191 13.5348 24.0192C13.4919 24.5755 13.02 25 12.4766 25Z" fill="#414142"/>
<path d="M19.9286 27C18.3286 27 16.8286 26.3416 15.7143 25.1272C13.4286 22.6691 13.4286 18.6747 15.7143 16.2166L17.2714 14.534C17.6857 14.095 18.3571 14.0803 18.7857 14.49C19.2143 14.9143 19.2286 15.6021 18.8286 16.041L17.2714 17.7236C15.7571 19.3477 15.7571 21.996 17.2714 23.6055C18.6857 25.1272 21.1714 25.1418 22.6 23.6055L25.7286 20.2402C27.2428 18.6161 27.2428 15.9678 25.7286 14.3583C25.1143 13.6853 24.2857 13.2756 23.4143 13.1878C22.8286 13.1293 22.4 12.5879 22.4571 11.988C22.5143 11.3881 23.0286 10.9346 23.6286 11.0078C25.0143 11.1541 26.3143 11.7978 27.2857 12.8513C29.5714 15.3094 29.5714 19.3038 27.2857 21.7619L24.1571 25.1272C23.0286 26.3416 21.5286 27 19.9286 27Z" fill="#414142"/>
</svg>
