<svg width="84" height="27" viewBox="0 0 84 27" fill="none" xmlns="http://www.w3.org/2000/svg">
<path fill-rule="evenodd" clip-rule="evenodd" d="M9.4 1.57361e-07C4.20852 3.62805e-07 -2.05444e-07 4.20852 0 9.4L1.57361e-07 16.6C2.70824e-07 21.7915 4.20852 26 9.4 26H16.6C17.4678 26 18.3081 25.8824 19.1059 25.6623L14.6197 21.1761H10.6239C7.42065 21.1761 4.8239 18.5794 4.8239 15.3761L4.8239 10.6239C4.8239 7.42065 7.42065 4.8239 10.6239 4.8239H15.3761C18.5794 4.8239 21.1761 7.42065 21.1761 10.6239V14.6666L25.6521 19.1426C25.8788 18.3339 26 17.4811 26 16.6V9.4C26 4.20852 21.7915 -1.13463e-07 16.6 0L9.4 1.57361e-07Z" fill="white"/>
<path fill-rule="evenodd" clip-rule="evenodd" d="M10.9695 6.86133C8.70068 6.86133 6.86145 8.69728 6.86145 10.9621V15.0269C6.86145 17.2917 8.70068 19.1277 10.9695 19.1277H15.0416C15.1788 19.1277 15.3145 19.1209 15.4482 19.1078L21.6287 25.2773L21.6294 25.2766L21.6294 25.278L25.238 25.2712L25.2448 21.669L25.2434 21.669L25.2781 21.6344L19.1236 15.4909C19.1408 15.3386 19.1496 15.1838 19.1496 15.0269V10.9621C19.1496 8.69729 17.3104 6.86133 15.0416 6.86133H10.9695Z" fill="white"/>
<path d="M48.5944 21.24C47.3752 21.9367 45.9739 22.285 44.3905 22.285C42.7279 22.285 41.2949 21.9208 40.0915 21.1925C38.8881 20.4641 37.9697 19.4507 37.3364 18.1523C36.703 16.8539 36.3863 15.3655 36.3863 13.6871C36.3863 12.0404 36.703 10.5678 37.3364 9.26941C37.9856 7.95518 38.9119 6.92596 40.1153 6.18176C41.3345 5.43756 42.7596 5.06546 44.3905 5.06546C46.0372 5.06546 47.4623 5.43756 48.6657 6.18176C49.8849 6.92596 50.8112 7.95518 51.4445 9.26941C52.0779 10.5678 52.3946 12.0404 52.3946 13.6871C52.3946 14.9538 52.2046 16.1256 51.8246 17.2023C51.4604 18.2632 50.922 19.1815 50.2095 19.9574L52.5608 21.9762L51.1833 23.4726L48.5944 21.24ZM39.189 13.6871C39.189 14.9538 39.4027 16.0622 39.8303 17.0123C40.2578 17.9623 40.8674 18.6986 41.6591 19.2211C42.4508 19.7278 43.3613 19.9812 44.3905 19.9812C45.1822 19.9812 45.9105 19.8228 46.5756 19.5061L45.2218 18.3423L46.5993 16.846L48.2144 18.2236C48.6577 17.6852 48.9982 17.0281 49.2357 16.2522C49.4732 15.4764 49.592 14.6213 49.592 13.6871C49.592 12.4204 49.3782 11.312 48.9507 10.362C48.5232 9.41191 47.9135 8.67563 47.1218 8.1531C46.346 7.63058 45.4355 7.36932 44.3905 7.36932C43.3771 7.36932 42.4745 7.63058 41.6828 8.1531C40.8911 8.67563 40.2736 9.41983 39.8303 10.3857C39.4027 11.3358 39.189 12.4362 39.189 13.6871ZM54.1041 10.362H56.7405L58.9493 19.0074H58.9968L61.1344 10.362H63.6758L65.8847 19.0074H65.9322L68.0935 10.362H70.6824L67.2385 22H64.6021L62.4408 13.3308H62.3932L60.2319 22H57.5955L54.1041 10.362ZM74.6186 26.4652C74.0961 26.4652 73.5973 26.4177 73.1223 26.3227V24.2801C73.5023 24.3434 73.8506 24.3751 74.1673 24.3751C75.0065 24.3751 75.5845 23.9713 75.9011 23.1638L76.4237 21.8337L71.7684 10.362H74.4761L77.5637 18.9124H77.6112L80.5326 10.362H83.1452L78.2762 23.2113C77.8804 24.2722 77.3895 25.0797 76.8037 25.6339C76.2178 26.1881 75.4895 26.4652 74.6186 26.4652Z" fill="white"/>
</svg>
