<svg width="393" height="763" viewBox="0 0 393 763" fill="none" xmlns="http://www.w3.org/2000/svg">
<rect x="2" width="388" height="763" rx="48.3253" fill="#F9F8F5"/>
<path d="M2.58112 59.3672L2.58111 85.178V85.178C1.15562 85.178 3.46851e-05 84.0224 3.47474e-05 82.5969L3.565e-05 61.9483C3.57123e-05 60.5228 1.15562 59.3672 2.58112 59.3672V59.3672Z" fill="#F9F8F5"/>
<path d="M2.58105 105.827L2.58105 157.449V157.449C1.15556 157.449 -2.62862e-05 156.293 -2.62239e-05 154.868L-2.41931e-05 108.408C-2.41308e-05 106.983 1.15556 105.827 2.58105 105.827V105.827Z" fill="#F9F8F5"/>
<path d="M2.58109 167.773L2.58108 219.395V219.395C1.15559 219.395 4.23136e-06 218.239 4.29367e-06 216.813L6.32448e-06 170.354C6.38679e-06 168.929 1.1556 167.773 2.58109 167.773V167.773Z" fill="#F9F8F5"/>
<path d="M390 205L390 115V115C391.657 115 393 116.343 393 118L393 202C393 203.657 391.657 205 390 205V205Z" fill="#F9F8F5"/>
<rect x="14" y="13" width="364" height="738" rx="36.8193" fill="url(#paint0_linear_569_116591)"/>
<defs>
<linearGradient id="paint0_linear_569_116591" x1="196" y1="13" x2="196" y2="4436" gradientUnits="userSpaceOnUse">
<stop offset="0.099557" stop-color="#191C1F"/>
<stop offset="1" stop-color="#1E2832"/>
</linearGradient>
</defs>
</svg>
