<svg width="20" height="17" viewBox="0 0 20 17" fill="none" xmlns="http://www.w3.org/2000/svg">
<path d="M7.94613 3.50583C6.59933 3.72633 5.65657 4.29961 5.11785 5.22568C4.57912 6.15175 4.30976 7.43061 4.30976 9.06225H8.14815V17H0V8.92996C0 6.41634 0.695847 4.36576 2.08754 2.77821C3.47924 1.19066 5.4321 0.264591 7.94613 0V3.50583ZM11.8519 8.92996C11.8519 6.41634 12.5477 4.36576 13.9394 2.77821C15.3311 1.19066 17.2839 0.264591 19.798 0V3.50583C18.4512 3.72633 17.5084 4.29961 16.9697 5.22568C16.431 6.15175 16.1616 7.43061 16.1616 9.06225H20V17H11.8519V8.92996Z" fill="white"/>
</svg>
