<svg width="61" height="32" viewBox="0 0 61 32" fill="none" xmlns="http://www.w3.org/2000/svg">
<g clip-path="url(#clip0_505_123255)">
<path d="M21.9897 11.2723L16.6665 31.7002H15.0324C13.4373 31.7002 11.8421 31.6948 10.2475 31.7056C10.0029 31.7056 9.88864 31.6453 9.80969 31.3941C7.25933 23.2438 4.70337 15.0945 2.14184 6.94623C1.45959 4.7726 0.777341 2.59897 0.095091 0.425349C0.0651852 0.330555 0.0394756 0.235157 0 0.101721H0.348093C2.69031 0.101721 5.03313 0.10655 7.37535 0.094474C7.65527 0.094474 7.76174 0.169947 7.83292 0.4495C9.61251 7.42442 11.3989 14.3973 13.192 21.3682C13.2165 21.4624 13.2459 21.5554 13.2961 21.7305C13.6179 20.41 13.9205 19.1729 14.2208 17.9357C15.6407 12.0814 17.059 6.22652 18.4758 0.371009C18.5236 0.174778 18.5954 0.0974928 18.8107 0.0980966C20.9835 0.107757 23.1566 0.107757 25.3302 0.0980966C25.5413 0.0980966 25.6155 0.165722 25.6651 0.371009C27.3526 7.34835 29.0445 14.3249 30.7407 21.3006C30.7665 21.4063 30.7964 21.5107 30.846 21.6955C30.8992 21.5385 30.9351 21.454 30.9578 21.3646C32.7386 14.4211 34.516 7.47756 36.2901 0.534029C36.3738 0.204967 36.4868 0.0914559 36.8361 0.0896445C39.1383 0.0763613 41.4416 0.0353031 43.7426 0.00390625C43.8311 0.00390625 43.922 0.00390625 44.05 0.00390625C43.913 0.441047 43.7868 0.849206 43.6588 1.25736C40.5127 11.2717 37.3691 21.2867 34.2278 31.3023C34.1524 31.5438 34.0483 31.6042 33.8127 31.6C31.7894 31.5903 29.766 31.5903 27.7424 31.6C27.4655 31.6 27.35 31.5293 27.2776 31.251C25.563 24.6742 23.8441 18.0987 22.1207 11.5247C22.098 11.4378 22.0705 11.352 22.0453 11.2657L21.9897 11.2723Z" fill="black"/>
<path d="M50.6765 26.7407C50.6717 23.7574 52.8973 21.4823 55.8305 21.4727C58.7983 21.463 60.9964 23.6844 61.0006 26.6972C61.0042 29.7693 58.839 31.9985 55.8472 32.0021C52.8686 32.0033 50.6819 29.7808 50.6765 26.7407Z" fill="black"/>
</g>
<defs>
<clipPath id="clip0_505_123255">
<rect width="61" height="32" fill="white"/>
</clipPath>
</defs>
</svg>
