<svg width="36" height="36" viewBox="0 0 36 36" fill="none" xmlns="http://www.w3.org/2000/svg">
<path d="M18.0496 32H17.9424C17.8473 31.9558 17.75 31.9165 17.651 31.8824C14.5835 31.0075 11.5154 30.1325 8.44649 29.2575C8.28256 29.211 8.20006 29.1482 8.18453 28.9557C8.07203 27.5415 7.94721 26.1279 7.82292 24.7148C7.63328 22.558 7.44239 20.4018 7.25025 18.2461C7.07168 16.1983 6.89311 14.1505 6.71454 12.1027C6.51205 9.73772 6.31009 7.37239 6.10866 5.0067C6.08509 4.72835 6.03634 4.45218 6.00152 4.17493C6.0042 4.0847 5.9683 3.96275 6.13545 4.01087C6.16212 4.01443 6.18913 4.01443 6.2158 4.01087H29.7762C29.8833 4.01087 30.0403 3.95619 29.9905 4.17493C29.9644 4.27886 29.944 4.3842 29.9294 4.49046C29.8667 5.197 29.8105 5.90463 29.7489 6.61117C29.631 7.96008 29.5123 9.31008 29.3926 10.6612C29.2957 11.7757 29.2046 12.8907 29.1071 14.0052C28.9903 15.3461 28.8676 16.6848 28.7509 18.0279C28.6534 19.1511 28.5628 20.2754 28.4648 21.3992C28.348 22.7401 28.2264 24.0788 28.108 25.4213C28.0052 26.59 27.898 27.7586 27.8064 28.9278C27.7898 29.1367 27.7111 29.2116 27.5198 29.2652C24.8952 30.0056 22.2724 30.753 19.6513 31.5073C19.1146 31.6609 18.5837 31.8359 18.0496 32ZM10.4522 9.15732C10.4843 9.51059 10.5138 9.82667 10.5406 10.1417C10.6541 11.4831 10.7645 12.8245 10.8807 14.166C10.9965 15.4976 11.1282 16.8286 11.229 18.1613C11.2498 18.4402 11.3179 18.5244 11.5986 18.5233C14.8466 18.5129 18.0946 18.5167 21.3426 18.5167H21.6458C21.6569 18.5443 21.6649 18.5731 21.6693 18.6026C21.5622 19.8259 21.4551 21.0492 21.356 22.2731C21.3415 22.4464 21.2649 22.5175 21.101 22.5618C20.1201 22.8243 19.143 23.1016 18.1626 23.3673C18.0613 23.397 17.9543 23.4004 17.8514 23.3772C16.8544 23.1038 15.8601 22.8216 14.8621 22.5536C14.6982 22.5093 14.6478 22.4213 14.6377 22.2704C14.5841 21.5808 14.5177 20.8928 14.4737 20.2027C14.4598 19.984 14.3939 19.9041 14.1711 19.9074C13.3327 19.9189 12.4938 19.9118 11.6532 19.9129C11.5756 19.9129 11.4984 19.9249 11.3881 19.9342C11.41 20.1797 11.4304 20.4034 11.4491 20.6276C11.5622 21.969 11.6779 23.3072 11.7839 24.6519C11.8 24.8581 11.8884 24.945 12.0797 24.9986C13.967 25.528 15.851 26.0694 17.7394 26.5971C17.9001 26.6397 18.0689 26.6397 18.2296 26.5971C20.126 26.0683 22.0186 25.5241 23.9156 24.9953C24.1159 24.9406 24.192 24.8406 24.2032 24.6421C24.2236 24.279 24.2541 23.9164 24.2857 23.5538C24.3857 22.412 24.487 21.2703 24.5895 20.1289C24.6909 18.9783 24.7913 17.8277 24.8906 16.6771C24.927 16.256 24.9554 15.8344 24.9902 15.3751H14.0489C13.9573 14.33 13.8695 13.3178 13.7778 12.2711H14.1368C17.7507 12.2711 21.3644 12.2726 24.9779 12.2755C25.1991 12.2755 25.2886 12.2301 25.2993 11.9796C25.3207 11.4716 25.3893 10.9652 25.4327 10.4583C25.4697 10.0279 25.498 9.59699 25.5307 9.15404L10.4522 9.15732Z" fill="#3F4042"/>
</svg>
