<svg width="32" height="32" viewBox="0 0 32 32" fill="none" xmlns="http://www.w3.org/2000/svg">
<path fill-rule="evenodd" clip-rule="evenodd" d="M11.5692 1.93675e-07C5.17972 4.46529e-07 -2.52854e-07 5.17972 0 11.5692L1.93675e-07 20.4308C3.33322e-07 26.8203 5.17972 32 11.5692 32H20.4308C21.4988 32 22.5331 31.8553 23.515 31.5844L17.9935 26.0629H13.0756C9.13311 26.0629 5.93711 22.8669 5.93711 18.9244L5.93711 13.0756C5.93711 9.13311 9.13311 5.93711 13.0756 5.93711L18.9244 5.93711C22.8669 5.93711 26.0629 9.13311 26.0629 13.0756V18.0512L31.5718 23.5601C31.8508 22.5648 32 21.5152 32 20.4308V11.5692C32 5.17972 26.8203 -1.39647e-07 20.4308 0L11.5692 1.93675e-07Z" fill="white"/>
<path fill-rule="evenodd" clip-rule="evenodd" d="M13.5009 8.44507C10.7085 8.44507 8.44482 10.7047 8.44482 13.4921V18.495C8.44482 21.2824 10.7085 23.5421 13.5009 23.5421H18.5127C18.6816 23.5421 18.8485 23.5338 19.0132 23.5177L26.6199 31.1109L26.6208 31.1101L26.6208 31.1117L31.0621 31.1034L31.0705 26.6699L31.0688 26.6699L31.1115 26.6273L23.5367 19.066C23.5579 18.8786 23.5687 18.6881 23.5687 18.495V13.4921C23.5687 10.7047 21.3051 8.44507 18.5127 8.44507H13.5009Z" fill="white"/>
</svg>
