<svg width="36" height="36" viewBox="0 0 36 36" fill="none" xmlns="http://www.w3.org/2000/svg">
<path d="M0 18C0 8.05887 8.05887 0 18 0C27.9411 0 36 8.05887 36 18C36 27.9411 27.9411 36 18 36C8.05887 36 0 27.9411 0 18Z" fill="#414142"/>
<path d="M18.3188 14.8412L18.3554 15.4251L17.7457 15.3536C15.5266 15.0795 13.5878 14.15 11.9418 12.589L11.137 11.8144L10.9297 12.3864C10.4908 13.6615 10.7712 15.008 11.6857 15.9137C12.1734 16.4142 12.0637 16.4857 11.2224 16.1878C10.9297 16.0925 10.6737 16.021 10.6493 16.0567C10.564 16.1401 10.8566 17.2245 11.0883 17.6535C11.4053 18.2494 12.0515 18.8333 12.7587 19.1789L13.3562 19.4529L12.649 19.4648C11.9662 19.4648 11.9418 19.4768 12.0149 19.727C12.2588 20.5016 13.2221 21.3238 14.295 21.6813L15.051 21.9316L14.3926 22.3129C13.4171 22.8611 12.271 23.1709 11.1248 23.1947C10.5761 23.2067 10.125 23.2543 10.125 23.2901C10.125 23.4092 11.6126 24.0766 12.4783 24.3387C15.0754 25.1133 18.1603 24.7797 20.477 23.4569C22.123 22.5155 23.7691 20.6446 24.5373 18.8333C24.9518 17.868 25.3664 16.1044 25.3664 15.2583C25.3664 14.7101 25.403 14.6386 26.0858 13.9832C26.4882 13.6019 26.8662 13.1848 26.9393 13.0656C27.0612 12.8392 27.049 12.8392 26.4272 13.0418C25.3908 13.3993 25.2445 13.3516 25.7566 12.8154C26.1346 12.4341 26.5857 11.7429 26.5857 11.5403C26.5857 11.5046 26.4028 11.5641 26.1955 11.6714C25.9761 11.7906 25.4883 11.9693 25.1225 12.0766L24.4641 12.2791L23.8666 11.8859C23.5374 11.6714 23.0741 11.4331 22.8302 11.3616C22.2084 11.1947 21.2573 11.2186 20.6964 11.4092C19.1723 11.9455 18.209 13.3278 18.3188 14.8412Z" fill="#CBFF77"/>
</svg>
