<svg width="274" height="51" viewBox="0 0 274 51" fill="none" xmlns="http://www.w3.org/2000/svg">
<g id="logo">
<path id="Vector" d="M68.5 13.3024C68.7504 13.9969 68.7226 14.6336 68.6883 15.3623C68.6776 15.5909 68.6669 15.8195 68.6562 16.0546C68.6455 16.2917 68.6327 16.5311 68.6198 16.7746C68.6091 17.0161 68.5984 17.2554 68.5856 17.5033C68.5578 18.0973 68.5299 18.6913 68.5 19.2853C67.5688 19.1721 66.6997 19.0033 65.7921 18.749C63.8698 18.2148 61.9475 17.8259 60.0038 18.4841C59.4751 18.8836 59.246 19.0717 59.0812 19.7127C59.0641 20.3644 59.0641 20.3644 59.2953 20.9947C60.0873 21.7405 60.965 22.1593 61.9582 22.5717C62.1059 22.6336 62.2558 22.6977 62.4099 22.764C63.1484 23.0802 63.8912 23.3879 64.6361 23.6892C67.1364 24.7191 68.6862 25.9029 69.7587 28.4605C70.373 30.5567 70.296 33.2405 69.429 35.2405C68.181 37.4114 66.3315 38.5781 64.0047 39.3708C59.9417 40.4285 55.3116 39.8174 51.375 38.5161C51.3343 36.4435 51.4606 34.3858 51.589 32.3195C52.334 32.4477 52.9719 32.6443 53.6633 32.9477C56.095 33.9328 58.7623 34.2383 61.2839 33.3986C61.7634 33.1058 61.8854 32.8409 62.0781 32.3195C62.183 31.5674 62.183 31.5674 61.864 30.8238C61.4423 30.5289 61.4423 30.5289 60.9179 30.3003C60.7231 30.2084 60.5304 30.1165 60.3313 30.0247C59.5757 29.6892 58.8115 29.3729 58.0452 29.0652C54.9905 27.8259 52.9055 26.5503 51.5633 23.4306C50.8227 21.4178 50.9747 19.1016 51.8031 17.1486C53.0554 14.7746 54.8406 13.4862 57.3687 12.6614C60.3613 11.8281 65.6615 11.6956 68.5 13.3024Z" fill="white"/>
<path id="Vector_2" d="M74.4938 12.6614C77.1781 12.6614 79.8625 12.6614 82.6281 12.6614C82.6281 21.4755 82.6281 30.2896 82.6281 39.3708C79.9438 39.3708 77.2595 39.3708 74.4938 39.3708C74.4938 30.5567 74.4938 21.7426 74.4938 12.6614Z" fill="white"/>
<path id="Vector_3" d="M74.4938 1.12292C77.1781 1.12292 79.8625 1.12292 82.6281 1.12292C82.6281 3.52036 82.6281 5.9178 82.6281 8.38788C79.9438 8.38788 77.2595 8.38788 74.4938 8.38788C74.4938 5.99045 74.4938 3.59301 74.4938 1.12292Z" fill="white"/>
<path id="Vector_4" d="M108.316 13.7299C109.11 14.482 109.718 15.3346 110.242 16.294C110.381 16.1038 110.381 16.1038 110.525 15.9115C111.918 14.0653 113.284 12.8816 115.568 12.2876C118.143 12.0824 120.581 12.2213 122.679 13.8688C124.649 15.6679 125.334 18.0034 125.464 20.6102C125.501 21.9393 125.49 23.2683 125.483 24.5974C125.481 25.0247 125.481 25.4521 125.481 25.8794C125.479 26.997 125.475 28.1145 125.471 29.2299C125.466 30.373 125.464 31.5162 125.462 32.6593C125.458 34.8965 125.449 37.1337 125.441 39.3709C122.756 39.3709 120.072 39.3709 117.306 39.3709C117.298 38.1294 117.291 36.8858 117.283 35.6059C117.276 34.8153 117.27 34.0269 117.261 33.2363C117.251 31.9841 117.24 30.732 117.231 29.4799C117.227 28.4713 117.218 27.4606 117.208 26.4499C117.203 26.0653 117.201 25.6829 117.199 25.2982C117.276 22.1636 117.276 22.1636 116.022 19.3794C115.033 18.9051 114.102 18.9414 113.025 19.0717C112.218 19.373 112.021 19.6017 111.58 20.341C111.135 21.4307 111.064 22.3816 111.053 23.5546C111.051 23.7256 111.049 23.8965 111.047 24.0739C111.041 24.638 111.036 25.2021 111.03 25.7662C111.026 26.1572 111.021 26.5482 111.017 26.9414C111.006 27.9713 110.996 29.0012 110.985 30.0311C110.974 31.0824 110.961 32.1337 110.951 33.185C110.927 35.247 110.906 37.3089 110.884 39.3709C109.761 39.3752 108.637 39.3794 107.513 39.3816C107.13 39.3837 106.747 39.3858 106.363 39.388C105.815 39.3901 105.267 39.3901 104.717 39.3923C104.46 39.3944 104.46 39.3944 104.195 39.3944C103.786 39.3944 103.375 39.3837 102.964 39.3709C102.534 38.9414 102.718 38.0739 102.716 37.4863C102.716 37.3111 102.714 37.1358 102.714 36.9564C102.711 36.5739 102.709 36.1914 102.707 35.8111C102.705 35.2064 102.701 34.6017 102.696 33.997C102.684 32.2769 102.671 30.5589 102.664 28.8388C102.66 27.7897 102.652 26.7384 102.643 25.6893C102.639 25.2876 102.637 24.888 102.637 24.4884C102.637 23.9264 102.63 23.3645 102.626 22.8046C102.626 22.6401 102.626 22.4735 102.628 22.3046C102.609 21.0952 102.371 20.1786 101.491 19.3196C100.659 18.8645 99.8152 18.92 98.8968 19.0717C98.0641 19.4606 97.6574 20.0589 97.225 20.8623C96.799 22.1572 96.7241 23.4371 96.7113 24.7918C96.7091 24.9499 96.707 25.1102 96.7048 25.2726C96.6984 25.7918 96.6941 26.3111 96.6877 26.8303C96.6834 27.1914 96.6792 27.5546 96.6749 27.9158C96.6642 28.8645 96.6535 29.8132 96.6428 30.7619C96.6299 31.9029 96.6149 33.044 96.6021 34.1829C96.5807 35.9136 96.5614 37.6423 96.5422 39.3709C93.8578 39.3709 91.1735 39.3709 88.4078 39.3709C88.3371 30.5568 88.2665 21.7427 88.1937 12.6615C90.6661 12.6615 93.1386 12.6615 95.6859 12.6615C95.8272 13.9307 95.9685 15.1999 96.114 16.5076C96.3966 16.014 96.6792 15.5205 96.9703 15.0119C97.4648 14.4499 97.4648 14.4499 98.0406 13.9435C98.1433 13.8517 98.2461 13.7576 98.351 13.6636C101.115 11.4136 105.52 11.7619 108.316 13.7299Z" fill="white"/>
<path id="Vector_5" d="M150.411 13.5822C153.225 15.6035 154.448 18.8022 155.034 22.1163C155.73 26.9903 155.762 32.5608 152.673 36.674C151.053 38.6249 149.036 39.5757 146.519 39.8599C144.335 39.939 142.293 39.3151 140.639 37.8749C140.052 37.2125 139.536 36.5309 139.14 35.7381C139.07 40.4625 138.999 45.1869 138.926 50.0544C136.242 50.0544 133.557 50.0544 130.792 50.0544C130.792 37.7146 130.792 25.3749 130.792 12.6612C133.264 12.6612 135.737 12.6612 138.284 12.6612C138.729 13.1057 138.654 13.9839 138.725 14.5971C138.744 14.7595 138.766 14.9219 138.785 15.0886C138.832 15.4903 138.879 15.892 138.926 16.2937C139.012 16.1548 139.097 16.0159 139.187 15.8706C140.463 13.9133 141.822 12.8728 144.115 12.3343C146.427 11.9454 148.441 12.3193 150.411 13.5822ZM140.559 19.4198C138.47 22.3984 138.708 26.7616 139.273 30.2018C139.588 31.7702 140.365 33.1334 141.709 34.0287C142.878 34.174 143.939 34.174 145.027 33.7082C146.804 31.9347 146.9 29.377 146.915 26.9924C146.915 26.7488 146.915 26.5074 146.913 26.2574C146.917 26.0159 146.921 25.7745 146.923 25.5245C146.926 23.2488 146.735 20.6292 145.134 18.8578C144.303 18.2681 143.558 18.0971 142.554 18.1441C141.677 18.298 141.125 18.751 140.559 19.4198Z" fill="white"/>
<path id="Vector_6" d="M160.333 1.12292C163.017 1.12292 165.702 1.12292 168.467 1.12292C168.467 13.7447 168.467 26.3665 168.467 39.3708C165.783 39.3708 163.099 39.3708 160.333 39.3708C160.333 26.749 160.333 14.1272 160.333 1.12292Z" fill="white"/>
<path id="Vector_7" d="M193.458 14.9485C196.958 18.5084 196.937 23.3417 196.937 28.0468C191.78 28.0468 186.623 28.0468 181.31 28.0468C181.927 30.846 181.927 30.846 183.727 32.8823C185.91 34.1259 188.635 34.2199 191.065 33.6002C191.893 33.3524 192.703 33.0511 193.512 32.7477C194.147 32.5361 194.783 32.3246 195.438 32.1067C195.438 34.1515 195.438 36.1964 195.438 38.3032C192.172 39.3054 192.172 39.3054 190.637 39.5319C190.463 39.5575 190.29 39.5832 190.11 39.6088C186.229 40.1515 181.901 39.7926 178.596 37.5148C175.749 35.3182 174.231 32.4977 173.7 28.9592C173.18 24.5255 173.679 20.0062 176.519 16.4079C178.395 14.1943 180.713 12.9037 183.545 12.2883C187.188 12.0319 190.592 12.5041 193.458 14.9485ZM182.511 18.5789C181.419 20.1302 181.31 21.7028 181.31 23.5596C183.994 23.5596 186.679 23.5596 189.444 23.5596C189.444 21.3844 189.432 19.8887 188.053 18.2028C186.343 16.8802 183.947 16.8353 182.511 18.5789Z" fill="white"/>
<path id="Vector_8" d="M220.27 13.5162C220.335 15.623 220.142 17.6337 219.842 19.7127C219.645 19.6508 219.448 19.5888 219.245 19.5247C216.918 18.8452 214.379 18.2277 212.112 19.4307C210.488 20.5589 209.771 22.3174 209.353 24.1999C209.16 26.4072 209.148 28.6166 210.209 30.6102C210.282 30.7533 210.355 30.8986 210.43 31.0461C211.228 32.3794 212.635 32.9136 214.062 33.3879C215.884 33.5354 217.406 33.3837 219.108 32.7213C219.628 32.5332 219.628 32.5332 220.27 32.5332C220.452 33.9371 220.512 35.3003 220.497 36.7127C220.497 36.9093 220.495 37.1038 220.495 37.3046C220.493 37.779 220.489 38.2555 220.484 38.7298C219.801 38.8687 219.121 39.0055 218.438 39.1444C218.245 39.1828 218.055 39.2213 217.856 39.2619C213.542 40.1294 209.561 40.0439 205.714 37.6615C202.831 35.6166 201.405 32.5525 200.737 29.1679C200.133 25.0055 200.703 20.5375 203.212 17.0674C205.372 14.373 208.062 12.9029 211.468 12.3003C214.57 12.0033 217.331 12.5418 220.27 13.5162Z" fill="white"/>
<path id="Vector_9" d="M224.552 12.6614C227.236 12.6614 229.92 12.6614 232.686 12.6614C232.686 21.4755 232.686 30.2896 232.686 39.3708C230.002 39.3708 227.317 39.3708 224.552 39.3708C224.552 30.5567 224.552 21.7426 224.552 12.6614Z" fill="white"/>
<path id="Vector_10" d="M224.552 1.12292C227.236 1.12292 229.92 1.12292 232.686 1.12292C232.686 3.52036 232.686 5.9178 232.686 8.38788C230.002 8.38788 227.317 8.38788 224.552 8.38788C224.552 5.99045 224.552 3.59301 224.552 1.12292Z" fill="white"/>
<path id="Vector_11" d="M254.52 12.2341C254.884 12.5973 254.762 13.0567 254.764 13.5418C254.764 13.7704 254.764 13.7704 254.762 14.0033C254.762 14.1593 254.762 14.3153 254.764 14.4755C254.764 14.8046 254.762 15.1358 254.762 15.4648C254.762 15.9713 254.762 16.4777 254.764 16.9841C254.764 17.3046 254.762 17.623 254.762 17.9435C254.762 18.0952 254.764 18.249 254.764 18.405C254.758 19.4755 254.758 19.4755 254.52 19.7127C253.739 19.7106 252.958 19.6956 252.176 19.6678C250.811 19.6422 249.653 19.826 248.529 20.6764C246.564 23.0717 246.784 26.1187 246.746 29.0631C246.741 29.3623 246.737 29.6593 246.733 29.9584C246.722 30.7383 246.711 31.5161 246.701 32.296C246.69 33.0952 246.677 33.8922 246.666 34.6892C246.643 36.2512 246.621 37.811 246.6 39.3708C243.916 39.3708 241.231 39.3708 238.466 39.3708C238.395 30.5567 238.324 21.7426 238.252 12.6614C240.724 12.6614 243.196 12.6614 245.744 12.6614C245.885 14.0717 246.026 15.4819 246.172 16.9349C246.384 16.5781 246.596 16.2213 246.814 15.8537C247.857 14.2234 249.023 13.0546 250.881 12.4477C252.076 12.1999 253.304 12.155 254.52 12.2341Z" fill="white"/>
<path id="Vector_12" d="M274 13.3025C274 15.3474 274 17.3922 274 19.4991C273.152 19.2875 272.305 19.076 271.431 18.858C269.59 18.6722 267.839 18.67 266.317 19.8004C265.001 20.9734 264.256 22.7042 264.115 24.4585C264.048 27.091 264.04 29.2213 265.437 31.5311C266.514 32.6486 267.957 33.3089 269.485 33.4841C270.817 33.5012 271.885 33.3944 273.144 32.9606C273.426 32.9606 273.709 32.9606 274 32.9606C274 34.935 274 36.9093 274 38.9435C269.288 39.9734 264.851 40.3816 260.595 37.7021C257.763 35.732 256.188 32.7512 255.524 29.3944C254.903 24.8773 255.462 20.4713 258.196 16.7256C262.171 12.076 268.466 11.2298 274 13.3025Z" fill="white"/>
<path id="Vector_13" d="M6.42187 12.0204C7.33378 12.3729 7.94172 13.0524 8.61387 13.7319C8.74445 13.8644 8.87717 13.9947 9.01203 14.1294C9.44658 14.5631 9.87898 14.999 10.3114 15.4349C10.6132 15.7362 10.9129 16.0375 11.2147 16.3388C12.0068 17.1294 12.7988 17.9242 13.5887 18.717C14.3957 19.5268 15.2049 20.3366 16.0119 21.1443C17.5981 22.7319 19.1821 24.3195 20.7641 25.9093C19.9335 26.9007 19.073 27.8409 18.1546 28.7512C18.0283 28.8772 17.9042 29.0012 17.7757 29.1315C17.3647 29.5396 16.9559 29.9477 16.5449 30.3559C16.258 30.64 15.9733 30.9264 15.6865 31.2106C14.9373 31.9584 14.1881 32.7041 13.4367 33.4499C12.6704 34.2148 11.904 34.9777 11.1398 35.7405C9.63923 37.2362 8.13652 38.7319 6.63594 40.2255C5.67266 39.42 4.75219 38.5888 3.86811 37.6956C3.75466 37.5845 3.64334 37.4734 3.52775 37.358C3.17669 37.0054 2.82562 36.6529 2.47456 36.2982C2.23481 36.0588 1.99292 35.8174 1.75317 35.5759C1.16878 34.9883 0.584391 34.4029 0 33.8153C0.288984 33.1742 0.607937 32.7298 1.10456 32.2362C1.3122 32.0311 1.3122 32.0311 1.52198 31.8217C1.66969 31.6764 1.81525 31.5311 1.96938 31.3815C2.11922 31.2298 2.2712 31.0802 2.42747 30.9242C2.91125 30.4456 3.39503 29.967 3.87881 29.4883C4.20847 29.1635 4.53598 28.8366 4.8635 28.5118C5.66837 27.7148 6.47325 26.9178 7.27812 26.1229C6.41759 25.0909 5.51639 24.1272 4.55739 23.1871C4.28767 22.9221 4.02009 22.655 3.75038 22.39C3.33081 21.9755 2.91125 21.5631 2.48955 21.1507C2.08069 20.749 1.67397 20.3452 1.26511 19.9413C1.13881 19.8174 1.01252 19.6935 0.881938 19.5674C0.58011 19.2661 0.288984 18.9563 0 18.6443C0 18.5033 0 18.3623 0 18.217C0.288984 17.9349 0.288985 17.9349 0.702125 17.5952C1.92656 16.5567 3.04397 15.4157 4.17422 14.2768C4.39256 14.0567 4.61305 13.8388 4.83139 13.6187C5.36227 13.0866 5.89314 12.5546 6.42187 12.0204Z" fill="white"/>
<path id="Vector_14" d="M17.1249 0.909302C17.9105 1.23836 18.4114 1.71272 19.0108 2.31315C19.1114 2.41358 19.212 2.51187 19.3148 2.61443C19.6509 2.9499 19.9848 3.28537 20.3187 3.62084C20.5585 3.86229 20.8004 4.10161 21.0401 4.34093C21.693 4.99264 22.3438 5.64648 22.9967 6.29819C23.6774 6.98195 24.3581 7.66144 25.041 8.34306C26.3318 9.63366 27.6226 10.9243 28.9112 12.217C30.3797 13.6871 31.8503 15.1572 33.3188 16.6251C36.3413 19.6465 39.3639 22.67 42.3843 25.6956C42.0546 26.4798 41.5794 26.9798 40.9822 27.5781C40.8816 27.6785 40.781 27.779 40.6782 27.8815C40.3443 28.217 40.0103 28.5503 39.6743 28.8837C39.4345 29.123 39.1948 29.3644 38.955 29.6037C38.3043 30.2555 37.6514 30.905 36.9985 31.5567C36.3178 32.2362 35.6371 32.9157 34.9542 33.5973C33.8111 34.7405 32.6659 35.8815 31.5206 37.0225C30.1956 38.3431 28.8727 39.6657 27.5498 40.9884C26.4131 42.123 25.2786 43.2576 24.1419 44.3901C23.4612 45.0674 22.7826 45.7448 22.104 46.4243C21.4683 47.061 20.8282 47.6978 20.1903 48.3324C19.9548 48.5674 19.7215 48.8003 19.486 49.0354C19.1671 49.3559 18.8481 49.6721 18.527 49.9905C18.3494 50.1678 18.1696 50.3473 17.9855 50.5311C17.5531 50.9093 17.5531 50.9093 17.1249 50.9093C16.7996 50.5738 16.7996 50.5738 16.4292 50.1208C15.9476 49.5525 15.4766 49.0482 14.8901 48.5845C14.7103 48.4349 14.5283 48.2854 14.3421 48.1315C14.3421 47.9905 14.3421 47.8495 14.3421 47.7042C14.2287 47.6593 14.1152 47.6144 13.9975 47.5696C13.2718 47.155 12.7259 46.6059 12.1351 46.0204C12.0131 45.9093 11.8932 45.7961 11.7691 45.6785C11.4287 45.3431 11.4287 45.3431 10.9171 44.7127C10.9728 43.9649 11.3131 43.5973 11.8312 43.0824C11.981 42.9307 12.1308 42.7811 12.285 42.6273C12.4498 42.4627 12.6168 42.3003 12.7859 42.1337C12.9593 41.9606 13.1327 41.7875 13.3125 41.608C13.8862 41.0354 14.462 40.4649 15.0378 39.8943C15.436 39.499 15.8341 39.1016 16.2323 38.7063C17.1742 37.7683 18.116 36.8324 19.0601 35.8986C20.1346 34.8324 21.205 33.7661 22.2774 32.6999C24.4823 30.5055 26.6892 28.3131 28.8984 26.123C28.603 25.4606 28.2669 25.014 27.751 24.5055C27.6033 24.358 27.4534 24.2106 27.3015 24.0589C27.1388 23.9008 26.9739 23.7405 26.807 23.576C26.6357 23.4072 26.4645 23.2362 26.2868 23.0631C25.9143 22.6935 25.5419 22.326 25.1673 21.9584C24.5764 21.3794 23.9899 20.7961 23.4012 20.2127C21.7294 18.5567 20.0554 16.9029 18.3772 15.2512C17.3518 14.2405 16.3286 13.2277 15.3075 12.2127C14.9158 11.826 14.5241 11.4414 14.1323 11.0567C13.5843 10.5204 13.0406 9.97981 12.4969 9.43922C12.2507 9.1999 12.2507 9.1999 12.0003 8.95631C11.8526 8.80887 11.707 8.66144 11.555 8.50973C11.4266 8.38152 11.296 8.25546 11.1633 8.12298C10.9171 7.74691 10.9171 7.74691 10.9685 7.29178C11.1526 6.83879 11.3559 6.59093 11.7049 6.24691C11.8847 6.06742 11.8847 6.06742 12.0688 5.88366C12.1993 5.75759 12.3299 5.62939 12.4626 5.49905C12.5954 5.3687 12.7281 5.23623 12.8651 5.10161C13.2889 4.68067 13.7149 4.264 14.1409 3.84734C14.4299 3.56315 14.7167 3.27896 15.0057 2.99477C15.71 2.29819 16.4164 1.60375 17.1249 0.909302Z" fill="white"/>
</g>
</svg>
