<svg width="60" height="60" viewBox="0 0 60 60" fill="none" xmlns="http://www.w3.org/2000/svg">
<mask id="path-1-inside-1_1_465" fill="white">
<path fill-rule="evenodd" clip-rule="evenodd" d="M0.386092 25.2098C2.24033 13.3021 11.6764 3.61629 23.6318 1.34884C41.1236 -1.96917 57.3378 8.90779 59.6906 25.5371C60.3511 30.2049 59.8936 36.8363 58.8905 37.1344C58.5362 37.2398 57.4545 37.5009 56.4866 37.7153C52.5875 38.5785 47.9809 45.7726 47.9809 50.9985C47.9809 53.6963 46.9538 54.9929 43.6782 56.4264C34.5777 60.4103 23.1367 60.1631 15.125 55.8098C12.3979 54.3282 12.3492 54.2515 11.9902 50.8193C11.2493 43.747 7.53379 38.4022 2.8369 37.6526L0.54506 37.2866L0.129162 33.4088C-0.11369 31.1478 -0.00634246 27.729 0.386092 25.2098ZM8.34975 19.5628C11.3655 13.4152 18.0744 7.91753 24.368 6.43713C28.0958 5.5599 33.0426 5.74847 36.7822 6.91089C46.7115 9.99583 52.9917 17.8435 53.6921 28.0406C54.0002 32.5021 53.5002 33.5021 53.5002 33.5021C53.5002 33.5021 53.4287 33.6038 52.7687 36.068C51.751 39.8668 49.5665 43.3201 46.183 46.4794C34.5021 57.3868 15.6992 53.7988 8.54802 39.297C6.74541 35.6411 6.62574 35.0157 6.62574 29.2375C6.62574 23.6081 6.77474 22.7731 8.34975 19.5628ZM21.3054 17.8692C18.3313 15.9239 19.1097 11.5752 22.7578 9.75515C27.0558 7.61068 36.5376 8.94175 41.6773 12.4103C51.9862 19.3672 53.7179 35.7067 45.0421 44.1633L42.864 46.2867L42.4816 43.8975C42.2299 42.3257 41.3653 40.6983 39.9563 39.1406C37.411 36.3286 37.0913 33.7256 39.0922 32.1081C39.7955 31.5395 40.6643 30.9768 41.0233 30.8573C42.2264 30.4567 40.9259 27.0298 38.5455 24.3302C35.9762 21.4162 33.3858 20.3276 26.6593 19.3362C24.4501 19.0106 22.041 18.3506 21.3054 17.8692ZM9.60859 28.3468C9.60625 23.4448 11.1824 19.2876 14.3976 15.7177L17.1006 12.7165L17.794 15.4419C18.207 17.067 19.2699 18.9731 20.4266 20.1648C22.783 22.5921 23.0517 25.3398 21.0872 26.9279C20.3838 27.4965 19.5151 28.0593 19.1561 28.1788C17.9694 28.5735 19.2804 32.1972 21.4984 34.6508C24.1146 37.5455 26.2926 38.4965 32.6584 39.5254C38.2082 40.4219 40.0384 41.3542 40.5945 43.5672C41.9624 49.008 34.2739 51.8482 24.7868 49.4074C15.5309 47.0257 9.61329 38.815 9.60859 28.3468ZM23.9304 29.1959C23.9304 27.866 24.5076 26.7751 25.9999 25.2853C27.8706 23.4178 28.3017 23.2503 30.4892 23.5431C33.6351 23.9648 35.6524 25.9787 36.0747 29.1192C36.368 31.3029 36.2003 31.7334 34.3296 33.6008C32.8649 35.0631 31.7363 35.6668 30.4692 35.6668C26.5425 35.6668 23.9304 33.082 23.9304 29.1959Z"/>
</mask>
<path fill-rule="evenodd" clip-rule="evenodd" d="M0.386092 25.2098C2.24033 13.3021 11.6764 3.61629 23.6318 1.34884C41.1236 -1.96917 57.3378 8.90779 59.6906 25.5371C60.3511 30.2049 59.8936 36.8363 58.8905 37.1344C58.5362 37.2398 57.4545 37.5009 56.4866 37.7153C52.5875 38.5785 47.9809 45.7726 47.9809 50.9985C47.9809 53.6963 46.9538 54.9929 43.6782 56.4264C34.5777 60.4103 23.1367 60.1631 15.125 55.8098C12.3979 54.3282 12.3492 54.2515 11.9902 50.8193C11.2493 43.747 7.53379 38.4022 2.8369 37.6526L0.54506 37.2866L0.129162 33.4088C-0.11369 31.1478 -0.00634246 27.729 0.386092 25.2098ZM8.34975 19.5628C11.3655 13.4152 18.0744 7.91753 24.368 6.43713C28.0958 5.5599 33.0426 5.74847 36.7822 6.91089C46.7115 9.99583 52.9917 17.8435 53.6921 28.0406C54.0002 32.5021 53.5002 33.5021 53.5002 33.5021C53.5002 33.5021 53.4287 33.6038 52.7687 36.068C51.751 39.8668 49.5665 43.3201 46.183 46.4794C34.5021 57.3868 15.6992 53.7988 8.54802 39.297C6.74541 35.6411 6.62574 35.0157 6.62574 29.2375C6.62574 23.6081 6.77474 22.7731 8.34975 19.5628ZM21.3054 17.8692C18.3313 15.9239 19.1097 11.5752 22.7578 9.75515C27.0558 7.61068 36.5376 8.94175 41.6773 12.4103C51.9862 19.3672 53.7179 35.7067 45.0421 44.1633L42.864 46.2867L42.4816 43.8975C42.2299 42.3257 41.3653 40.6983 39.9563 39.1406C37.411 36.3286 37.0913 33.7256 39.0922 32.1081C39.7955 31.5395 40.6643 30.9768 41.0233 30.8573C42.2264 30.4567 40.9259 27.0298 38.5455 24.3302C35.9762 21.4162 33.3858 20.3276 26.6593 19.3362C24.4501 19.0106 22.041 18.3506 21.3054 17.8692ZM9.60859 28.3468C9.60625 23.4448 11.1824 19.2876 14.3976 15.7177L17.1006 12.7165L17.794 15.4419C18.207 17.067 19.2699 18.9731 20.4266 20.1648C22.783 22.5921 23.0517 25.3398 21.0872 26.9279C20.3838 27.4965 19.5151 28.0593 19.1561 28.1788C17.9694 28.5735 19.2804 32.1972 21.4984 34.6508C24.1146 37.5455 26.2926 38.4965 32.6584 39.5254C38.2082 40.4219 40.0384 41.3542 40.5945 43.5672C41.9624 49.008 34.2739 51.8482 24.7868 49.4074C15.5309 47.0257 9.61329 38.815 9.60859 28.3468ZM23.9304 29.1959C23.9304 27.866 24.5076 26.7751 25.9999 25.2853C27.8706 23.4178 28.3017 23.2503 30.4892 23.5431C33.6351 23.9648 35.6524 25.9787 36.0747 29.1192C36.368 31.3029 36.2003 31.7334 34.3296 33.6008C32.8649 35.0631 31.7363 35.6668 30.4692 35.6668C26.5425 35.6668 23.9304 33.082 23.9304 29.1959Z" fill="url(#paint0_linear_1_465)"/>
<path d="M23.6318 1.34884L23.725 1.84009L23.725 1.84008L23.6318 1.34884ZM0.386092 25.2098L0.880134 25.2867L0.880138 25.2867L0.386092 25.2098ZM59.6906 25.5371L59.1955 25.6072V25.6072L59.6906 25.5371ZM58.8905 37.1344L58.7481 36.6551L58.7479 36.6551L58.8905 37.1344ZM56.4866 37.7153L56.5947 38.2035L56.5947 38.2035L56.4866 37.7153ZM43.6782 56.4264L43.4778 55.9684L43.4777 55.9684L43.6782 56.4264ZM15.125 55.8098L15.3637 55.3704L15.3637 55.3704L15.125 55.8098ZM11.9902 50.8193L12.4875 50.7673L12.4875 50.7672L11.9902 50.8193ZM2.8369 37.6526L2.75805 38.1464L2.7581 38.1464L2.8369 37.6526ZM0.54506 37.2866L0.0479114 37.3399L0.0886806 37.7201L0.466211 37.7804L0.54506 37.2866ZM0.129162 33.4088L0.626311 33.3554L0.626303 33.3554L0.129162 33.4088ZM24.368 6.43713L24.4825 6.92385L24.4825 6.92384L24.368 6.43713ZM8.34975 19.5628L8.79864 19.783L8.79865 19.783L8.34975 19.5628ZM36.7822 6.91089L36.6338 7.38835L36.6338 7.38837L36.7822 6.91089ZM53.6921 28.0406L53.1932 28.0748L53.1932 28.075L53.6921 28.0406ZM53.5002 33.5021L53.909 33.79L53.9307 33.7593L53.9474 33.7257L53.5002 33.5021ZM52.7687 36.068L53.2517 36.1974L53.2517 36.1973L52.7687 36.068ZM46.183 46.4794L45.8418 46.1139L45.8418 46.1139L46.183 46.4794ZM8.54802 39.297L8.09957 39.5181L8.09958 39.5181L8.54802 39.297ZM22.7578 9.75515L22.981 10.2026L22.981 10.2026L22.7578 9.75515ZM21.3054 17.8692L21.5791 17.4509L21.5791 17.4508L21.3054 17.8692ZM41.6773 12.4103L41.957 11.9958L41.957 11.9958L41.6773 12.4103ZM45.0421 44.1633L44.6931 43.8053L44.693 43.8053L45.0421 44.1633ZM42.864 46.2867L42.3703 46.3658L42.5227 47.3178L43.2131 46.6447L42.864 46.2867ZM42.4816 43.8975L42.9753 43.8184V43.8184L42.4816 43.8975ZM39.9563 39.1406L40.3271 38.8052L40.327 38.8051L39.9563 39.1406ZM39.0922 32.1081L39.4065 32.497L39.4066 32.497L39.0922 32.1081ZM41.0233 30.8573L41.1812 31.3317L41.1812 31.3317L41.0233 30.8573ZM38.5455 24.3302L38.1705 24.6609L38.1705 24.6609L38.5455 24.3302ZM26.6593 19.3362L26.7322 18.8415L26.6593 19.3362ZM14.3976 15.7177L14.0261 15.3831L14.0261 15.3831L14.3976 15.7177ZM9.60859 28.3468L10.1086 28.3466V28.3466L9.60859 28.3468ZM17.1006 12.7165L17.5852 12.5933L17.3547 11.6873L16.7291 12.3819L17.1006 12.7165ZM17.794 15.4419L18.2786 15.3188L18.2786 15.3186L17.794 15.4419ZM20.4266 20.1648L20.0679 20.5131L20.0679 20.5131L20.4266 20.1648ZM21.0872 26.9279L20.7728 26.5391L20.7728 26.5391L21.0872 26.9279ZM19.1561 28.1788L19.3139 28.6532L19.3139 28.6532L19.1561 28.1788ZM21.4984 34.6508L21.8693 34.3156L21.8693 34.3155L21.4984 34.6508ZM32.6584 39.5254L32.5786 40.019L32.5787 40.019L32.6584 39.5254ZM40.5945 43.5672L40.1096 43.689L40.1096 43.6891L40.5945 43.5672ZM24.7868 49.4074L24.6622 49.8916L24.6622 49.8916L24.7868 49.4074ZM25.9999 25.2853L26.3532 25.6392L25.9999 25.2853ZM30.4892 23.5431L30.5556 23.0476L30.5555 23.0476L30.4892 23.5431ZM36.0747 29.1192L36.5703 29.0527L36.5703 29.0526L36.0747 29.1192ZM34.3296 33.6008L34.6829 33.9547L34.3296 33.6008ZM23.5386 0.8576C11.3781 3.16394 1.77926 13.0135 -0.107954 25.1328L0.880138 25.2867C2.7014 13.5908 11.9746 4.06864 23.725 1.84009L23.5386 0.8576ZM60.1857 25.4671C57.7888 8.52645 41.2814 -2.50802 23.5386 0.857603L23.725 1.84008C40.9658 -1.43033 56.8867 9.28912 59.1955 25.6072L60.1857 25.4671ZM59.0329 37.6136C59.3768 37.5115 59.5746 37.1955 59.689 36.9618C59.8198 36.6947 59.9276 36.3521 60.0182 35.9677C60.2006 35.194 60.3337 34.1613 60.4132 33.0088C60.5724 30.7017 60.5216 27.8413 60.1857 25.4671L59.1955 25.6072C59.5201 27.9007 59.5708 30.6899 59.4156 32.94C59.3379 34.0661 59.2098 35.0389 59.0449 35.7382C58.9619 36.0903 58.8746 36.3511 58.7909 36.522C58.6909 36.7263 58.655 36.6827 58.7481 36.6551L59.0329 37.6136ZM56.5947 38.2035C57.561 37.9895 58.6593 37.7248 59.0331 37.6136L58.7479 36.6551C58.4131 36.7547 57.348 37.0124 56.3785 37.2271L56.5947 38.2035ZM48.4809 50.9985C48.4809 48.5121 49.5855 45.5005 51.1927 42.9905C51.9928 41.7409 52.906 40.6342 53.8462 39.7926C54.7915 38.9463 55.735 38.3938 56.5947 38.2035L56.3785 37.2271C55.2886 37.4684 54.1942 38.1388 53.1792 39.0475C52.159 39.9608 51.1894 41.1411 50.3505 42.4512C48.6797 45.0606 47.4809 48.259 47.4809 50.9985H48.4809ZM43.8787 56.8845C45.5363 56.159 46.7053 55.4364 47.4498 54.4971C48.2102 53.5377 48.4809 52.4138 48.4809 50.9985H47.4809C47.4809 52.281 47.2381 53.1543 46.6661 53.876C46.0781 54.6178 45.0958 55.2602 43.4778 55.9684L43.8787 56.8845ZM14.8862 56.2491C23.0471 60.6835 34.6514 60.9238 43.8787 56.8844L43.4777 55.9684C34.5041 59.8967 23.2264 59.6428 15.3637 55.3704L14.8862 56.2491ZM11.4929 50.8713C11.582 51.723 11.6544 52.3943 11.7568 52.9322C11.8601 53.4749 12.0004 53.9209 12.2462 54.312C12.4941 54.7066 12.8258 55.0084 13.2529 55.3004C13.672 55.5869 14.2111 55.8823 14.8863 56.2491L15.3637 55.3704C14.6753 54.9964 14.1856 54.7267 13.8174 54.4749C13.4571 54.2286 13.2429 54.0188 13.0929 53.78C12.9407 53.5377 12.8311 53.2284 12.7391 52.7452C12.6462 52.2571 12.5779 51.6317 12.4875 50.7673L11.4929 50.8713ZM2.7581 38.1464C4.93749 38.4942 6.93287 39.9155 8.48651 42.1503C10.0394 44.3841 11.1297 47.4047 11.4929 50.8714L12.4875 50.7672C12.1098 47.1616 10.9719 43.9737 9.30759 41.5795C7.64403 39.1865 5.43321 37.5606 2.9157 37.1589L2.7581 38.1464ZM0.466211 37.7804L2.75805 38.1464L2.91575 37.1589L0.62391 36.7929L0.466211 37.7804ZM-0.367987 33.4621L0.0479114 37.3399L1.04221 37.2333L0.626311 33.3554L-0.367987 33.4621ZM-0.10795 25.1328C-0.506296 27.69 -0.61602 31.1528 -0.367979 33.4622L0.626303 33.3554C0.388641 31.1427 0.493611 27.768 0.880134 25.2867L-0.10795 25.1328ZM24.2535 5.95042C17.8045 7.46736 10.978 13.0697 7.90085 19.3426L8.79865 19.783C11.7529 13.7607 18.3442 8.3677 24.4825 6.92385L24.2535 5.95042ZM36.9306 6.43342C33.1078 5.24512 28.0702 5.05228 24.2535 5.95043L24.4825 6.92384C28.1215 6.06753 32.9775 6.25181 36.6338 7.38835L36.9306 6.43342ZM54.1909 28.0063C53.476 17.5986 47.0525 9.57818 36.9305 6.4334L36.6338 7.38837C46.3706 10.4135 52.5073 18.0884 53.1932 28.0748L54.1909 28.0063ZM53.5002 33.5021C53.9474 33.7257 53.9477 33.7253 53.9479 33.7248C53.948 33.7247 53.9482 33.7242 53.9483 33.7239C53.9487 33.7233 53.949 33.7227 53.9493 33.722C53.9499 33.7207 53.9506 33.7194 53.9513 33.718C53.9526 33.7151 53.9541 33.7121 53.9556 33.7088C53.9586 33.7021 53.962 33.6945 53.9657 33.6859C53.9731 33.6686 53.9817 33.6471 53.9912 33.6208C54.0102 33.5684 54.0331 33.4965 54.0578 33.4008C54.1069 33.2097 54.1636 32.9209 54.2089 32.4977C54.2994 31.6523 54.3463 30.2561 54.1909 28.0061L53.1932 28.075C53.346 30.2866 53.297 31.6212 53.2146 32.3912C53.1734 32.7757 53.1243 33.0157 53.0893 33.1516C53.0719 33.2193 53.0582 33.2604 53.051 33.2801C53.0475 33.2899 53.0456 33.2942 53.0458 33.2937C53.0459 33.2935 53.0465 33.2921 53.0477 33.2895C53.0483 33.2882 53.049 33.2867 53.0499 33.2848C53.0504 33.2839 53.0508 33.2829 53.0514 33.2819C53.0516 33.2814 53.0519 33.2808 53.0522 33.2803C53.0523 33.28 53.0525 33.2795 53.0526 33.2794C53.0528 33.279 53.053 33.2785 53.5002 33.5021ZM53.2517 36.1973C53.5813 34.9668 53.7626 34.3312 53.8607 34.0051C53.91 33.8415 53.9369 33.7606 53.95 33.7235C53.9567 33.7048 53.9581 33.702 53.9556 33.7079C53.9543 33.7109 53.9507 33.7193 53.9448 33.7307C53.9418 33.7366 53.9376 33.7446 53.9322 33.7538C53.9295 33.7586 53.9263 33.764 53.9225 33.7699C53.9206 33.7728 53.9186 33.776 53.9163 33.7794C53.9152 33.781 53.9141 33.7828 53.9129 33.7845C53.9122 33.7854 53.9113 33.7868 53.911 33.7872C53.91 33.7886 53.909 33.79 53.5002 33.5021C53.0914 33.2143 53.0904 33.2157 53.0895 33.2171C53.0892 33.2175 53.0882 33.2189 53.0876 33.2198C53.0864 33.2215 53.0852 33.2233 53.0841 33.225C53.0818 33.2283 53.0798 33.2315 53.0778 33.2346C53.074 33.2406 53.0707 33.2462 53.0678 33.2512C53.0621 33.261 53.0574 33.2698 53.0537 33.277C53.0465 33.2912 53.0407 33.3041 53.0361 33.3148C53.0271 33.3358 53.0178 33.3602 53.0075 33.3895C52.9865 33.4486 52.9543 33.547 52.9032 33.7168C52.8006 34.0576 52.6162 34.7049 52.2858 35.9386L53.2517 36.1973ZM46.5242 46.8448C49.9639 43.6331 52.2057 40.1015 53.2517 36.1974L52.2858 35.9386C51.2963 39.632 49.1692 43.007 45.8418 46.1139L46.5242 46.8448ZM8.09958 39.5181C15.3952 54.3128 34.5919 57.987 46.5243 46.8448L45.8418 46.1139C34.4122 56.7866 16.0033 53.2849 8.99646 39.0758L8.09958 39.5181ZM6.12574 29.2375C6.12574 32.1137 6.15389 33.7656 6.41979 35.1569C6.6891 36.5662 7.19865 37.6909 8.09957 39.5181L8.99647 39.0759C8.09478 37.2471 7.64318 36.2312 7.40201 34.9692C7.15742 33.6894 7.12574 32.1395 7.12574 29.2375H6.12574ZM7.90087 19.3426C7.10942 20.9557 6.65189 22.0192 6.40487 23.4053C6.16157 24.7705 6.12574 26.4325 6.12574 29.2375H7.12574C7.12574 26.4132 7.1644 24.843 7.38936 23.5807C7.61059 22.3393 8.01507 21.3801 8.79864 19.783L7.90087 19.3426ZM22.5346 9.30774C20.5815 10.2821 19.3652 11.9506 19.0561 13.6771C18.745 15.4152 19.3628 17.196 21.0317 18.2877L21.5791 17.4508C20.2739 16.5971 19.7939 15.2309 20.0405 13.8533C20.2891 12.4641 21.286 11.0482 22.981 10.2026L22.5346 9.30774ZM41.957 11.9958C39.3061 10.2068 35.5718 8.98802 31.9714 8.48269C28.3869 7.9796 24.8193 8.16776 22.5346 9.30775L22.981 10.2026C24.9942 9.19807 28.3166 8.97954 31.8324 9.47299C35.3323 9.96421 38.9088 11.1452 41.3977 12.8247L41.957 11.9958ZM45.3911 44.5214C49.8588 40.1665 51.6262 33.8054 50.9762 27.6717C50.3261 21.5374 47.2525 15.5695 41.957 11.9958L41.3977 12.8247C46.411 16.208 49.3577 21.8883 49.9817 27.7771C50.6058 33.6665 48.9011 39.7035 44.6931 43.8053L45.3911 44.5214ZM43.2131 46.6447L45.3911 44.5214L44.693 43.8053L42.515 45.9287L43.2131 46.6447ZM41.9879 43.9765L42.3703 46.3658L43.3577 46.2077L42.9753 43.8184L41.9879 43.9765ZM39.5855 39.476C40.95 40.9846 41.7557 42.5266 41.9879 43.9765L42.9753 43.8184C42.7041 42.1249 41.7805 40.412 40.3271 38.8052L39.5855 39.476ZM38.7779 31.7193C37.6463 32.634 37.1537 33.8577 37.3232 35.2374C37.4886 36.5837 38.2765 38.0299 39.5856 39.4762L40.327 38.8051C39.0907 37.4393 38.4462 36.178 38.3157 35.1154C38.1893 34.0862 38.5372 33.1997 39.4065 32.497L38.7779 31.7193ZM40.8654 30.3829C40.6187 30.465 40.2637 30.6688 39.915 30.8946C39.5508 31.1305 39.1436 31.4236 38.7779 31.7193L39.4066 32.497C39.7442 32.224 40.1229 31.9514 40.4587 31.7339C40.81 31.5064 41.0689 31.3691 41.1812 31.3317L40.8654 30.3829ZM38.1705 24.6609C39.3263 25.9717 40.2125 27.4525 40.6608 28.6333C40.8871 29.2296 40.9864 29.7098 40.9786 30.0361C40.9706 30.3673 40.8707 30.3811 40.8653 30.3829L41.1812 31.3317C41.7775 31.1332 41.9661 30.5684 41.9783 30.0601C41.9906 29.5468 41.8416 28.9264 41.5957 28.2785C41.0993 26.9708 40.1451 25.3883 38.9205 23.9995L38.1705 24.6609ZM26.5863 19.8308C29.9412 20.3253 32.2187 20.8383 33.9677 21.5732C35.6978 22.3001 36.928 23.2517 38.1705 24.6609L38.9205 23.9995C37.5937 22.4947 36.244 21.445 34.355 20.6513C32.4848 19.8655 30.1038 19.3385 26.7322 18.8415L26.5863 19.8308ZM21.0316 18.2876C21.4734 18.5767 22.3317 18.8787 23.2976 19.1434C24.2873 19.4145 25.4616 19.6651 26.5863 19.8308L26.7322 18.8415C25.6478 18.6817 24.513 18.4395 23.5619 18.1789C22.587 17.9118 21.873 17.6431 21.5791 17.4509L21.0316 18.2876ZM14.0261 15.3831C10.7263 19.0469 9.10619 23.3241 9.10859 28.3471L10.1086 28.3466C10.1063 23.5654 11.6386 19.5282 14.7691 16.0524L14.0261 15.3831ZM16.7291 12.3819L14.0261 15.3831L14.7691 16.0524L17.4722 13.0512L16.7291 12.3819ZM18.2786 15.3186L17.5852 12.5933L16.6161 12.8398L17.3094 15.5652L18.2786 15.3186ZM20.7854 19.8165C19.6901 18.6881 18.6702 16.8598 18.2786 15.3188L17.3094 15.5651C17.7437 17.2741 18.8497 19.2581 20.0679 20.5131L20.7854 19.8165ZM21.4015 27.3167C22.5175 26.4145 23.007 25.1647 22.8749 23.8124C22.7447 22.4798 22.0176 21.0858 20.7854 19.8165L20.0679 20.5131C21.1921 21.6711 21.7775 22.8646 21.8796 23.9097C21.9798 24.9351 21.6213 25.8532 20.7728 26.5391L21.4015 27.3167ZM19.3139 28.6532C19.5607 28.5711 19.9157 28.3673 20.2643 28.1414C20.6285 27.9055 21.0358 27.6124 21.4015 27.3167L20.7728 26.5391C20.4352 26.812 20.0564 27.0846 19.7207 27.3021C19.3693 27.5297 19.1104 27.667 18.9982 27.7043L19.3139 28.6532ZM21.8693 34.3155C20.8033 33.1362 19.955 31.6728 19.5206 30.4725C19.3017 29.8676 19.202 29.3675 19.2094 29.0222C19.2131 28.8506 19.2428 28.7502 19.269 28.6995C19.2888 28.6614 19.3015 28.6573 19.3139 28.6532L18.9983 27.7043C18.3932 27.9056 18.2204 28.4981 18.2096 29.0007C18.1984 29.5226 18.3426 30.1558 18.5803 30.8128C19.0593 32.1365 19.9755 33.7118 21.1274 34.9861L21.8693 34.3155ZM32.7382 39.0318C29.5607 38.5182 27.4781 38.0308 25.8724 37.3295C24.2864 36.6368 23.1434 35.7252 21.8693 34.3156L21.1274 34.9861C22.4696 36.4711 23.7236 37.4823 25.4722 38.2459C27.2011 39.0011 29.3903 39.5036 32.5786 40.019L32.7382 39.0318ZM41.0794 43.4453C40.926 42.8347 40.6788 42.2915 40.2878 41.8121C39.898 41.3341 39.3835 40.942 38.726 40.6071C37.4287 39.9464 35.514 39.4802 32.7381 39.0318L32.5787 40.019C35.3526 40.4671 37.1279 40.9154 38.2722 41.4982C38.8354 41.785 39.2297 42.0969 39.5128 42.4441C39.7948 42.7899 39.985 43.1932 40.1096 43.689L41.0794 43.4453ZM24.6622 49.8916C29.4701 51.1286 33.8736 51.0427 36.9346 49.9119C38.4668 49.3458 39.6963 48.5046 40.449 47.3998C41.2111 46.2811 41.454 44.935 41.0794 43.4453L40.1096 43.6891C40.419 44.9198 40.2137 45.9691 39.6225 46.8368C39.0219 47.7185 37.9928 48.4549 36.588 48.9739C33.7749 50.0131 29.5906 50.127 24.9114 48.9232L24.6622 49.8916ZM9.10859 28.347C9.11337 39.013 15.1573 47.4459 24.6622 49.8916L24.9114 48.9232C15.9045 46.6056 10.1132 38.6171 10.1086 28.3466L9.10859 28.347ZM25.6467 24.9314C24.1135 26.462 23.4304 27.6735 23.4304 29.1959H24.4304C24.4304 28.0586 24.9017 27.0882 26.3532 25.6392L25.6467 24.9314ZM30.5555 23.0476C29.4679 22.902 28.6934 22.8475 27.9448 23.138C27.2156 23.421 26.5687 24.011 25.6467 24.9314L26.3532 25.6392C27.3018 24.6921 27.8058 24.2646 28.3067 24.0702C28.7882 23.8834 29.323 23.8915 30.4228 24.0387L30.5555 23.0476ZM36.5703 29.0526C36.3467 27.39 35.6956 25.995 34.6565 24.9577C33.6176 23.9205 32.2205 23.2707 30.5556 23.0476L30.4227 24.0387C31.9038 24.2372 33.0883 24.8051 33.95 25.6654C34.8117 26.5257 35.3804 27.7079 35.5792 29.1859L36.5703 29.0526ZM34.6829 33.9547C35.6048 33.0343 36.196 32.3884 36.4796 31.6601C36.7708 30.9122 36.7161 30.1384 36.5703 29.0527L35.5792 29.1858C35.7267 30.2838 35.7347 30.8171 35.5477 31.2972C35.3531 31.7969 34.9251 32.2999 33.9764 33.247L34.6829 33.9547ZM30.4692 36.1668C31.9315 36.1668 33.1809 35.4541 34.6829 33.9547L33.9764 33.247C32.5488 34.6721 31.541 35.1668 30.4692 35.1668V36.1668ZM23.4304 29.1959C23.4304 31.2539 24.1244 33.0059 25.3756 34.2441C26.6263 35.4818 28.3941 36.1668 30.4692 36.1668V35.1668C28.6176 35.1668 27.116 34.5595 26.079 33.5333C25.0425 32.5075 24.4304 31.024 24.4304 29.1959H23.4304Z" fill="url(#paint1_linear_1_465)" mask="url(#path-1-inside-1_1_465)"/>
<defs>
<linearGradient id="paint0_linear_1_465" x1="-8" y1="-3.50098" x2="63.1808" y2="4.34864" gradientUnits="userSpaceOnUse">
<stop stop-color="#F9B58F"/>
<stop offset="0.315" stop-color="#FCC499"/>
<stop offset="0.665" stop-color="#F8B466"/>
<stop offset="1" stop-color="#F7B78A"/>
</linearGradient>
<linearGradient id="paint1_linear_1_465" x1="7.5" y1="0.752929" x2="68.51" y2="14.1389" gradientUnits="userSpaceOnUse">
<stop stop-color="#F9B58F"/>
<stop offset="0.315" stop-color="#F8C39B"/>
<stop offset="0.665" stop-color="#F8B466"/>
<stop offset="1" stop-color="#FCE0CD"/>
</linearGradient>
</defs>
</svg>
